<?xml version="1.0" standalone="no"?>
<!DOCTYPE svg PUBLIC "-//W3C//DTD SVG 1.1//EN" "http://www.w3.org/Graphics/SVG/1.1/DTD/svg11.dtd" >
<svg xmlns="http://www.w3.org/2000/svg" xmlns:xlink="http://www.w3.org/1999/xlink" version="1.1">
<metadata>
Created by FontForge 20170731 at Fri Aug 27 18:28:14 2021
 By Aleksey,,,
Copyright (c) 2014-16 by David Brezina. All rights reserved.
</metadata>
<defs>
<font id="SkolarSansLatn-Th" horiz-adv-x="1128" >
  <font-face 
    font-family="Skolar Sans Latn Th"
    font-weight="100"
    font-stretch="normal"
    units-per-em="2048"
    panose-1="2 13 0 0 0 4 0 0 0 0"
    ascent="1536"
    descent="-512"
    x-height="934"
    cap-height="1372"
    bbox="-408 -532 2367 2136"
    underline-thickness="51"
    underline-position="-316"
    unicode-range="U+000D-FC01"
  />
<missing-glyph horiz-adv-x="1390" 
d="M213 1358h965v-1358h-965v1358zM1026 98l-330 494l-329 -494h659zM637 678l-328 493v-989zM1083 182v989l-329 -493zM696 766l330 494h-659z" />
    <glyph glyph-name="f_b" unicode="fb" horiz-adv-x="1589" 
d="M221 1227q0 332 297 332q121 0 225 -37l66 12v-727q146 156 299 156q174 0 265 -137t91 -357q0 -75 -14 -144t-46 -133.5t-79.5 -111.5t-119.5 -75t-161 -28q-83 0 -148 12t-153 40v1427q-106 41 -227 41q-125 0 -177 -66.5t-52 -199.5v-297h243v-55h-243v-879h-66v879
h-145v55h145v293zM1051 37q138 0 211 65q71 67 103 154t32 211q0 196 -75.5 315t-211.5 119q-140 0 -301 -164v-663q116 -37 242 -37z" />
    <glyph glyph-name="f_f" unicode="ff" horiz-adv-x="1103" 
d="M221 1165q0 156 75.5 244t205.5 88q128 0 266 -98q58 160 223 160q60 0 110 -24.5t109 -76.5l-36 -41q-103 80 -187 80q-92 0 -136 -71t-44 -195v-297h244v-55h-244v-879h-66v879h-454v-879h-66v879h-145v55h145v231zM741 1227q0 52 11 116q-136 93 -252 93
q-106 0 -159.5 -71t-53.5 -196v-235h454v293z" />
    <glyph glyph-name="f_h" unicode="fh" horiz-adv-x="1593" 
d="M221 1227q0 332 295 332q129 0 227 -37l66 12v-700q175 129 348 129q145 0 202.5 -82.5t57.5 -245.5v-635h-65v598q0 162 -41 232.5t-156 70.5q-174 0 -346 -133v-768h-66v1456q-106 41 -229 41q-124 0 -175.5 -66t-51.5 -200v-297h243v-55h-243v-879h-66v879h-145v55
h145v293z" />
    <glyph glyph-name="f_i" unicode="fi" horiz-adv-x="991" 
d="M221 1227q0 157 69 244.5t195 87.5q172 0 308 -154l-37 -41q-60 63 -132.5 98t-138.5 35q-198 0 -198 -266v-297h522v-934h-66v879h-456v-879h-66v879h-145v55h145v293z" />
    <glyph glyph-name="f_iacute" unicode="f&#xed;" horiz-adv-x="991" 
d="M221 1227q0 158 64 245t188 87q58 0 108.5 -24.5t108.5 -76.5l-37 -41q-103 80 -186 80q-90 0 -135 -71.5t-45 -194.5v-297h522v-934h-66v879h-456v-879h-66v879h-145v55h145v293zM680 1118l283 303l49 -43v-8l-295 -287z" />
    <glyph glyph-name="f_j" unicode="fj" horiz-adv-x="991" 
d="M221 1227q0 157 69 244.5t195 87.5q172 0 308 -154l-37 -41q-63 65 -134 99t-137 34q-198 0 -198 -266v-297h522v-895q0 -183 -56.5 -299t-170.5 -221l-41 41q100 103 151 213t51 270v836h-456v-879h-66v879h-145v55h145v293z" />
    <glyph glyph-name="f_k" unicode="fk" horiz-adv-x="1484" 
d="M221 1227q0 332 295 332q121 0 227 -37l66 12v-1155l522 555h72q-7 -19 -39 -51l-346 -369l368 -453q37 -47 41 -61h-71l-379 469l-168 -178v-291h-66v1456q-103 41 -229 41q-124 0 -175.5 -66t-51.5 -200v-297h243v-55h-243v-879h-66v879h-145v55h145v293z" />
    <glyph glyph-name="f_l" unicode="fl" horiz-adv-x="1017" 
d="M221 1227q0 332 295 332q126 0 227 -37l66 12v-1395q0 -100 61 -100q39 0 80 16l19 -53q-66 -25 -111 -25q-55 0 -85 35.5t-30 104.5v1339q-106 41 -229 41q-124 0 -175.5 -66t-51.5 -200v-297h243v-55h-243v-879h-66v879h-145v55h145v293z" />
    <glyph glyph-name="f_lcaron" unicode="f&#x13e;" horiz-adv-x="1017" 
d="M221 1227q0 332 295 332q126 0 227 -37l66 12v-1395q0 -100 61 -100q39 0 80 16l19 -53q-66 -25 -111 -25q-55 0 -85 35.5t-30 104.5v1339q-106 41 -229 41q-124 0 -175.5 -66t-51.5 -200v-297h243v-55h-243v-879h-66v879h-145v55h145v293zM961 1534l65 4l6 -6l-22 -404
h-49v406z" />
    <glyph glyph-name="f_t" unicode="ft" horiz-adv-x="1150" 
d="M745 1214h54v-280h295v-55h-295v-623q0 -127 24.5 -172t94.5 -45q58 0 165 29l17 -52q-109 -39 -197 -39q-99 0 -134.5 59.5t-35.5 209.5v633h-446v-879h-66v879h-145v55h145v293q0 158 64 245t188 87q58 0 108.5 -24.5t108.5 -76.5l-37 -41q-103 80 -186 80
q-91 0 -135.5 -71.5t-44.5 -194.5v-297h438z" />
    <glyph glyph-name="f_f_i" unicode="ffi" horiz-adv-x="1511" 
d="M741 1227q0 59 13 116q-139 93 -254 93q-106 0 -159.5 -71t-53.5 -196v-235h454v293zM76 934h145v231q0 156 75.5 244t205.5 88q73 0 135 -24.5t133 -75.5q29 78 89.5 120t146.5 42q168 0 307 -154l-37 -41q-130 133 -270 133q-199 0 -199 -266v-297h522v-934h-65v879
h-457v-879h-66v879h-454v-879h-66v879h-145v55z" />
    <glyph glyph-name="f_f_b" unicode="ffb" horiz-adv-x="2109" 
d="M741 1227q0 59 13 116q-139 93 -254 93q-106 0 -159.5 -71t-53.5 -196v-235h454v293zM1571 37q138 0 211 65q71 67 103 154t32 211q0 196 -75.5 315t-211.5 119q-140 0 -301 -164v-663q116 -37 242 -37zM76 934h145v231q0 156 75.5 244t205.5 88q73 0 135 -24.5
t131 -75.5q65 162 268 162q118 0 228 -37l65 12v-727q146 156 299 156q174 0 265.5 -137t91.5 -357q0 -75 -14 -144t-46 -133.5t-79.5 -111.5t-119.5 -75t-161 -28q-83 0 -148 12t-153 40v1427q-111 41 -230 41q-124 0 -175.5 -66t-51.5 -200v-297h244v-55h-244v-879h-66
v879h-454v-879h-66v879h-145v55z" />
    <glyph glyph-name="f_f_h" unicode="ffh" horiz-adv-x="2103" 
d="M741 1227q0 59 13 116q-145 93 -262 93q-205 0 -205 -267v-235h454v293zM76 934h145v231q0 157 71 244.5t200 87.5q135 0 276 -100q64 162 268 162q111 0 217 -37l66 12v-703q179 132 350 132q145 0 202.5 -82.5t57.5 -245.5v-635h-67v598q0 163 -40 233t-155 70
q-178 0 -348 -135v-766h-66v1456q-103 41 -219 41q-124 0 -175.5 -66t-51.5 -200v-297h244v-55h-244v-879h-66v879h-454v-879h-66v879h-145v55z" />
    <glyph glyph-name="f_f_j" unicode="ffj" horiz-adv-x="1511" 
d="M741 1227q0 59 13 116q-139 93 -254 93q-106 0 -159.5 -71t-53.5 -196v-235h454v293zM76 934h145v231q0 156 75.5 244t205.5 88q73 0 135 -24.5t133 -75.5q29 78 89.5 120t146.5 42q168 0 307 -154l-37 -41q-130 133 -270 133q-199 0 -199 -266v-297h522v-895
q0 -183 -56.5 -299t-170.5 -221l-41 41q66 68 107 130t68.5 152.5t27.5 200.5v836h-457v-879h-66v879h-454v-879h-66v879h-145v55z" />
    <glyph glyph-name="f_f_k" unicode="ffk" horiz-adv-x="1996" 
d="M741 1227q0 59 13 116q-145 93 -262 93q-205 0 -205 -267v-235h454v293zM76 934h145v231q0 157 71 244.5t200 87.5q135 0 276 -100q64 162 268 162q111 0 217 -37l66 12v-1157l524 557h72q-12 -24 -39 -51l-348 -369l368 -453q38 -43 43 -61h-71l-381 469l-168 -178v-291
h-66v1456q-103 41 -219 41q-124 0 -175.5 -66t-51.5 -200v-297h244v-55h-244v-879h-66v879h-454v-879h-66v879h-145v55z" />
    <glyph glyph-name="f_f_l" unicode="ffl" horiz-adv-x="1538" 
d="M741 1227q0 59 13 116q-139 93 -254 93q-106 0 -159.5 -71t-53.5 -196v-235h454v293zM76 934h145v231q0 156 75.5 244t205.5 88q73 0 135 -24.5t131 -75.5q65 162 268 162q127 0 228 -37l65 12v-1395q0 -100 62 -100q38 0 79 16l19 -53q-66 -25 -111 -25
q-55 0 -84.5 35.5t-29.5 104.5v1339q-106 41 -230 41t-175.5 -66t-51.5 -200v-297h244v-55h-244v-879h-66v879h-454v-879h-66v879h-145v55z" />
    <glyph glyph-name="f_f_t" unicode="fft" horiz-adv-x="1671" 
d="M221 1165q0 156 75.5 244t205.5 88q128 0 266 -98q55 160 225 160q58 0 108.5 -24.5t108.5 -76.5l-36 -41q-103 80 -187 80q-91 0 -135.5 -71.5t-44.5 -194.5v-297h438l21 280h53v-280h295v-55h-295v-623q0 -127 24.5 -172t94.5 -45q59 0 166 29l16 -52
q-109 -39 -197 -39q-99 0 -134.5 59.5t-35.5 209.5v633h-446v-879h-66v879h-454v-879h-66v879h-145v55h145v231zM741 1227q0 52 11 116q-136 93 -252 93q-106 0 -159.5 -71t-53.5 -196v-235h454v293z" />
    <glyph glyph-name="T_h" unicode="Th" horiz-adv-x="1982" 
d="M33 1372h1102v162l65 4v-704q175 129 350 129q144 0 201 -82t57 -246v-635h-65v598q0 162 -41 232.5t-156 70.5q-176 0 -346 -135v-766h-65v1307h-570v-1307h-69v1307h-463v65z" />
    <glyph glyph-name="uni021A_h" unicode="&#x21a;h" horiz-adv-x="1982" 
d="M33 1372h1102v162l65 4v-704q175 129 350 129q144 0 201 -82t57 -246v-635h-65v598q0 162 -41 232.5t-156 70.5q-176 0 -346 -135v-766h-65v1307h-570v-1307h-69v1307h-463v65zM498 -147l61 10q10 -68 10 -111q0 -148 -69 -260l-47 29q51 105 51 221q0 46 -6 111z" />
    <glyph glyph-name="uni0162_h" unicode="&#x162;h" horiz-adv-x="1982" 
d="M33 1372h1102v162l65 4v-704q175 129 350 129q144 0 201 -82t57 -246v-635h-65v598q0 162 -41 232.5t-156 70.5q-176 0 -346 -135v-766h-65v1307h-570v-1307h-2l-57 -143q12 2 39 2q76 0 127 -32.5t51 -98.5q0 -83 -76 -144t-229 -94l-19 51q136 30 197 74.5t61 108.5
q0 83 -127 83q-41 0 -73 -8l-25 29l64 172v1307h-463v65z" />
    <glyph glyph-name="jacute" unicode="&#xfc00;" horiz-adv-x="434" arabic-form="isolated" 
d="M184 932l66 4v-897q0 -183 -56.5 -299t-170.5 -221l-39 41q99 104 149.5 214t50.5 269v889zM113 1122l282 303l49 -43v-8l-294 -287z" />
    <glyph glyph-name="Jacute" unicode="&#xfc01;" horiz-adv-x="509" arabic-form="isolated" 
d="M227 1372h68v-1296q0 -102 -8 -177t-30 -143t-59.5 -111.5t-98 -72t-144.5 -35.5l-12 57q72 11 121.5 36t82 63t50 101t24 136.5t6.5 182.5v1259zM109 1587l385 160l26 -64v-6l-393 -141z" />
    <glyph glyph-name=".notdef" horiz-adv-x="1390" 
d="M213 1358h965v-1358h-965v1358zM1026 98l-330 494l-329 -494h659zM637 678l-328 493v-989zM1083 182v989l-329 -493zM696 766l330 494h-659z" />
    <glyph glyph-name=".null" horiz-adv-x="0" 
 />
    <glyph glyph-name="uni000D" unicode="&#xd;" horiz-adv-x="0" 
 />
    <glyph glyph-name="NULL" horiz-adv-x="0" 
 />
    <glyph glyph-name="NULL" horiz-adv-x="0" 
 />
    <glyph glyph-name="space" unicode=" " horiz-adv-x="454" 
 />
    <glyph glyph-name="exclam" unicode="!" horiz-adv-x="509" 
d="M217 1372h76l-8 -1057h-60zM178 51q0 38 22.5 62t59.5 24q32 0 52 -19.5t20 -51.5q0 -40 -21.5 -64.5t-58.5 -24.5q-34 0 -54 20t-20 54z" />
    <glyph glyph-name="quotedbl" unicode="&#x22;" horiz-adv-x="579" 
d="M348 1540h66l-6 -518h-54zM166 1540h65l-6 -518h-53z" />
    <glyph glyph-name="numbersign" unicode="#" horiz-adv-x="1333" 
d="M336 -2l45 250h-260v61h272l64 350h-262v62h272l47 260l59 -12l-45 -248h361l45 260l59 -12l-43 -248h260v-62h-272l-61 -350h262v-61h-273l-47 -262l-59 12l45 250h-363l-47 -262zM815 309l62 350h-359l-63 -350h360z" />
    <glyph glyph-name="dollar" unicode="$" horiz-adv-x="1071" 
d="M225 1038q0 -60 24 -109t70.5 -85t96.5 -61t119 -50v570q-47 -3 -88.5 -12.5t-83 -29.5t-71.5 -48.5t-48.5 -73.5t-18.5 -101zM891 336q0 55 -23 101.5t-66 83t-91 63.5t-111 53v-569q58 6 107.5 22.5t92 47t67 81.5t24.5 117zM154 1036q0 83 31.5 147t86.5 102.5
t120.5 59t142.5 25.5v174h65v-172q88 -3 173.5 -24.5t141.5 -49.5l-28 -59q-156 64 -287 66v-596q58 -22 104 -44.5t96.5 -56t84.5 -70.5t56 -88t22 -108q0 -83 -29.5 -147t-81.5 -103.5t-114.5 -61.5t-137.5 -28v-174h-65v172q-119 0 -237 37.5t-192 97.5l37 55
q83 -58 185.5 -91t206.5 -33v596q-4 1 -11.5 4t-11.5 4q-76 28 -132.5 57.5t-111.5 73t-84.5 103t-29.5 132.5z" />
    <glyph glyph-name="percent" unicode="%" horiz-adv-x="1376" 
d="M209 8l903 1393l51 -37l-903 -1393zM113 1008q0 103 26 190.5t82 145t133 57.5q108 0 168 -105t60 -256q0 -103 -26 -190.5t-83 -145t-135 -57.5q-73 0 -125 52t-76 132t-24 177zM514 1038q0 130 -43 217.5t-119 87.5q-43 0 -80 -32q-45 -39 -68.5 -121t-23.5 -178
q0 -130 42.5 -218.5t117.5 -88.5q49 0 86 34q42 41 65 123.5t23 175.5zM793 334q0 103 26 190t82.5 144t134.5 57q107 0 167.5 -104.5t60.5 -255.5q0 -103 -26.5 -190.5t-84 -145.5t-135.5 -58q-72 0 -124 52t-76.5 132.5t-24.5 178.5zM1196 362q0 130 -43.5 218t-120.5 88
q-44 0 -80 -31q-45 -39 -67.5 -121t-22.5 -178q0 -132 42 -220.5t118 -88.5q46 0 86 37q42 41 65 122.5t23 173.5z" />
    <glyph glyph-name="ampersand" unicode="&#x26;" horiz-adv-x="1462" 
d="M252 1096q0 62 18 115t53 95.5t94 66.5t136 24q112 0 189 -73.5t77 -190.5q0 -50 -10.5 -94.5t-34 -83.5t-47.5 -70.5t-64 -65.5t-69.5 -57t-77.5 -57q11 -13 30.5 -36t26.5 -32q170 -213 347 -406q229 234 290 588h68q-26 -166 -109.5 -336.5t-207.5 -294.5l4 -4
q73 -76 131 -109.5t129 -33.5q79 0 143 41l31 -47q-72 -58 -174 -58q-83 0 -150.5 36.5t-156.5 125.5q-1 1 -2.5 2t-2.5 2q-191 -166 -403 -166q-168 0 -272.5 87.5t-104.5 244.5q0 64 25.5 125.5t71 114t90 91.5t100.5 79q-76 99 -122 190.5t-46 186.5zM319 1100
q0 -144 156 -344q48 32 80.5 56t73.5 61t65 71.5t41 81t17 96.5q0 98 -58.5 155.5t-146.5 57.5q-103 0 -164 -61q-64 -67 -64 -174zM514 41q194 0 356 145q-138 145 -352 414q-8 9 -26.5 32t-28.5 36l-10 -6q-51 -35 -88 -65.5t-78 -75t-63.5 -97.5t-22.5 -111
q0 -127 85 -199.5t228 -72.5z" />
    <glyph glyph-name="quotesingle" unicode="'" horiz-adv-x="397" 
d="M166 1540h65l-6 -518h-53z" />
    <glyph glyph-name="parenleft" unicode="(" horiz-adv-x="589" 
d="M127 631q0 282 87 561.5t255 525.5l53 -37q-155 -222 -238.5 -492.5t-88.5 -557.5q5 -286 88 -553t239 -490l-53 -37q-169 245 -255.5 522t-86.5 558z" />
    <glyph glyph-name="parenright" unicode=")" horiz-adv-x="589" 
d="M68 1681l53 37q168 -246 255 -525.5t87 -561.5q0 -281 -86.5 -558t-255.5 -522l-53 37q156 222 238 489t87 554q-5 288 -87.5 558t-237.5 492z" />
    <glyph glyph-name="asterisk" unicode="*" horiz-adv-x="966" 
d="M373 1548l53 17l80 -305l213 227l41 -41l-225 -215l307 -76l-15 -57l-305 88l90 -303l-53 -17l-80 305l-213 -227l-41 41l226 215l-306 76l15 57l303 -88z" />
    <glyph glyph-name="plus" unicode="+" 
d="M535 909h63v-368h358v-62h-358v-366h-63v366h-361v62h361v368z" />
    <glyph glyph-name="comma" unicode="," horiz-adv-x="444" 
d="M180 264l68 10q16 -72 16 -139q0 -120 -49.5 -229t-144.5 -182l-35 38q155 143 155 367q0 23 -10 135z" />
    <glyph glyph-name="hyphen" unicode="-" horiz-adv-x="733" 
d="M164 512h403v-61h-403v61z" />
    <glyph glyph-name="period" unicode="." horiz-adv-x="473" 
d="M158 51q0 38 22.5 62t59.5 24q32 0 51.5 -19.5t19.5 -51.5q0 -40 -21.5 -64.5t-58.5 -24.5q-33 0 -53 20.5t-20 53.5z" />
    <glyph glyph-name="slash" unicode="/" horiz-adv-x="770" 
d="M76 -162l561 1598l57 -25l-561 -1597z" />
    <glyph glyph-name="zero" unicode="0" horiz-adv-x="1130" 
d="M137 655q0 143 29.5 276t84 238.5t140.5 168.5t191 63q131 0 226 -97.5t140 -250t45 -336.5q0 -144 -29.5 -276t-84 -238t-141 -169t-191.5 -63q-99 0 -178.5 56t-129 152t-76 218t-26.5 258zM918 715q0 169 -38 308t-116.5 225.5t-185.5 86.5q-88 0 -160 -57
q-73 -57 -121.5 -167t-66 -221.5t-17.5 -230.5q0 -170 37.5 -308.5t115.5 -226t185 -87.5q90 0 160 55q75 58 124 170t66 223.5t17 229.5z" />
    <glyph glyph-name="one" unicode="1" horiz-adv-x="831" 
d="M129 1278l344 96l53 -4v-1309h236l4 -61h-645v61h338v1242l-314 -82z" />
    <glyph glyph-name="two" unicode="2" horiz-adv-x="978" 
d="M135 1278q138 117 322 117q94 0 166 -29.5t116 -81.5t66 -118.5t22 -145.5t-24.5 -159t-60.5 -148t-100.5 -152t-121 -147t-145.5 -156l-189 -197h672l4 -61h-749l-11 72l166 180q131 133 215 228t149 190t93.5 178t28.5 168q0 139 -76 226t-219 87q-148 0 -285 -100z
" />
    <glyph glyph-name="three" unicode="3" horiz-adv-x="976" 
d="M131 1276q150 119 324 119q155 0 246.5 -86.5t91.5 -231.5q0 -120 -61 -218.5t-167 -143.5q124 -27 202.5 -114.5t78.5 -217.5q0 -185 -123.5 -297.5t-316.5 -112.5q-150 0 -283 74l29 53q110 -61 256 -61q139 0 235 67q129 91 129 273q0 141 -100.5 218t-255.5 77h-80
l-2 63h82q127 0 216 101.5t89 236.5q0 115 -74 184.5t-196 69.5q-140 0 -283 -100z" />
    <glyph glyph-name="four" unicode="4" horiz-adv-x="1089" 
d="M78 440l614 934l82 -4v-936h223l4 -63h-227v-371h-69v371h-615zM610 1133l-458 -699h553v836h-3z" />
    <glyph glyph-name="five" unicode="5" horiz-adv-x="960" 
d="M168 1372h610v-65h-540v-519q121 41 221 41q164 0 272.5 -98.5t108.5 -275.5q0 -224 -129.5 -353t-337.5 -129q-106 0 -234 50l21 59q114 -43 217 -43q127 0 221 61q79 50 124.5 137.5t45.5 208.5q0 152 -84.5 235t-232.5 83q-121 0 -269 -59l-14 16v651z" />
    <glyph glyph-name="six" unicode="6" horiz-adv-x="1030" 
d="M135 571q0 121 21.5 237t67.5 222t112 186t161 127.5t208 47.5q67 0 116 -19l-14 -55q-39 10 -84 10q-98 0 -179.5 -35.5t-138.5 -95.5t-98.5 -143t-63.5 -175t-30 -194h2q73 56 161 87.5t175 31.5q168 0 270.5 -110t102.5 -275q0 -116 -46 -216.5t-139 -165.5t-215 -65
q-86 0 -154 35t-111.5 92t-72 136.5t-40 162t-11.5 174.5zM528 37q123 0 209 80q113 110 113 293q0 143 -80.5 235t-222.5 92q-84 0 -173.5 -34.5t-164.5 -96.5v-22q0 -119 17 -215t53.5 -172t99.5 -118t149 -42z" />
    <glyph glyph-name="seven" unicode="7" horiz-adv-x="913" 
d="M78 1372h770l10 -55l-569 -1346l-64 27l555 1309h-696z" />
    <glyph glyph-name="eight" unicode="8" horiz-adv-x="1073" 
d="M193 1081q0 141 97 230.5t255 89.5q146 0 242 -86.5t96 -224.5q0 -199 -219 -379q278 -144 278 -373q0 -89 -34 -160.5t-91 -115.5t-128.5 -67.5t-149.5 -23.5q-183 0 -296.5 92t-113.5 256q0 74 26.5 141t75.5 122t92 91.5t103 78.5q-100 57 -166.5 142t-66.5 187z
M600 743l6 -4q200 153 203 342q1 112 -74.5 183t-189.5 71q-122 0 -199 -65q-80 -67 -80 -180q0 -111 81 -189.5t253 -157.5zM539 37q131 0 223 67q108 81 108 230q0 47 -11 86.5t-35.5 73.5t-53 61t-76 56t-90 51.5t-108.5 54.5l-7 4q-56 -38 -97.5 -72t-89 -85.5
t-73.5 -114t-26 -130.5q0 -131 94 -206.5t242 -75.5z" />
    <glyph glyph-name="nine" unicode="9" horiz-adv-x="1030" 
d="M483 635q84 0 173.5 34.5t164.5 96.5v22q0 119 -17 215t-53 172t-98.5 118t-148.5 42q-125 0 -211 -80q-113 -110 -113 -292q0 -143 80.5 -235.5t222.5 -92.5zM109 954q0 86 27 165.5t76 142.5t125.5 101t168.5 38q86 0 154 -35t111.5 -92t72 -136.5t40 -162t11.5 -174.5
q0 -121 -21.5 -237t-67 -222t-111 -185.5t-160.5 -127t-207 -47.5q-74 0 -117 18l14 55q39 -10 82 -10q98 0 179.5 35.5t138.5 95.5t98.5 143t63.5 175t30 194h-2q-154 -119 -336 -119q-168 0 -269 110t-101 275z" />
    <glyph glyph-name="colon" unicode=":" horiz-adv-x="489" 
d="M164 766q0 38 22.5 62t59.5 24q32 0 51.5 -20t19.5 -52q0 -39 -21.5 -63.5t-57.5 -24.5q-32 0 -53 21t-21 53zM172 61q0 39 23 64t59 25q32 0 52 -21t20 -53q0 -39 -22 -62.5t-58 -23.5q-33 0 -53.5 19.5t-20.5 51.5z" />
    <glyph glyph-name="semicolon" unicode=";" horiz-adv-x="491" 
d="M229 264l68 10q16 -72 16 -139q0 -120 -49.5 -229t-144.5 -182l-35 38q156 144 156 367q0 11 -11 135zM174 766q0 39 22 62.5t60 23.5q32 0 52 -20t20 -52q0 -38 -22.5 -63t-57.5 -25q-33 0 -53.5 20.5t-20.5 53.5z" />
    <glyph glyph-name="less" unicode="&#x3c;" 
d="M172 545l721 364l29 -55l-674 -342l674 -342l-29 -55l-721 364v66z" />
    <glyph glyph-name="equal" unicode="=" 
d="M184 653h760v-59h-760v59zM184 428h760v-61h-760v61z" />
    <glyph glyph-name="greater" unicode="&#x3e;" 
d="M207 854l29 55l722 -364v-66l-722 -364l-29 55l674 342z" />
    <glyph glyph-name="question" unicode="?" horiz-adv-x="765" 
d="M86 1323q139 78 276 78q142 0 226 -71.5t84 -203.5q0 -99 -42.5 -176.5t-121.5 -167.5q-37 -41 -60.5 -73t-49.5 -79t-38.5 -103t-11.5 -121q0 -33 4 -87l-61 -8q-8 49 -8 92q0 77 14.5 141t45 117.5t55.5 86t67 79.5q66 75 102.5 144t36.5 153q0 105 -65 161.5
t-187 53.5q-121 0 -239 -65zM252 51q0 39 22 62.5t60 23.5q32 0 52 -19.5t20 -51.5q0 -40 -22.5 -64.5t-57.5 -24.5q-34 0 -54 20t-20 54z" />
    <glyph glyph-name="at" unicode="@" horiz-adv-x="1509" 
d="M133 455q0 153 43 283.5t124 227.5t206.5 151.5t281.5 53.5q266 -1 423 -158.5t157 -416.5q0 -115 -25.5 -203t-64.5 -138.5t-94 -82.5t-106 -42.5t-109 -10.5l-15 102q-109 -112 -239 -112q-126 0 -201.5 103.5t-75.5 276.5q0 69 18.5 135.5t54 125t96.5 94t138 35.5
q125 0 213 -52l11 43l59 -8l-10 -92q-4 -49 -4 -162v-227q0 -60 8 -162l2 -37q276 25 276 410q0 235 -140.5 377t-377.5 143q-276 1 -428.5 -179t-152.5 -474q0 -141 42.5 -256.5t114.5 -189.5t163.5 -114t191.5 -42q148 0 305 75l26 -53q-161 -82 -337 -82
q-113 1 -216 45.5t-183 125.5t-127.5 207.5t-47.5 279.5zM721 166q111 0 227 119v487q-88 49 -194 49q-91 0 -154 -63q-94 -91 -94 -264q0 -146 57 -237t158 -91z" />
    <glyph glyph-name="A" unicode="A" horiz-adv-x="1148" 
d="M575 1270l-270 -764h531l-154 446l-100 318h-7zM539 1368l75 8l473 -1376h-77l-154 444h-571l-158 -444h-76q12 33 35.5 98.5t36.5 98.5z" />
    <glyph glyph-name="B" unicode="B" horiz-adv-x="1144" 
d="M215 1364q195 31 305 31q93 0 168 -18.5t133.5 -57.5t90.5 -104.5t32 -153.5q0 -109 -55 -199.5t-164 -132.5q138 -26 216.5 -112t78.5 -234q0 -184 -124 -295t-357 -111q-151 0 -324 29v1358zM512 1329q-102 0 -229 -20v-553h254q124 0 198 41q69 37 102 106.5t33 145.5
q0 280 -358 280zM555 43q175 0 268 72q123 92 123 268q0 145 -105 227t-311 82h-247v-633q128 -16 272 -16z" />
    <glyph glyph-name="C" unicode="C" horiz-adv-x="1173" 
d="M133 666q0 113 22 218t68.5 198.5t113.5 162.5t163.5 109.5t212.5 40.5q207 0 352 -111l-31 -53q-87 52 -160 75t-163 23q-204 0 -324 -129q-180 -191 -180 -524q0 -102 17 -193t55.5 -173t96 -141t143.5 -93.5t192 -34.5q100 0 177 22.5t173 69.5l26 -53
q-95 -52 -182 -77.5t-198 -25.5q-146 0 -258.5 55t-180 151.5t-101.5 218.5t-34 264z" />
    <glyph glyph-name="D" unicode="D" horiz-adv-x="1308" 
d="M215 1364q176 31 348 31q280 0 448.5 -186.5t168.5 -495.5q0 -209 -80 -377t-225 -263.5t-328 -95.5q-187 0 -332 29v1358zM555 43q149 0 262 72q138 90 214.5 247.5t74.5 339.5q-2 283 -149.5 455t-403.5 172q-127 0 -270 -20v-1248q105 -18 272 -18z" />
    <glyph glyph-name="E" unicode="E" horiz-adv-x="1064" 
d="M215 1372h725l-2 -61h-655v-578h538v-63h-538v-609h655l2 -61h-725v1372z" />
    <glyph glyph-name="F" unicode="F" horiz-adv-x="1024" 
d="M215 1372h725l-2 -61h-655v-606h538v-64h-538v-641h-68v1372z" />
    <glyph glyph-name="G" unicode="G" horiz-adv-x="1236" 
d="M133 657q0 116 21.5 222.5t68.5 201t114 164t165 110t215 40.5q203 0 348 -111l-31 -53q-164 100 -325 100q-201 0 -322 -131q-91 -93 -135.5 -232.5t-44.5 -299.5q0 -100 17 -189t55.5 -170.5t96.5 -140t145 -93t196 -34.5q144 0 301 72v493h-395v62h462v-590
q-91 -49 -178.5 -75t-193.5 -26q-122 0 -220.5 36.5t-164.5 99t-110.5 150t-64.5 185.5t-20 209z" />
    <glyph glyph-name="H" unicode="H" horiz-adv-x="1312" 
d="M1030 1372h70v-1372h-70v670h-747v-670h-68v1372h68v-639h747v639z" />
    <glyph glyph-name="I" unicode="I" horiz-adv-x="497" 
d="M215 1372h68v-1372h-68v1372z" />
    <glyph glyph-name="J" unicode="J" horiz-adv-x="509" 
d="M227 1372h68v-1296q0 -102 -8 -177t-30 -143t-59.5 -111.5t-98 -72t-144.5 -35.5l-12 57q72 11 121.5 36t82 63t50 101t24 136.5t6.5 182.5v1259z" />
    <glyph glyph-name="K" unicode="K" horiz-adv-x="1116" 
d="M967 1372h90q-5 -6 -21.5 -24.5t-23.5 -26.5l-492 -520l447 -670q57 -84 86 -131h-88l-498 748l-184 -197v-551h-68v1372h68v-723h4z" />
    <glyph glyph-name="L" unicode="L" horiz-adv-x="980" 
d="M215 1372h68v-1311h643l2 -61h-713v1372z" />
    <glyph glyph-name="M" unicode="M" horiz-adv-x="1599" 
d="M1208 1372h78l168 -1261q2 -19 7 -56t7 -55h-69l-133 1001l-25 236h-6l-414 -1237h-61l-324 1001l-67 236h-7l-163 -1237h-68q3 18 8 56t8 57l166 1259h74l338 -1044l61 -215h7z" />
    <glyph glyph-name="N" unicode="N" horiz-adv-x="1351" 
d="M215 1372h80l698 -1139l78 -137h2l-6 164v1112h70v-1372h-86l-695 1137l-75 139h-5l7 -141v-1135h-68v1372z" />
    <glyph glyph-name="O" unicode="O" horiz-adv-x="1374" 
d="M131 670q0 104 19 205t62.5 197t106 168.5t157.5 116.5t210 44q128 0 234 -55t176 -149.5t108.5 -222t38.5 -272.5q0 -104 -19 -205t-62 -197t-105.5 -168.5t-157 -116.5t-209.5 -44q-129 0 -235.5 55t-176.5 149.5t-108.5 222t-38.5 272.5zM1169 686q0 137 -32.5 255.5
t-93 206t-152 137.5t-203.5 50q-152 0 -264 -90q-114 -88 -165.5 -238.5t-51.5 -320.5q0 -137 32.5 -255.5t93 -206t152 -137.5t203.5 -50q150 0 266 90q77 60 127 157t69 195.5t19 206.5z" />
    <glyph glyph-name="P" unicode="P" horiz-adv-x="1081" 
d="M444 614q172 0 273 48q87 38 138.5 122.5t51.5 200.5q0 177 -104.5 260.5t-317.5 83.5q-79 0 -202 -20v-686q76 -9 161 -9zM215 1364q168 29 274 31q246 3 369 -100.5t123 -301.5q0 -205 -135.5 -324.5t-388.5 -119.5q-69 0 -174 10v-559h-68v1364z" />
    <glyph glyph-name="Q" unicode="Q" horiz-adv-x="1374" 
d="M131 670q0 104 19 205t62.5 197t106 168.5t157.5 116.5t210 44q128 0 234 -55t176 -149.5t108.5 -222t38.5 -272.5q0 -100 -17.5 -197t-56.5 -190t-96.5 -165t-143.5 -120t-190 -57q124 -213 344 -213q72 0 140 19l18 -62q-79 -24 -162 -24q-266 0 -417 278
q-163 8 -285 104t-184 250.5t-62 344.5zM1169 686q0 137 -32.5 255.5t-93 206t-152 137.5t-203.5 50q-152 0 -264 -90q-114 -88 -165.5 -238.5t-51.5 -320.5q0 -137 32.5 -255.5t93 -206t152 -137.5t203.5 -50q150 0 266 90q77 60 127 157t69 195.5t19 206.5z" />
    <glyph glyph-name="R" unicode="R" horiz-adv-x="1118" 
d="M463 676q149 0 256 45q87 34 137.5 110.5t50.5 180.5q0 317 -424 317q-80 0 -200 -20v-625q122 -8 180 -8zM215 1364q172 31 281 31q234 0 359.5 -95t125.5 -280q0 -139 -79 -240t-230 -143l274 -520q7 -14 27.5 -54.5t30.5 -62.5h-80l-324 623q-70 -13 -143 -13
q-62 0 -174 11v-621h-68v1364z" />
    <glyph glyph-name="S" unicode="S" horiz-adv-x="1073" 
d="M154 1036q0 77 26.5 140t70 104t102 69t120 40t127.5 12q79 0 164 -19.5t149 -50.5l-26 -59q-143 61 -303 61q-63 0 -122.5 -14.5t-115 -45.5t-89.5 -89t-34 -135q0 -55 20 -100.5t48.5 -76.5t78.5 -59.5t90.5 -45.5t104.5 -40q155 -55 217 -90q166 -95 178 -263
q1 -14 1 -28q0 -95 -38.5 -169t-103 -118t-142.5 -66t-165 -22q-106 0 -221 37.5t-187 97.5l35 56q176 -123 385 -123q51 0 101 10t98 33t84.5 56.5t59 85t22.5 114.5q0 150 -143 237q-64 39 -219 95l-17 6q-45 17 -76 29.5t-71.5 32.5t-68 39t-56 46.5t-45.5 57.5t-28 70
t-11 85z" />
    <glyph glyph-name="T" unicode="T" horiz-adv-x="1097" 
d="M53 1372h991l-2 -65h-458v-1307h-70v1307h-459z" />
    <glyph glyph-name="U" unicode="U" horiz-adv-x="1257" 
d="M989 1372h68v-856q0 -98 -12.5 -177t-43 -149t-79.5 -117t-124.5 -74.5t-174.5 -27.5q-205 0 -313.5 117t-108.5 373v911h67v-872q0 -86 8.5 -152t33 -127.5t65 -101t107.5 -63t157 -23.5q74 0 136.5 25t98.5 61q115 107 115 358v895z" />
    <glyph glyph-name="V" unicode="V" horiz-adv-x="1150" 
d="M1022 1372h74q-61 -176 -68 -198l-420 -1170l-71 -8l-408 1178q-12 33 -70 198h80l328 -954l100 -316h6z" />
    <glyph glyph-name="W" unicode="W" horiz-adv-x="1781" 
d="M1651 1372h78q-12 -39 -35 -109.5t-27 -84.5l-364 -1174l-86 -8l-279 1134l-27 125h-8l-368 -1251l-84 -8l-318 1182q-2 7 -53 194h78l278 -1028l56 -231h4l366 1259h88l256 -1032l56 -229h4z" />
    <glyph glyph-name="X" unicode="X" horiz-adv-x="1114" 
d="M104 1372h86l373 -604l400 604h77q-6 -9 -21.5 -32t-23.5 -37l-393 -596l381 -615q9 -16 28.5 -46t28.5 -46h-86l-395 645l-430 -645h-80q11 18 33.5 52t26.5 40l409 617l-371 596z" />
    <glyph glyph-name="Y" unicode="Y" horiz-adv-x="1030" 
d="M905 1372h78q-67 -118 -82 -141l-354 -635v-596h-68v590l-346 641l-80 141h80l283 -518l98 -172h2z" />
    <glyph glyph-name="Z" unicode="Z" horiz-adv-x="1120" 
d="M129 1372h881l12 -72l-872 -1239h862l2 -61h-924l-12 72l868 1239h-815z" />
    <glyph glyph-name="bracketleft" unicode="[" horiz-adv-x="681" 
d="M213 -434v2138h389v-64h-323v-2013h323v-61h-389z" />
    <glyph glyph-name="backslash" unicode="\" horiz-adv-x="770" 
d="M76 1411l59 25l561 -1598l-59 -24z" />
    <glyph glyph-name="bracketright" unicode="]" horiz-adv-x="681" 
d="M80 -373h321v2013h-321v64h389v-2138h-389v61z" />
    <glyph glyph-name="asciicircum" unicode="^" horiz-adv-x="911" 
d="M436 1366l37 6l295 -426l-59 -45l-254 365l-256 -369l-54 47z" />
    <glyph glyph-name="underscore" unicode="_" horiz-adv-x="950" 
d="M0 -96h950v-60h-950v60z" />
    <glyph glyph-name="grave" unicode="`" horiz-adv-x="819" 
d="M213 1382l49 43l283 -303l-37 -35l-295 287v8z" />
    <glyph glyph-name="a" unicode="a" horiz-adv-x="925" 
d="M139 805q187 151 365 151q131 0 187.5 -86.5t56.5 -273.5v-254q0 -125 16 -338l-55 -8l-23 145q-172 -164 -354 -164q-103 0 -166.5 61t-63.5 169q0 123 111 203q121 87 469 114v37q0 184 -40.5 259t-139.5 75q-78 0 -164.5 -37t-165.5 -96zM334 37q80 0 171.5 45
t176.5 129v256q-193 -21 -290 -44t-142 -56q-80 -64 -80 -158q0 -81 45.5 -126.5t118.5 -45.5z" />
    <glyph glyph-name="b" unicode="b" horiz-adv-x="1026" 
d="M178 1534l66 4v-731q153 156 301 156q173 0 264.5 -137.5t91.5 -356.5q0 -75 -14 -144t-46.5 -133.5t-80 -111.5t-120 -75t-161.5 -28q-83 0 -147 12t-154 40v1505zM485 37q73 0 128 19t83 46q72 66 103.5 153t31.5 212q0 196 -75 315t-211 119q-137 0 -301 -164v-663
q116 -37 241 -37z" />
    <glyph glyph-name="c" unicode="c" horiz-adv-x="882" 
d="M125 453q0 224 109.5 363.5t283.5 139.5q175 0 266 -159l-45 -31q-56 67 -106.5 98t-122.5 31q-102 0 -180 -66q-135 -109 -135 -366q0 -207 88 -315.5t239 -108.5q105 0 242 57l22 -51q-153 -68 -270 -68q-180 0 -285.5 130.5t-105.5 345.5z" />
    <glyph glyph-name="d" unicode="d" horiz-adv-x="1032" 
d="M463 33q45 0 87 14t85 45.5t71.5 57t75.5 71.5v613q-114 67 -247 67q-139 0 -216 -74q-124 -116 -124 -366q0 -181 71 -304.5t197 -123.5zM127 446q0 76 12.5 146.5t43.5 139t77.5 119t119.5 81.5t165 31q120 0 237 -66v637l64 4v-1237q0 -84 18 -297l-57 -8l-21 158
q-37 -40 -69 -68.5t-73.5 -57t-88.5 -43t-98 -14.5q-149 0 -239.5 135.5t-90.5 339.5z" />
    <glyph glyph-name="e" unicode="e" horiz-adv-x="960" 
d="M125 465q0 214 108.5 356t284.5 142q150 0 233 -103.5t83 -257.5q0 -51 -11 -137h-630q0 -206 92 -316t239 -110q136 0 269 57l22 -51q-151 -68 -303 -68q-78 0 -147 31t-123 89.5t-85.5 153.5t-31.5 214zM518 901q-136 0 -222.5 -101t-100.5 -276h569q4 54 4 86
q0 124 -67 207.5t-183 83.5z" />
    <glyph glyph-name="f" unicode="f" horiz-adv-x="585" 
d="M221 1227q0 158 64 245t188 87q58 0 108.5 -24.5t108.5 -76.5l-37 -41q-103 80 -186 80q-91 0 -135.5 -71.5t-44.5 -194.5v-297h243v-55h-243v-879h-66v879h-145v55h145v293z" />
    <glyph glyph-name="g" unicode="g" horiz-adv-x="946" 
d="M227 166q0 89 68 170q-84 37 -128 113t-44 174q0 48 11.5 94.5t37.5 90t63.5 76.5t94 52.5t123.5 19.5q112 0 194 -51q85 98 227 101l7 -62q-113 -12 -193 -72q96 -90 96 -239q0 -65 -20 -122.5t-58.5 -104t-103 -74t-145.5 -27.5q-59 0 -105 12q-63 -74 -63 -139
q0 -28 11 -46.5t27 -28.5t47.5 -15.5t58.5 -6.5t75 -1q81 0 143.5 -12t114.5 -39.5t80 -79t28 -125.5q0 -109 -63.5 -189t-159.5 -117.5t-207 -37.5q-165 0 -268.5 77t-103.5 207q0 192 188 310q-33 33 -33 92zM455 -461q76 0 150.5 22t125.5 70q80 74 80 187q0 50 -16.5 86
t-44.5 58t-72 34.5t-91 17t-110 4.5q-109 0 -166 23q-86 -54 -130 -117.5t-44 -150.5q0 -112 84 -173t234 -61zM719 623q0 126 -69 200t-197 74q-120 0 -192.5 -70.5t-72.5 -193.5q0 -121 67 -194.5t200 -73.5q119 0 191.5 67t72.5 191z" />
    <glyph glyph-name="h" unicode="h" horiz-adv-x="1032" 
d="M184 1534l66 4v-704q175 129 350 129q143 0 200.5 -82.5t57.5 -245.5v-635h-65v598q0 162 -41 232.5t-156 70.5q-174 0 -346 -133v-768h-66v1534z" />
    <glyph glyph-name="i" unicode="i" horiz-adv-x="434" 
d="M184 932l66 4v-936h-66v932zM152 1208q0 32 19.5 52t51.5 20q28 0 45 -17t17 -46q0 -32 -18.5 -52t-49.5 -20q-29 0 -47 17t-18 46z" />
    <glyph glyph-name="j" unicode="j" horiz-adv-x="434" 
d="M184 932l66 4v-897q0 -183 -56.5 -299t-170.5 -221l-39 41q99 104 149.5 214t50.5 269v889zM145 1208q0 32 20 52t52 20q28 0 45 -17t17 -46q0 -32 -18.5 -52t-49.5 -20q-30 0 -48 17t-18 46z" />
    <glyph glyph-name="k" unicode="k" horiz-adv-x="927" 
d="M772 934h72q-6 -16 -37 -51l-348 -369l368 -453q36 -40 41 -61h-71l-379 469l-168 -178v-291h-66v1534l66 4v-1161z" />
    <glyph glyph-name="l" unicode="l" horiz-adv-x="458" 
d="M184 1534l66 4v-1399q0 -100 61 -100q38 0 82 16l17 -53q-66 -25 -113 -25q-54 0 -83.5 35.5t-29.5 104.5v1417z" />
    <glyph glyph-name="m" unicode="m" horiz-adv-x="1568" 
d="M170 938l57 8l19 -141q90 78 170.5 118t169.5 40q174 0 219 -166q94 81 177 123.5t173 42.5q129 0 183.5 -83.5t54.5 -250.5v-629h-66v606q2 152 -40 223.5t-140 71.5q-84 0 -164 -44t-166 -120q6 -49 6 -108v-629h-65v606q2 152 -41 223.5t-142 71.5q-142 0 -323 -158
v-743h-66v600q0 148 -16 338z" />
    <glyph glyph-name="n" unicode="n" horiz-adv-x="1036" 
d="M170 938l57 8l19 -141q183 158 356 158q76 0 127.5 -22t79.5 -66.5t39.5 -101.5t11.5 -138v-635h-65v606q0 155 -41.5 225t-153.5 70q-162 0 -348 -158v-743h-66v600q0 139 -16 338z" />
    <glyph glyph-name="o" unicode="o" horiz-adv-x="1030" 
d="M125 465q0 68 13 136t43.5 134t74.5 116t112 81t150 31q179 0 283 -138t104 -354q0 -69 -13 -137t-43.5 -134.5t-74.5 -116.5t-111 -81t-149 -31q-179 0 -284 138.5t-105 355.5zM838 463q0 193 -85.5 315.5t-240.5 122.5q-119 0 -199 -74q-120 -114 -120 -356
q0 -194 84.5 -316t240.5 -122q124 0 203 76q117 114 117 354z" />
    <glyph glyph-name="p" unicode="p" horiz-adv-x="1034" 
d="M498 33q138 0 217 73q63 59 94 156t31 211q0 118 -30 213t-95 155t-156 60q-59 0 -114.5 -23.5t-91.5 -52t-101 -86.5v-639q114 -67 246 -67zM170 938l55 8l21 -145q80 80 151 121t168 41q157 0 250.5 -135.5t93.5 -340.5q0 -76 -13 -146.5t-44 -138.5t-78 -118.5
t-120 -81.5t-165 -31q-120 0 -237 66v-529h-66v1092q0 128 -16 338z" />
    <glyph glyph-name="q" unicode="q" horiz-adv-x="1026" 
d="M127 467q0 72 13.5 139.5t46 132t81 112t123 76.5t166.5 29q52 0 102.5 -7.5t84.5 -15.5t104 -28l-2 -1397h-64v578q-149 -115 -301 -115q-110 0 -191.5 67.5t-122 178.5t-40.5 250zM483 33q143 0 299 114v713q-110 35 -235 35q-138 0 -215 -61q-137 -115 -137 -369
q0 -190 80 -311t208 -121z" />
    <glyph glyph-name="r" unicode="r" horiz-adv-x="675" 
d="M170 938l57 8l21 -196q105 206 272 206q69 0 121 -32l-20 -52q-50 17 -107 17q-73 0 -142.5 -61.5t-119.5 -174.5v-653h-66v600q0 130 -16 338z" />
    <glyph glyph-name="s" unicode="s" horiz-adv-x="831" 
d="M143 717q0 109 82 174t201 65q73 0 144 -24t118 -62l-33 -45q-111 72 -225 72q-97 0 -158 -46t-61 -128q0 -35 14 -65.5t32.5 -50t52 -39t57.5 -30t65 -26.5q40 -15 62 -23.5t57 -24.5t55 -29.5t44.5 -35t37.5 -43.5t22 -52t9 -64q0 -119 -89 -191t-229 -72
q-154 0 -299 107l35 47q133 -94 264 -94q110 0 180 52.5t70 143.5q0 20 -4.5 38.5t-9.5 33t-18.5 29t-21.5 24t-28.5 22t-30 19t-35.5 18t-36 15.5t-39.5 15.5t-38.5 15.5q-58 23 -97.5 44t-76 51.5t-54.5 69.5t-18 89z" />
    <glyph glyph-name="t" unicode="t" horiz-adv-x="634" 
d="M227 1214h54v-280h297v-55h-297v-623q0 -126 25 -171.5t95 -45.5q57 0 164 29l17 -52q-106 -39 -195 -39q-99 0 -135.5 59.5t-36.5 209.5v633h-145v55h139z" />
    <glyph glyph-name="u" unicode="u" horiz-adv-x="1017" 
d="M174 932l66 4v-617q0 -148 46.5 -217t149.5 -69q149 0 330 188v713h65v-592q0 -103 17 -338l-57 -8l-21 158q-179 -183 -346 -183q-250 0 -250 328v633z" />
    <glyph glyph-name="v" unicode="v" horiz-adv-x="909" 
d="M778 934h58q0 -23 -15 -66l-336 -866l-63 -4l-328 870q-14 40 -14 66h59l262 -701q43 -121 48 -137h8z" />
    <glyph glyph-name="w" unicode="w" horiz-adv-x="1470" 
d="M709 932l63 4l223 -703l41 -137h8l283 838h59q0 -32 -12 -66l-301 -866l-67 -4l-230 715l-33 114h-6l-270 -825l-66 -4l-309 870q-14 40 -14 66h61l242 -701l47 -137h8z" />
    <glyph glyph-name="x" unicode="x" horiz-adv-x="882" 
d="M115 934h69l260 -379l261 379h63q-4 -25 -33 -66l-254 -368l295 -434q31 -45 35 -66h-68l-305 446l-303 -446h-65q2 14 34 66l297 438l-251 364q-31 45 -35 66z" />
    <glyph glyph-name="y" unicode="y" horiz-adv-x="915" 
d="M782 934h58q0 -23 -15 -66l-389 -1011q-150 -359 -342 -359q-33 0 -49 4v56q119 0 200 101.5t179 344.5l-326 864q-16 46 -16 66h61l263 -701q35 -99 47 -137h8z" />
    <glyph glyph-name="z" unicode="z" horiz-adv-x="882" 
d="M121 934h637l18 -53l-602 -826h598l2 -55h-668l-12 53l604 826h-575z" />
    <glyph glyph-name="braceleft" unicode="{" horiz-adv-x="686" 
d="M59 612v54q33 3 60.5 10t47.5 15.5t35.5 24.5t25.5 28.5t16.5 35.5t10 37t5.5 42t2 42v45v4v3.5v4v3.5q0 71 -7 183t-7 171q0 180 90.5 270t261.5 123l14 -55q-72 -17 -123 -39t-93.5 -60t-63.5 -97.5t-21 -141.5q0 -69 8.5 -182t8.5 -172v-52.5t-1.5 -48t-5.5 -50
t-10.5 -42.5t-17.5 -42.5t-26.5 -33.5t-38 -31.5t-50.5 -21.5q28 -9 50.5 -21.5t38 -31.5t26.5 -33.5t17.5 -42.5t10.5 -42.5t5.5 -50t1.5 -48v-52.5q0 -59 -8.5 -177t-8.5 -187q0 -152 77 -228.5t226 -111.5l-16 -55q-172 35 -262 125t-90 270q0 59 7 176t7 188
q0 118 -11 162q-26 100 -137 125q-25 6 -55 8z" />
    <glyph glyph-name="bar" unicode="|" horiz-adv-x="493" 
d="M213 1741h68v-2183h-68v2183z" />
    <glyph glyph-name="braceright" unicode="}" horiz-adv-x="686" 
d="M70 1653l14 55q173 -33 263.5 -123t90.5 -270q0 -59 -8 -171t-8 -183v-11v-41t1.5 -39t4 -38.5t7 -35t12.5 -34t18.5 -28.5t26 -25.5t34.5 -19.5t44 -15.5t55 -7.5v-54q-33 -3 -60.5 -10t-47.5 -16t-35 -25t-25 -28.5t-17 -35.5t-10.5 -38t-5.5 -43t-2 -42.5v-45.5v-5.5
v-5.5q0 -71 8 -188t8 -176q0 -93 -24.5 -162.5t-73 -115t-110.5 -73t-146 -44.5l-16 55q150 35 226.5 111.5t76.5 228.5q0 69 -7.5 187t-7.5 177v10q0 39 0.5 58.5t3 53t8 52.5t16 45.5t26 42.5t39.5 32.5t55 27.5q-31 11 -55 27.5t-39.5 32.5t-26 42.5t-16 45.5t-8 52.5
t-3 53t-0.5 58.5v10q0 59 7.5 172t7.5 182q0 82 -21 141.5t-63 97.5t-93 60t-124 39z" />
    <glyph glyph-name="asciitilde" unicode="~" horiz-adv-x="1067" 
d="M694 475q54 0 90.5 33.5t73.5 99.5l45 -22q-76 -172 -209 -172q-47 0 -91.5 20.5t-73.5 45t-68 45t-76 20.5q-56 0 -97 -33t-81 -94l-45 24q88 164 225 164q47 0 92.5 -20.5t75 -45t67.5 -45t72 -20.5z" />
    <glyph glyph-name="uni00A0" unicode="&#xa0;" horiz-adv-x="454" 
 />
    <glyph glyph-name="exclamdown" unicode="&#xa1;" horiz-adv-x="481" 
d="M211 618h59l9 -1056h-76zM164 883q0 34 20 53.5t54 19.5q35 0 57 -24t22 -64q0 -32 -19.5 -51.5t-51.5 -19.5q-37 0 -59.5 24t-22.5 62z" />
    <glyph glyph-name="cent" unicode="&#xa2;" horiz-adv-x="1060" 
d="M131 457q0 216 116.5 351.5t305.5 147.5v172h63v-170q105 -7 185 -57t127 -131l-45 -33q-117 146 -267 154v-848q79 6 156.5 31.5t128.5 56.5l27 -51q-47 -34 -132.5 -66t-179.5 -37v-161h-63v161q-190 11 -306 141t-116 339zM199 461q0 -191 97.5 -299t256.5 -117v846
q-105 -8 -182 -60q-172 -115 -172 -370z" />
    <glyph glyph-name="sterling" unicode="&#xa3;" horiz-adv-x="997" 
d="M291 741q0 133 9 231.5t32.5 183t62.5 137t100 81.5t144 29q121 0 217 -60l-27 -53q-96 47 -196 47q-110 0 -172 -71q-58 -67 -79.5 -197.5t-21.5 -331.5v-20h316v-62h-318q-9 -205 -57.5 -360.5t-116.5 -233.5h697l2 -61h-768l-13 66q172 181 187 589h-160v62h162v24z
" />
    <glyph glyph-name="currency" unicode="&#xa4;" horiz-adv-x="1034" 
d="M209 561q0 133 82 221l-144 142l39 37l144 -142q76 60 180 60q112 0 195 -70l153 152l39 -37l-156 -156q70 -86 70 -207q0 -117 -68 -207l154 -172l-39 -37l-151 170q-79 -73 -197 -73q-108 0 -182 61l-142 -158l-39 37l142 158q-80 93 -80 221zM750 561q0 109 -65 185.5
t-175 76.5t-175 -76.5t-65 -185.5t65 -186.5t175 -77.5t175 77.5t65 186.5z" />
    <glyph glyph-name="yen" unicode="&#xa5;" horiz-adv-x="1144" 
d="M958 1372h78l-26 -45.5t-31 -53t-25 -42.5l-336 -572h363v-63h-381v-201h381v-61h-381v-334h-68v334h-366v61h366v201h-366v63h348l-326 572q-17 28 -82 141h80l263 -471l116 -188h4z" />
    <glyph glyph-name="brokenbar" unicode="&#xa6;" horiz-adv-x="491" 
d="M211 1741h70v-2183h-70v2183zM281 489v320h-70v-320h70z" />
    <glyph glyph-name="section" unicode="&#xa7;" horiz-adv-x="878" 
d="M395 340q68 -33 113 -61q186 133 186 292q0 84 -51.5 141.5t-159.5 112.5q-56 27 -112 62q-86 -64 -136.5 -134.5t-50.5 -160.5q0 -84 52 -141t159 -111zM188 1135q0 126 90 196t218 70q125 0 235 -62l-26 -55q-97 51 -209 51q-106 0 -172 -49.5t-66 -146.5
q0 -22 4 -41.5t14 -37.5t19 -31.5t28 -29.5t31 -25.5t38 -24.5l39 -22.5t44.5 -24t44.5 -23.5q57 -30 96 -57t74.5 -63.5t53.5 -82t18 -101.5q0 -178 -201 -331q129 -92 129 -213q0 -127 -89.5 -197t-217.5 -70q-126 0 -236 62l29 53q100 -49 207 -49q106 0 173 50t67 147
q0 24 -6.5 46.5t-15 39.5t-26.5 35t-32 30t-41 29t-43.5 26t-49 27t-49.5 27q-119 63 -180 130t-61 171q0 179 200 334q-131 94 -131 213z" />
    <glyph glyph-name="dieresis" unicode="&#xa8;" horiz-adv-x="819" 
d="M504 1200q0 27 17 45.5t44 18.5q25 0 41.5 -15t16.5 -41q0 -25 -17.5 -43t-44.5 -18q-26 0 -41.5 14t-15.5 39zM197 1200q0 27 18 45.5t45 18.5q25 0 40 -15t15 -41t-16.5 -43.5t-44.5 -17.5q-25 0 -41 14.5t-16 38.5z" />
    <glyph glyph-name="copyright" unicode="&#xa9;" horiz-adv-x="1533" 
d="M131 686q0 175 85.5 324t232 236t317.5 87t318.5 -87t234 -236t86.5 -324t-86.5 -324.5t-234 -237t-318.5 -87.5t-317.5 87.5t-232 237t-85.5 324.5zM446 678q0 76 21 146t61.5 127t106.5 90.5t149 33.5q68 0 123 -26t88 -64l-32 -37q-78 68 -179 68q-111 0 -176 -68
q-98 -98 -98 -262q0 -139 67 -230t209 -91q101 0 193 53l25 -43q-33 -26 -94 -48t-128 -22q-165 0 -250.5 105.5t-85.5 267.5zM1337 686q0 159 -77 294.5t-208.5 214.5t-285.5 79q-153 0 -284 -79t-208 -214.5t-77 -294.5t77 -295t208 -215.5t284 -79.5q154 0 285.5 79.5
t208.5 215.5t77 295z" />
    <glyph glyph-name="ordfeminine" unicode="&#xaa;" horiz-adv-x="747" 
d="M172 1253q115 93 234 93q87 0 125 -54.5t38 -169.5v-149q0 -44 11 -213l-52 -8l-18 88q-107 -99 -215 -99q-66 0 -108 38.5t-42 105.5q0 79 70 129q78 53 291 69v17q0 106 -24.5 148t-86.5 42q-90 0 -194 -76zM305 795q97 0 201 96v145q-200 -18 -250 -57
q-47 -33 -47 -88q0 -46 26.5 -71t69.5 -25z" />
    <glyph glyph-name="guillemotleft" unicode="&#xab;" horiz-adv-x="911" 
d="M106 489l338 404l39 -35l-299 -379l301 -383l-41 -35l-335 406zM403 489l338 404l39 -35l-299 -379l301 -383l-41 -35l-335 406z" />
    <glyph glyph-name="logicalnot" unicode="&#xac;" 
d="M211 543h713v-494h-60v432h-653v62z" />
    <glyph glyph-name="uni00AD" unicode="&#xad;" horiz-adv-x="733" 
d="M164 512h403v-61h-403v61z" />
    <glyph glyph-name="registered" unicode="&#xae;" horiz-adv-x="1097" 
d="M125 1069q0 173 125 296.5t299 123.5q175 0 299.5 -123.5t124.5 -296.5q0 -175 -124.5 -298.5t-299.5 -123.5q-174 0 -299 124t-125 298zM913 1069q0 152 -106 258.5t-256 106.5q-151 0 -258 -106.5t-107 -258.5q0 -154 106.5 -260.5t258.5 -106.5q150 0 256 107t106 260
zM512 1083q51 0 86 13q61 27 61 80q0 49 -35.5 69.5t-103.5 20.5q-11 0 -57 -4v-177q20 -2 49 -2zM406 1305q49 10 118 10q90 0 140.5 -34.5t50.5 -100.5q0 -44 -26 -79.5t-77 -53.5l93 -164q6 -11 20 -43h-59l-109 194q-12 -2 -41 -2q-35 0 -53 2v-194h-57v465z" />
    <glyph glyph-name="macron" unicode="&#xaf;" horiz-adv-x="819" 
d="M186 1208h447v-61h-447v61z" />
    <glyph glyph-name="degree" unicode="&#xb0;" horiz-adv-x="798" 
d="M133 1155q0 121 76 202t190 81t190.5 -81t76.5 -202q0 -122 -76.5 -203.5t-190.5 -81.5t-190 81.5t-76 203.5zM598 1155q0 99 -55.5 161t-143.5 62q-87 0 -142.5 -59.5t-55.5 -163.5q0 -101 54.5 -163t143.5 -62t144 61t55 164z" />
    <glyph glyph-name="plusminus" unicode="&#xb1;" 
d="M535 971h63v-367h346v-61h-346v-346h-63v346h-351v61h351v367zM184 61h760v-61h-760v61z" />
    <glyph glyph-name="twosuperior" unicode="&#xb2;" horiz-adv-x="571" 
d="M90 1520q80 63 184 63q100 0 149.5 -55.5t49.5 -145.5q0 -42 -16 -87t-35 -79.5t-60.5 -84.5t-65.5 -76.5t-77 -81.5l-67 -70h327l4 -55h-403l-6 57l90 94q130 136 186 217t56 164q0 67 -33.5 106.5t-100.5 39.5q-81 0 -155 -49z" />
    <glyph glyph-name="threesuperior" unicode="&#xb3;" horiz-adv-x="567" 
d="M84 1520q77 63 182 63q84 0 133.5 -47t49.5 -125q0 -59 -30.5 -108.5t-82.5 -75.5q63 -15 101 -61t38 -115q0 -101 -61.5 -160.5t-161.5 -59.5q-95 0 -172 46l24 49q76 -37 150 -37q60 0 96 29q58 42 58 129q0 68 -46.5 106.5t-128.5 38.5h-43l-2 55h35q70 0 114 46
t44 110q0 58 -31.5 90.5t-89.5 32.5q-76 0 -149 -47z" />
    <glyph glyph-name="acute" unicode="&#xb4;" horiz-adv-x="819" 
d="M309 1122l283 303l49 -43v-8l-295 -287z" />
    <glyph glyph-name="uni00B5" unicode="&#xb5;" horiz-adv-x="1155" 
d="M803 934h65v-701q0 -100 26.5 -147t82.5 -47q41 0 86 18l18 -53q-52 -27 -110 -27q-78 0 -118 55t-44 175q-91 -230 -311 -230q-151 0 -228 125l2 -594h-65v1424l65 4v-647q0 -104 61 -177t167 -73q74 0 134.5 37t96 93.5t54 116.5t18.5 113v535z" />
    <glyph glyph-name="paragraph" unicode="&#xb6;" horiz-adv-x="1058" 
d="M70 997q0 192 131.5 295t367.5 103q45 0 72 -2v-1842h-70v1002q-104 3 -189 29t-142.5 67.5t-96 98t-56 118.5t-17.5 131zM768 -449v1827q39 -3 68 -12v-1815h-68z" />
    <glyph glyph-name="periodcentered" unicode="&#xb7;" horiz-adv-x="419" 
d="M145 508q0 32 17.5 51t48.5 19q27 0 44 -18t17 -46q0 -34 -16.5 -53t-46.5 -19q-31 0 -47.5 18.5t-16.5 47.5z" />
    <glyph glyph-name="cedilla" unicode="&#xb8;" horiz-adv-x="819" 
d="M313 -172l72 195l53 -19l-57 -149q28 4 45 4q76 0 127 -32.5t51 -98.5q0 -83 -76 -144t-229 -94l-18 51q136 30 197 74.5t61 108.5q0 83 -127 83q-42 0 -74 -8z" />
    <glyph glyph-name="onesuperior" unicode="&#xb9;" horiz-adv-x="493" 
d="M82 1505l180 70l49 -2v-672h123l2 -53h-352v53h162v608l-146 -51z" />
    <glyph glyph-name="ordmasculine" unicode="&#xba;" horiz-adv-x="778" 
d="M135 1040q0 54 15 107t45 99.5t81 75t115 28.5q115 0 182.5 -86t67.5 -217q0 -55 -15 -108t-45 -98.5t-80.5 -73.5t-115.5 -28q-116 0 -183 84.5t-67 216.5zM573 1038q0 114 -48.5 185t-137.5 71q-52 0 -100 -30q-84 -63 -84 -217q0 -113 47.5 -182.5t138.5 -69.5
q68 0 105 34q79 61 79 209z" />
    <glyph glyph-name="guillemotright" unicode="&#xbb;" horiz-adv-x="911" 
d="M129 858l41 35l338 -404l-2 -22l-336 -406l-43 35l303 383zM426 858l41 35l338 -404l-2 -22l-336 -406l-43 35l303 383z" />
    <glyph glyph-name="onequarter" unicode="&#xbc;" horiz-adv-x="1622" 
d="M172 1260l221 69l51 -2v-672h150l2 -53h-422v53h203v611l-189 -56zM332 8l903 1393l51 -37l-903 -1393zM997 268l316 488l71 -4v-486h111l2 -53h-113v-184h-63v184h-315zM1272 586l-207 -320h256v398h-2z" />
    <glyph glyph-name="onehalf" unicode="&#xbd;" horiz-adv-x="1622" 
d="M172 1260l221 69l51 -2v-672h150l2 -53h-422v53h203v611l-189 -56zM332 8l903 1393l51 -37l-903 -1393zM1055 700q81 64 184 64q100 0 149.5 -55.5t49.5 -145.5q0 -42 -16 -87t-35 -79.5t-60.5 -84.5t-65.5 -76.5t-77 -81.5l-68 -70h328l4 -55h-404l-6 57l90 94
q130 136 186 217t56 164q0 67 -33 106.5t-100 39.5q-80 0 -156 -50z" />
    <glyph glyph-name="threequarters" unicode="&#xbe;" horiz-adv-x="1622" 
d="M170 1274q77 63 182 63q84 0 133.5 -47t49.5 -125q0 -58 -31 -108t-82 -76q63 -15 101 -61t38 -115q0 -100 -61 -159.5t-162 -59.5q-96 0 -174 45l24 49q80 -37 150 -37q62 0 98 29q58 45 58 129q0 68 -46.5 106.5t-128.5 38.5h-43l-2 55h35q70 0 114 46t44 110
q0 58 -31.5 90.5t-89.5 32.5q-74 0 -151 -47zM332 8l903 1393l51 -37l-903 -1393zM997 268l316 488l71 -4v-486h111l2 -53h-113v-184h-63v184h-315zM1272 586l-207 -320h256v398h-2z" />
    <glyph glyph-name="questiondown" unicode="&#xbf;" horiz-adv-x="751" 
d="M406 621l61 8q8 -49 8 -92q0 -77 -14.5 -141t-45 -117.5t-55.5 -86t-67 -79.5q-66 -75 -102.5 -144t-36.5 -153q0 -105 65.5 -161.5t186.5 -53.5q121 0 239 65l29 -49q-143 -78 -279 -78q-140 0 -223.5 71.5t-83.5 203.5q0 99 42.5 176.5t121.5 167.5q76 85 118 169.5
t42 207.5q0 45 -6 86zM354 874q0 40 21.5 64.5t58.5 24.5q33 0 53.5 -20.5t20.5 -53.5q0 -38 -22.5 -62t-59.5 -24q-32 0 -52 19.5t-20 51.5z" />
    <glyph glyph-name="Agrave" unicode="&#xc0;" horiz-adv-x="1148" 
d="M575 1270l-270 -764h531l-154 446l-100 318h-7zM539 1368l75 8l473 -1376h-77l-154 444h-571l-158 -444h-76q12 33 35.5 98.5t36.5 98.5zM322 1686l26 61l385 -158l-20 -53l-391 141v9z" />
    <glyph glyph-name="Aacute" unicode="&#xc1;" horiz-adv-x="1148" 
d="M575 1270l-270 -764h531l-154 446l-100 318h-7zM539 1368l75 8l473 -1376h-77l-154 444h-571l-158 -444h-76q12 33 35.5 98.5t36.5 98.5zM422 1587l385 160l27 -64v-6l-394 -141z" />
    <glyph glyph-name="Acircumflex" unicode="&#xc2;" horiz-adv-x="1148" 
d="M575 1270l-270 -764h531l-154 446l-100 318h-7zM539 1368l75 8l473 -1376h-77l-154 444h-571l-158 -444h-76q12 33 35.5 98.5t36.5 98.5zM545 1769l53 9l256 -217l-33 -41l-246 192l-245 -192l-35 39z" />
    <glyph glyph-name="Atilde" unicode="&#xc3;" horiz-adv-x="1148" 
d="M575 1270l-270 -764h531l-154 446l-100 318h-7zM539 1368l75 8l473 -1376h-77l-154 444h-571l-158 -444h-76q12 33 35.5 98.5t36.5 98.5zM690 1575q34 0 71.5 41t69.5 108l50 -28q-90 -180 -193 -180q-31 0 -58 15.5t-47 38t-39 44.5t-40 37.5t-43 15.5q-63 0 -142 -147
l-49 26q93 180 197 180q38 0 71 -23.5t53 -52t46.5 -52t52.5 -23.5z" />
    <glyph glyph-name="Adieresis" unicode="&#xc4;" horiz-adv-x="1148" 
d="M575 1270l-270 -764h531l-154 446l-100 318h-7zM539 1368l75 8l473 -1376h-77l-154 444h-571l-158 -444h-76q12 33 35.5 98.5t36.5 98.5zM678 1614q0 27 17 45t46 18q24 0 40 -15t16 -40q0 -26 -16.5 -43.5t-43.5 -17.5q-28 0 -43.5 14t-15.5 39zM354 1614q0 26 18 44.5
t44 18.5t41.5 -14.5t15.5 -40.5t-16.5 -43.5t-44.5 -17.5q-25 0 -41.5 14.5t-16.5 38.5z" />
    <glyph glyph-name="Aring" unicode="&#xc5;" horiz-adv-x="1148" 
d="M575 1270l-270 -764h531l-154 446l-100 318h-7zM539 1368l75 8l473 -1376h-77l-154 444h-571l-158 -444h-76q12 33 35.5 98.5t36.5 98.5zM397 1663q0 81 52 133.5t137 52.5q75 0 124.5 -50.5t49.5 -123.5q0 -80 -52 -132t-135 -52q-78 0 -127 49.5t-49 122.5zM702 1675
q0 51 -33 86t-85 35q-58 0 -93.5 -37.5t-35.5 -95.5q0 -53 31.5 -86t86.5 -33q58 0 93.5 36t35.5 95z" />
    <glyph glyph-name="AE" unicode="&#xc6;" horiz-adv-x="1718" 
d="M713 1063l-301 -526h456v774h-10zM819 1372h774l-2 -61h-655v-578h539v-63h-539v-609h655l2 -61h-725v475h-491l-273 -475h-79q0 1 1.5 3t3.5 4.5t3 4.5z" />
    <glyph glyph-name="Ccedilla" unicode="&#xc7;" horiz-adv-x="1173" 
d="M133 666q0 113 22 218t68.5 198.5t113.5 162.5t163.5 109.5t212.5 40.5q207 0 352 -111l-31 -53q-87 52 -160 75t-163 23q-204 0 -324 -129q-180 -191 -180 -524q0 -102 17 -193t55.5 -173t96 -141t143.5 -93.5t192 -34.5q100 0 177 22.5t173 69.5l26 -53
q-95 -52 -182 -77.5t-198 -25.5h-19l-49 -120q12 2 39 2q76 0 127 -32.5t51 -98.5q0 -83 -76 -144t-229 -94l-19 51q136 30 197.5 74.5t61.5 108.5q0 83 -127 83q-42 0 -74 -8l-25 29l58 154q-125 16 -221 76.5t-153.5 154t-86.5 207.5t-29 246z" />
    <glyph glyph-name="Egrave" unicode="&#xc8;" horiz-adv-x="1064" 
d="M215 1372h725l-2 -61h-655v-578h538v-63h-538v-609h655l2 -61h-725v1372zM324 1686l26 61l385 -158l-20 -53l-391 141v9z" />
    <glyph glyph-name="Eacute" unicode="&#xc9;" horiz-adv-x="1064" 
d="M215 1372h725l-2 -61h-655v-578h538v-63h-538v-609h655l2 -61h-725v1372zM424 1587l385 160l27 -64v-6l-394 -141z" />
    <glyph glyph-name="Ecircumflex" unicode="&#xca;" horiz-adv-x="1064" 
d="M215 1372h725l-2 -61h-655v-578h538v-63h-538v-609h655l2 -61h-725v1372zM547 1769l53 9l256 -217l-33 -41l-245 192l-246 -192l-35 39z" />
    <glyph glyph-name="Edieresis" unicode="&#xcb;" horiz-adv-x="1064" 
d="M215 1372h725l-2 -61h-655v-578h538v-63h-538v-609h655l2 -61h-725v1372zM680 1614q0 27 17 45t46 18q24 0 40 -15t16 -40q0 -26 -16.5 -43.5t-43.5 -17.5q-28 0 -43.5 14t-15.5 39zM356 1614q0 26 18 44.5t44 18.5t41.5 -14.5t15.5 -40.5t-16.5 -43.5t-44.5 -17.5
q-25 0 -41.5 14.5t-16.5 38.5z" />
    <glyph glyph-name="Igrave" unicode="&#xcc;" horiz-adv-x="497" 
d="M215 1372h68v-1372h-68v1372zM-4 1686l27 61l385 -158l-21 -53l-391 141v9z" />
    <glyph glyph-name="Iacute" unicode="&#xcd;" horiz-adv-x="497" 
d="M215 1372h68v-1372h-68v1372zM96 1587l385 160l27 -64v-6l-393 -141z" />
    <glyph glyph-name="Icircumflex" unicode="&#xce;" horiz-adv-x="497" 
d="M215 1372h68v-1372h-68v1372zM219 1769l53 9l256 -217l-32 -41l-246 192l-246 -192l-35 39z" />
    <glyph glyph-name="Idieresis" unicode="&#xcf;" horiz-adv-x="497" 
d="M215 1372h68v-1372h-68v1372zM352 1614q0 27 17.5 45t46.5 18q24 0 39.5 -14.5t15.5 -40.5t-16 -43.5t-43 -17.5q-28 0 -44 14t-16 39zM29 1614q0 26 17.5 44.5t43.5 18.5t41.5 -14.5t15.5 -40.5t-16.5 -43.5t-44.5 -17.5q-25 0 -41 14.5t-16 38.5z" />
    <glyph glyph-name="Eth" unicode="&#xd0;" horiz-adv-x="1318" 
d="M225 1364q179 31 348 31q280 0 448.5 -186.5t168.5 -495.5q0 -209 -80 -377t-225 -263.5t-328 -95.5q-187 0 -332 29v662h-174v67h174v629zM565 43q149 0 262 72q138 90 214.5 247.5t74.5 339.5q-2 283 -149.5 455t-403.5 172q-127 0 -270 -20v-574h369v-67h-369v-607
q105 -18 272 -18z" />
    <glyph glyph-name="Ntilde" unicode="&#xd1;" horiz-adv-x="1351" 
d="M215 1372h80l698 -1139l78 -137h2l-6 164v1112h70v-1372h-86l-695 1137l-75 139h-5l7 -141v-1135h-68v1372zM809 1575q34 0 71.5 41t69.5 108l49 -28q-90 -180 -192 -180q-31 0 -58 15.5t-47 38t-39 44.5t-40 37.5t-43 15.5q-63 0 -142 -147l-49 26q93 180 197 180
q38 0 71 -23.5t53 -52t46.5 -52t52.5 -23.5z" />
    <glyph glyph-name="Ograve" unicode="&#xd2;" horiz-adv-x="1374" 
d="M131 670q0 104 19 205t62.5 197t106 168.5t157.5 116.5t210 44q128 0 234 -55t176 -149.5t108.5 -222t38.5 -272.5q0 -104 -19 -205t-62 -197t-105.5 -168.5t-157 -116.5t-209.5 -44q-129 0 -235.5 55t-176.5 149.5t-108.5 222t-38.5 272.5zM1169 686q0 137 -32.5 255.5
t-93 206t-152 137.5t-203.5 50q-152 0 -264 -90q-114 -88 -165.5 -238.5t-51.5 -320.5q0 -137 32.5 -255.5t93 -206t152 -137.5t203.5 -50q150 0 266 90q77 60 127 157t69 195.5t19 206.5zM432 1686l27 61l385 -158l-21 -53l-391 141v9z" />
    <glyph glyph-name="Oacute" unicode="&#xd3;" horiz-adv-x="1374" 
d="M131 670q0 104 19 205t62.5 197t106 168.5t157.5 116.5t210 44q128 0 234 -55t176 -149.5t108.5 -222t38.5 -272.5q0 -104 -19 -205t-62 -197t-105.5 -168.5t-157 -116.5t-209.5 -44q-129 0 -235.5 55t-176.5 149.5t-108.5 222t-38.5 272.5zM1169 686q0 137 -32.5 255.5
t-93 206t-152 137.5t-203.5 50q-152 0 -264 -90q-114 -88 -165.5 -238.5t-51.5 -320.5q0 -137 32.5 -255.5t93 -206t152 -137.5t203.5 -50q150 0 266 90q77 60 127 157t69 195.5t19 206.5zM532 1587l386 160l26 -64v-6l-393 -141z" />
    <glyph glyph-name="Ocircumflex" unicode="&#xd4;" horiz-adv-x="1374" 
d="M131 670q0 104 19 205t62.5 197t106 168.5t157.5 116.5t210 44q128 0 234 -55t176 -149.5t108.5 -222t38.5 -272.5q0 -104 -19 -205t-62 -197t-105.5 -168.5t-157 -116.5t-209.5 -44q-129 0 -235.5 55t-176.5 149.5t-108.5 222t-38.5 272.5zM1169 686q0 137 -32.5 255.5
t-93 206t-152 137.5t-203.5 50q-152 0 -264 -90q-114 -88 -165.5 -238.5t-51.5 -320.5q0 -137 32.5 -255.5t93 -206t152 -137.5t203.5 -50q150 0 266 90q77 60 127 157t69 195.5t19 206.5zM655 1769l54 9l256 -217l-33 -41l-246 192l-246 -192l-34 39z" />
    <glyph glyph-name="Otilde" unicode="&#xd5;" horiz-adv-x="1374" 
d="M131 670q0 104 19 205t62.5 197t106 168.5t157.5 116.5t210 44q128 0 234 -55t176 -149.5t108.5 -222t38.5 -272.5q0 -104 -19 -205t-62 -197t-105.5 -168.5t-157 -116.5t-209.5 -44q-129 0 -235.5 55t-176.5 149.5t-108.5 222t-38.5 272.5zM1169 686q0 137 -32.5 255.5
t-93 206t-152 137.5t-203.5 50q-152 0 -264 -90q-114 -88 -165.5 -238.5t-51.5 -320.5q0 -137 32.5 -255.5t93 -206t152 -137.5t203.5 -50q150 0 266 90q77 60 127 157t69 195.5t19 206.5zM801 1575q34 0 71.5 41t69.5 108l49 -28q-90 -180 -192 -180q-31 0 -58.5 15.5
t-47.5 38t-38.5 44.5t-40 37.5t-43.5 15.5q-62 0 -141 -147l-49 26q93 180 197 180q38 0 71 -23.5t53 -52t46.5 -52t52.5 -23.5z" />
    <glyph glyph-name="Odieresis" unicode="&#xd6;" horiz-adv-x="1374" 
d="M131 670q0 104 19 205t62.5 197t106 168.5t157.5 116.5t210 44q128 0 234 -55t176 -149.5t108.5 -222t38.5 -272.5q0 -104 -19 -205t-62 -197t-105.5 -168.5t-157 -116.5t-209.5 -44q-129 0 -235.5 55t-176.5 149.5t-108.5 222t-38.5 272.5zM1169 686q0 137 -32.5 255.5
t-93 206t-152 137.5t-203.5 50q-152 0 -264 -90q-114 -88 -165.5 -238.5t-51.5 -320.5q0 -137 32.5 -255.5t93 -206t152 -137.5t203.5 -50q150 0 266 90q77 60 127 157t69 195.5t19 206.5zM788 1614q0 27 17.5 45t46.5 18q24 0 39.5 -14.5t15.5 -40.5t-16 -43.5t-43 -17.5
q-28 0 -44 14t-16 39zM465 1614q0 26 17.5 44.5t43.5 18.5q27 0 42.5 -14.5t15.5 -40.5t-17 -43.5t-45 -17.5q-25 0 -41 14.5t-16 38.5z" />
    <glyph glyph-name="multiply" unicode="&#xd7;" 
d="M848 180l-283 287l-284 -287l-45 41l286 291l-284 287l43 43l284 -287l283 287l45 -43l-285 -289l285 -289z" />
    <glyph glyph-name="Oslash" unicode="&#xd8;" horiz-adv-x="1374" 
d="M131 670q0 104 19 205t62.5 197t106 168.5t157.5 116.5t210 44q151 0 275 -78l75 156l60 -33l-80 -164q108 -93 167.5 -245.5t59.5 -334.5q0 -104 -19 -205t-62 -197t-105.5 -168.5t-157 -116.5t-209.5 -44q-155 0 -280 80l-76 -155l-58 30l80 166q-108 93 -166.5 244
t-58.5 334zM207 686q0 -167 46.5 -304t135.5 -224l541 1104q-106 73 -242 73q-152 0 -264 -90q-114 -88 -165.5 -238.5t-51.5 -320.5zM1169 686q0 169 -48 307t-138 224l-543 -1102q111 -78 248 -78q150 0 266 90q77 60 127 157t69 195.5t19 206.5z" />
    <glyph glyph-name="Ugrave" unicode="&#xd9;" horiz-adv-x="1257" 
d="M989 1372h68v-856q0 -98 -12.5 -177t-43 -149t-79.5 -117t-124.5 -74.5t-174.5 -27.5q-205 0 -313.5 117t-108.5 373v911h67v-872q0 -86 8.5 -152t33 -127.5t65 -101t107.5 -63t157 -23.5q74 0 136.5 25t98.5 61q115 107 115 358v895zM375 1686l26 61l385 -158l-20 -53
l-391 141v9z" />
    <glyph glyph-name="Uacute" unicode="&#xda;" horiz-adv-x="1257" 
d="M989 1372h68v-856q0 -98 -12.5 -177t-43 -149t-79.5 -117t-124.5 -74.5t-174.5 -27.5q-205 0 -313.5 117t-108.5 373v911h67v-872q0 -86 8.5 -152t33 -127.5t65 -101t107.5 -63t157 -23.5q74 0 136.5 25t98.5 61q115 107 115 358v895zM475 1587l385 160l27 -64v-6
l-393 -141z" />
    <glyph glyph-name="Ucircumflex" unicode="&#xdb;" horiz-adv-x="1257" 
d="M989 1372h68v-856q0 -98 -12.5 -177t-43 -149t-79.5 -117t-124.5 -74.5t-174.5 -27.5q-205 0 -313.5 117t-108.5 373v911h67v-872q0 -86 8.5 -152t33 -127.5t65 -101t107.5 -63t157 -23.5q74 0 136.5 25t98.5 61q115 107 115 358v895zM598 1769l53 9l256 -217l-33 -41
l-245 192l-246 -192l-35 39z" />
    <glyph glyph-name="Udieresis" unicode="&#xdc;" horiz-adv-x="1257" 
d="M989 1372h68v-856q0 -98 -12.5 -177t-43 -149t-79.5 -117t-124.5 -74.5t-174.5 -27.5q-205 0 -313.5 117t-108.5 373v911h67v-872q0 -86 8.5 -152t33 -127.5t65 -101t107.5 -63t157 -23.5q74 0 136.5 25t98.5 61q115 107 115 358v895zM731 1614q0 27 17.5 45t46.5 18
q24 0 39.5 -14.5t15.5 -40.5t-16 -43.5t-43 -17.5q-28 0 -44 14t-16 39zM408 1614q0 26 17.5 44.5t43.5 18.5t41.5 -14.5t15.5 -40.5t-16.5 -43.5t-44.5 -17.5q-25 0 -41 14.5t-16 38.5z" />
    <glyph glyph-name="Yacute" unicode="&#xdd;" horiz-adv-x="1030" 
d="M905 1372h78q-67 -118 -82 -141l-354 -635v-596h-68v590l-346 641l-80 141h80l283 -518l98 -172h2zM367 1587l385 160l26 -64v-6l-393 -141z" />
    <glyph glyph-name="Thorn" unicode="&#xde;" horiz-adv-x="1079" 
d="M449 356q174 0 278 52q180 94 180 323q0 176 -108 258t-301 82q-88 0 -215 -20v-686q95 -9 166 -9zM215 1372h68v-258q112 23 221 23q230 0 353.5 -101.5t123.5 -296.5q0 -99 -31 -179t-94.5 -141t-167.5 -94.5t-242 -33.5q-61 0 -163 12v-303h-68v1372z" />
    <glyph glyph-name="germandbls" unicode="&#xdf;" horiz-adv-x="1050" 
d="M221 1235q0 155 71 239.5t195 84.5q125 0 197 -76t72 -209q0 -69 -29 -143t-63.5 -126.5t-63.5 -114.5t-29 -110q0 -41 12 -73.5t40.5 -62.5t54 -50t74.5 -53q40 -27 62.5 -43.5t54 -46t48 -56t29 -65.5t12.5 -84q0 -122 -82 -195.5t-227 -73.5q-136 0 -256 70l25 53
q108 -63 237 -63q111 0 173.5 53t62.5 150q0 82 -41 134.5t-145 117.5q-50 34 -80 58t-60.5 58.5t-44.5 75t-14 90.5q0 49 18.5 100t45.5 96.5t54 91.5t45.5 101.5t18.5 110.5q0 103 -50 163t-149 60q-202 0 -202 -270v-1227h-66v879h-145v55h145v301z" />
    <glyph glyph-name="agrave" unicode="&#xe0;" horiz-adv-x="925" 
d="M139 805q187 151 365 151q131 0 187.5 -86.5t56.5 -273.5v-254q0 -125 16 -338l-55 -8l-23 145q-172 -164 -354 -164q-103 0 -166.5 61t-63.5 169q0 123 111 203q121 87 469 114v37q0 184 -40.5 259t-139.5 75q-78 0 -164.5 -37t-165.5 -96zM334 37q80 0 171.5 45
t176.5 129v256q-193 -21 -290 -44t-142 -56q-80 -64 -80 -158q0 -81 45.5 -126.5t118.5 -45.5zM268 1382l49 43l283 -303l-37 -35l-295 287v8z" />
    <glyph glyph-name="aacute" unicode="&#xe1;" horiz-adv-x="925" 
d="M139 805q187 151 365 151q131 0 187.5 -86.5t56.5 -273.5v-254q0 -125 16 -338l-55 -8l-23 145q-172 -164 -354 -164q-103 0 -166.5 61t-63.5 169q0 123 111 203q121 87 469 114v37q0 184 -40.5 259t-139.5 75q-78 0 -164.5 -37t-165.5 -96zM334 37q80 0 171.5 45
t176.5 129v256q-193 -21 -290 -44t-142 -56q-80 -64 -80 -158q0 -81 45.5 -126.5t118.5 -45.5zM365 1122l282 303l49 -43v-8l-295 -287z" />
    <glyph glyph-name="acircumflex" unicode="&#xe2;" horiz-adv-x="925" 
d="M139 805q187 151 365 151q131 0 187.5 -86.5t56.5 -273.5v-254q0 -125 16 -338l-55 -8l-23 145q-172 -164 -354 -164q-103 0 -166.5 61t-63.5 169q0 123 111 203q121 87 469 114v37q0 184 -40.5 259t-139.5 75q-78 0 -164.5 -37t-165.5 -96zM334 37q80 0 171.5 45
t176.5 129v256q-193 -21 -290 -44t-142 -56q-80 -64 -80 -158q0 -81 45.5 -126.5t118.5 -45.5zM436 1403l53 8l228 -291l-41 -35l-211 252l-217 -254l-41 35z" />
    <glyph glyph-name="atilde" unicode="&#xe3;" horiz-adv-x="925" 
d="M139 805q187 151 365 151q131 0 187.5 -86.5t56.5 -273.5v-254q0 -125 16 -338l-55 -8l-23 145q-172 -164 -354 -164q-103 0 -166.5 61t-63.5 169q0 123 111 203q121 87 469 114v37q0 184 -40.5 259t-139.5 75q-78 0 -164.5 -37t-165.5 -96zM334 37q80 0 171.5 45
t176.5 129v256q-193 -21 -290 -44t-142 -56q-80 -64 -80 -158q0 -81 45.5 -126.5t118.5 -45.5zM582 1167q33 0 68 40t67 108l47 -25q-86 -182 -186 -182q-37 0 -70 24t-54 53t-49 53t-55 24q-34 0 -67 -38.5t-70 -111.5l-47 25q84 182 188 182q31 0 58 -15.5t46.5 -38
t38 -45t40.5 -38t45 -15.5z" />
    <glyph glyph-name="adieresis" unicode="&#xe4;" horiz-adv-x="925" 
d="M139 805q187 151 365 151q131 0 187.5 -86.5t56.5 -273.5v-254q0 -125 16 -338l-55 -8l-23 145q-172 -164 -354 -164q-103 0 -166.5 61t-63.5 169q0 123 111 203q121 87 469 114v37q0 184 -40.5 259t-139.5 75q-78 0 -164.5 -37t-165.5 -96zM334 37q80 0 171.5 45
t176.5 129v256q-193 -21 -290 -44t-142 -56q-80 -64 -80 -158q0 -81 45.5 -126.5t118.5 -45.5zM559 1200q0 27 17.5 45.5t44.5 18.5q25 0 41 -15t16 -41q0 -25 -17.5 -43t-44.5 -18q-26 0 -41.5 14t-15.5 39zM252 1200q0 27 18 45.5t45 18.5q25 0 40.5 -15t15.5 -41
t-17 -43.5t-45 -17.5q-25 0 -41 14.5t-16 38.5z" />
    <glyph glyph-name="aring" unicode="&#xe5;" horiz-adv-x="925" 
d="M139 805q187 151 365 151q131 0 187.5 -86.5t56.5 -273.5v-254q0 -125 16 -338l-55 -8l-23 145q-172 -164 -354 -164q-103 0 -166.5 61t-63.5 169q0 123 111 203q121 87 469 114v37q0 184 -40.5 259t-139.5 75q-78 0 -164.5 -37t-165.5 -96zM334 37q80 0 171.5 45
t176.5 129v256q-193 -21 -290 -44t-142 -56q-80 -64 -80 -158q0 -81 45.5 -126.5t118.5 -45.5zM281 1245q0 89 52.5 141t139.5 52q78 0 127 -47.5t49 -128.5q0 -89 -52.5 -142t-137.5 -53q-79 0 -128.5 48.5t-49.5 129.5zM590 1260q0 58 -32.5 92t-86.5 34q-61 0 -96 -38
t-35 -103q0 -57 32 -91t89 -34q60 0 94.5 38t34.5 102z" />
    <glyph glyph-name="ae" unicode="&#xe6;" horiz-adv-x="1523" 
d="M1081 901q-136 0 -223.5 -100t-99.5 -277h569q4 54 4 86q0 124 -66.5 207.5t-183.5 83.5zM690 465v2q-195 -20 -293 -43t-145 -57q-82 -61 -82 -158q0 -82 49.5 -126t138.5 -46q206 0 373 188q-41 103 -41 240zM215 412q118 85 465 112v37q0 184 -39.5 260t-138.5 76
q-151 0 -330 -135l-33 43q187 151 365 151q109 0 163 -59.5t68 -185.5q48 117 138.5 184.5t207.5 67.5q102 0 175.5 -50t108 -130.5t34.5 -180.5q0 -59 -10 -137h-633q1 -206 94 -316t240 -110q133 0 266 57l24 -51q-154 -68 -305 -68q-100 0 -184 50t-137 147
q-176 -197 -398 -197q-119 0 -186.5 60t-67.5 170q0 124 113 205z" />
    <glyph glyph-name="ccedilla" unicode="&#xe7;" horiz-adv-x="882" 
d="M125 453q0 224 109.5 363.5t283.5 139.5q175 0 266 -159l-45 -31q-56 67 -106.5 98t-122.5 31q-102 0 -180 -66q-135 -109 -135 -366q0 -207 88 -315.5t239 -108.5q105 0 242 57l22 -51q-153 -68 -270 -68h-12l-47 -122q28 4 45 4q76 0 127 -32.5t51 -98.5
q0 -83 -76 -144t-229 -94l-19 51q136 30 197 74.5t61 108.5q0 83 -127 83q-41 0 -73 -8l-25 29l57 156q-150 25 -235.5 150.5t-85.5 318.5z" />
    <glyph glyph-name="egrave" unicode="&#xe8;" horiz-adv-x="960" 
d="M125 465q0 214 108.5 356t284.5 142q150 0 233 -103.5t83 -257.5q0 -51 -11 -137h-630q0 -206 92 -316t239 -110q136 0 269 57l22 -51q-151 -68 -303 -68q-78 0 -147 31t-123 89.5t-85.5 153.5t-31.5 214zM518 901q-136 0 -222.5 -101t-100.5 -276h569q4 54 4 86
q0 124 -67 207.5t-183 83.5zM307 1382l49 43l283 -303l-37 -35l-295 287v8z" />
    <glyph glyph-name="eacute" unicode="&#xe9;" horiz-adv-x="960" 
d="M125 465q0 214 108.5 356t284.5 142q150 0 233 -103.5t83 -257.5q0 -51 -11 -137h-630q0 -206 92 -316t239 -110q136 0 269 57l22 -51q-151 -68 -303 -68q-78 0 -147 31t-123 89.5t-85.5 153.5t-31.5 214zM518 901q-136 0 -222.5 -101t-100.5 -276h569q4 54 4 86
q0 124 -67 207.5t-183 83.5zM403 1122l283 303l49 -43v-8l-295 -287z" />
    <glyph glyph-name="ecircumflex" unicode="&#xea;" horiz-adv-x="960" 
d="M125 465q0 214 108.5 356t284.5 142q150 0 233 -103.5t83 -257.5q0 -51 -11 -137h-630q0 -206 92 -316t239 -110q136 0 269 57l22 -51q-151 -68 -303 -68q-78 0 -147 31t-123 89.5t-85.5 153.5t-31.5 214zM518 901q-136 0 -222.5 -101t-100.5 -276h569q4 54 4 86
q0 124 -67 207.5t-183 83.5zM475 1403l53 8l228 -291l-41 -35l-211 252l-217 -254l-41 35z" />
    <glyph glyph-name="edieresis" unicode="&#xeb;" horiz-adv-x="960" 
d="M125 465q0 214 108.5 356t284.5 142q150 0 233 -103.5t83 -257.5q0 -51 -11 -137h-630q0 -206 92 -316t239 -110q136 0 269 57l22 -51q-151 -68 -303 -68q-78 0 -147 31t-123 89.5t-85.5 153.5t-31.5 214zM518 901q-136 0 -222.5 -101t-100.5 -276h569q4 54 4 86
q0 124 -67 207.5t-183 83.5zM598 1200q0 27 17 45.5t44 18.5q25 0 41.5 -15t16.5 -41q0 -25 -17.5 -43t-44.5 -18q-26 0 -41.5 14t-15.5 39zM291 1200q0 27 18 45.5t45 18.5q25 0 40.5 -15t15.5 -41t-17 -43.5t-45 -17.5q-25 0 -41 14.5t-16 38.5z" />
    <glyph glyph-name="igrave" unicode="&#xec;" horiz-adv-x="434" 
d="M184 932l66 4v-936h-66v932zM23 1382l49 43l282 -303l-37 -35l-294 287v8z" />
    <glyph glyph-name="iacute" unicode="&#xed;" horiz-adv-x="434" 
d="M184 932l66 4v-936h-66v932zM119 1122l282 303l50 -43v-8l-295 -287z" />
    <glyph glyph-name="icircumflex" unicode="&#xee;" horiz-adv-x="434" 
d="M184 932l66 4v-936h-66v932zM193 1403l53 8l196 -289l-43 -32l-178 245l-184 -248l-43 33z" />
    <glyph glyph-name="idieresis" unicode="&#xef;" horiz-adv-x="434" 
d="M184 932l66 4v-936h-66v932zM268 1200q0 27 18.5 45.5t45.5 18.5q25 0 41 -15t16 -41q0 -25 -17 -43t-44 -18t-43.5 14.5t-16.5 38.5zM39 1200q0 27 17.5 45.5t43.5 18.5t42 -15t16 -41t-17 -43.5t-45 -17.5q-25 0 -41 14.5t-16 38.5z" />
    <glyph glyph-name="eth" unicode="&#xf0;" horiz-adv-x="1062" 
d="M315 1507l33 47q136 -86 236 -186l221 154l33 -45l-215 -150q292 -320 292 -807q0 -261 -106.5 -405t-282.5 -144q-184 0 -292.5 134.5t-108.5 338.5q0 92 24 177.5t71.5 156.5t127 113.5t180.5 42.5q181 0 297 -162h6q-57 303 -258 522l-249 -172l-33 45l244 168
q-98 95 -220 172zM526 33q146 0 237 126.5t91 321.5v43q-13 157 -109.5 253.5t-228.5 96.5q-111 0 -197 -73q-59 -55 -92.5 -146t-33.5 -202q0 -120 37.5 -213.5t114 -150t181.5 -56.5z" />
    <glyph glyph-name="ntilde" unicode="&#xf1;" horiz-adv-x="1036" 
d="M170 938l57 8l19 -141q183 158 356 158q76 0 127.5 -22t79.5 -66.5t39.5 -101.5t11.5 -138v-635h-65v606q0 155 -41.5 225t-153.5 70q-162 0 -348 -158v-743h-66v600q0 139 -16 338zM635 1167q33 0 68 40t67 108l47 -25q-86 -182 -186 -182q-37 0 -70 24t-54 53t-49 53
t-55 24q-34 0 -67 -38.5t-70 -111.5l-47 25q39 84 87.5 133t101.5 49q31 0 58 -15.5t46.5 -38t38 -45t40 -38t44.5 -15.5z" />
    <glyph glyph-name="ograve" unicode="&#xf2;" horiz-adv-x="1030" 
d="M125 465q0 68 13 136t43.5 134t74.5 116t112 81t150 31q179 0 283 -138t104 -354q0 -69 -13 -137t-43.5 -134.5t-74.5 -116.5t-111 -81t-149 -31q-179 0 -284 138.5t-105 355.5zM838 463q0 193 -85.5 315.5t-240.5 122.5q-119 0 -199 -74q-120 -114 -120 -356
q0 -194 84.5 -316t240.5 -122q124 0 203 76q117 114 117 354zM317 1382l50 43l282 -303l-37 -35l-295 287v8z" />
    <glyph glyph-name="oacute" unicode="&#xf3;" horiz-adv-x="1030" 
d="M125 465q0 68 13 136t43.5 134t74.5 116t112 81t150 31q179 0 283 -138t104 -354q0 -69 -13 -137t-43.5 -134.5t-74.5 -116.5t-111 -81t-149 -31q-179 0 -284 138.5t-105 355.5zM838 463q0 193 -85.5 315.5t-240.5 122.5q-119 0 -199 -74q-120 -114 -120 -356
q0 -194 84.5 -316t240.5 -122q124 0 203 76q117 114 117 354zM414 1122l282 303l49 -43v-8l-294 -287z" />
    <glyph glyph-name="ocircumflex" unicode="&#xf4;" horiz-adv-x="1030" 
d="M125 465q0 68 13 136t43.5 134t74.5 116t112 81t150 31q179 0 283 -138t104 -354q0 -69 -13 -137t-43.5 -134.5t-74.5 -116.5t-111 -81t-149 -31q-179 0 -284 138.5t-105 355.5zM838 463q0 193 -85.5 315.5t-240.5 122.5q-119 0 -199 -74q-120 -114 -120 -356
q0 -194 84.5 -316t240.5 -122q124 0 203 76q117 114 117 354zM485 1403l54 8l227 -291l-41 -35l-211 252l-217 -254l-41 35z" />
    <glyph glyph-name="otilde" unicode="&#xf5;" horiz-adv-x="1030" 
d="M125 465q0 68 13 136t43.5 134t74.5 116t112 81t150 31q179 0 283 -138t104 -354q0 -69 -13 -137t-43.5 -134.5t-74.5 -116.5t-111 -81t-149 -31q-179 0 -284 138.5t-105 355.5zM838 463q0 193 -85.5 315.5t-240.5 122.5q-119 0 -199 -74q-120 -114 -120 -356
q0 -194 84.5 -316t240.5 -122q124 0 203 76q117 114 117 354zM631 1167q33 0 68 40t67 108l47 -25q-86 -182 -186 -182q-37 0 -70 24t-54 53t-49 53t-55 24q-34 0 -67 -38.5t-70 -111.5l-47 25q84 182 188 182q31 0 58 -15.5t46.5 -38t38 -45t40.5 -38t45 -15.5z" />
    <glyph glyph-name="odieresis" unicode="&#xf6;" horiz-adv-x="1030" 
d="M125 465q0 68 13 136t43.5 134t74.5 116t112 81t150 31q179 0 283 -138t104 -354q0 -69 -13 -137t-43.5 -134.5t-74.5 -116.5t-111 -81t-149 -31q-179 0 -284 138.5t-105 355.5zM838 463q0 193 -85.5 315.5t-240.5 122.5q-119 0 -199 -74q-120 -114 -120 -356
q0 -194 84.5 -316t240.5 -122q124 0 203 76q117 114 117 354zM608 1200q0 27 17.5 45.5t44.5 18.5q25 0 41 -15t16 -41q0 -25 -17 -43t-44 -18q-26 0 -42 14t-16 39zM301 1200q0 27 18.5 45.5t45.5 18.5q25 0 40 -15t15 -41t-17 -43.5t-45 -17.5q-25 0 -41 14.5t-16 38.5z
" />
    <glyph glyph-name="divide" unicode="&#xf7;" 
d="M184 543h760v-62h-760v62zM498 197q0 34 19.5 53.5t51.5 19.5q28 0 46 -16t18 -43q0 -34 -19.5 -55t-50.5 -21q-29 0 -47 17t-18 45zM498 811q0 34 19.5 54t51.5 20q29 0 46.5 -16.5t17.5 -43.5q0 -33 -19.5 -53t-50.5 -20q-30 0 -47.5 16t-17.5 43z" />
    <glyph glyph-name="oslash" unicode="&#xf8;" horiz-adv-x="1030" 
d="M125 465q0 68 13 136t43.5 134t74.5 116t112 81t150 31q93 0 166 -39l66 147l53 -24l-68 -156q81 -63 125.5 -173t44.5 -247q0 -69 -13 -137t-43.5 -134.5t-74.5 -116.5t-111 -81t-149 -31q-92 0 -168 39l-63 -141l-54 27l66 147q-81 64 -125.5 174.5t-44.5 247.5z
M193 471q0 -250 129 -367l335 760q-61 37 -145 37q-119 0 -199 -74q-120 -114 -120 -356zM838 463q0 247 -131 366l-336 -759q64 -37 147 -37q124 0 203 76q117 114 117 354z" />
    <glyph glyph-name="ugrave" unicode="&#xf9;" horiz-adv-x="1017" 
d="M174 932l66 4v-617q0 -148 46.5 -217t149.5 -69q149 0 330 188v713h65v-592q0 -103 17 -338l-57 -8l-21 158q-179 -183 -346 -183q-250 0 -250 328v633zM299 1382l49 43l283 -303l-37 -35l-295 287v8z" />
    <glyph glyph-name="uacute" unicode="&#xfa;" horiz-adv-x="1017" 
d="M174 932l66 4v-617q0 -148 46.5 -217t149.5 -69q149 0 330 188v713h65v-592q0 -103 17 -338l-57 -8l-21 158q-179 -183 -346 -183q-250 0 -250 328v633zM395 1122l283 303l49 -43v-8l-295 -287z" />
    <glyph glyph-name="ucircumflex" unicode="&#xfb;" horiz-adv-x="1017" 
d="M174 932l66 4v-617q0 -148 46.5 -217t149.5 -69q149 0 330 188v713h65v-592q0 -103 17 -338l-57 -8l-21 158q-179 -183 -346 -183q-250 0 -250 328v633zM467 1403l53 8l228 -291l-41 -35l-211 252l-217 -254l-41 35z" />
    <glyph glyph-name="udieresis" unicode="&#xfc;" horiz-adv-x="1017" 
d="M174 932l66 4v-617q0 -148 46.5 -217t149.5 -69q149 0 330 188v713h65v-592q0 -103 17 -338l-57 -8l-21 158q-179 -183 -346 -183q-250 0 -250 328v633zM590 1200q0 27 17 45.5t44 18.5q25 0 41.5 -15t16.5 -41q0 -25 -17.5 -43t-44.5 -18q-26 0 -41.5 14t-15.5 39z
M283 1200q0 27 18 45.5t45 18.5q25 0 40 -15t15 -41t-16.5 -43.5t-44.5 -17.5q-25 0 -41 14.5t-16 38.5z" />
    <glyph glyph-name="yacute" unicode="&#xfd;" horiz-adv-x="915" 
d="M782 934h58q0 -23 -15 -66l-389 -1011q-150 -359 -342 -359q-33 0 -49 4v56q119 0 200 101.5t179 344.5l-326 864q-16 46 -16 66h61l263 -701q35 -99 47 -137h8zM362 1122l283 303l49 -43v-8l-295 -287z" />
    <glyph glyph-name="thorn" unicode="&#xfe;" horiz-adv-x="1030" 
d="M494 33q141 0 217 73q63 59 95 156.5t32 210.5q0 117 -30.5 212.5t-95.5 155.5t-155 60q-85 0 -149.5 -38t-157.5 -122v-641q107 -67 244 -67zM184 1534l66 4v-729q77 75 147 114.5t164 39.5q157 0 250.5 -135.5t93.5 -340.5q0 -76 -13 -146.5t-44 -138.5t-78 -118.5
t-120 -81.5t-165 -31q-116 0 -235 64v-527h-66v2026z" />
    <glyph glyph-name="ydieresis" unicode="&#xff;" horiz-adv-x="915" 
d="M782 934h58q0 -23 -15 -66l-389 -1011q-150 -359 -342 -359q-33 0 -49 4v56q119 0 200 101.5t179 344.5l-326 864q-16 46 -16 66h61l263 -701q35 -99 47 -137h8zM557 1200q0 27 17 45.5t44 18.5q25 0 41.5 -15t16.5 -41q0 -25 -17.5 -43t-44.5 -18q-26 0 -41.5 14
t-15.5 39zM250 1200q0 27 18 45.5t45 18.5q25 0 40.5 -15t15.5 -41t-17 -43.5t-45 -17.5q-25 0 -41 14.5t-16 38.5z" />
    <glyph glyph-name="Amacron" unicode="&#x100;" horiz-adv-x="1148" 
d="M575 1270l-270 -764h531l-154 446l-100 318h-7zM539 1368l75 8l473 -1376h-77l-154 444h-571l-158 -444h-76q12 33 35.5 98.5t36.5 98.5zM344 1622h463v-59h-463v59z" />
    <glyph glyph-name="amacron" unicode="&#x101;" horiz-adv-x="925" 
d="M139 805q187 151 365 151q131 0 187.5 -86.5t56.5 -273.5v-254q0 -125 16 -338l-55 -8l-23 145q-172 -164 -354 -164q-103 0 -166.5 61t-63.5 169q0 123 111 203q121 87 469 114v37q0 184 -40.5 259t-139.5 75q-78 0 -164.5 -37t-165.5 -96zM334 37q80 0 171.5 45
t176.5 129v256q-193 -21 -290 -44t-142 -56q-80 -64 -80 -158q0 -81 45.5 -126.5t118.5 -45.5zM242 1208h446v-61h-446v61z" />
    <glyph glyph-name="Abreve" unicode="&#x102;" horiz-adv-x="1148" 
d="M575 1270l-270 -764h531l-154 446l-100 318h-7zM539 1368l75 8l473 -1376h-77l-154 444h-571l-158 -444h-76q12 33 35.5 98.5t36.5 98.5zM823 1735q-28 -97 -94.5 -147t-155.5 -50q-86 0 -149.5 48.5t-93.5 148.5l49 20q31 -84 79 -118.5t117 -34.5q71 0 120.5 35
t80.5 118z" />
    <glyph glyph-name="abreve" unicode="&#x103;" horiz-adv-x="925" 
d="M139 805q187 151 365 151q131 0 187.5 -86.5t56.5 -273.5v-254q0 -125 16 -338l-55 -8l-23 145q-172 -164 -354 -164q-103 0 -166.5 61t-63.5 169q0 123 111 203q121 87 469 114v37q0 184 -40.5 259t-139.5 75q-78 0 -164.5 -37t-165.5 -96zM334 37q80 0 171.5 45
t176.5 129v256q-193 -21 -290 -44t-142 -56q-80 -64 -80 -158q0 -81 45.5 -126.5t118.5 -45.5zM467 1167q162 0 197 191l49 -8q-37 -246 -248 -246q-204 0 -244 246l53 8q33 -191 193 -191z" />
    <glyph glyph-name="Aogonek" unicode="&#x104;" horiz-adv-x="1148" 
d="M539 1368l75 8l473 -1376q-133 -77 -195.5 -149t-62.5 -150q0 -63 36 -98t104 -35q62 0 141 33l18 -56q-91 -39 -165 -39q-90 0 -145.5 54t-55.5 141q0 84 52.5 153.5t158.5 141.5l31 20l-148 428h-573l-158 -444h-74q12 33 35.5 98.5t36.5 98.5zM575 1270l-270 -764h531
l-154 446l-102 318h-5z" />
    <glyph glyph-name="aogonek" unicode="&#x105;" horiz-adv-x="925" 
d="M139 805q187 151 365 151q131 0 187.5 -86.5t56.5 -273.5v-254q0 -142 16 -379q-242 -125 -242 -244q0 -48 34 -79t95 -31q66 0 152 39l20 -56q-91 -45 -176 -45q-81 0 -136.5 47.5t-55.5 120.5q0 144 250 277l-19 147q-173 -162 -354 -162q-103 0 -166.5 61t-63.5 169
q0 123 111 203q121 87 469 114v37q0 184 -40.5 259t-139.5 75q-78 0 -164.5 -37t-165.5 -96zM334 37q80 0 171.5 45t176.5 129v256q-193 -21 -290 -44t-142 -56q-80 -64 -80 -158q0 -81 45.5 -126.5t118.5 -45.5z" />
    <glyph glyph-name="Cacute" unicode="&#x106;" horiz-adv-x="1173" 
d="M133 666q0 113 22 218t68.5 198.5t113.5 162.5t163.5 109.5t212.5 40.5q207 0 352 -111l-31 -53q-87 52 -160 75t-163 23q-204 0 -324 -129q-180 -191 -180 -524q0 -102 17 -193t55.5 -173t96 -141t143.5 -93.5t192 -34.5q100 0 177 22.5t173 69.5l26 -53
q-95 -52 -182 -77.5t-198 -25.5q-146 0 -258.5 55t-180 151.5t-101.5 218.5t-34 264zM539 1587l385 160l26 -64v-6l-393 -141z" />
    <glyph glyph-name="cacute" unicode="&#x107;" horiz-adv-x="882" 
d="M125 453q0 224 109.5 363.5t283.5 139.5q175 0 266 -159l-45 -31q-56 67 -106.5 98t-122.5 31q-102 0 -180 -66q-135 -109 -135 -366q0 -207 88 -315.5t239 -108.5q105 0 242 57l22 -51q-153 -68 -270 -68q-180 0 -285.5 130.5t-105.5 345.5zM406 1122l282 303l49 -43v-8
l-295 -287z" />
    <glyph glyph-name="Ccircumflex" unicode="&#x108;" horiz-adv-x="1173" 
d="M133 666q0 113 22 218t68.5 198.5t113.5 162.5t163.5 109.5t212.5 40.5q207 0 352 -111l-31 -53q-87 52 -160 75t-163 23q-204 0 -324 -129q-180 -191 -180 -524q0 -102 17 -193t55.5 -173t96 -141t143.5 -93.5t192 -34.5q100 0 177 22.5t173 69.5l26 -53
q-95 -52 -182 -77.5t-198 -25.5q-146 0 -258.5 55t-180 151.5t-101.5 218.5t-34 264zM662 1769l53 9l256 -217l-33 -41l-246 192l-246 -192l-34 39z" />
    <glyph glyph-name="ccircumflex" unicode="&#x109;" horiz-adv-x="882" 
d="M125 453q0 224 109.5 363.5t283.5 139.5q175 0 266 -159l-45 -31q-56 67 -106.5 98t-122.5 31q-102 0 -180 -66q-135 -109 -135 -366q0 -207 88 -315.5t239 -108.5q105 0 242 57l22 -51q-153 -68 -270 -68q-180 0 -285.5 130.5t-105.5 345.5zM477 1403l53 8l228 -291
l-41 -35l-211 252l-217 -254l-41 35z" />
    <glyph glyph-name="Cdotaccent" unicode="&#x10a;" horiz-adv-x="1173" 
d="M133 666q0 113 22 218t68.5 198.5t113.5 162.5t163.5 109.5t212.5 40.5q207 0 352 -111l-31 -53q-87 52 -160 75t-163 23q-204 0 -324 -129q-180 -191 -180 -524q0 -102 17 -193t55.5 -173t96 -141t143.5 -93.5t192 -34.5q100 0 177 22.5t173 69.5l26 -53
q-95 -52 -182 -77.5t-198 -25.5q-146 0 -258.5 55t-180 151.5t-101.5 218.5t-34 264zM629 1620q0 31 18 49.5t49 18.5q26 0 43 -17t17 -45q0 -29 -18.5 -47t-47.5 -18q-28 0 -44.5 15.5t-16.5 43.5z" />
    <glyph glyph-name="cdotaccent" unicode="&#x10b;" horiz-adv-x="882" 
d="M125 453q0 224 109.5 363.5t283.5 139.5q175 0 266 -159l-45 -31q-56 67 -106.5 98t-122.5 31q-102 0 -180 -66q-135 -109 -135 -366q0 -207 88 -315.5t239 -108.5q105 0 242 57l22 -51q-153 -68 -270 -68q-180 0 -285.5 130.5t-105.5 345.5zM438 1208q0 32 20 52t52 20
q28 0 44.5 -17t16.5 -46q0 -32 -18 -52t-49 -20q-30 0 -48 17t-18 46z" />
    <glyph glyph-name="Ccaron" unicode="&#x10c;" horiz-adv-x="1173" 
d="M133 666q0 113 22 218t68.5 198.5t113.5 162.5t163.5 109.5t212.5 40.5q207 0 352 -111l-31 -53q-87 52 -160 75t-163 23q-204 0 -324 -129q-180 -191 -180 -524q0 -102 17 -193t55.5 -173t96 -141t143.5 -93.5t192 -34.5q100 0 177 22.5t173 69.5l26 -53
q-95 -52 -182 -77.5t-198 -25.5q-146 0 -258.5 55t-180 151.5t-101.5 218.5t-34 264zM414 1739l32 41l248 -195l244 193l35 -39l-250 -211l-53 -8z" />
    <glyph glyph-name="ccaron" unicode="&#x10d;" horiz-adv-x="882" 
d="M125 453q0 224 109.5 363.5t283.5 139.5q175 0 266 -159l-45 -31q-56 67 -106.5 98t-122.5 31q-102 0 -180 -66q-135 -109 -135 -366q0 -207 88 -315.5t239 -108.5q105 0 242 57l22 -51q-153 -68 -270 -68q-180 0 -285.5 130.5t-105.5 345.5zM479 1094l-227 290l41 35
l211 -252l217 254l43 -35l-232 -284z" />
    <glyph glyph-name="Dcaron" unicode="&#x10e;" horiz-adv-x="1308" 
d="M215 1364q176 31 348 31q280 0 448.5 -186.5t168.5 -495.5q0 -209 -80 -377t-225 -263.5t-328 -95.5q-187 0 -332 29v1358zM555 43q149 0 262 72q138 90 214.5 247.5t74.5 339.5q-2 283 -149.5 455t-403.5 172q-127 0 -270 -20v-1248q105 -18 272 -18zM330 1739l32 41
l248 -195l244 193l35 -39l-250 -211l-53 -8z" />
    <glyph glyph-name="dcaron" unicode="&#x10f;" horiz-adv-x="1032" 
d="M463 33q45 0 87 14t85 45.5t71.5 57t75.5 71.5v613q-114 67 -247 67q-139 0 -216 -74q-124 -116 -124 -366q0 -181 71 -304.5t197 -123.5zM127 446q0 76 12.5 146.5t43.5 139t77.5 119t119.5 81.5t165 31q120 0 237 -66v637l64 4v-1237q0 -84 18 -297l-57 -8l-21 158
q-37 -40 -69 -68.5t-73.5 -57t-88.5 -43t-98 -14.5q-149 0 -239.5 135.5t-90.5 339.5zM997 1534l66 4l6 -6l-22 -404h-50v406z" />
    <glyph glyph-name="Dcroat" unicode="&#x110;" horiz-adv-x="1318" 
d="M225 1364q179 31 348 31q280 0 448.5 -186.5t168.5 -495.5q0 -209 -80 -377t-225 -263.5t-328 -95.5q-187 0 -332 29v662h-174v67h174v629zM565 43q149 0 262 72q138 90 214.5 247.5t74.5 339.5q-2 283 -149.5 455t-403.5 172q-127 0 -270 -20v-574h369v-67h-369v-607
q105 -18 272 -18z" />
    <glyph glyph-name="dcroat" unicode="&#x111;" horiz-adv-x="1040" 
d="M457 33q77 0 159 51t175 139v584q-111 67 -263 67q-130 0 -211 -75q-122 -116 -122 -346q0 -117 29.5 -210.5t90 -151.5t142.5 -58zM127 440q0 91 21.5 174t67 157t128 118.5t193.5 44.5q134 0 254 -66v334h-420v58h420v274l63 4v-278h180v-58h-180v-901q0 -84 18 -297
l-57 -8l-20 162q-191 -187 -344 -187q-146 0 -235 132.5t-89 336.5z" />
    <glyph glyph-name="Emacron" unicode="&#x112;" horiz-adv-x="1064" 
d="M215 1372h725l-2 -61h-655v-578h538v-63h-538v-609h655l2 -61h-725v1372zM346 1622h463v-59h-463v59z" />
    <glyph glyph-name="emacron" unicode="&#x113;" horiz-adv-x="960" 
d="M125 465q0 214 108.5 356t284.5 142q150 0 233 -103.5t83 -257.5q0 -51 -11 -137h-630q0 -206 92 -316t239 -110q136 0 269 57l22 -51q-151 -68 -303 -68q-78 0 -147 31t-123 89.5t-85.5 153.5t-31.5 214zM518 901q-136 0 -222.5 -101t-100.5 -276h569q4 54 4 86
q0 124 -67 207.5t-183 83.5zM281 1208h446v-61h-446v61z" />
    <glyph glyph-name="Ebreve" unicode="&#x114;" horiz-adv-x="1064" 
d="M215 1372h725l-2 -61h-655v-578h538v-63h-538v-609h655l2 -61h-725v1372zM825 1735q-28 -97 -94.5 -147t-155.5 -50q-86 0 -149.5 48.5t-93.5 148.5l49 20q31 -84 79.5 -118.5t117.5 -34.5q70 0 119.5 34.5t80.5 118.5z" />
    <glyph glyph-name="ebreve" unicode="&#x115;" horiz-adv-x="960" 
d="M125 465q0 214 108.5 356t284.5 142q150 0 233 -103.5t83 -257.5q0 -51 -11 -137h-630q0 -206 92 -316t239 -110q136 0 269 57l22 -51q-151 -68 -303 -68q-78 0 -147 31t-123 89.5t-85.5 153.5t-31.5 214zM518 901q-136 0 -222.5 -101t-100.5 -276h569q4 54 4 86
q0 124 -67 207.5t-183 83.5zM506 1167q161 0 196 191l50 -8q-37 -246 -248 -246q-204 0 -244 246l53 8q33 -191 193 -191z" />
    <glyph glyph-name="Edotaccent" unicode="&#x116;" horiz-adv-x="1064" 
d="M215 1372h725l-2 -61h-655v-578h538v-63h-538v-609h655l2 -61h-725v1372zM514 1620q0 31 18.5 49.5t49.5 18.5q26 0 42.5 -17t16.5 -45q0 -29 -18.5 -47t-47.5 -18q-28 0 -44.5 15.5t-16.5 43.5z" />
    <glyph glyph-name="edotaccent" unicode="&#x117;" horiz-adv-x="960" 
d="M125 465q0 214 108.5 356t284.5 142q150 0 233 -103.5t83 -257.5q0 -51 -11 -137h-630q0 -206 92 -316t239 -110q136 0 269 57l22 -51q-151 -68 -303 -68q-78 0 -147 31t-123 89.5t-85.5 153.5t-31.5 214zM518 901q-136 0 -222.5 -101t-100.5 -276h569q4 54 4 86
q0 124 -67 207.5t-183 83.5zM436 1208q0 32 20 52t52 20q28 0 44.5 -17t16.5 -46q0 -32 -18 -52t-49 -20q-30 0 -48 17t-18 46z" />
    <glyph glyph-name="Eogonek" unicode="&#x118;" horiz-adv-x="1064" 
d="M215 1372h725l-2 -61h-655v-578h538v-63h-538v-609h655l2 -61q-136 -80 -197 -150t-61 -149q0 -63 35 -98t104 -35q61 0 140 33l20 -56q-95 -39 -166 -39q-91 0 -146 53.5t-55 141.5q0 89 59 160t171 137v2h-629v1372z" />
    <glyph glyph-name="eogonek" unicode="&#x119;" horiz-adv-x="960" 
d="M125 465q0 214 108.5 356t284.5 142q150 0 233 -103.5t83 -257.5q0 -51 -11 -137h-630q0 -206 92 -316t239 -110q136 0 269 57l22 -51q-81 -46 -131 -80t-91 -71.5t-59 -75.5t-18 -82q0 -61 35.5 -94t99.5 -33q60 0 146 39l22 -56q-98 -45 -176 -45q-87 0 -140.5 50.5
t-53.5 136.5q0 139 176 252q-55 -9 -113 -9q-78 0 -147 31t-123 89.5t-85.5 153.5t-31.5 214zM518 901q-139 0 -225 -99.5t-98 -277.5h569q4 54 4 86q0 124 -67 207.5t-183 83.5z" />
    <glyph glyph-name="Ecaron" unicode="&#x11a;" horiz-adv-x="1064" 
d="M215 1372h725l-2 -61h-655v-578h538v-63h-538v-609h655l2 -61h-725v1372zM299 1739l33 41l248 -195l243 193l35 -39l-250 -211l-53 -8z" />
    <glyph glyph-name="ecaron" unicode="&#x11b;" horiz-adv-x="960" 
d="M125 465q0 214 108.5 356t284.5 142q150 0 233 -103.5t83 -257.5q0 -51 -11 -137h-630q0 -206 92 -316t239 -110q136 0 269 57l22 -51q-151 -68 -303 -68q-78 0 -147 31t-123 89.5t-85.5 153.5t-31.5 214zM518 901q-136 0 -222.5 -101t-100.5 -276h569q4 54 4 86
q0 124 -67 207.5t-183 83.5zM477 1094l-227 290l41 35l211 -252l217 254l43 -35l-232 -284z" />
    <glyph glyph-name="Gcircumflex" unicode="&#x11c;" horiz-adv-x="1236" 
d="M133 657q0 116 21.5 222.5t68.5 201t114 164t165 110t215 40.5q203 0 348 -111l-31 -53q-164 100 -325 100q-201 0 -322 -131q-91 -93 -135.5 -232.5t-44.5 -299.5q0 -100 17 -189t55.5 -170.5t96.5 -140t145 -93t196 -34.5q144 0 301 72v493h-395v62h462v-590
q-91 -49 -178.5 -75t-193.5 -26q-122 0 -220.5 36.5t-164.5 99t-110.5 150t-64.5 185.5t-20 209zM651 1769l54 9l256 -217l-33 -41l-246 192l-246 -192l-35 39z" />
    <glyph glyph-name="gcircumflex" unicode="&#x11d;" horiz-adv-x="946" 
d="M227 166q0 89 68 170q-84 37 -128 113t-44 174q0 48 11.5 94.5t37.5 90t63.5 76.5t94 52.5t123.5 19.5q112 0 194 -51q85 98 227 101l7 -62q-113 -12 -193 -72q96 -90 96 -239q0 -65 -20 -122.5t-58.5 -104t-103 -74t-145.5 -27.5q-59 0 -105 12q-63 -74 -63 -139
q0 -28 11 -46.5t27 -28.5t47.5 -15.5t58.5 -6.5t75 -1q81 0 143.5 -12t114.5 -39.5t80 -79t28 -125.5q0 -109 -63.5 -189t-159.5 -117.5t-207 -37.5q-165 0 -268.5 77t-103.5 207q0 192 188 310q-33 33 -33 92zM455 -461q76 0 150.5 22t125.5 70q80 74 80 187q0 50 -16.5 86
t-44.5 58t-72 34.5t-91 17t-110 4.5q-109 0 -166 23q-86 -54 -130 -117.5t-44 -150.5q0 -112 84 -173t234 -61zM719 623q0 126 -69 200t-197 74q-120 0 -192.5 -70.5t-72.5 -193.5q0 -121 67 -194.5t200 -73.5q119 0 191.5 67t72.5 191zM424 1403l53 8l228 -291l-41 -35
l-211 252l-217 -254l-41 35z" />
    <glyph glyph-name="Gbreve" unicode="&#x11e;" horiz-adv-x="1236" 
d="M133 657q0 116 21.5 222.5t68.5 201t114 164t165 110t215 40.5q203 0 348 -111l-31 -53q-164 100 -325 100q-201 0 -322 -131q-91 -93 -135.5 -232.5t-44.5 -299.5q0 -100 17 -189t55.5 -170.5t96.5 -140t145 -93t196 -34.5q144 0 301 72v493h-395v62h462v-590
q-91 -49 -178.5 -75t-193.5 -26q-122 0 -220.5 36.5t-164.5 99t-110.5 150t-64.5 185.5t-20 209zM930 1735q-28 -97 -94.5 -147t-155.5 -50q-86 0 -150 48.5t-94 148.5l49 20q31 -84 79.5 -118.5t117.5 -34.5q71 0 120.5 35t80.5 118z" />
    <glyph glyph-name="gbreve" unicode="&#x11f;" horiz-adv-x="946" 
d="M227 166q0 89 68 170q-84 37 -128 113t-44 174q0 48 11.5 94.5t37.5 90t63.5 76.5t94 52.5t123.5 19.5q112 0 194 -51q85 98 227 101l7 -62q-113 -12 -193 -72q96 -90 96 -239q0 -65 -20 -122.5t-58.5 -104t-103 -74t-145.5 -27.5q-59 0 -105 12q-63 -74 -63 -139
q0 -28 11 -46.5t27 -28.5t47.5 -15.5t58.5 -6.5t75 -1q81 0 143.5 -12t114.5 -39.5t80 -79t28 -125.5q0 -109 -63.5 -189t-159.5 -117.5t-207 -37.5q-165 0 -268.5 77t-103.5 207q0 192 188 310q-33 33 -33 92zM455 -461q76 0 150.5 22t125.5 70q80 74 80 187q0 50 -16.5 86
t-44.5 58t-72 34.5t-91 17t-110 4.5q-109 0 -166 23q-86 -54 -130 -117.5t-44 -150.5q0 -112 84 -173t234 -61zM719 623q0 126 -69 200t-197 74q-120 0 -192.5 -70.5t-72.5 -193.5q0 -121 67 -194.5t200 -73.5q119 0 191.5 67t72.5 191zM455 1167q161 0 196 191l49 -8
q-37 -246 -247 -246q-204 0 -244 246l53 8q33 -191 193 -191z" />
    <glyph glyph-name="Gdotaccent" unicode="&#x120;" horiz-adv-x="1236" 
d="M133 657q0 116 21.5 222.5t68.5 201t114 164t165 110t215 40.5q203 0 348 -111l-31 -53q-164 100 -325 100q-201 0 -322 -131q-91 -93 -135.5 -232.5t-44.5 -299.5q0 -100 17 -189t55.5 -170.5t96.5 -140t145 -93t196 -34.5q144 0 301 72v493h-395v62h462v-590
q-91 -49 -178.5 -75t-193.5 -26q-122 0 -220.5 36.5t-164.5 99t-110.5 150t-64.5 185.5t-20 209zM618 1620q0 31 18.5 49.5t49.5 18.5q26 0 42.5 -17t16.5 -45q0 -29 -18 -47t-47 -18q-28 0 -45 16t-17 43z" />
    <glyph glyph-name="gdotaccent" unicode="&#x121;" horiz-adv-x="946" 
d="M227 166q0 89 68 170q-84 37 -128 113t-44 174q0 48 11.5 94.5t37.5 90t63.5 76.5t94 52.5t123.5 19.5q112 0 194 -51q85 98 227 101l7 -62q-113 -12 -193 -72q96 -90 96 -239q0 -65 -20 -122.5t-58.5 -104t-103 -74t-145.5 -27.5q-59 0 -105 12q-63 -74 -63 -139
q0 -28 11 -46.5t27 -28.5t47.5 -15.5t58.5 -6.5t75 -1q81 0 143.5 -12t114.5 -39.5t80 -79t28 -125.5q0 -109 -63.5 -189t-159.5 -117.5t-207 -37.5q-165 0 -268.5 77t-103.5 207q0 192 188 310q-33 33 -33 92zM455 -461q76 0 150.5 22t125.5 70q80 74 80 187q0 50 -16.5 86
t-44.5 58t-72 34.5t-91 17t-110 4.5q-109 0 -166 23q-86 -54 -130 -117.5t-44 -150.5q0 -112 84 -173t234 -61zM719 623q0 126 -69 200t-197 74q-120 0 -192.5 -70.5t-72.5 -193.5q0 -121 67 -194.5t200 -73.5q119 0 191.5 67t72.5 191zM385 1208q0 32 20 52t52 20
q28 0 44.5 -17t16.5 -46q0 -32 -18 -52t-49 -20q-30 0 -48 17t-18 46z" />
    <glyph glyph-name="uni0122" unicode="&#x122;" horiz-adv-x="1236" 
d="M133 657q0 116 21.5 222.5t68.5 201t114 164t165 110t215 40.5q203 0 348 -111l-31 -53q-164 100 -325 100q-201 0 -322 -131q-91 -93 -135.5 -232.5t-44.5 -299.5q0 -100 17 -189t55.5 -170.5t96.5 -140t145 -93t196 -34.5q144 0 301 72v493h-395v62h462v-590
q-91 -49 -178.5 -75t-193.5 -26q-122 0 -220.5 36.5t-164.5 99t-110.5 150t-64.5 185.5t-20 209zM668 -147l61 10q10 -68 10 -111q0 -148 -69 -260l-47 29q51 105 51 221q0 46 -6 111z" />
    <glyph glyph-name="uni0123" unicode="&#x123;" horiz-adv-x="946" 
d="M227 166q0 89 68 170q-84 37 -128 113t-44 174q0 48 11.5 94.5t37.5 90t63.5 76.5t94 52.5t123.5 19.5q112 0 194 -51q85 98 227 101l7 -62q-113 -12 -193 -72q96 -90 96 -239q0 -65 -20 -122.5t-58.5 -104t-103 -74t-145.5 -27.5q-59 0 -105 12q-63 -74 -63 -139
q0 -28 11 -46.5t27 -28.5t47.5 -15.5t58.5 -6.5t75 -1q81 0 143.5 -12t114.5 -39.5t80 -79t28 -125.5q0 -109 -63.5 -189t-159.5 -117.5t-207 -37.5q-165 0 -268.5 77t-103.5 207q0 192 188 310q-33 33 -33 92zM455 -461q76 0 150.5 22t125.5 70q80 74 80 187q0 50 -16.5 86
t-44.5 58t-72 34.5t-91 17t-110 4.5q-109 0 -166 23q-86 -54 -130 -117.5t-44 -150.5q0 -112 84 -173t234 -61zM719 623q0 126 -69 200t-197 74q-120 0 -192.5 -70.5t-72.5 -193.5q0 -121 67 -194.5t200 -73.5q119 0 191.5 67t72.5 191zM424 1223q0 68 18.5 137t51.5 119
l47 -29q-52 -107 -52 -219q0 -41 7 -113l-60 -8q-12 52 -12 113z" />
    <glyph glyph-name="Hcircumflex" unicode="&#x124;" horiz-adv-x="1312" 
d="M1030 1372h70v-1372h-70v670h-747v-670h-68v1372h68v-639h747v639zM627 1769l53 9l256 -217l-33 -41l-246 192l-245 -192l-35 39z" />
    <glyph glyph-name="hcircumflex" unicode="&#x125;" horiz-adv-x="1032" 
d="M184 1534l66 4v-704q175 129 350 129q143 0 200.5 -82.5t57.5 -245.5v-635h-65v598q0 162 -41 232.5t-156 70.5q-174 0 -346 -133v-768h-66v1534zM229 1933l54 9l256 -218l-33 -41l-246 193l-246 -193l-34 39z" />
    <glyph glyph-name="Hbar" unicode="&#x126;" horiz-adv-x="1331" 
d="M1038 1372h70v-276h162v-68h-162v-1028h-70v649h-747v-649h-68v1028h-162v68h162v276h68v-276h747v276zM1038 713v315h-747v-315h747z" />
    <glyph glyph-name="hbar" unicode="&#x127;" horiz-adv-x="1050" 
d="M184 1534l66 4v-278h430v-58h-430v-409q182 141 366 141q144 0 201 -82t57 -244v-608h-65v569q0 164 -41 234.5t-156 70.5q-182 0 -362 -149v-725h-66v1202h-178v58h178v274z" />
    <glyph glyph-name="Itilde" unicode="&#x128;" horiz-adv-x="497" 
d="M215 1372h68v-1372h-68v1372zM365 1575q34 0 71.5 41t69.5 108l49 -28q-90 -180 -193 -180q-31 0 -58 15.5t-47 38t-39 44.5t-40 37.5t-43 15.5q-62 0 -141 -147l-49 26q93 180 196 180q31 0 58.5 -15.5t47 -38t37.5 -44.5t38.5 -37.5t42.5 -15.5z" />
    <glyph glyph-name="itilde" unicode="&#x129;" horiz-adv-x="434" 
d="M184 932l66 4v-936h-66v932zM303 1167q52 0 109 148l49 -21q-77 -186 -160 -186q-28 0 -53.5 24t-40.5 53t-34.5 53t-37.5 24q-27 0 -52 -37.5t-56 -112.5l-47 23q73 184 159 184q28 0 53.5 -23.5t40.5 -52.5t34 -52.5t36 -23.5z" />
    <glyph glyph-name="Imacron" unicode="&#x12a;" horiz-adv-x="497" 
d="M215 1372h68v-1372h-68v1372zM18 1622h463v-59h-463v59z" />
    <glyph glyph-name="imacron" unicode="&#x12b;" horiz-adv-x="434" 
d="M184 932l66 4v-936h-66v932zM39 1208h360v-61h-360v61z" />
    <glyph glyph-name="Ibreve" unicode="&#x12c;" horiz-adv-x="497" 
d="M215 1372h68v-1372h-68v1372zM498 1735q-28 -97 -94.5 -147t-155.5 -50q-86 0 -150 48.5t-94 148.5l49 20q31 -84 79.5 -118.5t117.5 -34.5q71 0 120.5 35t80.5 118z" />
    <glyph glyph-name="ibreve" unicode="&#x12d;" horiz-adv-x="434" 
d="M184 932l66 4v-936h-66v932zM223 1167q138 0 168 211l51 -10q-38 -264 -223 -264q-88 0 -143 66.5t-72 197.5l51 10q30 -211 168 -211z" />
    <glyph glyph-name="Iogonek" unicode="&#x12e;" horiz-adv-x="497" 
d="M215 1372h68v-1374q-93 -83 -136 -149.5t-43 -137.5q0 -143 146 -143q70 0 168 41l18 -55q-105 -48 -192 -48q-90 0 -148.5 54.5t-58.5 144.5q0 77 46.5 148.5t131.5 156.5v1362z" />
    <glyph glyph-name="iogonek" unicode="&#x12f;" horiz-adv-x="434" 
d="M184 932l66 4v-940q-92 -68 -132 -126.5t-40 -127.5q0 -65 34.5 -99t96.5 -34q65 0 151 39l21 -56q-91 -45 -178 -45q-81 0 -137 52.5t-56 138.5q0 80 43.5 147t130.5 131v916zM152 1208q0 32 19.5 52t51.5 20q28 0 45 -17t17 -46q0 -32 -18.5 -52t-49.5 -20
q-29 0 -47 17t-18 46z" />
    <glyph glyph-name="Idotaccent" unicode="&#x130;" horiz-adv-x="497" 
d="M215 1372h68v-1372h-68v1372zM186 1620q0 31 18.5 49.5t49.5 18.5q26 0 42.5 -17t16.5 -45q0 -29 -18 -47t-47 -18q-28 0 -45 16t-17 43z" />
    <glyph glyph-name="dotlessi" unicode="&#x131;" horiz-adv-x="434" 
d="M184 932l66 4v-936h-66v932z" />
    <glyph glyph-name="IJ" unicode="&#x132;" horiz-adv-x="1007" 
d="M215 1372h68v-1372h-68v1372zM725 1372h68v-1296q0 -102 -8 -177t-30 -143t-59.5 -111.5t-98 -72t-144.5 -35.5l-13 57q72 11 122 36t82 63t50 101t24.5 136.5t6.5 182.5v1259z" />
    <glyph glyph-name="ij" unicode="&#x133;" horiz-adv-x="866" 
d="M184 932l66 4v-936h-66v932zM152 1208q0 32 19.5 52t51.5 20q28 0 45 -17t17 -46q0 -32 -18.5 -52t-49.5 -20q-29 0 -47 17t-18 46zM618 932l66 4v-897q0 -183 -56.5 -299t-170.5 -221l-39 41q99 104 149.5 214t50.5 269v889zM580 1208q0 32 19.5 52t51.5 20q28 0 45 -17
t17 -46q0 -32 -18.5 -52t-49.5 -20q-29 0 -47 17t-18 46z" />
    <glyph glyph-name="Jcircumflex" unicode="&#x134;" horiz-adv-x="509" 
d="M227 1372h68v-1296q0 -102 -8 -177t-30 -143t-59.5 -111.5t-98 -72t-144.5 -35.5l-12 57q72 11 121.5 36t82 63t50 101t24 136.5t6.5 182.5v1259zM231 1769l54 9l256 -217l-33 -41l-246 192l-246 -192l-34 39z" />
    <glyph glyph-name="jcircumflex" unicode="&#x135;" horiz-adv-x="434" 
d="M184 932l66 4v-897q0 -183 -56.5 -299t-170.5 -221l-39 41q99 104 149.5 214t50.5 269v889zM186 1403l54 8l196 -289l-43 -32l-178 245l-184 -248l-43 33z" />
    <glyph glyph-name="uni0136" unicode="&#x136;" horiz-adv-x="1116" 
d="M967 1372h90q-5 -6 -21.5 -24.5t-23.5 -26.5l-492 -520l447 -670q57 -84 86 -131h-88l-498 748l-184 -197v-551h-68v1372h68v-723h4zM592 -147l61 10q11 -75 11 -111q0 -146 -70 -260l-47 29q51 105 51 221q0 46 -6 111z" />
    <glyph glyph-name="uni0137" unicode="&#x137;" horiz-adv-x="927" 
d="M772 934h72q-6 -16 -37 -51l-348 -369l368 -453q36 -40 41 -61h-71l-379 469l-168 -178v-291h-66v1534l66 4v-1161zM498 -147l61 10q10 -51 10 -111q0 -146 -67 -260l-49 29q53 103 53 221q0 25 -8 111z" />
    <glyph glyph-name="kgreenlandic" unicode="&#x138;" horiz-adv-x="927" 
d="M772 934h72q-6 -16 -37 -51l-348 -369l368 -453q36 -40 41 -61h-71l-379 469l-168 -178v-291h-66v932l66 4v-559l149 164z" />
    <glyph glyph-name="Lacute" unicode="&#x139;" horiz-adv-x="980" 
d="M215 1372h68v-1311h643l2 -61h-713v1372zM92 1587l385 160l27 -64v-6l-393 -141z" />
    <glyph glyph-name="lacute" unicode="&#x13a;" horiz-adv-x="458" 
d="M184 1534l66 4v-1399q0 -100 61 -100q38 0 82 16l17 -53q-66 -25 -113 -25q-54 0 -83.5 35.5t-29.5 104.5v1417zM66 1751l385 160l26 -64v-6l-393 -141z" />
    <glyph glyph-name="uni013B" unicode="&#x13b;" horiz-adv-x="980" 
d="M215 1372h68v-1311h643l2 -61h-713v1372zM561 -147l62 10q10 -68 10 -111q0 -146 -70 -260l-47 29q51 105 51 221q0 46 -6 111z" />
    <glyph glyph-name="uni013C" unicode="&#x13c;" horiz-adv-x="458" 
d="M184 1534l66 4v-1399q0 -100 61 -100q38 0 82 16l17 -53q-66 -25 -113 -25q-54 0 -83.5 35.5t-29.5 104.5v1417zM283 -147l61 10q10 -51 10 -111q0 -146 -67 -260l-49 29q53 103 53 221q0 25 -8 111z" />
    <glyph glyph-name="Lcaron" unicode="&#x13d;" horiz-adv-x="968" 
d="M215 1372h68v-1311h643l2 -61h-713v1372zM500 1409l65 4l6 -6l-22 -403h-49v405z" />
    <glyph glyph-name="lcaron" unicode="&#x13e;" horiz-adv-x="458" 
d="M184 1534l66 4v-1399q0 -100 61 -100q38 0 82 16l17 -53q-66 -25 -113 -25q-54 0 -83.5 35.5t-29.5 104.5v1417zM401 1534l66 4l6 -6l-22 -404h-50v406z" />
    <glyph glyph-name="Ldot" unicode="&#x13f;" horiz-adv-x="1021" 
d="M215 1372h68v-1311h643l2 -61h-713v1372zM737 727q0 31 18 51.5t48 20.5q27 0 44 -19t17 -47q0 -33 -16.5 -52t-46.5 -19t-47 18t-17 47z" />
    <glyph glyph-name="ldot" unicode="&#x140;" horiz-adv-x="583" 
d="M184 1534l66 4v-1399q0 -100 61 -100q38 0 82 16l17 -53q-66 -25 -113 -25q-54 0 -83.5 35.5t-29.5 104.5v1417zM432 727q0 32 18 52t50 20q27 0 44 -19t17 -47q0 -33 -16.5 -52t-46.5 -19q-31 0 -48.5 18t-17.5 47z" />
    <glyph glyph-name="Lslash" unicode="&#x141;" horiz-adv-x="1005" 
d="M20 506l218 143v723h67v-678l391 260l39 -55l-430 -285v-553h643l2 -61h-712v569l-181 -118z" />
    <glyph glyph-name="lslash" unicode="&#x142;" horiz-adv-x="550" 
d="M242 1534l65 4v-674l201 135l35 -47v-4l-236 -157v-652q0 -100 64 -100q39 0 80 16l16 -53q-63 -25 -111 -25q-54 0 -84 35.5t-30 104.5v631l-162 -109l-31 47v6l193 129v713z" />
    <glyph glyph-name="Nacute" unicode="&#x143;" horiz-adv-x="1351" 
d="M215 1372h80l698 -1139l78 -137h2l-6 164v1112h70v-1372h-86l-695 1137l-75 139h-5l7 -141v-1135h-68v1372zM541 1587l385 160l26 -64v-6l-393 -141z" />
    <glyph glyph-name="nacute" unicode="&#x144;" horiz-adv-x="1036" 
d="M170 938l57 8l19 -141q183 158 356 158q76 0 127.5 -22t79.5 -66.5t39.5 -101.5t11.5 -138v-635h-65v606q0 155 -41.5 225t-153.5 70q-162 0 -348 -158v-743h-66v600q0 139 -16 338zM418 1122l282 303l50 -43v-8l-295 -287z" />
    <glyph glyph-name="uni0145" unicode="&#x145;" horiz-adv-x="1351" 
d="M215 1372h80l698 -1139l78 -137h2l-6 164v1112h70v-1372h-86l-695 1137l-75 139h-5l7 -141v-1135h-68v1372zM647 -147l62 10q10 -68 10 -111q0 -146 -70 -260l-47 29q51 105 51 221q0 46 -6 111z" />
    <glyph glyph-name="uni0146" unicode="&#x146;" horiz-adv-x="1036" 
d="M170 938l57 8l19 -141q183 158 356 158q76 0 127.5 -22t79.5 -66.5t39.5 -101.5t11.5 -138v-635h-65v606q0 155 -41.5 225t-153.5 70q-162 0 -348 -158v-743h-66v600q0 139 -16 338zM504 -147l61 10q10 -51 10 -111q0 -146 -67 -260l-49 29q53 103 53 221q0 25 -8 111z
" />
    <glyph glyph-name="Ncaron" unicode="&#x147;" horiz-adv-x="1351" 
d="M215 1372h80l698 -1139l78 -137h2l-6 164v1112h70v-1372h-86l-695 1137l-75 139h-5l7 -141v-1135h-68v1372zM416 1739l33 41l247 -195l244 193l35 -39l-250 -211l-53 -8z" />
    <glyph glyph-name="ncaron" unicode="&#x148;" horiz-adv-x="1036" 
d="M170 938l57 8l19 -141q183 158 356 158q76 0 127.5 -22t79.5 -66.5t39.5 -101.5t11.5 -138v-635h-65v606q0 155 -41.5 225t-153.5 70q-162 0 -348 -158v-743h-66v600q0 139 -16 338zM492 1094l-228 290l41 35l211 -252l217 254l43 -35l-231 -284z" />
    <glyph glyph-name="napostrophe" unicode="&#x149;" horiz-adv-x="1036" 
d="M170 938l57 8l19 -141q183 158 356 158q76 0 127.5 -22t79.5 -66.5t39.5 -101.5t11.5 -138v-635h-65v606q0 155 -41.5 225t-153.5 70q-162 0 -348 -158v-743h-66v600q0 139 -16 338zM221 1444l62 10q16 -66 16 -123q0 -151 -121 -256l-33 33q88 91 88 213q0 61 -12 123z
" />
    <glyph glyph-name="Eng" unicode="&#x14a;" horiz-adv-x="1351" 
d="M215 1372h80l692 -1139l78 -133h2v1272h70v-1444q0 -44 -1.5 -80.5t-8 -84.5t-17.5 -85.5t-31 -76t-47 -64t-68 -41.5t-92 -16q-123 0 -217 49l27 57q92 -45 180 -45q41 0 73 12t53.5 31t37 50t23.5 60.5t13 72.5t6 76.5t1 80.5v39l-22 37l-691 1137l-75 139h-5l7 -141
v-1135h-68v1372z" />
    <glyph glyph-name="eng" unicode="&#x14b;" horiz-adv-x="1036" 
d="M170 938l57 8l19 -141q183 158 356 158q76 0 127.5 -22t79.5 -66.5t39.5 -101.5t11.5 -138v-711q0 -51 -1 -86.5t-6.5 -86t-16 -85t-29.5 -72.5t-46 -61t-68 -38t-93 -15q-120 0 -219 51l25 55q95 -45 188 -45q33 0 60 7t46.5 17.5t35 31t25 37t16.5 48t10.5 52t5.5 59.5
t2 61v66v686q0 155 -41.5 225t-153.5 70q-162 0 -348 -158v-743h-66v600q0 114 -6 209z" />
    <glyph glyph-name="Omacron" unicode="&#x14c;" horiz-adv-x="1374" 
d="M131 670q0 104 19 205t62.5 197t106 168.5t157.5 116.5t210 44q128 0 234 -55t176 -149.5t108.5 -222t38.5 -272.5q0 -104 -19 -205t-62 -197t-105.5 -168.5t-157 -116.5t-209.5 -44q-129 0 -235.5 55t-176.5 149.5t-108.5 222t-38.5 272.5zM1169 686q0 137 -32.5 255.5
t-93 206t-152 137.5t-203.5 50q-152 0 -264 -90q-114 -88 -165.5 -238.5t-51.5 -320.5q0 -137 32.5 -255.5t93 -206t152 -137.5t203.5 -50q150 0 266 90q77 60 127 157t69 195.5t19 206.5zM455 1622h463v-59h-463v59z" />
    <glyph glyph-name="omacron" unicode="&#x14d;" horiz-adv-x="1030" 
d="M125 465q0 68 13 136t43.5 134t74.5 116t112 81t150 31q179 0 283 -138t104 -354q0 -69 -13 -137t-43.5 -134.5t-74.5 -116.5t-111 -81t-149 -31q-179 0 -284 138.5t-105 355.5zM838 463q0 193 -85.5 315.5t-240.5 122.5q-119 0 -199 -74q-120 -114 -120 -356
q0 -194 84.5 -316t240.5 -122q124 0 203 76q117 114 117 354zM291 1208h446v-61h-446v61z" />
    <glyph glyph-name="Obreve" unicode="&#x14e;" horiz-adv-x="1374" 
d="M131 670q0 104 19 205t62.5 197t106 168.5t157.5 116.5t210 44q128 0 234 -55t176 -149.5t108.5 -222t38.5 -272.5q0 -104 -19 -205t-62 -197t-105.5 -168.5t-157 -116.5t-209.5 -44q-129 0 -235.5 55t-176.5 149.5t-108.5 222t-38.5 272.5zM1169 686q0 137 -32.5 255.5
t-93 206t-152 137.5t-203.5 50q-152 0 -264 -90q-114 -88 -165.5 -238.5t-51.5 -320.5q0 -137 32.5 -255.5t93 -206t152 -137.5t203.5 -50q150 0 266 90q77 60 127 157t69 195.5t19 206.5zM934 1735q-28 -97 -94.5 -147t-155.5 -50q-86 0 -150 48.5t-94 148.5l49 20
q31 -84 79.5 -118.5t117.5 -34.5q71 0 120.5 35t80.5 118z" />
    <glyph glyph-name="obreve" unicode="&#x14f;" horiz-adv-x="1030" 
d="M125 465q0 68 13 136t43.5 134t74.5 116t112 81t150 31q179 0 283 -138t104 -354q0 -69 -13 -137t-43.5 -134.5t-74.5 -116.5t-111 -81t-149 -31q-179 0 -284 138.5t-105 355.5zM838 463q0 193 -85.5 315.5t-240.5 122.5q-119 0 -199 -74q-120 -114 -120 -356
q0 -194 84.5 -316t240.5 -122q124 0 203 76q117 114 117 354zM516 1167q162 0 197 191l49 -8q-37 -246 -248 -246q-204 0 -244 246l54 8q33 -191 192 -191z" />
    <glyph glyph-name="Ohungarumlaut" unicode="&#x150;" horiz-adv-x="1374" 
d="M131 670q0 104 19 205t62.5 197t106 168.5t157.5 116.5t210 44q128 0 234 -55t176 -149.5t108.5 -222t38.5 -272.5q0 -104 -19 -205t-62 -197t-105.5 -168.5t-157 -116.5t-209.5 -44q-129 0 -235.5 55t-176.5 149.5t-108.5 222t-38.5 272.5zM1169 686q0 137 -32.5 255.5
t-93 206t-152 137.5t-203.5 50q-152 0 -264 -90q-114 -88 -165.5 -238.5t-51.5 -320.5q0 -137 32.5 -255.5t93 -206t152 -137.5t203.5 -50q150 0 266 90q77 60 127 157t69 195.5t19 206.5zM477 1565l232 250l49 -43v-9l-244 -233zM758 1565l231 250l49 -41v-11l-241 -233z
" />
    <glyph glyph-name="ohungarumlaut" unicode="&#x151;" horiz-adv-x="1030" 
d="M125 465q0 68 13 136t43.5 134t74.5 116t112 81t150 31q179 0 283 -138t104 -354q0 -69 -13 -137t-43.5 -134.5t-74.5 -116.5t-111 -81t-149 -31q-179 0 -284 138.5t-105 355.5zM838 463q0 193 -85.5 315.5t-240.5 122.5q-119 0 -199 -74q-120 -114 -120 -356
q0 -194 84.5 -316t240.5 -122q124 0 203 76q117 114 117 354zM336 1110l153 313l60 -28v-9l-168 -299zM592 1110l153 313l58 -28v-9l-168 -299z" />
    <glyph glyph-name="OE" unicode="&#x152;" horiz-adv-x="1792" 
d="M690 43q149 0 252 25v1239q-105 22 -256 22q-81 0 -153 -28t-113 -62q-108 -86 -160.5 -237t-52.5 -310q0 -183 55 -328.5t166 -233t262 -87.5zM131 684q0 96 19 192.5t62 191t106 166.5t158.5 116.5t211.5 44.5q132 0 260 -23h719l-2 -61h-655v-578h538v-63h-538v-609
h655l2 -61h-725v2q-116 -25 -256 -25q-169 0 -297 95t-193 254t-65 358z" />
    <glyph glyph-name="oe" unicode="&#x153;" horiz-adv-x="1597" 
d="M125 467q0 67 14 135.5t44.5 133.5t73.5 115.5t106 81t137 30.5q127 0 213 -79.5t121 -215.5q39 135 127 215t210 80q96 0 165 -50t101.5 -130.5t32.5 -180.5q0 -59 -10 -137h-596q1 -207 88.5 -316.5t225.5 -109.5q127 0 252 57l24 -51q-148 -68 -291 -68
q-117 0 -206 73.5t-126 215.5q-37 -131 -120 -213t-215 -82q-170 0 -270.5 139.5t-100.5 356.5zM803 463q0 193 -81.5 315.5t-227.5 122.5q-114 0 -187 -78q-60 -69 -87 -148.5t-27 -203.5q0 -126 34 -223.5t104.5 -156t170.5 -58.5q62 0 110 24t70 49q62 70 91.5 152
t29.5 205zM1169 901q-128 0 -209.5 -99t-93.5 -278h535q2 27 2 86q0 124 -62 207.5t-172 83.5z" />
    <glyph glyph-name="Racute" unicode="&#x154;" horiz-adv-x="1118" 
d="M463 676q149 0 256 45q87 34 137.5 110.5t50.5 180.5q0 317 -424 317q-80 0 -200 -20v-625q122 -8 180 -8zM215 1364q172 31 281 31q234 0 359.5 -95t125.5 -280q0 -139 -79 -240t-230 -143l274 -520q7 -14 27.5 -54.5t30.5 -62.5h-80l-324 623q-70 -13 -143 -13
q-62 0 -174 11v-621h-68v1364zM395 1587l385 160l27 -64v-6l-393 -141z" />
    <glyph glyph-name="racute" unicode="&#x155;" horiz-adv-x="675" 
d="M170 938l57 8l21 -196q105 206 272 206q69 0 121 -32l-20 -52q-50 17 -107 17q-73 0 -142.5 -61.5t-119.5 -174.5v-653h-66v600q0 130 -16 338zM322 1122l282 303l49 -43v-8l-295 -287z" />
    <glyph glyph-name="uni0156" unicode="&#x156;" horiz-adv-x="1118" 
d="M463 676q149 0 256 45q87 34 137.5 110.5t50.5 180.5q0 317 -424 317q-80 0 -200 -20v-625q122 -8 180 -8zM215 1364q172 31 281 31q234 0 359.5 -95t125.5 -280q0 -139 -79 -240t-230 -143l274 -520q7 -14 27.5 -54.5t30.5 -62.5h-80l-324 623q-70 -13 -143 -13
q-62 0 -174 11v-621h-68v1364zM547 -147l61 10q10 -68 10 -111q0 -148 -69 -260l-47 29q51 105 51 221q0 46 -6 111z" />
    <glyph glyph-name="uni0157" unicode="&#x157;" horiz-adv-x="675" 
d="M170 938l57 8l21 -196q105 206 272 206q69 0 121 -32l-20 -52q-50 17 -107 17q-73 0 -142.5 -61.5t-119.5 -174.5v-653h-66v600q0 130 -16 338zM207 -147l61 10q11 -56 11 -111q0 -144 -68 -260l-49 29q53 103 53 221q0 25 -8 111z" />
    <glyph glyph-name="Rcaron" unicode="&#x158;" horiz-adv-x="1118" 
d="M463 676q149 0 256 45q87 34 137.5 110.5t50.5 180.5q0 317 -424 317q-80 0 -200 -20v-625q122 -8 180 -8zM215 1364q172 31 281 31q234 0 359.5 -95t125.5 -280q0 -139 -79 -240t-230 -143l274 -520q7 -14 27.5 -54.5t30.5 -62.5h-80l-324 623q-70 -13 -143 -13
q-62 0 -174 11v-621h-68v1364zM270 1739l33 41l248 -195l244 193l34 -39l-249 -211l-54 -8z" />
    <glyph glyph-name="rcaron" unicode="&#x159;" horiz-adv-x="675" 
d="M170 938l57 8l21 -196q105 206 272 206q69 0 121 -32l-20 -52q-50 17 -107 17q-73 0 -142.5 -61.5t-119.5 -174.5v-653h-66v600q0 130 -16 338zM395 1094l-227 290l41 35l211 -252l217 254l43 -35l-231 -284z" />
    <glyph glyph-name="Sacute" unicode="&#x15a;" horiz-adv-x="1073" 
d="M154 1036q0 77 26.5 140t70 104t102 69t120 40t127.5 12q79 0 164 -19.5t149 -50.5l-26 -59q-143 61 -303 61q-63 0 -122.5 -14.5t-115 -45.5t-89.5 -89t-34 -135q0 -55 20 -100.5t48.5 -76.5t78.5 -59.5t90.5 -45.5t104.5 -40q155 -55 217 -90q166 -95 178 -263
q1 -14 1 -28q0 -95 -38.5 -169t-103 -118t-142.5 -66t-165 -22q-106 0 -221 37.5t-187 97.5l35 56q176 -123 385 -123q51 0 101 10t98 33t84.5 56.5t59 85t22.5 114.5q0 150 -143 237q-64 39 -219 95l-17 6q-45 17 -76 29.5t-71.5 32.5t-68 39t-56 46.5t-45.5 57.5t-28 70
t-11 85zM401 1587l385 160l27 -64v-6l-393 -141z" />
    <glyph glyph-name="sacute" unicode="&#x15b;" horiz-adv-x="831" 
d="M143 717q0 109 82 174t201 65q73 0 144 -24t118 -62l-33 -45q-111 72 -225 72q-97 0 -158 -46t-61 -128q0 -35 14 -65.5t32.5 -50t52 -39t57.5 -30t65 -26.5q40 -15 62 -23.5t57 -24.5t55 -29.5t44.5 -35t37.5 -43.5t22 -52t9 -64q0 -119 -89 -191t-229 -72
q-154 0 -299 107l35 47q133 -94 264 -94q110 0 180 52.5t70 143.5q0 20 -4.5 38.5t-9.5 33t-18.5 29t-21.5 24t-28.5 22t-30 19t-35.5 18t-36 15.5t-39.5 15.5t-38.5 15.5q-58 23 -97.5 44t-76 51.5t-54.5 69.5t-18 89zM328 1122l282 303l49 -43v-8l-294 -287z" />
    <glyph glyph-name="Scircumflex" unicode="&#x15c;" horiz-adv-x="1073" 
d="M154 1036q0 77 26.5 140t70 104t102 69t120 40t127.5 12q79 0 164 -19.5t149 -50.5l-26 -59q-143 61 -303 61q-63 0 -122.5 -14.5t-115 -45.5t-89.5 -89t-34 -135q0 -55 20 -100.5t48.5 -76.5t78.5 -59.5t90.5 -45.5t104.5 -40q155 -55 217 -90q166 -95 178 -263
q1 -14 1 -28q0 -95 -38.5 -169t-103 -118t-142.5 -66t-165 -22q-106 0 -221 37.5t-187 97.5l35 56q176 -123 385 -123q51 0 101 10t98 33t84.5 56.5t59 85t22.5 114.5q0 150 -143 237q-64 39 -219 95l-17 6q-45 17 -76 29.5t-71.5 32.5t-68 39t-56 46.5t-45.5 57.5t-28 70
t-11 85zM524 1769l54 9l256 -217l-33 -41l-246 192l-246 -192l-35 39z" />
    <glyph glyph-name="scircumflex" unicode="&#x15d;" horiz-adv-x="831" 
d="M143 717q0 109 82 174t201 65q73 0 144 -24t118 -62l-33 -45q-111 72 -225 72q-97 0 -158 -46t-61 -128q0 -35 14 -65.5t32.5 -50t52 -39t57.5 -30t65 -26.5q40 -15 62 -23.5t57 -24.5t55 -29.5t44.5 -35t37.5 -43.5t22 -52t9 -64q0 -119 -89 -191t-229 -72
q-154 0 -299 107l35 47q133 -94 264 -94q110 0 180 52.5t70 143.5q0 20 -4.5 38.5t-9.5 33t-18.5 29t-21.5 24t-28.5 22t-30 19t-35.5 18t-36 15.5t-39.5 15.5t-38.5 15.5q-58 23 -97.5 44t-76 51.5t-54.5 69.5t-18 89zM399 1403l54 8l227 -291l-41 -35l-211 252l-217 -254
l-41 35z" />
    <glyph glyph-name="uni015E" unicode="&#x15e;" horiz-adv-x="1073" 
d="M154 1036q0 77 26.5 140t70 104t102 69t120 40t127.5 12q79 0 164 -19.5t149 -50.5l-26 -59q-143 61 -303 61q-63 0 -122.5 -14.5t-115 -45.5t-89.5 -89t-34 -135q0 -55 20 -100.5t48.5 -76.5t78.5 -59.5t90.5 -45.5t104.5 -40q155 -55 217 -90q166 -95 178 -263
q1 -14 1 -28q0 -90 -34 -161.5t-93 -115.5t-130.5 -68t-152.5 -28l-47 -116q12 2 39 2q76 0 127 -32.5t51 -98.5q0 -83 -76 -144t-229 -94l-19 51q136 30 197 74.5t61 108.5q0 83 -127 83q-41 0 -73 -8l-25 29l53 143q-102 6 -206.5 42.5t-172.5 92.5l35 56
q176 -123 385 -123q51 0 101 10t98 33t84.5 56.5t59 85t22.5 114.5q0 150 -143 237q-64 39 -219 95l-17 6q-45 17 -76 29.5t-71.5 32.5t-68 39t-56 46.5t-45.5 57.5t-28 70t-11 85z" />
    <glyph glyph-name="uni015F" unicode="&#x15f;" horiz-adv-x="831" 
d="M143 717q0 109 82 174t201 65q73 0 144 -24t118 -62l-33 -45q-111 72 -225 72q-97 0 -158 -46t-61 -128q0 -35 14 -65.5t32.5 -50t52 -39t57.5 -30t65 -26.5q40 -15 62 -23.5t57 -24.5t55 -29.5t44.5 -35t37.5 -43.5t22 -52t9 -64q0 -115 -84.5 -186.5t-218.5 -76.5
l-47 -122q28 4 45 4q76 0 127 -32.5t51 -98.5q0 -83 -76 -144t-229 -94l-19 51q136 30 197 74.5t61 108.5q0 83 -127 83q-41 0 -73 -8l-25 29l55 152q-131 12 -254 104l35 47q133 -94 264 -94q110 0 180 52.5t70 143.5q0 20 -4.5 38.5t-9.5 33t-18.5 29t-21.5 24t-28.5 22
t-30 19t-35.5 18t-36 15.5t-39.5 15.5t-38.5 15.5q-58 23 -97.5 44t-76 51.5t-54.5 69.5t-18 89z" />
    <glyph glyph-name="Scaron" unicode="&#x160;" horiz-adv-x="1073" 
d="M154 1036q0 77 26.5 140t70 104t102 69t120 40t127.5 12q79 0 164 -19.5t149 -50.5l-26 -59q-143 61 -303 61q-63 0 -122.5 -14.5t-115 -45.5t-89.5 -89t-34 -135q0 -55 20 -100.5t48.5 -76.5t78.5 -59.5t90.5 -45.5t104.5 -40q155 -55 217 -90q166 -95 178 -263
q1 -14 1 -28q0 -95 -38.5 -169t-103 -118t-142.5 -66t-165 -22q-106 0 -221 37.5t-187 97.5l35 56q176 -123 385 -123q51 0 101 10t98 33t84.5 56.5t59 85t22.5 114.5q0 150 -143 237q-64 39 -219 95l-17 6q-45 17 -76 29.5t-71.5 32.5t-68 39t-56 46.5t-45.5 57.5t-28 70
t-11 85zM276 1739l33 41l248 -195l244 193l35 -39l-250 -211l-54 -8z" />
    <glyph glyph-name="scaron" unicode="&#x161;" horiz-adv-x="831" 
d="M143 717q0 109 82 174t201 65q73 0 144 -24t118 -62l-33 -45q-111 72 -225 72q-97 0 -158 -46t-61 -128q0 -35 14 -65.5t32.5 -50t52 -39t57.5 -30t65 -26.5q40 -15 62 -23.5t57 -24.5t55 -29.5t44.5 -35t37.5 -43.5t22 -52t9 -64q0 -119 -89 -191t-229 -72
q-154 0 -299 107l35 47q133 -94 264 -94q110 0 180 52.5t70 143.5q0 20 -4.5 38.5t-9.5 33t-18.5 29t-21.5 24t-28.5 22t-30 19t-35.5 18t-36 15.5t-39.5 15.5t-38.5 15.5q-58 23 -97.5 44t-76 51.5t-54.5 69.5t-18 89zM401 1094l-227 290l41 35l211 -252l217 254l43 -35
l-231 -284z" />
    <glyph glyph-name="uni0162" unicode="&#x162;" horiz-adv-x="1097" 
d="M53 1372h991l-2 -65h-458v-1307l-58 -143q12 2 39 2q76 0 127 -32.5t51 -98.5q0 -83 -76 -144t-229 -94l-18 51q136 30 197 74.5t61 108.5q0 83 -127 83q-42 0 -74 -8l-24 29l63 172h-2v1307h-459z" />
    <glyph glyph-name="uni0163" unicode="&#x163;" horiz-adv-x="634" 
d="M227 1214h54v-280h297v-55h-297v-623q0 -126 25 -171.5t95 -45.5q57 0 164 29l17 -52q-106 -39 -195 -39h-20l-48 -122q28 4 46 4q76 0 127 -32.5t51 -98.5q0 -83 -76 -144t-229 -94l-19 51q136 30 197 74.5t61 108.5q0 83 -127 83q-42 0 -74 -8l-24 29l59 162
q-54 20 -75 79t-21 177v633h-145v55h139z" />
    <glyph glyph-name="Tcaron" unicode="&#x164;" horiz-adv-x="1097" 
d="M53 1372h991l-2 -65h-458v-1307h-70v1307h-459zM270 1739l33 41l248 -195l244 193l34 -39l-249 -211l-54 -8z" />
    <glyph glyph-name="tcaron" unicode="&#x165;" horiz-adv-x="634" 
d="M227 1214h54v-280h297v-55h-297v-623q0 -126 25 -171.5t95 -45.5q57 0 164 29l17 -52q-106 -39 -195 -39q-99 0 -135.5 59.5t-36.5 209.5v633h-145v55h139zM432 1534l66 4l6 -6l-23 -404h-49v406z" />
    <glyph glyph-name="Tbar" unicode="&#x166;" horiz-adv-x="1130" 
d="M260 735h272v572h-460l-2 65h991l-2 -65h-459v-572h272v-67h-272v-668h-68v668h-272v67z" />
    <glyph glyph-name="tbar" unicode="&#x167;" horiz-adv-x="649" 
d="M238 1214h51v-280h297v-55h-297v-263h295v-55h-295v-305q0 -126 25.5 -171.5t95.5 -45.5q56 0 163 29l17 -52q-106 -39 -195 -39q-99 0 -135.5 59.5t-36.5 209.5v315h-145v55h145v263h-145v55h139z" />
    <glyph glyph-name="Utilde" unicode="&#x168;" horiz-adv-x="1257" 
d="M989 1372h68v-856q0 -98 -12.5 -177t-43 -149t-79.5 -117t-124.5 -74.5t-174.5 -27.5q-205 0 -313.5 117t-108.5 373v911h67v-872q0 -86 8.5 -152t33 -127.5t65 -101t107.5 -63t157 -23.5q74 0 136.5 25t98.5 61q115 107 115 358v895zM743 1575q34 0 72 41t70 108l49 -28
q-90 -180 -193 -180q-31 0 -58 15.5t-47 38t-39 44.5t-40 37.5t-43 15.5q-62 0 -141 -147l-49 26q93 180 196 180q38 0 71 -23.5t53 -52t46.5 -52t52.5 -23.5z" />
    <glyph glyph-name="utilde" unicode="&#x169;" horiz-adv-x="1017" 
d="M174 932l66 4v-617q0 -148 46.5 -217t149.5 -69q149 0 330 188v713h65v-592q0 -103 17 -338l-57 -8l-21 158q-179 -183 -346 -183q-250 0 -250 328v633zM612 1167q33 0 68.5 40t67.5 108l47 -25q-39 -83 -87 -132.5t-100 -49.5q-30 0 -57 16t-47 38.5t-38.5 45
t-40.5 38.5t-44 16q-34 0 -67 -38.5t-70 -111.5l-47 25q84 182 188 182q31 0 58 -15.5t46.5 -38t38 -45t40 -38t44.5 -15.5z" />
    <glyph glyph-name="Umacron" unicode="&#x16a;" horiz-adv-x="1257" 
d="M989 1372h68v-856q0 -98 -12.5 -177t-43 -149t-79.5 -117t-124.5 -74.5t-174.5 -27.5q-205 0 -313.5 117t-108.5 373v911h67v-872q0 -86 8.5 -152t33 -127.5t65 -101t107.5 -63t157 -23.5q74 0 136.5 25t98.5 61q115 107 115 358v895zM397 1622h463v-59h-463v59z" />
    <glyph glyph-name="umacron" unicode="&#x16b;" horiz-adv-x="1017" 
d="M174 932l66 4v-617q0 -148 46.5 -217t149.5 -69q149 0 330 188v713h65v-592q0 -103 17 -338l-57 -8l-21 158q-179 -183 -346 -183q-250 0 -250 328v633zM272 1208h447v-61h-447v61z" />
    <glyph glyph-name="Ubreve" unicode="&#x16c;" horiz-adv-x="1257" 
d="M989 1372h68v-856q0 -98 -12.5 -177t-43 -149t-79.5 -117t-124.5 -74.5t-174.5 -27.5q-205 0 -313.5 117t-108.5 373v911h67v-872q0 -86 8.5 -152t33 -127.5t65 -101t107.5 -63t157 -23.5q74 0 136.5 25t98.5 61q115 107 115 358v895zM877 1735q-28 -97 -94.5 -147
t-155.5 -50q-86 0 -150 48.5t-94 148.5l49 20q31 -84 79.5 -118.5t117.5 -34.5q70 0 119.5 34.5t80.5 118.5z" />
    <glyph glyph-name="ubreve" unicode="&#x16d;" horiz-adv-x="1017" 
d="M174 932l66 4v-617q0 -148 46.5 -217t149.5 -69q149 0 330 188v713h65v-592q0 -103 17 -338l-57 -8l-21 158q-179 -183 -346 -183q-250 0 -250 328v633zM498 1167q161 0 196 191l49 -8q-37 -246 -247 -246q-204 0 -244 246l53 8q33 -191 193 -191z" />
    <glyph glyph-name="Uring" unicode="&#x16e;" horiz-adv-x="1257" 
d="M989 1372h68v-856q0 -98 -12.5 -177t-43 -149t-79.5 -117t-124.5 -74.5t-174.5 -27.5q-205 0 -313.5 117t-108.5 373v911h67v-872q0 -86 8.5 -152t33 -127.5t65 -101t107.5 -63t157 -23.5q74 0 136.5 25t98.5 61q115 107 115 358v895zM451 1663q0 81 51.5 133.5
t136.5 52.5q75 0 124.5 -50.5t49.5 -123.5q0 -80 -51.5 -132t-134.5 -52q-78 0 -127 49.5t-49 122.5zM756 1675q0 50 -33.5 85.5t-85.5 35.5q-58 0 -93.5 -37.5t-35.5 -95.5q0 -52 31.5 -85.5t87.5 -33.5q58 0 93.5 36t35.5 95z" />
    <glyph glyph-name="uring" unicode="&#x16f;" horiz-adv-x="1017" 
d="M174 932l66 4v-617q0 -148 46.5 -217t149.5 -69q149 0 330 188v713h65v-592q0 -103 17 -338l-57 -8l-21 158q-179 -183 -346 -183q-250 0 -250 328v633zM311 1245q0 89 53 141t140 52q78 0 127 -47.5t49 -128.5q0 -89 -53 -142t-138 -53q-79 0 -128.5 48.5t-49.5 129.5z
M621 1260q0 58 -32.5 92t-86.5 34q-61 0 -96 -38t-35 -103q0 -57 32 -91t89 -34q60 0 94.5 38t34.5 102z" />
    <glyph glyph-name="Uhungarumlaut" unicode="&#x170;" horiz-adv-x="1257" 
d="M989 1372h68v-856q0 -98 -12.5 -177t-43 -149t-79.5 -117t-124.5 -74.5t-174.5 -27.5q-205 0 -313.5 117t-108.5 373v911h67v-872q0 -86 8.5 -152t33 -127.5t65 -101t107.5 -63t157 -23.5q74 0 136.5 25t98.5 61q115 107 115 358v895zM420 1565l231 250l49 -43v-9
l-243 -233zM700 1565l232 250l49 -41v-11l-242 -233z" />
    <glyph glyph-name="uhungarumlaut" unicode="&#x171;" horiz-adv-x="1017" 
d="M174 932l66 4v-617q0 -148 46.5 -217t149.5 -69q149 0 330 188v713h65v-592q0 -103 17 -338l-57 -8l-21 158q-179 -183 -346 -183q-250 0 -250 328v633zM317 1110l154 313l59 -28v-9l-168 -299zM573 1110l154 313l57 -28v-9l-168 -299z" />
    <glyph glyph-name="Uogonek" unicode="&#x172;" horiz-adv-x="1257" 
d="M1057 516q0 -164 -36 -274.5t-114 -178.5q-131 -113 -193.5 -198t-62.5 -162q0 -65 36.5 -100t103.5 -35q60 0 141 33l18 -56q-92 -39 -162 -39q-89 0 -146.5 53t-57.5 142q0 74 41 141t120 140v2q-60 -13 -122 -13q-205 0 -313.5 117t-108.5 373v911h67v-872
q0 -86 8.5 -152t33 -127.5t65 -101t107.5 -63t157 -23.5q74 0 136.5 25t98.5 61q115 107 115 358v895h68v-856z" />
    <glyph glyph-name="uogonek" unicode="&#x173;" horiz-adv-x="1017" 
d="M174 934h66v-606q0 -149 47 -222t149 -73q80 0 154 44t176 146v711h65v-592q0 -182 17 -379q-242 -125 -242 -244q0 -48 33.5 -79t95.5 -31q66 0 152 39l20 -56q-91 -45 -178 -45q-81 0 -136.5 47.5t-55.5 120.5q0 144 249 277l-20 162q-92 -92 -169.5 -137.5
t-172.5 -45.5q-250 0 -250 328v635z" />
    <glyph glyph-name="Wcircumflex" unicode="&#x174;" horiz-adv-x="1781" 
d="M1651 1372h78q-12 -39 -35 -109.5t-27 -84.5l-364 -1174l-86 -8l-279 1134l-27 125h-8l-368 -1251l-84 -8l-318 1182q-2 7 -53 194h78l278 -1028l56 -231h4l366 1259h88l256 -1032l56 -229h4zM874 1769l54 9l256 -217l-33 -41l-246 192l-246 -192l-34 39z" />
    <glyph glyph-name="wcircumflex" unicode="&#x175;" horiz-adv-x="1470" 
d="M709 932l63 4l223 -703l41 -137h8l283 838h59q0 -32 -12 -66l-301 -866l-67 -4l-230 715l-33 114h-6l-270 -825l-66 -4l-309 870q-14 40 -14 66h61l242 -701l47 -137h8zM707 1403l53 8l227 -291l-41 -35l-211 252l-217 -254l-41 35z" />
    <glyph glyph-name="Ycircumflex" unicode="&#x176;" horiz-adv-x="1030" 
d="M905 1372h78q-67 -118 -82 -141l-354 -635v-596h-68v590l-346 641l-80 141h80l283 -518l98 -172h2zM489 1769l54 9l256 -217l-33 -41l-246 192l-246 -192l-34 39z" />
    <glyph glyph-name="ycircumflex" unicode="&#x177;" horiz-adv-x="915" 
d="M782 934h58q0 -23 -15 -66l-389 -1011q-150 -359 -342 -359q-33 0 -49 4v56q119 0 200 101.5t179 344.5l-326 864q-16 46 -16 66h61l263 -701q35 -99 47 -137h8zM434 1403l53 8l228 -291l-41 -35l-211 252l-217 -254l-41 35z" />
    <glyph glyph-name="Ydieresis" unicode="&#x178;" horiz-adv-x="1030" 
d="M905 1372h78q-67 -118 -82 -141l-354 -635v-596h-68v590l-346 641l-80 141h80l283 -518l98 -172h2zM623 1614q0 27 17 45t46 18q24 0 39.5 -14.5t15.5 -40.5t-16 -43.5t-43 -17.5q-28 0 -43.5 14t-15.5 39zM299 1614q0 26 17.5 44.5t43.5 18.5q27 0 42.5 -14.5
t15.5 -40.5t-17 -43.5t-45 -17.5q-25 0 -41 14.5t-16 38.5z" />
    <glyph glyph-name="Zacute" unicode="&#x179;" horiz-adv-x="1120" 
d="M129 1372h881l12 -72l-872 -1239h862l2 -61h-924l-12 72l868 1239h-815zM424 1587l385 160l27 -64v-6l-394 -141z" />
    <glyph glyph-name="zacute" unicode="&#x17a;" horiz-adv-x="882" 
d="M121 934h637l18 -53l-602 -826h598l2 -55h-668l-12 53l604 826h-575zM352 1122l283 303l49 -43v-8l-295 -287z" />
    <glyph glyph-name="Zdotaccent" unicode="&#x17b;" horiz-adv-x="1120" 
d="M129 1372h881l12 -72l-872 -1239h862l2 -61h-924l-12 72l868 1239h-815zM514 1620q0 31 18.5 49.5t49.5 18.5q26 0 42.5 -17t16.5 -45q0 -29 -18.5 -47t-47.5 -18q-28 0 -44.5 15.5t-16.5 43.5z" />
    <glyph glyph-name="zdotaccent" unicode="&#x17c;" horiz-adv-x="882" 
d="M121 934h637l18 -53l-602 -826h598l2 -55h-668l-12 53l604 826h-575zM385 1208q0 32 20 52t52 20q28 0 44.5 -17t16.5 -46q0 -32 -18 -52t-49 -20q-30 0 -48 17t-18 46z" />
    <glyph glyph-name="Zcaron" unicode="&#x17d;" horiz-adv-x="1120" 
d="M129 1372h881l12 -72l-872 -1239h862l2 -61h-924l-12 72l868 1239h-815zM299 1739l33 41l248 -195l243 193l35 -39l-250 -211l-53 -8z" />
    <glyph glyph-name="zcaron" unicode="&#x17e;" horiz-adv-x="882" 
d="M121 934h637l18 -53l-602 -826h598l2 -55h-668l-12 53l604 826h-575zM426 1094l-227 290l41 35l211 -252l217 254l43 -35l-232 -284z" />
    <glyph glyph-name="longs" unicode="&#x17f;" horiz-adv-x="507" 
d="M221 1227q0 158 64 245t188 87q58 0 108.5 -24.5t108.5 -76.5l-37 -41q-103 80 -186 80q-79 0 -123 -51q-57 -72 -57 -215v-1231h-66v879h-145v55h145v293z" />
    <glyph glyph-name="uni018F" unicode="&#x18f;" horiz-adv-x="1236" 
d="M1098 698q0 -159 -29.5 -288t-89.5 -227t-159 -152t-230 -54q-229 0 -343 144.5t-114 396.5q0 78 17 174h874v2q0 159 -20 270.5t-68.5 196.5t-134 126.5t-211.5 41.5q-199 0 -408 -117l-26 56q46 27 75.5 42t87.5 38.5t126.5 35t146.5 11.5q271 0 388.5 -168.5
t117.5 -528.5zM592 43q140 0 235.5 74.5t142 203t52.5 308.5h-809q-8 -74 -8 -117q0 -226 98 -347.5t289 -121.5z" />
    <glyph glyph-name="uni0192" unicode="&#x192;" horiz-adv-x="929" 
d="M426 1085q21 157 84 233.5t180 76.5q116 0 197 -101l-39 -37q-76 76 -164 76q-73 0 -119 -49q-57 -59 -76 -199l-55 -417h238l-6 -56h-238l-86 -661q-36 -266 -229 -266q-111 0 -185 88l39 41q70 -70 152 -70q132 0 157 209l89 659h-154l6 56h154z" />
    <glyph glyph-name="Ohorn" unicode="&#x1a0;" horiz-adv-x="1374" 
d="M131 670q0 104 19 205t62.5 197t106 168.5t157.5 116.5t210 44q93 0 184 -33q74 -16 119 -16q121 0 121 94q0 50 -39 113l59 8q41 -66 41 -125q0 -150 -167 -150q115 -92 177 -246.5t62 -343.5q0 -104 -19 -205t-62 -197t-105.5 -168.5t-157 -116.5t-209.5 -44
q-129 0 -235.5 55t-176.5 149.5t-108.5 222t-38.5 272.5zM1169 686q0 137 -32.5 255.5t-93 206t-152 137.5t-203.5 50q-152 0 -264 -90q-114 -88 -165.5 -238.5t-51.5 -320.5q0 -137 32.5 -255.5t93 -206t152 -137.5t203.5 -50q150 0 266 90q77 60 127 157t69 195.5
t19 206.5z" />
    <glyph glyph-name="ohorn" unicode="&#x1a1;" horiz-adv-x="1034" 
d="M125 465q0 68 13 136t43.5 134t74.5 116t112 81t150 31q78 0 156 -33q42 -17 76 -17q60 0 84 22t24 62q0 46 -37 113l56 8q43 -69 43 -125q0 -120 -150 -133q135 -135 135 -389q0 -69 -13 -137t-43.5 -134.5t-74.5 -116.5t-111 -81t-149 -31q-179 0 -284 138.5
t-105 355.5zM838 463q0 193 -85.5 315.5t-240.5 122.5q-119 0 -199 -74q-120 -114 -120 -356q0 -194 84.5 -316t240.5 -122q124 0 203 76q117 114 117 354z" />
    <glyph glyph-name="Uhorn" unicode="&#x1af;" horiz-adv-x="1253" 
d="M989 1372h35q76 0 103.5 23t27.5 67q0 50 -39 117l58 8q43 -67 43 -129q0 -61 -35.5 -99t-124.5 -44v-799q0 -98 -12.5 -177t-43 -149t-79.5 -117t-124.5 -74.5t-174.5 -27.5q-205 0 -313.5 117t-108.5 373v911h67v-872q0 -86 8.5 -152t33 -127.5t65 -101t107.5 -63
t157 -23.5q74 0 136.5 25t98.5 61q115 107 115 358v895z" />
    <glyph glyph-name="uhorn" unicode="&#x1b0;" horiz-adv-x="1028" 
d="M893 1130l57 9q41 -66 41 -125q0 -123 -160 -133v-539q0 -103 17 -338l-57 -8l-21 158q-179 -183 -346 -183q-250 0 -250 328v633l66 4v-617q0 -148 46.5 -217t149.5 -69q149 0 330 188v713h35q76 0 103.5 21.5t27.5 62.5q0 49 -39 112z" />
    <glyph glyph-name="uni01FA" unicode="&#x1fa;" horiz-adv-x="1148" 
d="M575 1270l-270 -764h531l-154 446l-100 318h-7zM539 1368l75 8l473 -1376h-77l-154 444h-571l-158 -444h-76q12 33 35.5 98.5t36.5 98.5zM397 1663q0 81 52 133.5t137 52.5q75 0 124.5 -50.5t49.5 -123.5q0 -80 -52 -132t-135 -52q-78 0 -127 49.5t-49 122.5zM702 1675
q0 51 -33 86t-85 35q-58 0 -93.5 -37.5t-35.5 -95.5q0 -53 31.5 -86t86.5 -33q58 0 93.5 36t35.5 95zM422 1976l385 160l27 -63v-7l-394 -141z" />
    <glyph glyph-name="aringacute" unicode="&#x1fb;" horiz-adv-x="925" 
d="M139 805q187 151 365 151q131 0 187.5 -86.5t56.5 -273.5v-254q0 -125 16 -338l-55 -8l-23 145q-172 -164 -354 -164q-103 0 -166.5 61t-63.5 169q0 123 111 203q121 87 469 114v37q0 184 -40.5 259t-139.5 75q-78 0 -164.5 -37t-165.5 -96zM334 37q80 0 171.5 45
t176.5 129v256q-193 -21 -290 -44t-142 -56q-80 -64 -80 -158q0 -81 45.5 -126.5t118.5 -45.5zM281 1245q0 89 52.5 141t139.5 52q78 0 127 -47.5t49 -128.5q0 -89 -52.5 -142t-137.5 -53q-79 0 -128.5 48.5t-49.5 129.5zM590 1260q0 58 -32.5 92t-86.5 34q-61 0 -96 -38
t-35 -103q0 -57 32 -91t89 -34q60 0 94.5 38t34.5 102zM313 1559l385 159l27 -63v-6l-393 -142z" />
    <glyph glyph-name="uni01FC" unicode="&#x1fc;" horiz-adv-x="1718" 
d="M713 1063l-301 -526h456v774h-10zM819 1372h774l-2 -61h-655v-578h539v-63h-539v-609h655l2 -61h-725v475h-491l-273 -475h-79q0 1 1.5 3t3.5 4.5t3 4.5zM1051 1587l385 160l26 -64v-6l-393 -141z" />
    <glyph glyph-name="uni01FD" unicode="&#x1fd;" horiz-adv-x="1523" 
d="M1081 901q-136 0 -223.5 -100t-99.5 -277h569q4 54 4 86q0 124 -66.5 207.5t-183.5 83.5zM690 465v2q-195 -20 -293 -43t-145 -57q-82 -61 -82 -158q0 -82 49.5 -126t138.5 -46q206 0 373 188q-41 103 -41 240zM215 412q118 85 465 112v37q0 184 -39.5 260t-138.5 76
q-151 0 -330 -135l-33 43q187 151 365 151q109 0 163 -59.5t68 -185.5q48 117 138.5 184.5t207.5 67.5q102 0 175.5 -50t108 -130.5t34.5 -180.5q0 -59 -10 -137h-633q1 -206 94 -316t240 -110q133 0 266 57l24 -51q-154 -68 -305 -68q-100 0 -184 50t-137 147
q-176 -197 -398 -197q-119 0 -186.5 60t-67.5 170q0 124 113 205zM723 1122l283 303l49 -43v-8l-295 -287z" />
    <glyph glyph-name="Oslashacute" unicode="&#x1fe;" horiz-adv-x="1374" 
d="M131 670q0 104 19 205t62.5 197t106 168.5t157.5 116.5t210 44q151 0 275 -78l75 156l60 -33l-80 -164q108 -93 167.5 -245.5t59.5 -334.5q0 -104 -19 -205t-62 -197t-105.5 -168.5t-157 -116.5t-209.5 -44q-155 0 -280 80l-76 -155l-58 30l80 166q-108 93 -166.5 244
t-58.5 334zM207 686q0 -167 46.5 -304t135.5 -224l541 1104q-106 73 -242 73q-152 0 -264 -90q-114 -88 -165.5 -238.5t-51.5 -320.5zM1169 686q0 169 -48 307t-138 224l-543 -1102q111 -78 248 -78q150 0 266 90q77 60 127 157t69 195.5t19 206.5zM535 1587l385 160l26 -64
v-6l-393 -141z" />
    <glyph glyph-name="oslashacute" unicode="&#x1ff;" horiz-adv-x="1030" 
d="M125 465q0 68 13 136t43.5 134t74.5 116t112 81t150 31q93 0 166 -39l66 147l53 -24l-68 -156q81 -63 125.5 -173t44.5 -247q0 -69 -13 -137t-43.5 -134.5t-74.5 -116.5t-111 -81t-149 -31q-92 0 -168 39l-63 -141l-54 27l66 147q-81 64 -125.5 174.5t-44.5 247.5z
M193 471q0 -250 129 -367l335 760q-61 37 -145 37q-119 0 -199 -74q-120 -114 -120 -356zM838 463q0 247 -131 366l-336 -759q64 -37 147 -37q124 0 203 76q117 114 117 354zM403 1122l283 303l49 -43v-8l-295 -287z" />
    <glyph glyph-name="uni0218" unicode="&#x218;" horiz-adv-x="1073" 
d="M154 1036q0 77 26.5 140t70 104t102 69t120 40t127.5 12q79 0 164 -19.5t149 -50.5l-26 -59q-143 61 -303 61q-63 0 -122.5 -14.5t-115 -45.5t-89.5 -89t-34 -135q0 -55 20 -100.5t48.5 -76.5t78.5 -59.5t90.5 -45.5t104.5 -40q155 -55 217 -90q166 -95 178 -263
q1 -14 1 -28q0 -95 -38.5 -169t-103 -118t-142.5 -66t-165 -22q-106 0 -221 37.5t-187 97.5l35 56q176 -123 385 -123q51 0 101 10t98 33t84.5 56.5t59 85t22.5 114.5q0 150 -143 237q-64 39 -219 95l-17 6q-45 17 -76 29.5t-71.5 32.5t-68 39t-56 46.5t-45.5 57.5t-28 70
t-11 85zM496 -147l61 10q10 -68 10 -111q0 -148 -69 -260l-47 29q51 105 51 221q0 46 -6 111z" />
    <glyph glyph-name="uni0219" unicode="&#x219;" horiz-adv-x="831" 
d="M143 717q0 109 82 174t201 65q73 0 144 -24t118 -62l-33 -45q-111 72 -225 72q-97 0 -158 -46t-61 -128q0 -35 14 -65.5t32.5 -50t52 -39t57.5 -30t65 -26.5q40 -15 62 -23.5t57 -24.5t55 -29.5t44.5 -35t37.5 -43.5t22 -52t9 -64q0 -119 -89 -191t-229 -72
q-154 0 -299 107l35 47q133 -94 264 -94q110 0 180 52.5t70 143.5q0 20 -4.5 38.5t-9.5 33t-18.5 29t-21.5 24t-28.5 22t-30 19t-35.5 18t-36 15.5t-39.5 15.5t-38.5 15.5q-58 23 -97.5 44t-76 51.5t-54.5 69.5t-18 89zM383 -147l61 10q11 -56 11 -111q0 -144 -68 -260
l-49 29q53 103 53 221q0 25 -8 111z" />
    <glyph glyph-name="uni021A" unicode="&#x21a;" horiz-adv-x="1097" 
d="M53 1372h991l-2 -65h-458v-1307h-70v1307h-459zM518 -147l62 10q10 -68 10 -111q0 -146 -70 -260l-47 29q51 105 51 221q0 46 -6 111z" />
    <glyph glyph-name="uni021B" unicode="&#x21b;" horiz-adv-x="634" 
d="M227 1214h54v-280h297v-55h-297v-623q0 -126 25 -171.5t95 -45.5q57 0 164 29l17 -52q-106 -39 -195 -39q-99 0 -135.5 59.5t-36.5 209.5v633h-145v55h139zM334 -147l61 10q11 -56 11 -111q0 -144 -68 -260l-49 29q53 103 53 221q0 25 -8 111z" />
    <glyph glyph-name="dotlessj" unicode="&#x237;" horiz-adv-x="434" 
d="M184 932l66 4v-897q0 -183 -56.5 -299t-170.5 -221l-39 41q99 104 149.5 214t50.5 269v889z" />
    <glyph glyph-name="uni0259" unicode="&#x259;" horiz-adv-x="929" 
d="M801 477q0 -146 -35.5 -255.5t-116 -177t-200.5 -67.5q-155 0 -238.5 101t-83.5 266q0 72 10 131h596q0 213 -67 316.5t-232 103.5q-141 0 -268 -70l-27 52q149 79 299 79q188 0 275.5 -119.5t87.5 -359.5zM449 39q264 0 282 379h-534q-4 -50 -4 -78q0 -138 67.5 -219.5
t188.5 -81.5z" />
    <glyph glyph-name="uni02BC" unicode="&#x2bc;" horiz-adv-x="0" 
d="M51 1444l62 10q16 -66 16 -123q0 -151 -121 -256l-33 33q88 91 88 213q0 61 -12 123z" />
    <glyph glyph-name="circumflex" unicode="&#x2c6;" horiz-adv-x="819" 
d="M381 1403l53 8l228 -291l-41 -35l-211 252l-217 -254l-41 35z" />
    <glyph glyph-name="caron" unicode="&#x2c7;" horiz-adv-x="819" 
d="M383 1094l-227 290l41 35l211 -252l217 254l43 -35l-232 -284z" />
    <glyph glyph-name="uni02C9" unicode="&#x2c9;" horiz-adv-x="0" 
d="M-223 1208h446v-61h-446v61z" />
    <glyph glyph-name="uni02CA" unicode="&#x2ca;" horiz-adv-x="0" 
d="M-100 1122l282 303l49 -43v-8l-294 -287z" />
    <glyph glyph-name="uni02CB" unicode="&#x2cb;" horiz-adv-x="0" 
d="M-197 1382l50 43l282 -303l-37 -35l-295 287v8z" />
    <glyph glyph-name="breve" unicode="&#x2d8;" horiz-adv-x="819" 
d="M412 1167q161 0 196 191l49 -8q-37 -246 -247 -246q-204 0 -244 246l53 8q33 -191 193 -191z" />
    <glyph glyph-name="dotaccent" unicode="&#x2d9;" horiz-adv-x="819" 
d="M342 1208q0 32 20 52t52 20q28 0 44.5 -17t16.5 -46q0 -32 -18 -52t-49 -20q-30 0 -48 17t-18 46z" />
    <glyph glyph-name="ring" unicode="&#x2da;" horiz-adv-x="819" 
d="M225 1245q0 89 53 141t140 52q78 0 127 -47.5t49 -128.5q0 -89 -53 -142t-138 -53q-79 0 -128.5 48.5t-49.5 129.5zM535 1260q0 58 -32.5 92t-86.5 34q-61 0 -96 -38t-35 -103q0 -57 32 -91t89 -34q60 0 94.5 38t34.5 102z" />
    <glyph glyph-name="ogonek" unicode="&#x2db;" horiz-adv-x="819" 
d="M145 -272q0 86 69.5 161t207.5 158l33 -43q-127 -80 -184.5 -144.5t-57.5 -129.5q0 -53 34.5 -87t96.5 -34q64 0 150 39l20 -56q-91 -45 -176 -45q-81 0 -137 50.5t-56 130.5z" />
    <glyph glyph-name="tilde" unicode="&#x2dc;" horiz-adv-x="819" 
d="M526 1167q33 0 68.5 40t67.5 108l47 -25q-39 -83 -87 -132.5t-100 -49.5q-30 0 -57 16t-47 38.5t-38.5 45t-40.5 38.5t-44 16q-34 0 -67 -38.5t-70 -111.5l-47 25q84 182 188 182q31 0 58 -15.5t46.5 -38t38 -45t40 -38t44.5 -15.5z" />
    <glyph glyph-name="hungarumlaut" unicode="&#x2dd;" horiz-adv-x="819" 
d="M231 1110l154 313l59 -28v-9l-168 -299zM487 1110l154 313l57 -28v-9l-168 -299z" />
    <glyph glyph-name="uni0300" unicode="&#x300;" horiz-adv-x="0" 
d="M-197 1382l50 43l282 -303l-37 -35l-295 287v8z" />
    <glyph glyph-name="uni0301" unicode="&#x301;" horiz-adv-x="0" 
d="M-100 1122l282 303l49 -43v-8l-294 -287z" />
    <glyph glyph-name="uni0302" unicode="&#x302;" horiz-adv-x="0" 
d="M-29 1403l54 8l227 -291l-41 -35l-211 252l-217 -254l-41 35z" />
    <glyph glyph-name="uni0303" unicode="&#x303;" horiz-adv-x="0" 
d="M117 1167q33 0 68 40t67 108l47 -25q-86 -182 -186 -182q-37 0 -70 24t-54 53t-49 53t-55 24q-34 0 -67 -38.5t-70 -111.5l-47 25q84 182 188 182q31 0 58 -15.5t46.5 -38t38 -45t40.5 -38t45 -15.5z" />
    <glyph glyph-name="uni0304" unicode="&#x304;" horiz-adv-x="0" 
d="M-223 1208h446v-61h-446v61z" />
    <glyph glyph-name="uni0306" unicode="&#x306;" horiz-adv-x="0" 
d="M2 1167q162 0 197 191l49 -8q-37 -246 -248 -246q-204 0 -244 246l54 8q33 -191 192 -191z" />
    <glyph glyph-name="uni0307" unicode="&#x307;" horiz-adv-x="0" 
d="M-68 1208q0 32 20 52t52 20q28 0 45 -17t17 -46q0 -32 -18.5 -52t-49.5 -20q-30 0 -48 17t-18 46z" />
    <glyph glyph-name="uni0308" unicode="&#x308;" horiz-adv-x="0" 
d="M94 1200q0 27 17.5 45.5t44.5 18.5q25 0 41 -15t16 -41q0 -25 -17 -43t-44 -18q-26 0 -42 14t-16 39zM-213 1200q0 27 18 45.5t45 18.5q25 0 40.5 -15t15.5 -41t-17 -43.5t-45 -17.5q-25 0 -41 14.5t-16 38.5z" />
    <glyph glyph-name="uni0309" unicode="&#x309;" horiz-adv-x="0" 
d="M-96 1337l-13 52q44 14 86 14q72 0 116 -36t44 -103q0 -85 -58 -131t-151 -56l-8 51q154 21 154 132q0 44 -26.5 66t-72.5 22q-25 0 -71 -11z" />
    <glyph glyph-name="uni030A" unicode="&#x30a;" horiz-adv-x="0" 
d="M-184 1245q0 89 52.5 141t139.5 52q78 0 127 -47.5t49 -128.5q0 -89 -52.5 -142t-137.5 -53q-79 0 -128.5 48.5t-49.5 129.5zM125 1260q0 58 -32.5 92t-86.5 34q-61 0 -96 -38t-35 -103q0 -57 32 -91t89 -34q60 0 94.5 38t34.5 102z" />
    <glyph glyph-name="uni030B" unicode="&#x30b;" horiz-adv-x="0" 
d="M-178 1110l153 313l60 -28v-9l-168 -299zM78 1110l153 313l58 -28v-9l-168 -299z" />
    <glyph glyph-name="uni030C" unicode="&#x30c;" horiz-adv-x="0" 
d="M-27 1094l-227 290l41 35l211 -252l217 254l43 -35l-231 -284z" />
    <glyph glyph-name="uni031B" unicode="&#x31b;" horiz-adv-x="0" 
d="M23 1130l55 9q43 -69 43 -125q0 -135 -191 -135h-16v55h16q74 0 101.5 21.5t27.5 62.5q0 47 -36 112z" />
    <glyph glyph-name="uni0323" unicode="&#x323;" horiz-adv-x="0" 
d="M-63 -293q0 31 18 49.5t49 18.5q26 0 42.5 -16.5t16.5 -43.5q0 -31 -18 -49t-47 -18q-28 0 -44.5 16.5t-16.5 42.5z" />
    <glyph glyph-name="uni0326" unicode="&#x326;" horiz-adv-x="0" 
d="M-14 -147l61 10q10 -51 10 -111q0 -146 -67 -260l-49 29q53 103 53 221q0 25 -8 111z" />
    <glyph glyph-name="uni0327" unicode="&#x327;" horiz-adv-x="0" 
d="M-96 -172l71 195l54 -19l-58 -149q28 4 45 4q76 0 127.5 -32.5t51.5 -98.5q0 -171 -306 -238l-18 51q136 30 197 74.5t61 108.5q0 83 -127 83q-42 0 -74 -8z" />
    <glyph glyph-name="uni0328" unicode="&#x328;" horiz-adv-x="0" 
d="M-264 -272q0 86 69.5 161.5t206.5 157.5l33 -43q-127 -80 -184.5 -144.5t-57.5 -129.5q0 -53 34.5 -87t96.5 -34q64 0 150 39l20 -56q-91 -45 -176 -45q-81 0 -136.5 50.5t-55.5 130.5z" />
    <glyph glyph-name="uni0335" unicode="&#x335;" horiz-adv-x="0" 
d="M-266 436h532v-53h-532v53z" />
    <glyph glyph-name="a.sups" unicode="&#x1d43;" horiz-adv-x="622" 
d="M104 1346q114 92 234 92q88 0 126 -54.5t38 -169.5v-149q0 -59 10 -213l-51 -8l-19 88q-106 -98 -215 -98q-66 0 -107.5 38t-41.5 105q0 79 69 129q79 54 291 70v16q0 106 -24.5 148t-85.5 42q-92 0 -195 -75zM238 887q96 0 200 96v145q-200 -18 -250 -57
q-47 -33 -47 -88q0 -46 27 -71t70 -25z" />
    <glyph glyph-name="b.sups" unicode="&#x1d47;" horiz-adv-x="677" 
d="M121 1784l65 2v-434q90 90 181 90q108 0 165.5 -84.5t57.5 -218.5q0 -61 -15.5 -114t-46.5 -96.5t-85 -69t-124 -25.5q-98 0 -198 32v918zM322 889q75 0 120 39q82 63 82 207q0 116 -40.5 183.5t-118.5 67.5q-81 0 -179 -94v-385q59 -18 136 -18z" />
    <glyph glyph-name="d.sups" unicode="&#x1d48;" horiz-adv-x="681" 
d="M307 887q46 0 89.5 26.5t95.5 75.5v359q-68 38 -140 38q-79 0 -125 -43q-73 -67 -73 -210q0 -105 41 -175.5t112 -70.5zM88 1124q0 59 14.5 113.5t44 101.5t81.5 75t120 28q72 0 144 -43v385l65 2v-742q0 -83 10 -192l-51 -8l-18 92q-97 -105 -199 -105q-95 0 -153 83
t-58 210z" />
    <glyph glyph-name="e.sups" unicode="&#x1d49;" horiz-adv-x="630" 
d="M86 1133q0 133 69.5 221t184.5 88q97 0 151 -65.5t54 -162.5q0 -42 -6 -86h-387q1 -117 55 -177t137 -60q90 0 170 31l18 -45q-93 -41 -194 -41q-109 0 -180.5 77t-71.5 220zM340 1386q-79 0 -128 -55t-58 -153h327q2 14 2 45q0 70 -38 116.5t-105 46.5z" />
    <glyph glyph-name="g.sups" unicode="&#x1d4d;" horiz-adv-x="634" 
d="M145 948q0 56 52 105q-55 24 -84 71t-29 107q0 83 55 145t162 62q70 0 121 -31q58 58 147 61l4 -51q-62 -6 -116 -37q57 -57 57 -145q0 -84 -56.5 -142.5t-158.5 -58.5q-33 0 -57 6q-39 -39 -39 -79q0 -25 17.5 -38.5t43 -16.5t72.5 -3q233 0 233 -158q0 -68 -40.5 -118
t-103 -73.5t-136.5 -23.5q-104 0 -170 47t-66 125q0 114 115 187q-23 23 -23 59zM301 584q77 0 133 30q76 42 76 125q0 66 -48.5 89.5t-148.5 23.5q-67 0 -102 12q-98 -59 -98 -149q0 -131 188 -131zM453 1231q0 72 -40.5 113.5t-115.5 41.5q-68 0 -110 -39.5t-42 -109.5
q0 -69 38.5 -111.5t117.5 -42.5q67 0 109.5 38.5t42.5 109.5z" />
    <glyph glyph-name="k.sups" unicode="&#x1d4f;" horiz-adv-x="614" 
d="M494 1423h67q-7 -19 -26 -39l-205 -221l217 -272q21 -24 24 -43h-63l-225 282l-97 -36v-246h-63v936l63 2v-637l88 37z" />
    <glyph glyph-name="m.sups" unicode="&#x1d50;" horiz-adv-x="1017" 
d="M115 1423l51 9l18 -86q99 96 207 96q110 0 141 -101q109 101 213 101q82 0 118 -51.5t36 -153.5v-389h-63v373q0 88 -22.5 126.5t-78.5 38.5q-84 0 -192 -92q2 -18 2 -57v-389h-64v373q0 89 -22.5 127t-79.5 38q-84 0 -189 -90v-448h-65v362q0 92 -10 213z" />
    <glyph glyph-name="o.sups" unicode="&#x1d52;" horiz-adv-x="677" 
d="M86 1133q0 54 15 107t45 99t81 74.5t115 28.5q115 0 182.5 -86t67.5 -217q0 -55 -15 -108t-45 -98.5t-80.5 -73.5t-115.5 -28q-116 0 -183 85t-67 217zM524 1130q0 114 -48.5 185t-137.5 71q-52 0 -100 -30q-84 -63 -84 -217q0 -113 47.5 -182.5t138.5 -69.5q66 0 104 35
q80 62 80 208z" />
    <glyph glyph-name="p.sups" unicode="&#x1d56;" horiz-adv-x="681" 
d="M332 887q66 0 108 33q86 62 86 219q0 107 -41.5 177t-117.5 70q-48 0 -87.5 -22.5t-91.5 -69.5v-368q65 -39 144 -39zM115 1423l49 9l18 -89q44 48 89 73.5t106 25.5q99 0 158 -83.5t59 -211.5q0 -59 -14.5 -113t-44.5 -100.5t-81.5 -74.5t-119.5 -28q-78 0 -146 41v-323
h-63v659q0 39 -10 215z" />
    <glyph glyph-name="t.sups" unicode="&#x1d57;" horiz-adv-x="466" 
d="M162 1597h51v-172h176v-51h-176v-356q0 -75 15.5 -101t58.5 -26t92 14l16 -47q-61 -22 -121 -22q-68 0 -96 38t-28 130v370h-91v51h86z" />
    <glyph glyph-name="u.sups" unicode="&#x1d58;" horiz-adv-x="671" 
d="M117 1423h65v-370q0 -86 26 -126t85 -40q45 0 87.5 24t102.5 80v432h66v-356q0 -90 10 -215l-51 -8l-19 96q-54 -56 -101.5 -82.5t-106.5 -26.5q-164 0 -164 201v391z" />
    <glyph glyph-name="v.sups" unicode="&#x1d5b;" horiz-adv-x="587" 
d="M481 1423h60q0 -23 -9 -47l-206 -526l-68 -4l-201 530q-10 40 -10 47h62l149 -409q29 -84 31 -92h6z" />
    <glyph glyph-name="i.sinf" unicode="&#x1d62;" horiz-adv-x="309" 
d="M123 471l63 2v-575h-63v573zM104 643q0 24 15.5 38.5t40.5 14.5q22 0 35.5 -13.5t13.5 -35.5t-15.5 -36.5t-39.5 -14.5q-22 0 -36 13.5t-14 33.5z" />
    <glyph glyph-name="r.sinf" unicode="&#x1d63;" horiz-adv-x="462" 
d="M111 473l49 8l20 -112q64 118 166 118q48 0 78 -20l-18 -53q-30 10 -62 10q-45 0 -86.5 -33.5t-73.5 -95.5v-397h-63v383q0 53 -10 192z" />
    <glyph glyph-name="u.sinf" unicode="&#x1d64;" horiz-adv-x="671" 
d="M115 473h65v-371q0 -86 26 -125.5t85 -39.5q45 0 87.5 24t102.5 80v432h66v-356q0 -90 10 -215l-51 -8l-19 96q-54 -56 -101.5 -82.5t-106.5 -26.5q-164 0 -164 201v391z" />
    <glyph glyph-name="v.sinf" unicode="&#x1d65;" horiz-adv-x="587" 
d="M481 473h60q0 -23 -9 -47l-206 -526l-68 -4l-201 530q-10 40 -10 47h62l149 -410q29 -84 31 -92h6z" />
    <glyph glyph-name="Wgrave" unicode="&#x1e80;" horiz-adv-x="1781" 
d="M1651 1372h78q-12 -39 -35 -109.5t-27 -84.5l-364 -1174l-86 -8l-279 1134l-27 125h-8l-368 -1251l-84 -8l-318 1182q-2 7 -53 194h78l278 -1028l56 -231h4l366 1259h88l256 -1032l56 -229h4zM651 1686l27 61l385 -158l-21 -53l-391 141v9z" />
    <glyph glyph-name="wgrave" unicode="&#x1e81;" horiz-adv-x="1470" 
d="M709 932l63 4l223 -703l41 -137h8l283 838h59q0 -32 -12 -66l-301 -866l-67 -4l-230 715l-33 114h-6l-270 -825l-66 -4l-309 870q-14 40 -14 66h61l242 -701l47 -137h8zM539 1382l49 43l282 -303l-36 -35l-295 287v8z" />
    <glyph glyph-name="Wacute" unicode="&#x1e82;" horiz-adv-x="1781" 
d="M1651 1372h78q-12 -39 -35 -109.5t-27 -84.5l-364 -1174l-86 -8l-279 1134l-27 125h-8l-368 -1251l-84 -8l-318 1182q-2 7 -53 194h78l278 -1028l56 -231h4l366 1259h88l256 -1032l56 -229h4zM752 1587l385 160l26 -64v-6l-393 -141z" />
    <glyph glyph-name="wacute" unicode="&#x1e83;" horiz-adv-x="1470" 
d="M709 932l63 4l223 -703l41 -137h8l283 838h59q0 -32 -12 -66l-301 -866l-67 -4l-230 715l-33 114h-6l-270 -825l-66 -4l-309 870q-14 40 -14 66h61l242 -701l47 -137h8zM635 1122l283 303l49 -43v-8l-295 -287z" />
    <glyph glyph-name="Wdieresis" unicode="&#x1e84;" horiz-adv-x="1781" 
d="M1651 1372h78q-12 -39 -35 -109.5t-27 -84.5l-364 -1174l-86 -8l-279 1134l-27 125h-8l-368 -1251l-84 -8l-318 1182q-2 7 -53 194h78l278 -1028l56 -231h4l366 1259h88l256 -1032l56 -229h4zM1008 1614q0 27 17 45t46 18q24 0 39.5 -14.5t15.5 -40.5t-16 -43.5
t-43 -17.5q-28 0 -43.5 14t-15.5 39zM684 1614q0 26 17.5 44.5t43.5 18.5q27 0 42.5 -14.5t15.5 -40.5t-17 -43.5t-45 -17.5q-25 0 -41 14.5t-16 38.5z" />
    <glyph glyph-name="wdieresis" unicode="&#x1e85;" horiz-adv-x="1470" 
d="M709 932l63 4l223 -703l41 -137h8l283 838h59q0 -32 -12 -66l-301 -866l-67 -4l-230 715l-33 114h-6l-270 -825l-66 -4l-309 870q-14 40 -14 66h61l242 -701l47 -137h8zM829 1200q0 27 17.5 45.5t44.5 18.5q25 0 41 -15t16 -41q0 -25 -17 -43t-44 -18q-26 0 -42 14
t-16 39zM522 1200q0 27 18.5 45.5t45.5 18.5q25 0 40 -15t15 -41t-16.5 -43.5t-44.5 -17.5q-25 0 -41.5 14.5t-16.5 38.5z" />
    <glyph glyph-name="uni1E9E" unicode="&#x1e9e;" horiz-adv-x="1253" 
d="M1081 1251v-12l-329 -496q75 -10 141 -35t127.5 -69t98 -117.5t36.5 -167.5q0 -163 -107 -270t-274 -107q-162 0 -276 72l32 57q100 -65 248 -65q128 0 215.5 85.5t87.5 221.5q0 73 -25 130.5t-63 92.5t-93.5 60.5t-104.5 37t-109 19.5l-14 53l323 492q-152 102 -362 102
q-350 0 -350 -417v-918h-68v934q0 228 108 347.5t308 119.5q135 0 253 -43t197 -107z" />
    <glyph glyph-name="uni1EA2" unicode="&#x1ea2;" horiz-adv-x="1148" 
d="M575 1270l-270 -764h531l-154 446l-100 318h-7zM539 1368l75 8l473 -1376h-77l-154 444h-571l-158 -444h-76q12 33 35.5 98.5t36.5 98.5zM477 1780l-12 51q44 14 90 14q69 0 111.5 -33t42.5 -98q0 -81 -57 -124.5t-148 -53.5l-8 51q71 12 110 40t39 83q0 82 -92 82
q-39 0 -76 -12z" />
    <glyph glyph-name="uni1EA3" unicode="&#x1ea3;" horiz-adv-x="925" 
d="M139 805q187 151 365 151q131 0 187.5 -86.5t56.5 -273.5v-254q0 -125 16 -338l-55 -8l-23 145q-172 -164 -354 -164q-103 0 -166.5 61t-63.5 169q0 123 111 203q121 87 469 114v37q0 184 -40.5 259t-139.5 75q-78 0 -164.5 -37t-165.5 -96zM334 37q80 0 171.5 45
t176.5 129v256q-193 -21 -290 -44t-142 -56q-80 -64 -80 -158q0 -81 45.5 -126.5t118.5 -45.5zM369 1337l-13 52q44 14 86 14q72 0 116 -36t44 -103q0 -85 -58 -131t-151 -56l-8 51q154 21 154 132q0 44 -26.5 66t-72.5 22q-25 0 -71 -11z" />
    <glyph glyph-name="uni1EA4" unicode="&#x1ea4;" horiz-adv-x="1148" 
d="M575 1270l-270 -764h531l-154 446l-100 318h-7zM539 1368l75 8l473 -1376h-77l-154 444h-571l-158 -444h-76q12 33 35.5 98.5t36.5 98.5zM545 1749l53 8l256 -217l-33 -41l-246 193l-245 -193l-35 39zM395 1878l383 158l27 -64v-6l-391 -141z" />
    <glyph glyph-name="uni1EA5" unicode="&#x1ea5;" horiz-adv-x="925" 
d="M139 805q187 151 365 151q131 0 187.5 -86.5t56.5 -273.5v-254q0 -125 16 -338l-55 -8l-23 145q-172 -164 -354 -164q-103 0 -166.5 61t-63.5 169q0 123 111 203q121 87 469 114v37q0 184 -40.5 259t-139.5 75q-78 0 -164.5 -37t-165.5 -96zM334 37q80 0 171.5 45
t176.5 129v256q-193 -21 -290 -44t-142 -56q-80 -64 -80 -158q0 -81 45.5 -126.5t118.5 -45.5zM436 1382l53 9l228 -291l-41 -35l-211 252l-217 -254l-41 35zM655 1417l222 301l51 -39v-8l-230 -285z" />
    <glyph glyph-name="uni1EA6" unicode="&#x1ea6;" horiz-adv-x="1148" 
d="M575 1270l-270 -764h531l-154 446l-100 318h-7zM539 1368l75 8l473 -1376h-77l-154 444h-571l-158 -444h-76q12 33 35.5 98.5t36.5 98.5zM545 1749l53 8l256 -217l-33 -41l-246 193l-245 -193l-35 39zM358 1972l27 64l383 -158l-18 -53l-392 141v6z" />
    <glyph glyph-name="uni1EA7" unicode="&#x1ea7;" horiz-adv-x="925" 
d="M139 805q187 151 365 151q131 0 187.5 -86.5t56.5 -273.5v-254q0 -125 16 -338l-55 -8l-23 145q-172 -164 -354 -164q-103 0 -166.5 61t-63.5 169q0 123 111 203q121 87 469 114v37q0 184 -40.5 259t-139.5 75q-78 0 -164.5 -37t-165.5 -96zM334 37q80 0 171.5 45
t176.5 129v256q-193 -21 -290 -44t-142 -56q-80 -64 -80 -158q0 -81 45.5 -126.5t118.5 -45.5zM436 1382l53 9l228 -291l-41 -35l-211 252l-217 -254l-41 35zM494 1679l53 39l219 -301l-41 -31l-231 285v8z" />
    <glyph glyph-name="uni1EA8" unicode="&#x1ea8;" horiz-adv-x="1148" 
d="M575 1270l-270 -764h531l-154 446l-100 318h-7zM539 1368l75 8l473 -1376h-77l-154 444h-571l-158 -444h-76q12 33 35.5 98.5t36.5 98.5zM545 1749l53 8l256 -217l-33 -41l-246 193l-245 -193l-35 39zM700 2009l-10 49q42 17 90 17q69 0 110.5 -33.5t41.5 -97.5
q0 -81 -56.5 -125.5t-148.5 -55.5l-8 52q72 11 111.5 40t39.5 84q0 80 -94 80q-34 0 -76 -10z" />
    <glyph glyph-name="uni1EA9" unicode="&#x1ea9;" horiz-adv-x="925" 
d="M139 805q187 151 365 151q131 0 187.5 -86.5t56.5 -273.5v-254q0 -125 16 -338l-55 -8l-23 145q-172 -164 -354 -164q-103 0 -166.5 61t-63.5 169q0 123 111 203q121 87 469 114v37q0 184 -40.5 259t-139.5 75q-78 0 -164.5 -37t-165.5 -96zM334 37q80 0 171.5 45
t176.5 129v256q-193 -21 -290 -44t-142 -56q-80 -64 -80 -158q0 -81 45.5 -126.5t118.5 -45.5zM436 1382l53 9l228 -291l-41 -35l-211 252l-217 -254l-41 35zM612 1655l-12 51q40 16 86 16q72 0 116 -36.5t44 -104.5q0 -160 -207 -186l-8 51q153 25 153 131q0 45 -27 67.5
t-73 22.5q-34 0 -72 -12z" />
    <glyph glyph-name="uni1EAA" unicode="&#x1eaa;" horiz-adv-x="1148" 
d="M575 1270l-270 -764h531l-154 446l-100 318h-7zM539 1368l75 8l473 -1376h-77l-154 444h-571l-158 -444h-76q12 33 35.5 98.5t36.5 98.5zM690 1905q35 0 72.5 37t68.5 102l50 -29q-85 -170 -193 -170q-31 0 -58 14.5t-47 35.5t-39 42t-40 35.5t-43 14.5q-68 0 -142 -138
l-49 29q89 168 197 168q38 0 71 -22t53 -48.5t46.5 -48.5t52.5 -22zM545 1749l53 8l256 -217l-33 -41l-246 193l-245 -193l-35 39z" />
    <glyph glyph-name="uni1EAB" unicode="&#x1eab;" horiz-adv-x="925" 
d="M139 805q187 151 365 151q131 0 187.5 -86.5t56.5 -273.5v-254q0 -125 16 -338l-55 -8l-23 145q-172 -164 -354 -164q-103 0 -166.5 61t-63.5 169q0 123 111 203q121 87 469 114v37q0 184 -40.5 259t-139.5 75q-78 0 -164.5 -37t-165.5 -96zM334 37q80 0 171.5 45
t176.5 129v256q-193 -21 -290 -44t-142 -56q-80 -64 -80 -158q0 -81 45.5 -126.5t118.5 -45.5zM436 1382l53 9l228 -291l-41 -35l-211 252l-217 -254l-41 35zM604 1554q68 0 137 148l47 -25q-84 -182 -188 -182q-37 0 -69.5 24t-53 53t-48 53t-54.5 24q-34 0 -66.5 -38.5
t-70.5 -111.5l-48 25q86 182 189 182q31 0 57.5 -15.5t46 -38t37.5 -45t39.5 -38t44.5 -15.5z" />
    <glyph glyph-name="uni1EAC" unicode="&#x1eac;" horiz-adv-x="1148" 
d="M575 1270l-270 -764h531l-154 446l-100 318h-7zM539 1368l75 8l473 -1376h-77l-154 444h-571l-158 -444h-76q12 33 35.5 98.5t36.5 98.5zM512 -293q0 31 18.5 49.5t49.5 18.5q26 0 42.5 -16.5t16.5 -43.5q0 -31 -18.5 -49t-47.5 -18q-28 0 -44.5 16.5t-16.5 42.5z
M545 1769l53 9l256 -217l-33 -41l-246 192l-245 -192l-35 39z" />
    <glyph glyph-name="uni1EAD" unicode="&#x1ead;" horiz-adv-x="925" 
d="M139 805q187 151 365 151q131 0 187.5 -86.5t56.5 -273.5v-254q0 -125 16 -338l-55 -8l-23 145q-172 -164 -354 -164q-103 0 -166.5 61t-63.5 169q0 123 111 203q121 87 469 114v37q0 184 -40.5 259t-139.5 75q-78 0 -164.5 -37t-165.5 -96zM334 37q80 0 171.5 45
t176.5 129v256q-193 -21 -290 -44t-142 -56q-80 -64 -80 -158q0 -81 45.5 -126.5t118.5 -45.5zM383 -293q0 31 18.5 49.5t49.5 18.5q27 0 43 -16.5t16 -43.5q0 -31 -18 -49t-48 -18q-28 0 -44.5 16.5t-16.5 42.5zM436 1403l53 8l228 -291l-41 -35l-211 252l-217 -254l-41 35
z" />
    <glyph glyph-name="uni1EAE" unicode="&#x1eae;" horiz-adv-x="1148" 
d="M575 1270l-270 -764h531l-154 446l-100 318h-7zM539 1368l75 8l473 -1376h-77l-154 444h-571l-158 -444h-76q12 33 35.5 98.5t36.5 98.5zM823 1724q-28 -97 -94.5 -146.5t-155.5 -49.5q-86 0 -149.5 48t-93.5 148l49 21q31 -84 79 -119t117 -35q70 0 120 35t81 119z
M416 1878l383 158l26 -64v-6l-391 -141z" />
    <glyph glyph-name="uni1EAF" unicode="&#x1eaf;" horiz-adv-x="925" 
d="M139 805q187 151 365 151q131 0 187.5 -86.5t56.5 -273.5v-254q0 -125 16 -338l-55 -8l-23 145q-172 -164 -354 -164q-103 0 -166.5 61t-63.5 169q0 123 111 203q121 87 469 114v37q0 184 -40.5 259t-139.5 75q-78 0 -164.5 -37t-165.5 -96zM334 37q80 0 171.5 45
t176.5 129v256q-193 -21 -290 -44t-142 -56q-80 -64 -80 -158q0 -81 45.5 -126.5t118.5 -45.5zM467 1167q162 0 197 191l49 -8q-37 -246 -248 -246q-204 0 -244 246l53 8q33 -191 193 -191zM410 1417l221 301l51 -39v-8l-229 -285z" />
    <glyph glyph-name="uni1EB0" unicode="&#x1eb0;" horiz-adv-x="1148" 
d="M575 1270l-270 -764h531l-154 446l-100 318h-7zM539 1368l75 8l473 -1376h-77l-154 444h-571l-158 -444h-76q12 33 35.5 98.5t36.5 98.5zM823 1724q-28 -97 -94.5 -146.5t-155.5 -49.5q-86 0 -149.5 48t-93.5 148l49 21q31 -84 79 -119t117 -35q70 0 120 35t81 119z
M313 1972l27 64l383 -158l-18 -53l-392 141v6z" />
    <glyph glyph-name="uni1EB1" unicode="&#x1eb1;" horiz-adv-x="925" 
d="M139 805q187 151 365 151q131 0 187.5 -86.5t56.5 -273.5v-254q0 -125 16 -338l-55 -8l-23 145q-172 -164 -354 -164q-103 0 -166.5 61t-63.5 169q0 123 111 203q121 87 469 114v37q0 184 -40.5 259t-139.5 75q-78 0 -164.5 -37t-165.5 -96zM334 37q80 0 171.5 45
t176.5 129v256q-193 -21 -290 -44t-142 -56q-80 -64 -80 -158q0 -81 45.5 -126.5t118.5 -45.5zM467 1167q162 0 197 191l49 -8q-37 -246 -248 -246q-204 0 -244 246l53 8q33 -191 193 -191zM262 1679l51 39l222 -301l-43 -31l-230 285v8z" />
    <glyph glyph-name="uni1EB2" unicode="&#x1eb2;" horiz-adv-x="1148" 
d="M575 1270l-270 -764h531l-154 446l-100 318h-7zM539 1368l75 8l473 -1376h-77l-154 444h-571l-158 -444h-76q12 33 35.5 98.5t36.5 98.5zM823 1724q-28 -97 -94.5 -146.5t-155.5 -49.5q-86 0 -149.5 48t-93.5 148l49 21q31 -84 79 -119t117 -35q70 0 120 35t81 119z
M481 2009l-10 49q43 17 88 17q70 0 112 -33.5t42 -97.5q0 -81 -56.5 -125.5t-148.5 -55.5l-8 52q72 11 111.5 40t39.5 84q0 80 -94 80q-34 0 -76 -10z" />
    <glyph glyph-name="uni1EB3" unicode="&#x1eb3;" horiz-adv-x="925" 
d="M139 805q187 151 365 151q131 0 187.5 -86.5t56.5 -273.5v-254q0 -125 16 -338l-55 -8l-23 145q-172 -164 -354 -164q-103 0 -166.5 61t-63.5 169q0 123 111 203q121 87 469 114v37q0 184 -40.5 259t-139.5 75q-78 0 -164.5 -37t-165.5 -96zM334 37q80 0 171.5 45
t176.5 129v256q-193 -21 -290 -44t-142 -56q-80 -64 -80 -158q0 -81 45.5 -126.5t118.5 -45.5zM467 1167q162 0 197 191l49 -8q-37 -246 -248 -246q-204 0 -244 246l53 8q33 -191 193 -191zM373 1655l-13 51q40 16 86 16q72 0 116 -36.5t44 -104.5q0 -85 -57.5 -129.5
t-149.5 -56.5l-8 51q154 25 154 131q0 45 -27 67.5t-74 22.5q-33 0 -71 -12z" />
    <glyph glyph-name="uni1EB4" unicode="&#x1eb4;" horiz-adv-x="1148" 
d="M575 1270l-270 -764h531l-154 446l-100 318h-7zM539 1368l75 8l473 -1376h-77l-154 444h-571l-158 -444h-76q12 33 35.5 98.5t36.5 98.5zM823 1724q-28 -97 -94.5 -146.5t-155.5 -49.5q-86 0 -149.5 48t-93.5 148l49 21q31 -84 79 -119t117 -35q70 0 120 35t81 119z
M692 1905q35 0 73 37t69 102l47 -29q-85 -170 -193 -170q-37 0 -70.5 22t-54.5 49t-47.5 49t-52.5 22q-70 0 -144 -138l-47 29q86 168 195 168q38 0 71 -22t53 -48.5t47 -48.5t54 -22z" />
    <glyph glyph-name="uni1EB5" unicode="&#x1eb5;" horiz-adv-x="925" 
d="M139 805q187 151 365 151q131 0 187.5 -86.5t56.5 -273.5v-254q0 -125 16 -338l-55 -8l-23 145q-172 -164 -354 -164q-103 0 -166.5 61t-63.5 169q0 123 111 203q121 87 469 114v37q0 184 -40.5 259t-139.5 75q-78 0 -164.5 -37t-165.5 -96zM334 37q80 0 171.5 45
t176.5 129v256q-193 -21 -290 -44t-142 -56q-80 -64 -80 -158q0 -81 45.5 -126.5t118.5 -45.5zM467 1167q162 0 197 191l49 -8q-37 -246 -248 -246q-204 0 -244 246l53 8q33 -191 193 -191zM594 1554q68 0 137 148l47 -25q-84 -182 -188 -182q-37 0 -69.5 24t-53 53t-48 53
t-54.5 24q-34 0 -67 -39t-71 -111l-47 25q86 182 189 182q31 0 57.5 -15.5t46 -38t37.5 -45t39.5 -38t44.5 -15.5z" />
    <glyph glyph-name="uni1EB6" unicode="&#x1eb6;" horiz-adv-x="1148" 
d="M575 1270l-270 -764h531l-154 446l-100 318h-7zM539 1368l75 8l473 -1376h-77l-154 444h-571l-158 -444h-76q12 33 35.5 98.5t36.5 98.5zM512 -293q0 31 18.5 49.5t49.5 18.5q26 0 42.5 -16.5t16.5 -43.5q0 -31 -18.5 -49t-47.5 -18q-28 0 -44.5 16.5t-16.5 42.5z
M823 1735q-28 -97 -94.5 -147t-155.5 -50q-86 0 -149.5 48.5t-93.5 148.5l49 20q31 -84 79 -118.5t117 -34.5q71 0 120.5 35t80.5 118z" />
    <glyph glyph-name="uni1EB7" unicode="&#x1eb7;" horiz-adv-x="925" 
d="M139 805q187 151 365 151q131 0 187.5 -86.5t56.5 -273.5v-254q0 -125 16 -338l-55 -8l-23 145q-172 -164 -354 -164q-103 0 -166.5 61t-63.5 169q0 123 111 203q121 87 469 114v37q0 184 -40.5 259t-139.5 75q-78 0 -164.5 -37t-165.5 -96zM334 37q80 0 171.5 45
t176.5 129v256q-193 -21 -290 -44t-142 -56q-80 -64 -80 -158q0 -81 45.5 -126.5t118.5 -45.5zM383 -293q0 31 18.5 49.5t49.5 18.5q27 0 43 -16.5t16 -43.5q0 -31 -18 -49t-48 -18q-28 0 -44.5 16.5t-16.5 42.5zM467 1167q162 0 197 191l49 -8q-37 -246 -248 -246
q-204 0 -244 246l53 8q33 -191 193 -191z" />
    <glyph glyph-name="uni1EBA" unicode="&#x1eba;" horiz-adv-x="1064" 
d="M215 1372h725l-2 -61h-655v-578h538v-63h-538v-609h655l2 -61h-725v1372zM479 1780l-12 51q44 14 90 14q69 0 111.5 -33t42.5 -98q0 -81 -57 -124.5t-148 -53.5l-8 51q71 12 110 40t39 83q0 82 -92 82q-39 0 -76 -12z" />
    <glyph glyph-name="uni1EBB" unicode="&#x1ebb;" horiz-adv-x="960" 
d="M125 465q0 214 108.5 356t284.5 142q150 0 233 -103.5t83 -257.5q0 -51 -11 -137h-630q0 -206 92 -316t239 -110q136 0 269 57l22 -51q-151 -68 -303 -68q-78 0 -147 31t-123 89.5t-85.5 153.5t-31.5 214zM518 901q-136 0 -222.5 -101t-100.5 -276h569q4 54 4 86
q0 124 -67 207.5t-183 83.5zM408 1337l-13 52q44 14 86 14q72 0 116 -36t44 -103q0 -85 -58 -131t-151 -56l-8 51q154 21 154 132q0 44 -26.5 66t-72.5 22q-25 0 -71 -11z" />
    <glyph glyph-name="uni1EBC" unicode="&#x1ebc;" horiz-adv-x="1064" 
d="M215 1372h725l-2 -61h-655v-578h538v-63h-538v-609h655l2 -61h-725v1372zM692 1575q34 0 72 41t70 108l49 -28q-90 -180 -193 -180q-31 0 -58 15.5t-47 38t-39 44.5t-40 37.5t-43 15.5q-62 0 -141 -147l-50 26q93 180 197 180q38 0 71 -23.5t53 -52t46.5 -52t52.5 -23.5z
" />
    <glyph glyph-name="uni1EBD" unicode="&#x1ebd;" horiz-adv-x="960" 
d="M125 465q0 214 108.5 356t284.5 142q150 0 233 -103.5t83 -257.5q0 -51 -11 -137h-630q0 -206 92 -316t239 -110q136 0 269 57l22 -51q-151 -68 -303 -68q-78 0 -147 31t-123 89.5t-85.5 153.5t-31.5 214zM518 901q-136 0 -222.5 -101t-100.5 -276h569q4 54 4 86
q0 124 -67 207.5t-183 83.5zM621 1167q33 0 68 40t67 108l47 -25q-39 -83 -87 -132.5t-100 -49.5q-30 0 -57 16t-47 38.5t-38.5 45t-40.5 38.5t-44 16q-34 0 -67 -38.5t-70 -111.5l-47 25q84 182 188 182q31 0 58 -15.5t46.5 -38t38 -45t40.5 -38t45 -15.5z" />
    <glyph glyph-name="uni1EBE" unicode="&#x1ebe;" horiz-adv-x="1064" 
d="M215 1372h725l-2 -61h-655v-578h538v-63h-538v-609h655l2 -61h-725v1372zM547 1749l53 8l256 -217l-33 -41l-245 193l-246 -193l-35 39zM397 1878l383 158l27 -64v-6l-391 -141z" />
    <glyph glyph-name="uni1EBF" unicode="&#x1ebf;" horiz-adv-x="960" 
d="M125 465q0 214 108.5 356t284.5 142q150 0 233 -103.5t83 -257.5q0 -51 -11 -137h-630q0 -206 92 -316t239 -110q136 0 269 57l22 -51q-151 -68 -303 -68q-78 0 -147 31t-123 89.5t-85.5 153.5t-31.5 214zM518 901q-136 0 -222.5 -101t-100.5 -276h569q4 54 4 86
q0 124 -67 207.5t-183 83.5zM475 1382l53 9l228 -291l-41 -35l-211 252l-217 -254l-41 35zM694 1417l221 301l52 -39v-8l-230 -285z" />
    <glyph glyph-name="uni1EC0" unicode="&#x1ec0;" horiz-adv-x="1064" 
d="M215 1372h725l-2 -61h-655v-578h538v-63h-538v-609h655l2 -61h-725v1372zM547 1749l53 8l256 -217l-33 -41l-245 193l-246 -193l-35 39zM360 1972l27 64l383 -158l-18 -53l-392 141v6z" />
    <glyph glyph-name="uni1EC1" unicode="&#x1ec1;" horiz-adv-x="960" 
d="M125 465q0 214 108.5 356t284.5 142q150 0 233 -103.5t83 -257.5q0 -51 -11 -137h-630q0 -206 92 -316t239 -110q136 0 269 57l22 -51q-151 -68 -303 -68q-78 0 -147 31t-123 89.5t-85.5 153.5t-31.5 214zM518 901q-136 0 -222.5 -101t-100.5 -276h569q4 54 4 86
q0 124 -67 207.5t-183 83.5zM475 1382l53 9l228 -291l-41 -35l-211 252l-217 -254l-41 35zM532 1679l54 39l219 -301l-41 -31l-232 285v8z" />
    <glyph glyph-name="uni1EC2" unicode="&#x1ec2;" horiz-adv-x="1064" 
d="M215 1372h725l-2 -61h-655v-578h538v-63h-538v-609h655l2 -61h-725v1372zM547 1749l53 8l256 -217l-33 -41l-245 193l-246 -193l-35 39zM702 2009l-10 49q42 17 90 17q69 0 110.5 -33.5t41.5 -97.5q0 -81 -56.5 -125.5t-148.5 -55.5l-8 52q72 11 111.5 40t39.5 84
q0 80 -94 80q-34 0 -76 -10z" />
    <glyph glyph-name="uni1EC3" unicode="&#x1ec3;" horiz-adv-x="960" 
d="M125 465q0 214 108.5 356t284.5 142q150 0 233 -103.5t83 -257.5q0 -51 -11 -137h-630q0 -206 92 -316t239 -110q136 0 269 57l22 -51q-151 -68 -303 -68q-78 0 -147 31t-123 89.5t-85.5 153.5t-31.5 214zM518 901q-136 0 -222.5 -101t-100.5 -276h569q4 54 4 86
q0 124 -67 207.5t-183 83.5zM475 1382l53 9l228 -291l-41 -35l-211 252l-217 -254l-41 35zM651 1655l-12 51q40 16 86 16q72 0 116 -36.5t44 -104.5q0 -160 -207 -186l-8 51q153 25 153 131q0 45 -27 67.5t-73 22.5q-35 0 -72 -12z" />
    <glyph glyph-name="uni1EC4" unicode="&#x1ec4;" horiz-adv-x="1064" 
d="M215 1372h725l-2 -61h-655v-578h538v-63h-538v-609h655l2 -61h-725v1372zM692 1905q35 0 73 37t69 102l49 -29q-85 -170 -193 -170q-31 0 -58 14.5t-47 35.5t-39 42t-40 35.5t-43 14.5q-67 0 -141 -138l-50 29q89 168 197 168q38 0 71 -22t53 -48.5t46.5 -48.5t52.5 -22z
M547 1749l53 8l256 -217l-33 -41l-245 193l-246 -193l-35 39z" />
    <glyph glyph-name="uni1EC5" unicode="&#x1ec5;" horiz-adv-x="960" 
d="M125 465q0 214 108.5 356t284.5 142q150 0 233 -103.5t83 -257.5q0 -51 -11 -137h-630q0 -206 92 -316t239 -110q136 0 269 57l22 -51q-151 -68 -303 -68q-78 0 -147 31t-123 89.5t-85.5 153.5t-31.5 214zM518 901q-136 0 -222.5 -101t-100.5 -276h569q4 54 4 86
q0 124 -67 207.5t-183 83.5zM475 1382l53 9l228 -291l-41 -35l-211 252l-217 -254l-41 35zM643 1554q68 0 137 148l47 -25q-84 -182 -188 -182q-37 0 -69.5 24t-53 53t-48 53t-54.5 24q-34 0 -67 -39t-71 -111l-47 25q86 182 189 182q31 0 57.5 -15.5t46 -38t37.5 -45
t39.5 -38t44.5 -15.5z" />
    <glyph glyph-name="uni1EC6" unicode="&#x1ec6;" horiz-adv-x="1064" 
d="M215 1372h725l-2 -61h-655v-578h538v-63h-538v-609h655l2 -61h-725v1372zM514 -293q0 31 18.5 49.5t49.5 18.5q26 0 42.5 -16.5t16.5 -43.5q0 -31 -18.5 -49t-47.5 -18q-28 0 -44.5 16.5t-16.5 42.5zM547 1769l53 9l256 -217l-33 -41l-245 192l-246 -192l-35 39z" />
    <glyph glyph-name="uni1EC7" unicode="&#x1ec7;" horiz-adv-x="960" 
d="M125 465q0 214 108.5 356t284.5 142q150 0 233 -103.5t83 -257.5q0 -51 -11 -137h-630q0 -206 92 -316t239 -110q136 0 269 57l22 -51q-151 -68 -303 -68q-78 0 -147 31t-123 89.5t-85.5 153.5t-31.5 214zM518 901q-136 0 -222.5 -101t-100.5 -276h569q4 54 4 86
q0 124 -67 207.5t-183 83.5zM436 -293q0 31 18.5 49.5t49.5 18.5q26 0 42.5 -16.5t16.5 -43.5q0 -31 -18 -49t-47 -18q-28 0 -45 16.5t-17 42.5zM475 1403l53 8l228 -291l-41 -35l-211 252l-217 -254l-41 35z" />
    <glyph glyph-name="uni1EC8" unicode="&#x1ec8;" horiz-adv-x="497" 
d="M215 1372h68v-1372h-68v1372zM152 1780l-13 51q44 14 90 14q69 0 111.5 -33t42.5 -98q0 -81 -57 -124.5t-148 -53.5l-8 51q71 12 110 40t39 83q0 82 -92 82q-37 0 -75 -12z" />
    <glyph glyph-name="uni1EC9" unicode="&#x1ec9;" horiz-adv-x="434" 
d="M184 932l66 4v-936h-66v932zM123 1337l-12 52q44 14 86 14q71 0 115 -36t44 -103q0 -85 -58 -131t-151 -56l-8 51q154 21 154 132q0 88 -98 88q-26 0 -72 -11z" />
    <glyph glyph-name="uni1ECE" unicode="&#x1ece;" horiz-adv-x="1374" 
d="M131 670q0 104 19 205t62.5 197t106 168.5t157.5 116.5t210 44q128 0 234 -55t176 -149.5t108.5 -222t38.5 -272.5q0 -104 -19 -205t-62 -197t-105.5 -168.5t-157 -116.5t-209.5 -44q-129 0 -235.5 55t-176.5 149.5t-108.5 222t-38.5 272.5zM1169 686q0 137 -32.5 255.5
t-93 206t-152 137.5t-203.5 50q-152 0 -264 -90q-114 -88 -165.5 -238.5t-51.5 -320.5q0 -137 32.5 -255.5t93 -206t152 -137.5t203.5 -50q150 0 266 90q77 60 127 157t69 195.5t19 206.5zM588 1780l-13 51q44 14 91 14q69 0 111 -33t42 -98q0 -81 -57 -124.5t-148 -53.5
l-8 51q150 24 150 123q0 82 -92 82q-38 0 -76 -12z" />
    <glyph glyph-name="uni1ECF" unicode="&#x1ecf;" horiz-adv-x="1030" 
d="M125 465q0 68 13 136t43.5 134t74.5 116t112 81t150 31q179 0 283 -138t104 -354q0 -69 -13 -137t-43.5 -134.5t-74.5 -116.5t-111 -81t-149 -31q-179 0 -284 138.5t-105 355.5zM838 463q0 193 -85.5 315.5t-240.5 122.5q-119 0 -199 -74q-120 -114 -120 -356
q0 -194 84.5 -316t240.5 -122q124 0 203 76q117 114 117 354zM418 1337l-12 52q44 14 86 14q71 0 115 -36t44 -103q0 -85 -58 -131t-151 -56l-8 51q154 21 154 132q0 44 -26.5 66t-72.5 22q-25 0 -71 -11z" />
    <glyph glyph-name="uni1ED0" unicode="&#x1ed0;" horiz-adv-x="1374" 
d="M131 670q0 104 19 205t62.5 197t106 168.5t157.5 116.5t210 44q128 0 234 -55t176 -149.5t108.5 -222t38.5 -272.5q0 -104 -19 -205t-62 -197t-105.5 -168.5t-157 -116.5t-209.5 -44q-129 0 -235.5 55t-176.5 149.5t-108.5 222t-38.5 272.5zM1169 686q0 137 -32.5 255.5
t-93 206t-152 137.5t-203.5 50q-152 0 -264 -90q-114 -88 -165.5 -238.5t-51.5 -320.5q0 -137 32.5 -255.5t93 -206t152 -137.5t203.5 -50q150 0 266 90q77 60 127 157t69 195.5t19 206.5zM655 1749l54 8l256 -217l-33 -41l-246 193l-246 -193l-34 39zM506 1878l383 158
l26 -64v-6l-391 -141z" />
    <glyph glyph-name="uni1ED1" unicode="&#x1ed1;" horiz-adv-x="1030" 
d="M125 465q0 68 13 136t43.5 134t74.5 116t112 81t150 31q179 0 283 -138t104 -354q0 -69 -13 -137t-43.5 -134.5t-74.5 -116.5t-111 -81t-149 -31q-179 0 -284 138.5t-105 355.5zM838 463q0 193 -85.5 315.5t-240.5 122.5q-119 0 -199 -74q-120 -114 -120 -356
q0 -194 84.5 -316t240.5 -122q124 0 203 76q117 114 117 354zM485 1382l54 9l227 -291l-41 -35l-211 252l-217 -254l-41 35zM705 1417l221 301l51 -39v-8l-229 -285z" />
    <glyph glyph-name="uni1ED2" unicode="&#x1ed2;" horiz-adv-x="1374" 
d="M131 670q0 104 19 205t62.5 197t106 168.5t157.5 116.5t210 44q128 0 234 -55t176 -149.5t108.5 -222t38.5 -272.5q0 -104 -19 -205t-62 -197t-105.5 -168.5t-157 -116.5t-209.5 -44q-129 0 -235.5 55t-176.5 149.5t-108.5 222t-38.5 272.5zM1169 686q0 137 -32.5 255.5
t-93 206t-152 137.5t-203.5 50q-152 0 -264 -90q-114 -88 -165.5 -238.5t-51.5 -320.5q0 -137 32.5 -255.5t93 -206t152 -137.5t203.5 -50q150 0 266 90q77 60 127 157t69 195.5t19 206.5zM655 1749l54 8l256 -217l-33 -41l-246 193l-246 -193l-34 39zM469 1972l27 64
l383 -158l-19 -53l-391 141v6z" />
    <glyph glyph-name="uni1ED3" unicode="&#x1ed3;" horiz-adv-x="1030" 
d="M125 465q0 68 13 136t43.5 134t74.5 116t112 81t150 31q179 0 283 -138t104 -354q0 -69 -13 -137t-43.5 -134.5t-74.5 -116.5t-111 -81t-149 -31q-179 0 -284 138.5t-105 355.5zM838 463q0 193 -85.5 315.5t-240.5 122.5q-119 0 -199 -74q-120 -114 -120 -356
q0 -194 84.5 -316t240.5 -122q124 0 203 76q117 114 117 354zM485 1382l54 9l227 -291l-41 -35l-211 252l-217 -254l-41 35zM543 1679l53 39l219 -301l-41 -31l-231 285v8z" />
    <glyph glyph-name="uni1ED4" unicode="&#x1ed4;" horiz-adv-x="1374" 
d="M131 670q0 104 19 205t62.5 197t106 168.5t157.5 116.5t210 44q128 0 234 -55t176 -149.5t108.5 -222t38.5 -272.5q0 -104 -19 -205t-62 -197t-105.5 -168.5t-157 -116.5t-209.5 -44q-129 0 -235.5 55t-176.5 149.5t-108.5 222t-38.5 272.5zM1169 686q0 137 -32.5 255.5
t-93 206t-152 137.5t-203.5 50q-152 0 -264 -90q-114 -88 -165.5 -238.5t-51.5 -320.5q0 -137 32.5 -255.5t93 -206t152 -137.5t203.5 -50q150 0 266 90q77 60 127 157t69 195.5t19 206.5zM655 1749l54 8l256 -217l-33 -41l-246 193l-246 -193l-34 39zM811 2009l-10 49
q43 17 90 17q69 0 110 -33.5t41 -97.5q0 -81 -56 -125.5t-148 -55.5l-9 52q152 24 152 124q0 80 -94 80q-34 0 -76 -10z" />
    <glyph glyph-name="uni1ED5" unicode="&#x1ed5;" horiz-adv-x="1030" 
d="M125 465q0 68 13 136t43.5 134t74.5 116t112 81t150 31q179 0 283 -138t104 -354q0 -69 -13 -137t-43.5 -134.5t-74.5 -116.5t-111 -81t-149 -31q-179 0 -284 138.5t-105 355.5zM838 463q0 193 -85.5 315.5t-240.5 122.5q-119 0 -199 -74q-120 -114 -120 -356
q0 -194 84.5 -316t240.5 -122q124 0 203 76q117 114 117 354zM485 1382l54 9l227 -291l-41 -35l-211 252l-217 -254l-41 35zM662 1655l-13 51q40 16 86 16q72 0 116 -36.5t44 -104.5q0 -160 -207 -186l-8 51q154 25 154 131q0 45 -27 67.5t-74 22.5q-33 0 -71 -12z" />
    <glyph glyph-name="uni1ED6" unicode="&#x1ed6;" horiz-adv-x="1374" 
d="M131 670q0 104 19 205t62.5 197t106 168.5t157.5 116.5t210 44q128 0 234 -55t176 -149.5t108.5 -222t38.5 -272.5q0 -104 -19 -205t-62 -197t-105.5 -168.5t-157 -116.5t-209.5 -44q-129 0 -235.5 55t-176.5 149.5t-108.5 222t-38.5 272.5zM1169 686q0 137 -32.5 255.5
t-93 206t-152 137.5t-203.5 50q-152 0 -264 -90q-114 -88 -165.5 -238.5t-51.5 -320.5q0 -137 32.5 -255.5t93 -206t152 -137.5t203.5 -50q150 0 266 90q77 60 127 157t69 195.5t19 206.5zM801 1905q35 0 72.5 37t68.5 102l49 -29q-85 -170 -192 -170q-31 0 -58.5 14.5
t-47.5 35.5t-38.5 42t-40 35.5t-43.5 14.5q-67 0 -141 -138l-49 29q89 168 197 168q38 0 71 -22t53 -48.5t46.5 -48.5t52.5 -22zM655 1749l54 8l256 -217l-33 -41l-246 193l-246 -193l-34 39z" />
    <glyph glyph-name="uni1ED7" unicode="&#x1ed7;" horiz-adv-x="1030" 
d="M125 465q0 68 13 136t43.5 134t74.5 116t112 81t150 31q179 0 283 -138t104 -354q0 -69 -13 -137t-43.5 -134.5t-74.5 -116.5t-111 -81t-149 -31q-179 0 -284 138.5t-105 355.5zM838 463q0 193 -85.5 315.5t-240.5 122.5q-119 0 -199 -74q-120 -114 -120 -356
q0 -194 84.5 -316t240.5 -122q124 0 203 76q117 114 117 354zM485 1382l54 9l227 -291l-41 -35l-211 252l-217 -254l-41 35zM653 1554q34 0 70 40t68 108l47 -25q-39 -84 -87.5 -133t-101.5 -49q-37 0 -69.5 24t-53 53t-48 53t-54.5 24q-34 0 -66.5 -38.5t-70.5 -111.5
l-47 25q86 182 188 182q31 0 57.5 -15.5t46 -38t37.5 -45t39.5 -38t44.5 -15.5z" />
    <glyph glyph-name="uni1ED8" unicode="&#x1ed8;" horiz-adv-x="1374" 
d="M131 670q0 104 19 205t62.5 197t106 168.5t157.5 116.5t210 44q128 0 234 -55t176 -149.5t108.5 -222t38.5 -272.5q0 -104 -19 -205t-62 -197t-105.5 -168.5t-157 -116.5t-209.5 -44q-129 0 -235.5 55t-176.5 149.5t-108.5 222t-38.5 272.5zM1169 686q0 137 -32.5 255.5
t-93 206t-152 137.5t-203.5 50q-152 0 -264 -90q-114 -88 -165.5 -238.5t-51.5 -320.5q0 -137 32.5 -255.5t93 -206t152 -137.5t203.5 -50q150 0 266 90q77 60 127 157t69 195.5t19 206.5zM625 -293q0 31 18 49.5t49 18.5q27 0 43.5 -16.5t16.5 -43.5q0 -31 -18 -49t-48 -18
q-28 0 -44.5 16.5t-16.5 42.5zM655 1769l54 9l256 -217l-33 -41l-246 192l-246 -192l-34 39z" />
    <glyph glyph-name="uni1ED9" unicode="&#x1ed9;" horiz-adv-x="1030" 
d="M125 465q0 68 13 136t43.5 134t74.5 116t112 81t150 31q179 0 283 -138t104 -354q0 -69 -13 -137t-43.5 -134.5t-74.5 -116.5t-111 -81t-149 -31q-179 0 -284 138.5t-105 355.5zM838 463q0 193 -85.5 315.5t-240.5 122.5q-119 0 -199 -74q-120 -114 -120 -356
q0 -194 84.5 -316t240.5 -122q124 0 203 76q117 114 117 354zM455 -293q0 31 18 49.5t49 18.5q27 0 43.5 -16.5t16.5 -43.5q0 -31 -18 -49t-48 -18q-28 0 -44.5 16.5t-16.5 42.5zM485 1403l54 8l227 -291l-41 -35l-211 252l-217 -254l-41 35z" />
    <glyph glyph-name="uni1EDA" unicode="&#x1eda;" horiz-adv-x="1374" 
d="M131 670q0 104 19 205t62.5 197t106 168.5t157.5 116.5t210 44q93 0 184 -33q74 -16 119 -16q121 0 121 94q0 50 -39 113l59 8q41 -66 41 -125q0 -150 -167 -150q115 -92 177 -246.5t62 -343.5q0 -104 -19 -205t-62 -197t-105.5 -168.5t-157 -116.5t-209.5 -44
q-129 0 -235.5 55t-176.5 149.5t-108.5 222t-38.5 272.5zM1169 686q0 137 -32.5 255.5t-93 206t-152 137.5t-203.5 50q-152 0 -264 -90q-114 -88 -165.5 -238.5t-51.5 -320.5q0 -137 32.5 -255.5t93 -206t152 -137.5t203.5 -50q150 0 266 90q77 60 127 157t69 195.5
t19 206.5zM532 1587l386 160l26 -64v-6l-393 -141z" />
    <glyph glyph-name="uni1EDB" unicode="&#x1edb;" horiz-adv-x="1030" 
d="M125 465q0 68 13 136t43.5 134t74.5 116t112 81t150 31q78 0 156 -33q42 -17 76 -17q60 0 84 22t24 62q0 46 -37 113l56 8q43 -69 43 -125q0 -120 -150 -133q135 -135 135 -389q0 -69 -13 -137t-43.5 -134.5t-74.5 -116.5t-111 -81t-149 -31q-179 0 -284 138.5
t-105 355.5zM838 463q0 193 -85.5 315.5t-240.5 122.5q-119 0 -199 -74q-120 -114 -120 -356q0 -194 84.5 -316t240.5 -122q124 0 203 76q117 114 117 354zM414 1122l282 303l49 -43v-8l-294 -287z" />
    <glyph glyph-name="uni1EDC" unicode="&#x1edc;" horiz-adv-x="1374" 
d="M131 670q0 104 19 205t62.5 197t106 168.5t157.5 116.5t210 44q93 0 184 -33q74 -16 119 -16q121 0 121 94q0 50 -39 113l59 8q41 -66 41 -125q0 -150 -167 -150q115 -92 177 -246.5t62 -343.5q0 -104 -19 -205t-62 -197t-105.5 -168.5t-157 -116.5t-209.5 -44
q-129 0 -235.5 55t-176.5 149.5t-108.5 222t-38.5 272.5zM1169 686q0 137 -32.5 255.5t-93 206t-152 137.5t-203.5 50q-152 0 -264 -90q-114 -88 -165.5 -238.5t-51.5 -320.5q0 -137 32.5 -255.5t93 -206t152 -137.5t203.5 -50q150 0 266 90q77 60 127 157t69 195.5
t19 206.5zM432 1686l27 61l385 -158l-21 -53l-391 141v9z" />
    <glyph glyph-name="uni1EDD" unicode="&#x1edd;" horiz-adv-x="1030" 
d="M125 465q0 68 13 136t43.5 134t74.5 116t112 81t150 31q78 0 156 -33q42 -17 76 -17q60 0 84 22t24 62q0 46 -37 113l56 8q43 -69 43 -125q0 -120 -150 -133q135 -135 135 -389q0 -69 -13 -137t-43.5 -134.5t-74.5 -116.5t-111 -81t-149 -31q-179 0 -284 138.5
t-105 355.5zM838 463q0 193 -85.5 315.5t-240.5 122.5q-119 0 -199 -74q-120 -114 -120 -356q0 -194 84.5 -316t240.5 -122q124 0 203 76q117 114 117 354zM317 1382l50 43l282 -303l-37 -35l-295 287v8z" />
    <glyph glyph-name="uni1EDE" unicode="&#x1ede;" horiz-adv-x="1374" 
d="M131 670q0 104 19 205t62.5 197t106 168.5t157.5 116.5t210 44q93 0 184 -33q74 -16 119 -16q121 0 121 94q0 50 -39 113l59 8q41 -66 41 -125q0 -150 -167 -150q115 -92 177 -246.5t62 -343.5q0 -104 -19 -205t-62 -197t-105.5 -168.5t-157 -116.5t-209.5 -44
q-129 0 -235.5 55t-176.5 149.5t-108.5 222t-38.5 272.5zM1169 686q0 137 -32.5 255.5t-93 206t-152 137.5t-203.5 50q-152 0 -264 -90q-114 -88 -165.5 -238.5t-51.5 -320.5q0 -137 32.5 -255.5t93 -206t152 -137.5t203.5 -50q150 0 266 90q77 60 127 157t69 195.5
t19 206.5zM588 1780l-13 51q44 14 91 14q69 0 111 -33t42 -98q0 -81 -57 -124.5t-148 -53.5l-8 51q150 24 150 123q0 82 -92 82q-38 0 -76 -12z" />
    <glyph glyph-name="uni1EDF" unicode="&#x1edf;" horiz-adv-x="1030" 
d="M125 465q0 68 13 136t43.5 134t74.5 116t112 81t150 31q78 0 156 -33q42 -17 76 -17q60 0 84 22t24 62q0 46 -37 113l56 8q43 -69 43 -125q0 -120 -150 -133q135 -135 135 -389q0 -69 -13 -137t-43.5 -134.5t-74.5 -116.5t-111 -81t-149 -31q-179 0 -284 138.5
t-105 355.5zM838 463q0 193 -85.5 315.5t-240.5 122.5q-119 0 -199 -74q-120 -114 -120 -356q0 -194 84.5 -316t240.5 -122q124 0 203 76q117 114 117 354zM418 1337l-12 52q44 14 86 14q71 0 115 -36t44 -103q0 -85 -58 -131t-151 -56l-8 51q154 21 154 132q0 44 -26.5 66
t-72.5 22q-25 0 -71 -11z" />
    <glyph glyph-name="uni1EE0" unicode="&#x1ee0;" horiz-adv-x="1374" 
d="M131 670q0 104 19 205t62.5 197t106 168.5t157.5 116.5t210 44q93 0 184 -33q74 -16 119 -16q121 0 121 94q0 50 -39 113l59 8q41 -66 41 -125q0 -150 -167 -150q115 -92 177 -246.5t62 -343.5q0 -104 -19 -205t-62 -197t-105.5 -168.5t-157 -116.5t-209.5 -44
q-129 0 -235.5 55t-176.5 149.5t-108.5 222t-38.5 272.5zM1169 686q0 137 -32.5 255.5t-93 206t-152 137.5t-203.5 50q-152 0 -264 -90q-114 -88 -165.5 -238.5t-51.5 -320.5q0 -137 32.5 -255.5t93 -206t152 -137.5t203.5 -50q150 0 266 90q77 60 127 157t69 195.5
t19 206.5zM793 1575q34 0 71.5 41t69.5 108l49 -28q-90 -180 -192 -180q-31 0 -58.5 15.5t-47.5 38t-38.5 44.5t-40 37.5t-43.5 15.5q-62 0 -141 -147l-49 26q93 180 196 180q31 0 58.5 -15.5t47 -38t37.5 -44.5t38.5 -37.5t42.5 -15.5z" />
    <glyph glyph-name="uni1EE1" unicode="&#x1ee1;" horiz-adv-x="1030" 
d="M125 465q0 68 13 136t43.5 134t74.5 116t112 81t150 31q78 0 156 -33q42 -17 76 -17q60 0 84 22t24 62q0 46 -37 113l56 8q43 -69 43 -125q0 -120 -150 -133q135 -135 135 -389q0 -69 -13 -137t-43.5 -134.5t-74.5 -116.5t-111 -81t-149 -31q-179 0 -284 138.5
t-105 355.5zM838 463q0 193 -85.5 315.5t-240.5 122.5q-119 0 -199 -74q-120 -114 -120 -356q0 -194 84.5 -316t240.5 -122q124 0 203 76q117 114 117 354zM629 1167q33 0 68 40t67 108l47 -25q-86 -182 -186 -182q-37 0 -70 24t-54 53t-49 53t-55 24q-34 0 -67 -38.5
t-70 -111.5l-47 25q84 182 188 182q31 0 58 -15.5t46.5 -38t38 -45t40.5 -38t45 -15.5z" />
    <glyph glyph-name="uni1EE2" unicode="&#x1ee2;" horiz-adv-x="1374" 
d="M131 670q0 104 19 205t62.5 197t106 168.5t157.5 116.5t210 44q93 0 184 -33q74 -16 119 -16q121 0 121 94q0 50 -39 113l59 8q41 -66 41 -125q0 -150 -167 -150q115 -92 177 -246.5t62 -343.5q0 -104 -19 -205t-62 -197t-105.5 -168.5t-157 -116.5t-209.5 -44
q-129 0 -235.5 55t-176.5 149.5t-108.5 222t-38.5 272.5zM1169 686q0 137 -32.5 255.5t-93 206t-152 137.5t-203.5 50q-152 0 -264 -90q-114 -88 -165.5 -238.5t-51.5 -320.5q0 -137 32.5 -255.5t93 -206t152 -137.5t203.5 -50q150 0 266 90q77 60 127 157t69 195.5
t19 206.5zM625 -293q0 31 18 49.5t49 18.5q27 0 43.5 -16.5t16.5 -43.5q0 -31 -18 -49t-48 -18q-28 0 -44.5 16.5t-16.5 42.5z" />
    <glyph glyph-name="uni1EE3" unicode="&#x1ee3;" horiz-adv-x="1030" 
d="M125 465q0 68 13 136t43.5 134t74.5 116t112 81t150 31q78 0 156 -33q42 -17 76 -17q60 0 84 22t24 62q0 46 -37 113l56 8q43 -69 43 -125q0 -120 -150 -133q135 -135 135 -389q0 -69 -13 -137t-43.5 -134.5t-74.5 -116.5t-111 -81t-149 -31q-179 0 -284 138.5
t-105 355.5zM838 463q0 193 -85.5 315.5t-240.5 122.5q-119 0 -199 -74q-120 -114 -120 -356q0 -194 84.5 -316t240.5 -122q124 0 203 76q117 114 117 354zM455 -293q0 31 18 49.5t49 18.5q27 0 43.5 -16.5t16.5 -43.5q0 -31 -18 -49t-48 -18q-28 0 -44.5 16.5t-16.5 42.5z
" />
    <glyph glyph-name="uni1EE6" unicode="&#x1ee6;" horiz-adv-x="1257" 
d="M989 1372h68v-856q0 -98 -12.5 -177t-43 -149t-79.5 -117t-124.5 -74.5t-174.5 -27.5q-205 0 -313.5 117t-108.5 373v911h67v-872q0 -86 8.5 -152t33 -127.5t65 -101t107.5 -63t157 -23.5q74 0 136.5 25t98.5 61q115 107 115 358v895zM530 1780l-12 51q44 14 90 14
q69 0 111.5 -33t42.5 -98q0 -81 -57 -124.5t-148 -53.5l-8 51q71 12 110 40t39 83q0 82 -92 82q-38 0 -76 -12z" />
    <glyph glyph-name="uni1EE7" unicode="&#x1ee7;" horiz-adv-x="1017" 
d="M174 932l66 4v-617q0 -148 46.5 -217t149.5 -69q149 0 330 188v713h65v-592q0 -103 17 -338l-57 -8l-21 158q-179 -183 -346 -183q-250 0 -250 328v633zM399 1337l-12 52q44 14 86 14q72 0 116 -36t44 -103q0 -85 -58 -131t-151 -56l-8 51q153 21 153 132q0 88 -98 88
q-26 0 -72 -11z" />
    <glyph glyph-name="uni1EE8" unicode="&#x1ee8;" horiz-adv-x="1249" 
d="M989 1372h35q76 0 103.5 23t27.5 67q0 50 -39 117l58 8q43 -67 43 -129q0 -61 -35.5 -99t-124.5 -44v-799q0 -98 -12.5 -177t-43 -149t-79.5 -117t-124.5 -74.5t-174.5 -27.5q-205 0 -313.5 117t-108.5 373v911h67v-872q0 -86 8.5 -152t33 -127.5t65 -101t107.5 -63
t157 -23.5q74 0 136.5 25t98.5 61q115 107 115 358v895zM475 1587l385 160l27 -64v-6l-393 -141z" />
    <glyph glyph-name="uni1EE9" unicode="&#x1ee9;" horiz-adv-x="1017" 
d="M893 1130l57 9q41 -66 41 -125q0 -123 -160 -133v-539q0 -103 17 -338l-57 -8l-21 158q-179 -183 -346 -183q-250 0 -250 328v633l66 4v-617q0 -148 46.5 -217t149.5 -69q149 0 330 188v713h35q76 0 103.5 21.5t27.5 62.5q0 49 -39 112zM395 1122l283 303l49 -43v-8
l-295 -287z" />
    <glyph glyph-name="uni1EEA" unicode="&#x1eea;" horiz-adv-x="1249" 
d="M989 1372h35q76 0 103.5 23t27.5 67q0 50 -39 117l58 8q43 -67 43 -129q0 -61 -35.5 -99t-124.5 -44v-799q0 -98 -12.5 -177t-43 -149t-79.5 -117t-124.5 -74.5t-174.5 -27.5q-205 0 -313.5 117t-108.5 373v911h67v-872q0 -86 8.5 -152t33 -127.5t65 -101t107.5 -63
t157 -23.5q74 0 136.5 25t98.5 61q115 107 115 358v895zM375 1686l26 61l385 -158l-20 -53l-391 141v9z" />
    <glyph glyph-name="uni1EEB" unicode="&#x1eeb;" horiz-adv-x="1017" 
d="M893 1130l57 9q41 -66 41 -125q0 -123 -160 -133v-539q0 -103 17 -338l-57 -8l-21 158q-179 -183 -346 -183q-250 0 -250 328v633l66 4v-617q0 -148 46.5 -217t149.5 -69q149 0 330 188v713h35q76 0 103.5 21.5t27.5 62.5q0 49 -39 112zM299 1382l49 43l283 -303l-37 -35
l-295 287v8z" />
    <glyph glyph-name="uni1EEC" unicode="&#x1eec;" horiz-adv-x="1249" 
d="M989 1372h35q76 0 103.5 23t27.5 67q0 50 -39 117l58 8q43 -67 43 -129q0 -61 -35.5 -99t-124.5 -44v-799q0 -98 -12.5 -177t-43 -149t-79.5 -117t-124.5 -74.5t-174.5 -27.5q-205 0 -313.5 117t-108.5 373v911h67v-872q0 -86 8.5 -152t33 -127.5t65 -101t107.5 -63
t157 -23.5q74 0 136.5 25t98.5 61q115 107 115 358v895zM530 1780l-12 51q44 14 90 14q69 0 111.5 -33t42.5 -98q0 -81 -57 -124.5t-148 -53.5l-8 51q71 12 110 40t39 83q0 82 -92 82q-38 0 -76 -12z" />
    <glyph glyph-name="uni1EED" unicode="&#x1eed;" horiz-adv-x="1017" 
d="M893 1130l57 9q41 -66 41 -125q0 -123 -160 -133v-539q0 -103 17 -338l-57 -8l-21 158q-179 -183 -346 -183q-250 0 -250 328v633l66 4v-617q0 -148 46.5 -217t149.5 -69q149 0 330 188v713h35q76 0 103.5 21.5t27.5 62.5q0 49 -39 112zM399 1337l-12 52q44 14 86 14
q72 0 116 -36t44 -103q0 -85 -58 -131t-151 -56l-8 51q153 21 153 132q0 88 -98 88q-26 0 -72 -11z" />
    <glyph glyph-name="uni1EEE" unicode="&#x1eee;" horiz-adv-x="1249" 
d="M989 1372h35q76 0 103.5 23t27.5 67q0 50 -39 117l58 8q43 -67 43 -129q0 -61 -35.5 -99t-124.5 -44v-799q0 -98 -12.5 -177t-43 -149t-79.5 -117t-124.5 -74.5t-174.5 -27.5q-205 0 -313.5 117t-108.5 373v911h67v-872q0 -86 8.5 -152t33 -127.5t65 -101t107.5 -63
t157 -23.5q74 0 136.5 25t98.5 61q115 107 115 358v895zM764 1575q34 0 71.5 41t69.5 108l49 -28q-90 -180 -192 -180q-31 0 -58 15.5t-47 38t-39 44.5t-40 37.5t-43 15.5q-63 0 -142 -147l-49 26q93 180 197 180q38 0 71 -23.5t53 -52t46.5 -52t52.5 -23.5z" />
    <glyph glyph-name="uni1EEF" unicode="&#x1eef;" horiz-adv-x="1017" 
d="M893 1130l57 9q41 -66 41 -125q0 -123 -160 -133v-539q0 -103 17 -338l-57 -8l-21 158q-179 -183 -346 -183q-250 0 -250 328v633l66 4v-617q0 -148 46.5 -217t149.5 -69q149 0 330 188v713h35q76 0 103.5 21.5t27.5 62.5q0 49 -39 112zM645 1167q33 0 68 40t67 108
l47 -25q-86 -182 -186 -182q-30 0 -57 16t-47 38.5t-38.5 45t-40.5 38.5t-44 16q-34 0 -67.5 -38.5t-70.5 -111.5l-47 25q39 84 87.5 133t101.5 49q31 0 58 -15.5t46.5 -38t38 -45t40 -38t44.5 -15.5z" />
    <glyph glyph-name="uni1EF0" unicode="&#x1ef0;" horiz-adv-x="1249" 
d="M989 1372h35q76 0 103.5 23t27.5 67q0 50 -39 117l58 8q43 -67 43 -129q0 -61 -35.5 -99t-124.5 -44v-799q0 -98 -12.5 -177t-43 -149t-79.5 -117t-124.5 -74.5t-174.5 -27.5q-205 0 -313.5 117t-108.5 373v911h67v-872q0 -86 8.5 -152t33 -127.5t65 -101t107.5 -63
t157 -23.5q74 0 136.5 25t98.5 61q115 107 115 358v895zM565 -293q0 31 18.5 49.5t49.5 18.5q27 0 43 -16.5t16 -43.5q0 -31 -18 -49t-47 -18q-28 0 -45 16.5t-17 42.5z" />
    <glyph glyph-name="uni1EF1" unicode="&#x1ef1;" horiz-adv-x="1017" 
d="M893 1130l57 9q41 -66 41 -125q0 -123 -160 -133v-539q0 -103 17 -338l-57 -8l-21 158q-179 -183 -346 -183q-250 0 -250 328v633l66 4v-617q0 -148 46.5 -217t149.5 -69q149 0 330 188v713h35q76 0 103.5 21.5t27.5 62.5q0 49 -39 112zM451 -293q0 31 18 49.5t49 18.5
q27 0 43.5 -16.5t16.5 -43.5q0 -31 -18 -49t-48 -18q-28 0 -44.5 16.5t-16.5 42.5z" />
    <glyph glyph-name="Ygrave" unicode="&#x1ef2;" horiz-adv-x="1030" 
d="M905 1372h78q-67 -118 -82 -141l-354 -635v-596h-68v590l-346 641l-80 141h80l283 -518l98 -172h2zM266 1686l27 61l385 -158l-21 -53l-391 141v9z" />
    <glyph glyph-name="ygrave" unicode="&#x1ef3;" horiz-adv-x="915" 
d="M782 934h58q0 -23 -15 -66l-389 -1011q-150 -359 -342 -359q-33 0 -49 4v56q119 0 200 101.5t179 344.5l-326 864q-16 46 -16 66h61l263 -701q35 -99 47 -137h8zM266 1382l49 43l283 -303l-37 -35l-295 287v8z" />
    <glyph glyph-name="uni1EF6" unicode="&#x1ef6;" horiz-adv-x="1030" 
d="M905 1372h78q-67 -118 -82 -141l-354 -635v-596h-68v590l-346 641l-80 141h80l283 -518l98 -172h2zM422 1780l-12 51q44 14 90 14q69 0 111 -33t42 -98q0 -81 -56.5 -124.5t-147.5 -53.5l-9 51q150 24 150 123q0 82 -92 82q-39 0 -76 -12z" />
    <glyph glyph-name="uni1EF7" unicode="&#x1ef7;" horiz-adv-x="915" 
d="M782 934h58q0 -23 -15 -66l-389 -1011q-150 -359 -342 -359q-33 0 -49 4v56q119 0 200 101.5t179 344.5l-326 864q-16 46 -16 66h61l263 -701q35 -99 47 -137h8zM367 1337l-13 52q44 14 86 14q72 0 116 -36t44 -103q0 -85 -58 -131t-151 -56l-8 51q154 21 154 132
q0 44 -26.5 66t-72.5 22q-25 0 -71 -11z" />
    <glyph glyph-name="uni1EF8" unicode="&#x1ef8;" horiz-adv-x="1030" 
d="M905 1372h78q-67 -118 -82 -141l-354 -635v-596h-68v590l-346 641l-80 141h80l283 -518l98 -172h2zM635 1575q34 0 71.5 41t69.5 108l49 -28q-90 -180 -192 -180q-31 0 -58 15.5t-47 38t-39 44.5t-40 37.5t-43 15.5q-63 0 -142 -147l-49 26q93 180 197 180q38 0 71 -23.5
t53 -52t46.5 -52t52.5 -23.5z" />
    <glyph glyph-name="uni1EF9" unicode="&#x1ef9;" horiz-adv-x="915" 
d="M782 934h58q0 -23 -15 -66l-389 -1011q-150 -359 -342 -359q-33 0 -49 4v56q119 0 200 101.5t179 344.5l-326 864q-16 46 -16 66h61l263 -701q35 -99 47 -137h8zM580 1167q33 0 68 40t67 108l47 -25q-39 -83 -87 -132.5t-100 -49.5q-30 0 -57 16t-47 38.5t-38.5 45
t-40.5 38.5t-44 16q-34 0 -67 -38.5t-70 -111.5l-47 25q84 182 188 182q31 0 58 -15.5t46.5 -38t38 -45t40.5 -38t45 -15.5z" />
    <glyph glyph-name="enspace" unicode="&#x2002;" horiz-adv-x="1005" 
 />
    <glyph glyph-name="uni2003" unicode="&#x2003;" horiz-adv-x="1894" 
 />
    <glyph glyph-name="uni2009" unicode="&#x2009;" horiz-adv-x="163" 
 />
    <glyph glyph-name="uni2010" unicode="&#x2010;" horiz-adv-x="733" 
d="M164 512h403v-61h-403v61z" />
    <glyph glyph-name="uni2011" unicode="&#x2011;" horiz-adv-x="733" 
d="M164 512h403v-61h-403v61z" />
    <glyph glyph-name="endash" unicode="&#x2013;" horiz-adv-x="1122" 
d="M164 512h794v-61h-794v61z" />
    <glyph glyph-name="emdash" unicode="&#x2014;" horiz-adv-x="1988" 
d="M164 512h1659v-61h-1659v61z" />
    <glyph glyph-name="quoteleft" unicode="&#x2018;" horiz-adv-x="454" 
d="M145 1163q0 112 47 215.5t136 171.5l32 -37q-147 -136 -147 -344q0 -45 12 -127l-63 -10q-17 73 -17 131z" />
    <glyph glyph-name="quoteright" unicode="&#x2019;" horiz-adv-x="464" 
d="M254 1530l63 10q17 -73 17 -131q0 -112 -46.5 -215.5t-135.5 -171.5l-33 37q147 136 147 344q0 45 -12 127z" />
    <glyph glyph-name="quotesinglbase" unicode="&#x201a;" horiz-adv-x="440" 
d="M180 250l64 10q16 -69 16 -131q0 -112 -46.5 -215.5t-135.5 -171.5l-33 37q148 137 148 344q0 38 -13 127z" />
    <glyph glyph-name="quotedblleft" unicode="&#x201c;" horiz-adv-x="647" 
d="M336 1163q0 111 47.5 215t136.5 172l33 -37q-147 -136 -147 -344q0 -25 10 -127l-64 -10q-16 69 -16 131zM145 1163q0 112 47 215.5t136 171.5l32 -37q-147 -136 -147 -344q0 -45 12 -127l-63 -10q-17 73 -17 131z" />
    <glyph glyph-name="quotedblright" unicode="&#x201d;" horiz-adv-x="657" 
d="M446 1530l64 10q16 -69 16 -131q0 -111 -47.5 -215t-136.5 -172l-33 37q148 137 148 344q0 14 -11 127zM254 1530l63 10q17 -73 17 -131q0 -112 -46.5 -215.5t-135.5 -171.5l-33 37q147 136 147 344q0 45 -12 127z" />
    <glyph glyph-name="quotedblbase" unicode="&#x201e;" horiz-adv-x="632" 
d="M373 250l63 10q17 -73 17 -131q0 -111 -47.5 -215t-137.5 -172l-32 37q147 136 147 344q0 25 -10 127zM180 250l64 10q16 -69 16 -131q0 -112 -46.5 -215.5t-135.5 -171.5l-33 37q148 137 148 344q0 38 -13 127z" />
    <glyph glyph-name="dagger" unicode="&#x2020;" horiz-adv-x="878" 
d="M406 1237h69l-2 -303h285v-55h-285l-4 -1297h-57l-4 1297h-287v55h287z" />
    <glyph glyph-name="daggerdbl" unicode="&#x2021;" horiz-adv-x="878" 
d="M406 1237h69l-2 -303h285v-55h-285v-449h285v-55h-287l-2 -793h-57l-2 793h-289v55h287v449h-287v55h287z" />
    <glyph glyph-name="bullet" unicode="&#x2022;" horiz-adv-x="782" 
d="M618 512q0 -112 -61 -171.5t-166 -59.5q-104 0 -165.5 60t-61.5 171t61.5 171t165.5 60q105 0 166 -59.5t61 -171.5z" />
    <glyph glyph-name="ellipsis" unicode="&#x2026;" horiz-adv-x="1452" 
d="M1137 51q0 38 22.5 62t59.5 24q32 0 51.5 -19.5t19.5 -51.5q0 -40 -21.5 -64.5t-58.5 -24.5q-32 0 -52.5 20.5t-20.5 53.5zM158 51q0 38 22.5 62t59.5 24q32 0 51.5 -19.5t19.5 -51.5q0 -40 -21.5 -64.5t-58.5 -24.5q-33 0 -53 20.5t-20 53.5zM647 51q0 38 22.5 62
t59.5 24q32 0 52 -19.5t20 -51.5q0 -40 -21.5 -64.5t-58.5 -24.5q-33 0 -53.5 20.5t-20.5 53.5z" />
    <glyph glyph-name="perthousand" unicode="&#x2030;" horiz-adv-x="1931" 
d="M209 8l903 1393l51 -37l-903 -1393zM113 1008q0 103 26 190.5t82 145t133 57.5q108 0 168 -105t60 -256q0 -103 -26 -190.5t-83 -145t-135 -57.5q-73 0 -125 52t-76 132t-24 177zM514 1038q0 130 -43 217.5t-119 87.5q-43 0 -80 -32q-45 -39 -68.5 -121t-23.5 -178
q0 -130 42.5 -218.5t117.5 -88.5q49 0 86 34q42 41 65 123.5t23 175.5zM793 334q0 103 26 190t82.5 144t134.5 57q107 0 166.5 -104t59.5 -256q0 -103 -26 -190.5t-83 -145.5t-135 -58q-73 0 -125 52t-76 132.5t-24 178.5zM1194 362q0 131 -43 218.5t-119 87.5
q-44 0 -80 -31q-45 -39 -68.5 -121.5t-23.5 -177.5q0 -131 42.5 -220t117.5 -89q46 0 86 37q42 41 65 122.5t23 173.5zM1366 334q0 103 26.5 190t83 144t134.5 57q107 0 166 -104t59 -256q0 -103 -26 -190.5t-83 -145.5t-135 -58q-73 0 -125 52t-76 132.5t-24 178.5z
M1767 362q0 131 -42.5 218.5t-118.5 87.5q-44 0 -80 -31q-45 -39 -68.5 -121.5t-23.5 -177.5q0 -131 42 -220t117 -89q46 0 86 37q42 41 65 122.5t23 173.5z" />
    <glyph glyph-name="uni2032" unicode="&#x2032;" horiz-adv-x="405" 
d="M193 1458h77l-65 -436h-45z" />
    <glyph glyph-name="uni2033" unicode="&#x2033;" horiz-adv-x="587" 
d="M375 1458h78l-66 -436h-45zM193 1458h77l-65 -436h-45z" />
    <glyph glyph-name="guilsinglleft" unicode="&#x2039;" horiz-adv-x="614" 
d="M106 489l338 404l39 -35l-299 -379l301 -383l-41 -35l-335 406z" />
    <glyph glyph-name="guilsinglright" unicode="&#x203a;" horiz-adv-x="614" 
d="M129 858l41 35l338 -404l-2 -22l-336 -406l-43 35l303 383z" />
    <glyph glyph-name="fraction" unicode="&#x2044;" horiz-adv-x="141" 
d="M-408 8l904 1393l51 -37l-903 -1393z" />
    <glyph glyph-name="zerosuperior" unicode="&#x2070;" horiz-adv-x="659" 
d="M96 1192q0 104 26.5 191.5t82.5 144.5t133 57q73 0 125.5 -51t77 -131t24.5 -178q0 -103 -26 -190.5t-83.5 -145.5t-136.5 -58q-72 0 -124 52t-75.5 132t-23.5 177zM498 1223q0 130 -43 217.5t-119 87.5q-39 0 -82 -31q-45 -41 -67.5 -122t-22.5 -177q0 -131 42.5 -220
t117.5 -89q48 0 86 35q42 41 65 123.5t23 175.5z" />
    <glyph glyph-name="i.sups" unicode="&#x2071;" horiz-adv-x="309" 
d="M123 1421l63 2v-575h-63v573zM104 1593q0 25 15.5 39.5t40.5 14.5q22 0 35.5 -14t13.5 -36t-15.5 -36.5t-39.5 -14.5q-22 0 -36 13.5t-14 33.5z" />
    <glyph glyph-name="foursuperior" unicode="&#x2074;" horiz-adv-x="626" 
d="M59 1087l316 488l71 -4v-486h111l2 -53h-113v-184h-65v184h-313zM334 1405l-207 -320h254v398h-2z" />
    <glyph glyph-name="fivesuperior" unicode="&#x2075;" horiz-adv-x="563" 
d="M111 1571h335l-2 -58h-274v-239q41 14 94 14q96 0 155.5 -55t59.5 -154q0 -109 -67 -178.5t-179 -69.5q-74 0 -141 31l19 49q73 -22 125 -22q67 0 110 35q66 50 66 151q0 76 -41 119t-117 43q-43 0 -119 -23l-24 9v348z" />
    <glyph glyph-name="sixsuperior" unicode="&#x2076;" horiz-adv-x="606" 
d="M94 1155q0 112 33 207t105 158t171 63q45 0 82 -14l-16 -51q-28 8 -55 8q-113 0 -176 -86.5t-76 -220.5h2q72 57 162 57q93 0 146.5 -57.5t53.5 -149.5q0 -96 -59.5 -167t-159.5 -71q-58 0 -101 28.5t-66.5 76.5t-34.5 102.5t-11 116.5zM311 889q57 0 95 35q55 49 55 141
q0 72 -36 115t-103 43q-83 0 -162 -62v-2q0 -75 13.5 -133t48.5 -97.5t89 -39.5z" />
    <glyph glyph-name="sevensuperior" unicode="&#x2077;" horiz-adv-x="532" 
d="M59 1571h410l8 -58l-289 -682l-59 25l283 657h-351z" />
    <glyph glyph-name="eightsuperior" unicode="&#x2078;" horiz-adv-x="628" 
d="M125 1411q0 78 55 126t142 48q78 0 131 -46.5t53 -121.5q0 -103 -111 -196q142 -77 142 -191q0 -93 -66 -146t-158 -53q-96 0 -159.5 48.5t-63.5 138.5q0 119 150 221q-115 68 -115 172zM350 1245h2q92 85 92 168q0 54 -34 85.5t-91 31.5q-43 0 -81 -23q-52 -30 -52 -94
q0 -53 39 -89t125 -79zM315 887q59 0 101 26q59 42 59 115q0 61 -43.5 99t-142.5 87q-135 -93 -135 -192q0 -65 45.5 -100t115.5 -35z" />
    <glyph glyph-name="ninesuperior" unicode="&#x2079;" horiz-adv-x="606" 
d="M285 1190q85 0 161 63v2q0 76 -13.5 134t-48.5 97.5t-89 39.5q-57 0 -98 -41q-52 -52 -52 -137q0 -71 36.5 -114.5t103.5 -43.5zM80 1346q0 95 59.5 166t157.5 71q58 0 101.5 -28t67 -76t35 -102t11.5 -115q0 -113 -32.5 -208.5t-104.5 -159t-172 -63.5q-50 0 -80 15
l14 49q21 -6 58 -6q113 0 175.5 85.5t73.5 219.5h-2q-70 -55 -161 -55q-94 0 -147.5 57.5t-53.5 149.5z" />
    <glyph glyph-name="n.sups" unicode="&#x207f;" horiz-adv-x="684" 
d="M113 1423l51 9l18 -86q107 96 217 96q92 0 129 -50.5t37 -152.5v-391h-63v373q0 87 -24 126t-89 39q-93 0 -201 -90v-448h-63v362q0 77 -12 213z" />
    <glyph glyph-name="zeroinferior" unicode="&#x2080;" horiz-adv-x="659" 
d="M96 242q0 104 26.5 191.5t82.5 144.5t133 57q108 0 167.5 -104.5t59.5 -256.5q0 -103 -26 -190t-83.5 -145t-136.5 -58q-72 0 -124 52t-75.5 132t-23.5 177zM498 272q0 130 -43 218t-119 88q-39 0 -82 -31q-45 -41 -67.5 -122t-22.5 -177q0 -131 42.5 -220t117.5 -89
q49 0 86 34q42 41 65 123.5t23 175.5z" />
    <glyph glyph-name="oneinferior" unicode="&#x2081;" horiz-adv-x="493" 
d="M82 555l180 70l49 -2v-672h123l2 -53h-352v53h162v608l-146 -51z" />
    <glyph glyph-name="twoinferior" unicode="&#x2082;" horiz-adv-x="571" 
d="M90 569q81 64 184 64q100 0 149.5 -55.5t49.5 -145.5q0 -42 -16 -87t-35 -79.5t-60.5 -84.5t-65.5 -76.5t-77 -81.5l-67 -70h327l4 -55h-403l-6 57l90 94q130 136 186 217t56 164q0 67 -33.5 106t-100.5 39q-81 0 -155 -49z" />
    <glyph glyph-name="threeinferior" unicode="&#x2083;" horiz-adv-x="567" 
d="M84 569q79 64 182 64q84 0 133.5 -47t49.5 -125q0 -59 -30.5 -109t-82.5 -76q63 -15 101 -61t38 -115q0 -100 -61 -159.5t-162 -59.5q-97 0 -172 45l24 49q74 -36 150 -36q61 0 96 28q58 42 58 129q0 68 -46.5 107t-128.5 39h-43l-2 55h35q70 0 114 46t44 110
q0 57 -31.5 89.5t-89.5 32.5q-76 0 -149 -47z" />
    <glyph glyph-name="fourinferior" unicode="&#x2084;" horiz-adv-x="626" 
d="M59 137l316 488l71 -4v-486h111l2 -53h-113v-184h-65v184h-313zM334 455l-207 -320h254v397h-2z" />
    <glyph glyph-name="fiveinferior" unicode="&#x2085;" horiz-adv-x="563" 
d="M111 621h335l-2 -58h-274v-239q41 14 94 14q96 0 155.5 -55t59.5 -154q0 -109 -67 -178.5t-179 -69.5q-74 0 -141 31l19 49q73 -22 125 -22q68 0 110 34q66 50 66 152q0 76 -41 119t-117 43q-43 0 -119 -23l-24 8v349z" />
    <glyph glyph-name="sixinferior" unicode="&#x2086;" horiz-adv-x="606" 
d="M94 205q0 112 33 207t105 158t171 63q42 0 82 -15l-16 -51q-28 8 -55 8q-113 0 -176 -86.5t-76 -220.5h2q74 58 162 58q93 0 146.5 -57.5t53.5 -149.5q0 -96 -59.5 -167t-159.5 -71q-58 0 -101 28.5t-66.5 76.5t-34.5 102.5t-11 116.5zM311 -61q58 0 95 34q55 49 55 142
q0 72 -36 114.5t-103 42.5q-85 0 -162 -61v-2q0 -75 13.5 -133t48.5 -97.5t89 -39.5z" />
    <glyph glyph-name="seveninferior" unicode="&#x2087;" horiz-adv-x="532" 
d="M59 621h410l8 -58l-289 -682l-59 25l283 657h-351z" />
    <glyph glyph-name="eightinferior" unicode="&#x2088;" horiz-adv-x="628" 
d="M125 461q0 78 55 126t142 48q78 0 131 -46.5t53 -121.5q0 -104 -111 -197q142 -77 142 -190q0 -93 -66 -146t-158 -53q-96 0 -159.5 48.5t-63.5 138.5q0 119 150 221q-115 68 -115 172zM350 295h2q92 85 92 168q0 54 -34 85.5t-91 31.5q-43 0 -81 -23q-52 -30 -52 -94
q0 -53 39 -89t125 -79zM315 -63q59 0 101 26q59 42 59 115q0 61 -43.5 99t-142.5 87q-135 -93 -135 -192q0 -65 45.5 -100t115.5 -35z" />
    <glyph glyph-name="nineinferior" unicode="&#x2089;" horiz-adv-x="606" 
d="M285 240q85 0 161 63v2q0 75 -13.5 133t-48.5 97.5t-89 39.5q-58 0 -98 -40q-52 -52 -52 -138q0 -71 36.5 -114t103.5 -43zM80 395q0 95 59.5 166.5t157.5 71.5q58 0 101.5 -28.5t67 -76.5t35 -102t11.5 -115q0 -113 -32.5 -208t-104.5 -158.5t-172 -63.5q-50 0 -80 15
l14 49q21 -6 58 -6q113 0 175.5 85.5t73.5 219.5h-2q-71 -56 -161 -56q-94 0 -147.5 57.5t-53.5 149.5z" />
    <glyph glyph-name="a.sinf" unicode="&#x2090;" horiz-adv-x="622" 
d="M102 395q114 92 234 92q88 0 126 -54t38 -169v-149q0 -59 10 -213l-51 -8l-19 88q-107 -99 -215 -99q-66 0 -107.5 38.5t-41.5 105.5q0 79 69 129q78 53 291 69v17q0 106 -24.5 148t-85.5 42q-91 0 -195 -76zM236 -63q96 0 200 96v145q-200 -18 -250 -57q-47 -33 -47 -88
q0 -46 27 -71t70 -25z" />
    <glyph glyph-name="e.sinf" unicode="&#x2091;" horiz-adv-x="630" 
d="M86 182q0 133 69.5 221.5t184.5 88.5q97 0 151 -65.5t54 -162.5q0 -42 -6 -86h-387q1 -117 55 -177t137 -60q93 0 170 30l18 -45q-93 -41 -194 -41q-109 0 -180.5 77t-71.5 220zM340 436q-79 0 -128 -55t-58 -154h327q2 14 2 45q0 70 -38 117t-105 47z" />
    <glyph glyph-name="o.sinf" unicode="&#x2092;" horiz-adv-x="677" 
d="M86 182q0 54 15 107t45 99.5t81 75t115 28.5q115 0 182.5 -86t67.5 -218q0 -55 -15 -108t-45 -98t-80.5 -73t-115.5 -28q-116 0 -183 84.5t-67 216.5zM524 180q0 114 -48.5 185t-137.5 71q-52 0 -100 -30q-84 -63 -84 -218q0 -113 47.5 -182t138.5 -69q67 0 104 34
q80 62 80 209z" />
    <glyph glyph-name="x.sinf" unicode="&#x2093;" horiz-adv-x="589" 
d="M80 473h63l154 -231h2l152 231h61q-2 -13 -23 -47l-151 -223l174 -258q22 -35 25 -47h-64l-180 268h-2l-176 -268h-62q4 17 23 47l176 260l-150 221q-20 32 -22 47z" />
    <glyph glyph-name="uni20AB" unicode="&#x20ab;" horiz-adv-x="983" 
d="M424 227q41 0 81.5 14.5t82.5 46.5t70.5 58t74.5 72v444q-123 74 -262 74q-121 0 -197 -64q-112 -88 -112 -297q0 -150 69 -249t193 -99zM94 563q0 191 98.5 311.5t288.5 120.5q129 0 252 -71v247h-375v58h375v164h66v-164h166v-58h-166v-673q0 -107 16 -297l-57 -8
l-21 157q-81 -85 -155 -133.5t-164 -48.5q-146 0 -235 111t-89 284zM115 57h729v-57h-729v57z" />
    <glyph glyph-name="Euro" unicode="&#x20ac;" horiz-adv-x="1300" 
d="M227 666q0 68 9 135h-123l-2 61h135q20 112 64.5 206.5t113 168.5t166.5 116t217 42q207 0 352 -111l-31 -53q-87 52 -160 75t-163 23q-157 0 -268 -82q-168 -122 -220 -385h625l2 -61h-635q-8 -55 -8 -125q0 -32 4 -98h639l-2 -62h-629q15 -102 51 -185.5t94.5 -149.5
t147 -103t199.5 -37q100 0 177 22.5t173 69.5l27 -53q-94 -52 -182 -77.5t-199 -25.5q-127 0 -228.5 41.5t-169 116t-108.5 170t-57 211.5h-127l2 62h118q-4 58 -4 88z" />
    <glyph glyph-name="uni20B9" unicode="&#x20b9;" horiz-adv-x="1165" 
d="M178 563l21 62h55q109 0 198.5 18.5t158.5 56t109.5 98t47.5 140.5h-612v61h612q-10 151 -134.5 231.5t-342.5 80.5h-135v61h876l-2 -61h-424q224 -89 236 -312h190l-2 -61h-190q-11 -123 -88 -208t-198.5 -125t-281.5 -42l461 -434q36 -33 53 -49.5t38.5 -41t27.5 -38.5
h-82z" />
    <glyph glyph-name="uni20BA" unicode="&#x20ba;" horiz-adv-x="1017" 
d="M244 1372h69v-399l459 147l21 -59l-480 -154v-229l459 147l21 -59l-480 -154v-551q548 0 605 504l67 -8q-64 -557 -672 -557h-69v590l-150 -49l-20 59l170 55v230l-150 -49l-20 59l170 55v422z" />
    <glyph glyph-name="uni20BD" unicode="&#x20bd;" horiz-adv-x="1087" 
d="M221 1372h275q244 3 367.5 -85.5t123.5 -280.5q0 -200 -141 -304t-412 -104h-145v-203h491v-61h-491v-334h-68v334h-141v61h141v203h-141v64h141v710zM492 1309h-203v-647h131q239 0 366 82.5t127 252.5q0 172 -104 242t-317 70z" />
    <glyph glyph-name="uni2113" unicode="&#x2113;" horiz-adv-x="684" 
d="M379 -23q-193 0 -193 242v211h-2h-90v62h90h2v563q0 340 217 340q111 0 165.5 -93.5t54.5 -254.5q0 -137 -19 -241t-61.5 -185t-115 -128.5t-175.5 -58.5v-192q0 -111 32 -157t99 -46q63 0 127 33l25 -54q-84 -41 -156 -41zM403 1331q-81 0 -116 -69t-35 -205v-561
q86 11 145 53.5t93 115.5t48.5 165.5t14.5 216.5q0 284 -150 284z" />
    <glyph glyph-name="trademark" unicode="&#x2122;" horiz-adv-x="1570" 
d="M1241 1372h76l98 -686h-63l-68 467l-12 127h-2l-209 -594h-64l-159 467l-35 127h-4l-80 -594h-64l97 686h75l168 -485l33 -113h4zM96 1372h559v-55h-245v-631h-68v631h-244z" />
    <glyph glyph-name="estimated" unicode="&#x212e;" horiz-adv-x="1656" 
d="M1395 162l26 -60q-114 -67 -245.5 -100t-323.5 -33q-165 0 -301 55t-225.5 150.5t-138 223t-48.5 272.5q0 104 24.5 205.5t80 197.5t135.5 169t200.5 117t266.5 44q165 0 294.5 -55t211 -151t124 -222t42.5 -273v-51h-1135v-424q170 -188 467 -188q314 0 545 123z
M850 1333q-297 0 -467 -184v-430h913v426q-154 188 -446 188z" />
    <glyph glyph-name="uni2150" unicode="&#x2150;" horiz-adv-x="1622" 
d="M172 1260l221 69l51 -2v-672h150l2 -53h-422v53h203v611l-189 -56zM332 8l903 1393l51 -37l-903 -1393zM1034 752h430l9 -58l-310 -682l-59 25l301 657h-367z" />
    <glyph glyph-name="uni2151" unicode="&#x2151;" horiz-adv-x="1622" 
d="M172 1260l221 69l51 -2v-672h150l2 -53h-422v53h203v611l-189 -56zM332 8l903 1393l51 -37l-903 -1393zM1231 371q88 0 164 63v2q0 118 -37 194.5t-117 76.5q-54 0 -98 -41q-49 -49 -49 -138q0 -71 35.5 -114t101.5 -43zM1026 526q0 95 59.5 166.5t157.5 71.5
q59 0 102.5 -28.5t67.5 -76.5t35.5 -102t11.5 -115q0 -113 -33 -208t-105.5 -158.5t-172.5 -63.5q-50 0 -80 15l16 49q21 -6 58 -6q76 0 131 43t83 109.5t36 152.5h-2q-74 -56 -164 -56q-93 0 -147 58t-54 149z" />
    <glyph glyph-name="uni2153" unicode="&#x2153;" horiz-adv-x="1622" 
d="M172 1260l221 69l51 -2v-672h150l2 -53h-422v53h203v611l-189 -56zM332 8l903 1393l51 -37l-903 -1393zM1051 700q79 64 182 64q84 0 133 -46.5t49 -125.5q0 -58 -30.5 -108t-81.5 -76q63 -15 101 -61.5t38 -115.5q0 -100 -61 -159.5t-162 -59.5q-97 0 -175 45l25 49
q78 -36 150 -36q63 0 98 28q57 44 57 129q0 68 -46.5 107t-127.5 39h-43l-2 55h35q70 0 114 46t44 110q0 58 -31.5 90.5t-89.5 32.5q-73 0 -152 -48z" />
    <glyph glyph-name="uni2154" unicode="&#x2154;" horiz-adv-x="1622" 
d="M174 1274q80 63 184 63q100 0 149.5 -55t49.5 -145q0 -42 -16 -87t-35.5 -80t-60 -84.5t-65.5 -77t-77 -81.5l-67 -70h327l4 -55h-403l-6 57l90 95q129 135 185 216.5t56 164.5q0 67 -33 106t-100 39q-81 0 -155 -49zM332 8l903 1393l51 -37l-903 -1393zM1051 700
q79 64 182 64q84 0 133 -46.5t49 -125.5q0 -58 -30.5 -108t-81.5 -76q63 -15 101 -61.5t38 -115.5q0 -100 -61 -159.5t-162 -59.5q-97 0 -175 45l25 49q78 -36 150 -36q63 0 98 28q57 44 57 129q0 68 -46.5 107t-127.5 39h-43l-2 55h35q70 0 114 46t44 110q0 58 -31.5 90.5
t-89.5 32.5q-73 0 -152 -48z" />
    <glyph glyph-name="uni2155" unicode="&#x2155;" horiz-adv-x="1622" 
d="M172 1260l221 69l51 -2v-672h150l2 -53h-422v53h203v611l-189 -56zM332 8l903 1393l51 -37l-903 -1393zM1081 752h338l-4 -58h-274v-239q41 14 94 14q96 0 155.5 -55t59.5 -154q0 -109 -67 -178.5t-179 -69.5q-74 0 -141 31l18 49q73 -22 125 -22q69 0 111 34
q67 51 67 152q0 76 -41.5 119t-117.5 43q-39 0 -119 -23l-25 8v349z" />
    <glyph glyph-name="uni2156" unicode="&#x2156;" horiz-adv-x="1622" 
d="M174 1274q80 63 184 63q100 0 149.5 -55t49.5 -145q0 -42 -16 -87t-35.5 -80t-60 -84.5t-65.5 -77t-77 -81.5l-67 -70h327l4 -55h-403l-6 57l90 95q129 135 185 216.5t56 164.5q0 67 -33 106t-100 39q-81 0 -155 -49zM332 8l903 1393l51 -37l-903 -1393zM1081 752h338
l-4 -58h-274v-239q41 14 94 14q96 0 155.5 -55t59.5 -154q0 -109 -67 -178.5t-179 -69.5q-74 0 -141 31l18 49q73 -22 125 -22q69 0 111 34q67 51 67 152q0 76 -41.5 119t-117.5 43q-39 0 -119 -23l-25 8v349z" />
    <glyph glyph-name="uni2157" unicode="&#x2157;" horiz-adv-x="1622" 
d="M170 1274q77 63 182 63q84 0 133.5 -47t49.5 -125q0 -58 -31 -108t-82 -76q63 -15 101 -61t38 -115q0 -100 -61 -159.5t-162 -59.5q-96 0 -174 45l24 49q80 -37 150 -37q62 0 98 29q58 45 58 129q0 68 -46.5 106.5t-128.5 38.5h-43l-2 55h35q70 0 114 46t44 110
q0 58 -31.5 90.5t-89.5 32.5q-74 0 -151 -47zM332 8l903 1393l51 -37l-903 -1393zM1081 752h338l-4 -58h-274v-239q41 14 94 14q96 0 155.5 -55t59.5 -154q0 -109 -67 -178.5t-179 -69.5q-74 0 -141 31l18 49q73 -22 125 -22q69 0 111 34q67 51 67 152q0 76 -41.5 119
t-117.5 43q-39 0 -119 -23l-25 8v349z" />
    <glyph glyph-name="uni2158" unicode="&#x2158;" horiz-adv-x="1622" 
d="M117 842l315 487l72 -4v-485h110l2 -54h-112v-184h-64v184h-315zM391 1159l-207 -319h256v397h-2zM332 8l903 1393l51 -37l-903 -1393zM1081 752h338l-4 -58h-274v-239q41 14 94 14q96 0 155.5 -55t59.5 -154q0 -109 -67 -178.5t-179 -69.5q-74 0 -141 31l18 49
q73 -22 125 -22q69 0 111 34q67 51 67 152q0 76 -41.5 119t-117.5 43q-39 0 -119 -23l-25 8v349z" />
    <glyph glyph-name="uni2159" unicode="&#x2159;" horiz-adv-x="1622" 
d="M172 1260l221 69l51 -2v-672h150l2 -53h-422v53h203v611l-189 -56zM332 8l903 1393l51 -37l-903 -1393zM1040 336q0 82 20 157.5t57 136.5t97.5 97.5t135.5 36.5q45 0 82 -14l-17 -52q-27 9 -55 9q-113 0 -176 -87t-76 -221h2q74 58 164 58q92 0 146.5 -58t54.5 -149
q0 -96 -60.5 -167t-159.5 -71q-58 0 -101.5 28.5t-67 76.5t-35 103t-11.5 116zM1257 70q58 0 95 34q55 49 55 142q0 72 -36 114.5t-103 42.5q-85 0 -162 -61v-2q0 -75 13.5 -133t48.5 -97.5t89 -39.5z" />
    <glyph glyph-name="uni215A" unicode="&#x215a;" horiz-adv-x="1622" 
d="M199 1325h338l-5 -57h-274v-240q41 14 94 14q96 0 155.5 -54.5t59.5 -153.5q0 -109 -66.5 -178.5t-178.5 -69.5q-77 0 -142 30l19 50q76 -23 125 -23q67 0 110 35q68 51 68 151q0 76 -42 119t-118 43q-42 0 -119 -22l-24 8v348zM332 8l903 1393l51 -37l-903 -1393z
M1040 336q0 82 20 157.5t57 136.5t97.5 97.5t135.5 36.5q45 0 82 -14l-17 -52q-27 9 -55 9q-113 0 -176 -87t-76 -221h2q74 58 164 58q92 0 146.5 -58t54.5 -149q0 -96 -60.5 -167t-159.5 -71q-58 0 -101.5 28.5t-67 76.5t-35 103t-11.5 116zM1257 70q58 0 95 34
q55 49 55 142q0 72 -36 114.5t-103 42.5q-85 0 -162 -61v-2q0 -75 13.5 -133t48.5 -97.5t89 -39.5z" />
    <glyph glyph-name="uni215B" unicode="&#x215b;" horiz-adv-x="1622" 
d="M172 1260l221 69l51 -2v-672h150l2 -53h-422v53h203v611l-189 -56zM332 8l903 1393l51 -37l-903 -1393zM1061 592q0 77 56 125.5t143 48.5q77 0 129.5 -46.5t52.5 -121.5q0 -105 -109 -197q142 -77 142 -190q0 -93 -66.5 -146t-157.5 -53q-97 0 -160 48.5t-63 138.5
q0 121 148 221q-115 71 -115 172zM1286 426h2q92 85 92 168q0 54 -33.5 85.5t-89.5 31.5q-45 0 -83 -23q-50 -31 -50 -94q0 -53 38.5 -89t123.5 -79zM1251 68q59 0 101 26q59 42 59 115q0 33 -11.5 58.5t-40 48.5t-55.5 39t-77 42q-135 -91 -135 -194q0 -65 45 -100t114 -35
z" />
    <glyph glyph-name="uni215C" unicode="&#x215c;" horiz-adv-x="1622" 
d="M170 1274q77 63 182 63q84 0 133.5 -47t49.5 -125q0 -58 -31 -108t-82 -76q63 -15 101 -61t38 -115q0 -100 -61 -159.5t-162 -59.5q-96 0 -174 45l24 49q80 -37 150 -37q62 0 98 29q58 45 58 129q0 68 -46.5 106.5t-128.5 38.5h-43l-2 55h35q70 0 114 46t44 110
q0 58 -31.5 90.5t-89.5 32.5q-74 0 -151 -47zM332 8l903 1393l51 -37l-903 -1393zM1061 592q0 77 56 125.5t143 48.5q77 0 129.5 -46.5t52.5 -121.5q0 -105 -109 -197q142 -77 142 -190q0 -93 -66.5 -146t-157.5 -53q-97 0 -160 48.5t-63 138.5q0 121 148 221
q-115 71 -115 172zM1286 426h2q92 85 92 168q0 54 -33.5 85.5t-89.5 31.5q-45 0 -83 -23q-50 -31 -50 -94q0 -53 38.5 -89t123.5 -79zM1251 68q59 0 101 26q59 42 59 115q0 33 -11.5 58.5t-40 48.5t-55.5 39t-77 42q-135 -91 -135 -194q0 -65 45 -100t114 -35z" />
    <glyph glyph-name="uni215D" unicode="&#x215d;" horiz-adv-x="1622" 
d="M199 1325h338l-5 -57h-274v-240q41 14 94 14q96 0 155.5 -54.5t59.5 -153.5q0 -109 -66.5 -178.5t-178.5 -69.5q-77 0 -142 30l19 50q76 -23 125 -23q67 0 110 35q68 51 68 151q0 76 -42 119t-118 43q-42 0 -119 -22l-24 8v348zM332 8l903 1393l51 -37l-903 -1393z
M1061 592q0 77 56 125.5t143 48.5q77 0 129.5 -46.5t52.5 -121.5q0 -105 -109 -197q142 -77 142 -190q0 -93 -66.5 -146t-157.5 -53q-97 0 -160 48.5t-63 138.5q0 121 148 221q-115 71 -115 172zM1286 426h2q92 85 92 168q0 54 -33.5 85.5t-89.5 31.5q-45 0 -83 -23
q-50 -31 -50 -94q0 -53 38.5 -89t123.5 -79zM1251 68q59 0 101 26q59 42 59 115q0 33 -11.5 58.5t-40 48.5t-55.5 39t-77 42q-135 -91 -135 -194q0 -65 45 -100t114 -35z" />
    <glyph glyph-name="uni215E" unicode="&#x215e;" horiz-adv-x="1622" 
d="M154 1325h430l8 -57l-309 -682l-60 24l301 658h-366zM332 8l903 1393l51 -37l-903 -1393zM1061 592q0 77 56 125.5t143 48.5q77 0 129.5 -46.5t52.5 -121.5q0 -105 -109 -197q142 -77 142 -190q0 -93 -66.5 -146t-157.5 -53q-97 0 -160 48.5t-63 138.5q0 121 148 221
q-115 71 -115 172zM1286 426h2q92 85 92 168q0 54 -33.5 85.5t-89.5 31.5q-45 0 -83 -23q-50 -31 -50 -94q0 -53 38.5 -89t123.5 -79zM1251 68q59 0 101 26q59 42 59 115q0 33 -11.5 58.5t-40 48.5t-55.5 39t-77 42q-135 -91 -135 -194q0 -65 45 -100t114 -35z" />
    <glyph glyph-name="uni2190" unicode="&#x2190;" horiz-adv-x="1687" 
d="M51 508l590 463l39 -47l-330 -262l-184 -136h1474v-59h-1472l184 -137l326 -258l-39 -47l-588 462v21z" />
    <glyph glyph-name="uni2191" unicode="&#x2191;" horiz-adv-x="1058" 
d="M518 1497h21l465 -590l-50 -39l-262 330l-133 180v-1532h-63v1530l-136 -180l-258 -326l-47 39z" />
    <glyph glyph-name="uni2192" unicode="&#x2192;" horiz-adv-x="1687" 
d="M1010 924l37 47l589 -463v-21l-587 -462l-37 47l325 258l183 137h-1473v59h1477l-185 136z" />
    <glyph glyph-name="uni2193" unicode="&#x2193;" horiz-adv-x="1058" 
d="M496 1497h63v-1532l133 182l262 330l50 -41l-465 -590h-21l-463 588l47 41l258 -325l136 -183v1530z" />
    <glyph glyph-name="uni2194" unicode="&#x2194;" horiz-adv-x="2418" 
d="M1739 924l39 47l589 -463v-21l-587 -462l-39 47l325 258l185 137h-2083l184 -137l326 -258l-39 -47l-588 462v21l590 463l39 -47l-330 -262l-182 -136h2083l-183 136z" />
    <glyph glyph-name="uni2195" unicode="&#x2195;" horiz-adv-x="1058" 
d="M518 1487h21l465 -592l-50 -39l-262 332l-133 178v-1780l133 181l262 329l50 -37l-465 -591h-21l-463 587l47 39l260 -325l134 -181v1778l-134 -180l-260 -328l-47 39z" />
    <glyph glyph-name="uni2196" unicode="&#x2196;" horiz-adv-x="1179" 
d="M129 1262l16 12l705 -187l-16 -59l-394 105l-207 55l891 -1208l-49 -37l-893 1210v-221l-10 -418l-61 2z" />
    <glyph glyph-name="uni2197" unicode="&#x2197;" horiz-adv-x="1179" 
d="M332 1087l704 187l17 -12l16 -746l-61 -2l-11 418l2 221l-895 -1210l-49 37l891 1208l-207 -55l-393 -105z" />
    <glyph glyph-name="uni2198" unicode="&#x2198;" horiz-adv-x="1179" 
d="M55 1260l49 38l895 -1210l-2 221l11 418l61 -2l-16 -748l-17 -12l-704 189l14 57l393 -102l209 -60z" />
    <glyph glyph-name="uni2199" unicode="&#x2199;" horiz-adv-x="1179" 
d="M145 -35l-16 12l-18 748l61 2l10 -418v-221l893 1210l49 -38l-893 -1211l209 60l394 102l16 -57z" />
    <glyph glyph-name="uni219E" unicode="&#x219e;" horiz-adv-x="1974" 
d="M543 506l587 465l39 -47l-327 -262l-185 -136h1270v-59h-1268l183 -135l327 -262l-36 -47l-590 462v21zM51 506l567 485l39 -47l-516 -448l516 -447l-36 -47l-570 483v21z" />
    <glyph glyph-name="uni219F" unicode="&#x219f;" horiz-adv-x="1099" 
d="M539 1006h20l465 -590l-49 -39l-262 330l-133 180v-1325h-62v1325l-137 -182l-258 -326l-47 39zM539 1497h20l485 -569l-49 -39l-446 516l-447 -514l-47 39z" />
    <glyph glyph-name="uni21A0" unicode="&#x21a0;" horiz-adv-x="1974" 
d="M805 924l39 47l588 -465v-21l-588 -462l-39 47l328 262l182 135h-1268v59h1272l-186 136zM1317 944l39 47l567 -485v-21l-567 -483l-39 47l516 447z" />
    <glyph glyph-name="uni21A1" unicode="&#x21a1;" horiz-adv-x="1099" 
d="M518 1497h62v-1325l133 180l262 330l49 -39l-465 -590h-20l-463 588l47 39l258 -326l137 -182v1325zM55 129l47 39l447 -514l446 516l49 -39l-485 -569h-20z" />
    <glyph glyph-name="uni21B0" unicode="&#x21b0;" horiz-adv-x="1474" 
d="M51 508l590 463l39 -47l-330 -262l-184 -136h1116v-956h-59v897h-1055l184 -137l326 -258l-39 -47l-588 462v21z" />
    <glyph glyph-name="uni21B1" unicode="&#x21b1;" horiz-adv-x="1474" 
d="M795 924l39 47l589 -463v-21l-587 -462l-39 47l325 258l185 137h-1055v-897h-59v956h1116l-185 136z" />
    <glyph glyph-name="uni21B2" unicode="&#x21b2;" horiz-adv-x="1474" 
d="M1223 1423h59v-956h-1116l184 -135l330 -262l-39 -47l-590 462v21l588 463l39 -47l-326 -258l-184 -138h1055v897z" />
    <glyph glyph-name="uni21B3" unicode="&#x21b3;" horiz-adv-x="1474" 
d="M193 1423h59v-897h1055l-185 138l-325 258l39 47l587 -463v-21l-589 -462l-39 47l329 262l185 135h-1116v956z" />
    <glyph glyph-name="uni21B4" unicode="&#x21b4;" horiz-adv-x="1650" 
d="M47 526h1104v-911l133 178l264 330l47 -37l-465 -590h-20l-463 588l47 37l260 -326l136 -182v854h-1043v59z" />
    <glyph glyph-name="uni21BC" unicode="&#x21bc;" horiz-adv-x="1699" 
d="M35 487l612 484l39 -49l-326 -256l-180 -140h1471v-59h-1616v20z" />
    <glyph glyph-name="uni21BD" unicode="&#x21bd;" horiz-adv-x="1699" 
d="M35 526h1616v-59h-1471l180 -139l326 -256l-39 -49l-612 483v20z" />
    <glyph glyph-name="uni21BE" unicode="&#x21be;" horiz-adv-x="784" 
d="M223 1509h21l485 -608l-49 -41l-262 326l-127 164v-1510h-68v1669z" />
    <glyph glyph-name="uni21BF" unicode="&#x21bf;" horiz-adv-x="784" 
d="M541 1509h20v-1669h-67v1510l-127 -164l-263 -326l-49 41z" />
    <glyph glyph-name="uni21C0" unicode="&#x21c0;" horiz-adv-x="1699" 
d="M1014 922l39 49l612 -484v-20h-1616v59h1471l-181 140z" />
    <glyph glyph-name="uni21C1" unicode="&#x21c1;" horiz-adv-x="1699" 
d="M49 526h1616v-20l-612 -483l-39 49l325 256l181 139h-1471v59z" />
    <glyph glyph-name="uni21C2" unicode="&#x21c2;" horiz-adv-x="784" 
d="M223 1509h68v-1509l127 164l262 325l49 -40l-485 -609h-21v1669z" />
    <glyph glyph-name="uni21C3" unicode="&#x21c3;" horiz-adv-x="784" 
d="M494 1509h67v-1669h-20l-486 609l49 40l263 -325l127 -164v1509z" />
    </font>
</defs>
</svg>
