<?xml version="1.0" standalone="no"?>
<!DOCTYPE svg PUBLIC "-//W3C//DTD SVG 1.1//EN" "http://www.w3.org/Graphics/SVG/1.1/DTD/svg11.dtd" >
<svg xmlns="http://www.w3.org/2000/svg" xmlns:xlink="http://www.w3.org/1999/xlink" version="1.1">
<metadata>
Created by FontForge 20170731 at Fri Aug 27 18:28:07 2021
 By Aleksey,,,
Copyright (c) 2014-16 by David Brezina. All rights reserved.
</metadata>
<defs>
<font id="SkolarSansLatn-Lt" horiz-adv-x="1128" >
  <font-face 
    font-family="Skolar Sans Latn Lt"
    font-weight="300"
    font-stretch="normal"
    units-per-em="2048"
    panose-1="2 13 0 0 0 4 0 0 0 0"
    ascent="1536"
    descent="-512"
    x-height="950"
    cap-height="1372"
    bbox="-414 -532 2540 2216"
    underline-thickness="51"
    underline-position="-316"
    unicode-range="U+000D-FC01"
  />
<missing-glyph horiz-adv-x="1366" 
d="M201 1358h964v-1358h-964v1358zM1014 98l-330 494l-330 -494h660zM625 678l-328 493v-989zM1071 182v989l-330 -493zM684 766l330 494h-660z" />
    <glyph glyph-name="f_b" unicode="fb" horiz-adv-x="1681" 
d="M221 1194q0 169 82 267t250 98q137 0 250 -39l115 16v-698q131 141 284 141q174 0 271.5 -138.5t97.5 -353.5q0 -100 -26.5 -189t-79.5 -162t-141.5 -116t-203.5 -43q-155 0 -336 54v1374q-106 35 -225 35q-111 0 -157 -59t-46 -179v-252h238v-112h-238v-838h-135v838
h-147v112h147v244zM1130 94q65 0 114 17t75 43q61 60 87 136t26 185q0 177 -65 282t-183 105q-127 0 -266 -139v-602q111 -27 212 -27z" />
    <glyph glyph-name="f_f" unicode="ff" horiz-adv-x="1216" 
d="M221 1139q0 165 85 265.5t241 100.5q141 0 284 -96q77 150 252 150q126 0 240 -97l-55 -88q-95 66 -181 66q-84 0 -124.5 -62.5t-40.5 -171.5v-256h237v-112h-237v-838h-136v838h-430v-838h-135v838h-147v112h147v189zM786 1194q0 51 11 115q-131 80 -242 80
q-199 0 -199 -238v-201h430v244z" />
    <glyph glyph-name="f_h" unicode="fh" horiz-adv-x="1689" 
d="M221 1194q0 168 81 266.5t247 98.5q142 0 254 -39l115 16v-680q161 123 333 123q148 0 212.5 -84t64.5 -248v-647h-135v594q0 143 -36 204.5t-134 61.5q-156 0 -305 -108v-752h-134v1405q-106 35 -227 35q-109 0 -155 -59t-46 -179v-252h238v-112h-238v-838h-135v838
h-147v112h147v244z" />
    <glyph glyph-name="f_i" unicode="fi" horiz-adv-x="1087" 
d="M221 1196q0 165 81 264t233 99q102 0 196 -40t162 -108l-64 -82q-64 52 -141 81.5t-145 29.5q-187 0 -187 -238v-252h562v-950h-136v838h-426v-838h-135v838h-147v112h147v246z" />
    <glyph glyph-name="f_iacute" unicode="f&#xed;" horiz-adv-x="1087" 
d="M221 1194q0 166 73.5 265.5t219.5 99.5q120 0 225 -91l-55 -88q-88 60 -164 60q-164 0 -164 -236v-254h562v-950h-136v838h-426v-838h-135v838h-147v112h147v244zM727 1155l301 309l84 -84v-10l-324 -280z" />
    <glyph glyph-name="f_j" unicode="fj" horiz-adv-x="1087" 
d="M221 1194q0 167 81 266t233 99q207 0 358 -148l-64 -82q-60 51 -138.5 81t-147.5 30q-98 0 -142.5 -60.5t-44.5 -177.5v-252h562v-903q0 -129 -33.5 -231.5t-85.5 -170t-133 -134.5l-76 75q95 100 143.5 209t48.5 262v781h-426v-838h-135v838h-147v112h147v244z" />
    <glyph glyph-name="f_k" unicode="fk" horiz-adv-x="1601" 
d="M221 1194q0 166 80 265.5t246 99.5q131 0 256 -39l117 16v-1102l466 516h138q-4 -26 -43 -71l-322 -355l346 -444q34 -40 47 -80h-147l-332 430l-153 -158v-272h-136v1403q-107 37 -227 37q-110 0 -155.5 -58.5t-45.5 -179.5v-252h238v-112h-238v-838h-135v838h-147v112
h147v244z" />
    <glyph glyph-name="f_l" unicode="fl" horiz-adv-x="1124" 
d="M221 1194q0 166 80 265.5t246 99.5q137 0 256 -39l115 16v-1348q0 -49 14.5 -70.5t46.5 -21.5q33 0 76 15l30 -103q-76 -31 -145 -31q-77 0 -116.5 44.5t-39.5 130.5v1253q-112 35 -227 35q-110 0 -155.5 -58.5t-45.5 -179.5v-252h238v-112h-238v-838h-135v838h-147v112
h147v244z" />
    <glyph glyph-name="f_lcaron" unicode="f&#x13e;" 
d="M221 1194q0 166 80 265.5t246 99.5q137 0 256 -39l115 16v-1348q0 -49 14.5 -70.5t46.5 -21.5q33 0 76 15l30 -103q-76 -31 -145 -31q-77 0 -116.5 44.5t-39.5 130.5v1253q-112 35 -227 35q-110 0 -155.5 -58.5t-45.5 -179.5v-252h238v-112h-238v-838h-135v838h-147v112
h147v244zM1051 1540l123 4l6 -6l-31 -418h-98v420z" />
    <glyph glyph-name="f_t" unicode="ft" horiz-adv-x="1263" 
d="M793 1233h110v-283h295v-112h-295v-535q0 -121 25 -163t96 -42q66 0 158 25l26 -103q-116 -43 -231 -43q-112 0 -160.5 65.5t-48.5 227.5v568h-412v-838h-135v838h-147v112h147v240q0 168 75 268.5t224 100.5q118 0 238 -97l-58 -88q-101 66 -178 66q-166 0 -166 -230
v-260h404z" />
    <glyph glyph-name="f_f_i" unicode="ffi" horiz-adv-x="1652" 
d="M786 1192q0 59 13 119q-127 78 -248 78q-99 0 -147 -62t-48 -174v-203h430v242zM74 950h147v189q0 164 85 265t239 101q146 0 289 -96q83 150 268 150q202 0 356 -148l-63 -82q-142 111 -287 111q-98 0 -142 -60.5t-44 -177.5v-252h561v-950h-133v838h-428v-838h-136v838
h-430v-838h-135v838h-147v112z" />
    <glyph glyph-name="f_f_b" unicode="ffb" horiz-adv-x="2248" 
d="M786 1192q0 59 13 119q-127 78 -248 78q-99 0 -147 -62t-48 -174v-203h430v242zM1698 94q63 0 113 17.5t75 42.5q61 60 86 135.5t25 185.5q0 177 -65 282t-183 105q-127 0 -264 -137v-604q106 -27 213 -27zM74 950h147v189q0 164 85 265t239 101q143 0 286 -96
q83 150 287 150q131 0 250 -39l117 16v-698q131 141 282 141q175 0 272 -138t97 -354q0 -79 -16 -152t-51.5 -139t-86.5 -114t-126.5 -76.5t-167.5 -28.5q-157 0 -338 54v1374q-112 35 -226 35q-110 0 -156 -58.5t-46 -179.5v-252h239v-112h-239v-838h-134l-2 838h-430v-838
h-135v838h-147v112z" />
    <glyph glyph-name="f_f_h" unicode="ffh" horiz-adv-x="2250" 
d="M786 1194q0 51 11 115q-133 80 -250 80q-191 0 -191 -238v-201h430v244zM74 950h147v189q0 165 83 265.5t237 100.5q139 0 290 -98q81 152 283 152q131 0 250 -39l117 16v-678q155 121 331 121q148 0 212.5 -83.5t64.5 -248.5v-647h-135v594q0 143 -36 204.5t-134 61.5
q-154 0 -303 -108v-752h-135v1403q-104 37 -222 37q-111 0 -156.5 -58.5t-45.5 -179.5v-252h239v-112h-239v-838h-136v838h-430v-838h-135v838h-147v112z" />
    <glyph glyph-name="f_f_j" unicode="ffj" horiz-adv-x="1652" 
d="M786 1192q0 60 13 117q-134 80 -248 80q-99 0 -147 -62t-48 -174v-203h430v242zM74 950h147v189q0 164 85 265t239 101q144 0 289 -98q79 152 268 152q202 0 356 -148l-63 -82q-142 111 -287 111q-98 0 -142 -60.5t-44 -177.5v-252h561v-903q0 -129 -33.5 -231.5
t-85.5 -170t-133 -134.5l-76 75q96 101 145.5 210t49.5 261v781h-428v-838h-136v838h-430v-838h-135v838h-147v112z" />
    <glyph glyph-name="f_f_k" unicode="ffk" horiz-adv-x="2162" 
d="M786 1194q0 51 11 115q-133 80 -250 80q-191 0 -191 -238v-201h430v244zM74 950h147v189q0 165 83 265.5t237 100.5q144 0 290 -98q79 152 281 152q137 0 252 -39l117 16v-1102l467 516h137q-4 -26 -43 -71l-322 -355l346 -444q36 -42 48 -80h-148l-332 430l-153 -158
v-272h-135v1403q-107 37 -224 37q-109 0 -154.5 -58t-45.5 -180v-252h239v-112h-239v-838h-136v838h-430v-838h-135v838h-147v112z" />
    <glyph glyph-name="f_f_l" unicode="ffl" horiz-adv-x="1691" 
d="M786 1194q0 58 13 115q-134 80 -246 80q-197 0 -197 -238v-201h430v244zM74 950h147v189q0 164 85 265t239 101q137 0 289 -96q80 150 278 150q141 0 256 -39l117 16v-1348q0 -49 14 -70.5t45 -21.5q32 0 78 15l29 -103q-76 -31 -144 -31q-157 0 -157 175v1253
q-115 35 -226 35t-156.5 -57t-45.5 -181v-252h239v-112h-239v-838h-136v838h-430v-838h-135v838h-147v112z" />
    <glyph glyph-name="f_f_t" unicode="fft" horiz-adv-x="1828" 
d="M221 1139q0 164 85 265t239 101q143 0 286 -96q77 150 250 150q69 0 125.5 -23.5t116.5 -73.5l-55 -88q-104 66 -183 66q-163 0 -163 -236v-254h403l35 283h108v-283h295v-112h-295v-535q0 -121 25 -163t96 -42q66 0 158 25l29 -103q-116 -43 -234 -43
q-112 0 -159.5 65.5t-47.5 227.5v568h-413v-838h-136v838h-430v-838h-135v838h-147v112h147v189zM786 1194q0 57 13 117q-127 78 -248 78q-99 0 -147 -62.5t-48 -175.5v-201h430v244z" />
    <glyph glyph-name="T_h" unicode="Th" horiz-adv-x="2045" 
d="M35 1372h1108v162l133 4v-682q158 123 334 123q148 0 211 -83.5t63 -248.5v-647h-133v594q0 142 -37 204t-135 62q-154 0 -303 -108v-752h-133v1251h-527v-1251h-137v1251h-440z" />
    <glyph glyph-name="uni021A_h" unicode="&#x21a;h" horiz-adv-x="2045" 
d="M35 1372h1108v162l133 4v-682q158 123 334 123q148 0 211 -83.5t63 -248.5v-647h-133v594q0 142 -37 204t-135 62q-154 0 -303 -108v-752h-133v1251h-527v-1251h-137v1251h-440zM492 -147l118 14q11 -68 11 -111q0 -164 -95 -282l-82 47q54 100 54 223q0 50 -6 109z" />
    <glyph glyph-name="uni0162_h" unicode="&#x162;h" horiz-adv-x="2045" 
d="M35 1372h1108v162l133 4v-682q158 123 334 123q148 0 211 -83.5t63 -248.5v-647h-133v594q0 142 -37 204t-135 62q-154 0 -303 -108v-752h-133v1251h-527v-1251h-12l-51 -123h22q82 0 139.5 -36t57.5 -113q0 -94 -90 -159t-256 -93l-20 88q233 46 233 155q0 76 -113 76
q-17 0 -65 -6l-35 45l70 166h-17v1251h-440z" />
    <glyph glyph-name="jacute" unicode="&#xfc00;" horiz-adv-x="473" arabic-form="isolated" 
d="M170 948l135 4v-905q0 -188 -64.5 -311t-189.5 -225l-74 75q94 101 143.5 210t49.5 261v891zM102 1159l304 311l86 -88v-10l-324 -280z" />
    <glyph glyph-name="Jacute" unicode="&#xfc01;" horiz-adv-x="546" arabic-form="isolated" 
d="M211 1372h137v-1292q0 -264 -87 -396t-302 -149l-25 111q72 13 120.5 36.5t80 58t48 92t22.5 125t6 171.5v1243zM106 1620l414 170l43 -119v-8l-426 -137z" />
    <glyph glyph-name=".notdef" horiz-adv-x="1366" 
d="M201 1358h964v-1358h-964v1358zM1014 98l-330 494l-330 -494h660zM625 678l-328 493v-989zM1071 182v989l-330 -493zM684 766l330 494h-660z" />
    <glyph glyph-name=".null" horiz-adv-x="0" 
 />
    <glyph glyph-name="uni000D" unicode="&#xd;" horiz-adv-x="0" 
 />
    <glyph glyph-name="NULL" horiz-adv-x="0" 
 />
    <glyph glyph-name="NULL" horiz-adv-x="0" 
 />
    <glyph glyph-name="space" unicode=" " horiz-adv-x="446" 
 />
    <glyph glyph-name="exclam" unicode="!" horiz-adv-x="538" 
d="M199 1372h141l-12 -1026h-115zM168 78q0 47 29.5 77.5t76.5 30.5q44 0 70.5 -26.5t26.5 -69.5q0 -51 -29 -82t-76 -31q-44 0 -71 27.5t-27 73.5z" />
    <glyph glyph-name="quotedbl" unicode="&#x22;" horiz-adv-x="659" 
d="M385 1561h125l-10 -535h-103zM150 1561h124l-10 -535h-102z" />
    <glyph glyph-name="numbersign" unicode="#" horiz-adv-x="1306" 
d="M305 0l41 227h-235v107h254l55 301h-236v106h254l43 242l101 -16l-41 -226h315l43 242l100 -16l-41 -226h236v-106h-254l-53 -301h235v-107h-256l-43 -243l-98 16l41 227h-317l-43 -243zM784 334l54 301h-316l-53 -301h315z" />
    <glyph glyph-name="dollar" unicode="$" horiz-adv-x="1101" 
d="M281 1024q0 -88 62.5 -145.5t176.5 -104.5v467q-48 -5 -88.5 -18.5t-75.5 -38t-55 -65.5t-20 -95zM866 346q0 82 -60.5 139.5t-168.5 104.5v-459q101 13 165 65.5t64 149.5zM141 1022q0 83 30 147.5t83.5 105t120 63.5t145.5 30v172h117v-170q179 -8 315 -80l-47 -110
q-135 55 -268 63v-514q62 -25 108 -47t98 -56t84.5 -71t54.5 -88.5t22 -110.5q0 -83 -28 -147t-79 -105.5t-115.5 -65.5t-144.5 -34v-172h-117v168q-121 3 -234.5 39.5t-187.5 93.5l58 105q168 -105 364 -113v510l-6 2q-63 24 -110 46t-99.5 56.5t-86 72.5t-55.5 92.5
t-22 117.5z" />
    <glyph glyph-name="percent" unicode="%" horiz-adv-x="1464" 
d="M233 29l904 1382l92 -65l-901 -1383zM98 1001q0 106 29 195t92.5 147t151.5 58q122 0 188 -106t66 -261q0 -107 -29 -196t-93 -147t-153 -58q-121 0 -186.5 106t-65.5 262zM502 1028q0 120 -34.5 196t-100.5 76q-43 0 -76 -30q-70 -67 -70 -260q0 -120 34 -197.5
t101 -77.5q43 0 78 35q34 36 51 106.5t17 151.5zM840 340q0 105 29 193.5t93 147t152 58.5q82 0 140.5 -52t85 -133t26.5 -181q0 -107 -28.5 -196t-92 -147.5t-151.5 -58.5q-83 0 -141.5 52.5t-85.5 134t-27 182.5zM1243 367q0 120 -34 195t-101 75q-42 0 -74 -29
q-71 -68 -71 -260q0 -120 34.5 -198t100.5 -78q44 0 78 34q33 36 50 107.5t17 153.5z" />
    <glyph glyph-name="ampersand" unicode="&#x26;" horiz-adv-x="1482" 
d="M236 1077q0 138 86 229t245 91q131 0 216 -79.5t85 -203.5q-1 -71 -24.5 -133t-69 -114t-91 -90.5t-110.5 -82.5l5 -6q174 -216 352 -397q190 201 250 530h131q-15 -155 -94 -321t-201 -291q67 -61 116.5 -87t114.5 -26q61 0 135 33l43 -92q-30 -25 -80 -42.5t-108 -17.5
q-88 0 -155.5 35t-155.5 115q-191 -150 -404 -150q-180 0 -290.5 86t-110.5 250q-2 208 280 400q-74 95 -119.5 183.5t-45.5 180.5zM367 1079q0 -122 137 -299q110 74 171.5 148.5t61.5 171.5q0 82 -50 133t-124 51q-94 0 -145 -51q-51 -54 -51 -154zM532 96q154 0 308 113
q-176 170 -371 420q-211 -143 -211 -301q0 -109 72.5 -170.5t201.5 -61.5z" />
    <glyph glyph-name="quotesingle" unicode="'" horiz-adv-x="423" 
d="M150 1561h124l-10 -535h-102z" />
    <glyph glyph-name="parenleft" unicode="(" horiz-adv-x="632" 
d="M115 643q0 282 90.5 567t261.5 531l102 -68q-150 -224 -230 -486.5t-85 -543.5q5 -279 85 -539.5t230 -484.5l-102 -68q-171 246 -261.5 529t-90.5 563z" />
    <glyph glyph-name="parenright" unicode=")" horiz-adv-x="632" 
d="M63 1673l101 68q171 -245 261.5 -530t90.5 -568q0 -281 -90 -564t-262 -528l-101 68q150 223 229.5 484t84.5 540q-5 281 -84.5 544t-229.5 486z" />
    <glyph glyph-name="asterisk" unicode="*" horiz-adv-x="950" 
d="M344 1544l90 25l70 -279l192 209l66 -65l-207 -197l281 -66l-23 -90l-276 82l84 -276l-91 -25l-67 279l-195 -209l-65 65l207 197l-279 66l23 90l276 -82z" />
    <glyph glyph-name="plus" unicode="+" 
d="M506 928h119v-346h340v-113h-340v-346h-119v346h-342v113h342v346z" />
    <glyph glyph-name="comma" unicode="," horiz-adv-x="471" 
d="M164 276l129 11q16 -72 16 -144q0 -130 -58.5 -244.5t-168.5 -191.5l-59 53q151 147 151 375q0 63 -10 141z" />
    <glyph glyph-name="hyphen" unicode="-" horiz-adv-x="727" 
d="M152 545h423v-113h-423v113z" />
    <glyph glyph-name="period" unicode="." horiz-adv-x="493" 
d="M141 78q0 50 30 80t79 30q46 0 73 -27t27 -71q0 -53 -28.5 -84t-77.5 -31q-46 0 -74.5 28.5t-28.5 74.5z" />
    <glyph glyph-name="slash" unicode="/" horiz-adv-x="813" 
d="M66 -152l565 1606l114 -43l-565 -1608z" />
    <glyph glyph-name="zero" unicode="0" horiz-adv-x="1167" 
d="M125 655q0 144 31.5 276.5t89.5 238t150 168.5t204 63q106 0 192 -56t139.5 -152t82 -218t28.5 -258q0 -145 -31.5 -278t-90.5 -238t-151 -167.5t-204 -62.5q-106 0 -191 56t-138.5 152t-82 218t-28.5 258zM897 711q0 155 -33 281t-102.5 205t-165.5 79q-77 0 -143 -51
t-109.5 -153.5t-58.5 -203t-15 -202.5q0 -156 33 -283t102.5 -207t165.5 -80q81 0 144 51q67 52 110 156t57.5 204t14.5 204z" />
    <glyph glyph-name="one" unicode="1" horiz-adv-x="866" 
d="M119 1270l342 104l112 -4v-1249h224l6 -121h-682v121h315v1116l-286 -72z" />
    <glyph glyph-name="two" unicode="2" horiz-adv-x="1009" 
d="M119 1262q142 133 350 133q99 0 176.5 -32t125.5 -87.5t72.5 -126t24.5 -150.5q0 -76 -23 -153t-59 -144t-96 -144t-119 -141t-143 -147l-149 -149h612l6 -121h-774l-14 129l182 184q110 110 183 192t133 168t88 164.5t28 155.5q0 124 -67.5 200.5t-196.5 76.5
q-142 0 -275 -96z" />
    <glyph glyph-name="three" unicode="3" horiz-adv-x="1009" 
d="M121 1262q156 133 350 133q167 0 268 -89.5t101 -238.5q0 -111 -55.5 -201.5t-151.5 -142.5q116 -35 185 -121.5t69 -210.5q0 -188 -129.5 -303t-337.5 -115q-172 0 -307 78l43 103q111 -54 258 -54q131 0 217 60q112 75 112 225q0 124 -90 193t-235 69h-90l-4 119h94
q120 0 199 81.5t79 201.5q0 102 -66.5 161.5t-176.5 59.5q-131 0 -269 -94z" />
    <glyph glyph-name="four" unicode="4" horiz-adv-x="1124" 
d="M74 469l604 905l145 -4v-911h211l6 -117h-217v-342h-137v342h-594zM586 1022l-377 -563h477v719h-2z" />
    <glyph glyph-name="five" unicode="5" horiz-adv-x="989" 
d="M160 1372h657l-4 -123h-520v-434q100 27 182 27q177 0 291.5 -103t114.5 -282q0 -227 -135.5 -355.5t-348.5 -128.5q-137 0 -274 54l35 110q129 -39 231 -39q130 0 215 58q133 89 133 290q0 129 -79.5 204t-215.5 75q-111 0 -266 -51l-16 18v680z" />
    <glyph glyph-name="six" unicode="6" horiz-adv-x="1067" 
d="M125 578q0 127 24 245.5t73.5 222t119.5 181t168.5 122t214.5 44.5q65 0 131 -19l-18 -114q-44 8 -90 8q-109 0 -195.5 -42.5t-143 -118.5t-90.5 -173t-45 -213h5q140 100 309 100q175 0 278 -112.5t103 -282.5q0 -91 -29.5 -173t-82.5 -145t-134.5 -100t-179.5 -37
q-112 0 -195.5 51t-130.5 139t-69.5 192.5t-22.5 224.5zM551 96q109 0 184 72q90 90 90 246q0 130 -69 209t-193 79q-156 0 -295 -110q1 -107 16.5 -194t48 -156t88 -107.5t130.5 -38.5z" />
    <glyph glyph-name="seven" unicode="7" horiz-adv-x="942" 
d="M76 1372h796l13 -115l-551 -1288l-125 49l528 1231h-653z" />
    <glyph glyph-name="eight" unicode="8" horiz-adv-x="1105" 
d="M180 1063q0 149 107 243.5t276 94.5q161 0 264 -89t103 -233q0 -198 -207 -366q121 -66 191.5 -150.5t70.5 -208.5q0 -93 -35.5 -167t-96.5 -120.5t-140.5 -71t-169.5 -24.5q-189 0 -306.5 94t-117.5 261q0 56 16 107.5t41 92t63.5 80.5t75 69t84.5 62q-98 58 -158.5 142
t-60.5 184zM324 1069q0 -52 19.5 -94t61.5 -78.5t91.5 -65.5t126.5 -65q165 138 168 301q1 94 -64 154.5t-164 60.5q-104 0 -170 -57q-69 -56 -69 -156zM551 90q117 0 201 62q92 73 92 194q0 48 -16.5 88.5t-42 70.5t-73.5 63t-92 56.5t-118 59.5q-52 -35 -91 -67.5t-76 -76
t-57 -96t-20 -110.5q0 -112 83 -178t210 -66z" />
    <glyph glyph-name="nine" unicode="9" horiz-adv-x="1067" 
d="M504 670q156 0 295 110q-1 107 -16.5 194t-48 156t-88 107.5t-130.5 38.5q-109 0 -184 -72q-90 -90 -90 -246q0 -130 69 -209t193 -79zM98 946q0 91 29.5 173t82.5 145t134.5 100t179.5 37q90 0 162.5 -34t119.5 -91t78 -136t44.5 -164.5t13.5 -180.5q0 -127 -24 -245.5
t-73.5 -222t-119.5 -181t-168.5 -122t-214.5 -44.5q-72 0 -131 18l18 115q49 -9 90 -9q109 0 195.5 42.5t143 118.5t90.5 173t45 213h-5q-140 -100 -309 -100q-175 0 -278 112.5t-103 282.5z" />
    <glyph glyph-name="colon" unicode=":" horiz-adv-x="516" 
d="M154 778q0 48 29.5 78.5t76.5 30.5q44 0 71 -26.5t27 -69.5q0 -51 -28.5 -82t-75.5 -31q-44 0 -72 28t-28 72zM158 88q0 49 29.5 80t76.5 31q44 0 71 -27t27 -70q0 -52 -28 -82t-76 -30q-44 0 -72 27t-28 71z" />
    <glyph glyph-name="semicolon" unicode=";" horiz-adv-x="516" 
d="M209 276l127 11q16 -72 16 -144q0 -131 -58 -245.5t-169 -190.5l-57 53q151 147 151 375q0 23 -10 141zM154 778q0 48 29.5 78.5t76.5 30.5q44 0 71 -26.5t27 -69.5q0 -51 -28.5 -82t-75.5 -31q-44 0 -72 28t-28 72z" />
    <glyph glyph-name="less" unicode="&#x3c;" 
d="M160 582l725 358l55 -102l-618 -314l618 -313l-55 -105l-725 359v117z" />
    <glyph glyph-name="equal" unicode="=" 
d="M180 709h770v-111h-770v111zM180 446h770v-108h-770v108z" />
    <glyph glyph-name="greater" unicode="&#x3e;" 
d="M190 838l54 102l725 -358v-117l-725 -359l-54 105l617 313z" />
    <glyph glyph-name="question" unicode="?" horiz-adv-x="804" 
d="M76 1315q144 86 313 86q148 0 239 -74.5t91 -216.5q0 -98 -43 -175t-119 -159q-50 -53 -80.5 -95t-55.5 -109t-24 -140q0 -59 2 -84l-116 -6q-17 66 -17 115q0 64 14 119t43 101.5t54 76.5t65 71q138 146 138 277q0 87 -57.5 134.5t-160.5 45.5q-124 0 -239 -59zM244 78
q0 47 29.5 77.5t76.5 30.5q44 0 71.5 -26.5t27.5 -69.5q0 -51 -29 -82t-78 -31q-43 0 -70.5 28t-27.5 73z" />
    <glyph glyph-name="at" unicode="@" horiz-adv-x="1587" 
d="M121 453q0 162 48.5 297.5t138.5 233.5t225 152.5t301 53.5q143 -1 260.5 -44.5t197 -121t123 -186t43.5 -236.5q0 -118 -29.5 -208t-75 -142.5t-108.5 -85t-122 -43.5t-124 -10l-22 102q-110 -113 -236 -113q-130 0 -209 106t-79 281q0 73 19.5 142t57.5 127t101.5 93
t142.5 34q118 0 209 -54l16 48l95 -13l-9 -100q-4 -53 -4 -170v-201q0 -46 9 -170v-10q247 30 247 383q0 219 -137 353.5t-375 135.5q-278 0 -430.5 -170.5t-152.5 -457.5q0 -137 43 -248.5t115.5 -181t163.5 -106.5t192 -38q156 0 309 68l39 -86q-64 -38 -157.5 -62
t-198.5 -24q-125 1 -238 47t-200 129.5t-138 212t-51 283.5zM764 205q96 0 199 98v438q-80 47 -170 47q-84 0 -138 -57q-41 -42 -60.5 -95.5t-19.5 -137.5q0 -136 49 -214.5t140 -78.5z" />
    <glyph glyph-name="A" unicode="A" horiz-adv-x="1181" 
d="M594 1198l-234 -680h457l-127 379l-90 301h-6zM518 1368l154 8l407 -1218q29 -86 49 -158h-139l-133 401h-537l-137 -401h-139q21 70 51 158z" />
    <glyph glyph-name="B" unicode="B" horiz-adv-x="1179" 
d="M199 1362q198 31 331 31q217 0 339 -83t122 -251q0 -107 -52.5 -194.5t-154.5 -133.5q136 -29 210.5 -115t74.5 -227q0 -189 -133.5 -300.5t-386.5 -111.5q-135 0 -350 31v1354zM543 776q122 0 190 41q58 32 85.5 89t27.5 124q0 129 -83 185.5t-237 56.5q-78 0 -190 -17
v-477q41 0 109 -1t98 -1zM561 98q165 0 254 64q109 81 109 229q0 129 -94.5 198.5t-286.5 69.5q-137 0 -207 -2v-544q154 -15 225 -15z" />
    <glyph glyph-name="C" unicode="C" horiz-adv-x="1179" 
d="M119 662q0 113 22.5 218.5t71.5 199.5t118.5 164t171 110.5t222.5 40.5q211 0 362 -107l-55 -106q-149 88 -309 88q-187 0 -295 -117q-164 -170 -164 -479q0 -92 15 -173t50 -155.5t87 -127.5t131.5 -84.5t179.5 -31.5q165 0 332 80l41 -106q-187 -99 -389 -99
q-118 0 -215.5 35t-166.5 97.5t-117 148.5t-70.5 188t-22.5 216z" />
    <glyph glyph-name="D" unicode="D" horiz-adv-x="1337" 
d="M199 1362q193 33 385 33q292 0 463.5 -186.5t171.5 -497.5q0 -211 -82 -378t-232.5 -261.5t-343.5 -94.5q-197 0 -362 31v1354zM561 102q154 0 258 68q125 82 191.5 222t64.5 308q-2 259 -134 414.5t-366 155.5q-106 0 -239 -17v-1136q92 -15 225 -15z" />
    <glyph glyph-name="E" unicode="E" horiz-adv-x="1079" 
d="M199 1372h766l-4 -121h-625v-489h508v-121h-508v-520h629l4 -121h-770v1372z" />
    <glyph glyph-name="F" unicode="F" horiz-adv-x="1046" 
d="M199 1372h768l-6 -121h-627v-530h510v-121h-510v-600h-135v1372z" />
    <glyph glyph-name="G" unicode="G" horiz-adv-x="1253" 
d="M119 655q0 116 23.5 223t73.5 201.5t121.5 164.5t174.5 110.5t225 40.5q206 0 361 -107l-56 -106q-160 90 -313 90q-176 0 -299 -119q-166 -169 -166 -483q0 -90 15 -170.5t50 -154.5t88 -127.5t134 -85.5t182 -32q127 0 248 45v416h-340v121h473v-606q-190 -99 -391 -99
q-123 0 -224 35t-170.5 96.5t-117.5 147.5t-70 186t-22 213z" />
    <glyph glyph-name="H" unicode="H" horiz-adv-x="1349" 
d="M1014 1372h137v-1372h-137v641h-678v-641h-137v1372h137v-612h678v612z" />
    <glyph glyph-name="I" unicode="I" horiz-adv-x="532" 
d="M199 1372h137v-1372h-137v1372z" />
    <glyph glyph-name="J" unicode="J" horiz-adv-x="546" 
d="M211 1372h137v-1292q0 -264 -87 -396t-302 -149l-25 111q72 13 120.5 36.5t80 58t48 92t22.5 125t6 171.5v1243z" />
    <glyph glyph-name="K" unicode="K" horiz-adv-x="1163" 
d="M954 1372h154q-10 -27 -47 -69l-467 -504l432 -664q49 -71 82 -135h-154l-454 698l-164 -176v-522h-137v1372h137v-678h4z" />
    <glyph glyph-name="L" unicode="L" horiz-adv-x="991" 
d="M199 1372h137v-1251h600l4 -121h-741v1372z" />
    <glyph glyph-name="M" unicode="M" horiz-adv-x="1656" 
d="M1180 1372h182l162 -1241q2 -17 7.5 -62.5t6.5 -68.5h-131l-123 930l-22 244h-7l-356 -1174h-156l-280 930l-64 246h-6l-145 -1176h-127q1 27 16 137l156 1235h182l289 -954l57 -234h8z" />
    <glyph glyph-name="N" unicode="N" horiz-adv-x="1378" 
d="M199 1372h157l611 -1016l90 -178h2l-8 205v989h129v-1372h-160l-612 1020l-86 168h-3l7 -176v-1012h-127v1372z" />
    <glyph glyph-name="O" unicode="O" horiz-adv-x="1394" 
d="M119 668q0 108 21 211.5t67 198.5t112.5 166.5t164.5 114t216 42.5q134 0 244 -55t182 -149.5t111 -221t39 -270.5q0 -108 -21 -211.5t-67.5 -199t-113 -167t-164 -114t-214.5 -42.5q-135 0 -245.5 55t-182 150t-110.5 221.5t-39 270.5zM1130 686q0 166 -49 298t-149 212
t-236 80q-140 0 -237 -82q-100 -82 -147.5 -219.5t-47.5 -288.5q0 -166 49.5 -298.5t149.5 -212t235 -79.5q140 0 240 82t146 219t46 289z" />
    <glyph glyph-name="P" unicode="P" 
d="M477 635q164 0 250 45q78 34 122 108.5t44 178.5q0 303 -373 303q-66 0 -184 -15v-614q70 -6 141 -6zM199 1362q169 30 313 33q261 1 393.5 -105.5t132.5 -308.5q0 -217 -143.5 -343t-405.5 -126q-80 0 -153 8v-520h-137v1362z" />
    <glyph glyph-name="Q" unicode="Q" horiz-adv-x="1394" 
d="M119 668q0 108 21 211.5t67 198.5t112.5 166.5t164.5 114t216 42.5q134 0 244 -55t182 -149.5t111 -221t39 -270.5q0 -100 -18 -196t-57 -186t-95.5 -161t-138.5 -120.5t-181 -64.5q116 -190 328 -190q69 0 131 16l25 -112q-86 -29 -189 -29q-274 0 -434 311
q-164 13 -285.5 110.5t-182 248.5t-60.5 336zM1130 686q0 166 -49 298t-149 212t-236 80q-140 0 -237 -82q-100 -82 -147.5 -219.5t-47.5 -288.5q0 -166 49.5 -298.5t149.5 -212t235 -79.5q140 0 240 82t146 219t46 289z" />
    <glyph glyph-name="R" unicode="R" horiz-adv-x="1169" 
d="M485 690q148 0 242 43q76 32 121 98t45 160q0 279 -375 279q-58 0 -182 -15v-559q77 -6 149 -6zM199 1362q183 33 321 33q246 0 381 -99.5t135 -289.5q0 -139 -75 -243.5t-216 -154.5l267 -483q37 -64 59 -125h-147l-310 578q-59 -9 -125 -9q-73 0 -153 6v-575h-137v1362
z" />
    <glyph glyph-name="S" unicode="S" horiz-adv-x="1093" 
d="M139 1020q0 78 27 143t72.5 108.5t106.5 73t128 43t139 13.5q180 0 336 -78l-43 -109q-149 60 -303 60q-57 0 -110 -12t-102.5 -37.5t-79 -74t-29.5 -114.5q0 -34 9 -64t23 -52.5t39 -44t47 -36t58.5 -31t63 -27t69.5 -25.5q157 -61 215 -95q152 -87 179 -228
q7 -35 7 -73q0 -97 -38.5 -173t-105.5 -122.5t-151.5 -70t-181.5 -23.5q-116 0 -231 35.5t-193 93.5l57 109q173 -111 373 -111q62 0 118.5 14t105 42.5t77.5 78.5t29 115q0 50 -20.5 91t-45 67t-77.5 54.5t-85.5 41.5t-101.5 38q-5 2 -8 3q-49 19 -79.5 31.5t-74.5 34
t-71 40.5t-58.5 48t-48.5 60.5t-29 73t-12 89.5z" />
    <glyph glyph-name="T" unicode="T" 
d="M51 1372h1026l-4 -121h-440v-1251h-137v1251h-441z" />
    <glyph glyph-name="U" unicode="U" horiz-adv-x="1290" 
d="M971 1372h137v-840q0 -561 -475 -561q-219 0 -334 125.5t-115 384.5v891h138v-856q0 -102 14.5 -175t50 -131t102 -87t164.5 -29q64 0 120.5 23t90.5 55q107 99 107 317v883z" />
    <glyph glyph-name="V" unicode="V" horiz-adv-x="1196" 
d="M1008 1372h141q-11 -49 -64 -201l-413 -1167l-154 -8l-403 1175q-54 155 -64 201h146l299 -891l96 -311h6z" />
    <glyph glyph-name="W" unicode="W" horiz-adv-x="1830" 
d="M1642 1372h140q-7 -31 -29 -99t-29 -93l-352 -1176l-170 -8l-241 1030l-31 172h-8l-318 -1194l-170 -8l-317 1188q-41 155 -47 188h141l254 -956l53 -244h6l314 1200h180l225 -956l49 -246h6z" />
    <glyph glyph-name="X" unicode="X" horiz-adv-x="1165" 
d="M90 1372h156l340 -557h2l364 557h144q-10 -28 -52 -96l-372 -569l370 -594q46 -72 62 -113h-156l-366 598h-2l-390 -598h-145q18 47 64 113l387 589l-357 576q-43 74 -49 94z" />
    <glyph glyph-name="Y" unicode="Y" horiz-adv-x="1085" 
d="M903 1372h144q-18 -45 -80 -155l-359 -648v-569h-135v569l-350 648q-66 126 -78 155h150l256 -473l94 -180h2z" />
    <glyph glyph-name="Z" unicode="Z" horiz-adv-x="1148" 
d="M123 1372h909l23 -123l-822 -1128h809l5 -121h-951l-16 125l815 1126h-768z" />
    <glyph glyph-name="bracketleft" unicode="[" horiz-adv-x="720" 
d="M201 -426v2144h442v-110l-307 -4v-1913l307 -6v-111h-442z" />
    <glyph glyph-name="backslash" unicode="\" horiz-adv-x="813" 
d="M66 1411l114 43l568 -1606l-115 -45z" />
    <glyph glyph-name="bracketright" unicode="]" horiz-adv-x="720" 
d="M78 -315l307 6v1913l-307 4v110h442v-2144h-442v111z" />
    <glyph glyph-name="asciicircum" unicode="^" horiz-adv-x="956" 
d="M444 1366l68 6l319 -450l-102 -80l-252 354l-252 -354l-100 78z" />
    <glyph glyph-name="underscore" unicode="_" horiz-adv-x="966" 
d="M0 -80h967v-110h-967v110z" />
    <glyph glyph-name="grave" unicode="`" horiz-adv-x="819" 
d="M186 1382l86 88l301 -311l-65 -67l-322 280v10z" />
    <glyph glyph-name="a" unicode="a" horiz-adv-x="960" 
d="M129 819q187 154 387 154q148 0 214.5 -87t66.5 -276v-248q0 -127 16 -354l-113 -16l-26 133q-167 -148 -340 -148q-111 0 -176.5 63t-65.5 173q0 142 123 225q118 77 447 107v20q0 159 -38 224t-130 65q-144 0 -312 -121zM358 88q142 -3 304 143v211q-289 -26 -371 -82
q-68 -49 -68 -131q0 -68 36 -104.5t99 -36.5z" />
    <glyph glyph-name="b" unicode="b" horiz-adv-x="1062" 
d="M166 1534l133 4v-700q131 141 285 141q117 0 201 -66t124.5 -176t40.5 -250q0 -79 -16 -152t-51 -139t-86 -114t-127 -76.5t-168 -28.5q-155 0 -336 54v1503zM512 94q128 0 188 60q61 60 86 135.5t25 185.5q0 177 -64 282t-182 105q-127 0 -266 -139v-602
q106 -27 213 -27z" />
    <glyph glyph-name="c" unicode="c" horiz-adv-x="905" 
d="M113 455q0 230 117.5 374t306.5 144q174 0 284 -148l-69 -77q-58 55 -110 80.5t-116 25.5q-91 0 -157 -55q-117 -93 -117 -328q0 -186 77 -280.5t214 -94.5q98 0 239 54l35 -103q-152 -70 -291 -70q-191 0 -302 129t-111 349z" />
    <glyph glyph-name="d" unicode="d" horiz-adv-x="1073" 
d="M492 90q68 0 134 38.5t140 109.5v563q-102 61 -221 61q-121 0 -189 -65q-104 -101 -104 -322q0 -171 62.5 -278t177.5 -107zM113 446q0 79 15.5 154t50 144t84 121t122.5 83t160 31q110 0 221 -68v623l135 4v-1202q0 -105 17 -328l-113 -16l-27 139q-150 -160 -309 -160
q-156 0 -256 135.5t-100 339.5z" />
    <glyph glyph-name="e" unicode="e" horiz-adv-x="987" 
d="M113 461q0 145 51 261.5t148 185.5t223 69q164 0 251.5 -106.5t87.5 -272.5q0 -66 -14 -152h-610q6 -174 85 -262t210 -88q136 0 270 54l37 -97q-165 -76 -332 -76q-178 0 -292.5 126.5t-114.5 357.5zM526 862q-117 0 -187.5 -83t-84.5 -232h481q4 46 4 74q0 107 -56 174
t-157 67z" />
    <glyph glyph-name="f" unicode="f" horiz-adv-x="649" 
d="M221 1190q0 169 75.5 269t221.5 100q125 0 240 -97l-58 -88q-95 66 -180 66q-164 0 -164 -232v-258h238v-112h-238v-838h-135v838h-147v112h147v240z" />
    <glyph glyph-name="g" unicode="g" horiz-adv-x="995" 
d="M207 156q0 88 82 176q-86 39 -131 116t-45 175q0 66 22.5 127.5t65.5 112t115 80.5t163 30q116 0 201 -51q107 107 250 110l6 -117q-98 -9 -186 -49q84 -90 84 -227q0 -146 -97.5 -245t-271.5 -99q-51 0 -90 8q-43 -53 -43 -104q0 -32 13.5 -52t44 -30t63 -13t88.5 -4
q379 0 379 -264q0 -109 -63 -191t-168 -123.5t-234 -41.5q-176 0 -285.5 77.5t-108.5 211.5q0 168 179 290q-33 38 -33 97zM475 -408q163 0 248 74q70 61 70 154q0 51 -21 84.5t-64.5 50.5t-93 23.5t-122.5 7.5q-102 0 -168 20q-136 -96 -136 -221q0 -95 76.5 -144
t210.5 -49zM705 629q0 110 -59.5 172.5t-174.5 62.5q-104 0 -166.5 -60.5t-62.5 -166.5q0 -109 57.5 -171.5t173.5 -62.5q105 0 168.5 59t63.5 167z" />
    <glyph glyph-name="h" unicode="h" horiz-adv-x="1073" 
d="M170 1534l133 4v-682q158 123 334 123q148 0 211 -83.5t63 -248.5v-647h-133l-2 594q0 143 -36 204.5t-134 61.5q-154 0 -303 -108v-752h-133v1534z" />
    <glyph glyph-name="i" unicode="i" horiz-adv-x="473" 
d="M170 948l133 4v-952h-133v948zM139 1237q0 46 29.5 75t75.5 29q41 0 66.5 -25.5t25.5 -68.5q0 -45 -29 -73.5t-74 -28.5q-41 0 -67.5 25.5t-26.5 66.5z" />
    <glyph glyph-name="j" unicode="j" horiz-adv-x="473" 
d="M170 948l135 4v-905q0 -188 -64.5 -311t-189.5 -225l-74 75q94 101 143.5 210t49.5 261v891zM135 1237q0 46 29.5 75t75.5 29q41 0 66.5 -25.5t25.5 -68.5q0 -45 -29 -73.5t-74 -28.5q-41 0 -67.5 25.5t-26.5 66.5z" />
    <glyph glyph-name="k" unicode="k" horiz-adv-x="987" 
d="M772 950h137q-4 -26 -43 -71l-321 -355l346 -444q34 -40 47 -80h-147l-332 430l-154 -164v-266h-135v1534l135 4v-1104z" />
    <glyph glyph-name="l" unicode="l" horiz-adv-x="509" 
d="M168 1534l133 4v-1350q0 -49 14.5 -70.5t46.5 -21.5t76 15l31 -103q-76 -31 -147 -31q-74 0 -114 44.5t-40 130.5v1382z" />
    <glyph glyph-name="m" unicode="m" horiz-adv-x="1617" 
d="M156 948l114 17l25 -140q79 76 158 115t172 39q180 0 235 -162q82 80 163 121t177 41q136 0 197 -85.5t61 -256.5v-637h-135v588q0 145 -35 208.5t-123 63.5q-129 0 -286 -135q4 -54 4 -88v-637h-135v588q2 145 -33.5 208.5t-122.5 63.5q-132 0 -285 -131v-729h-135v588
q0 155 -16 360z" />
    <glyph glyph-name="n" unicode="n" horiz-adv-x="1075" 
d="M154 948l114 17l25 -136q166 150 346 150q150 0 213 -83.5t63 -248.5v-647h-135v594q0 140 -36.5 203t-133.5 63q-148 0 -303 -131v-729h-135v588q0 141 -18 360z" />
    <glyph glyph-name="o" unicode="o" horiz-adv-x="1056" 
d="M113 463q0 94 26.5 184t77 165t134 121t188.5 46q187 0 296 -137.5t109 -354.5q0 -76 -15.5 -149t-49.5 -140t-82.5 -117t-120 -80t-156.5 -30q-187 0 -297 137t-110 355zM807 469q0 175 -73.5 283t-207.5 108q-108 0 -176 -65q-47 -48 -73.5 -130t-26.5 -184
q0 -176 73.5 -284.5t208.5 -108.5q110 0 177 70q98 103 98 311z" />
    <glyph glyph-name="p" unicode="p" horiz-adv-x="1073" 
d="M526 88q119 0 191 66q104 98 104 323q0 109 -27 194t-84 137t-137 52q-69 0 -130 -32t-136 -97v-586q105 -57 219 -57zM156 948l112 17l25 -134q72 72 143 110t158 38q163 0 265 -135.5t102 -341.5q0 -99 -26.5 -191.5t-77.5 -169.5t-135 -123.5t-190 -46.5
q-118 0 -225 66v-529h-135v1078q0 132 -16 362z" />
    <glyph glyph-name="q" unicode="q" horiz-adv-x="1064" 
d="M115 463q0 78 15.5 150t50.5 138.5t87 115t130.5 77.5t174.5 29q145 0 326 -55v-1410h-135v562q-130 -99 -281 -99q-171 0 -269.5 140t-98.5 352zM510 88q107 0 254 84l2 657q-106 27 -207 27q-126 0 -194 -57q-111 -101 -111 -326q0 -175 68.5 -280t187.5 -105z" />
    <glyph glyph-name="r" unicode="r" horiz-adv-x="727" 
d="M154 948l114 17l31 -185q107 193 266 193q65 0 129 -35l-28 -123q-49 16 -109 16q-153 0 -250 -186v-645h-135v588q0 134 -18 360z" />
    <glyph glyph-name="s" unicode="s" horiz-adv-x="868" 
d="M131 705q-1 122 93 195t231 73q157 0 282 -99l-59 -88q-112 72 -223 72q-85 0 -136 -37t-51 -100q0 -35 15.5 -62.5t49.5 -49.5t63.5 -35.5t80.5 -32.5q55 -20 90 -35t77 -40t66.5 -51.5t41 -66.5t16.5 -88q0 -128 -97 -205.5t-253 -77.5q-181 0 -328 113l60 92
q132 -90 264 -90q95 0 155 41t60 113q0 18 -4 34t-13.5 30t-18 25t-26.5 22.5t-29.5 19t-36 18.5t-36.5 16t-41 16.5t-41 16.5q-58 22 -98 43.5t-77.5 52t-56.5 72t-20 93.5z" />
    <glyph glyph-name="t" unicode="t" horiz-adv-x="706" 
d="M238 1233h108v-283h295v-112h-295v-535q0 -121 25 -163t96 -42q69 0 158 25l28 -103q-116 -43 -233 -43q-112 0 -159.5 65.5t-47.5 227.5v568h-145v112h137z" />
    <glyph glyph-name="u" unicode="u" horiz-adv-x="1058" 
d="M160 948l135 4v-602q0 -136 41 -198t133 -62q129 0 285 146v714h133v-581q0 -115 18 -361l-112 -16l-27 137q-158 -158 -330 -158q-276 0 -276 332v645z" />
    <glyph glyph-name="v" unicode="v" horiz-adv-x="962" 
d="M766 950h129q0 -39 -16 -82l-330 -866l-141 -4l-320 870q-16 43 -16 82h133l221 -626q35 -104 51 -170h8z" />
    <glyph glyph-name="w" unicode="w" horiz-adv-x="1515" 
d="M698 948l133 4l195 -657l37 -141h8l244 796h129q0 -36 -17 -82l-292 -866l-146 -4l-194 633l-33 123h-6l-228 -752l-147 -4l-293 870q-16 54 -16 82h135l205 -655l41 -141h8z" />
    <glyph glyph-name="x" unicode="x" horiz-adv-x="940" 
d="M100 950h144l229 -358h2l236 358h129q-5 -33 -37 -82l-250 -366l287 -420q32 -54 34 -82h-137l-272 410h-2l-270 -410h-127q2 31 36 82l281 422l-246 364q-32 49 -37 82z" />
    <glyph glyph-name="y" unicode="y" horiz-adv-x="962" 
d="M768 950h129q0 -33 -18 -82l-359 -960q-89 -218 -185.5 -316t-213.5 -98q-22 0 -76 6v109q128 0 215.5 91t173.5 300h-24l-320 868q-16 43 -16 82h133l223 -626q29 -85 49 -170h8z" />
    <glyph glyph-name="z" unicode="z" horiz-adv-x="921" 
d="M121 950h680l22 -102l-571 -737h561l4 -111h-711l-16 102l567 738h-534z" />
    <glyph glyph-name="braceleft" unicode="{" horiz-adv-x="727" 
d="M55 604v88q36 5 64 13.5t48 22t35 27.5t24 36t14.5 39.5t8 46t3 48t0.5 52.5q0 69 -7 182.5t-7 167.5q0 100 31 175.5t87.5 122t127.5 72t159 32.5l14 -103q-70 -15 -118 -35.5t-87.5 -54.5t-59 -88t-19.5 -129q0 -66 7 -175.5t7 -166.5q0 -46 -1.5 -74t-6 -66t-16 -63
t-29.5 -51.5t-47.5 -45t-69.5 -30.5q40 -12 69.5 -30t47.5 -44t29.5 -51t16 -63t6 -66t1.5 -74q0 -57 -7 -169.5t-7 -178.5q0 -73 19 -126t58.5 -88t89 -56t119.5 -37l-16 -100q-70 6 -129 23t-110.5 48t-88 75.5t-57 108.5t-20.5 144q0 54 7 170.5t7 185.5q0 38 -0.5 59.5
t-4.5 53.5t-11.5 51t-22 42t-35 37t-52 25.5t-71.5 16.5z" />
    <glyph glyph-name="bar" unicode="|" horiz-adv-x="516" 
d="M201 1741h114v-2183h-114v2183z" />
    <glyph glyph-name="braceright" unicode="}" horiz-adv-x="727" 
d="M70 1626l16 103q88 -7 159 -32.5t128 -72t88 -122t31 -175.5q0 -54 -8.5 -167.5t-8.5 -182.5q0 -33 0.5 -52.5t3 -48t8 -46t14.5 -39.5t24 -36t35 -27.5t48 -22t64 -13.5v-88q-40 -5 -71.5 -16.5t-52 -25.5t-35 -37t-22 -42t-11.5 -51t-4.5 -53.5t-0.5 -59.5
q0 -69 8.5 -185.5t8.5 -170.5q0 -80 -21 -144t-57 -108.5t-88 -75.5t-111 -48t-129 -23l-16 100q143 32 213.5 99.5t70.5 207.5q0 66 -7 178.5t-7 169.5q0 46 1.5 74t6 66t16 63t29.5 51.5t47.5 45t69.5 30.5q-40 12 -69.5 30t-47.5 44t-29.5 51t-16 63t-6 66t-1.5 74
q0 57 7 166.5t7 175.5q0 75 -19.5 129t-59 88t-87.5 54.5t-118 35.5z" />
    <glyph glyph-name="asciitilde" unicode="~" horiz-adv-x="1069" 
d="M690 518q50 0 84 32.5t66 90.5l80 -39q-28 -85 -87.5 -140.5t-140.5 -55.5q-46 0 -90.5 19t-73.5 42t-66 42t-71 19q-53 0 -90.5 -32t-71.5 -86l-79 43q35 81 98 133.5t145 52.5q47 0 91.5 -19t73.5 -41.5t64.5 -41.5t67.5 -19z" />
    <glyph glyph-name="uni00A0" unicode="&#xa0;" horiz-adv-x="446" 
 />
    <glyph glyph-name="exclamdown" unicode="&#xa1;" horiz-adv-x="512" 
d="M199 604h114l15 -1026h-142zM154 872q0 44 28 72.5t72 28.5q47 0 75.5 -31t28.5 -82q0 -43 -27 -69.5t-71 -26.5q-47 0 -76.5 30.5t-29.5 77.5z" />
    <glyph glyph-name="cent" unicode="&#xa2;" horiz-adv-x="1081" 
d="M119 461q0 211 112.5 349t300.5 161v170h119v-168q204 -17 310 -170l-72 -78q-111 111 -238 127v-750q141 10 262 76l43 -96q-49 -34 -129 -64t-176 -38v-168h-119v168q-185 19 -299 147.5t-114 333.5zM256 469q0 -156 74 -249t202 -114v742q-75 -11 -129 -49
q-71 -50 -109 -135t-38 -195z" />
    <glyph glyph-name="sterling" unicode="&#xa3;" horiz-adv-x="1021" 
d="M129 748h152q3 327 91 491t283 164q138 0 244 -66l-45 -102q-91 43 -184 43q-104 0 -158 -66q-51 -56 -70.5 -168.5t-21.5 -295.5h293v-119h-295q-17 -331 -150 -508h637l4 -121h-800l-13 113q35 34 61 71t54 96.5t45.5 147.5t22.5 201h-150v119z" />
    <glyph glyph-name="currency" unicode="&#xa4;" horiz-adv-x="1058" 
d="M203 565q0 119 65 205l-133 133l76 72l133 -131q79 53 182 53q108 0 189 -59l139 137l76 -72l-144 -139q62 -91 62 -199q0 -112 -60 -200l142 -154l-76 -72l-137 152q-81 -62 -191 -62q-107 0 -184 58l-131 -148l-76 72l133 147q-65 86 -65 207zM737 565q0 94 -57.5 161
t-153.5 67q-97 0 -155 -67t-58 -161q0 -95 58 -163t155 -68q96 0 153.5 68t57.5 163z" />
    <glyph glyph-name="yen" unicode="&#xa5;" horiz-adv-x="1183" 
d="M948 1372h144q-31 -74 -82 -155l-330 -549h332v-107h-359v-168h359v-106h-359v-287h-135v287h-348v106h348v168h-348v107h319l-319 549q-51 84 -80 155h150l229 -420l119 -207h4z" />
    <glyph glyph-name="brokenbar" unicode="&#xa6;" horiz-adv-x="512" 
d="M199 1741h114v-2183h-114v2183zM313 489v320h-114v-320h114z" />
    <glyph glyph-name="section" unicode="&#xa7;" horiz-adv-x="929" 
d="M428 344q17 -8 104 -53q162 116 162 258q0 76 -48 130t-144 99q-52 25 -103 53q-161 -115 -163 -256q0 -76 48 -130t144 -101zM182 1110q0 140 98.5 215.5t241.5 75.5q142 0 266 -66l-45 -106q-112 53 -219 53q-91 0 -149 -42t-58 -122q0 -25 6 -46.5t22 -40.5t29 -32.5
t42 -31t44 -26t53 -27.5t52 -27q60 -32 103 -61.5t81.5 -69t58 -89t19.5 -108.5q0 -182 -204 -328q127 -97 127 -219q0 -94 -49 -160.5t-124.5 -97t-168.5 -30.5q-142 0 -265 65l45 105q119 -52 220 -52q91 0 147.5 42t56.5 122q0 19 -3.5 36t-13.5 33t-18 28t-26.5 26.5
t-29.5 23t-36 22.5t-36.5 20t-42 21.5t-41.5 21.5q-125 64 -193 138.5t-68 186.5q0 181 205 328q-127 98 -127 219z" />
    <glyph glyph-name="dieresis" unicode="&#xa8;" horiz-adv-x="819" 
d="M496 1231q0 40 27 67t69 27q36 0 60 -22.5t24 -61.5q0 -40 -25.5 -67t-66.5 -27q-39 0 -63.5 22.5t-24.5 61.5zM147 1231q0 40 27.5 67t69.5 27q37 0 60.5 -22.5t23.5 -61.5q0 -41 -25 -67.5t-67 -26.5q-39 0 -64 22.5t-25 61.5z" />
    <glyph glyph-name="copyright" unicode="&#xa9;" horiz-adv-x="1558" 
d="M119 686q0 136 53 258t142 209.5t210.5 138.5t253.5 51q177 0 329 -86.5t242.5 -238t90.5 -332.5t-90.5 -333t-242.5 -239t-329 -87q-132 0 -253.5 51.5t-210.5 139t-142 210t-53 258.5zM446 676q0 77 21.5 146t63.5 125.5t112 90t158 33.5q78 0 134.5 -28.5t88.5 -69.5
l-55 -62q-75 60 -164 60q-98 0 -156 -58q-82 -82 -82 -225q0 -60 13.5 -109.5t41.5 -89t76 -61.5t113 -22q86 0 178 49l39 -74q-33 -28 -96 -51t-139 -23q-167 0 -257 104t-90 265zM1333 686q0 154 -74.5 283.5t-202.5 204.5t-278 75t-277.5 -75t-201.5 -204.5t-74 -283.5
t74 -283.5t201.5 -204.5t277.5 -75t278 75t202.5 204.5t74.5 283.5z" />
    <glyph glyph-name="ordfeminine" unicode="&#xaa;" horiz-adv-x="774" 
d="M156 1251q121 95 256 95q105 0 151.5 -54.5t46.5 -171.5v-143q0 -57 13 -225l-95 -15l-24 84q-100 -90 -211 -90q-73 0 -117.5 39.5t-44.5 108.5q0 84 78 139q82 52 285 67v9q0 88 -23 122.5t-80 34.5q-84 0 -192 -67zM324 817q80 0 170 74v123q-164 -15 -213 -47
q-39 -27 -39 -72q0 -37 22 -57.5t60 -20.5z" />
    <glyph glyph-name="guillemotleft" unicode="&#xab;" horiz-adv-x="991" 
d="M96 508l342 410l86 -60l-284 -369l286 -374l-88 -60l-338 412zM449 508l342 410l86 -60l-285 -369l287 -374l-88 -60l-338 412z" />
    <glyph glyph-name="logicalnot" unicode="&#xac;" 
d="M195 580h741v-533l-119 2v418h-622v113z" />
    <glyph glyph-name="uni00AD" unicode="&#xad;" horiz-adv-x="727" 
d="M152 545h423v-113h-423v113z" />
    <glyph glyph-name="registered" unicode="&#xae;" horiz-adv-x="1132" 
d="M113 1069q0 185 132 316t320 131q190 0 322.5 -131t132.5 -316q0 -122 -60.5 -226t-165 -164.5t-229.5 -60.5q-188 0 -320 132t-132 319zM932 1069q0 153 -107 260t-258 107q-153 0 -259.5 -107t-106.5 -260q0 -156 106.5 -263.5t259.5 -107.5q152 0 258.5 107.5
t106.5 263.5zM532 1087q53 0 78 11q56 25 56 71q0 80 -125 80q-36 0 -56 -2v-160h47zM408 1305q54 10 137 10q94 0 146 -34.5t52 -104.5q0 -97 -98 -136l92 -155q16 -26 21 -45h-84l-101 184q-12 -2 -38 -2h-50v-182h-77v465z" />
    <glyph glyph-name="macron" unicode="&#xaf;" horiz-adv-x="819" 
d="M162 1257h493v-108h-493v108z" />
    <glyph glyph-name="degree" unicode="&#xb0;" horiz-adv-x="798" 
d="M119 1155q0 128 80 209.5t200 81.5q119 0 200 -82t81 -209q0 -126 -81.5 -208.5t-199.5 -82.5q-119 0 -199.5 82.5t-80.5 208.5zM563 1155q0 88 -44.5 139.5t-117.5 51.5q-74 0 -119.5 -50t-45.5 -141q0 -89 44.5 -139.5t120.5 -50.5q73 0 117.5 50t44.5 140z" />
    <glyph glyph-name="plusminus" unicode="&#xb1;" 
d="M506 1001h119v-342h329v-110h-329v-322h-119v322h-330v110h330v342zM176 113h778v-113h-778v113z" />
    <glyph glyph-name="twosuperior" unicode="&#xb2;" horiz-adv-x="612" 
d="M84 1524q88 71 213 71q108 0 163.5 -58.5t55.5 -152.5q0 -52 -18.5 -103t-56.5 -102t-75 -90t-94 -94l-55 -51h305l4 -96h-442l-8 96l104 100q57 57 87 89t65 77t50 84t15 78q0 56 -30 88.5t-91 32.5q-81 0 -151 -45z" />
    <glyph glyph-name="threesuperior" unicode="&#xb3;" horiz-adv-x="610" 
d="M82 1530q87 65 209 65q96 0 150.5 -48t54.5 -132q0 -55 -27.5 -101.5t-75.5 -74.5q62 -20 95.5 -66t33.5 -112q0 -105 -67.5 -167.5t-184.5 -62.5q-108 0 -198 48l34 88q85 -35 158 -35q59 0 90 24q47 32 47 103q0 58 -42 89.5t-117 31.5h-49l-5 90h50q63 0 101 36t38 91
q0 46 -28.5 73t-80.5 27q-72 0 -147 -41z" />
    <glyph glyph-name="acute" unicode="&#xb4;" horiz-adv-x="819" 
d="M279 1159l303 311l86 -88v-10l-324 -280z" />
    <glyph glyph-name="uni00B5" unicode="&#xb5;" horiz-adv-x="1202" 
d="M793 950h135v-690q0 -89 24.5 -126.5t75.5 -37.5q37 0 80 13l27 -101q-64 -31 -138 -31q-84 0 -129 47t-55 146q-35 -88 -106.5 -140.5t-180.5 -52.5q-133 0 -204 97l6 -561h-133v1435l133 4v-624q0 -98 53.5 -165t150.5 -67q61 0 112 28.5t82.5 73.5t49 96.5t17.5 100.5
v555z" />
    <glyph glyph-name="paragraph" unicode="&#xb6;" horiz-adv-x="1105" 
d="M66 985q0 201 141 305.5t379 104.5q44 0 69 -2v-1842h-116v977q-121 9 -214 50t-148.5 104t-83 139.5t-27.5 163.5zM780 -449v1831q82 -8 117 -16v-1815h-117z" />
    <glyph glyph-name="periodcentered" unicode="&#xb7;" horiz-adv-x="440" 
d="M127 520q0 44 25.5 72.5t68.5 28.5q40 0 65 -27t25 -66q0 -47 -24.5 -75.5t-67.5 -28.5t-67.5 27.5t-24.5 68.5z" />
    <glyph glyph-name="cedilla" unicode="&#xb8;" horiz-adv-x="819" 
d="M287 -166l84 203l92 -31l-53 -131q8 2 26 2q82 0 139.5 -36t57.5 -113q0 -94 -90 -159t-256 -93l-21 88q234 46 234 155q0 76 -113 76q-17 0 -65 -6z" />
    <glyph glyph-name="onesuperior" unicode="&#xb9;" horiz-adv-x="540" 
d="M78 1509l190 78l97 -2v-641h114l2 -96h-395v96h160v524l-137 -43z" />
    <glyph glyph-name="ordmasculine" unicode="&#xba;" horiz-adv-x="806" 
d="M123 1030q0 83 30 153.5t97 118.5t160 48q127 0 200.5 -87t73.5 -219q0 -62 -17.5 -117.5t-51.5 -100.5t-89.5 -72t-126.5 -27q-130 0 -203 85t-73 218zM565 1034q0 100 -41.5 163t-117.5 63q-50 0 -93 -31q-69 -54 -69 -189q0 -101 41.5 -162t120.5 -61q59 0 94 35
q65 53 65 182z" />
    <glyph glyph-name="guillemotright" unicode="&#xbb;" horiz-adv-x="991" 
d="M117 858l84 60l342 -410l-2 -41l-340 -412l-86 60l284 372zM469 858l84 60l342 -410l-2 -41l-340 -412l-86 60l285 372z" />
    <glyph glyph-name="onequarter" unicode="&#xbc;" horiz-adv-x="1646" 
d="M147 1264l226 77l96 -2v-641h143l4 -96h-460v96h194v529l-174 -49zM326 25l903 1386l88 -61l-903 -1387zM997 291l324 475l121 -2v-477h102l2 -94h-104v-164h-115v164h-317zM1276 535l-164 -248h215v329h-2z" />
    <glyph glyph-name="onehalf" unicode="&#xbd;" horiz-adv-x="1646" 
d="M147 1264l226 77l96 -2v-641h143l4 -96h-460v96h194v529l-174 -49zM326 25l903 1386l88 -61l-903 -1387zM1055 705q88 71 213 71q108 0 163.5 -58.5t55.5 -152.5q0 -52 -18.5 -103t-56.5 -102t-75 -90t-94 -94l-55 -51h305l4 -96h-442l-8 96l104 100q58 59 86 89.5
t64 76.5t50.5 84.5t14.5 77.5q0 57 -29 89t-90 32q-81 0 -151 -45z" />
    <glyph glyph-name="threequarters" unicode="&#xbe;" horiz-adv-x="1646" 
d="M147 1284q89 66 207 66q96 0 151.5 -48.5t55.5 -132.5q0 -55 -27 -101.5t-75 -74.5q60 -20 94.5 -67t34.5 -111q0 -105 -68 -167t-184 -62q-113 0 -201 47l37 88q85 -35 156 -35q57 0 92 25q45 31 45 102q0 58 -41.5 89.5t-118.5 31.5h-49l-2 90h47q64 0 101.5 35.5
t37.5 91.5q0 46 -28 73t-80 27q-68 0 -148 -41zM326 25l903 1386l88 -61l-903 -1387zM997 291l324 475l121 -2v-477h102l2 -94h-104v-164h-115v164h-317zM1276 535l-164 -248h215v329h-2z" />
    <glyph glyph-name="questiondown" unicode="&#xbf;" horiz-adv-x="790" 
d="M397 608l117 6q16 -66 16 -114q0 -64 -14 -119t-43 -102t-53.5 -77t-65.5 -73q-137 -141 -137 -274q0 -88 57.5 -135.5t161.5 -45.5q121 0 238 60l47 -92q-139 -86 -311 -86q-149 0 -240.5 74t-91.5 216q0 98 43 175t119 159q77 83 119 160t42 182q0 36 -4 86zM350 866
q0 51 29 82t76 31q44 0 71 -28t27 -72q0 -47 -30 -78t-77 -31q-43 0 -69.5 26.5t-26.5 69.5z" />
    <glyph glyph-name="Agrave" unicode="&#xc0;" horiz-adv-x="1181" 
d="M594 1198l-234 -680h457l-127 379l-90 301h-6zM518 1368l154 8l407 -1218q29 -86 49 -158h-139l-133 401h-537l-137 -401h-139q21 70 51 158zM309 1673l43 117l414 -170l-31 -94l-424 139z" />
    <glyph glyph-name="Aacute" unicode="&#xc1;" horiz-adv-x="1181" 
d="M594 1198l-234 -680h457l-127 379l-90 301h-6zM518 1368l154 8l407 -1218q29 -86 49 -158h-139l-133 401h-537l-137 -401h-139q21 70 51 158zM420 1620l414 170l43 -119v-8l-426 -137z" />
    <glyph glyph-name="Acircumflex" unicode="&#xc2;" horiz-adv-x="1181" 
d="M594 1198l-234 -680h457l-127 379l-90 301h-6zM518 1368l154 8l407 -1218q29 -86 49 -158h-139l-133 401h-537l-137 -401h-139q21 70 51 158zM541 1798l98 8l258 -219l-61 -78l-246 183l-244 -181l-59 78z" />
    <glyph glyph-name="Atilde" unicode="&#xc3;" horiz-adv-x="1181" 
d="M594 1198l-234 -680h457l-127 379l-90 301h-6zM518 1368l154 8l407 -1218q29 -86 49 -158h-139l-133 401h-537l-137 -401h-139q21 70 51 158zM709 1630q62 0 133 142l84 -43q-88 -211 -219 -211q-33 0 -62 14.5t-49.5 35t-39.5 40.5t-39.5 34.5t-41.5 14.5
q-58 0 -133 -137l-84 45q90 204 223 204q32 0 60.5 -14.5t49 -35t38.5 -40.5t38.5 -34.5t41.5 -14.5z" />
    <glyph glyph-name="Adieresis" unicode="&#xc4;" horiz-adv-x="1181" 
d="M594 1198l-234 -680h457l-127 379l-90 301h-6zM518 1368l154 8l407 -1218q29 -86 49 -158h-139l-133 401h-537l-137 -401h-139q21 70 51 158zM684 1634q0 40 27 66t69 26q38 0 62 -22t24 -59q0 -42 -26 -68.5t-68 -26.5q-39 0 -63.5 22.5t-24.5 61.5zM317 1634
q0 40 27 66t70 26q38 0 62 -22t24 -59q0 -42 -26 -68.5t-68 -26.5q-38 0 -63.5 22.5t-25.5 61.5z" />
    <glyph glyph-name="Aring" unicode="&#xc5;" horiz-adv-x="1181" 
d="M594 1198l-234 -680h457l-127 379l-90 301h-6zM518 1368l154 8l407 -1218q29 -86 49 -158h-139l-133 401h-537l-137 -401h-139q21 70 51 158zM381 1675q0 94 61.5 151.5t159.5 55.5q90 2 146.5 -51t56.5 -139q0 -92 -61 -148.5t-158 -56.5q-90 0 -147.5 52t-57.5 136z
M707 1688q0 47 -30 77.5t-79 30.5q-54 0 -86.5 -32t-32.5 -85q0 -46 30.5 -76t80.5 -30q53 0 85 31.5t32 83.5z" />
    <glyph glyph-name="AE" unicode="&#xc6;" horiz-adv-x="1755" 
d="M739 1032l-266 -481h399v702h-8zM786 1372h854l-4 -121h-626v-489h510v-121h-510v-520h628l4 -121h-770v428h-466l-236 -428h-147q0 15 18 47z" />
    <glyph glyph-name="Ccedilla" unicode="&#xc7;" horiz-adv-x="1179" 
d="M119 662q0 113 22.5 218.5t71.5 199.5t118.5 164t171 110.5t222.5 40.5q211 0 362 -107l-55 -106q-149 88 -309 88q-187 0 -295 -117q-164 -170 -164 -479q0 -92 15 -173t50 -155.5t87 -127.5t131.5 -84.5t179.5 -31.5q165 0 332 80l41 -106q-187 -99 -379 -99l-43 -100
h22q82 0 139.5 -36t57.5 -113q0 -94 -90 -159t-256 -93l-21 88q234 46 234 155q0 76 -113 76q-17 0 -65 -6l-35 45l61 150q-122 17 -217.5 77t-155 151t-90 205t-30.5 245z" />
    <glyph glyph-name="Egrave" unicode="&#xc8;" horiz-adv-x="1079" 
d="M199 1372h766l-4 -121h-625v-489h508v-121h-508v-520h629l4 -121h-770v1372zM303 1673l43 117l414 -170l-31 -94l-424 139z" />
    <glyph glyph-name="Eacute" unicode="&#xc9;" horiz-adv-x="1079" 
d="M199 1372h766l-4 -121h-625v-489h508v-121h-508v-520h629l4 -121h-770v1372zM414 1620l413 170l43 -119v-8l-426 -137z" />
    <glyph glyph-name="Ecircumflex" unicode="&#xca;" horiz-adv-x="1079" 
d="M199 1372h766l-4 -121h-625v-489h508v-121h-508v-520h629l4 -121h-770v1372zM535 1798l98 8l258 -219l-62 -78l-245 183l-244 -181l-59 78z" />
    <glyph glyph-name="Edieresis" unicode="&#xcb;" horiz-adv-x="1079" 
d="M199 1372h766l-4 -121h-625v-489h508v-121h-508v-520h629l4 -121h-770v1372zM678 1634q0 40 27 66t69 26q38 0 62 -22t24 -59q0 -42 -26 -68.5t-68 -26.5q-39 0 -63.5 22.5t-24.5 61.5zM311 1634q0 40 27 66t70 26q38 0 62 -22t24 -59q0 -42 -26.5 -68.5t-68.5 -26.5
q-38 0 -63 22.5t-25 61.5z" />
    <glyph glyph-name="Igrave" unicode="&#xcc;" horiz-adv-x="532" 
d="M199 1372h137v-1372h-137v1372zM-16 1673l43 117l413 -170l-30 -94l-424 139z" />
    <glyph glyph-name="Iacute" unicode="&#xcd;" horiz-adv-x="532" 
d="M199 1372h137v-1372h-137v1372zM94 1620l414 170l43 -119v-8l-426 -137z" />
    <glyph glyph-name="Icircumflex" unicode="&#xce;" horiz-adv-x="532" 
d="M199 1372h137v-1372h-137v1372zM215 1798l98 8l258 -219l-61 -78l-246 183l-244 -181l-59 78z" />
    <glyph glyph-name="Idieresis" unicode="&#xcf;" horiz-adv-x="532" 
d="M199 1372h137v-1372h-137v1372zM358 1634q0 40 27 66t70 26q38 0 62 -22t24 -59q0 -42 -26.5 -68.5t-68.5 -26.5q-39 0 -63.5 22.5t-24.5 61.5zM-8 1634q0 40 27 66t69 26q38 0 62 -22t24 -59q0 -42 -26 -68.5t-68 -26.5q-38 0 -63 22.5t-25 61.5z" />
    <glyph glyph-name="Eth" unicode="&#xd0;" horiz-adv-x="1349" 
d="M211 1362q196 33 385 33q292 0 464.5 -187t172.5 -497q0 -211 -82 -378t-233 -261.5t-345 -94.5q-197 0 -362 31v637h-158v115h158v602zM575 102q151 0 259 68q124 82 189.5 222.5t63.5 307.5q-2 260 -133.5 415t-365.5 155q-107 0 -240 -17v-493h340v-115h-340v-528
q118 -15 227 -15z" />
    <glyph glyph-name="Ntilde" unicode="&#xd1;" horiz-adv-x="1378" 
d="M199 1372h157l611 -1016l90 -178h2l-8 205v989h129v-1372h-160l-612 1020l-86 168h-3l7 -176v-1012h-127v1372zM825 1630q62 0 133 142l84 -43q-88 -211 -219 -211q-33 0 -62 14.5t-49.5 35t-39 40.5t-39 34.5t-41.5 14.5q-58 0 -133 -137l-84 45q90 204 223 204
q32 0 60.5 -14.5t48.5 -35t38.5 -40.5t38.5 -34.5t41 -14.5z" />
    <glyph glyph-name="Ograve" unicode="&#xd2;" horiz-adv-x="1394" 
d="M119 668q0 108 21 211.5t67 198.5t112.5 166.5t164.5 114t216 42.5q134 0 244 -55t182 -149.5t111 -221t39 -270.5q0 -108 -21 -211.5t-67.5 -199t-113 -167t-164 -114t-214.5 -42.5q-135 0 -245.5 55t-182 150t-110.5 221.5t-39 270.5zM1130 686q0 166 -49 298t-149 212
t-236 80q-140 0 -237 -82q-100 -82 -147.5 -219.5t-47.5 -288.5q0 -166 49.5 -298.5t149.5 -212t235 -79.5q140 0 240 82t146 219t46 289zM414 1673l43 117l413 -170l-30 -94l-424 139z" />
    <glyph glyph-name="Oacute" unicode="&#xd3;" horiz-adv-x="1394" 
d="M119 668q0 108 21 211.5t67 198.5t112.5 166.5t164.5 114t216 42.5q134 0 244 -55t182 -149.5t111 -221t39 -270.5q0 -108 -21 -211.5t-67.5 -199t-113 -167t-164 -114t-214.5 -42.5q-135 0 -245.5 55t-182 150t-110.5 221.5t-39 270.5zM1130 686q0 166 -49 298t-149 212
t-236 80q-140 0 -237 -82q-100 -82 -147.5 -219.5t-47.5 -288.5q0 -166 49.5 -298.5t149.5 -212t235 -79.5q140 0 240 82t146 219t46 289zM524 1620l414 170l43 -119v-8l-426 -137z" />
    <glyph glyph-name="Ocircumflex" unicode="&#xd4;" horiz-adv-x="1394" 
d="M119 668q0 108 21 211.5t67 198.5t112.5 166.5t164.5 114t216 42.5q134 0 244 -55t182 -149.5t111 -221t39 -270.5q0 -108 -21 -211.5t-67.5 -199t-113 -167t-164 -114t-214.5 -42.5q-135 0 -245.5 55t-182 150t-110.5 221.5t-39 270.5zM1130 686q0 166 -49 298t-149 212
t-236 80q-140 0 -237 -82q-100 -82 -147.5 -219.5t-47.5 -288.5q0 -166 49.5 -298.5t149.5 -212t235 -79.5q140 0 240 82t146 219t46 289zM645 1798l98 8l258 -219l-61 -78l-246 183l-243 -181l-60 78z" />
    <glyph glyph-name="Otilde" unicode="&#xd5;" horiz-adv-x="1394" 
d="M119 668q0 108 21 211.5t67 198.5t112.5 166.5t164.5 114t216 42.5q134 0 244 -55t182 -149.5t111 -221t39 -270.5q0 -108 -21 -211.5t-67.5 -199t-113 -167t-164 -114t-214.5 -42.5q-135 0 -245.5 55t-182 150t-110.5 221.5t-39 270.5zM1130 686q0 166 -49 298t-149 212
t-236 80q-140 0 -237 -82q-100 -82 -147.5 -219.5t-47.5 -288.5q0 -166 49.5 -298.5t149.5 -212t235 -79.5q140 0 240 82t146 219t46 289zM813 1630q62 0 133 142l84 -43q-88 -211 -219 -211q-33 0 -62 14.5t-49.5 35t-39 40.5t-39 34.5t-41.5 14.5q-59 0 -134 -137l-84 45
q90 204 224 204q32 0 60.5 -14.5t48.5 -35t38.5 -40.5t38.5 -34.5t41 -14.5z" />
    <glyph glyph-name="Odieresis" unicode="&#xd6;" horiz-adv-x="1394" 
d="M119 668q0 108 21 211.5t67 198.5t112.5 166.5t164.5 114t216 42.5q134 0 244 -55t182 -149.5t111 -221t39 -270.5q0 -108 -21 -211.5t-67.5 -199t-113 -167t-164 -114t-214.5 -42.5q-135 0 -245.5 55t-182 150t-110.5 221.5t-39 270.5zM1130 686q0 166 -49 298t-149 212
t-236 80q-140 0 -237 -82q-100 -82 -147.5 -219.5t-47.5 -288.5q0 -166 49.5 -298.5t149.5 -212t235 -79.5q140 0 240 82t146 219t46 289zM788 1634q0 40 27 66t70 26q38 0 62 -22t24 -59q0 -42 -26 -68.5t-68 -26.5q-39 0 -64 22.5t-25 61.5zM422 1634q0 40 27 66t69 26
q38 0 62 -22t24 -59q0 -42 -26 -68.5t-68 -26.5q-38 0 -63 22.5t-25 61.5z" />
    <glyph glyph-name="multiply" unicode="&#xd7;" 
d="M834 172l-269 274l-268 -274l-80 72l272 278l-272 279l80 73l268 -274l269 274l79 -73l-272 -279l272 -278z" />
    <glyph glyph-name="Oslash" unicode="&#xd8;" horiz-adv-x="1386" 
d="M119 668q0 108 21 211.5t66.5 198.5t111.5 166.5t163 114t213 42.5q153 0 271 -70l77 150l101 -58l-84 -161q101 -95 155 -240.5t54 -316.5q0 -90 -15 -177t-45 -169.5t-78 -152.5t-110 -122.5t-146.5 -82.5t-181.5 -30q-151 0 -272 70l-78 -147l-100 55l84 162
q-100 94 -153.5 239.5t-53.5 317.5zM264 686q0 -278 131 -444l508 972q-92 64 -211 64q-134 0 -235 -82q-100 -82 -146.5 -220t-46.5 -290zM1122 686q0 281 -131 447l-510 -973q91 -66 213 -66q135 0 236 82q100 82 146 219.5t46 290.5z" />
    <glyph glyph-name="Ugrave" unicode="&#xd9;" horiz-adv-x="1290" 
d="M971 1372h137v-840q0 -561 -475 -561q-219 0 -334 125.5t-115 384.5v891h138v-856q0 -102 14.5 -175t50 -131t102 -87t164.5 -29q64 0 120.5 23t90.5 55q107 99 107 317v883zM362 1673l44 117l413 -170l-31 -94l-423 139z" />
    <glyph glyph-name="Uacute" unicode="&#xda;" horiz-adv-x="1290" 
d="M971 1372h137v-840q0 -561 -475 -561q-219 0 -334 125.5t-115 384.5v891h138v-856q0 -102 14.5 -175t50 -131t102 -87t164.5 -29q64 0 120.5 23t90.5 55q107 99 107 317v883zM473 1620l414 170l43 -119v-8l-426 -137z" />
    <glyph glyph-name="Ucircumflex" unicode="&#xdb;" horiz-adv-x="1290" 
d="M971 1372h137v-840q0 -561 -475 -561q-219 0 -334 125.5t-115 384.5v891h138v-856q0 -102 14.5 -175t50 -131t102 -87t164.5 -29q64 0 120.5 23t90.5 55q107 99 107 317v883zM594 1798l98 8l258 -219l-61 -78l-246 183l-244 -181l-59 78z" />
    <glyph glyph-name="Udieresis" unicode="&#xdc;" horiz-adv-x="1290" 
d="M971 1372h137v-840q0 -561 -475 -561q-219 0 -334 125.5t-115 384.5v891h138v-856q0 -102 14.5 -175t50 -131t102 -87t164.5 -29q64 0 120.5 23t90.5 55q107 99 107 317v883zM737 1634q0 40 27 66t70 26q38 0 62 -22t24 -59q0 -42 -26.5 -68.5t-68.5 -26.5
q-39 0 -63.5 22.5t-24.5 61.5zM371 1634q0 40 27 66t69 26q38 0 62 -22t24 -59q0 -42 -26 -68.5t-68 -26.5q-38 0 -63 22.5t-25 61.5z" />
    <glyph glyph-name="Yacute" unicode="&#xdd;" horiz-adv-x="1085" 
d="M903 1372h144q-18 -45 -80 -155l-359 -648v-569h-135v569l-350 648q-66 126 -78 155h150l256 -473l94 -180h2zM375 1620l413 170l43 -119v-8l-425 -137z" />
    <glyph glyph-name="Thorn" unicode="&#xde;" 
d="M481 393q159 0 254 49q158 83 158 289q0 152 -97.5 224.5t-271.5 72.5q-96 0 -188 -14v-613q73 -8 145 -8zM199 1372h137v-233q107 14 192 14q239 0 374.5 -103.5t135.5 -304.5q0 -104 -34 -189.5t-100.5 -149.5t-173.5 -99t-245 -35q-82 0 -149 11v-283h-137v1372z" />
    <glyph glyph-name="germandbls" unicode="&#xdf;" horiz-adv-x="1124" 
d="M221 1188q0 169 85.5 270t234.5 101q141 -1 220 -83.5t79 -222.5q1 -69 -24.5 -140.5t-56.5 -121.5t-57 -109t-26 -106q0 -68 36 -114t115 -97q57 -38 87 -62t65 -62t50 -82t15 -99q0 -128 -83.5 -205.5t-233.5 -77.5q-152 0 -274 72l41 101q114 -60 235 -60
q87 0 135.5 41t48.5 117q0 64 -37 108t-131 105q-51 35 -82.5 62t-61 62.5t-43 78t-13.5 94.5q0 63 25.5 128.5t56 113t56 116t24.5 137.5q0 89 -42 140t-124 51q-185 0 -185 -244v-1200h-135v838h-147v112h147v238z" />
    <glyph glyph-name="agrave" unicode="&#xe0;" horiz-adv-x="960" 
d="M129 819q187 154 387 154q148 0 214.5 -87t66.5 -276v-248q0 -127 16 -354l-113 -16l-26 133q-167 -148 -340 -148q-111 0 -176.5 63t-65.5 173q0 142 123 225q118 77 447 107v20q0 159 -38 224t-130 65q-144 0 -312 -121zM358 88q142 -3 304 143v211q-289 -26 -371 -82
q-68 -49 -68 -131q0 -68 36 -104.5t99 -36.5zM252 1382l86 88l301 -311l-66 -67l-321 280v10z" />
    <glyph glyph-name="aacute" unicode="&#xe1;" horiz-adv-x="960" 
d="M129 819q187 154 387 154q148 0 214.5 -87t66.5 -276v-248q0 -127 16 -354l-113 -16l-26 133q-167 -148 -340 -148q-111 0 -176.5 63t-65.5 173q0 142 123 225q118 77 447 107v20q0 159 -38 224t-130 65q-144 0 -312 -121zM358 88q142 -3 304 143v211q-289 -26 -371 -82
q-68 -49 -68 -131q0 -68 36 -104.5t99 -36.5zM344 1159l303 311l86 -88v-10l-323 -280z" />
    <glyph glyph-name="acircumflex" unicode="&#xe2;" horiz-adv-x="960" 
d="M129 819q187 154 387 154q148 0 214.5 -87t66.5 -276v-248q0 -127 16 -354l-113 -16l-26 133q-167 -148 -340 -148q-111 0 -176.5 63t-65.5 173q0 142 123 225q118 77 447 107v20q0 159 -38 224t-130 65q-144 0 -312 -121zM358 88q142 -3 304 143v211q-289 -26 -371 -82
q-68 -49 -68 -131q0 -68 36 -104.5t99 -36.5zM424 1446l100 8l242 -295l-74 -65l-217 235l-221 -237l-72 67z" />
    <glyph glyph-name="atilde" unicode="&#xe3;" horiz-adv-x="960" 
d="M129 819q187 154 387 154q148 0 214.5 -87t66.5 -276v-248q0 -127 16 -354l-113 -16l-26 133q-167 -148 -340 -148q-111 0 -176.5 63t-65.5 173q0 142 123 225q118 77 447 107v20q0 159 -38 224t-130 65q-144 0 -312 -121zM358 88q142 -3 304 143v211q-289 -26 -371 -82
q-68 -49 -68 -131q0 -68 36 -104.5t99 -36.5zM592 1225q65 0 129 137l84 -41q-37 -99 -93 -154t-120 -55q-41 0 -77 21.5t-57 47t-48 47t-52 21.5q-32 0 -62.5 -35t-68.5 -102l-82 43q39 98 95 152.5t122 54.5q40 0 75 -21.5t56 -47t47.5 -47t51.5 -21.5z" />
    <glyph glyph-name="adieresis" unicode="&#xe4;" horiz-adv-x="960" 
d="M129 819q187 154 387 154q148 0 214.5 -87t66.5 -276v-248q0 -127 16 -354l-113 -16l-26 133q-167 -148 -340 -148q-111 0 -176.5 63t-65.5 173q0 142 123 225q118 77 447 107v20q0 159 -38 224t-130 65q-144 0 -312 -121zM358 88q142 -3 304 143v211q-289 -26 -371 -82
q-68 -49 -68 -131q0 -68 36 -104.5t99 -36.5zM561 1231q0 40 27 67t69 27q36 0 60 -22.5t24 -61.5q0 -40 -25.5 -67t-66.5 -27q-39 0 -63.5 22.5t-24.5 61.5zM213 1231q0 40 27 67t69 27q37 0 60.5 -22.5t23.5 -61.5q0 -41 -25 -67.5t-67 -26.5q-39 0 -63.5 22.5t-24.5 61.5
z" />
    <glyph glyph-name="aring" unicode="&#xe5;" horiz-adv-x="960" 
d="M129 819q187 154 387 154q148 0 214.5 -87t66.5 -276v-248q0 -127 16 -354l-113 -16l-26 133q-167 -148 -340 -148q-111 0 -176.5 63t-65.5 173q0 142 123 225q118 77 447 107v20q0 159 -38 224t-130 65q-144 0 -312 -121zM358 88q142 -3 304 143v211q-289 -26 -371 -82
q-68 -49 -68 -131q0 -68 36 -104.5t99 -36.5zM262 1270q0 98 61.5 156.5t161.5 58.5q90 0 147.5 -53.5t57.5 -143.5q0 -97 -61.5 -156t-159.5 -59q-91 0 -149 54t-58 143zM588 1284q0 53 -28 83t-79 30q-57 0 -88 -33t-31 -92q0 -51 29 -81t80 -30q55 0 86 33t31 90z" />
    <glyph glyph-name="ae" unicode="&#xe6;" horiz-adv-x="1538" 
d="M1077 862q-116 0 -187.5 -82.5t-86.5 -232.5h483q4 46 4 74q0 107 -56 174t-157 67zM217 438q117 80 445 109v18q0 159 -38 224t-130 65q-142 0 -312 -119l-51 84q187 154 385 154q101 0 160 -42.5t84 -133.5q57 85 140 132.5t185 47.5q164 0 252 -106.5t88 -272.5
q0 -66 -14 -152h-612q6 -174 86 -262t211 -88q136 0 270 54l37 -97q-165 -76 -332 -76q-103 0 -189 45.5t-139 133.5q-172 -179 -387 -179q-124 0 -195 61.5t-71 174.5q0 140 127 225zM375 88q169 -3 325 156q-29 92 -32 200q-168 -17 -251.5 -36t-123.5 -48
q-70 -47 -70 -131q0 -69 39 -105t113 -36z" />
    <glyph glyph-name="ccedilla" unicode="&#xe7;" horiz-adv-x="905" 
d="M113 455q0 230 117.5 374t306.5 144q174 0 284 -148l-69 -77q-58 55 -110 80.5t-116 25.5q-91 0 -157 -55q-117 -93 -117 -328q0 -186 77 -280.5t214 -94.5q98 0 239 54l35 -103q-143 -67 -276 -70l-41 -102q8 2 26 2q82 0 139.5 -36t57.5 -113q0 -94 -90 -159t-256 -93
l-21 88q234 46 234 155q0 76 -113 76q-17 0 -65 -6l-35 45l63 152q-154 28 -240.5 152t-86.5 317z" />
    <glyph glyph-name="egrave" unicode="&#xe8;" horiz-adv-x="987" 
d="M113 461q0 145 51 261.5t148 185.5t223 69q164 0 251.5 -106.5t87.5 -272.5q0 -66 -14 -152h-610q6 -174 85 -262t210 -88q136 0 270 54l37 -97q-165 -76 -332 -76q-178 0 -292.5 126.5t-114.5 357.5zM526 862q-117 0 -187.5 -83t-84.5 -232h481q4 46 4 74q0 107 -56 174
t-157 67zM291 1382l86 88l301 -311l-66 -67l-321 280v10z" />
    <glyph glyph-name="eacute" unicode="&#xe9;" horiz-adv-x="987" 
d="M113 461q0 145 51 261.5t148 185.5t223 69q164 0 251.5 -106.5t87.5 -272.5q0 -66 -14 -152h-610q6 -174 85 -262t210 -88q136 0 270 54l37 -97q-165 -76 -332 -76q-178 0 -292.5 126.5t-114.5 357.5zM526 862q-117 0 -187.5 -83t-84.5 -232h481q4 46 4 74q0 107 -56 174
t-157 67zM383 1159l303 311l86 -88v-10l-323 -280z" />
    <glyph glyph-name="ecircumflex" unicode="&#xea;" horiz-adv-x="987" 
d="M113 461q0 145 51 261.5t148 185.5t223 69q164 0 251.5 -106.5t87.5 -272.5q0 -66 -14 -152h-610q6 -174 85 -262t210 -88q136 0 270 54l37 -97q-165 -76 -332 -76q-178 0 -292.5 126.5t-114.5 357.5zM526 862q-117 0 -187.5 -83t-84.5 -232h481q4 46 4 74q0 107 -56 174
t-157 67zM463 1446l100 8l242 -295l-74 -65l-217 235l-221 -237l-72 67z" />
    <glyph glyph-name="edieresis" unicode="&#xeb;" horiz-adv-x="987" 
d="M113 461q0 145 51 261.5t148 185.5t223 69q164 0 251.5 -106.5t87.5 -272.5q0 -66 -14 -152h-610q6 -174 85 -262t210 -88q136 0 270 54l37 -97q-165 -76 -332 -76q-178 0 -292.5 126.5t-114.5 357.5zM526 862q-117 0 -187.5 -83t-84.5 -232h481q4 46 4 74q0 107 -56 174
t-157 67zM600 1231q0 40 27 67t69 27q36 0 60 -22.5t24 -61.5q0 -40 -25.5 -67t-66.5 -27q-39 0 -63.5 22.5t-24.5 61.5zM252 1231q0 40 27 67t69 27q37 0 60.5 -22.5t23.5 -61.5q0 -41 -25 -67.5t-67 -26.5q-39 0 -63.5 22.5t-24.5 61.5z" />
    <glyph glyph-name="igrave" unicode="&#xec;" horiz-adv-x="473" 
d="M170 948l133 4v-952h-133v948zM14 1382l86 88l301 -311l-65 -67l-322 280v10z" />
    <glyph glyph-name="iacute" unicode="&#xed;" horiz-adv-x="473" 
d="M170 948l133 4v-952h-133v948zM106 1159l304 311l86 -88v-10l-324 -280z" />
    <glyph glyph-name="icircumflex" unicode="&#xee;" horiz-adv-x="473" 
d="M170 948l133 4v-952h-133v948zM188 1446l101 8l209 -295l-76 -61l-184 231l-187 -233l-74 61z" />
    <glyph glyph-name="idieresis" unicode="&#xef;" horiz-adv-x="473" 
d="M170 948l133 4v-952h-133v948zM285 1231q0 40 27 67t69 27q36 0 60 -22.5t24 -61.5q0 -40 -26 -67t-68 -27q-38 0 -62 22.5t-24 61.5zM4 1231q0 40 26 67t68 27q37 0 60.5 -22.5t23.5 -61.5q0 -41 -25 -67.5t-67 -26.5q-38 0 -62 22.5t-24 61.5z" />
    <glyph glyph-name="eth" unicode="&#xf0;" horiz-adv-x="1083" 
d="M307 1473l55 88q142 -71 252 -170l217 133l56 -86l-199 -123q264 -299 264 -758q0 -283 -115 -434.5t-307 -151.5q-189 0 -303 133t-114 340q0 95 26 183t76.5 161.5t135 117.5t190.5 44q78 0 134.5 -28t108.5 -82h4q-53 231 -206 409l-273 -170l-51 90l250 154
q-92 85 -201 150zM539 88q136 0 208 117t72 313v27q-12 137 -94 215t-195 78q-103 0 -174 -66q-51 -49 -78.5 -130.5t-27.5 -180.5q0 -164 75 -268.5t214 -104.5z" />
    <glyph glyph-name="ntilde" unicode="&#xf1;" horiz-adv-x="1075" 
d="M154 948l114 17l25 -136q166 150 346 150q150 0 213 -83.5t63 -248.5v-647h-135v594q0 140 -36.5 203t-133.5 63q-148 0 -303 -131v-729h-135v588q0 141 -18 360zM657 1225q65 0 129 137l84 -41q-37 -99 -93 -154t-120 -55q-41 0 -76.5 21.5t-57 47t-48 47t-51.5 21.5
q-32 0 -62.5 -35t-68.5 -102l-82 43q39 98 95 152.5t122 54.5q33 0 61.5 -14t49 -34t39 -40.5t38.5 -34.5t41 -14z" />
    <glyph glyph-name="ograve" unicode="&#xf2;" horiz-adv-x="1056" 
d="M113 463q0 94 26.5 184t77 165t134 121t188.5 46q187 0 296 -137.5t109 -354.5q0 -76 -15.5 -149t-49.5 -140t-82.5 -117t-120 -80t-156.5 -30q-187 0 -297 137t-110 355zM807 469q0 175 -73.5 283t-207.5 108q-108 0 -176 -65q-47 -48 -73.5 -130t-26.5 -184
q0 -176 73.5 -284.5t208.5 -108.5q110 0 177 70q98 103 98 311zM307 1382l86 88l301 -311l-65 -67l-322 280v10z" />
    <glyph glyph-name="oacute" unicode="&#xf3;" horiz-adv-x="1056" 
d="M113 463q0 94 26.5 184t77 165t134 121t188.5 46q187 0 296 -137.5t109 -354.5q0 -76 -15.5 -149t-49.5 -140t-82.5 -117t-120 -80t-156.5 -30q-187 0 -297 137t-110 355zM807 469q0 175 -73.5 283t-207.5 108q-108 0 -176 -65q-47 -48 -73.5 -130t-26.5 -184
q0 -176 73.5 -284.5t208.5 -108.5q110 0 177 70q98 103 98 311zM399 1159l303 311l86 -88v-10l-323 -280z" />
    <glyph glyph-name="ocircumflex" unicode="&#xf4;" horiz-adv-x="1056" 
d="M113 463q0 94 26.5 184t77 165t134 121t188.5 46q187 0 296 -137.5t109 -354.5q0 -76 -15.5 -149t-49.5 -140t-82.5 -117t-120 -80t-156.5 -30q-187 0 -297 137t-110 355zM807 469q0 175 -73.5 283t-207.5 108q-108 0 -176 -65q-47 -48 -73.5 -130t-26.5 -184
q0 -176 73.5 -284.5t208.5 -108.5q110 0 177 70q98 103 98 311zM479 1446l101 8l241 -295l-73 -65l-218 235l-221 -237l-71 67z" />
    <glyph glyph-name="otilde" unicode="&#xf5;" horiz-adv-x="1056" 
d="M113 463q0 94 26.5 184t77 165t134 121t188.5 46q187 0 296 -137.5t109 -354.5q0 -76 -15.5 -149t-49.5 -140t-82.5 -117t-120 -80t-156.5 -30q-187 0 -297 137t-110 355zM807 469q0 175 -73.5 283t-207.5 108q-108 0 -176 -65q-47 -48 -73.5 -130t-26.5 -184
q0 -176 73.5 -284.5t208.5 -108.5q110 0 177 70q98 103 98 311zM647 1225q65 0 129 137l84 -41q-37 -99 -93 -154t-120 -55q-41 0 -76.5 21.5t-57 47t-48 47t-51.5 21.5q-32 0 -62.5 -35t-68.5 -102l-82 43q39 98 95 152.5t122 54.5q33 0 61.5 -14t49 -34t39 -40.5
t38.5 -34.5t41 -14z" />
    <glyph glyph-name="odieresis" unicode="&#xf6;" horiz-adv-x="1056" 
d="M113 463q0 94 26.5 184t77 165t134 121t188.5 46q187 0 296 -137.5t109 -354.5q0 -76 -15.5 -149t-49.5 -140t-82.5 -117t-120 -80t-156.5 -30q-187 0 -297 137t-110 355zM807 469q0 175 -73.5 283t-207.5 108q-108 0 -176 -65q-47 -48 -73.5 -130t-26.5 -184
q0 -176 73.5 -284.5t208.5 -108.5q110 0 177 70q98 103 98 311zM616 1231q0 40 27.5 67t69.5 27q36 0 60 -22.5t24 -61.5q0 -40 -25.5 -67t-66.5 -27q-39 0 -64 22.5t-25 61.5zM268 1231q0 40 27.5 67t69.5 27q37 0 60.5 -22.5t23.5 -61.5q0 -41 -25.5 -67.5t-67.5 -26.5
q-39 0 -63.5 22.5t-24.5 61.5z" />
    <glyph glyph-name="divide" unicode="&#xf7;" 
d="M176 580h778v-113h-778v113zM475 199q0 42 26 69t66 27q39 0 63.5 -23t24.5 -61q0 -43 -26 -70.5t-66 -27.5q-38 0 -63 24t-25 62zM473 838q0 42 27 69t69 27q37 0 61.5 -24t24.5 -62q0 -43 -26.5 -69.5t-67.5 -26.5q-38 0 -63 24t-25 62z" />
    <glyph glyph-name="oslash" unicode="&#xf8;" horiz-adv-x="1056" 
d="M113 463q0 94 26.5 184t77 165t134 121t188.5 46q82 0 155 -31l62 135l90 -45l-66 -141q78 -65 121 -171.5t43 -238.5q0 -76 -15.5 -149t-49.5 -140t-82.5 -117t-120 -80t-156.5 -30t-158 31l-61 -133l-88 43l66 141q-80 65 -123 171t-43 239zM250 481q0 -194 86 -303
l305 658q-52 24 -115 24q-108 0 -176 -65q-47 -48 -73.5 -130t-26.5 -184zM807 469q0 192 -86 301l-305 -655q56 -27 116 -27q110 0 177 70q98 103 98 311z" />
    <glyph glyph-name="ugrave" unicode="&#xf9;" horiz-adv-x="1058" 
d="M160 948l135 4v-602q0 -136 41 -198t133 -62q129 0 285 146v714h133v-581q0 -115 18 -361l-112 -16l-27 137q-158 -158 -330 -158q-276 0 -276 332v645zM297 1382l86 88l301 -311l-66 -67l-321 280v10z" />
    <glyph glyph-name="uacute" unicode="&#xfa;" horiz-adv-x="1058" 
d="M160 948l135 4v-602q0 -136 41 -198t133 -62q129 0 285 146v714h133v-581q0 -115 18 -361l-112 -16l-27 137q-158 -158 -330 -158q-276 0 -276 332v645zM389 1159l303 311l86 -88v-10l-323 -280z" />
    <glyph glyph-name="ucircumflex" unicode="&#xfb;" horiz-adv-x="1058" 
d="M160 948l135 4v-602q0 -136 41 -198t133 -62q129 0 285 146v714h133v-581q0 -115 18 -361l-112 -16l-27 137q-158 -158 -330 -158q-276 0 -276 332v645zM469 1446l100 8l242 -295l-74 -65l-217 235l-221 -237l-72 67z" />
    <glyph glyph-name="udieresis" unicode="&#xfc;" horiz-adv-x="1058" 
d="M160 948l135 4v-602q0 -136 41 -198t133 -62q129 0 285 146v714h133v-581q0 -115 18 -361l-112 -16l-27 137q-158 -158 -330 -158q-276 0 -276 332v645zM606 1231q0 40 27 67t69 27q36 0 60 -22.5t24 -61.5q0 -40 -25.5 -67t-66.5 -27q-39 0 -63.5 22.5t-24.5 61.5z
M258 1231q0 40 27 67t69 27q37 0 60.5 -22.5t23.5 -61.5q0 -41 -25 -67.5t-67 -26.5q-39 0 -63.5 22.5t-24.5 61.5z" />
    <glyph glyph-name="yacute" unicode="&#xfd;" horiz-adv-x="962" 
d="M768 950h129q0 -33 -18 -82l-359 -960q-89 -218 -185.5 -316t-213.5 -98q-22 0 -76 6v109q128 0 215.5 91t173.5 300h-24l-320 868q-16 43 -16 82h133l223 -626q29 -85 49 -170h8zM358 1159l304 311l86 -88v-10l-324 -280z" />
    <glyph glyph-name="thorn" unicode="&#xfe;" horiz-adv-x="1071" 
d="M524 88q119 0 191 66q104 98 104 323q0 167 -65 275t-183 108q-70 0 -132 -32.5t-136 -96.5v-584q104 -59 221 -59zM170 1534l133 4v-694q138 135 287 135q163 0 264.5 -135.5t103.5 -341.5q0 -78 -16 -153.5t-51 -144t-84.5 -120.5t-121.5 -82.5t-157 -30.5
q-119 0 -225 68v-531h-133v2026z" />
    <glyph glyph-name="ydieresis" unicode="&#xff;" horiz-adv-x="962" 
d="M768 950h129q0 -33 -18 -82l-359 -960q-89 -218 -185.5 -316t-213.5 -98q-22 0 -76 6v109q128 0 215.5 91t173.5 300h-24l-320 868q-16 43 -16 82h133l223 -626q29 -85 49 -170h8zM575 1231q0 40 27.5 67t69.5 27q36 0 60 -22.5t24 -61.5q0 -40 -25.5 -67t-66.5 -27
q-39 0 -64 22.5t-25 61.5zM227 1231q0 40 27.5 67t69.5 27q37 0 60.5 -22.5t23.5 -61.5q0 -41 -25.5 -67.5t-67.5 -26.5q-39 0 -63.5 22.5t-24.5 61.5z" />
    <glyph glyph-name="Amacron" unicode="&#x100;" horiz-adv-x="1181" 
d="M594 1198l-234 -680h457l-127 379l-90 301h-6zM518 1368l154 8l407 -1218q29 -86 49 -158h-139l-133 401h-537l-137 -401h-139q21 70 51 158zM346 1663h492v-109h-492v109z" />
    <glyph glyph-name="amacron" unicode="&#x101;" horiz-adv-x="960" 
d="M129 819q187 154 387 154q148 0 214.5 -87t66.5 -276v-248q0 -127 16 -354l-113 -16l-26 133q-167 -148 -340 -148q-111 0 -176.5 63t-65.5 173q0 142 123 225q118 77 447 107v20q0 159 -38 224t-130 65q-144 0 -312 -121zM358 88q142 -3 304 143v211q-289 -26 -371 -82
q-68 -49 -68 -131q0 -68 36 -104.5t99 -36.5zM227 1257h494v-108h-494v108z" />
    <glyph glyph-name="Abreve" unicode="&#x102;" horiz-adv-x="1181" 
d="M594 1198l-234 -680h457l-127 379l-90 301h-6zM518 1368l154 8l407 -1218q29 -86 49 -158h-139l-133 401h-537l-137 -401h-139q21 70 51 158zM868 1755q-32 -110 -105.5 -167.5t-172.5 -57.5q-100 0 -171 55.5t-102 167.5l86 39q57 -145 189 -145q136 0 190 145z" />
    <glyph glyph-name="abreve" unicode="&#x103;" horiz-adv-x="960" 
d="M129 819q187 154 387 154q148 0 214.5 -87t66.5 -276v-248q0 -127 16 -354l-113 -16l-26 133q-167 -148 -340 -148q-111 0 -176.5 63t-65.5 173q0 142 123 225q118 77 447 107v20q0 159 -38 224t-130 65q-144 0 -312 -121zM358 88q142 -3 304 143v211q-289 -26 -371 -82
q-68 -49 -68 -131q0 -68 36 -104.5t99 -36.5zM479 1223q71 0 120 45.5t63 142.5l92 -12q-13 -143 -87 -217t-194 -74q-236 0 -270 291l96 12q27 -188 180 -188z" />
    <glyph glyph-name="Aogonek" unicode="&#x104;" horiz-adv-x="1181" 
d="M518 1368l154 8l407 -1218q29 -86 49 -158q-118 -66 -176.5 -131t-58.5 -137q0 -52 30.5 -82.5t90.5 -30.5q45 0 127 29l30 -97q-99 -45 -192 -45q-100 0 -159.5 56t-59.5 147q0 83 47 152t139 135l37 27l-127 378h-537l-137 -401h-139q21 70 51 158zM592 1198l-234 -680
h459l-127 379l-92 301h-6z" />
    <glyph glyph-name="aogonek" unicode="&#x105;" horiz-adv-x="960" 
d="M129 819q187 154 387 154q148 0 214.5 -87t66.5 -276v-248q0 -142 16 -399q-215 -102 -215 -213q0 -46 28.5 -72t84.5 -26q50 0 131 31l32 -97q-103 -47 -198 -47q-96 0 -153.5 50.5t-57.5 134.5q0 143 227 274l-20 127q-167 -148 -338 -148q-111 0 -176.5 63t-65.5 173
q0 142 123 225q118 77 447 107v20q0 159 -38 224t-130 65q-144 0 -312 -121zM358 88q142 -3 304 143v211q-289 -26 -371 -82q-68 -49 -68 -131q0 -68 36 -104.5t99 -36.5z" />
    <glyph glyph-name="Cacute" unicode="&#x106;" horiz-adv-x="1179" 
d="M119 662q0 113 22.5 218.5t71.5 199.5t118.5 164t171 110.5t222.5 40.5q211 0 362 -107l-55 -106q-149 88 -309 88q-187 0 -295 -117q-164 -170 -164 -479q0 -92 15 -173t50 -155.5t87 -127.5t131.5 -84.5t179.5 -31.5q165 0 332 80l41 -106q-187 -99 -389 -99
q-118 0 -215.5 35t-166.5 97.5t-117 148.5t-70.5 188t-22.5 216zM526 1620l414 170l43 -119v-8l-426 -137z" />
    <glyph glyph-name="cacute" unicode="&#x107;" horiz-adv-x="905" 
d="M113 455q0 230 117.5 374t306.5 144q174 0 284 -148l-69 -77q-58 55 -110 80.5t-116 25.5q-91 0 -157 -55q-117 -93 -117 -328q0 -186 77 -280.5t214 -94.5q98 0 239 54l35 -103q-152 -70 -291 -70q-191 0 -302 129t-111 349zM387 1159l303 311l86 -88v-10l-323 -280z
" />
    <glyph glyph-name="Ccircumflex" unicode="&#x108;" horiz-adv-x="1179" 
d="M119 662q0 113 22.5 218.5t71.5 199.5t118.5 164t171 110.5t222.5 40.5q211 0 362 -107l-55 -106q-149 88 -309 88q-187 0 -295 -117q-164 -170 -164 -479q0 -92 15 -173t50 -155.5t87 -127.5t131.5 -84.5t179.5 -31.5q165 0 332 80l41 -106q-187 -99 -389 -99
q-118 0 -215.5 35t-166.5 97.5t-117 148.5t-70.5 188t-22.5 216zM647 1798l98 8l259 -219l-62 -78l-246 183l-243 -181l-60 78z" />
    <glyph glyph-name="ccircumflex" unicode="&#x109;" horiz-adv-x="905" 
d="M113 455q0 230 117.5 374t306.5 144q174 0 284 -148l-69 -77q-58 55 -110 80.5t-116 25.5q-91 0 -157 -55q-117 -93 -117 -328q0 -186 77 -280.5t214 -94.5q98 0 239 54l35 -103q-152 -70 -291 -70q-191 0 -302 129t-111 349zM467 1446l100 8l242 -295l-74 -65l-217 235
l-221 -237l-72 67z" />
    <glyph glyph-name="Cdotaccent" unicode="&#x10a;" horiz-adv-x="1179" 
d="M119 662q0 113 22.5 218.5t71.5 199.5t118.5 164t171 110.5t222.5 40.5q211 0 362 -107l-55 -106q-149 88 -309 88q-187 0 -295 -117q-164 -170 -164 -479q0 -92 15 -173t50 -155.5t87 -127.5t131.5 -84.5t179.5 -31.5q165 0 332 80l41 -106q-187 -99 -389 -99
q-118 0 -215.5 35t-166.5 97.5t-117 148.5t-70.5 188t-22.5 216zM602 1638q0 44 28 72.5t72 28.5q41 0 66 -24.5t25 -65.5q0 -44 -27.5 -71.5t-71.5 -27.5q-41 0 -66.5 24t-25.5 64z" />
    <glyph glyph-name="cdotaccent" unicode="&#x10b;" horiz-adv-x="905" 
d="M113 455q0 230 117.5 374t306.5 144q174 0 284 -148l-69 -77q-58 55 -110 80.5t-116 25.5q-91 0 -157 -55q-117 -93 -117 -328q0 -186 77 -280.5t214 -94.5q98 0 239 54l35 -103q-152 -70 -291 -70q-191 0 -302 129t-111 349zM420 1237q0 46 29 75t75 29q41 0 66.5 -25.5
t25.5 -68.5q0 -45 -28.5 -73.5t-73.5 -28.5q-41 0 -67.5 25.5t-26.5 66.5z" />
    <glyph glyph-name="Ccaron" unicode="&#x10c;" horiz-adv-x="1179" 
d="M119 662q0 113 22.5 218.5t71.5 199.5t118.5 164t171 110.5t222.5 40.5q211 0 362 -107l-55 -106q-149 88 -309 88q-187 0 -295 -117q-164 -170 -164 -479q0 -92 15 -173t50 -155.5t87 -127.5t131.5 -84.5t179.5 -31.5q165 0 332 80l41 -106q-187 -99 -389 -99
q-118 0 -215.5 35t-166.5 97.5t-117 148.5t-70.5 188t-22.5 216zM393 1735l62 77l245 -182l244 182l60 -79l-254 -209l-99 -6z" />
    <glyph glyph-name="ccaron" unicode="&#x10d;" horiz-adv-x="905" 
d="M113 455q0 230 117.5 374t306.5 144q174 0 284 -148l-69 -77q-58 55 -110 80.5t-116 25.5q-91 0 -157 -55q-117 -93 -117 -328q0 -186 77 -280.5t214 -94.5q98 0 239 54l35 -103q-152 -70 -291 -70q-191 0 -302 129t-111 349zM469 1104l-240 295l74 65l217 -235l221 235
l70 -65l-242 -287z" />
    <glyph glyph-name="Dcaron" unicode="&#x10e;" horiz-adv-x="1337" 
d="M199 1362q193 33 385 33q292 0 463.5 -186.5t171.5 -497.5q0 -211 -82 -378t-232.5 -261.5t-343.5 -94.5q-197 0 -362 31v1354zM561 102q154 0 258 68q125 82 191.5 222t64.5 308q-2 259 -134 414.5t-366 155.5q-106 0 -239 -17v-1136q92 -15 225 -15zM319 1735l62 77
l246 -182l243 182l60 -79l-254 -209l-98 -6z" />
    <glyph glyph-name="dcaron" unicode="&#x10f;" horiz-adv-x="1077" 
d="M492 90q68 0 134 38.5t140 109.5v563q-102 61 -221 61q-121 0 -189 -65q-104 -101 -104 -322q0 -171 62.5 -278t177.5 -107zM113 446q0 79 15.5 154t50 144t84 121t122.5 83t160 31q110 0 221 -68v623l135 4v-1202q0 -105 17 -328l-113 -16l-27 139q-150 -160 -309 -160
q-156 0 -256 135.5t-100 339.5zM1032 1540l123 4l6 -6l-31 -418h-98v420z" />
    <glyph glyph-name="Dcroat" unicode="&#x110;" horiz-adv-x="1349" 
d="M211 1362q196 33 385 33q292 0 464.5 -187t172.5 -497q0 -211 -82 -378t-233 -261.5t-345 -94.5q-197 0 -362 31v637h-158v115h158v602zM575 102q151 0 259 68q124 82 189.5 222.5t63.5 307.5q-2 260 -133.5 415t-365.5 155q-107 0 -240 -17v-493h340v-115h-340v-528
q118 -15 227 -15z" />
    <glyph glyph-name="dcroat" unicode="&#x111;" horiz-adv-x="1077" 
d="M487 90q121 0 283 148v538q-110 58 -229 58q-118 0 -187 -66q-102 -99 -102 -301q0 -168 61.5 -272.5t173.5 -104.5zM113 438q0 95 26 184t76 163.5t134.5 119.5t191.5 45q117 0 229 -67v301h-408v106h408v244l135 4v-248h176v-106h-176v-848q0 -67 17 -328l-113 -16
l-27 141q-162 -162 -317 -162q-153 0 -251.5 132t-100.5 335z" />
    <glyph glyph-name="Emacron" unicode="&#x112;" horiz-adv-x="1079" 
d="M199 1372h766l-4 -121h-625v-489h508v-121h-508v-520h629l4 -121h-770v1372zM340 1663h491v-109h-491v109z" />
    <glyph glyph-name="emacron" unicode="&#x113;" horiz-adv-x="987" 
d="M113 461q0 145 51 261.5t148 185.5t223 69q164 0 251.5 -106.5t87.5 -272.5q0 -66 -14 -152h-610q6 -174 85 -262t210 -88q136 0 270 54l37 -97q-165 -76 -332 -76q-178 0 -292.5 126.5t-114.5 357.5zM526 862q-117 0 -187.5 -83t-84.5 -232h481q4 46 4 74q0 107 -56 174
t-157 67zM266 1257h494v-108h-494v108z" />
    <glyph glyph-name="Ebreve" unicode="&#x114;" horiz-adv-x="1079" 
d="M199 1372h766l-4 -121h-625v-489h508v-121h-508v-520h629l4 -121h-770v1372zM862 1755q-32 -110 -105.5 -167.5t-172.5 -57.5q-100 0 -171 55.5t-102 167.5l86 39q57 -145 189 -145q136 0 190 145z" />
    <glyph glyph-name="ebreve" unicode="&#x115;" horiz-adv-x="987" 
d="M113 461q0 145 51 261.5t148 185.5t223 69q164 0 251.5 -106.5t87.5 -272.5q0 -66 -14 -152h-610q6 -174 85 -262t210 -88q136 0 270 54l37 -97q-165 -76 -332 -76q-178 0 -292.5 126.5t-114.5 357.5zM526 862q-117 0 -187.5 -83t-84.5 -232h481q4 46 4 74q0 107 -56 174
t-157 67zM518 1223q71 0 119.5 45t62.5 143l93 -12q-13 -143 -87 -217t-194 -74q-236 0 -270 291l96 12q27 -188 180 -188z" />
    <glyph glyph-name="Edotaccent" unicode="&#x116;" horiz-adv-x="1079" 
d="M199 1372h766l-4 -121h-625v-489h508v-121h-508v-520h629l4 -121h-770v1372zM489 1638q0 44 28.5 72.5t72.5 28.5q41 0 65.5 -24.5t24.5 -65.5q0 -44 -27 -71.5t-71 -27.5q-41 0 -67 24t-26 64z" />
    <glyph glyph-name="edotaccent" unicode="&#x117;" horiz-adv-x="987" 
d="M113 461q0 145 51 261.5t148 185.5t223 69q164 0 251.5 -106.5t87.5 -272.5q0 -66 -14 -152h-610q6 -174 85 -262t210 -88q136 0 270 54l37 -97q-165 -76 -332 -76q-178 0 -292.5 126.5t-114.5 357.5zM526 862q-117 0 -187.5 -83t-84.5 -232h481q4 46 4 74q0 107 -56 174
t-157 67zM416 1237q0 46 29 75t75 29q41 0 66.5 -25.5t25.5 -68.5q0 -45 -28.5 -73.5t-73.5 -28.5q-41 0 -67.5 25.5t-26.5 66.5z" />
    <glyph glyph-name="Eogonek" unicode="&#x118;" horiz-adv-x="1079" 
d="M199 1372h766l-4 -121h-625v-489h508v-121h-508v-520h629l4 -121q-119 -68 -176.5 -131.5t-57.5 -134.5q0 -54 29 -84.5t90 -30.5q45 0 127 29l31 -97q-99 -45 -193 -45q-100 0 -159.5 55.5t-59.5 145.5q0 89 56 157.5t165 133.5v2h-622v1372z" />
    <glyph glyph-name="eogonek" unicode="&#x119;" horiz-adv-x="987" 
d="M113 461q0 145 51 261.5t148 185.5t223 69q164 0 251.5 -106.5t87.5 -272.5q0 -66 -14 -152h-610q6 -174 85 -262t210 -88q136 0 270 54l37 -97q-142 -80 -210.5 -147t-68.5 -144q0 -54 31 -82t88 -28q50 0 131 33l33 -97q-100 -49 -199 -49t-157 52.5t-58 140.5
q0 136 168 250v2q-54 -7 -90 -7q-178 0 -292.5 126.5t-114.5 357.5zM526 862q-118 0 -188 -82.5t-84 -232.5h481q4 46 4 74q0 107 -56 174t-157 67z" />
    <glyph glyph-name="Ecaron" unicode="&#x11a;" horiz-adv-x="1079" 
d="M199 1372h766l-4 -121h-625v-489h508v-121h-508v-520h629l4 -121h-770v1372zM281 1735l61 77l246 -182l243 182l60 -79l-254 -209l-98 -6z" />
    <glyph glyph-name="ecaron" unicode="&#x11b;" horiz-adv-x="987" 
d="M113 461q0 145 51 261.5t148 185.5t223 69q164 0 251.5 -106.5t87.5 -272.5q0 -66 -14 -152h-610q6 -174 85 -262t210 -88q136 0 270 54l37 -97q-165 -76 -332 -76q-178 0 -292.5 126.5t-114.5 357.5zM526 862q-117 0 -187.5 -83t-84.5 -232h481q4 46 4 74q0 107 -56 174
t-157 67zM465 1104l-240 295l74 65l217 -235l221 235l70 -65l-242 -287z" />
    <glyph glyph-name="Gcircumflex" unicode="&#x11c;" horiz-adv-x="1253" 
d="M119 655q0 116 23.5 223t73.5 201.5t121.5 164.5t174.5 110.5t225 40.5q206 0 361 -107l-56 -106q-160 90 -313 90q-176 0 -299 -119q-166 -169 -166 -483q0 -90 15 -170.5t50 -154.5t88 -127.5t134 -85.5t182 -32q127 0 248 45v416h-340v121h473v-606q-190 -99 -391 -99
q-123 0 -224 35t-170.5 96.5t-117.5 147.5t-70 186t-22 213zM643 1798l98 8l258 -219l-61 -78l-246 183l-243 -181l-60 78z" />
    <glyph glyph-name="gcircumflex" unicode="&#x11d;" horiz-adv-x="995" 
d="M207 156q0 88 82 176q-86 39 -131 116t-45 175q0 66 22.5 127.5t65.5 112t115 80.5t163 30q116 0 201 -51q107 107 250 110l6 -117q-98 -9 -186 -49q84 -90 84 -227q0 -146 -97.5 -245t-271.5 -99q-51 0 -90 8q-43 -53 -43 -104q0 -32 13.5 -52t44 -30t63 -13t88.5 -4
q379 0 379 -264q0 -109 -63 -191t-168 -123.5t-234 -41.5q-176 0 -285.5 77.5t-108.5 211.5q0 168 179 290q-33 38 -33 97zM475 -408q163 0 248 74q70 61 70 154q0 51 -21 84.5t-64.5 50.5t-93 23.5t-122.5 7.5q-102 0 -168 20q-136 -96 -136 -221q0 -95 76.5 -144
t210.5 -49zM705 629q0 110 -59.5 172.5t-174.5 62.5q-104 0 -166.5 -60.5t-62.5 -166.5q0 -109 57.5 -171.5t173.5 -62.5q105 0 168.5 59t63.5 167zM422 1446l100 8l242 -295l-74 -65l-217 235l-221 -237l-72 67z" />
    <glyph glyph-name="Gbreve" unicode="&#x11e;" horiz-adv-x="1253" 
d="M119 655q0 116 23.5 223t73.5 201.5t121.5 164.5t174.5 110.5t225 40.5q206 0 361 -107l-56 -106q-160 90 -313 90q-176 0 -299 -119q-166 -169 -166 -483q0 -90 15 -170.5t50 -154.5t88 -127.5t134 -85.5t182 -32q127 0 248 45v416h-340v121h473v-606q-190 -99 -391 -99
q-123 0 -224 35t-170.5 96.5t-117.5 147.5t-70 186t-22 213zM971 1755q-31 -110 -105.5 -167.5t-173.5 -57.5q-100 0 -170.5 55.5t-101.5 167.5l86 39q30 -76 76 -110.5t112 -34.5q137 0 191 145z" />
    <glyph glyph-name="gbreve" unicode="&#x11f;" horiz-adv-x="995" 
d="M207 156q0 88 82 176q-86 39 -131 116t-45 175q0 66 22.5 127.5t65.5 112t115 80.5t163 30q116 0 201 -51q107 107 250 110l6 -117q-98 -9 -186 -49q84 -90 84 -227q0 -146 -97.5 -245t-271.5 -99q-51 0 -90 8q-43 -53 -43 -104q0 -32 13.5 -52t44 -30t63 -13t88.5 -4
q379 0 379 -264q0 -109 -63 -191t-168 -123.5t-234 -41.5q-176 0 -285.5 77.5t-108.5 211.5q0 168 179 290q-33 38 -33 97zM475 -408q163 0 248 74q70 61 70 154q0 51 -21 84.5t-64.5 50.5t-93 23.5t-122.5 7.5q-102 0 -168 20q-136 -96 -136 -221q0 -95 76.5 -144
t210.5 -49zM705 629q0 110 -59.5 172.5t-174.5 62.5q-104 0 -166.5 -60.5t-62.5 -166.5q0 -109 57.5 -171.5t173.5 -62.5q105 0 168.5 59t63.5 167zM477 1223q71 0 119.5 45t62.5 143l93 -12q-13 -143 -87 -217t-194 -74q-236 0 -270 291l96 12q27 -188 180 -188z" />
    <glyph glyph-name="Gdotaccent" unicode="&#x120;" horiz-adv-x="1253" 
d="M119 655q0 116 23.5 223t73.5 201.5t121.5 164.5t174.5 110.5t225 40.5q206 0 361 -107l-56 -106q-160 90 -313 90q-176 0 -299 -119q-166 -169 -166 -483q0 -90 15 -170.5t50 -154.5t88 -127.5t134 -85.5t182 -32q127 0 248 45v416h-340v121h473v-606q-190 -99 -391 -99
q-123 0 -224 35t-170.5 96.5t-117.5 147.5t-70 186t-22 213zM598 1638q0 44 28 72.5t72 28.5q41 0 65.5 -24.5t24.5 -65.5q0 -44 -27 -71.5t-71 -27.5q-41 0 -66.5 24t-25.5 64z" />
    <glyph glyph-name="gdotaccent" unicode="&#x121;" horiz-adv-x="995" 
d="M207 156q0 88 82 176q-86 39 -131 116t-45 175q0 66 22.5 127.5t65.5 112t115 80.5t163 30q116 0 201 -51q107 107 250 110l6 -117q-98 -9 -186 -49q84 -90 84 -227q0 -146 -97.5 -245t-271.5 -99q-51 0 -90 8q-43 -53 -43 -104q0 -32 13.5 -52t44 -30t63 -13t88.5 -4
q379 0 379 -264q0 -109 -63 -191t-168 -123.5t-234 -41.5q-176 0 -285.5 77.5t-108.5 211.5q0 168 179 290q-33 38 -33 97zM475 -408q163 0 248 74q70 61 70 154q0 51 -21 84.5t-64.5 50.5t-93 23.5t-122.5 7.5q-102 0 -168 20q-136 -96 -136 -221q0 -95 76.5 -144
t210.5 -49zM705 629q0 110 -59.5 172.5t-174.5 62.5q-104 0 -166.5 -60.5t-62.5 -166.5q0 -109 57.5 -171.5t173.5 -62.5q105 0 168.5 59t63.5 167zM375 1237q0 46 29 75t75 29q41 0 66.5 -25.5t25.5 -68.5q0 -45 -28.5 -73.5t-73.5 -28.5q-41 0 -67.5 25.5t-26.5 66.5z" />
    <glyph glyph-name="uni0122" unicode="&#x122;" horiz-adv-x="1253" 
d="M119 655q0 116 23.5 223t73.5 201.5t121.5 164.5t174.5 110.5t225 40.5q206 0 361 -107l-56 -106q-160 90 -313 90q-176 0 -299 -119q-166 -169 -166 -483q0 -90 15 -170.5t50 -154.5t88 -127.5t134 -85.5t182 -32q127 0 248 45v416h-340v121h473v-606q-190 -99 -391 -99
q-123 0 -224 35t-170.5 96.5t-117.5 147.5t-70 186t-22 213zM659 -147l119 14q10 -62 10 -111q0 -165 -94 -282l-82 47q54 100 54 223q0 41 -7 109z" />
    <glyph glyph-name="uni0123" unicode="&#x123;" horiz-adv-x="995" 
d="M207 156q0 88 82 176q-86 39 -131 116t-45 175q0 66 22.5 127.5t65.5 112t115 80.5t163 30q116 0 201 -51q107 107 250 110l6 -117q-98 -9 -186 -49q84 -90 84 -227q0 -146 -97.5 -245t-271.5 -99q-51 0 -90 8q-43 -53 -43 -104q0 -32 13.5 -52t44 -30t63 -13t88.5 -4
q379 0 379 -264q0 -109 -63 -191t-168 -123.5t-234 -41.5q-176 0 -285.5 77.5t-108.5 211.5q0 168 179 290q-33 38 -33 97zM475 -408q163 0 248 74q70 61 70 154q0 51 -21 84.5t-64.5 50.5t-93 23.5t-122.5 7.5q-102 0 -168 20q-136 -96 -136 -221q0 -95 76.5 -144
t210.5 -49zM705 629q0 110 -59.5 172.5t-174.5 62.5q-104 0 -166.5 -60.5t-62.5 -166.5q0 -109 57.5 -171.5t173.5 -62.5q105 0 168.5 59t63.5 167zM416 1229q0 77 25.5 153t68.5 129l82 -47q-53 -103 -53 -219q0 -51 6 -112l-117 -13q-12 50 -12 109z" />
    <glyph glyph-name="Hcircumflex" unicode="&#x124;" horiz-adv-x="1349" 
d="M1014 1372h137v-1372h-137v641h-678v-641h-137v1372h137v-612h678v612zM623 1798l98 8l258 -219l-61 -78l-246 183l-244 -181l-59 78z" />
    <glyph glyph-name="hcircumflex" unicode="&#x125;" horiz-adv-x="1073" 
d="M170 1534l133 4v-682q158 123 334 123q148 0 211 -83.5t63 -248.5v-647h-133l-2 594q0 143 -36 204.5t-134 61.5q-154 0 -303 -108v-752h-133v1534zM219 1962l98 8l258 -219l-61 -78l-246 182l-243 -180l-60 78z" />
    <glyph glyph-name="Hbar" unicode="&#x126;" horiz-adv-x="1374" 
d="M1026 1372h137v-252h152v-114h-152v-1006h-137v612h-680v-612h-137v1006h-150v114h150v252h137v-252h680v252zM1026 735v271h-680v-271h680z" />
    <glyph glyph-name="hbar" unicode="&#x127;" horiz-adv-x="1089" 
d="M170 1534l133 4v-248h420v-106h-420v-367q161 133 348 133q148 0 212.5 -83.5t64.5 -248.5v-618h-135v565q0 143 -36 204.5t-134 61.5q-164 0 -320 -118v-713h-133v1184h-176v106h176v244z" />
    <glyph glyph-name="Itilde" unicode="&#x128;" horiz-adv-x="532" 
d="M199 1372h137v-1372h-137v1372zM383 1630q62 0 133 142l84 -43q-88 -211 -219 -211q-33 0 -62 14.5t-49.5 35t-39 40.5t-39 34.5t-41.5 14.5q-59 0 -134 -137l-84 45q90 204 224 204q32 0 60.5 -14.5t48.5 -35t38.5 -40.5t38.5 -34.5t41 -14.5z" />
    <glyph glyph-name="itilde" unicode="&#x129;" horiz-adv-x="473" 
d="M170 948l133 4v-952h-133v948zM328 1223q48 0 100 139l84 -35q-67 -213 -186 -213q-30 0 -58 21t-45.5 46.5t-38 46.5t-37.5 21q-26 0 -49.5 -34t-52.5 -103l-80 37q31 99 79.5 155t107.5 56q31 0 59 -21.5t44.5 -47t36 -47t36.5 -21.5z" />
    <glyph glyph-name="Imacron" unicode="&#x12a;" horiz-adv-x="532" 
d="M199 1372h137v-1372h-137v1372zM20 1663h492v-109h-492v109z" />
    <glyph glyph-name="imacron" unicode="&#x12b;" horiz-adv-x="473" 
d="M170 948l133 4v-952h-133v948zM35 1260h405v-111h-405v111z" />
    <glyph glyph-name="Ibreve" unicode="&#x12c;" horiz-adv-x="532" 
d="M199 1372h137v-1372h-137v1372zM543 1755q-31 -110 -105.5 -167.5t-173.5 -57.5q-100 0 -170.5 55.5t-101.5 167.5l86 39q30 -76 76 -110.5t112 -34.5q137 0 191 145z" />
    <glyph glyph-name="ibreve" unicode="&#x12d;" horiz-adv-x="473" 
d="M170 948l133 4v-952h-133v948zM240 1225q65 0 102 49t57 149l88 -14q-12 -144 -78.5 -222.5t-175.5 -78.5q-104 0 -164.5 77.5t-74.5 223.5l94 14q31 -198 152 -198z" />
    <glyph glyph-name="Iogonek" unicode="&#x12e;" horiz-adv-x="532" 
d="M199 1372h137v-1374q-83 -71 -122.5 -129.5t-39.5 -120.5t33 -94.5t96 -32.5t152 35l34 -94q-118 -56 -217 -56q-101 0 -166 57.5t-65 155.5q0 146 158 287v1366z" />
    <glyph glyph-name="iogonek" unicode="&#x12f;" horiz-adv-x="473" 
d="M170 948l133 4v-954q-82 -60 -120 -114t-38 -117q0 -115 117 -115q54 0 135 33l33 -97q-98 -49 -201 -49q-98 0 -157.5 54t-59.5 145q0 142 158 270v940zM139 1237q0 46 29.5 75t75.5 29q41 0 66.5 -25.5t25.5 -68.5q0 -45 -29 -73.5t-74 -28.5q-41 0 -67.5 25.5
t-26.5 66.5z" />
    <glyph glyph-name="Idotaccent" unicode="&#x130;" horiz-adv-x="532" 
d="M199 1372h137v-1372h-137v1372zM170 1638q0 44 28 72.5t72 28.5q41 0 65.5 -24.5t24.5 -65.5q0 -44 -27 -71.5t-71 -27.5q-41 0 -66.5 24t-25.5 64z" />
    <glyph glyph-name="dotlessi" unicode="&#x131;" horiz-adv-x="473" 
d="M170 948l133 4v-952h-133v948z" />
    <glyph glyph-name="IJ" unicode="&#x132;" horiz-adv-x="1079" 
d="M199 1372h137v-1372h-137v1372zM743 1372h138v-1292q0 -264 -87 -396t-302 -149l-25 111q72 13 120 36.5t79.5 58t48 92t22.5 125t6 171.5v1243z" />
    <glyph glyph-name="ij" unicode="&#x133;" horiz-adv-x="946" 
d="M170 948l133 4v-952h-133v948zM139 1237q0 46 29.5 75t75.5 29q41 0 66.5 -25.5t25.5 -68.5q0 -45 -29 -73.5t-74 -28.5q-41 0 -67.5 25.5t-26.5 66.5zM643 948l135 4v-905q0 -188 -64.5 -311t-189.5 -225l-73 75q94 101 143 210t49 261v891zM608 1237q0 46 29.5 75
t75.5 29q41 0 66.5 -25.5t25.5 -68.5q0 -45 -28.5 -73.5t-74.5 -28.5q-41 0 -67.5 25.5t-26.5 66.5z" />
    <glyph glyph-name="Jcircumflex" unicode="&#x134;" horiz-adv-x="546" 
d="M211 1372h137v-1292q0 -264 -87 -396t-302 -149l-25 111q72 13 120.5 36.5t80 58t48 92t22.5 125t6 171.5v1243zM227 1798l99 8l258 -219l-62 -78l-246 183l-243 -181l-60 78z" />
    <glyph glyph-name="jcircumflex" unicode="&#x135;" horiz-adv-x="473" 
d="M170 948l135 4v-905q0 -188 -64.5 -311t-189.5 -225l-74 75q94 101 143.5 210t49.5 261v891zM184 1446l101 8l209 -295l-76 -61l-185 231l-186 -233l-74 61z" />
    <glyph glyph-name="uni0136" unicode="&#x136;" horiz-adv-x="1163" 
d="M954 1372h154q-10 -27 -47 -69l-467 -504l432 -664q49 -71 82 -135h-154l-454 698l-164 -176v-522h-137v1372h137v-678h4zM590 -147l119 14q10 -62 10 -111q0 -165 -94 -282l-82 47q53 98 53 223q0 50 -6 109z" />
    <glyph glyph-name="uni0137" unicode="&#x137;" horiz-adv-x="987" 
d="M772 950h137q-4 -26 -43 -71l-321 -355l346 -444q34 -40 47 -80h-147l-332 430l-154 -164v-266h-135v1534l135 4v-1104zM502 -147l119 14q10 -62 10 -111q0 -165 -94 -282l-82 47q53 98 53 223q0 50 -6 109z" />
    <glyph glyph-name="kgreenlandic" unicode="&#x138;" horiz-adv-x="987" 
d="M772 950h137q-4 -26 -43 -71l-321 -355l346 -444q34 -40 47 -80h-147l-332 430l-156 -162v-268h-133v948l133 4v-520l133 148z" />
    <glyph glyph-name="Lacute" unicode="&#x139;" horiz-adv-x="991" 
d="M199 1372h137v-1251h600l4 -121h-741v1372zM88 1620l414 170l43 -119v-8l-426 -137z" />
    <glyph glyph-name="lacute" unicode="&#x13a;" horiz-adv-x="509" 
d="M168 1534l133 4v-1350q0 -49 14.5 -70.5t46.5 -21.5t76 15l31 -103q-76 -31 -147 -31q-74 0 -114 44.5t-40 130.5v1382zM66 1784l413 170l43 -119v-8l-426 -137z" />
    <glyph glyph-name="uni013B" unicode="&#x13b;" horiz-adv-x="991" 
d="M199 1372h137v-1251h600l4 -121h-741v1372zM535 -147l118 14q11 -68 11 -111q0 -164 -95 -282l-82 47q54 100 54 223q0 50 -6 109z" />
    <glyph glyph-name="uni013C" unicode="&#x13c;" horiz-adv-x="509" 
d="M168 1534l133 4v-1350q0 -49 14.5 -70.5t46.5 -21.5t76 15l31 -103q-76 -31 -147 -31q-74 0 -114 44.5t-40 130.5v1382zM276 -147l119 14q11 -68 11 -111q0 -164 -95 -282l-82 47q54 100 54 223q0 41 -7 109z" />
    <glyph glyph-name="Lcaron" unicode="&#x13d;" horiz-adv-x="978" 
d="M199 1372h137v-1251h600l4 -121h-741v1372zM532 1421l123 4l7 -6l-31 -418h-99v420z" />
    <glyph glyph-name="lcaron" unicode="&#x13e;" horiz-adv-x="512" 
d="M168 1534l133 4v-1350q0 -49 14.5 -70.5t46.5 -21.5t76 15l31 -103q-76 -31 -147 -31q-74 0 -114 44.5t-40 130.5v1382zM436 1540l123 4l6 -6l-30 -418h-99v420z" />
    <glyph glyph-name="Ldot" unicode="&#x13f;" horiz-adv-x="1073" 
d="M199 1372h137v-1251h600l4 -121h-741v1372zM756 735q0 44 25.5 73.5t68.5 29.5q40 0 65 -27t25 -66q0 -48 -25 -76t-69 -28q-42 0 -66 26.5t-24 67.5z" />
    <glyph glyph-name="ldot" unicode="&#x140;" horiz-adv-x="679" 
d="M168 1534l133 4v-1350q0 -49 14.5 -70.5t46.5 -21.5t76 15l31 -103q-76 -31 -147 -31q-74 0 -114 44.5t-40 130.5v1382zM477 727q0 44 25 72t67 28q40 0 65 -26.5t25 -65.5q0 -47 -24.5 -75.5t-67.5 -28.5t-66.5 27t-23.5 69z" />
    <glyph glyph-name="Lslash" unicode="&#x141;" horiz-adv-x="1036" 
d="M27 543l215 125v704h137v-627l358 207l58 -100l-416 -240v-491h600l4 -121h-741v532l-162 -92z" />
    <glyph glyph-name="lslash" unicode="&#x142;" horiz-adv-x="614" 
d="M238 1534l135 4v-627l182 117l55 -86v-8l-237 -152v-594q0 -49 14 -70.5t45 -21.5t78 15l29 -103q-76 -31 -148 -31q-74 0 -113.5 44.5t-39.5 130.5v544l-144 -92l-55 88v6l199 127v709z" />
    <glyph glyph-name="Nacute" unicode="&#x143;" horiz-adv-x="1378" 
d="M199 1372h157l611 -1016l90 -178h2l-8 205v989h129v-1372h-160l-612 1020l-86 168h-3l7 -176v-1012h-127v1372zM537 1620l413 170l43 -119v-8l-426 -137z" />
    <glyph glyph-name="nacute" unicode="&#x144;" horiz-adv-x="1075" 
d="M154 948l114 17l25 -136q166 150 346 150q150 0 213 -83.5t63 -248.5v-647h-135v594q0 140 -36.5 203t-133.5 63q-148 0 -303 -131v-729h-135v588q0 141 -18 360zM410 1159l303 311l86 -88v-10l-324 -280z" />
    <glyph glyph-name="uni0145" unicode="&#x145;" horiz-adv-x="1378" 
d="M199 1372h157l611 -1016l90 -178h2l-8 205v989h129v-1372h-160l-612 1020l-86 168h-3l7 -176v-1012h-127v1372zM629 -147l119 14q10 -62 10 -111q0 -165 -94 -282l-82 47q53 98 53 223q0 50 -6 109z" />
    <glyph glyph-name="uni0146" unicode="&#x146;" horiz-adv-x="1075" 
d="M154 948l114 17l25 -136q166 150 346 150q150 0 213 -83.5t63 -248.5v-647h-135v594q0 140 -36.5 203t-133.5 63q-148 0 -303 -131v-729h-135v588q0 141 -18 360zM500 -147l118 14q11 -68 11 -111q0 -165 -94 -282l-82 47q53 98 53 223q0 50 -6 109z" />
    <glyph glyph-name="Ncaron" unicode="&#x147;" horiz-adv-x="1378" 
d="M199 1372h157l611 -1016l90 -178h2l-8 205v989h129v-1372h-160l-612 1020l-86 168h-3l7 -176v-1012h-127v1372zM403 1735l62 77l246 -182l243 182l60 -79l-254 -209l-98 -6z" />
    <glyph glyph-name="ncaron" unicode="&#x148;" horiz-adv-x="1075" 
d="M154 948l114 17l25 -136q166 150 346 150q150 0 213 -83.5t63 -248.5v-647h-135v594q0 140 -36.5 203t-133.5 63q-148 0 -303 -131v-729h-135v588q0 141 -18 360zM492 1104l-240 295l74 65l217 -235l221 235l70 -65l-242 -287z" />
    <glyph glyph-name="napostrophe" unicode="&#x149;" horiz-adv-x="1075" 
d="M154 948l114 17l25 -136q166 150 346 150q150 0 213 -83.5t63 -248.5v-647h-135v594q0 140 -36.5 203t-133.5 63q-148 0 -303 -131v-729h-135v588q0 141 -18 360zM199 1466l125 11q16 -62 16 -121q0 -86 -45 -156.5t-123 -116.5l-51 62q88 79 88 203q0 53 -10 118z" />
    <glyph glyph-name="Eng" unicode="&#x14a;" horiz-adv-x="1378" 
d="M199 1372h157l602 -1016l91 -176h2v1192h129v-1433q0 -67 -6.5 -125t-27 -122t-53 -108.5t-90 -74t-133.5 -29.5q-136 0 -239 57l45 101q92 -37 180 -37q51 0 87.5 19.5t57 49.5t32.5 78t15 91t3 102v43l-45 16l-598 1020l-86 168h-3l7 -176v-1012h-127v1372z" />
    <glyph glyph-name="eng" unicode="&#x14b;" horiz-adv-x="1075" 
d="M154 948l114 17l25 -136q166 150 346 150q150 0 213 -83.5t63 -248.5v-706q0 -461 -307 -461q-133 0 -239 59l41 99q97 -41 182 -41q37 0 66.5 9.5t49 24.5t33.5 41t21.5 51t11.5 63t5 68.5t1 75.5v664q0 140 -36.5 203t-133.5 63q-148 0 -303 -131v-729h-135v588
q0 132 -8 223z" />
    <glyph glyph-name="Omacron" unicode="&#x14c;" horiz-adv-x="1394" 
d="M119 668q0 108 21 211.5t67 198.5t112.5 166.5t164.5 114t216 42.5q134 0 244 -55t182 -149.5t111 -221t39 -270.5q0 -108 -21 -211.5t-67.5 -199t-113 -167t-164 -114t-214.5 -42.5q-135 0 -245.5 55t-182 150t-110.5 221.5t-39 270.5zM1130 686q0 166 -49 298t-149 212
t-236 80q-140 0 -237 -82q-100 -82 -147.5 -219.5t-47.5 -288.5q0 -166 49.5 -298.5t149.5 -212t235 -79.5q140 0 240 82t146 219t46 289zM451 1663h491v-109h-491v109z" />
    <glyph glyph-name="omacron" unicode="&#x14d;" horiz-adv-x="1056" 
d="M113 463q0 94 26.5 184t77 165t134 121t188.5 46q187 0 296 -137.5t109 -354.5q0 -76 -15.5 -149t-49.5 -140t-82.5 -117t-120 -80t-156.5 -30q-187 0 -297 137t-110 355zM807 469q0 175 -73.5 283t-207.5 108q-108 0 -176 -65q-47 -48 -73.5 -130t-26.5 -184
q0 -176 73.5 -284.5t208.5 -108.5q110 0 177 70q98 103 98 311zM283 1257h493v-108h-493v108z" />
    <glyph glyph-name="Obreve" unicode="&#x14e;" horiz-adv-x="1394" 
d="M119 668q0 108 21 211.5t67 198.5t112.5 166.5t164.5 114t216 42.5q134 0 244 -55t182 -149.5t111 -221t39 -270.5q0 -108 -21 -211.5t-67.5 -199t-113 -167t-164 -114t-214.5 -42.5q-135 0 -245.5 55t-182 150t-110.5 221.5t-39 270.5zM1130 686q0 166 -49 298t-149 212
t-236 80q-140 0 -237 -82q-100 -82 -147.5 -219.5t-47.5 -288.5q0 -166 49.5 -298.5t149.5 -212t235 -79.5q140 0 240 82t146 219t46 289zM973 1755q-31 -110 -105.5 -167.5t-173.5 -57.5q-100 0 -170.5 55.5t-101.5 167.5l86 39q30 -76 76 -110.5t112 -34.5q137 0 191 145z
" />
    <glyph glyph-name="obreve" unicode="&#x14f;" horiz-adv-x="1056" 
d="M113 463q0 94 26.5 184t77 165t134 121t188.5 46q187 0 296 -137.5t109 -354.5q0 -76 -15.5 -149t-49.5 -140t-82.5 -117t-120 -80t-156.5 -30q-187 0 -297 137t-110 355zM807 469q0 175 -73.5 283t-207.5 108q-108 0 -176 -65q-47 -48 -73.5 -130t-26.5 -184
q0 -176 73.5 -284.5t208.5 -108.5q110 0 177 70q98 103 98 311zM535 1223q71 0 119.5 45t62.5 143l92 -12q-13 -143 -87 -217t-194 -74q-236 0 -270 291l96 12q27 -188 181 -188z" />
    <glyph glyph-name="Ohungarumlaut" unicode="&#x150;" horiz-adv-x="1394" 
d="M119 668q0 108 21 211.5t67 198.5t112.5 166.5t164.5 114t216 42.5q134 0 244 -55t182 -149.5t111 -221t39 -270.5q0 -108 -21 -211.5t-67.5 -199t-113 -167t-164 -114t-214.5 -42.5q-135 0 -245.5 55t-182 150t-110.5 221.5t-39 270.5zM1130 686q0 166 -49 298t-149 212
t-236 80q-140 0 -237 -82q-100 -82 -147.5 -219.5t-47.5 -288.5q0 -166 49.5 -298.5t149.5 -212t235 -79.5q140 0 240 82t146 219t46 289zM451 1577l223 287l98 -74v-8l-248 -262zM768 1577l223 289l99 -74v-10l-248 -262z" />
    <glyph glyph-name="ohungarumlaut" unicode="&#x151;" horiz-adv-x="1056" 
d="M113 463q0 94 26.5 184t77 165t134 121t188.5 46q187 0 296 -137.5t109 -354.5q0 -76 -15.5 -149t-49.5 -140t-82.5 -117t-120 -80t-156.5 -30q-187 0 -297 137t-110 355zM807 469q0 175 -73.5 283t-207.5 108q-108 0 -176 -65q-47 -48 -73.5 -130t-26.5 -184
q0 -176 73.5 -284.5t208.5 -108.5q110 0 177 70q98 103 98 311zM309 1135l166 333l109 -57v-10l-197 -309zM600 1135l168 333l106 -57v-10l-194 -309z" />
    <glyph glyph-name="OE" unicode="&#x152;" horiz-adv-x="1830" 
d="M119 674q0 103 20 202t66 194t113 166.5t169 115t226 43.5q125 0 256 -23h747l-4 -121h-625v-489h508v-121h-508v-520h629l4 -121h-764q-128 -23 -247 -23q-143 0 -257 54.5t-186 150.5t-109.5 221t-37.5 271zM719 100q117 0 231 21v1132q-127 19 -245 19
q-150 0 -250 -82q-96 -81 -142.5 -224.5t-46.5 -287.5q0 -120 27.5 -223t81 -183t142 -126t202.5 -46z" />
    <glyph glyph-name="oe" unicode="&#x153;" horiz-adv-x="1634" 
d="M113 463q0 95 26.5 185t76 165t131 120.5t181.5 45.5q118 0 202 -62.5t128 -173.5q51 111 136.5 173.5t199.5 62.5q158 0 243 -105.5t85 -271.5q0 -82 -15 -156h-587q6 -175 81 -262.5t201 -87.5q131 0 262 54l37 -97q-162 -76 -323 -76q-114 0 -200 57.5t-130 168.5
q-47 -107 -132 -169.5t-208 -62.5q-181 0 -288 138t-107 354zM784 469q0 176 -70 283.5t-200 107.5q-110 0 -166 -69q-49 -58 -73.5 -130.5t-24.5 -179.5q0 -176 70.5 -284.5t201.5 -108.5q56 0 98.5 21.5t65.5 46.5q98 115 98 313zM1184 862q-112 0 -180 -82t-80 -233h460
q2 23 2 74q0 107 -52.5 174t-149.5 67z" />
    <glyph glyph-name="Racute" unicode="&#x154;" horiz-adv-x="1169" 
d="M485 690q148 0 242 43q76 32 121 98t45 160q0 279 -375 279q-58 0 -182 -15v-559q77 -6 149 -6zM199 1362q183 33 321 33q246 0 381 -99.5t135 -289.5q0 -139 -75 -243.5t-216 -154.5l267 -483q37 -64 59 -125h-147l-310 578q-59 -9 -125 -9q-73 0 -153 6v-575h-137v1362
zM403 1620l414 170l43 -119v-8l-426 -137z" />
    <glyph glyph-name="racute" unicode="&#x155;" horiz-adv-x="727" 
d="M154 948l114 17l31 -185q107 193 266 193q65 0 129 -35l-28 -123q-49 16 -109 16q-153 0 -250 -186v-645h-135v588q0 134 -18 360zM311 1159l303 311l86 -88v-10l-323 -280z" />
    <glyph glyph-name="uni0156" unicode="&#x156;" horiz-adv-x="1169" 
d="M485 690q148 0 242 43q76 32 121 98t45 160q0 279 -375 279q-58 0 -182 -15v-559q77 -6 149 -6zM199 1362q183 33 321 33q246 0 381 -99.5t135 -289.5q0 -139 -75 -243.5t-216 -154.5l267 -483q37 -64 59 -125h-147l-310 578q-59 -9 -125 -9q-73 0 -153 6v-575h-137v1362
zM555 -147l119 14q10 -62 10 -111q0 -165 -94 -282l-82 47q53 98 53 223q0 50 -6 109z" />
    <glyph glyph-name="uni0157" unicode="&#x157;" horiz-adv-x="727" 
d="M154 948l114 17l31 -185q107 193 266 193q65 0 129 -35l-28 -123q-49 16 -109 16q-153 0 -250 -186v-645h-135v588q0 134 -18 360zM201 -147l118 14q11 -68 11 -111q0 -165 -94 -282l-82 47q53 98 53 223q0 50 -6 109z" />
    <glyph glyph-name="Rcaron" unicode="&#x158;" horiz-adv-x="1169" 
d="M485 690q148 0 242 43q76 32 121 98t45 160q0 279 -375 279q-58 0 -182 -15v-559q77 -6 149 -6zM199 1362q183 33 321 33q246 0 381 -99.5t135 -289.5q0 -139 -75 -243.5t-216 -154.5l267 -483q37 -64 59 -125h-147l-310 578q-59 -9 -125 -9q-73 0 -153 6v-575h-137v1362
zM270 1735l62 77l246 -182l243 182l60 -79l-254 -209l-99 -6z" />
    <glyph glyph-name="rcaron" unicode="&#x159;" horiz-adv-x="727" 
d="M154 948l114 17l31 -185q107 193 266 193q65 0 129 -35l-28 -123q-49 16 -109 16q-153 0 -250 -186v-645h-135v588q0 134 -18 360zM393 1104l-239 295l73 65l217 -235l222 235l69 -65l-241 -287z" />
    <glyph glyph-name="Sacute" unicode="&#x15a;" horiz-adv-x="1093" 
d="M139 1020q0 78 27 143t72.5 108.5t106.5 73t128 43t139 13.5q180 0 336 -78l-43 -109q-149 60 -303 60q-57 0 -110 -12t-102.5 -37.5t-79 -74t-29.5 -114.5q0 -34 9 -64t23 -52.5t39 -44t47 -36t58.5 -31t63 -27t69.5 -25.5q157 -61 215 -95q152 -87 179 -228
q7 -35 7 -73q0 -97 -38.5 -173t-105.5 -122.5t-151.5 -70t-181.5 -23.5q-116 0 -231 35.5t-193 93.5l57 109q173 -111 373 -111q62 0 118.5 14t105 42.5t77.5 78.5t29 115q0 50 -20.5 91t-45 67t-77.5 54.5t-85.5 41.5t-101.5 38q-5 2 -8 3q-49 19 -79.5 31.5t-74.5 34
t-71 40.5t-58.5 48t-48.5 60.5t-29 73t-12 89.5zM393 1620l414 170l43 -119v-8l-426 -137z" />
    <glyph glyph-name="sacute" unicode="&#x15b;" horiz-adv-x="868" 
d="M131 705q-1 122 93 195t231 73q157 0 282 -99l-59 -88q-112 72 -223 72q-85 0 -136 -37t-51 -100q0 -35 15.5 -62.5t49.5 -49.5t63.5 -35.5t80.5 -32.5q55 -20 90 -35t77 -40t66.5 -51.5t41 -66.5t16.5 -88q0 -128 -97 -205.5t-253 -77.5q-181 0 -328 113l60 92
q132 -90 264 -90q95 0 155 41t60 113q0 18 -4 34t-13.5 30t-18 25t-26.5 22.5t-29.5 19t-36 18.5t-36.5 16t-41 16.5t-41 16.5q-58 22 -98 43.5t-77.5 52t-56.5 72t-20 93.5zM313 1159l303 311l86 -88v-10l-323 -280z" />
    <glyph glyph-name="Scircumflex" unicode="&#x15c;" horiz-adv-x="1093" 
d="M139 1020q0 78 27 143t72.5 108.5t106.5 73t128 43t139 13.5q180 0 336 -78l-43 -109q-149 60 -303 60q-57 0 -110 -12t-102.5 -37.5t-79 -74t-29.5 -114.5q0 -34 9 -64t23 -52.5t39 -44t47 -36t58.5 -31t63 -27t69.5 -25.5q157 -61 215 -95q152 -87 179 -228
q7 -35 7 -73q0 -97 -38.5 -173t-105.5 -122.5t-151.5 -70t-181.5 -23.5q-116 0 -231 35.5t-193 93.5l57 109q173 -111 373 -111q62 0 118.5 14t105 42.5t77.5 78.5t29 115q0 50 -20.5 91t-45 67t-77.5 54.5t-85.5 41.5t-101.5 38q-5 2 -8 3q-49 19 -79.5 31.5t-74.5 34
t-71 40.5t-58.5 48t-48.5 60.5t-29 73t-12 89.5zM514 1798l98 8l258 -219l-61 -78l-246 183l-244 -181l-59 78z" />
    <glyph glyph-name="scircumflex" unicode="&#x15d;" horiz-adv-x="868" 
d="M131 705q-1 122 93 195t231 73q157 0 282 -99l-59 -88q-112 72 -223 72q-85 0 -136 -37t-51 -100q0 -35 15.5 -62.5t49.5 -49.5t63.5 -35.5t80.5 -32.5q55 -20 90 -35t77 -40t66.5 -51.5t41 -66.5t16.5 -88q0 -128 -97 -205.5t-253 -77.5q-181 0 -328 113l60 92
q132 -90 264 -90q95 0 155 41t60 113q0 18 -4 34t-13.5 30t-18 25t-26.5 22.5t-29.5 19t-36 18.5t-36.5 16t-41 16.5t-41 16.5q-58 22 -98 43.5t-77.5 52t-56.5 72t-20 93.5zM393 1446l101 8l241 -295l-73 -65l-218 235l-221 -237l-71 67z" />
    <glyph glyph-name="uni015E" unicode="&#x15e;" horiz-adv-x="1093" 
d="M139 1020q0 78 27 143t72.5 108.5t106.5 73t128 43t139 13.5q180 0 336 -78l-43 -109q-149 60 -303 60q-57 0 -110 -12t-102.5 -37.5t-79 -74t-29.5 -114.5q0 -34 9 -64t23 -52.5t39 -44t47 -36t58.5 -31t63 -27t69.5 -25.5q157 -61 215 -95q152 -87 179 -228
q7 -35 7 -73q0 -89 -32.5 -160.5t-90 -118t-130.5 -73.5t-160 -35l-41 -96h22q82 0 139.5 -36t57.5 -113q0 -94 -90 -159t-256 -93l-21 88q234 46 234 155q0 76 -113 76q-18 0 -66 -6l-34 45l57 139q-104 6 -205.5 40.5t-171.5 86.5l57 109q173 -111 373 -111q62 0 118.5 14
t105 42.5t77.5 78.5t29 115q0 50 -20.5 91t-45 67t-77.5 54.5t-85.5 41.5t-101.5 38q-5 2 -8 3q-49 19 -79.5 31.5t-74.5 34t-71 40.5t-58.5 48t-48.5 60.5t-29 73t-12 89.5z" />
    <glyph glyph-name="uni015F" unicode="&#x15f;" horiz-adv-x="868" 
d="M131 705q-1 122 93 195t231 73q157 0 282 -99l-59 -88q-112 72 -223 72q-85 0 -136 -37t-51 -100q0 -35 15.5 -62.5t49.5 -49.5t63.5 -35.5t80.5 -32.5q55 -20 90 -35t77 -40t66.5 -51.5t41 -66.5t16.5 -88q0 -119 -84.5 -194t-222.5 -86l-43 -105q8 2 26 2
q82 0 139.5 -36t57.5 -113q0 -94 -90 -159t-256 -93l-21 88q234 46 234 155q0 76 -113 76q-17 0 -65 -6l-35 45l61 148q-146 17 -266 108l60 92q132 -90 264 -90q95 0 155 41t60 113q0 18 -4 34t-13.5 30t-18 25t-26.5 22.5t-29.5 19t-36 18.5t-36.5 16t-41 16.5t-41 16.5
q-58 22 -98 43.5t-77.5 52t-56.5 72t-20 93.5z" />
    <glyph glyph-name="Scaron" unicode="&#x160;" horiz-adv-x="1093" 
d="M139 1020q0 78 27 143t72.5 108.5t106.5 73t128 43t139 13.5q180 0 336 -78l-43 -109q-149 60 -303 60q-57 0 -110 -12t-102.5 -37.5t-79 -74t-29.5 -114.5q0 -34 9 -64t23 -52.5t39 -44t47 -36t58.5 -31t63 -27t69.5 -25.5q157 -61 215 -95q152 -87 179 -228
q7 -35 7 -73q0 -97 -38.5 -173t-105.5 -122.5t-151.5 -70t-181.5 -23.5q-116 0 -231 35.5t-193 93.5l57 109q173 -111 373 -111q62 0 118.5 14t105 42.5t77.5 78.5t29 115q0 50 -20.5 91t-45 67t-77.5 54.5t-85.5 41.5t-101.5 38q-5 2 -8 3q-49 19 -79.5 31.5t-74.5 34
t-71 40.5t-58.5 48t-48.5 60.5t-29 73t-12 89.5zM260 1735l62 77l245 -182l244 182l59 -79l-254 -209l-98 -6z" />
    <glyph glyph-name="scaron" unicode="&#x161;" horiz-adv-x="868" 
d="M131 705q-1 122 93 195t231 73q157 0 282 -99l-59 -88q-112 72 -223 72q-85 0 -136 -37t-51 -100q0 -35 15.5 -62.5t49.5 -49.5t63.5 -35.5t80.5 -32.5q55 -20 90 -35t77 -40t66.5 -51.5t41 -66.5t16.5 -88q0 -128 -97 -205.5t-253 -77.5q-181 0 -328 113l60 92
q132 -90 264 -90q95 0 155 41t60 113q0 18 -4 34t-13.5 30t-18 25t-26.5 22.5t-29.5 19t-36 18.5t-36.5 16t-41 16.5t-41 16.5q-58 22 -98 43.5t-77.5 52t-56.5 72t-20 93.5zM395 1104l-239 295l73 65l217 -235l222 235l69 -65l-241 -287z" />
    <glyph glyph-name="uni0162" unicode="&#x162;" 
d="M51 1372h1026l-4 -121h-440v-1251h-12l-52 -123h23q82 0 139 -36t57 -113q0 -94 -90 -159t-256 -93l-20 88q233 46 233 155q0 76 -112 76q-18 0 -66 -6l-35 45l70 166h-16v1251h-441z" />
    <glyph glyph-name="uni0163" unicode="&#x163;" horiz-adv-x="706" 
d="M238 1233h108v-283h295v-112h-295v-535q0 -121 25 -163t96 -42q69 0 158 25l28 -103q-109 -40 -223 -43l-41 -102q8 2 27 2q82 0 139 -36t57 -113q0 -94 -90 -159t-256 -93l-20 88q233 46 233 155q0 76 -112 76q-18 0 -66 -6l-35 45l66 156q-63 23 -91 88.5t-28 191.5
v568h-145v112h137z" />
    <glyph glyph-name="Tcaron" unicode="&#x164;" 
d="M51 1372h1026l-4 -121h-440v-1251h-137v1251h-441zM260 1735l62 77l245 -182l244 182l59 -79l-254 -209l-98 -6z" />
    <glyph glyph-name="tcaron" unicode="&#x165;" horiz-adv-x="706" 
d="M238 1233h108v-283h295v-112h-295v-535q0 -121 25 -163t96 -42q69 0 158 25l28 -103q-116 -43 -233 -43q-112 0 -159.5 65.5t-47.5 227.5v568h-145v112h137zM479 1540l123 4l6 -6l-30 -418h-99v420z" />
    <glyph glyph-name="Tbar" unicode="&#x166;" horiz-adv-x="1155" 
d="M256 756h254v495h-440l-4 121h1026l-5 -121h-440v-495h254v-115h-254v-641h-137v641h-254v115z" />
    <glyph glyph-name="tbar" unicode="&#x167;" horiz-adv-x="718" 
d="M244 1233h110v-283h295v-112h-295v-226h293v-98h-293v-211q0 -121 25 -163t96 -42q66 0 158 25l29 -103q-116 -43 -234 -43q-112 0 -160.5 65.5t-48.5 227.5v244h-143v98h143v226h-143v112h135z" />
    <glyph glyph-name="Utilde" unicode="&#x168;" horiz-adv-x="1290" 
d="M971 1372h137v-840q0 -561 -475 -561q-219 0 -334 125.5t-115 384.5v891h138v-856q0 -102 14.5 -175t50 -131t102 -87t164.5 -29q64 0 120.5 23t90.5 55q107 99 107 317v883zM762 1630q62 0 133 142l84 -43q-88 -211 -219 -211q-33 0 -62 14.5t-49.5 35t-39.5 40.5
t-39.5 34.5t-41.5 14.5q-58 0 -133 -137l-84 45q90 204 224 204q32 0 60.5 -14.5t48.5 -35t38.5 -40.5t38.5 -34.5t41 -14.5z" />
    <glyph glyph-name="utilde" unicode="&#x169;" horiz-adv-x="1058" 
d="M160 948l135 4v-602q0 -136 41 -198t133 -62q129 0 285 146v714h133v-581q0 -115 18 -361l-112 -16l-27 137q-158 -158 -330 -158q-276 0 -276 332v645zM637 1225q65 0 129 137l84 -41q-37 -99 -93 -154t-120 -55q-41 0 -77 21.5t-57 47t-48 47t-52 21.5q-32 0 -62.5 -35
t-68.5 -102l-82 43q39 97 95.5 152t122.5 55q33 0 61.5 -14t49 -34t39 -40.5t38.5 -34.5t41 -14z" />
    <glyph glyph-name="Umacron" unicode="&#x16a;" horiz-adv-x="1290" 
d="M971 1372h137v-840q0 -561 -475 -561q-219 0 -334 125.5t-115 384.5v891h138v-856q0 -102 14.5 -175t50 -131t102 -87t164.5 -29q64 0 120.5 23t90.5 55q107 99 107 317v883zM399 1663h492v-109h-492v109z" />
    <glyph glyph-name="umacron" unicode="&#x16b;" horiz-adv-x="1058" 
d="M160 948l135 4v-602q0 -136 41 -198t133 -62q129 0 285 146v714h133v-581q0 -115 18 -361l-112 -16l-27 137q-158 -158 -330 -158q-276 0 -276 332v645zM272 1257h494v-108h-494v108z" />
    <glyph glyph-name="Ubreve" unicode="&#x16c;" horiz-adv-x="1290" 
d="M971 1372h137v-840q0 -561 -475 -561q-219 0 -334 125.5t-115 384.5v891h138v-856q0 -102 14.5 -175t50 -131t102 -87t164.5 -29q64 0 120.5 23t90.5 55q107 99 107 317v883zM922 1755q-31 -110 -105.5 -167.5t-173.5 -57.5q-100 0 -170.5 55.5t-101.5 167.5l86 39
q30 -76 76 -110.5t112 -34.5q137 0 191 145z" />
    <glyph glyph-name="ubreve" unicode="&#x16d;" horiz-adv-x="1058" 
d="M160 948l135 4v-602q0 -136 41 -198t133 -62q129 0 285 146v714h133v-581q0 -115 18 -361l-112 -16l-27 137q-158 -158 -330 -158q-276 0 -276 332v645zM524 1223q71 0 120 45.5t63 142.5l92 -12q-13 -143 -87 -217t-194 -74q-236 0 -270 291l96 12q27 -188 180 -188z
" />
    <glyph glyph-name="Uring" unicode="&#x16e;" horiz-adv-x="1290" 
d="M971 1372h137v-840q0 -561 -475 -561q-219 0 -334 125.5t-115 384.5v891h138v-856q0 -102 14.5 -175t50 -131t102 -87t164.5 -29q64 0 120.5 23t90.5 55q107 99 107 317v883zM434 1675q0 94 61.5 151.5t159.5 55.5q90 2 146.5 -51t56.5 -139q0 -92 -61 -148.5t-158 -56.5
q-90 0 -147.5 52t-57.5 136zM760 1688q0 47 -30 77.5t-79 30.5q-54 0 -86.5 -32t-32.5 -85q0 -46 30.5 -76t80.5 -30q53 0 85 31.5t32 83.5z" />
    <glyph glyph-name="uring" unicode="&#x16f;" horiz-adv-x="1058" 
d="M160 948l135 4v-602q0 -136 41 -198t133 -62q129 0 285 146v714h133v-581q0 -115 18 -361l-112 -16l-27 137q-158 -158 -330 -158q-276 0 -276 332v645zM307 1270q0 98 61.5 156.5t161.5 58.5q90 0 147.5 -53.5t57.5 -143.5q0 -97 -61.5 -156t-159.5 -59q-91 0 -149 54
t-58 143zM633 1284q0 53 -28 83t-79 30q-57 0 -87.5 -33t-30.5 -92q0 -51 28.5 -81t79.5 -30q55 0 86 33t31 90z" />
    <glyph glyph-name="Uhungarumlaut" unicode="&#x170;" horiz-adv-x="1290" 
d="M971 1372h137v-840q0 -561 -475 -561q-219 0 -334 125.5t-115 384.5v891h138v-856q0 -102 14.5 -175t50 -131t102 -87t164.5 -29q64 0 120.5 23t90.5 55q107 99 107 317v883zM399 1577l224 287l98 -74v-8l-248 -262zM717 1577l223 289l98 -74v-10l-247 -262z" />
    <glyph glyph-name="uhungarumlaut" unicode="&#x171;" horiz-adv-x="1058" 
d="M160 948l135 4v-602q0 -136 41 -198t133 -62q129 0 285 146v714h133v-581q0 -115 18 -361l-112 -16l-27 137q-158 -158 -330 -158q-276 0 -276 332v645zM299 1135l166 333l108 -57v-10l-196 -309zM590 1135l168 333l106 -57v-10l-194 -309z" />
    <glyph glyph-name="Uogonek" unicode="&#x172;" horiz-adv-x="1290" 
d="M1108 532q0 -174 -43 -285t-143 -196q-106 -92 -158.5 -167.5t-52.5 -147.5q0 -117 118 -117q51 0 127 29l31 -97q-96 -45 -190 -45q-99 0 -160.5 54t-61.5 149q0 74 38.5 137.5t113.5 130.5v3q-43 -9 -94 -9q-219 0 -334 125.5t-115 384.5v891h138v-856
q0 -102 14.5 -175t50 -131t102 -87t164.5 -29q64 0 120.5 23t90.5 55q107 99 107 317v883h137v-840z" />
    <glyph glyph-name="uogonek" unicode="&#x173;" horiz-adv-x="1058" 
d="M160 950h135v-594q0 -138 41.5 -202t132.5 -64q69 0 136.5 35.5t148.5 112.5v712h133v-581q0 -167 18 -406q-215 -102 -215 -213q0 -45 28.5 -71.5t82.5 -26.5q53 0 131 31l33 -97q-100 -47 -197 -47q-96 0 -154.5 50.5t-58.5 134.5q0 143 227 274l-20 129
q-78 -78 -155.5 -117t-168.5 -39q-278 0 -278 332v647z" />
    <glyph glyph-name="Wcircumflex" unicode="&#x174;" horiz-adv-x="1830" 
d="M1642 1372h140q-7 -31 -29 -99t-29 -93l-352 -1176l-170 -8l-241 1030l-31 172h-8l-318 -1194l-170 -8l-317 1188q-41 155 -47 188h141l254 -956l53 -244h6l314 1200h180l225 -956l49 -246h6zM879 1798l98 8l258 -219l-61 -78l-246 183l-244 -181l-59 78z" />
    <glyph glyph-name="wcircumflex" unicode="&#x175;" horiz-adv-x="1515" 
d="M698 948l133 4l195 -657l37 -141h8l244 796h129q0 -36 -17 -82l-292 -866l-146 -4l-194 633l-33 123h-6l-228 -752l-147 -4l-293 870q-16 54 -16 82h135l205 -655l41 -141h8zM713 1446l100 8l242 -295l-74 -65l-217 235l-221 -237l-72 67z" />
    <glyph glyph-name="Ycircumflex" unicode="&#x176;" horiz-adv-x="1085" 
d="M903 1372h144q-18 -45 -80 -155l-359 -648v-569h-135v569l-350 648q-66 126 -78 155h150l256 -473l94 -180h2zM496 1798l98 8l258 -219l-61 -78l-246 183l-244 -181l-59 78z" />
    <glyph glyph-name="ycircumflex" unicode="&#x177;" horiz-adv-x="962" 
d="M768 950h129q0 -33 -18 -82l-359 -960q-89 -218 -185.5 -316t-213.5 -98q-22 0 -76 6v109q128 0 215.5 91t173.5 300h-24l-320 868q-16 43 -16 82h133l223 -626q29 -85 49 -170h8zM438 1446l101 8l241 -295l-73 -65l-218 235l-221 -237l-71 67z" />
    <glyph glyph-name="Ydieresis" unicode="&#x178;" horiz-adv-x="1085" 
d="M903 1372h144q-18 -45 -80 -155l-359 -648v-569h-135v569l-350 648q-66 126 -78 155h150l256 -473l94 -180h2zM639 1634q0 40 27 66t69 26q38 0 62 -22t24 -59q0 -42 -26 -68.5t-68 -26.5q-39 0 -63.5 22.5t-24.5 61.5zM272 1634q0 40 27 66t70 26q38 0 62 -22t24 -59
q0 -42 -26.5 -68.5t-68.5 -26.5q-38 0 -63 22.5t-25 61.5z" />
    <glyph glyph-name="Zacute" unicode="&#x179;" horiz-adv-x="1148" 
d="M123 1372h909l23 -123l-822 -1128h809l5 -121h-951l-16 125l815 1126h-768zM414 1620l413 170l43 -119v-8l-426 -137z" />
    <glyph glyph-name="zacute" unicode="&#x17a;" horiz-adv-x="921" 
d="M121 950h680l22 -102l-571 -737h561l4 -111h-711l-16 102l567 738h-534zM340 1159l303 311l86 -88v-10l-323 -280z" />
    <glyph glyph-name="Zdotaccent" unicode="&#x17b;" horiz-adv-x="1148" 
d="M123 1372h909l23 -123l-822 -1128h809l5 -121h-951l-16 125l815 1126h-768zM489 1638q0 44 28.5 72.5t72.5 28.5q41 0 65.5 -24.5t24.5 -65.5q0 -44 -27 -71.5t-71 -27.5q-41 0 -67 24t-26 64z" />
    <glyph glyph-name="zdotaccent" unicode="&#x17c;" horiz-adv-x="921" 
d="M121 950h680l22 -102l-571 -737h561l4 -111h-711l-16 102l567 738h-534zM373 1237q0 46 29 75t75 29q41 0 66.5 -25.5t25.5 -68.5q0 -45 -28.5 -73.5t-73.5 -28.5q-41 0 -67.5 25.5t-26.5 66.5z" />
    <glyph glyph-name="Zcaron" unicode="&#x17d;" horiz-adv-x="1148" 
d="M123 1372h909l23 -123l-822 -1128h809l5 -121h-951l-16 125l815 1126h-768zM281 1735l61 77l246 -182l243 182l60 -79l-254 -209l-98 -6z" />
    <glyph glyph-name="zcaron" unicode="&#x17e;" horiz-adv-x="921" 
d="M121 950h680l22 -102l-571 -737h561l4 -111h-711l-16 102l567 738h-534zM422 1104l-240 295l74 65l217 -235l221 235l70 -65l-242 -287z" />
    <glyph glyph-name="longs" unicode="&#x17f;" horiz-adv-x="563" 
d="M221 1186q0 165 79.5 269t225.5 104q116 0 236 -99l-62 -84q-94 66 -180 66q-73 0 -114 -47q-50 -66 -50 -191v-1204h-135v838h-147v112h147v236z" />
    <glyph glyph-name="uni018F" unicode="&#x18f;" horiz-adv-x="1239" 
d="M1114 707q0 -130 -17.5 -238.5t-57 -200.5t-99.5 -156t-147.5 -99.5t-198.5 -35.5q-240 0 -356.5 144t-116.5 401q0 108 16 199h836q-2 136 -21 232.5t-62.5 170.5t-120.5 110t-189 36q-191 0 -392 -103l-43 105q42 23 75 39t91.5 38t129.5 34t149 12q276 0 400 -171
t124 -517zM596 102q182 0 271.5 128.5t103.5 369.5h-707q-8 -62 -8 -98q0 -193 86 -296.5t254 -103.5z" />
    <glyph glyph-name="uni0192" unicode="&#x192;" horiz-adv-x="987" 
d="M418 1053q21 164 99.5 253t219.5 89q68 0 123 -28t90 -67l-57 -83q-74 59 -158 59q-71 0 -114 -43q-55 -57 -70 -178l-47 -357h229l-12 -112h-232l-79 -619q-21 -149 -94.5 -231t-194.5 -82t-205 84l55 88q71 -53 150 -53q128 0 153 194l82 619h-155l12 112h158z" />
    <glyph glyph-name="Ohorn" unicode="&#x1a0;" horiz-adv-x="1402" 
d="M119 668q0 108 21 211.5t67 198.5t112.5 166.5t164.5 114t216 42.5q102 0 187 -31q70 -18 121 -18q110 0 110 92q0 49 -39 125l121 8q45 -72 45 -150q0 -77 -40 -125t-118 -63q92 -95 140.5 -233.5t48.5 -300.5q0 -108 -21 -211.5t-67.5 -199t-113 -167t-164 -114
t-214.5 -42.5q-135 0 -245.5 55t-182 150t-110.5 221.5t-39 270.5zM1130 686q0 166 -49 298t-149 212t-236 80q-140 0 -237 -82q-100 -82 -147.5 -219.5t-47.5 -288.5q0 -166 49.5 -298.5t149.5 -212t235 -79.5q140 0 240 82t146 219t46 289z" />
    <glyph glyph-name="ohorn" unicode="&#x1a1;" horiz-adv-x="1073" 
d="M113 463q0 94 26.5 184t77 165t134 121t188.5 46q91 0 166 -35q47 -14 71 -14q54 0 76 21.5t22 62.5q0 54 -40 123l110 8q45 -67 45 -148q0 -67 -37 -110t-108 -56q100 -133 100 -344q0 -76 -15.5 -149t-49.5 -140t-82.5 -117t-120 -80t-156.5 -30q-187 0 -297 137
t-110 355zM807 469q0 175 -73.5 283t-207.5 108q-108 0 -176 -65q-47 -48 -73.5 -130t-26.5 -184q0 -176 73.5 -284.5t208.5 -108.5q110 0 177 70q98 103 98 311z" />
    <glyph glyph-name="Uhorn" unicode="&#x1af;" horiz-adv-x="1296" 
d="M971 1372h76q68 0 95 22.5t27 67.5q0 52 -41 127l121 8q47 -73 47 -153q0 -168 -188 -189v-723q0 -561 -475 -561q-219 0 -334 125.5t-115 384.5v891h138v-856q0 -102 14.5 -175t50 -131t102 -87t164.5 -29q64 0 120.5 23t90.5 55q107 99 107 317v883z" />
    <glyph glyph-name="uhorn" unicode="&#x1b0;" horiz-adv-x="1081" 
d="M922 1157l110 8q45 -72 45 -147q0 -76 -48 -120.5t-142 -51.5v-477q0 -115 18 -361l-112 -16l-27 137q-158 -158 -330 -158q-276 0 -276 332v645l135 4v-602q0 -136 41 -198t133 -62q129 0 285 146v714h90q67 0 93 21.5t26 62.5q0 52 -41 123z" />
    <glyph glyph-name="uni01FA" unicode="&#x1fa;" horiz-adv-x="1181" 
d="M594 1198l-234 -680h457l-127 379l-90 301h-6zM518 1368l154 8l407 -1218q29 -86 49 -158h-139l-133 401h-537l-137 -401h-139q21 70 51 158zM381 1675q0 94 61.5 151.5t159.5 55.5q90 2 146.5 -51t56.5 -139q0 -92 -61 -148.5t-158 -56.5q-90 0 -147.5 52t-57.5 136z
M707 1688q0 47 -30 77.5t-79 30.5q-54 0 -86.5 -32t-32.5 -85q0 -46 30.5 -76t80.5 -30q53 0 85 31.5t32 83.5zM420 2046l414 170l43 -119v-8l-426 -137z" />
    <glyph glyph-name="aringacute" unicode="&#x1fb;" horiz-adv-x="960" 
d="M129 819q187 154 387 154q148 0 214.5 -87t66.5 -276v-248q0 -127 16 -354l-113 -16l-26 133q-167 -148 -340 -148q-111 0 -176.5 63t-65.5 173q0 142 123 225q118 77 447 107v20q0 159 -38 224t-130 65q-144 0 -312 -121zM358 88q142 -3 304 143v211q-289 -26 -371 -82
q-68 -49 -68 -131q0 -68 36 -104.5t99 -36.5zM262 1270q0 98 61.5 156.5t161.5 58.5q90 0 147.5 -53.5t57.5 -143.5q0 -97 -61.5 -156t-159.5 -59q-91 0 -149 54t-58 143zM588 1284q0 53 -28 83t-79 30q-57 0 -88 -33t-31 -92q0 -51 29 -81t80 -30q55 0 86 33t31 90z
M303 1638l414 170l43 -118v-9l-426 -137z" />
    <glyph glyph-name="uni01FC" unicode="&#x1fc;" horiz-adv-x="1755" 
d="M739 1032l-266 -481h399v702h-8zM786 1372h854l-4 -121h-626v-489h510v-121h-510v-520h628l4 -121h-770v428h-466l-236 -428h-147q0 15 18 47zM1040 1620l414 170l43 -119v-8l-426 -137z" />
    <glyph glyph-name="uni01FD" unicode="&#x1fd;" horiz-adv-x="1538" 
d="M1077 862q-116 0 -187.5 -82.5t-86.5 -232.5h483q4 46 4 74q0 107 -56 174t-157 67zM217 438q117 80 445 109v18q0 159 -38 224t-130 65q-142 0 -312 -119l-51 84q187 154 385 154q101 0 160 -42.5t84 -133.5q57 85 140 132.5t185 47.5q164 0 252 -106.5t88 -272.5
q0 -66 -14 -152h-612q6 -174 86 -262t211 -88q136 0 270 54l37 -97q-165 -76 -332 -76q-103 0 -189 45.5t-139 133.5q-172 -179 -387 -179q-124 0 -195 61.5t-71 174.5q0 140 127 225zM375 88q169 -3 325 156q-29 92 -32 200q-168 -17 -251.5 -36t-123.5 -48
q-70 -47 -70 -131q0 -69 39 -105t113 -36zM696 1159l303 311l86 -88v-10l-323 -280z" />
    <glyph glyph-name="Oslashacute" unicode="&#x1fe;" horiz-adv-x="1386" 
d="M119 668q0 108 21 211.5t66.5 198.5t111.5 166.5t163 114t213 42.5q153 0 271 -70l77 150l101 -58l-84 -161q101 -95 155 -240.5t54 -316.5q0 -90 -15 -177t-45 -169.5t-78 -152.5t-110 -122.5t-146.5 -82.5t-181.5 -30q-151 0 -272 70l-78 -147l-100 55l84 162
q-100 94 -153.5 239.5t-53.5 317.5zM264 686q0 -278 131 -444l508 972q-92 64 -211 64q-134 0 -235 -82q-100 -82 -146.5 -220t-46.5 -290zM1122 686q0 281 -131 447l-510 -973q91 -66 213 -66q135 0 236 82q100 82 146 219.5t46 290.5zM522 1620l414 170l43 -119v-8
l-426 -137z" />
    <glyph glyph-name="oslashacute" unicode="&#x1ff;" horiz-adv-x="1056" 
d="M113 463q0 94 26.5 184t77 165t134 121t188.5 46q82 0 155 -31l62 135l90 -45l-66 -141q78 -65 121 -171.5t43 -238.5q0 -76 -15.5 -149t-49.5 -140t-82.5 -117t-120 -80t-156.5 -30t-158 31l-61 -133l-88 43l66 141q-80 65 -123 171t-43 239zM250 481q0 -194 86 -303
l305 658q-52 24 -115 24q-108 0 -176 -65q-47 -48 -73.5 -130t-26.5 -184zM807 469q0 192 -86 301l-305 -655q56 -27 116 -27q110 0 177 70q98 103 98 311zM389 1159l303 311l86 -88v-10l-323 -280z" />
    <glyph glyph-name="uni0218" unicode="&#x218;" horiz-adv-x="1093" 
d="M139 1020q0 78 27 143t72.5 108.5t106.5 73t128 43t139 13.5q180 0 336 -78l-43 -109q-149 60 -303 60q-57 0 -110 -12t-102.5 -37.5t-79 -74t-29.5 -114.5q0 -34 9 -64t23 -52.5t39 -44t47 -36t58.5 -31t63 -27t69.5 -25.5q157 -61 215 -95q152 -87 179 -228
q7 -35 7 -73q0 -97 -38.5 -173t-105.5 -122.5t-151.5 -70t-181.5 -23.5q-116 0 -231 35.5t-193 93.5l57 109q173 -111 373 -111q62 0 118.5 14t105 42.5t77.5 78.5t29 115q0 50 -20.5 91t-45 67t-77.5 54.5t-85.5 41.5t-101.5 38q-5 2 -8 3q-49 19 -79.5 31.5t-74.5 34
t-71 40.5t-58.5 48t-48.5 60.5t-29 73t-12 89.5zM475 -147l119 14q10 -62 10 -111q0 -165 -94 -282l-82 47q53 98 53 223q0 50 -6 109z" />
    <glyph glyph-name="uni0219" unicode="&#x219;" horiz-adv-x="868" 
d="M131 705q-1 122 93 195t231 73q157 0 282 -99l-59 -88q-112 72 -223 72q-85 0 -136 -37t-51 -100q0 -35 15.5 -62.5t49.5 -49.5t63.5 -35.5t80.5 -32.5q55 -20 90 -35t77 -40t66.5 -51.5t41 -66.5t16.5 -88q0 -128 -97 -205.5t-253 -77.5q-181 0 -328 113l60 92
q132 -90 264 -90q95 0 155 41t60 113q0 18 -4 34t-13.5 30t-18 25t-26.5 22.5t-29.5 19t-36 18.5t-36.5 16t-41 16.5t-41 16.5q-58 22 -98 43.5t-77.5 52t-56.5 72t-20 93.5zM379 -147l119 14q10 -62 10 -111q0 -165 -94 -282l-82 47q53 98 53 223q0 50 -6 109z" />
    <glyph glyph-name="uni021A" unicode="&#x21a;" 
d="M51 1372h1026l-4 -121h-440v-1251h-137v1251h-441zM508 -147l119 14q10 -62 10 -111q0 -165 -94 -282l-82 47q53 98 53 223q0 50 -6 109z" />
    <glyph glyph-name="uni021B" unicode="&#x21b;" horiz-adv-x="706" 
d="M238 1233h108v-283h295v-112h-295v-535q0 -121 25 -163t96 -42q69 0 158 25l28 -103q-116 -43 -233 -43q-112 0 -159.5 65.5t-47.5 227.5v568h-145v112h137zM350 -147l119 14q10 -62 10 -111q0 -165 -94 -282l-82 47q53 98 53 223q0 50 -6 109z" />
    <glyph glyph-name="dotlessj" unicode="&#x237;" horiz-adv-x="473" 
d="M170 948l135 4v-905q0 -188 -64.5 -311t-189.5 -225l-74 75q94 101 143.5 210t49.5 261v891z" />
    <glyph glyph-name="uni0259" unicode="&#x259;" horiz-adv-x="952" 
d="M834 492q0 -114 -21.5 -206t-65.5 -162.5t-117 -108.5t-171 -38q-167 0 -255.5 105t-88.5 283q0 81 12 151h578q-5 178 -66 260t-207 82q-119 0 -264 -59l-39 96q153 78 315 78q202 0 296 -120.5t94 -360.5zM459 92q123 0 179 82.5t64 237.5h-458q-2 -20 -2 -66
q0 -118 55.5 -186t161.5 -68z" />
    <glyph glyph-name="uni02BC" unicode="&#x2bc;" horiz-adv-x="0" 
d="M45 1466l125 11q16 -62 16 -121q0 -86 -45 -156.5t-123 -116.5l-51 62q88 79 88 203q0 53 -10 118z" />
    <glyph glyph-name="circumflex" unicode="&#x2c6;" horiz-adv-x="819" 
d="M358 1446l101 8l241 -295l-73 -65l-217 235l-222 -237l-71 67z" />
    <glyph glyph-name="caron" unicode="&#x2c7;" horiz-adv-x="819" 
d="M360 1104l-239 295l74 65l217 -235l221 235l69 -65l-241 -287z" />
    <glyph glyph-name="uni02C9" unicode="&#x2c9;" horiz-adv-x="0" 
d="M-248 1257h494v-108h-494v108z" />
    <glyph glyph-name="uni02CA" unicode="&#x2ca;" horiz-adv-x="0" 
d="M-131 1159l303 311l86 -88v-10l-324 -280z" />
    <glyph glyph-name="uni02CB" unicode="&#x2cb;" horiz-adv-x="0" 
d="M-223 1382l86 88l301 -311l-66 -67l-321 280v10z" />
    <glyph glyph-name="breve" unicode="&#x2d8;" horiz-adv-x="819" 
d="M414 1223q71 0 119.5 45t62.5 143l92 -12q-13 -143 -86.5 -217t-193.5 -74q-237 0 -271 291l96 12q27 -188 181 -188z" />
    <glyph glyph-name="dotaccent" unicode="&#x2d9;" horiz-adv-x="819" 
d="M311 1237q0 46 29.5 75t75.5 29q41 0 66.5 -25.5t25.5 -68.5q0 -45 -28.5 -73.5t-73.5 -28.5q-42 0 -68.5 25.5t-26.5 66.5z" />
    <glyph glyph-name="ring" unicode="&#x2da;" horiz-adv-x="819" 
d="M197 1270q0 98 61.5 156.5t161.5 58.5q90 0 147.5 -53.5t57.5 -143.5q0 -97 -62 -156t-160 -59q-91 0 -148.5 54t-57.5 143zM522 1284q0 53 -27.5 83t-78.5 30q-57 0 -88 -33t-31 -92q0 -51 29 -81t80 -30q55 0 85.5 33t30.5 90z" />
    <glyph glyph-name="ogonek" unicode="&#x2db;" horiz-adv-x="819" 
d="M127 -268q0 97 79.5 180.5t223.5 163.5l51 -68q-114 -69 -166.5 -127.5t-52.5 -122.5q0 -48 29.5 -77t87.5 -29q52 0 133 33l33 -97q-98 -49 -201 -49q-97 0 -157 53t-60 140z" />
    <glyph glyph-name="tilde" unicode="&#x2dc;" horiz-adv-x="819" 
d="M526 1225q65 0 129 137l84 -41q-37 -99 -93 -154t-120 -55q-41 0 -76.5 21.5t-57 47t-48 47t-51.5 21.5q-32 0 -62.5 -35t-68.5 -102l-82 43q39 98 95 152.5t122 54.5q33 0 61.5 -14t49 -34t39 -40.5t38.5 -34.5t41 -14z" />
    <glyph glyph-name="hungarumlaut" unicode="&#x2dd;" horiz-adv-x="819" 
d="M188 1135l166 333l109 -57v-10l-197 -309zM479 1135l168 333l107 -57v-10l-195 -309z" />
    <glyph glyph-name="uni0300" unicode="&#x300;" horiz-adv-x="0" 
d="M-223 1382l86 88l301 -311l-66 -67l-321 280v10z" />
    <glyph glyph-name="uni0301" unicode="&#x301;" horiz-adv-x="0" 
d="M-131 1159l303 311l86 -88v-10l-324 -280z" />
    <glyph glyph-name="uni0302" unicode="&#x302;" horiz-adv-x="0" 
d="M-51 1446l100 8l242 -295l-74 -65l-217 235l-221 -237l-72 67z" />
    <glyph glyph-name="uni0303" unicode="&#x303;" horiz-adv-x="0" 
d="M117 1225q65 0 129 137l84 -41q-37 -99 -93 -154t-120 -55q-41 0 -77 21.5t-57 47t-48 47t-52 21.5q-32 0 -62.5 -35t-68.5 -102l-82 43q39 98 95 152.5t122 54.5q40 0 75 -21.5t56 -47t47.5 -47t51.5 -21.5z" />
    <glyph glyph-name="uni0304" unicode="&#x304;" horiz-adv-x="0" 
d="M-248 1257h494v-108h-494v108z" />
    <glyph glyph-name="uni0306" unicode="&#x306;" horiz-adv-x="0" 
d="M4 1223q71 0 119.5 45t62.5 143l93 -12q-13 -143 -87 -217t-194 -74q-236 0 -270 291l96 12q27 -188 180 -188z" />
    <glyph glyph-name="uni0307" unicode="&#x307;" horiz-adv-x="0" 
d="M-98 1237q0 46 29 75t75 29q41 0 66.5 -25.5t25.5 -68.5q0 -45 -28.5 -73.5t-73.5 -28.5q-41 0 -67.5 25.5t-26.5 66.5z" />
    <glyph glyph-name="uni0308" unicode="&#x308;" horiz-adv-x="0" 
d="M86 1231q0 40 27 67t69 27q36 0 60 -22.5t24 -61.5q0 -40 -25.5 -67t-66.5 -27q-39 0 -63.5 22.5t-24.5 61.5zM-262 1231q0 40 27 67t69 27q37 0 60.5 -22.5t23.5 -61.5q0 -41 -25 -67.5t-67 -26.5q-39 0 -63.5 22.5t-24.5 61.5z" />
    <glyph glyph-name="uni0309" unicode="&#x309;" horiz-adv-x="0" 
d="M-111 1348l-20 86q55 20 111 20q84 0 134 -42t50 -118q0 -95 -68.5 -147t-181.5 -62l-12 86q72 13 110.5 39t38.5 76q0 74 -86 74q-35 0 -76 -12z" />
    <glyph glyph-name="uni030A" unicode="&#x30a;" horiz-adv-x="0" 
d="M-213 1270q0 98 61.5 156.5t161.5 58.5q90 0 147.5 -53.5t57.5 -143.5q0 -97 -61.5 -156t-159.5 -59q-91 0 -149 54t-58 143zM113 1284q0 53 -28 83t-79 30q-57 0 -88 -33t-31 -92q0 -51 29 -81t80 -30q55 0 86 33t31 90z" />
    <glyph glyph-name="uni030B" unicode="&#x30b;" horiz-adv-x="0" 
d="M-221 1135l166 333l108 -57v-10l-196 -309zM70 1135l168 333l106 -57v-10l-194 -309z" />
    <glyph glyph-name="uni030C" unicode="&#x30c;" horiz-adv-x="0" 
d="M-49 1104l-240 295l74 65l217 -235l221 235l70 -65l-242 -287z" />
    <glyph glyph-name="uni031B" unicode="&#x31b;" horiz-adv-x="0" 
d="M0 1157l111 8q45 -67 45 -147q0 -84 -58 -129t-172 -45h-30v106h26q68 0 93.5 21t25.5 63q0 52 -41 123z" />
    <glyph glyph-name="uni0323" unicode="&#x323;" horiz-adv-x="0" 
d="M-96 -299q0 44 28 72t72 28q41 0 65.5 -25t24.5 -65q0 -44 -27 -71t-71 -27q-41 0 -66.5 24t-25.5 64z" />
    <glyph glyph-name="uni0326" unicode="&#x326;" horiz-adv-x="0" 
d="M-39 -147l119 14q10 -62 10 -111q0 -165 -94 -282l-82 47q53 98 53 223q0 50 -6 109z" />
    <glyph glyph-name="uni0327" unicode="&#x327;" horiz-adv-x="0" 
d="M-123 -166l84 203l92 -31l-53 -131q8 2 27 2q82 0 139 -36t57 -113q0 -94 -90 -159t-256 -93l-20 88q233 46 233 155q0 76 -113 76q-17 0 -65 -6z" />
    <glyph glyph-name="uni0328" unicode="&#x328;" horiz-adv-x="0" 
d="M-283 -268q0 97 79.5 180.5t223.5 163.5l52 -68q-114 -69 -166.5 -127.5t-52.5 -122.5q0 -48 29 -77t87 -29q52 0 133 33l33 -97q-98 -49 -201 -49q-97 0 -157 53t-60 140z" />
    <glyph glyph-name="uni0335" unicode="&#x335;" horiz-adv-x="0" 
d="M-295 459h590v-99h-590v99z" />
    <glyph glyph-name="a.sups" unicode="&#x1d43;" horiz-adv-x="667" 
d="M98 1356q120 94 256 94q105 0 152 -54t47 -171v-144q0 -70 12 -225l-94 -14l-25 84q-100 -90 -210 -90q-73 0 -117.5 39t-44.5 108q0 84 78 139q84 54 284 68v8q0 88 -22.5 123t-79.5 35q-83 0 -193 -68zM266 922q81 0 170 73v123q-164 -15 -213 -47q-39 -27 -39 -72
q0 -37 22 -57t60 -20z" />
    <glyph glyph-name="b.sups" unicode="&#x1d47;" horiz-adv-x="731" 
d="M117 1784l116 2v-416q81 84 177 84q116 0 177.5 -85t61.5 -220q0 -64 -18 -119t-53 -99t-94 -69.5t-136 -25.5q-122 0 -231 32v916zM352 928q62 0 107 33q69 51 69 182q0 101 -35.5 159t-103.5 58q-72 0 -156 -74v-344q65 -14 119 -14z" />
    <glyph glyph-name="d.sups" unicode="&#x1d48;" horiz-adv-x="737" 
d="M340 924q67 0 160 82v319q-62 35 -127 35q-69 0 -109 -37q-61 -55 -61 -180q0 -97 36 -158t101 -61zM82 1128q0 84 29.5 156.5t94 121t154.5 48.5q76 0 140 -45v375l116 2v-715q0 -58 13 -215l-94 -12l-23 82q-92 -95 -197 -95q-103 0 -168 83t-65 214z" />
    <glyph glyph-name="e.sups" unicode="&#x1d49;" horiz-adv-x="675" 
d="M82 1133q0 139 77 230t206 91q111 0 170 -68.5t59 -175.5q0 -55 -8 -94h-387q6 -95 54 -141.5t126 -46.5q82 0 174 28l27 -75q-105 -45 -220 -45q-126 0 -202 76.5t-76 220.5zM360 1364q-68 0 -109 -45.5t-50 -128.5h280q2 12 2 39q0 60 -32 97.5t-91 37.5z" />
    <glyph glyph-name="g.sups" unicode="&#x1d4d;" horiz-adv-x="692" 
d="M135 942q0 62 60 113q-56 26 -85.5 72t-29.5 104q0 91 64.5 155t185.5 64q69 0 129 -29q70 67 172 70l2 -90q-60 -3 -115 -25q51 -57 51 -135q0 -91 -65.5 -151t-181.5 -60q-24 0 -56 4q-26 -29 -26 -59q0 -34 30.5 -43.5t102.5 -9.5q250 0 250 -168q0 -103 -90 -163.5
t-228 -60.5q-117 0 -188 46t-70 129q0 103 113 174q-25 22 -25 63zM326 616q75 0 131 29q61 33 61 98q0 52 -45.5 70t-136.5 18q-66 0 -111 13q-75 -53 -75 -119q0 -109 176 -109zM457 1237q0 62 -33.5 96.5t-99.5 34.5q-60 0 -97 -33t-37 -94q0 -60 33.5 -95.5t102.5 -35.5
q59 0 95 33t36 94z" />
    <glyph glyph-name="k.sups" unicode="&#x1d4f;" horiz-adv-x="679" 
d="M508 1436h117q-6 -22 -31 -54l-193 -211l207 -266q26 -33 31 -57h-121l-203 258l-79 -43v-215h-117v936l117 2v-617l69 45z" />
    <glyph glyph-name="m.sups" unicode="&#x1d50;" horiz-adv-x="1095" 
d="M111 1432l92 14l24 -86q97 94 211 94q118 0 156 -100q100 100 215 100q172 0 172 -211v-395h-117v369q0 77 -20 110t-70 33q-69 0 -166 -74q2 -14 2 -43v-395h-116v369q0 76 -20.5 109.5t-70.5 33.5q-68 0 -163 -72v-440h-119v352q0 101 -10 232z" />
    <glyph glyph-name="o.sups" unicode="&#x1d52;" horiz-adv-x="724" 
d="M82 1135q0 82 30 153t97 118.5t160 47.5q127 0 200.5 -86.5t73.5 -218.5q0 -84 -29.5 -154t-96 -117t-159.5 -47q-130 0 -203 85.5t-73 218.5zM524 1139q0 100 -41.5 162.5t-117.5 62.5q-50 0 -93 -31q-69 -54 -69 -188q0 -101 41.5 -162t120.5 -61q60 0 94 34
q65 53 65 183z" />
    <glyph glyph-name="p.sups" unicode="&#x1d56;" horiz-adv-x="737" 
d="M367 924q55 0 98 32q70 54 70 191q0 96 -37 154.5t-105 58.5t-155 -70v-332q64 -34 129 -34zM109 1432l94 14l22 -84q89 92 193 92q107 0 172 -84.5t65 -212.5q0 -86 -30.5 -159t-95 -120t-150.5 -47q-79 0 -141 41v-321h-117v647q0 62 -12 234z" />
    <glyph glyph-name="t.sups" unicode="&#x1d57;" horiz-adv-x="530" 
d="M174 1616h92v-180h185v-88h-185v-297q0 -70 16.5 -95.5t61.5 -25.5q27 0 92 14l23 -80q-73 -28 -150 -28q-81 0 -120 43.5t-39 142.5v326h-93v88h88z" />
    <glyph glyph-name="u.sups" unicode="&#x1d58;" horiz-adv-x="731" 
d="M113 1436h116v-371q0 -73 24 -107t77 -34q70 0 164 84v428h116v-349q0 -61 13 -231l-93 -12l-24 86q-96 -99 -209 -99q-184 0 -184 207v398z" />
    <glyph glyph-name="v.sups" unicode="&#x1d5b;" horiz-adv-x="649" 
d="M494 1436h112q0 -33 -12 -60l-209 -526l-129 -4l-199 530q-12 27 -12 60h117l125 -359q28 -85 35 -114h6z" />
    <glyph glyph-name="i.sinf" unicode="&#x1d62;" horiz-adv-x="354" 
d="M119 485l117 2v-589h-117v587zM102 664q0 34 22.5 54.5t57.5 20.5q34 0 54 -19t20 -50q0 -32 -22.5 -53t-57.5 -21q-33 0 -53.5 19t-20.5 49z" />
    <glyph glyph-name="r.sinf" unicode="&#x1d63;" horiz-adv-x="520" 
d="M106 481l95 15l26 -113q65 117 168 117q53 0 86 -23l-22 -102q-46 8 -68 8q-92 0 -155 -96v-389h-117v362q0 59 -13 221z" />
    <glyph glyph-name="u.sinf" unicode="&#x1d64;" horiz-adv-x="731" 
d="M111 485h116v-370q0 -73 24 -107.5t77 -34.5q70 0 164 84v428h116v-348q0 -61 13 -231l-93 -12l-24 86q-96 -99 -209 -99q-184 0 -184 207v397z" />
    <glyph glyph-name="v.sinf" unicode="&#x1d65;" horiz-adv-x="649" 
d="M494 485h112q0 -32 -12 -59l-209 -526l-129 -4l-199 530q-12 27 -12 59h117l125 -358q26 -81 35 -115h6z" />
    <glyph glyph-name="Wgrave" unicode="&#x1e80;" horiz-adv-x="1830" 
d="M1642 1372h140q-7 -31 -29 -99t-29 -93l-352 -1176l-170 -8l-241 1030l-31 172h-8l-318 -1194l-170 -8l-317 1188q-41 155 -47 188h141l254 -956l53 -244h6l314 1200h180l225 -956l49 -246h6zM647 1673l43 117l414 -170l-31 -94l-424 139z" />
    <glyph glyph-name="wgrave" unicode="&#x1e81;" horiz-adv-x="1515" 
d="M698 948l133 4l195 -657l37 -141h8l244 796h129q0 -36 -17 -82l-292 -866l-146 -4l-194 633l-33 123h-6l-228 -752l-147 -4l-293 870q-16 54 -16 82h135l205 -655l41 -141h8zM541 1382l86 88l301 -311l-66 -67l-321 280v10z" />
    <glyph glyph-name="Wacute" unicode="&#x1e82;" horiz-adv-x="1830" 
d="M1642 1372h140q-7 -31 -29 -99t-29 -93l-352 -1176l-170 -8l-241 1030l-31 172h-8l-318 -1194l-170 -8l-317 1188q-41 155 -47 188h141l254 -956l53 -244h6l314 1200h180l225 -956l49 -246h6zM758 1620l413 170l43 -119v-8l-426 -137z" />
    <glyph glyph-name="wacute" unicode="&#x1e83;" horiz-adv-x="1515" 
d="M698 948l133 4l195 -657l37 -141h8l244 796h129q0 -36 -17 -82l-292 -866l-146 -4l-194 633l-33 123h-6l-228 -752l-147 -4l-293 870q-16 54 -16 82h135l205 -655l41 -141h8zM633 1159l303 311l86 -88v-10l-324 -280z" />
    <glyph glyph-name="Wdieresis" unicode="&#x1e84;" horiz-adv-x="1830" 
d="M1642 1372h140q-7 -31 -29 -99t-29 -93l-352 -1176l-170 -8l-241 1030l-31 172h-8l-318 -1194l-170 -8l-317 1188q-41 155 -47 188h141l254 -956l53 -244h6l314 1200h180l225 -956l49 -246h6zM1022 1634q0 40 27 66t69 26q38 0 62 -22t24 -59q0 -42 -26 -68.5t-68 -26.5
q-39 0 -63.5 22.5t-24.5 61.5zM655 1634q0 40 27 66t70 26q38 0 62 -22t24 -59q0 -42 -26.5 -68.5t-68.5 -26.5q-38 0 -63 22.5t-25 61.5z" />
    <glyph glyph-name="wdieresis" unicode="&#x1e85;" horiz-adv-x="1515" 
d="M698 948l133 4l195 -657l37 -141h8l244 796h129q0 -36 -17 -82l-292 -866l-146 -4l-194 633l-33 123h-6l-228 -752l-147 -4l-293 870q-16 54 -16 82h135l205 -655l41 -141h8zM850 1231q0 40 27 67t69 27q36 0 60 -22.5t24 -61.5q0 -40 -25.5 -67t-66.5 -27
q-39 0 -63.5 22.5t-24.5 61.5zM502 1231q0 40 27 67t69 27q37 0 60.5 -22.5t23.5 -61.5q0 -41 -25 -67.5t-67 -26.5q-39 0 -63.5 22.5t-24.5 61.5z" />
    <glyph glyph-name="uni1E9E" unicode="&#x1e9e;" horiz-adv-x="1296" 
d="M1135 1253v-22l-306 -479q69 -13 130.5 -39t120 -70t93.5 -116.5t35 -164.5q0 -167 -111.5 -276t-283.5 -109q-168 0 -291 72l49 105q100 -58 238 -58q114 0 188 72t74 190q0 62 -21.5 111t-56 81t-85.5 56t-100 36.5t-110 21.5l-12 81l281 453q-137 80 -310 80
q-166 0 -244.5 -95.5t-78.5 -299.5v-883h-135v895q0 256 118 381t342 125q139 -1 266.5 -44t209.5 -104z" />
    <glyph glyph-name="uni1EA2" unicode="&#x1ea2;" horiz-adv-x="1181" 
d="M594 1198l-234 -680h457l-127 379l-90 301h-6zM518 1368l154 8l407 -1218q29 -86 49 -158h-139l-133 401h-537l-137 -401h-139q21 70 51 158zM477 1755l-18 86q54 21 110 21q81 0 130 -38t49 -112q0 -90 -66.5 -137t-177.5 -57l-12 86q68 10 104.5 33t36.5 67
q0 63 -78 63q-37 0 -78 -12z" />
    <glyph glyph-name="uni1EA3" unicode="&#x1ea3;" horiz-adv-x="960" 
d="M129 819q187 154 387 154q148 0 214.5 -87t66.5 -276v-248q0 -127 16 -354l-113 -16l-26 133q-167 -148 -340 -148q-111 0 -176.5 63t-65.5 173q0 142 123 225q118 77 447 107v20q0 159 -38 224t-130 65q-144 0 -312 -121zM358 88q142 -3 304 143v211q-289 -26 -371 -82
q-68 -49 -68 -131q0 -68 36 -104.5t99 -36.5zM371 1348l-21 86q55 20 111 20q84 0 134 -42t50 -118q0 -95 -68.5 -147t-181.5 -62l-12 86q72 13 110.5 39t38.5 76q0 74 -86 74q-34 0 -75 -12z" />
    <glyph glyph-name="uni1EA4" unicode="&#x1ea4;" horiz-adv-x="1181" 
d="M594 1198l-234 -680h457l-127 379l-90 301h-6zM518 1368l154 8l407 -1218q29 -86 49 -158h-139l-133 401h-537l-137 -401h-139q21 70 51 158zM541 1774l98 8l258 -215l-61 -78l-246 178l-244 -176l-59 78zM385 1929l416 172l41 -116v-9l-424 -137z" />
    <glyph glyph-name="uni1EA5" unicode="&#x1ea5;" horiz-adv-x="960" 
d="M129 819q187 154 387 154q148 0 214.5 -87t66.5 -276v-248q0 -127 16 -354l-113 -16l-26 133q-167 -148 -340 -148q-111 0 -176.5 63t-65.5 173q0 142 123 225q118 77 447 107v20q0 159 -38 224t-130 65q-144 0 -312 -121zM358 88q142 -3 304 143v211q-289 -26 -371 -82
q-68 -49 -68 -131q0 -68 36 -104.5t99 -36.5zM430 1425l100 9l242 -291l-74 -66l-217 234l-221 -236l-72 68zM668 1464l235 322l96 -74v-8l-260 -295z" />
    <glyph glyph-name="uni1EA6" unicode="&#x1ea6;" horiz-adv-x="1181" 
d="M594 1198l-234 -680h457l-127 379l-90 301h-6zM518 1368l154 8l407 -1218q29 -86 49 -158h-139l-133 401h-537l-137 -401h-139q21 70 51 158zM541 1774l98 8l258 -215l-61 -78l-246 178l-244 -176l-59 78zM356 1985l41 116l416 -172l-33 -90l-424 137v9z" />
    <glyph glyph-name="uni1EA7" unicode="&#x1ea7;" horiz-adv-x="960" 
d="M129 819q187 154 387 154q148 0 214.5 -87t66.5 -276v-248q0 -127 16 -354l-113 -16l-26 133q-167 -148 -340 -148q-111 0 -176.5 63t-65.5 173q0 142 123 225q118 77 447 107v20q0 159 -38 224t-130 65q-144 0 -312 -121zM358 88q142 -3 304 143v211q-289 -26 -371 -82
q-68 -49 -68 -131q0 -68 36 -104.5t99 -36.5zM430 1425l100 9l242 -291l-74 -66l-217 234l-221 -236l-72 68zM508 1712l94 74l238 -322l-72 -55l-260 295v8z" />
    <glyph glyph-name="uni1EA8" unicode="&#x1ea8;" horiz-adv-x="1181" 
d="M594 1198l-234 -680h457l-127 379l-90 301h-6zM518 1368l154 8l407 -1218q29 -86 49 -158h-139l-133 401h-537l-137 -401h-139q21 70 51 158zM541 1774l98 8l258 -215l-61 -78l-246 178l-244 -176l-59 78zM729 2011l-20 86q58 21 112 21q81 0 129.5 -38t48.5 -112
q0 -90 -66 -137t-177 -57l-15 84q70 12 107 35t37 67q0 63 -78 63q-37 0 -78 -12z" />
    <glyph glyph-name="uni1EA9" unicode="&#x1ea9;" horiz-adv-x="960" 
d="M129 819q187 154 387 154q148 0 214.5 -87t66.5 -276v-248q0 -127 16 -354l-113 -16l-26 133q-167 -148 -340 -148q-111 0 -176.5 63t-65.5 173q0 142 123 225q118 77 447 107v20q0 159 -38 224t-130 65q-144 0 -312 -121zM358 88q142 -3 304 143v211q-289 -26 -371 -82
q-68 -49 -68 -131q0 -68 36 -104.5t99 -36.5zM430 1425l100 9l242 -291l-74 -66l-217 234l-221 -236l-72 68zM639 1679l-21 86q58 21 111 21q84 0 134 -42t50 -118q0 -95 -68 -146.5t-181 -62.5l-13 86q73 14 111.5 39.5t38.5 75.5q0 74 -86 74q-32 0 -76 -13z" />
    <glyph glyph-name="uni1EAA" unicode="&#x1eaa;" horiz-adv-x="1181" 
d="M594 1198l-234 -680h457l-127 379l-90 301h-6zM518 1368l154 8l407 -1218q29 -86 49 -158h-139l-133 401h-537l-137 -401h-139q21 70 51 158zM719 1964q67 0 129 131l86 -43q-85 -194 -219 -194q-40 0 -75.5 20.5t-57 45t-48.5 45t-53 20.5q-60 0 -133 -129l-82 45
q88 188 221 188q33 0 62 -13.5t49.5 -32t39 -37.5t39.5 -32.5t42 -13.5zM541 1774l98 8l258 -215l-61 -78l-246 178l-244 -176l-59 78z" />
    <glyph glyph-name="uni1EAB" unicode="&#x1eab;" horiz-adv-x="960" 
d="M129 819q187 154 387 154q148 0 214.5 -87t66.5 -276v-248q0 -127 16 -354l-113 -16l-26 133q-167 -148 -340 -148q-111 0 -176.5 63t-65.5 173q0 142 123 225q118 77 447 107v20q0 159 -38 224t-130 65q-144 0 -312 -121zM358 88q142 -3 304 143v211q-289 -26 -371 -82
q-68 -49 -68 -131q0 -68 36 -104.5t99 -36.5zM430 1421l100 9l242 -291l-74 -66l-217 234l-221 -236l-72 68zM627 1640q59 0 125 138l84 -39q-38 -97 -92.5 -152t-118.5 -55q-41 0 -77 21.5t-57.5 47t-49.5 47t-54 21.5q-34 0 -63.5 -34.5t-65.5 -100.5l-82 43
q83 201 213 201q39 0 75 -21.5t58 -47.5t50.5 -47.5t54.5 -21.5z" />
    <glyph glyph-name="uni1EAC" unicode="&#x1eac;" horiz-adv-x="1181" 
d="M594 1198l-234 -680h457l-127 379l-90 301h-6zM518 1368l154 8l407 -1218q29 -86 49 -158h-139l-133 401h-537l-137 -401h-139q21 70 51 158zM496 -299q0 44 28 72t72 28q41 0 65.5 -25t24.5 -65q0 -44 -27 -71t-71 -27q-41 0 -66.5 24t-25.5 64zM541 1798l98 8l258 -219
l-61 -78l-246 183l-244 -181l-59 78z" />
    <glyph glyph-name="uni1EAD" unicode="&#x1ead;" horiz-adv-x="960" 
d="M129 819q187 154 387 154q148 0 214.5 -87t66.5 -276v-248q0 -127 16 -354l-113 -16l-26 133q-167 -148 -340 -148q-111 0 -176.5 63t-65.5 173q0 142 123 225q118 77 447 107v20q0 159 -38 224t-130 65q-144 0 -312 -121zM358 88q142 -3 304 143v211q-289 -26 -371 -82
q-68 -49 -68 -131q0 -68 36 -104.5t99 -36.5zM369 -299q0 44 28 72t72 28q41 0 65.5 -25t24.5 -65q0 -44 -27 -71t-71 -27q-41 0 -66.5 24t-25.5 64zM430 1446l100 8l242 -295l-74 -65l-217 235l-221 -237l-72 67z" />
    <glyph glyph-name="uni1EAE" unicode="&#x1eae;" horiz-adv-x="1181" 
d="M594 1198l-234 -680h457l-127 379l-90 301h-6zM518 1368l154 8l407 -1218q29 -86 49 -158h-139l-133 401h-537l-137 -401h-139q21 70 51 158zM868 1737q-31 -109 -104.5 -165t-173.5 -56q-212 0 -273 219l86 39q30 -76 76.5 -110t112.5 -34q136 0 190 142zM399 1929
l416 172l43 -116v-9l-426 -137z" />
    <glyph glyph-name="uni1EAF" unicode="&#x1eaf;" horiz-adv-x="960" 
d="M129 819q187 154 387 154q148 0 214.5 -87t66.5 -276v-248q0 -127 16 -354l-113 -16l-26 133q-167 -148 -340 -148q-111 0 -176.5 63t-65.5 173q0 142 123 225q118 77 447 107v20q0 159 -38 224t-130 65q-144 0 -312 -121zM358 88q142 -3 304 143v211q-289 -26 -371 -82
q-68 -49 -68 -131q0 -68 36 -104.5t99 -36.5zM485 1214q156 0 183 187l92 -12q-13 -142 -87.5 -215.5t-193.5 -71.5q-120 0 -186.5 71t-83.5 216l96 12q27 -187 180 -187zM401 1481l238 323l94 -73v-9l-258 -295z" />
    <glyph glyph-name="uni1EB0" unicode="&#x1eb0;" horiz-adv-x="1181" 
d="M594 1198l-234 -680h457l-127 379l-90 301h-6zM518 1368l154 8l407 -1218q29 -86 49 -158h-139l-133 401h-537l-137 -401h-139q21 70 51 158zM868 1737q-31 -109 -104.5 -165t-173.5 -56q-212 0 -273 219l86 39q30 -76 76.5 -110t112.5 -34q136 0 190 142zM315 1985
l43 116l416 -172l-33 -90l-426 137v9z" />
    <glyph glyph-name="uni1EB1" unicode="&#x1eb1;" horiz-adv-x="960" 
d="M129 819q187 154 387 154q148 0 214.5 -87t66.5 -276v-248q0 -127 16 -354l-113 -16l-26 133q-167 -148 -340 -148q-111 0 -176.5 63t-65.5 173q0 142 123 225q118 77 447 107v20q0 159 -38 224t-130 65q-144 0 -312 -121zM358 88q142 -3 304 143v211q-289 -26 -371 -82
q-68 -49 -68 -131q0 -68 36 -104.5t99 -36.5zM485 1214q156 0 183 187l92 -12q-13 -142 -87.5 -215.5t-193.5 -71.5q-120 0 -186.5 71t-83.5 216l96 12q27 -187 180 -187zM246 1731l94 73l238 -321l-74 -56l-258 295v9z" />
    <glyph glyph-name="uni1EB2" unicode="&#x1eb2;" horiz-adv-x="1181" 
d="M594 1198l-234 -680h457l-127 379l-90 301h-6zM518 1368l154 8l407 -1218q29 -86 49 -158h-139l-133 401h-537l-137 -401h-139q21 70 51 158zM868 1737q-31 -109 -104.5 -165t-173.5 -56q-212 0 -273 219l86 39q30 -76 76.5 -110t112.5 -34q136 0 190 142zM485 2023
l-18 88q54 21 111 21q81 0 129.5 -38t48.5 -112q0 -173 -244 -194l-12 84q68 12 104.5 35t36.5 67q0 64 -78 64q-27 0 -78 -15z" />
    <glyph glyph-name="uni1EB3" unicode="&#x1eb3;" horiz-adv-x="960" 
d="M129 819q187 154 387 154q148 0 214.5 -87t66.5 -276v-248q0 -127 16 -354l-113 -16l-26 133q-167 -148 -340 -148q-111 0 -176.5 63t-65.5 173q0 142 123 225q118 77 447 107v20q0 159 -38 224t-130 65q-144 0 -312 -121zM358 88q142 -3 304 143v211q-289 -26 -371 -82
q-68 -49 -68 -131q0 -68 36 -104.5t99 -36.5zM485 1214q156 0 183 187l92 -12q-13 -142 -87.5 -215.5t-193.5 -71.5q-120 0 -186.5 71t-83.5 216l96 12q27 -187 180 -187zM379 1694l-19 86q52 20 109 20q84 0 135 -42t51 -118q0 -95 -68 -146.5t-181 -61.5l-13 86
q72 13 110 38.5t38 75.5q0 74 -84 74q-37 0 -78 -12z" />
    <glyph glyph-name="uni1EB4" unicode="&#x1eb4;" horiz-adv-x="1181" 
d="M594 1198l-234 -680h457l-127 379l-90 301h-6zM518 1368l154 8l407 -1218q29 -86 49 -158h-139l-133 401h-537l-137 -401h-139q21 70 51 158zM868 1737q-31 -109 -104.5 -165t-173.5 -56q-212 0 -273 219l86 39q30 -76 76.5 -110t112.5 -34q136 0 190 142zM711 1964
q67 0 129 131l86 -43q-85 -194 -219 -194q-40 0 -75.5 20t-57 44.5t-48.5 44.5t-53 20q-63 0 -131 -127l-84 45q88 188 221 188q33 0 62 -13.5t49.5 -32t39 -37.5t39.5 -32.5t42 -13.5z" />
    <glyph glyph-name="uni1EB5" unicode="&#x1eb5;" horiz-adv-x="960" 
d="M129 819q187 154 387 154q148 0 214.5 -87t66.5 -276v-248q0 -127 16 -354l-113 -16l-26 133q-167 -148 -340 -148q-111 0 -176.5 63t-65.5 173q0 142 123 225q118 77 447 107v20q0 159 -38 224t-130 65q-144 0 -312 -121zM358 88q142 -3 304 143v211q-289 -26 -371 -82
q-68 -49 -68 -131q0 -68 36 -104.5t99 -36.5zM485 1214q156 0 183 187l92 -12q-13 -142 -87.5 -215.5t-193.5 -71.5q-120 0 -186.5 71t-83.5 216l96 12q27 -187 180 -187zM621 1640q58 0 124 138l84 -39q-38 -97 -92.5 -152t-118.5 -55q-41 0 -77 21.5t-57 47t-49 47
t-54 21.5q-34 0 -63.5 -34.5t-65.5 -100.5l-82 43q86 201 213 201q33 0 62 -14t50.5 -34.5t41 -41t41 -34.5t43.5 -14z" />
    <glyph glyph-name="uni1EB6" unicode="&#x1eb6;" horiz-adv-x="1181" 
d="M594 1198l-234 -680h457l-127 379l-90 301h-6zM518 1368l154 8l407 -1218q29 -86 49 -158h-139l-133 401h-537l-137 -401h-139q21 70 51 158zM496 -299q0 44 28 72t72 28q41 0 65.5 -25t24.5 -65q0 -44 -27 -71t-71 -27q-41 0 -66.5 24t-25.5 64zM868 1755
q-32 -110 -105.5 -167.5t-172.5 -57.5q-100 0 -171 55.5t-102 167.5l86 39q57 -145 189 -145q136 0 190 145z" />
    <glyph glyph-name="uni1EB7" unicode="&#x1eb7;" horiz-adv-x="960" 
d="M129 819q187 154 387 154q148 0 214.5 -87t66.5 -276v-248q0 -127 16 -354l-113 -16l-26 133q-167 -148 -340 -148q-111 0 -176.5 63t-65.5 173q0 142 123 225q118 77 447 107v20q0 159 -38 224t-130 65q-144 0 -312 -121zM358 88q142 -3 304 143v211q-289 -26 -371 -82
q-68 -49 -68 -131q0 -68 36 -104.5t99 -36.5zM369 -299q0 44 28 72t72 28q41 0 65.5 -25t24.5 -65q0 -44 -27 -71t-71 -27q-41 0 -66.5 24t-25.5 64zM485 1223q71 0 120 45.5t63 142.5l92 -12q-13 -143 -87 -217t-194 -74q-236 0 -270 291l96 12q27 -188 180 -188z" />
    <glyph glyph-name="uni1EBA" unicode="&#x1eba;" horiz-adv-x="1079" 
d="M199 1372h766l-4 -121h-625v-489h508v-121h-508v-520h629l4 -121h-770v1372zM471 1755l-18 86q54 21 110 21q81 0 129.5 -38t48.5 -112q0 -90 -66 -137t-177 -57l-13 86q68 10 105 33t37 67q0 63 -78 63q-37 0 -78 -12z" />
    <glyph glyph-name="uni1EBB" unicode="&#x1ebb;" horiz-adv-x="987" 
d="M113 461q0 145 51 261.5t148 185.5t223 69q164 0 251.5 -106.5t87.5 -272.5q0 -66 -14 -152h-610q6 -174 85 -262t210 -88q136 0 270 54l37 -97q-165 -76 -332 -76q-178 0 -292.5 126.5t-114.5 357.5zM526 862q-117 0 -187.5 -83t-84.5 -232h481q4 46 4 74q0 107 -56 174
t-157 67zM403 1348l-20 86q55 20 111 20q84 0 134 -42t50 -118q0 -95 -68.5 -147t-181.5 -62l-12 86q72 13 110.5 39t38.5 76q0 74 -86 74q-36 0 -76 -12z" />
    <glyph glyph-name="uni1EBC" unicode="&#x1ebc;" horiz-adv-x="1079" 
d="M199 1372h766l-4 -121h-625v-489h508v-121h-508v-520h629l4 -121h-770v1372zM702 1630q63 0 134 142l84 -43q-88 -211 -220 -211q-33 0 -62 14.5t-49.5 35t-39 40.5t-39 34.5t-41.5 14.5q-58 0 -133 -137l-84 45q90 204 223 204q32 0 60.5 -14.5t48.5 -35t38.5 -40.5
t38.5 -34.5t41 -14.5z" />
    <glyph glyph-name="uni1EBD" unicode="&#x1ebd;" horiz-adv-x="987" 
d="M113 461q0 145 51 261.5t148 185.5t223 69q164 0 251.5 -106.5t87.5 -272.5q0 -66 -14 -152h-610q6 -174 85 -262t210 -88q136 0 270 54l37 -97q-165 -76 -332 -76q-178 0 -292.5 126.5t-114.5 357.5zM526 862q-117 0 -187.5 -83t-84.5 -232h481q4 46 4 74q0 107 -56 174
t-157 67zM631 1225q65 0 129 137l84 -41q-37 -99 -93 -154t-120 -55q-41 0 -77 21.5t-57 47t-48 47t-52 21.5q-32 0 -62.5 -35t-68.5 -102l-82 43q39 98 95 152.5t122 54.5q40 0 75 -21.5t56 -47t47.5 -47t51.5 -21.5z" />
    <glyph glyph-name="uni1EBE" unicode="&#x1ebe;" horiz-adv-x="1079" 
d="M199 1372h766l-4 -121h-625v-489h508v-121h-508v-520h629l4 -121h-770v1372zM535 1774l98 8l258 -215l-62 -78l-245 178l-244 -176l-59 78zM379 1929l416 172l41 -116v-9l-424 -137z" />
    <glyph glyph-name="uni1EBF" unicode="&#x1ebf;" horiz-adv-x="987" 
d="M113 461q0 145 51 261.5t148 185.5t223 69q164 0 251.5 -106.5t87.5 -272.5q0 -66 -14 -152h-610q6 -174 85 -262t210 -88q136 0 270 54l37 -97q-165 -76 -332 -76q-178 0 -292.5 126.5t-114.5 357.5zM526 862q-117 0 -187.5 -83t-84.5 -232h481q4 46 4 74q0 107 -56 174
t-157 67zM463 1425l100 9l242 -291l-74 -66l-217 234l-221 -236l-72 68zM700 1464l236 322l96 -74v-8l-260 -295z" />
    <glyph glyph-name="uni1EC0" unicode="&#x1ec0;" horiz-adv-x="1079" 
d="M199 1372h766l-4 -121h-625v-489h508v-121h-508v-520h629l4 -121h-770v1372zM535 1774l98 8l258 -215l-62 -78l-245 178l-244 -176l-59 78zM350 1985l41 116l416 -172l-33 -90l-424 137v9z" />
    <glyph glyph-name="uni1EC1" unicode="&#x1ec1;" horiz-adv-x="987" 
d="M113 461q0 145 51 261.5t148 185.5t223 69q164 0 251.5 -106.5t87.5 -272.5q0 -66 -14 -152h-610q6 -174 85 -262t210 -88q136 0 270 54l37 -97q-165 -76 -332 -76q-178 0 -292.5 126.5t-114.5 357.5zM526 862q-117 0 -187.5 -83t-84.5 -232h481q4 46 4 74q0 107 -56 174
t-157 67zM463 1425l100 9l242 -291l-74 -66l-217 234l-221 -236l-72 68zM541 1712l94 74l237 -322l-71 -55l-260 295v8z" />
    <glyph glyph-name="uni1EC2" unicode="&#x1ec2;" horiz-adv-x="1079" 
d="M199 1372h766l-4 -121h-625v-489h508v-121h-508v-520h629l4 -121h-770v1372zM535 1774l98 8l258 -215l-62 -78l-245 178l-244 -176l-59 78zM723 2011l-21 86q58 21 113 21q81 0 129.5 -38t48.5 -112q0 -90 -66 -137t-177 -57l-15 84q70 12 107 35t37 67q0 63 -78 63
q-37 0 -78 -12z" />
    <glyph glyph-name="uni1EC3" unicode="&#x1ec3;" horiz-adv-x="987" 
d="M113 461q0 145 51 261.5t148 185.5t223 69q164 0 251.5 -106.5t87.5 -272.5q0 -66 -14 -152h-610q6 -174 85 -262t210 -88q136 0 270 54l37 -97q-165 -76 -332 -76q-178 0 -292.5 126.5t-114.5 357.5zM526 862q-117 0 -187.5 -83t-84.5 -232h481q4 46 4 74q0 107 -56 174
t-157 67zM463 1425l100 9l242 -291l-74 -66l-217 234l-221 -236l-72 68zM672 1679l-21 86q58 21 111 21q84 0 134 -42t50 -118q0 -95 -68.5 -146.5t-181.5 -62.5l-12 86q73 14 111.5 39.5t38.5 75.5q0 74 -86 74q-32 0 -76 -13z" />
    <glyph glyph-name="uni1EC4" unicode="&#x1ec4;" horiz-adv-x="1079" 
d="M199 1372h766l-4 -121h-625v-489h508v-121h-508v-520h629l4 -121h-770v1372zM713 1964q67 0 129 131l86 -43q-85 -194 -219 -194q-40 0 -75.5 20.5t-57 45t-48.5 45t-53 20.5q-60 0 -133 -129l-82 45q88 188 221 188q33 0 62 -13.5t49.5 -32t39 -37.5t39.5 -32.5
t42 -13.5zM535 1774l98 8l258 -215l-62 -78l-245 178l-244 -176l-59 78z" />
    <glyph glyph-name="uni1EC5" unicode="&#x1ec5;" horiz-adv-x="987" 
d="M113 461q0 145 51 261.5t148 185.5t223 69q164 0 251.5 -106.5t87.5 -272.5q0 -66 -14 -152h-610q6 -174 85 -262t210 -88q136 0 270 54l37 -97q-165 -76 -332 -76q-178 0 -292.5 126.5t-114.5 357.5zM526 862q-117 0 -187.5 -83t-84.5 -232h481q4 46 4 74q0 107 -56 174
t-157 67zM463 1421l100 9l242 -291l-74 -66l-217 234l-221 -236l-72 68zM659 1640q59 0 125 138l84 -39q-38 -97 -92.5 -152t-118.5 -55q-41 0 -77 21.5t-57 47t-49 47t-54 21.5q-34 0 -63.5 -34.5t-65.5 -100.5l-82 43q83 201 213 201q32 0 61 -14t50.5 -34.5t41 -41
t41 -34.5t43.5 -14z" />
    <glyph glyph-name="uni1EC6" unicode="&#x1ec6;" horiz-adv-x="1079" 
d="M199 1372h766l-4 -121h-625v-489h508v-121h-508v-520h629l4 -121h-770v1372zM494 -299q0 44 28 72t72 28q41 0 65.5 -25t24.5 -65q0 -44 -27 -71t-71 -27q-41 0 -66.5 24t-25.5 64zM535 1798l98 8l258 -219l-62 -78l-245 183l-244 -181l-59 78z" />
    <glyph glyph-name="uni1EC7" unicode="&#x1ec7;" horiz-adv-x="987" 
d="M113 461q0 145 51 261.5t148 185.5t223 69q164 0 251.5 -106.5t87.5 -272.5q0 -66 -14 -152h-610q6 -174 85 -262t210 -88q136 0 270 54l37 -97q-165 -76 -332 -76q-178 0 -292.5 126.5t-114.5 357.5zM526 862q-117 0 -187.5 -83t-84.5 -232h481q4 46 4 74q0 107 -56 174
t-157 67zM420 -299q0 44 28 72t72 28q41 0 65.5 -25t24.5 -65q0 -44 -27 -71t-71 -27q-41 0 -66.5 24t-25.5 64zM463 1446l100 8l242 -295l-74 -65l-217 235l-221 -237l-72 67z" />
    <glyph glyph-name="uni1EC8" unicode="&#x1ec8;" horiz-adv-x="532" 
d="M199 1372h137v-1372h-137v1372zM152 1755l-19 86q54 21 111 21q81 0 129.5 -38t48.5 -112q0 -90 -66.5 -137t-177.5 -57l-12 86q68 10 104.5 33t36.5 67q0 63 -78 63q-36 0 -77 -12z" />
    <glyph glyph-name="uni1EC9" unicode="&#x1ec9;" horiz-adv-x="473" 
d="M170 948l133 4v-952h-133v948zM127 1348l-21 86q55 20 111 20q84 0 134 -42t50 -118q0 -95 -68 -147t-181 -62l-13 86q73 14 111.5 39.5t38.5 75.5q0 74 -86 74q-35 0 -76 -12z" />
    <glyph glyph-name="uni1ECE" unicode="&#x1ece;" horiz-adv-x="1394" 
d="M119 668q0 108 21 211.5t67 198.5t112.5 166.5t164.5 114t216 42.5q134 0 244 -55t182 -149.5t111 -221t39 -270.5q0 -108 -21 -211.5t-67.5 -199t-113 -167t-164 -114t-214.5 -42.5q-135 0 -245.5 55t-182 150t-110.5 221.5t-39 270.5zM1130 686q0 166 -49 298t-149 212
t-236 80q-140 0 -237 -82q-100 -82 -147.5 -219.5t-47.5 -288.5q0 -166 49.5 -298.5t149.5 -212t235 -79.5q140 0 240 82t146 219t46 289zM582 1755l-19 86q54 21 111 21q81 0 129.5 -38t48.5 -112q0 -90 -66.5 -137t-177.5 -57l-12 86q68 10 104.5 33t36.5 67q0 63 -78 63
q-37 0 -77 -12z" />
    <glyph glyph-name="uni1ECF" unicode="&#x1ecf;" horiz-adv-x="1056" 
d="M113 463q0 94 26.5 184t77 165t134 121t188.5 46q187 0 296 -137.5t109 -354.5q0 -76 -15.5 -149t-49.5 -140t-82.5 -117t-120 -80t-156.5 -30q-187 0 -297 137t-110 355zM807 469q0 175 -73.5 283t-207.5 108q-108 0 -176 -65q-47 -48 -73.5 -130t-26.5 -184
q0 -176 73.5 -284.5t208.5 -108.5q110 0 177 70q98 103 98 311zM420 1348l-21 86q55 20 111 20q84 0 134 -42t50 -118q0 -95 -68.5 -147t-181.5 -62l-12 86q73 14 111.5 39.5t38.5 75.5q0 74 -86 74q-35 0 -76 -12z" />
    <glyph glyph-name="uni1ED0" unicode="&#x1ed0;" horiz-adv-x="1394" 
d="M119 668q0 108 21 211.5t67 198.5t112.5 166.5t164.5 114t216 42.5q134 0 244 -55t182 -149.5t111 -221t39 -270.5q0 -108 -21 -211.5t-67.5 -199t-113 -167t-164 -114t-214.5 -42.5q-135 0 -245.5 55t-182 150t-110.5 221.5t-39 270.5zM1130 686q0 166 -49 298t-149 212
t-236 80q-140 0 -237 -82q-100 -82 -147.5 -219.5t-47.5 -288.5q0 -166 49.5 -298.5t149.5 -212t235 -79.5q140 0 240 82t146 219t46 289zM645 1774l98 8l258 -215l-61 -78l-246 178l-243 -176l-60 78zM489 1929l416 172l41 -116v-9l-424 -137z" />
    <glyph glyph-name="uni1ED1" unicode="&#x1ed1;" horiz-adv-x="1056" 
d="M113 463q0 94 26.5 184t77 165t134 121t188.5 46q187 0 296 -137.5t109 -354.5q0 -76 -15.5 -149t-49.5 -140t-82.5 -117t-120 -80t-156.5 -30q-187 0 -297 137t-110 355zM807 469q0 175 -73.5 283t-207.5 108q-108 0 -176 -65q-47 -48 -73.5 -130t-26.5 -184
q0 -176 73.5 -284.5t208.5 -108.5q110 0 177 70q98 103 98 311zM479 1425l101 9l241 -291l-73 -66l-218 234l-221 -236l-71 68zM717 1464l235 322l97 -74v-8l-261 -295z" />
    <glyph glyph-name="uni1ED2" unicode="&#x1ed2;" horiz-adv-x="1394" 
d="M119 668q0 108 21 211.5t67 198.5t112.5 166.5t164.5 114t216 42.5q134 0 244 -55t182 -149.5t111 -221t39 -270.5q0 -108 -21 -211.5t-67.5 -199t-113 -167t-164 -114t-214.5 -42.5q-135 0 -245.5 55t-182 150t-110.5 221.5t-39 270.5zM1130 686q0 166 -49 298t-149 212
t-236 80q-140 0 -237 -82q-100 -82 -147.5 -219.5t-47.5 -288.5q0 -166 49.5 -298.5t149.5 -212t235 -79.5q140 0 240 82t146 219t46 289zM645 1774l98 8l258 -215l-61 -78l-246 178l-243 -176l-60 78zM461 1985l41 116l416 -172l-33 -90l-424 137v9z" />
    <glyph glyph-name="uni1ED3" unicode="&#x1ed3;" horiz-adv-x="1056" 
d="M113 463q0 94 26.5 184t77 165t134 121t188.5 46q187 0 296 -137.5t109 -354.5q0 -76 -15.5 -149t-49.5 -140t-82.5 -117t-120 -80t-156.5 -30q-187 0 -297 137t-110 355zM807 469q0 175 -73.5 283t-207.5 108q-108 0 -176 -65q-47 -48 -73.5 -130t-26.5 -184
q0 -176 73.5 -284.5t208.5 -108.5q110 0 177 70q98 103 98 311zM479 1425l101 9l241 -291l-73 -66l-218 234l-221 -236l-71 68zM557 1712l94 74l238 -322l-72 -55l-260 295v8z" />
    <glyph glyph-name="uni1ED4" unicode="&#x1ed4;" horiz-adv-x="1394" 
d="M119 668q0 108 21 211.5t67 198.5t112.5 166.5t164.5 114t216 42.5q134 0 244 -55t182 -149.5t111 -221t39 -270.5q0 -108 -21 -211.5t-67.5 -199t-113 -167t-164 -114t-214.5 -42.5q-135 0 -245.5 55t-182 150t-110.5 221.5t-39 270.5zM1130 686q0 166 -49 298t-149 212
t-236 80q-140 0 -237 -82q-100 -82 -147.5 -219.5t-47.5 -288.5q0 -166 49.5 -298.5t149.5 -212t235 -79.5q140 0 240 82t146 219t46 289zM645 1774l98 8l258 -215l-61 -78l-246 178l-243 -176l-60 78zM834 2011l-21 86q58 21 113 21q81 0 129.5 -38t48.5 -112
q0 -90 -66.5 -137t-177.5 -57l-14 84q70 12 106.5 35t36.5 67q0 63 -78 63q-37 0 -77 -12z" />
    <glyph glyph-name="uni1ED5" unicode="&#x1ed5;" horiz-adv-x="1056" 
d="M113 463q0 94 26.5 184t77 165t134 121t188.5 46q187 0 296 -137.5t109 -354.5q0 -76 -15.5 -149t-49.5 -140t-82.5 -117t-120 -80t-156.5 -30q-187 0 -297 137t-110 355zM807 469q0 175 -73.5 283t-207.5 108q-108 0 -176 -65q-47 -48 -73.5 -130t-26.5 -184
q0 -176 73.5 -284.5t208.5 -108.5q110 0 177 70q98 103 98 311zM479 1425l101 9l241 -291l-73 -66l-218 234l-221 -236l-71 68zM688 1679l-20 86q58 21 110 21q84 0 134.5 -42t50.5 -118q0 -95 -68.5 -146.5t-181.5 -62.5l-13 86q73 14 111.5 39.5t38.5 75.5q0 74 -86 74
q-32 0 -76 -13z" />
    <glyph glyph-name="uni1ED6" unicode="&#x1ed6;" horiz-adv-x="1394" 
d="M119 668q0 108 21 211.5t67 198.5t112.5 166.5t164.5 114t216 42.5q134 0 244 -55t182 -149.5t111 -221t39 -270.5q0 -108 -21 -211.5t-67.5 -199t-113 -167t-164 -114t-214.5 -42.5q-135 0 -245.5 55t-182 150t-110.5 221.5t-39 270.5zM1130 686q0 166 -49 298t-149 212
t-236 80q-140 0 -237 -82q-100 -82 -147.5 -219.5t-47.5 -288.5q0 -166 49.5 -298.5t149.5 -212t235 -79.5q140 0 240 82t146 219t46 289zM823 1964q67 0 129 131l86 -43q-85 -194 -219 -194q-40 0 -75.5 20.5t-56.5 45t-48 45t-53 20.5q-60 0 -133 -129l-82 45
q88 188 221 188q40 0 75 -20t56 -44.5t47.5 -44.5t52.5 -20zM645 1774l98 8l258 -215l-61 -78l-246 178l-243 -176l-60 78z" />
    <glyph glyph-name="uni1ED7" unicode="&#x1ed7;" horiz-adv-x="1056" 
d="M113 463q0 94 26.5 184t77 165t134 121t188.5 46q187 0 296 -137.5t109 -354.5q0 -76 -15.5 -149t-49.5 -140t-82.5 -117t-120 -80t-156.5 -30q-187 0 -297 137t-110 355zM807 469q0 175 -73.5 283t-207.5 108q-108 0 -176 -65q-47 -48 -73.5 -130t-26.5 -184
q0 -176 73.5 -284.5t208.5 -108.5q110 0 177 70q98 103 98 311zM479 1421l101 9l241 -291l-73 -66l-218 234l-221 -236l-71 68zM676 1640q59 0 125 138l84 -39q-38 -97 -92.5 -152t-118.5 -55q-41 0 -77 21.5t-57.5 47t-49.5 47t-54 21.5q-34 0 -63.5 -34.5t-65.5 -100.5
l-82 43q83 201 213 201q39 0 75 -21.5t58 -47.5t50.5 -47.5t54.5 -21.5z" />
    <glyph glyph-name="uni1ED8" unicode="&#x1ed8;" horiz-adv-x="1394" 
d="M119 668q0 108 21 211.5t67 198.5t112.5 166.5t164.5 114t216 42.5q134 0 244 -55t182 -149.5t111 -221t39 -270.5q0 -108 -21 -211.5t-67.5 -199t-113 -167t-164 -114t-214.5 -42.5q-135 0 -245.5 55t-182 150t-110.5 221.5t-39 270.5zM1130 686q0 166 -49 298t-149 212
t-236 80q-140 0 -237 -82q-100 -82 -147.5 -219.5t-47.5 -288.5q0 -166 49.5 -298.5t149.5 -212t235 -79.5q140 0 240 82t146 219t46 289zM602 -299q0 44 28 72t72 28q41 0 66 -25t25 -65q0 -44 -27.5 -71t-71.5 -27q-41 0 -66.5 24t-25.5 64zM645 1798l98 8l258 -219
l-61 -78l-246 183l-243 -181l-60 78z" />
    <glyph glyph-name="uni1ED9" unicode="&#x1ed9;" horiz-adv-x="1056" 
d="M113 463q0 94 26.5 184t77 165t134 121t188.5 46q187 0 296 -137.5t109 -354.5q0 -76 -15.5 -149t-49.5 -140t-82.5 -117t-120 -80t-156.5 -30q-187 0 -297 137t-110 355zM807 469q0 175 -73.5 283t-207.5 108q-108 0 -176 -65q-47 -48 -73.5 -130t-26.5 -184
q0 -176 73.5 -284.5t208.5 -108.5q110 0 177 70q98 103 98 311zM432 -299q0 44 28 72t72 28q41 0 66 -25t25 -65q0 -44 -27.5 -71t-71.5 -27q-41 0 -66.5 24t-25.5 64zM479 1446l101 8l241 -295l-73 -65l-218 235l-221 -237l-71 67z" />
    <glyph glyph-name="uni1EDA" unicode="&#x1eda;" horiz-adv-x="1394" 
d="M119 668q0 108 21 211.5t67 198.5t112.5 166.5t164.5 114t216 42.5q102 0 187 -31q70 -18 121 -18q110 0 110 92q0 49 -39 125l121 8q45 -72 45 -150q0 -77 -40 -125t-118 -63q92 -95 140.5 -233.5t48.5 -300.5q0 -108 -21 -211.5t-67.5 -199t-113 -167t-164 -114
t-214.5 -42.5q-135 0 -245.5 55t-182 150t-110.5 221.5t-39 270.5zM1130 686q0 166 -49 298t-149 212t-236 80q-140 0 -237 -82q-100 -82 -147.5 -219.5t-47.5 -288.5q0 -166 49.5 -298.5t149.5 -212t235 -79.5q140 0 240 82t146 219t46 289zM524 1620l414 170l43 -119v-8
l-426 -137z" />
    <glyph glyph-name="uni1EDB" unicode="&#x1edb;" horiz-adv-x="1060" 
d="M113 463q0 94 26.5 184t77 165t134 121t188.5 46q91 0 166 -35q47 -14 71 -14q54 0 76 21.5t22 62.5q0 54 -40 123l110 8q45 -67 45 -148q0 -67 -37 -110t-108 -56q100 -133 100 -344q0 -76 -15.5 -149t-49.5 -140t-82.5 -117t-120 -80t-156.5 -30q-187 0 -297 137
t-110 355zM807 469q0 175 -73.5 283t-207.5 108q-108 0 -176 -65q-47 -48 -73.5 -130t-26.5 -184q0 -176 73.5 -284.5t208.5 -108.5q110 0 177 70q98 103 98 311zM399 1159l303 311l86 -88v-10l-323 -280z" />
    <glyph glyph-name="uni1EDC" unicode="&#x1edc;" horiz-adv-x="1394" 
d="M119 668q0 108 21 211.5t67 198.5t112.5 166.5t164.5 114t216 42.5q102 0 187 -31q70 -18 121 -18q110 0 110 92q0 49 -39 125l121 8q45 -72 45 -150q0 -77 -40 -125t-118 -63q92 -95 140.5 -233.5t48.5 -300.5q0 -108 -21 -211.5t-67.5 -199t-113 -167t-164 -114
t-214.5 -42.5q-135 0 -245.5 55t-182 150t-110.5 221.5t-39 270.5zM1130 686q0 166 -49 298t-149 212t-236 80q-140 0 -237 -82q-100 -82 -147.5 -219.5t-47.5 -288.5q0 -166 49.5 -298.5t149.5 -212t235 -79.5q140 0 240 82t146 219t46 289zM414 1673l43 117l413 -170
l-30 -94l-424 139z" />
    <glyph glyph-name="uni1EDD" unicode="&#x1edd;" horiz-adv-x="1060" 
d="M113 463q0 94 26.5 184t77 165t134 121t188.5 46q91 0 166 -35q47 -14 71 -14q54 0 76 21.5t22 62.5q0 54 -40 123l110 8q45 -67 45 -148q0 -67 -37 -110t-108 -56q100 -133 100 -344q0 -76 -15.5 -149t-49.5 -140t-82.5 -117t-120 -80t-156.5 -30q-187 0 -297 137
t-110 355zM807 469q0 175 -73.5 283t-207.5 108q-108 0 -176 -65q-47 -48 -73.5 -130t-26.5 -184q0 -176 73.5 -284.5t208.5 -108.5q110 0 177 70q98 103 98 311zM307 1382l86 88l301 -311l-65 -67l-322 280v10z" />
    <glyph glyph-name="uni1EDE" unicode="&#x1ede;" horiz-adv-x="1394" 
d="M119 668q0 108 21 211.5t67 198.5t112.5 166.5t164.5 114t216 42.5q102 0 187 -31q70 -18 121 -18q110 0 110 92q0 49 -39 125l121 8q45 -72 45 -150q0 -77 -40 -125t-118 -63q92 -95 140.5 -233.5t48.5 -300.5q0 -108 -21 -211.5t-67.5 -199t-113 -167t-164 -114
t-214.5 -42.5q-135 0 -245.5 55t-182 150t-110.5 221.5t-39 270.5zM1130 686q0 166 -49 298t-149 212t-236 80q-140 0 -237 -82q-100 -82 -147.5 -219.5t-47.5 -288.5q0 -166 49.5 -298.5t149.5 -212t235 -79.5q140 0 240 82t146 219t46 289zM582 1755l-19 86q54 21 111 21
q81 0 129.5 -38t48.5 -112q0 -90 -66.5 -137t-177.5 -57l-12 86q68 10 104.5 33t36.5 67q0 63 -78 63q-37 0 -77 -12z" />
    <glyph glyph-name="uni1EDF" unicode="&#x1edf;" horiz-adv-x="1060" 
d="M113 463q0 94 26.5 184t77 165t134 121t188.5 46q91 0 166 -35q47 -14 71 -14q54 0 76 21.5t22 62.5q0 54 -40 123l110 8q45 -67 45 -148q0 -67 -37 -110t-108 -56q100 -133 100 -344q0 -76 -15.5 -149t-49.5 -140t-82.5 -117t-120 -80t-156.5 -30q-187 0 -297 137
t-110 355zM807 469q0 175 -73.5 283t-207.5 108q-108 0 -176 -65q-47 -48 -73.5 -130t-26.5 -184q0 -176 73.5 -284.5t208.5 -108.5q110 0 177 70q98 103 98 311zM420 1348l-21 86q55 20 111 20q84 0 134 -42t50 -118q0 -95 -68.5 -147t-181.5 -62l-12 86q73 14 111.5 39.5
t38.5 75.5q0 74 -86 74q-35 0 -76 -12z" />
    <glyph glyph-name="uni1EE0" unicode="&#x1ee0;" horiz-adv-x="1394" 
d="M119 668q0 108 21 211.5t67 198.5t112.5 166.5t164.5 114t216 42.5q102 0 187 -31q70 -18 121 -18q110 0 110 92q0 49 -39 125l121 8q45 -72 45 -150q0 -77 -40 -125t-118 -63q92 -95 140.5 -233.5t48.5 -300.5q0 -108 -21 -211.5t-67.5 -199t-113 -167t-164 -114
t-214.5 -42.5q-135 0 -245.5 55t-182 150t-110.5 221.5t-39 270.5zM1130 686q0 166 -49 298t-149 212t-236 80q-140 0 -237 -82q-100 -82 -147.5 -219.5t-47.5 -288.5q0 -166 49.5 -298.5t149.5 -212t235 -79.5q140 0 240 82t146 219t46 289zM803 1630q62 0 133 142l84 -43
q-88 -211 -219 -211q-33 0 -62 14.5t-49.5 35t-39.5 40.5t-39.5 34.5t-41.5 14.5q-58 0 -133 -137l-84 45q90 204 223 204q32 0 60.5 -14.5t49 -35t38.5 -40.5t38.5 -34.5t41.5 -14.5z" />
    <glyph glyph-name="uni1EE1" unicode="&#x1ee1;" horiz-adv-x="1060" 
d="M113 463q0 94 26.5 184t77 165t134 121t188.5 46q91 0 166 -35q47 -14 71 -14q54 0 76 21.5t22 62.5q0 54 -40 123l110 8q45 -67 45 -148q0 -67 -37 -110t-108 -56q100 -133 100 -344q0 -76 -15.5 -149t-49.5 -140t-82.5 -117t-120 -80t-156.5 -30q-187 0 -297 137
t-110 355zM807 469q0 175 -73.5 283t-207.5 108q-108 0 -176 -65q-47 -48 -73.5 -130t-26.5 -184q0 -176 73.5 -284.5t208.5 -108.5q110 0 177 70q98 103 98 311zM631 1225q61 0 121 137l82 -37q-33 -101 -85.5 -157t-117.5 -56q-33 0 -62 14t-49.5 34t-39.5 40.5
t-39.5 34.5t-41.5 14q-57 0 -120 -137l-84 39q35 98 88 154.5t120 56.5q39 0 74 -21.5t55.5 -47t47 -47t51.5 -21.5z" />
    <glyph glyph-name="uni1EE2" unicode="&#x1ee2;" horiz-adv-x="1394" 
d="M119 668q0 108 21 211.5t67 198.5t112.5 166.5t164.5 114t216 42.5q102 0 187 -31q70 -18 121 -18q110 0 110 92q0 49 -39 125l121 8q45 -72 45 -150q0 -77 -40 -125t-118 -63q92 -95 140.5 -233.5t48.5 -300.5q0 -108 -21 -211.5t-67.5 -199t-113 -167t-164 -114
t-214.5 -42.5q-135 0 -245.5 55t-182 150t-110.5 221.5t-39 270.5zM1130 686q0 166 -49 298t-149 212t-236 80q-140 0 -237 -82q-100 -82 -147.5 -219.5t-47.5 -288.5q0 -166 49.5 -298.5t149.5 -212t235 -79.5q140 0 240 82t146 219t46 289zM602 -299q0 44 28 72t72 28
q41 0 66 -25t25 -65q0 -44 -27.5 -71t-71.5 -27q-41 0 -66.5 24t-25.5 64z" />
    <glyph glyph-name="uni1EE3" unicode="&#x1ee3;" horiz-adv-x="1060" 
d="M113 463q0 94 26.5 184t77 165t134 121t188.5 46q91 0 166 -35q47 -14 71 -14q54 0 76 21.5t22 62.5q0 54 -40 123l110 8q45 -67 45 -148q0 -67 -37 -110t-108 -56q100 -133 100 -344q0 -76 -15.5 -149t-49.5 -140t-82.5 -117t-120 -80t-156.5 -30q-187 0 -297 137
t-110 355zM807 469q0 175 -73.5 283t-207.5 108q-108 0 -176 -65q-47 -48 -73.5 -130t-26.5 -184q0 -176 73.5 -284.5t208.5 -108.5q110 0 177 70q98 103 98 311zM432 -299q0 44 28 72t72 28q41 0 66 -25t25 -65q0 -44 -27.5 -71t-71.5 -27q-41 0 -66.5 24t-25.5 64z" />
    <glyph glyph-name="uni1EE6" unicode="&#x1ee6;" horiz-adv-x="1290" 
d="M971 1372h137v-840q0 -561 -475 -561q-219 0 -334 125.5t-115 384.5v891h138v-856q0 -102 14.5 -175t50 -131t102 -87t164.5 -29q64 0 120.5 23t90.5 55q107 99 107 317v883zM530 1755l-18 86q54 21 111 21q81 0 129.5 -38t48.5 -112q0 -90 -66.5 -137t-177.5 -57l-12 86
q68 10 104.5 33t36.5 67q0 63 -78 63q-38 0 -78 -12z" />
    <glyph glyph-name="uni1EE7" unicode="&#x1ee7;" horiz-adv-x="1058" 
d="M160 948l135 4v-602q0 -136 41 -198t133 -62q129 0 285 146v714h133v-581q0 -115 18 -361l-112 -16l-27 137q-158 -158 -330 -158q-276 0 -276 332v645zM410 1348l-21 86q55 20 111 20q84 0 134 -42t50 -118q0 -95 -68.5 -147t-181.5 -62l-12 86q72 13 110.5 39t38.5 76
q0 74 -86 74q-35 0 -75 -12z" />
    <glyph glyph-name="uni1EE8" unicode="&#x1ee8;" horiz-adv-x="1282" 
d="M971 1372h76q68 0 95 22.5t27 67.5q0 52 -41 127l121 8q47 -73 47 -153q0 -168 -188 -189v-723q0 -561 -475 -561q-219 0 -334 125.5t-115 384.5v891h138v-856q0 -102 14.5 -175t50 -131t102 -87t164.5 -29q64 0 120.5 23t90.5 55q107 99 107 317v883zM473 1620l414 170
l43 -119v-8l-426 -137z" />
    <glyph glyph-name="uni1EE9" unicode="&#x1ee9;" horiz-adv-x="1067" 
d="M922 1157l110 8q45 -72 45 -147q0 -76 -48 -120.5t-142 -51.5v-477q0 -115 18 -361l-112 -16l-27 137q-158 -158 -330 -158q-276 0 -276 332v645l135 4v-602q0 -136 41 -198t133 -62q129 0 285 146v714h90q67 0 93 21.5t26 62.5q0 52 -41 123zM389 1159l303 311l86 -88
v-10l-323 -280z" />
    <glyph glyph-name="uni1EEA" unicode="&#x1eea;" horiz-adv-x="1282" 
d="M971 1372h76q68 0 95 22.5t27 67.5q0 52 -41 127l121 8q47 -73 47 -153q0 -168 -188 -189v-723q0 -561 -475 -561q-219 0 -334 125.5t-115 384.5v891h138v-856q0 -102 14.5 -175t50 -131t102 -87t164.5 -29q64 0 120.5 23t90.5 55q107 99 107 317v883zM362 1673l44 117
l413 -170l-31 -94l-423 139z" />
    <glyph glyph-name="uni1EEB" unicode="&#x1eeb;" horiz-adv-x="1067" 
d="M922 1157l110 8q45 -72 45 -147q0 -76 -48 -120.5t-142 -51.5v-477q0 -115 18 -361l-112 -16l-27 137q-158 -158 -330 -158q-276 0 -276 332v645l135 4v-602q0 -136 41 -198t133 -62q129 0 285 146v714h90q67 0 93 21.5t26 62.5q0 52 -41 123zM297 1382l86 88l301 -311
l-66 -67l-321 280v10z" />
    <glyph glyph-name="uni1EEC" unicode="&#x1eec;" horiz-adv-x="1282" 
d="M971 1372h76q68 0 95 22.5t27 67.5q0 52 -41 127l121 8q47 -73 47 -153q0 -168 -188 -189v-723q0 -561 -475 -561q-219 0 -334 125.5t-115 384.5v891h138v-856q0 -102 14.5 -175t50 -131t102 -87t164.5 -29q64 0 120.5 23t90.5 55q107 99 107 317v883zM530 1755l-18 86
q54 21 111 21q81 0 129.5 -38t48.5 -112q0 -90 -66.5 -137t-177.5 -57l-12 86q68 10 104.5 33t36.5 67q0 63 -78 63q-38 0 -78 -12z" />
    <glyph glyph-name="uni1EED" unicode="&#x1eed;" horiz-adv-x="1067" 
d="M922 1157l110 8q45 -72 45 -147q0 -76 -48 -120.5t-142 -51.5v-477q0 -115 18 -361l-112 -16l-27 137q-158 -158 -330 -158q-276 0 -276 332v645l135 4v-602q0 -136 41 -198t133 -62q129 0 285 146v714h90q67 0 93 21.5t26 62.5q0 52 -41 123zM410 1348l-21 86
q55 20 111 20q84 0 134 -42t50 -118q0 -95 -68.5 -147t-181.5 -62l-12 86q72 13 110.5 39t38.5 76q0 74 -86 74q-35 0 -75 -12z" />
    <glyph glyph-name="uni1EEE" unicode="&#x1eee;" horiz-adv-x="1282" 
d="M971 1372h76q68 0 95 22.5t27 67.5q0 52 -41 127l121 8q47 -73 47 -153q0 -168 -188 -189v-723q0 -561 -475 -561q-219 0 -334 125.5t-115 384.5v891h138v-856q0 -102 14.5 -175t50 -131t102 -87t164.5 -29q64 0 120.5 23t90.5 55q107 99 107 317v883zM778 1630
q62 0 133 142l84 -43q-88 -211 -219 -211q-33 0 -62 14.5t-49.5 35t-39 40.5t-39 34.5t-41.5 14.5q-58 0 -133 -137l-84 45q90 204 223 204q32 0 60.5 -14.5t48.5 -35t38.5 -40.5t38.5 -34.5t41 -14.5z" />
    <glyph glyph-name="uni1EEF" unicode="&#x1eef;" horiz-adv-x="1067" 
d="M922 1157l110 8q45 -72 45 -147q0 -76 -48 -120.5t-142 -51.5v-477q0 -115 18 -361l-112 -16l-27 137q-158 -158 -330 -158q-276 0 -276 332v645l135 4v-602q0 -136 41 -198t133 -62q129 0 285 146v714h90q67 0 93 21.5t26 62.5q0 52 -41 123zM670 1225q65 0 129 137
l84 -41q-37 -99 -93 -154t-120 -55q-41 0 -77 21.5t-57 47t-48 47t-52 21.5q-32 0 -62.5 -35t-68.5 -102l-82 43q39 98 95 152.5t122 54.5q40 0 75 -21.5t56 -47t47.5 -47t51.5 -21.5z" />
    <glyph glyph-name="uni1EF0" unicode="&#x1ef0;" horiz-adv-x="1282" 
d="M971 1372h76q68 0 95 22.5t27 67.5q0 52 -41 127l121 8q47 -73 47 -153q0 -168 -188 -189v-723q0 -561 -475 -561q-219 0 -334 125.5t-115 384.5v891h138v-856q0 -102 14.5 -175t50 -131t102 -87t164.5 -29q64 0 120.5 23t90.5 55q107 99 107 317v883zM549 -299
q0 44 28 72t72 28q41 0 65.5 -25t24.5 -65q0 -44 -27 -71t-71 -27q-41 0 -66.5 24t-25.5 64z" />
    <glyph glyph-name="uni1EF1" unicode="&#x1ef1;" horiz-adv-x="1067" 
d="M922 1157l110 8q45 -72 45 -147q0 -76 -48 -120.5t-142 -51.5v-477q0 -115 18 -361l-112 -16l-27 137q-158 -158 -330 -158q-276 0 -276 332v645l135 4v-602q0 -136 41 -198t133 -62q129 0 285 146v714h90q67 0 93 21.5t26 62.5q0 52 -41 123zM438 -299q0 44 28.5 72
t72.5 28q41 0 65.5 -25t24.5 -65q0 -44 -27.5 -71t-71.5 -27q-41 0 -66.5 24t-25.5 64z" />
    <glyph glyph-name="Ygrave" unicode="&#x1ef2;" horiz-adv-x="1085" 
d="M903 1372h144q-18 -45 -80 -155l-359 -648v-569h-135v569l-350 648q-66 126 -78 155h150l256 -473l94 -180h2zM264 1673l43 117l414 -170l-31 -94l-424 139z" />
    <glyph glyph-name="ygrave" unicode="&#x1ef3;" horiz-adv-x="962" 
d="M768 950h129q0 -33 -18 -82l-359 -960q-89 -218 -185.5 -316t-213.5 -98q-22 0 -76 6v109q128 0 215.5 91t173.5 300h-24l-320 868q-16 43 -16 82h133l223 -626q29 -85 49 -170h8zM266 1382l86 88l301 -311l-65 -67l-322 280v10z" />
    <glyph glyph-name="uni1EF6" unicode="&#x1ef6;" horiz-adv-x="1085" 
d="M903 1372h144q-18 -45 -80 -155l-359 -648v-569h-135v569l-350 648q-66 126 -78 155h150l256 -473l94 -180h2zM432 1755l-18 86q54 21 110 21q81 0 129.5 -38t48.5 -112q0 -90 -66 -137t-177 -57l-13 86q68 10 105 33t37 67q0 63 -78 63q-38 0 -78 -12z" />
    <glyph glyph-name="uni1EF7" unicode="&#x1ef7;" horiz-adv-x="962" 
d="M768 950h129q0 -33 -18 -82l-359 -960q-89 -218 -185.5 -316t-213.5 -98q-22 0 -76 6v109q128 0 215.5 91t173.5 300h-24l-320 868q-16 43 -16 82h133l223 -626q29 -85 49 -170h8zM379 1348l-21 86q55 20 111 20q84 0 134 -42t50 -118q0 -95 -68.5 -147t-181.5 -62
l-12 86q73 14 111.5 39.5t38.5 75.5q0 74 -86 74q-35 0 -76 -12z" />
    <glyph glyph-name="uni1EF8" unicode="&#x1ef8;" horiz-adv-x="1085" 
d="M903 1372h144q-18 -45 -80 -155l-359 -648v-569h-135v569l-350 648q-66 126 -78 155h150l256 -473l94 -180h2zM664 1630q62 0 133 142l84 -43q-88 -211 -219 -211q-33 0 -62 14.5t-49.5 35t-39.5 40.5t-39.5 34.5t-41.5 14.5q-58 0 -133 -137l-84 45q90 204 223 204
q32 0 60.5 -14.5t49 -35t38.5 -40.5t38.5 -34.5t41.5 -14.5z" />
    <glyph glyph-name="uni1EF9" unicode="&#x1ef9;" horiz-adv-x="962" 
d="M768 950h129q0 -33 -18 -82l-359 -960q-89 -218 -185.5 -316t-213.5 -98q-22 0 -76 6v109q128 0 215.5 91t173.5 300h-24l-320 868q-16 43 -16 82h133l223 -626q29 -85 49 -170h8zM606 1225q65 0 129 137l84 -41q-37 -99 -93 -154t-120 -55q-41 0 -76.5 21.5t-57 47
t-48 47t-51.5 21.5q-32 0 -62.5 -35t-68.5 -102l-82 43q39 98 95 152.5t122 54.5q33 0 61.5 -14t49 -34t39 -40.5t38.5 -34.5t41 -14z" />
    <glyph glyph-name="enspace" unicode="&#x2002;" horiz-adv-x="999" 
 />
    <glyph glyph-name="uni2003" unicode="&#x2003;" horiz-adv-x="1878" 
 />
    <glyph glyph-name="uni2009" unicode="&#x2009;" horiz-adv-x="163" 
 />
    <glyph glyph-name="uni2010" unicode="&#x2010;" horiz-adv-x="727" 
d="M152 545h423v-113h-423v113z" />
    <glyph glyph-name="uni2011" unicode="&#x2011;" horiz-adv-x="727" 
d="M152 545h423v-113h-423v113z" />
    <glyph glyph-name="endash" unicode="&#x2013;" horiz-adv-x="1105" 
d="M152 545h802v-113h-802v113z" />
    <glyph glyph-name="emdash" unicode="&#x2014;" horiz-adv-x="1955" 
d="M152 545h1650v-113h-1650v113z" />
    <glyph glyph-name="quoteleft" unicode="&#x2018;" horiz-adv-x="483" 
d="M129 1169q0 121 55.5 229t157.5 179l57 -49q-143 -140 -143 -350q0 -26 10 -134l-121 -10q-16 69 -16 135z" />
    <glyph glyph-name="quoteright" unicode="&#x2019;" horiz-adv-x="485" 
d="M233 1550l121 11q17 -73 17 -134q0 -121 -55 -229t-158 -180l-56 51q142 136 142 350q0 56 -11 131z" />
    <glyph glyph-name="quotesinglbase" unicode="&#x201a;" horiz-adv-x="462" 
d="M164 258l121 10q16 -69 16 -133q0 -121 -55 -229t-158 -180l-55 51q141 135 141 350q0 63 -10 131z" />
    <glyph glyph-name="quotedblleft" unicode="&#x201c;" horiz-adv-x="733" 
d="M379 1169q0 121 55.5 229t157.5 179l57 -49q-143 -140 -143 -350q0 -62 10 -134l-121 -10q-16 69 -16 135zM129 1169q0 121 55.5 229t157.5 179l57 -49q-143 -140 -143 -350q0 -26 10 -134l-121 -10q-16 69 -16 135z" />
    <glyph glyph-name="quotedblright" unicode="&#x201d;" horiz-adv-x="735" 
d="M483 1550l121 11q17 -73 17 -134q0 -121 -55 -229t-158 -180l-56 51q142 136 142 350q0 56 -11 131zM233 1550l121 11q17 -73 17 -134q0 -121 -55 -229t-158 -180l-56 51q142 136 142 350q0 56 -11 131z" />
    <glyph glyph-name="quotedblbase" unicode="&#x201e;" horiz-adv-x="712" 
d="M414 258l121 10q16 -69 16 -133q0 -121 -55 -229t-158 -180l-55 51q141 135 141 350q0 63 -10 131zM164 258l121 10q16 -69 16 -133q0 -121 -55 -229t-158 -180l-55 51q141 135 141 350q0 63 -10 131z" />
    <glyph glyph-name="dagger" unicode="&#x2020;" horiz-adv-x="888" 
d="M377 1239h139l-2 -289h260v-112h-260l-8 -1256h-117l-10 1256h-264v112h264z" />
    <glyph glyph-name="daggerdbl" unicode="&#x2021;" horiz-adv-x="888" 
d="M377 1239h139l-2 -289h260v-112h-260l-4 -402h264v-112h-264l-6 -742h-117l-4 742h-268v112h266l-2 402h-264v112h264z" />
    <glyph glyph-name="bullet" unicode="&#x2022;" horiz-adv-x="782" 
d="M618 512q0 -112 -61 -171.5t-166 -59.5q-104 0 -165.5 60t-61.5 171t61.5 171t165.5 60q105 0 166 -59.5t61 -171.5z" />
    <glyph glyph-name="ellipsis" unicode="&#x2026;" horiz-adv-x="1542" 
d="M1190 78q0 50 29.5 80t78.5 30q46 0 73.5 -27t27.5 -71q0 -53 -29 -84t-78 -31q-46 0 -74 28.5t-28 74.5zM141 78q0 50 30 80t79 30q46 0 73 -27t27 -71q0 -53 -28.5 -84t-77.5 -31q-46 0 -74.5 28.5t-28.5 74.5zM666 78q0 50 29.5 80t78.5 30q46 0 73 -27t27 -71
q0 -53 -28.5 -84t-77.5 -31q-46 0 -74 28.5t-28 74.5z" />
    <glyph glyph-name="perthousand" unicode="&#x2030;" horiz-adv-x="2068" 
d="M233 25l904 1386l88 -61l-903 -1387zM98 1001q0 106 29 195t92.5 147t151.5 58q122 0 188 -106t66 -261q0 -107 -29 -196t-93 -147t-153 -58q-121 0 -186.5 106t-65.5 262zM502 1028q0 120 -34.5 196t-100.5 76q-43 0 -76 -30q-70 -67 -70 -260q0 -120 34 -197.5
t101 -77.5q43 0 78 35q34 36 51 106.5t17 151.5zM836 340q0 105 28.5 193t92 146t151.5 58q121 0 186.5 -104.5t65.5 -259.5q0 -108 -28.5 -196.5t-92 -147t-152.5 -58.5q-122 0 -186.5 106t-64.5 263zM1239 367q0 119 -35 194.5t-102 75.5q-42 0 -74 -29q-72 -69 -72 -260
q0 -119 35 -197.5t101 -78.5q47 0 77 34q34 37 52 108.5t18 152.5zM1454 340q0 105 29 193t92.5 146t150.5 58q83 0 141.5 -51.5t85.5 -132t27 -180.5q0 -107 -28.5 -196t-92 -147.5t-151.5 -58.5q-83 0 -141.5 52.5t-85.5 134t-27 182.5zM1858 367q0 119 -34.5 194.5
t-101.5 75.5q-41 0 -73 -29q-72 -69 -72 -260q0 -120 34.5 -198t100.5 -78q48 0 78 34q34 36 51 107.5t17 153.5z" />
    <glyph glyph-name="uni2032" unicode="&#x2032;" horiz-adv-x="436" 
d="M182 1454h137l-83 -455h-91z" />
    <glyph glyph-name="uni2033" unicode="&#x2033;" horiz-adv-x="655" 
d="M403 1454h138l-84 -455h-92zM182 1454h137l-83 -455h-91z" />
    <glyph glyph-name="guilsinglleft" unicode="&#x2039;" horiz-adv-x="641" 
d="M96 508l342 410l86 -60l-284 -369l286 -374l-88 -60l-338 412z" />
    <glyph glyph-name="guilsinglright" unicode="&#x203a;" horiz-adv-x="641" 
d="M117 858l84 60l342 -410l-2 -41l-340 -412l-86 60l284 372z" />
    <glyph glyph-name="fraction" unicode="&#x2044;" horiz-adv-x="165" 
d="M-414 25l903 1386l89 -61l-904 -1387z" />
    <glyph glyph-name="zerosuperior" unicode="&#x2070;" horiz-adv-x="712" 
d="M90 1200q0 105 30 193t94.5 146t152.5 58q123 0 190.5 -105t67.5 -259q0 -107 -30 -196.5t-95 -147.5t-154 -58q-82 0 -141 52.5t-87 134.5t-28 182zM502 1227q0 118 -36.5 194t-103.5 76q-41 0 -73 -29q-38 -34 -58 -105t-20 -155q0 -120 36.5 -198t104.5 -78
q40 0 78 33q35 38 53.5 109.5t18.5 152.5z" />
    <glyph glyph-name="i.sups" unicode="&#x2071;" horiz-adv-x="354" 
d="M119 1436l117 2v-590h-117v588zM102 1614q0 34 22.5 55t57.5 21q33 0 53.5 -19.5t20.5 -50.5q0 -32 -22.5 -53t-57.5 -21q-33 0 -53.5 19t-20.5 49z" />
    <glyph glyph-name="foursuperior" unicode="&#x2074;" horiz-adv-x="677" 
d="M57 1110l326 475l121 -2v-477h100l4 -94h-104v-164h-117v164h-317zM336 1354l-162 -248h213v330h-2z" />
    <glyph glyph-name="fivesuperior" unicode="&#x2075;" horiz-adv-x="608" 
d="M109 1583h380l-4 -100h-270v-187q61 9 84 9q103 0 166 -58t63 -160q0 -116 -72 -186t-196 -70q-94 0 -176 35l31 90q84 -24 137 -24q59 0 98 29q58 39 58 122q0 62 -38 98t-108 36q-48 0 -121 -21l-32 10v377z" />
    <glyph glyph-name="sixsuperior" unicode="&#x2076;" horiz-adv-x="649" 
d="M88 1159q0 118 38.5 215.5t117.5 159t186 61.5q59 0 94 -14l-20 -94q-28 8 -60 8q-100 0 -159.5 -67.5t-73.5 -180.5q67 45 149 45q100 0 157.5 -59t57.5 -156q0 -102 -66.5 -174t-176.5 -72q-63 0 -111 27t-76.5 74t-42.5 104.5t-14 122.5zM336 932q50 0 82 29
q43 40 43 112q0 62 -31 96.5t-90 34.5q-67 0 -135 -45q4 -227 131 -227z" />
    <glyph glyph-name="sevensuperior" unicode="&#x2077;" horiz-adv-x="573" 
d="M61 1583h445l14 -100l-295 -658l-106 49l278 609h-331z" />
    <glyph glyph-name="eightsuperior" unicode="&#x2078;" horiz-adv-x="677" 
d="M119 1409q0 85 63.5 136.5t163.5 51.5q93 0 154 -49t61 -129q0 -102 -106 -188q64 -37 100.5 -82t36.5 -109q0 -98 -72.5 -153.5t-181.5 -55.5q-113 0 -182.5 50.5t-69.5 142.5q0 119 143 211q-110 68 -110 174zM231 1409q0 -43 34.5 -72t111.5 -67q72 68 72 139
q0 41 -29 66.5t-76 25.5q-44 0 -74 -18q-39 -24 -39 -74zM340 928q54 0 88 22q49 28 49 90q0 33 -25 61t-47.5 41.5t-86.5 45.5q-7 4 -11 6q-106 -76 -106 -156q0 -55 38.5 -82.5t100.5 -27.5z" />
    <glyph glyph-name="ninesuperior" unicode="&#x2079;" horiz-adv-x="649" 
d="M309 1223q74 0 135 45q-4 227 -131 227q-51 0 -84 -33q-39 -42 -39 -108q0 -61 30.5 -96t88.5 -35zM74 1350q0 102 66.5 173.5t176.5 71.5q64 0 112 -27t76 -73.5t42 -103t14 -121.5q0 -187 -93 -313t-249 -126q-58 0 -92 15l20 94q32 -8 60 -8q100 0 158.5 67t72.5 181
q-67 -45 -147 -45q-101 0 -159 59t-58 156z" />
    <glyph glyph-name="n.sups" unicode="&#x207f;" horiz-adv-x="741" 
d="M109 1432l94 14l22 -86q100 94 219 94q98 0 141.5 -52.5t43.5 -154.5v-399h-119v371q0 74 -21 107.5t-77 33.5q-77 0 -174 -72v-440h-117v352q0 80 -12 232z" />
    <glyph glyph-name="zeroinferior" unicode="&#x2080;" horiz-adv-x="712" 
d="M90 250q0 105 30 193t94.5 146t152.5 58q123 0 190.5 -105t67.5 -259q0 -107 -30 -196.5t-95 -147.5t-154 -58q-82 0 -141 52.5t-87 134.5t-28 182zM502 276q0 118 -37 194.5t-103 76.5q-41 0 -73 -29q-38 -34 -58 -105t-20 -155q0 -120 36.5 -198t104.5 -78q41 0 78 32
q35 38 53.5 109.5t18.5 152.5z" />
    <glyph glyph-name="oneinferior" unicode="&#x2081;" horiz-adv-x="540" 
d="M78 559l190 78l97 -2v-641h114l2 -96h-395v96h160v524l-137 -43z" />
    <glyph glyph-name="twoinferior" unicode="&#x2082;" horiz-adv-x="612" 
d="M84 573q89 72 213 72q108 0 163.5 -58.5t55.5 -152.5q0 -52 -18.5 -103t-56.5 -102t-75 -90t-94 -94l-55 -51h305l4 -96h-442l-8 96l104 100q57 57 87 89t65 77t50 84t15 78q0 56 -30 88.5t-91 32.5q-81 0 -151 -45z" />
    <glyph glyph-name="threeinferior" unicode="&#x2083;" horiz-adv-x="610" 
d="M82 580q87 65 209 65q96 0 150.5 -48t54.5 -132q0 -55 -27.5 -101.5t-75.5 -74.5q62 -20 95.5 -66t33.5 -112q0 -105 -67.5 -167.5t-184.5 -62.5q-110 0 -198 47l34 88q83 -34 158 -34q59 0 90 24q47 32 47 103q0 58 -41.5 89t-117.5 31h-49l-5 90h50q63 0 101 36t38 91
q0 46 -28.5 73.5t-80.5 27.5q-72 0 -147 -41z" />
    <glyph glyph-name="fourinferior" unicode="&#x2084;" horiz-adv-x="677" 
d="M57 160l326 475l121 -2v-477h100l4 -95h-104v-163h-117v163h-317zM336 403l-162 -247h213v329h-2z" />
    <glyph glyph-name="fiveinferior" unicode="&#x2085;" horiz-adv-x="608" 
d="M109 633h380l-4 -101h-270v-186q54 8 84 8q103 0 166 -57.5t63 -159.5q0 -116 -72 -186t-196 -70q-94 0 -176 35l31 90q84 -24 137 -24q60 0 98 28q58 39 58 123q0 62 -38 97.5t-108 35.5q-51 0 -121 -20l-32 10v377z" />
    <glyph glyph-name="sixinferior" unicode="&#x2086;" horiz-adv-x="649" 
d="M88 209q0 118 38.5 215.5t117.5 159t186 61.5q59 0 94 -14l-20 -94q-28 8 -60 8q-100 0 -159.5 -67.5t-73.5 -180.5q67 45 149 45q100 0 157.5 -59t57.5 -156q0 -102 -66.5 -174t-176.5 -72q-63 0 -111 27t-76.5 74t-42.5 104.5t-14 122.5zM336 -18q51 0 82 28
q43 40 43 113q0 62 -31 96.5t-90 34.5q-67 0 -135 -45q4 -227 131 -227z" />
    <glyph glyph-name="seveninferior" unicode="&#x2087;" horiz-adv-x="573" 
d="M61 633h445l14 -101l-295 -657l-106 49l278 608h-331z" />
    <glyph glyph-name="eightinferior" unicode="&#x2088;" horiz-adv-x="677" 
d="M119 459q0 85 63.5 136.5t163.5 51.5q93 0 154 -49t61 -129q0 -102 -106 -188q64 -37 100.5 -82t36.5 -109q0 -98 -72.5 -153.5t-181.5 -55.5q-113 0 -182.5 50.5t-69.5 142.5q0 119 143 211q-110 68 -110 174zM231 459q0 -43 34.5 -73t111.5 -67q72 68 72 140
q0 41 -29 66.5t-76 25.5q-42 0 -74 -19q-39 -24 -39 -73zM340 -23q52 0 88 23q49 28 49 90q0 33 -25 61t-47.5 41.5t-86.5 45.5q-7 4 -11 6q-106 -76 -106 -156q0 -55 38.5 -83t100.5 -28z" />
    <glyph glyph-name="nineinferior" unicode="&#x2089;" horiz-adv-x="649" 
d="M309 272q74 0 135 45q-4 228 -131 228q-51 0 -84 -33q-39 -42 -39 -109q0 -61 30.5 -96t88.5 -35zM74 399q0 102 66.5 174t176.5 72q64 0 112 -27t76 -74t42 -103.5t14 -121.5q0 -186 -93 -312t-249 -126q-58 0 -92 15l20 94q32 -8 60 -8q100 0 158.5 66.5t72.5 180.5
q-67 -45 -147 -45q-101 0 -159 59t-58 156z" />
    <glyph glyph-name="a.sinf" unicode="&#x2090;" horiz-adv-x="667" 
d="M96 406q120 94 256 94q105 0 152 -54.5t47 -171.5v-143q0 -70 12 -225l-94 -15l-25 84q-100 -90 -211 -90q-73 0 -117 39.5t-44 108.5q0 84 78 139q84 54 284 68v8q0 88 -22.5 123t-79.5 35q-83 0 -193 -68zM264 -29q80 0 170 74v123q-164 -15 -213 -47q-39 -27 -39 -72
q0 -37 22 -57.5t60 -20.5z" />
    <glyph glyph-name="e.sinf" unicode="&#x2091;" horiz-adv-x="675" 
d="M82 182q0 139 77 230.5t206 91.5q111 0 170 -68.5t59 -175.5q0 -55 -8 -94h-387q6 -95 54 -142t126 -47q79 0 174 29l27 -76q-105 -45 -220 -45q-126 0 -202 76.5t-76 220.5zM360 414q-68 0 -109 -45.5t-50 -128.5h280q2 12 2 39q0 60 -32 97.5t-91 37.5z" />
    <glyph glyph-name="o.sinf" unicode="&#x2092;" horiz-adv-x="724" 
d="M82 184q0 83 30 153.5t97 118.5t160 48q127 0 200.5 -86.5t73.5 -218.5q0 -84 -29.5 -154t-96 -117t-159.5 -47q-130 0 -203 85t-73 218zM524 188q0 100 -41.5 163t-117.5 63q-50 0 -93 -31q-69 -54 -69 -188q0 -101 41.5 -162.5t120.5 -61.5q59 0 94 35q65 53 65 182z
" />
    <glyph glyph-name="x.sinf" unicode="&#x2093;" horiz-adv-x="655" 
d="M72 485h121l137 -219h2l137 219h113q0 -20 -27 -59l-152 -221l172 -248q24 -31 27 -59h-117l-161 245h-5l-153 -245h-113q2 17 27 59l170 248l-152 221q-21 36 -26 59z" />
    <glyph glyph-name="uni20AB" unicode="&#x20ab;" horiz-adv-x="1028" 
d="M449 301q64 0 128.5 39t139.5 111v389q-110 61 -230 61q-107 0 -172 -53q-94 -76 -94 -248q0 -132 60.5 -215.5t167.5 -83.5zM88 580q0 122 47 219.5t137.5 155t210.5 57.5q114 0 234 -70v213h-355v94h355v144h129v-144h166v-94h-166v-602q0 -91 18 -328l-108 -14
l-27 137q-151 -158 -305 -158q-143 0 -239 110t-97 280zM109 96h780v-96h-780v96z" />
    <glyph glyph-name="Euro" unicode="&#x20ac;" horiz-adv-x="1323" 
d="M231 662q0 50 7 122h-129v107h147q25 108 73 197t119 159t171 109t219 39q211 0 362 -107l-55 -106q-152 88 -309 88q-144 0 -252 -78q-134 -99 -183 -301h553l2 -107h-573q-6 -52 -6 -110q0 -53 4 -80h575l-2 -107h-559q37 -175 146 -280t297 -105q168 0 331 80l43 -106
q-187 -99 -389 -99q-124 0 -225.5 38t-172 107.5t-115 161t-64.5 203.5h-137v107h124q-2 23 -2 68z" />
    <glyph glyph-name="uni20B9" unicode="&#x20b9;" horiz-adv-x="1175" 
d="M154 528l30 115h62q202 0 326 62.5t145 197.5h-576l2 107h574q-19 125 -128 190.5t-298 65.5h-150l2 106h910v-106h-365q153 -86 174 -256h191v-107h-193q-23 -169 -162.5 -264t-365.5 -109l416 -376q117 -105 135 -154h-160z" />
    <glyph glyph-name="uni20BA" unicode="&#x20ba;" horiz-adv-x="1087" 
d="M236 1372h137v-348l426 135l32 -100l-458 -148v-190l426 135l32 -102l-458 -146v-487q236 0 372 114t173 361l133 -25q-38 -285 -211.5 -428t-466.5 -143h-137v565l-142 -45l-35 101l177 55v192l-142 -45l-35 101l177 55v393z" />
    <glyph glyph-name="uni20BD" unicode="&#x20bd;" horiz-adv-x="1132" 
d="M203 1372h313q526 6 526 -387q0 -208 -149 -316t-428 -108h-125v-168h471v-106h-471v-287h-137v287h-150v106h150v168h-150v109h150v702zM524 1255h-184v-585h117q212 0 326 76t114 231q0 151 -93 214.5t-280 63.5z" />
    <glyph glyph-name="uni2113" unicode="&#x2113;" horiz-adv-x="755" 
d="M414 -23q-108 0 -174 65.5t-66 207.5v180h-94v107h94v497q0 175 65 268t195 93q131 0 195.5 -97.5t64.5 -265.5q0 -263 -92 -413.5t-295 -180.5v-149q0 -108 32 -150.5t99 -42.5q56 0 129 29l33 -105q-92 -43 -186 -43zM434 1276q-68 0 -97.5 -59.5t-29.5 -178.5v-489
q139 30 198.5 145t59.5 334q0 248 -131 248z" />
    <glyph glyph-name="trademark" unicode="&#x2122;" horiz-adv-x="1619" 
d="M1257 1372h125l95 -686h-97l-59 428l-12 129h-2l-185 -557h-106l-142 428l-32 129h-4l-72 -557h-96l94 686h125l147 -444l31 -117h4zM92 1372h578l-2 -82h-236v-604h-104v604h-232z" />
    <glyph glyph-name="estimated" unicode="&#x212e;" horiz-adv-x="1656" 
d="M1395 162l26 -60q-114 -67 -245.5 -100t-323.5 -33q-165 0 -301 55t-225.5 150.5t-138 223t-48.5 272.5q0 104 24.5 205.5t80 197.5t135.5 169t200.5 117t266.5 44q165 0 294.5 -55t211 -151t124 -222t42.5 -273v-51h-1135v-424q170 -188 467 -188q314 0 545 123z
M850 1333q-297 0 -467 -184v-430h913v426q-154 188 -446 188z" />
    <glyph glyph-name="uni2150" unicode="&#x2150;" horiz-adv-x="1646" 
d="M147 1264l226 77l96 -2v-641h143l4 -96h-460v96h194v529l-174 -49zM326 25l903 1386l88 -61l-903 -1387zM1042 764h465l15 -100l-316 -658l-106 49l297 609h-350z" />
    <glyph glyph-name="uni2151" unicode="&#x2151;" horiz-adv-x="1646" 
d="M147 1264l226 77l96 -2v-641h143l4 -96h-460v96h194v529l-174 -49zM326 25l903 1386l88 -61l-903 -1387zM1262 403q73 0 135 46q-4 227 -131 227q-51 0 -84 -33q-41 -41 -41 -108q0 -61 31.5 -96.5t89.5 -35.5zM1026 530q0 102 67 174t177 72q64 0 112 -27t76 -73.5
t41.5 -103t13.5 -121.5q0 -187 -93 -313t-249 -126q-58 0 -92 15l21 94q32 -8 57 -8q102 0 161 66.5t73 180.5q-67 -45 -150 -45q-100 0 -157.5 59t-57.5 156z" />
    <glyph glyph-name="uni2153" unicode="&#x2153;" horiz-adv-x="1646" 
d="M147 1264l226 77l96 -2v-641h143l4 -96h-460v96h194v529l-174 -49zM326 25l903 1386l88 -61l-903 -1387zM1055 711q87 65 207 65q96 0 151 -48t55 -132q0 -55 -27 -101.5t-75 -74.5q60 -20 94.5 -67t34.5 -111q0 -105 -68 -167.5t-184 -62.5q-113 0 -201 47l37 88
q83 -34 156 -34q59 0 92 24q45 31 45 103q0 58 -41.5 89t-118.5 31h-49l-2 91h47q64 0 102 36t38 91q0 46 -28.5 73t-80.5 27q-67 0 -147 -41z" />
    <glyph glyph-name="uni2154" unicode="&#x2154;" horiz-adv-x="1646" 
d="M147 1278q89 72 213 72q108 0 164 -58.5t56 -152.5q0 -52 -18.5 -103t-56.5 -102t-75 -90t-94 -94l-55 -52h305l4 -96h-443l-8 96l105 101q47 48 69.5 71.5t56.5 63.5t49 66t27.5 60t12.5 66q0 57 -29 89t-90 32q-82 0 -152 -45zM326 25l903 1386l88 -61l-903 -1387z
M1055 711q87 65 207 65q96 0 151 -48t55 -132q0 -55 -27 -101.5t-75 -74.5q60 -20 94.5 -67t34.5 -111q0 -105 -68 -167.5t-184 -62.5q-113 0 -201 47l37 88q83 -34 156 -34q59 0 92 24q45 31 45 103q0 58 -41.5 89t-118.5 31h-49l-2 91h47q64 0 102 36t38 91q0 46 -28.5 73
t-80.5 27q-67 0 -147 -41z" />
    <glyph glyph-name="uni2155" unicode="&#x2155;" horiz-adv-x="1646" 
d="M147 1264l226 77l96 -2v-641h143l4 -96h-460v96h194v529l-174 -49zM326 25l903 1386l88 -61l-903 -1387zM1081 764h383l-6 -100h-270l2 -187q36 8 82 8q103 0 166 -57.5t63 -159.5q0 -116 -72 -186t-194 -70q-96 0 -178 35l30 90q84 -24 138 -24q60 0 98 28q57 39 57 123
q0 63 -37 98t-108 35q-51 0 -121 -20l-33 10v377z" />
    <glyph glyph-name="uni2156" unicode="&#x2156;" horiz-adv-x="1646" 
d="M147 1278q89 72 213 72q108 0 164 -58.5t56 -152.5q0 -52 -18.5 -103t-56.5 -102t-75 -90t-94 -94l-55 -52h305l4 -96h-443l-8 96l105 101q47 48 69.5 71.5t56.5 63.5t49 66t27.5 60t12.5 66q0 57 -29 89t-90 32q-82 0 -152 -45zM326 25l903 1386l88 -61l-903 -1387z
M1081 764h383l-6 -100h-270l2 -187q36 8 82 8q103 0 166 -57.5t63 -159.5q0 -116 -72 -186t-194 -70q-96 0 -178 35l30 90q84 -24 138 -24q60 0 98 28q57 39 57 123q0 63 -37 98t-108 35q-51 0 -121 -20l-33 10v377z" />
    <glyph glyph-name="uni2157" unicode="&#x2157;" horiz-adv-x="1646" 
d="M147 1284q89 66 207 66q96 0 151.5 -48.5t55.5 -132.5q0 -55 -27 -101.5t-75 -74.5q60 -20 94.5 -67t34.5 -111q0 -105 -68 -167t-184 -62q-113 0 -201 47l37 88q85 -35 156 -35q57 0 92 25q45 31 45 102q0 58 -41.5 89.5t-118.5 31.5h-49l-2 90h47q64 0 101.5 35.5
t37.5 91.5q0 46 -28 73t-80 27q-68 0 -148 -41zM326 25l903 1386l88 -61l-903 -1387zM1081 764h383l-6 -100h-270l2 -187q36 8 82 8q103 0 166 -57.5t63 -159.5q0 -116 -72 -186t-194 -70q-96 0 -178 35l30 90q84 -24 138 -24q60 0 98 28q57 39 57 123q0 63 -37 98t-108 35
q-51 0 -121 -20l-33 10v377z" />
    <glyph glyph-name="uni2158" unicode="&#x2158;" horiz-adv-x="1646" 
d="M90 864l324 475l121 -2v-477h102l2 -94h-104v-164h-115v164h-318zM369 1108l-164 -248h215v330h-2zM326 25l903 1386l88 -61l-903 -1387zM1081 764h383l-6 -100h-270l2 -187q36 8 82 8q103 0 166 -57.5t63 -159.5q0 -116 -72 -186t-194 -70q-96 0 -178 35l30 90
q84 -24 138 -24q60 0 98 28q57 39 57 123q0 63 -37 98t-108 35q-51 0 -121 -20l-33 10v377z" />
    <glyph glyph-name="uni2159" unicode="&#x2159;" horiz-adv-x="1646" 
d="M147 1264l226 77l96 -2v-641h143l4 -96h-460v96h194v529l-174 -49zM326 25l903 1386l88 -61l-903 -1387zM1040 340q0 118 38.5 215.5t117.5 159t186 61.5q62 0 93 -14l-21 -94q-28 8 -57 8q-100 0 -160 -68t-74 -180q67 45 150 45q99 0 157 -59.5t58 -155.5
q0 -102 -67 -174t-177 -72q-123 0 -183.5 94.5t-60.5 233.5zM1288 113q51 0 82 28q43 40 43 113q0 62 -31 96.5t-90 34.5q-67 0 -135 -45q4 -227 131 -227z" />
    <glyph glyph-name="uni215A" unicode="&#x215a;" horiz-adv-x="1646" 
d="M174 1337h383l-6 -100h-270l2 -186q36 8 82 8q103 0 166 -57.5t63 -159.5q0 -116 -72 -186t-194 -70q-96 0 -178 35l30 90q88 -25 137 -25q60 0 99 29q57 39 57 123q0 63 -37 98t-108 35q-48 0 -121 -21l-33 11v376zM326 25l903 1386l88 -61l-903 -1387zM1040 340
q0 118 38.5 215.5t117.5 159t186 61.5q62 0 93 -14l-21 -94q-28 8 -57 8q-100 0 -160 -68t-74 -180q67 45 150 45q99 0 157 -59.5t58 -155.5q0 -102 -67 -174t-177 -72q-123 0 -183.5 94.5t-60.5 233.5zM1288 113q51 0 82 28q43 40 43 113q0 62 -31 96.5t-90 34.5
q-67 0 -135 -45q4 -227 131 -227z" />
    <glyph glyph-name="uni215B" unicode="&#x215b;" horiz-adv-x="1646" 
d="M147 1264l226 77l96 -2v-641h143l4 -96h-460v96h194v529l-174 -49zM326 25l903 1386l88 -61l-903 -1387zM1057 590q0 85 64 136.5t163 51.5q93 0 154 -49t61 -129q0 -102 -106 -188q64 -36 100.5 -81.5t36.5 -109.5q0 -98 -72.5 -153.5t-181.5 -55.5q-113 0 -182.5 50.5
t-69.5 142.5q3 120 143 211q-110 68 -110 174zM1169 590q0 -43 35 -72t113 -67q69 69 69 139q0 41 -28.5 66.5t-75.5 25.5q-45 0 -72 -18q-41 -23 -41 -74zM1278 109q56 0 90 22q47 29 47 90q0 21 -9.5 39.5t-20.5 31t-38.5 29.5t-44 25.5t-57.5 28.5q-106 -72 -106 -156
q0 -54 39 -82t100 -28z" />
    <glyph glyph-name="uni215C" unicode="&#x215c;" horiz-adv-x="1646" 
d="M147 1284q89 66 207 66q96 0 151.5 -48.5t55.5 -132.5q0 -55 -27 -101.5t-75 -74.5q60 -20 94.5 -67t34.5 -111q0 -105 -68 -167t-184 -62q-113 0 -201 47l37 88q85 -35 156 -35q57 0 92 25q45 31 45 102q0 58 -41.5 89.5t-118.5 31.5h-49l-2 90h47q64 0 101.5 35.5
t37.5 91.5q0 46 -28 73t-80 27q-68 0 -148 -41zM326 25l903 1386l88 -61l-903 -1387zM1057 590q0 85 64 136.5t163 51.5q93 0 154 -49t61 -129q0 -102 -106 -188q64 -36 100.5 -81.5t36.5 -109.5q0 -98 -72.5 -153.5t-181.5 -55.5q-113 0 -182.5 50.5t-69.5 142.5
q3 120 143 211q-110 68 -110 174zM1169 590q0 -43 35 -72t113 -67q69 69 69 139q0 41 -28.5 66.5t-75.5 25.5q-45 0 -72 -18q-41 -23 -41 -74zM1278 109q56 0 90 22q47 29 47 90q0 21 -9.5 39.5t-20.5 31t-38.5 29.5t-44 25.5t-57.5 28.5q-106 -72 -106 -156q0 -54 39 -82
t100 -28z" />
    <glyph glyph-name="uni215D" unicode="&#x215d;" horiz-adv-x="1646" 
d="M174 1337h383l-6 -100h-270l2 -186q36 8 82 8q103 0 166 -57.5t63 -159.5q0 -116 -72 -186t-194 -70q-96 0 -178 35l30 90q88 -25 137 -25q60 0 99 29q57 39 57 123q0 63 -37 98t-108 35q-48 0 -121 -21l-33 11v376zM326 25l903 1386l88 -61l-903 -1387zM1057 590
q0 85 64 136.5t163 51.5q93 0 154 -49t61 -129q0 -102 -106 -188q64 -36 100.5 -81.5t36.5 -109.5q0 -98 -72.5 -153.5t-181.5 -55.5q-113 0 -182.5 50.5t-69.5 142.5q3 120 143 211q-110 68 -110 174zM1169 590q0 -43 35 -72t113 -67q69 69 69 139q0 41 -28.5 66.5
t-75.5 25.5q-45 0 -72 -18q-41 -23 -41 -74zM1278 109q56 0 90 22q47 29 47 90q0 21 -9.5 39.5t-20.5 31t-38.5 29.5t-44 25.5t-57.5 28.5q-106 -72 -106 -156q0 -54 39 -82t100 -28z" />
    <glyph glyph-name="uni215E" unicode="&#x215e;" horiz-adv-x="1646" 
d="M135 1337h465l14 -100l-315 -657l-106 49l296 608h-350zM326 25l903 1386l88 -61l-903 -1387zM1057 590q0 85 64 136.5t163 51.5q93 0 154 -49t61 -129q0 -102 -106 -188q64 -36 100.5 -81.5t36.5 -109.5q0 -98 -72.5 -153.5t-181.5 -55.5q-113 0 -182.5 50.5
t-69.5 142.5q3 120 143 211q-110 68 -110 174zM1169 590q0 -43 35 -72t113 -67q69 69 69 139q0 41 -28.5 66.5t-75.5 25.5q-45 0 -72 -18q-41 -23 -41 -74zM1278 109q56 0 90 22q47 29 47 90q0 21 -9.5 39.5t-20.5 31t-38.5 29.5t-44 25.5t-57.5 28.5q-106 -72 -106 -156
q0 -54 39 -82t100 -28z" />
    <glyph glyph-name="uni2190" unicode="&#x2190;" horiz-adv-x="1691" 
d="M51 516l613 479l71 -90l-286 -227l-179 -121h1379v-111h-1375l177 -120l282 -224l-71 -90l-611 477v27z" />
    <glyph glyph-name="uni2191" unicode="&#x2191;" horiz-adv-x="1083" 
d="M528 1499h27l477 -610l-90 -72l-225 285l-119 174v-1432h-115v1432l-118 -176l-224 -281l-92 72z" />
    <glyph glyph-name="uni2192" unicode="&#x2192;" horiz-adv-x="1691" 
d="M956 905l72 90l612 -479v-27l-610 -477l-72 90l283 224l176 120h-1374v111h1378l-180 121z" />
    <glyph glyph-name="uni2193" unicode="&#x2193;" horiz-adv-x="1083" 
d="M483 1499h115v-1431l119 174l225 286l90 -73l-477 -611h-27l-479 609l92 73l224 -282l118 -176v1431z" />
    <glyph glyph-name="uni2194" unicode="&#x2194;" horiz-adv-x="2588" 
d="M1858 905l71 90l608 -479v-27l-606 -477l-71 90l278 224l178 120h-2044l179 -120l278 -224l-72 -90l-606 477v27l608 479l72 -90l-280 -225l-181 -123h2048l-178 123z" />
    <glyph glyph-name="uni2195" unicode="&#x2195;" horiz-adv-x="1083" 
d="M528 1489h27l477 -612l-90 -72l-225 287l-119 174v-1575l119 176l225 285l90 -72l-477 -612h-27l-479 610l92 72l224 -283l118 -176v1575l-118 -176l-224 -283l-92 72z" />
    <glyph glyph-name="uni2196" unicode="&#x2196;" horiz-adv-x="1202" 
d="M125 1257l22 17l730 -197l-29 -110l-338 92l-197 65l836 -1136l-88 -68l-838 1131l13 -205l-13 -363l-112 4z" />
    <glyph glyph-name="uni2197" unicode="&#x2197;" horiz-adv-x="1202" 
d="M324 1077l731 197l20 -17l17 -770l-113 -4l-12 363l12 205l-838 -1131l-88 68l836 1136l-197 -65l-338 -92z" />
    <glyph glyph-name="uni2198" unicode="&#x2198;" horiz-adv-x="1202" 
d="M53 1247l88 68l838 -1131l-12 205l12 363l113 -4l-17 -771l-20 -16l-731 197l30 110l338 -92l199 -63z" />
    <glyph glyph-name="uni2199" unicode="&#x2199;" horiz-adv-x="1202" 
d="M147 -39l-22 16l-14 771l112 4l13 -363l-13 -205l838 1131l88 -68l-838 -1134l199 63l338 92l29 -110z" />
    <glyph glyph-name="uni219E" unicode="&#x219e;" horiz-adv-x="2015" 
d="M578 516l610 477l72 -90l-283 -225l-180 -121h1175v-111h-1171l174 -120l285 -226l-72 -90l-610 479v27zM51 516l590 508l76 -88l-496 -434l496 -432l-76 -88l-590 507v27z" />
    <glyph glyph-name="uni219F" unicode="&#x219f;" horiz-adv-x="1140" 
d="M557 973h27l479 -611l-90 -73l-225 286l-121 175v-1190h-113v1190l-121 -177l-223 -282l-90 74zM557 1499h27l508 -590l-86 -78l-435 498l-432 -495l-90 77z" />
    <glyph glyph-name="uni21A0" unicode="&#x21a0;" horiz-adv-x="2015" 
d="M756 903l71 90l611 -477v-27l-611 -479l-71 90l282 226l176 120h-1171v111h1176l-181 121zM1298 936l76 88l590 -508v-27l-590 -507l-76 88l496 432z" />
    <glyph glyph-name="uni21A1" unicode="&#x21a1;" horiz-adv-x="1140" 
d="M514 1499h113v-1190l121 174l225 287l90 -74l-479 -610h-27l-477 608l90 74l223 -283l121 -176v1190zM49 147l90 78l432 -495l435 497l86 -77l-508 -590h-27z" />
    <glyph glyph-name="uni21B0" unicode="&#x21b0;" horiz-adv-x="1519" 
d="M51 516l613 479l71 -90l-286 -227l-179 -121h1078v-987h-111v876h-963l177 -120l282 -224l-71 -90l-611 477v27z" />
    <glyph glyph-name="uni21B1" unicode="&#x21b1;" horiz-adv-x="1519" 
d="M784 905l72 90l612 -479v-27l-610 -477l-72 90l283 224l176 120h-962v-876h-111v987h1075l-178 121z" />
    <glyph glyph-name="uni21B2" unicode="&#x21b2;" horiz-adv-x="1519" 
d="M1237 1436h111v-990h-1074l175 -120l286 -226l-71 -90l-613 477v27l611 479l71 -92l-282 -221l-181 -123h967v879z" />
    <glyph glyph-name="uni21B3" unicode="&#x21b3;" horiz-adv-x="1519" 
d="M172 1436h111v-879h966l-180 123l-283 221l72 92l610 -479v-27l-612 -477l-72 90l285 226l174 120h-1071v990z" />
    <glyph glyph-name="uni21B4" unicode="&#x21b4;" horiz-adv-x="1611" 
d="M43 557h1083v-833l121 178l226 284l90 -71l-478 -611h-26l-479 609l92 71l223 -280l121 -180v722h-973v111z" />
    <glyph glyph-name="uni21BC" unicode="&#x21bc;" horiz-adv-x="1703" 
d="M31 475l641 520l71 -92l-280 -223l-166 -123h1362v-111h-1628v29z" />
    <glyph glyph-name="uni21BD" unicode="&#x21bd;" horiz-adv-x="1703" 
d="M31 557h1628v-111h-1358l162 -122l280 -222l-71 -92l-641 520v27z" />
    <glyph glyph-name="uni21BE" unicode="&#x21be;" horiz-adv-x="800" 
d="M201 1524h28l521 -637l-93 -74l-225 279l-115 157v-1409h-116v1684z" />
    <glyph glyph-name="uni21BF" unicode="&#x21bf;" horiz-adv-x="800" 
d="M571 1524h27v-1684h-115v1409l-116 -157l-226 -279l-92 74z" />
    <glyph glyph-name="uni21C0" unicode="&#x21c0;" horiz-adv-x="1703" 
d="M961 903l71 92l641 -520v-29h-1628v111h1362l-166 123z" />
    <glyph glyph-name="uni21C1" unicode="&#x21c1;" horiz-adv-x="1703" 
d="M45 557h1628v-27l-641 -520l-71 92l280 222l162 122h-1358v111z" />
    <glyph glyph-name="uni21C2" unicode="&#x21c2;" horiz-adv-x="800" 
d="M201 1524h116v-1407l115 157l225 279l93 -74l-521 -639h-28v1684z" />
    <glyph glyph-name="uni21C3" unicode="&#x21c3;" horiz-adv-x="800" 
d="M483 1524h115v-1684h-27l-522 639l92 74l226 -279l116 -157v1407z" />
    <glyph glyph-name="uni21C4" unicode="&#x21c4;" horiz-adv-x="1720" 
d="M997 1395l74 90l598 -475v-27l-592 -477l-73 90l266 219l176 125h-1393v111h1397l-178 123zM51 49l594 479l74 -90l-268 -219l-181 -127h1397v-110h-1397l181 -123l272 -219l-74 -91l-598 474v26z" />
    <glyph glyph-name="uni21C5" unicode="&#x21c5;" horiz-adv-x="2062" 
d="M1468 1497h113v-1434l121 177l221 276l90 -76l-475 -598h-27l-473 596l90 76l218 -272l122 -179v1434zM524 1499h27l473 -600l-88 -74l-221 277l-121 174v-1432h-115v1432l-121 -176l-217 -273l-92 74z" />
    <glyph glyph-name="uni21C6" unicode="&#x21c6;" horiz-adv-x="1720" 
d="M51 1010l600 475l74 -90l-276 -221l-179 -123h1397v-111h-1393l177 -125l268 -219l-74 -90l-594 477v27zM1001 438l74 90l594 -479v-26l-598 -474l-74 91l275 219l178 123h-1397v110h1397l-178 127z" />
    <glyph glyph-name="uni21C7" unicode="&#x21c7;" horiz-adv-x="1691" 
d="M51 1010l584 458l72 -90l-258 -202l-179 -125h1379v-111h-1375l177 -119l254 -190l-70 -90l-584 442v27zM51 51l584 443l72 -91l-258 -190l-179 -121h1379v-110h-1379l181 -125l254 -201l-70 -90l-584 459v26z" />
    <glyph glyph-name="uni21C8" unicode="&#x21c8;" horiz-adv-x="2062" 
d="M1511 1499h27l475 -600l-90 -74l-221 277l-121 174v-1432h-113v1432l-120 -176l-215 -273l-91 72zM524 1499h27l471 -600l-92 -74l-217 277l-119 174v-1432h-115v1432l-121 -176l-217 -273l-92 72z" />
    <glyph glyph-name="uni21C9" unicode="&#x21c9;" horiz-adv-x="1691" 
d="M985 1378l72 90l583 -458v-27l-583 -442l-70 90l254 190l176 119h-1374v111h1378l-180 125zM985 403l72 91l583 -443v-26l-583 -459l-70 90l254 201l180 125h-1378v110h1378l-180 121z" />
    <glyph glyph-name="uni21CA" unicode="&#x21ca;" horiz-adv-x="2062" 
d="M1468 1499h113v-1431l121 174l221 276l90 -72l-475 -602h-27l-469 600l91 72l215 -272l120 -176v1431zM479 1499h115v-1431l119 174l217 276l92 -72l-471 -602h-27l-475 600l92 72l217 -272l121 -176v1431z" />
    <glyph glyph-name="uni21CB" unicode="&#x21cb;" horiz-adv-x="1689" 
d="M31 680l516 387l71 -92l-141 -101l-170 -112h1352v-109h-1628v27zM31 350h1628v-26l-518 -390l-70 95l139 100l172 113h-1351v108z" />
    <glyph glyph-name="uni21CC" unicode="&#x21cc;" horiz-adv-x="1689" 
d="M1071 975l70 92l518 -387v-27h-1628v109h1351l-172 112zM31 350h1628v-108h-1352l170 -113l141 -100l-71 -95l-516 390v26z" />
    <glyph glyph-name="uni21CD" unicode="&#x21cd;" horiz-adv-x="1900" 
d="M383 350h684l145 303h-829l-172 -151zM51 516l627 551l78 -90l-133 -113l-131 -102h772l135 282l94 -47l-113 -235h469v-109h-520l-145 -303h665v-108h-716l-134 -281l-96 45l113 236h-524l137 -109l127 -106l-80 -90l-625 552v27z" />
    <glyph glyph-name="uni21CE" unicode="&#x21ce;" horiz-adv-x="2580" 
d="M1825 977l78 90l626 -551v-27l-624 -552l-78 90l125 106l139 109h-870l-136 -281l-94 45l113 236h-612l137 -109l127 -106l-80 -90l-625 552v27l627 551l78 -90l-133 -113l-131 -102h858l135 282l96 -47l-113 -235h621l-129 102zM2372 502l-174 151h-781l-145 -303h926z
M383 350h772l143 303h-915l-172 -151z" />
    <glyph glyph-name="uni21CF" unicode="&#x21cf;" horiz-adv-x="1900" 
d="M1145 977l78 90l626 -553v-27l-626 -553l-78 93l133 112l131 103h-768l-135 -283l-96 47l112 236h-471v108h522l144 303h-666v109h717l135 282l96 -47l-112 -235h520l-135 108zM1518 653h-682l-144 -303h826l172 152z" />
    <glyph glyph-name="uni21D0" unicode="&#x21d0;" horiz-adv-x="1710" 
d="M51 516l627 551l78 -90l-133 -113l-131 -102h1175v-109h-1284l-172 -151l172 -152h1284v-108h-1175l137 -109l127 -106l-80 -90l-625 552v27z" />
    <glyph glyph-name="uni21D1" unicode="&#x21d1;" horiz-adv-x="1210" 
d="M592 1499h26l543 -627l-90 -77l-115 135l-92 127v-1213h-108v1323l-150 172l-151 -172v-1323h-109v1213l-98 -135l-107 -125l-92 77z" />
    <glyph glyph-name="uni21D2" unicode="&#x21d2;" horiz-adv-x="1710" 
d="M954 977l78 90l627 -551v-27l-625 -552l-78 90l125 106l138 109h-1176v108h1284l174 152l-174 151h-1284v109h1176l-129 102z" />
    <glyph glyph-name="uni21D3" unicode="&#x21d3;" horiz-adv-x="1210" 
d="M756 1499h108v-1210l92 127l115 133l90 -78l-543 -627h-26l-543 625l92 78l107 -125l98 -135v1212h109v-1323l151 -172l150 172v1323z" />
    <glyph glyph-name="uni21D4" unicode="&#x21d4;" horiz-adv-x="2590" 
d="M1835 977l78 90l627 -551v-27l-625 -552l-78 90l125 106l137 109h-1607l137 -109l127 -106l-80 -90l-625 552v27l627 551l78 -90l-133 -113l-131 -102h1607l-129 102zM2380 502l-172 151h-1825l-172 -151l172 -152h1825z" />
    </font>
</defs>
</svg>
