<?xml version="1.0" standalone="no"?>
<!DOCTYPE svg PUBLIC "-//W3C//DTD SVG 1.1//EN" "http://www.w3.org/Graphics/SVG/1.1/DTD/svg11.dtd" >
<svg xmlns="http://www.w3.org/2000/svg" xmlns:xlink="http://www.w3.org/1999/xlink" version="1.1">
<metadata>
Created by FontForge 20170731 at Fri Aug 27 18:28:15 2021
 By Aleksey,,,
Copyright (c) 2014-16 by David Brezina. All rights reserved.
</metadata>
<defs>
<font id="SkolarSansLatn-El" horiz-adv-x="1128" >
  <font-face 
    font-family="Skolar Sans Latn El"
    font-weight="200"
    font-stretch="normal"
    units-per-em="2048"
    panose-1="2 13 0 0 0 4 0 0 0 0"
    ascent="1536"
    descent="-512"
    x-height="942"
    cap-height="1372"
    bbox="-410 -532 2454 2177"
    underline-thickness="51"
    underline-position="-316"
    unicode-range="U+000D-FC01"
  />
<missing-glyph horiz-adv-x="1378" 
d="M207 1358h964v-1358h-964v1358zM1020 98l-330 494l-330 -494h660zM631 678l-328 493v-989zM1077 182v989l-329 -493zM690 766l330 494h-660z" />
    <glyph glyph-name="f_b" unicode="fb" horiz-adv-x="1636" 
d="M221 1210q0 166 77.5 257.5t238.5 91.5q128 0 235 -37l90 14v-715q140 150 293 150q117 0 200 -66t123 -176t40 -252q0 -77 -15 -147.5t-49 -135.5t-83.5 -112.5t-124 -76t-165.5 -28.5q-152 0 -317 54v1401q-104 36 -227 36q-117 0 -166 -62.5t-49 -188.5v-275h241v-84
h-241v-858h-101v858h-145v84h145v268zM1092 66q133 0 198 61q66 65 94.5 146t28.5 198q0 187 -69.5 298.5t-196.5 111.5q-136 0 -285 -152v-633q113 -30 230 -30z" />
    <glyph glyph-name="f_f" unicode="ff" horiz-adv-x="1159" 
d="M221 1153q0 160 80 254t223 94q132 0 275 -96q66 154 237 154q116 0 232 -99l-47 -65q-94 73 -183 73t-131.5 -66.5t-42.5 -182.5v-277h242v-84h-242v-858h-100v858h-442v-858h-101v858h-145v84h145v211zM764 1210q0 55 10 117q-136 86 -248 86q-104 0 -154 -66t-50 -186
v-219h442v268z" />
    <glyph glyph-name="f_h" unicode="fh" horiz-adv-x="1640" 
d="M221 1210q0 165 76 257t235 92q139 0 240 -37l90 14v-692q169 127 342 127q147 0 208 -83t61 -247v-641h-101v596q0 152 -39 218.5t-145 66.5q-167 0 -326 -121v-760h-98v1432q-104 36 -229 36q-116 0 -164.5 -62t-48.5 -189v-275h241v-84h-241v-858h-101v858h-145v84
h145v268z" />
    <glyph glyph-name="f_i" unicode="fi" horiz-adv-x="1038" 
d="M221 1212q0 160 75 253.5t214 93.5q92 0 179 -40t153 -112l-49 -61q-62 58 -137 90t-142 32q-192 0 -192 -251v-275h540v-942h-100v858h-440v-858h-101v858h-145v84h145v270z" />
    <glyph glyph-name="f_iacute" unicode="f&#xed;" horiz-adv-x="1038" 
d="M221 1210q0 162 69.5 255.5t203.5 93.5q113 0 221 -97l-45 -63q-92 69 -176 69q-88 0 -130 -66.5t-42 -182.5v-277h540v-942h-100v858h-440v-858h-101v858h-145v84h145v268zM702 1137l293 305l66 -64v-8l-307 -285z" />
    <glyph glyph-name="f_j" unicode="fj" horiz-adv-x="1038" 
d="M221 1210q0 162 75.5 255.5t213.5 93.5q189 0 332 -152l-49 -61q-61 58 -136 90t-143 32q-192 0 -192 -251v-275h540v-899q0 -128 -31.5 -228t-80.5 -166t-127 -134l-58 57q97 102 147 212t50 265v809h-440v-858h-101v858h-145v84h145v268z" />
    <glyph glyph-name="f_k" unicode="fk" horiz-adv-x="1544" 
d="M221 1210q0 163 75.5 256t233.5 93q54 0 123.5 -10t118.5 -27l92 14v-1130l496 536h104q-7 -22 -41 -61l-336 -363l359 -446q37 -47 45 -72h-111l-356 451l-160 -168v-283h-100v1432q-104 36 -229 36q-117 0 -165 -62t-48 -189v-275h241v-84h-241v-858h-101v858h-145v84
h145v268z" />
    <glyph glyph-name="f_l" unicode="fl" horiz-adv-x="1071" 
d="M221 1210q0 163 75.5 256t233.5 93q138 0 242 -37l90 14v-1372q0 -96 64 -96q35 0 78 14l22 -78q-73 -27 -127 -27q-135 0 -135 158v1295q-105 38 -229 38q-116 0 -164.5 -62t-48.5 -189v-275h241v-84h-241v-858h-101v858h-145v84h145v268z" />
    <glyph glyph-name="f_lcaron" unicode="f&#x13e;" horiz-adv-x="1073" 
d="M221 1210q0 163 75.5 256t233.5 93q138 0 242 -37l90 14v-1372q0 -96 64 -96q35 0 78 14l22 -78q-73 -27 -127 -27q-135 0 -135 158v1295q-105 38 -229 38q-116 0 -164.5 -62t-48.5 -189v-275h241v-84h-241v-858h-101v858h-145v84h145v268zM1004 1536l96 6l4 -8l-25 -410
h-75v412z" />
    <glyph glyph-name="f_t" unicode="ft" horiz-adv-x="1208" 
d="M768 1223h82v-281h295v-84h-295v-577q0 -124 25 -167.5t96 -43.5q66 0 162 26l20 -78q-109 -41 -213 -41q-105 0 -146.5 62.5t-41.5 218.5v600h-430v-858h-101v858h-145v84h145v266q0 163 70 257t207 94q114 0 225 -99l-45 -65q-101 73 -184 73q-87 0 -129.5 -66.5
t-42.5 -180.5v-279h421z" />
    <glyph glyph-name="f_f_i" unicode="ffi" horiz-adv-x="1583" 
d="M764 1208q0 64 12 119q-136 86 -250 86q-103 0 -153.5 -66.5t-50.5 -185.5v-219h442v266zM76 942h145v211q0 160 80 254t223 94q136 0 277 -98q72 156 252 156q185 0 331 -152l-49 -61q-131 122 -278 122q-193 0 -193 -251v-275h541v-942h-98v858h-443v-858h-100v858
h-442v-858h-101v858h-145v84z" />
    <glyph glyph-name="f_f_b" unicode="ffb" horiz-adv-x="2179" 
d="M764 1208q0 64 12 119q-136 86 -250 86q-104 0 -154 -66t-50 -186v-219h442v266zM1634 66q69 0 121 17.5t78 43.5q66 65 94.5 146t28.5 198q0 187 -69.5 298.5t-196.5 111.5q-133 0 -283 -150v-635q113 -30 227 -30zM76 942h145v211q0 160 80 254t223 94q136 0 277 -98
q72 156 276 156q128 0 238 -37l92 14v-713q141 148 291 148q117 0 200.5 -66t122.5 -176t39 -252q0 -97 -25 -183.5t-75 -159t-136 -115t-198 -42.5q-154 0 -319 54v1399q-107 38 -228 38q-117 0 -166 -62t-49 -189v-275h242v-84h-242v-858h-100v858h-442v-858h-101v858
h-145v84z" />
    <glyph glyph-name="f_f_h" unicode="ffh" horiz-adv-x="2177" 
d="M764 1210q0 62 12 117q-142 86 -256 86q-198 0 -198 -252v-219h442v268zM76 942h145v211q0 161 76.5 254.5t218.5 93.5q139 0 285 -98q70 156 274 156q125 0 234 -37l90 14v-692q169 127 342 127q147 0 207.5 -83t60.5 -247v-641h-100v596q0 152 -39.5 218.5t-145.5 66.5
q-166 0 -325 -121v-760h-99v1432q-101 36 -221 36q-117 0 -166 -62t-49 -189v-275h242v-84h-242v-858h-100v858h-442v-858h-101v858h-145v84z" />
    <glyph glyph-name="f_f_j" unicode="ffj" horiz-adv-x="1583" 
d="M764 1208q0 64 12 117q-139 88 -250 88q-103 0 -153.5 -66.5t-50.5 -185.5v-219h442v266zM76 942h145v211q0 160 80 254t223 94q136 0 277 -98q72 156 252 156q185 0 331 -152l-49 -61q-131 122 -278 122q-193 0 -193 -251v-275h541v-899q0 -128 -32 -228.5t-80 -165.5
t-126 -134l-59 57q98 103 148.5 213t50.5 264v809h-443v-858h-100v858h-442v-858h-101v858h-145v84z" />
    <glyph glyph-name="f_f_k" unicode="ffk" horiz-adv-x="2080" 
d="M764 1210q0 62 12 117q-142 86 -258 86q-196 0 -196 -252v-219h442v268zM76 942h145v211q0 161 76.5 254.5t218.5 93.5q139 0 285 -98q73 156 274 156q121 0 234 -37l90 14v-1133l495 539h107q-7 -22 -41 -61l-336 -363l358 -446q37 -51 43 -72h-108l-356 451l-162 -170
v-281h-99v1432q-104 36 -221 36t-166 -62t-49 -189v-275h242v-84h-242v-858h-100v858h-442v-858h-101v858h-145v84z" />
    <glyph glyph-name="f_f_l" unicode="ffl" horiz-adv-x="1615" 
d="M764 1210q0 62 12 115q-139 88 -250 88q-104 0 -154 -66t-50 -186v-219h442v268zM76 942h145v211q0 160 80 254t221 94q138 0 279 -98q72 156 274 156q136 0 240 -37l92 14v-1372q0 -51 14.5 -73.5t46.5 -22.5q35 0 78 14l23 -78q-69 -27 -127 -27q-65 0 -100 40.5
t-35 117.5v1295q-105 38 -228 38q-118 0 -166.5 -61.5t-48.5 -189.5v-275h242v-84h-242v-858h-100v858h-442v-858h-101v858h-145v84z" />
    <glyph glyph-name="f_f_t" unicode="fft" horiz-adv-x="1751" 
d="M221 1153q0 160 80 254t223 94q132 0 275 -96q66 154 237 154q63 0 117 -24.5t115 -74.5l-47 -65q-101 73 -185 73q-87 0 -129.5 -66.5t-42.5 -182.5v-277h422l27 281h80v-281h297v-84h-297v-577q0 -124 24.5 -167.5t95.5 -43.5q66 0 162 26l23 -78q-112 -41 -215 -41
q-105 0 -147 62.5t-42 218.5v600h-430v-858h-100v858h-442v-858h-101v858h-145v84h145v211zM764 1210q0 57 10 119q-138 84 -248 84q-104 0 -154 -66t-50 -186v-219h442v268z" />
    <glyph glyph-name="T_h" unicode="Th" horiz-adv-x="2015" 
d="M35 1372h1104v162l100 4v-692q167 125 340 125q147 0 207.5 -83t60.5 -247v-641h-100v596q0 152 -39 218.5t-145 66.5q-165 0 -324 -121v-760h-100v1278h-547v-1278h-105v1278h-450z" />
    <glyph glyph-name="uni021A_h" unicode="&#x21a;h" horiz-adv-x="2015" 
d="M35 1372h1104v162l100 4v-692q167 125 340 125q147 0 207.5 -83t60.5 -247v-641h-100v596q0 152 -39 218.5t-145 66.5q-165 0 -324 -121v-760h-100v1278h-547v-1278h-105v1278h-450zM494 -147l90 12q10 -49 10 -111q0 -158 -80 -270l-65 37q53 106 53 223q0 27 -8 109z
" />
    <glyph glyph-name="uni0162_h" unicode="&#x162;h" horiz-adv-x="2015" 
d="M35 1372h1104v162l100 4v-692q167 125 340 125q147 0 207.5 -83t60.5 -247v-641h-100v596q0 152 -39 218.5t-145 66.5q-165 0 -324 -121v-760h-100v1278h-547v-1278h-6l-58 -135q12 2 33 2q79 0 133 -34t54 -105q0 -90 -83.5 -152.5t-242.5 -91.5l-19 70q246 51 246 167
q0 80 -121 80q-37 0 -69 -8l-29 39l66 168h-9v1278h-450z" />
    <glyph glyph-name="jacute" unicode="&#xfc00;" horiz-adv-x="452" arabic-form="isolated" 
d="M176 940l100 4v-901q0 -128 -31.5 -228t-80.5 -166t-127 -134l-57 57q96 103 146 213t50 264v891zM109 1141l290 307l68 -66v-10l-307 -282z" />
    <glyph glyph-name="Jacute" unicode="&#xfc01;" horiz-adv-x="528" arabic-form="isolated" 
d="M219 1372h103v-1294q0 -129 -16.5 -220.5t-56.5 -163t-112.5 -110.5t-179.5 -47l-18 82q73 12 121.5 36.5t80.5 60.5t49 96.5t23 131t6 177.5v1251zM109 1604l397 165l35 -92v-8l-408 -137z" />
    <glyph glyph-name=".notdef" horiz-adv-x="1378" 
d="M207 1358h964v-1358h-964v1358zM1020 98l-330 494l-330 -494h660zM631 678l-328 493v-989zM1077 182v989l-329 -493zM690 766l330 494h-660z" />
    <glyph glyph-name=".null" horiz-adv-x="0" 
 />
    <glyph glyph-name="uni000D" unicode="&#xd;" horiz-adv-x="0" 
 />
    <glyph glyph-name="NULL" horiz-adv-x="0" 
 />
    <glyph glyph-name="NULL" horiz-adv-x="0" 
 />
    <glyph glyph-name="space" unicode=" " horiz-adv-x="450" 
 />
    <glyph glyph-name="exclam" unicode="!" horiz-adv-x="524" 
d="M209 1372h108l-10 -1042h-88zM172 63q0 43 26.5 71t67.5 28q38 0 62 -23.5t24 -60.5q0 -44 -25.5 -72.5t-66.5 -28.5q-40 0 -64 24t-24 62z" />
    <glyph glyph-name="quotedbl" unicode="&#x22;" horiz-adv-x="620" 
d="M367 1550h96l-10 -526h-78zM158 1550h96l-10 -526h-78z" />
    <glyph glyph-name="numbersign" unicode="#" horiz-adv-x="1318" 
d="M319 -2l43 240h-245v84h262l57 325h-248v84h265l45 250l80 -12l-43 -238h335l45 250l82 -12l-43 -238h248v-84h-262l-59 -325h249v-84h-264l-45 -252l-80 12l43 240h-340l-45 -252zM799 322l57 325h-336l-59 -325h338z" />
    <glyph glyph-name="dollar" unicode="$" horiz-adv-x="1087" 
d="M252 1030q0 -52 21 -95.5t62 -76.5t85.5 -56.5t105.5 -47.5v520q-54 -6 -99.5 -21t-86.5 -42t-64.5 -73.5t-23.5 -107.5zM879 340q0 95 -70 159t-191 113v-512q114 14 187.5 71.5t73.5 168.5zM147 1030q0 83 31 147t85.5 103.5t120 61.5t142.5 28v172h92v-170
q92 -4 177.5 -26.5t138.5 -51.5l-39 -84q-143 59 -277 66v-557q76 -30 132.5 -59.5t113.5 -74t88 -104t31 -131.5q0 -83 -28.5 -147.5t-80 -105t-115.5 -63.5t-141 -30v-174h-92v170q-122 3 -236 39t-188 94l48 80q172 -111 376 -117v553q-6 0 -14 4q-61 23 -107.5 45
t-97.5 55.5t-84 71t-54.5 90.5t-21.5 115z" />
    <glyph glyph-name="percent" unicode="%" horiz-adv-x="1419" 
d="M221 18l903 1387l72 -51l-903 -1387zM104 1006q0 104 28 192t88 145.5t142 57.5q78 0 134 -52t82 -133t26 -180q0 -105 -28 -193t-88.5 -146t-143.5 -58q-115 0 -177.5 106t-62.5 261zM508 1032q0 125 -39 207t-111 82q-37 0 -77 -31q-80 -74 -80 -278q0 -126 38 -209.5
t109 -83.5q47 0 82 35q38 39 58 115.5t20 162.5zM817 336q0 78 16.5 148t47.5 126.5t81.5 89.5t112.5 33q114 0 177 -105t63 -259q0 -105 -27.5 -193.5t-87.5 -146.5t-143 -58q-115 0 -177.5 106t-62.5 259zM1219 365q0 125 -38 206.5t-110 81.5q-40 0 -78 -30
q-41 -38 -61.5 -113.5t-20.5 -165.5q0 -125 39 -209t109 -84q47 0 82 35q38 39 58 115.5t20 163.5z" />
    <glyph glyph-name="ampersand" unicode="&#x26;" horiz-adv-x="1472" 
d="M244 1085q0 135 81 223.5t236 88.5q120 0 201.5 -76.5t81.5 -196.5q0 -58 -17 -111.5t-43 -93.5t-68.5 -82t-79.5 -71t-91 -66l10 -12t11 -13t9 -11q167 -210 349 -404q211 213 270 561l100 -2q-21 -160 -102 -328t-205 -294q70 -67 125.5 -97t122.5 -30q75 0 139 36
l39 -71q-71 -58 -182 -58q-87 0 -155.5 37t-155.5 121q-193 -158 -404 -158q-174 0 -281.5 86.5t-107.5 247.5q-2 210 285 404q-76 97 -122 186.5t-46 183.5zM344 1090q0 -133 145 -322q57 38 95.5 69t78.5 74t60 93.5t20 107.5q0 90 -54 143.5t-134 53.5q-100 0 -156 -56
q-55 -61 -55 -163zM522 70q178 0 332 127q-168 168 -365 421q-4 5 -12 15.5t-12 15.5q-39 -27 -66 -48t-62 -54.5t-56.5 -65t-36.5 -73.5t-15 -86q0 -119 78.5 -185.5t214.5 -66.5z" />
    <glyph glyph-name="quotesingle" unicode="'" horiz-adv-x="411" 
d="M158 1550h96l-10 -526h-78z" />
    <glyph glyph-name="parenleft" unicode="(" horiz-adv-x="610" 
d="M121 637q0 282 89 564.5t259 527.5l78 -52q-154 -222 -235.5 -489t-86.5 -551q5 -283 86.5 -546t235.5 -486l-78 -54q-170 245 -259 525t-89 561z" />
    <glyph glyph-name="parenright" unicode=")" horiz-adv-x="610" 
d="M66 1677l77 52q169 -245 257.5 -528t88.5 -564q0 -280 -88.5 -560t-257.5 -526l-77 54q153 223 233.5 486t85.5 546q-5 284 -86 551t-233 489z" />
    <glyph glyph-name="asterisk" unicode="*" horiz-adv-x="958" 
d="M358 1546l72 21l76 -293l203 219l53 -53l-217 -207l295 -70l-21 -73l-289 84l86 -289l-71 -21l-74 293l-203 -219l-53 53l215 207l-293 70l21 73l288 -84z" />
    <glyph glyph-name="plus" unicode="+" 
d="M520 918h90v-357h351v-86h-351v-356h-90v356h-352v86h352v357z" />
    <glyph glyph-name="comma" unicode="," horiz-adv-x="458" 
d="M172 270l98 11q17 -76 17 -142q0 -125 -54 -237t-157 -187l-47 47q153 143 153 371q0 62 -10 137z" />
    <glyph glyph-name="hyphen" unicode="-" horiz-adv-x="731" 
d="M158 528h413v-86h-413v86z" />
    <glyph glyph-name="period" unicode="." horiz-adv-x="483" 
d="M150 63q0 44 26.5 71.5t69.5 27.5q38 0 62 -23t24 -61q0 -46 -25.5 -73.5t-68.5 -27.5q-40 0 -64 24t-24 62z" />
    <glyph glyph-name="slash" unicode="/" horiz-adv-x="790" 
d="M70 -158l565 1602l86 -33l-565 -1601z" />
    <glyph glyph-name="zero" unicode="0" horiz-adv-x="1148" 
d="M131 655q0 144 30.5 276.5t86.5 238t145.5 168.5t198.5 63q102 0 184.5 -56t134.5 -152t79.5 -218t27.5 -258q0 -115 -19 -224t-57.5 -203.5t-92.5 -165.5t-129.5 -112t-162.5 -41q-103 0 -185.5 56t-134 152t-79 218t-27.5 258zM907 713q0 162 -35.5 294.5t-109 216
t-174.5 83.5q-82 0 -154 -56q-53 -41 -92 -111t-59.5 -152.5t-30.5 -163.5t-10 -162q0 -163 35 -295.5t108.5 -216.5t175.5 -84q84 0 152 53q71 56 117 164t61.5 213t15.5 217z" />
    <glyph glyph-name="one" unicode="1" horiz-adv-x="849" 
d="M123 1274l344 100l84 -4v-1278h227l6 -92h-663v92h328v1180l-302 -78z" />
    <glyph glyph-name="two" unicode="2" horiz-adv-x="993" 
d="M127 1270q140 125 336 125q96 0 171 -31t121 -84.5t69.5 -122t23.5 -147.5q0 -77 -24 -155.5t-60 -146t-98.5 -148.5t-120.5 -144.5t-144 -151.5l-170 -172h643l5 -92h-760l-15 100l177 183q120 121 198.5 210t140.5 179.5t90.5 171.5t28.5 162q0 131 -72 211.5
t-208 80.5q-144 0 -281 -96z" />
    <glyph glyph-name="three" unicode="3" horiz-adv-x="993" 
d="M125 1268q150 127 338 127q161 0 256.5 -88t95.5 -236q0 -114 -57.5 -208t-157.5 -144q120 -32 193 -118t73 -214q0 -187 -126 -300.5t-326 -113.5q-162 0 -295 76l35 78q111 -57 258 -57q136 0 225 63q121 83 121 250q0 131 -96 205t-244 74h-86l-4 90h88
q124 0 208.5 91.5t84.5 217.5q0 109 -70.5 173t-187.5 64q-134 0 -275 -96z" />
    <glyph glyph-name="four" unicode="4" horiz-adv-x="1105" 
d="M76 455l610 919l113 -4v-924h217l4 -90h-221v-356h-103v356h-606zM598 1077l-418 -631h516v777h-4z" />
    <glyph glyph-name="five" unicode="5" horiz-adv-x="974" 
d="M164 1372h635l-2 -94h-533l2 -475q112 33 201 33q171 0 282 -101t111 -280q0 -225 -132 -353.5t-343 -128.5q-120 0 -254 52l29 84q123 -39 223 -39q130 0 219 57q150 98 150 319q0 140 -82 219.5t-224 79.5q-110 0 -266 -55l-16 17v665z" />
    <glyph glyph-name="six" unicode="6" horiz-adv-x="1048" 
d="M131 573q0 157 37 301t107 260.5t184 186.5t256 70q70 0 123 -17l-17 -86q-41 8 -86 8q-115 0 -206 -48t-149 -132t-92 -188t-44 -226h2q147 109 323 109q173 0 275 -110.5t102 -278.5q0 -120 -47.5 -221.5t-143 -165.5t-220.5 -64q-88 0 -158.5 34.5t-115.5 91.5
t-75 136t-42.5 163t-12.5 177zM539 66q119 0 196 77q103 95 103 269q0 137 -75 222t-208 85q-79 0 -161.5 -31.5t-153.5 -87.5v-8q0 -113 16 -205.5t50 -166t93.5 -114t139.5 -40.5z" />
    <glyph glyph-name="seven" unicode="7" horiz-adv-x="927" 
d="M78 1372h782l10 -86l-559 -1315l-94 37l541 1270h-674z" />
    <glyph glyph-name="eight" unicode="8" horiz-adv-x="1089" 
d="M186 1071q0 146 102.5 238t266.5 92q152 0 251 -88.5t99 -229.5q0 -197 -213 -370q59 -32 103.5 -64.5t85 -77t62.5 -101.5t22 -124q0 -91 -35 -163.5t-94.5 -118t-135 -69.5t-159.5 -24q-186 0 -301.5 94t-114.5 259q0 71 24.5 134.5t70.5 116.5t89.5 90t104.5 80
q-99 56 -163.5 140.5t-64.5 185.5zM295 1079q0 -105 75.5 -176.5t241.5 -150.5q187 152 187 323q1 102 -69 168t-175 66q-111 0 -186 -62q-74 -64 -74 -168zM545 63q127 0 211 66q100 75 100 211q0 52 -17.5 95.5t-43.5 76t-77 67.5t-96.5 59.5t-123.5 63.5q-54 -36 -96 -70
t-84.5 -81t-65.5 -104t-23 -119q0 -123 89 -194t227 -71z" />
    <glyph glyph-name="nine" unicode="9" horiz-adv-x="1048" 
d="M494 653q167 0 317 121v6q0 114 -16 206t-50.5 166t-94 114.5t-140.5 40.5q-119 0 -197 -78q-102 -94 -102 -268q0 -137 75.5 -222.5t207.5 -85.5zM102 950q0 89 28.5 170t79.5 144t130 100t174 37q88 0 158.5 -34.5t115.5 -91.5t75 -136t42.5 -163t12.5 -177
q0 -124 -22.5 -241.5t-70 -222.5t-115.5 -183t-165 -124t-211 -46q-73 0 -123 16l16 86q41 -8 86 -8q115 0 206 48t149.5 132t93 188t45.5 226h-4q-147 -109 -324 -109q-173 0 -275 110.5t-102 278.5z" />
    <glyph glyph-name="colon" unicode=":" horiz-adv-x="503" 
d="M160 772q0 43 25.5 69.5t68.5 26.5q38 0 61 -23t23 -61q0 -44 -25.5 -71t-66.5 -27q-38 0 -62 24t-24 62zM166 76q0 43 26 70.5t68 27.5q38 0 61 -24t23 -62q0 -44 -25.5 -71t-66.5 -27q-38 0 -62 24t-24 62z" />
    <glyph glyph-name="semicolon" unicode=";" horiz-adv-x="503" 
d="M219 270l98 11q15 -67 15 -142q0 -125 -53.5 -237t-155.5 -187l-47 47q153 143 153 371q0 25 -10 137zM164 772q0 43 25.5 69.5t68.5 26.5q38 0 61 -23t23 -61q0 -44 -25.5 -71t-66.5 -27q-38 0 -62 24t-24 62z" />
    <glyph glyph-name="less" unicode="&#x3c;" 
d="M166 563l723 361l43 -78l-647 -328l647 -328l-43 -79l-723 360v92z" />
    <glyph glyph-name="equal" unicode="=" 
d="M182 682h764v-86h-764v86zM182 438h764v-86h-764v86z" />
    <glyph glyph-name="greater" unicode="&#x3e;" 
d="M199 846l41 78l723 -361v-92l-723 -360l-41 79l645 328z" />
    <glyph glyph-name="question" unicode="?" horiz-adv-x="786" 
d="M80 1319q145 82 295 82q144 0 231.5 -73t87.5 -210q0 -69 -25.5 -134.5t-56 -107.5t-80.5 -98q-36 -39 -60.5 -71t-49.5 -77t-37.5 -98t-11.5 -114q0 -34 4 -84l-90 -6q-13 60 -13 102q0 57 11.5 109.5t26 88.5t42.5 77t46.5 63t52.5 59q139 147 139 285
q0 97 -61.5 149.5t-174.5 49.5q-118 0 -237 -64zM248 63q0 43 26 71t68 28q38 0 61 -23.5t23 -60.5q0 -44 -25.5 -72.5t-66.5 -28.5q-38 0 -62 24t-24 62z" />
    <glyph glyph-name="at" unicode="@" horiz-adv-x="1548" 
d="M127 453q0 212 78.5 375.5t235 259t370.5 94.5q183 -1 320 -75t209.5 -205.5t72.5 -301.5q0 -117 -27.5 -206.5t-69.5 -141t-101.5 -83.5t-114 -43t-115.5 -11l-18 104q-112 -115 -240 -115q-127 0 -204 105.5t-77 279.5q0 71 19 139t56 126t99 93.5t140 35.5
q116 0 213 -54l12 45l76 -10l-8 -96q-6 -76 -6 -166v-213q0 -64 8 -166l2 -24q262 28 262 395q0 228 -138.5 366.5t-377.5 139.5q-276 1 -429 -175t-153 -466q0 -139 42.5 -252.5t115 -185t164 -110.5t192.5 -40q151 0 305 72l35 -70q-158 -84 -348 -84q-119 1 -227 46
t-191 127.5t-132.5 209.5t-49.5 281zM741 184q101 0 215 111v461q-82 49 -182 49q-87 0 -147 -60q-43 -46 -64.5 -103t-21.5 -146q0 -141 52.5 -226.5t147.5 -85.5z" />
    <glyph glyph-name="A" unicode="A" horiz-adv-x="1165" 
d="M584 1235l-250 -723h491l-139 414l-96 309h-6zM528 1368l115 8l408 -1198q9 -30 28.5 -89.5t28.5 -88.5h-109l-143 422h-555l-145 -422h-109q44 130 62 176z" />
    <glyph glyph-name="B" unicode="B" horiz-adv-x="1161" 
d="M207 1362q207 33 319 33q204 0 322.5 -82t118.5 -252q0 -109 -53 -198t-158 -134q136 -27 212 -112.5t76 -229.5q0 -187 -128.5 -298.5t-370.5 -111.5q-147 0 -338 31v1354zM518 1300q-101 0 -209 -18v-516h230q123 0 194 41q65 34 95 97t30 136q0 260 -340 260zM559 72
q169 0 260 67q115 85 115 248q0 137 -99.5 213t-297.5 76q-154 0 -228 -2v-588q123 -14 250 -14z" />
    <glyph glyph-name="C" unicode="C" horiz-adv-x="1177" 
d="M125 664q0 113 22.5 218.5t70 199t116.5 163t168 110t217 40.5q207 0 358 -109l-43 -80q-81 48 -155 70t-162 22q-195 0 -309 -120q-172 -183 -172 -504q0 -96 16 -182t52.5 -164t91 -134t137.5 -89t186 -33q165 0 340 86l35 -80q-190 -101 -385 -101q-146 0 -259.5 54.5
t-183.5 149.5t-105.5 217.5t-35.5 265.5z" />
    <glyph glyph-name="D" unicode="D" horiz-adv-x="1323" 
d="M207 1362q183 33 366 33q285 0 455 -187t170 -497q0 -210 -80.5 -377t-228 -262t-336.5 -95q-200 0 -346 31v1354zM559 72q154 0 260 71q131 85 202 233.5t69 323.5q-2 271 -142 435.5t-385 164.5q-117 0 -254 -20v-1192q106 -16 250 -16z" />
    <glyph glyph-name="E" unicode="E" horiz-adv-x="1071" 
d="M207 1372h745l-4 -92h-639v-532h522v-93h-522v-563h641l4 -92h-747v1372z" />
    <glyph glyph-name="F" unicode="F" horiz-adv-x="1034" 
d="M207 1372h745l-4 -92h-639v-567h522v-92h-522v-621h-102v1372z" />
    <glyph glyph-name="G" unicode="G" horiz-adv-x="1245" 
d="M125 655q0 116 22.5 222.5t71 201.5t118 165t170 110.5t220.5 40.5q208 0 354 -109l-43 -80q-164 97 -319 97q-187 0 -309 -125q-88 -90 -131 -222.5t-43 -285.5q0 -95 16 -179.5t53 -162.5t92 -134t139 -89t189 -33q139 0 274 55v457h-366v92h467v-598
q-187 -101 -381 -101q-123 0 -223 35.5t-168 97.5t-114.5 148.5t-67.5 185.5t-21 211z" />
    <glyph glyph-name="H" unicode="H" horiz-adv-x="1331" 
d="M1022 1372h102v-1372h-102v655h-713v-655h-102v1372h102v-627h713v627z" />
    <glyph glyph-name="I" unicode="I" horiz-adv-x="516" 
d="M207 1372h102v-1372h-102v1372z" />
    <glyph glyph-name="J" unicode="J" horiz-adv-x="528" 
d="M219 1372h103v-1294q0 -129 -16.5 -220.5t-56.5 -163t-112.5 -110.5t-179.5 -47l-18 82q73 12 121.5 36.5t80.5 60.5t49 96.5t23 131t6 177.5v1251z" />
    <glyph glyph-name="K" unicode="K" horiz-adv-x="1138" 
d="M961 1372h120q-14 -28 -45 -59l-481 -514l442 -666q29 -42 82 -133h-118l-478 721l-174 -184v-537h-102v1372h102v-700h4z" />
    <glyph glyph-name="L" unicode="L" horiz-adv-x="987" 
d="M207 1372h102v-1280h621l4 -92h-727v1372z" />
    <glyph glyph-name="M" unicode="M" horiz-adv-x="1628" 
d="M1194 1372h131l164 -1251q2 -22 7 -62.5t7 -58.5h-100l-127 967l-25 239h-6l-385 -1206h-108l-303 967l-66 239h-4l-156 -1206h-96q10 98 14 125l162 1247h127l315 -999l60 -223h6z" />
    <glyph glyph-name="N" unicode="N" horiz-adv-x="1366" 
d="M207 1372h119l653 -1077l84 -158h2l-6 185v1050h100v-1372h-123l-653 1077l-82 154h-2l6 -158v-1073h-98v1372z" />
    <glyph glyph-name="O" unicode="O" horiz-adv-x="1384" 
d="M125 668q0 75 10 149.5t32 147t54.5 137t79 120t103.5 95t130.5 62t157.5 22.5q131 0 239 -54.5t179.5 -149t110.5 -221t39 -271.5q0 -107 -20 -209.5t-65 -198t-109.5 -167.5t-161 -115.5t-212.5 -43.5q-174 0 -304.5 94.5t-196.5 251.5t-66 351zM1151 686
q0 130 -31 243t-88 197t-145 132.5t-195 48.5q-139 0 -252 -86q-106 -86 -155 -230t-49 -305q0 -175 52.5 -314t158 -222.5t247.5 -83.5q139 0 252 86q106 86 155.5 229.5t49.5 304.5z" />
    <glyph glyph-name="P" unicode="P" horiz-adv-x="1105" 
d="M461 625q167 0 260 45q84 38 131 116.5t47 190.5q0 166 -98.5 244.5t-298.5 78.5q-71 0 -193 -18v-649q65 -8 152 -8zM207 1362q155 30 293 33q253 3 381.5 -102t128.5 -306q0 -211 -139.5 -334t-397.5 -123q-83 0 -164 11v-541h-102v1362z" />
    <glyph glyph-name="Q" unicode="Q" horiz-adv-x="1384" 
d="M125 668q0 75 10 149.5t32 147t54.5 137t79 120t103.5 95t130.5 62t157.5 22.5q131 0 239 -54.5t179.5 -149t110.5 -221t39 -271.5q0 -127 -29.5 -246.5t-87.5 -223.5t-156.5 -174.5t-224.5 -85.5q121 -202 336 -202q60 0 137 18l20 -86q-83 -27 -176 -27
q-271 0 -426 295q-163 10 -284 106t-182.5 249t-61.5 340zM1151 686q0 130 -31 243t-88 197t-145 132.5t-195 48.5q-139 0 -252 -86q-106 -86 -155 -230t-49 -305q0 -175 52.5 -314t158 -222.5t247.5 -83.5q139 0 252 86q106 86 155.5 229.5t49.5 304.5z" />
    <glyph glyph-name="R" unicode="R" horiz-adv-x="1144" 
d="M473 682q148 0 250 45q81 33 128.5 104.5t47.5 169.5q0 299 -397 299q-67 0 -193 -18v-592q110 -8 164 -8zM207 1362q172 33 301 33q240 0 371 -97.5t131 -285.5q0 -138 -77 -240t-222 -149l268 -502q18 -32 59 -121h-114l-318 600q-68 -10 -133 -10q-69 0 -164 10v-600
h-102v1362z" />
    <glyph glyph-name="S" unicode="S" horiz-adv-x="1083" 
d="M145 1028q0 96 40.5 170.5t108 117t146.5 64t166 21.5q83 0 171.5 -20.5t154.5 -53.5l-35 -84q-153 60 -305 60q-47 0 -92 -7.5t-91 -26.5t-80 -48t-55.5 -75t-21.5 -104q0 -51 19 -93.5t45.5 -70.5t74.5 -55.5t86.5 -43.5t100.5 -38l18 -6q158 -59 226 -103
q155 -101 155 -280q0 -77 -25.5 -141t-69.5 -107.5t-103.5 -74t-126 -44.5t-138.5 -14q-111 0 -227 36.5t-189 96.5l45 80q176 -116 379 -116q63 0 122 15.5t110.5 46.5t82.5 86t31 126q0 39 -11 73t-25 58.5t-44 49t-51.5 39t-66 34.5t-67 28.5t-74.5 27.5q-13 5 -19 7
q-67 25 -108.5 43.5t-96 51.5t-85.5 68t-53 88.5t-22 117.5z" />
    <glyph glyph-name="T" unicode="T" horiz-adv-x="1112" 
d="M51 1372h1010l-2 -94h-451v-1278h-102v1278h-451z" />
    <glyph glyph-name="U" unicode="U" horiz-adv-x="1273" 
d="M979 1372h102v-848q0 -99 -13.5 -179.5t-46 -151.5t-83.5 -119t-129.5 -75.5t-179.5 -27.5q-436 0 -436 500v901h102v-864q0 -84 8.5 -147.5t32 -121.5t62.5 -95.5t101.5 -59t147.5 -21.5q69 0 128 24t95 58q109 101 109 338v889z" />
    <glyph glyph-name="V" unicode="V" horiz-adv-x="1173" 
d="M1016 1372h106q-11 -38 -65 -198l-416 -1170l-115 -8l-405 1178q-61 180 -66 198h113l313 -921l99 -316h6z" />
    <glyph glyph-name="W" unicode="W" horiz-adv-x="1806" 
d="M1647 1372h108q-9 -34 -31.5 -104.5t-27.5 -87.5l-359 -1176l-129 -8l-258 1081l-30 150h-7l-344 -1223l-127 -8l-317 1184q-44 165 -51 192h110l267 -991l53 -238h6l340 1229h135l240 -995l51 -238h6z" />
    <glyph glyph-name="X" unicode="X" horiz-adv-x="1138" 
d="M98 1372h119l358 -581l383 581h109q-10 -22 -47 -82l-383 -583l375 -605q41 -63 59 -102h-119l-381 621h-2l-409 -621h-113q18 36 62 102l397 605l-363 583q-38 63 -45 82z" />
    <glyph glyph-name="Y" unicode="Y" horiz-adv-x="1056" 
d="M905 1372h109q-13 -29 -80 -147l-356 -641v-584h-103v582l-346 643q-36 60 -80 147h115l268 -495l96 -177h2z" />
    <glyph glyph-name="Z" unicode="Z" horiz-adv-x="1134" 
d="M127 1372h893l18 -96l-843 -1184h833l2 -92h-938l-12 98l838 1182h-789z" />
    <glyph glyph-name="bracketleft" unicode="[" horiz-adv-x="700" 
d="M207 -430v2142h416v-88l-316 -4v-1960l316 -4v-86h-416z" />
    <glyph glyph-name="backslash" unicode="\" horiz-adv-x="790" 
d="M72 1411l86 33l563 -1602l-86 -32z" />
    <glyph glyph-name="bracketright" unicode="]" horiz-adv-x="700" 
d="M78 -344l315 4v1960l-315 4v88h416v-2142h-416v86z" />
    <glyph glyph-name="asciicircum" unicode="^" horiz-adv-x="933" 
d="M440 1366l52 6l307 -438l-80 -64l-252 361l-254 -361l-78 62z" />
    <glyph glyph-name="underscore" unicode="_" horiz-adv-x="958" 
d="M0 -88h958v-86h-958v86z" />
    <glyph glyph-name="grave" unicode="`" horiz-adv-x="819" 
d="M199 1382l67 66l293 -307l-51 -51l-309 282v10z" />
    <glyph glyph-name="a" unicode="a" horiz-adv-x="942" 
d="M135 813q188 152 375 152q139 0 200.5 -87t61.5 -274v-252q0 -125 16 -346l-83 -12l-25 139q-174 -156 -346 -156q-107 0 -172.5 62.5t-65.5 169.5q0 135 117 215q123 84 459 111v28q0 172 -38.5 241.5t-135.5 69.5q-152 0 -322 -126zM346 61q155 0 326 160v234
q-317 -33 -402 -90q-73 -57 -73 -146q0 -74 41 -116t108 -42z" />
    <glyph glyph-name="b" unicode="b" horiz-adv-x="1044" 
d="M172 1534l100 4v-715q141 148 291 148q117 0 200.5 -66t123 -176t39.5 -252q0 -97 -25 -183.5t-75 -159t-136 -115t-198 -42.5q-155 0 -320 54v1503zM500 66q69 0 120.5 17.5t77.5 43.5q66 65 94.5 146t28.5 198q0 187 -69.5 298.5t-196.5 111.5q-133 0 -283 -150v-635
q113 -30 228 -30z" />
    <glyph glyph-name="c" unicode="c" horiz-adv-x="892" 
d="M119 453q0 228 113 370t294 142q176 0 277 -154l-58 -53q-55 60 -107 88t-120 28q-96 0 -170 -59q-125 -103 -125 -348q0 -196 82.5 -297.5t226.5 -101.5q107 0 242 55l27 -78q-156 -68 -279 -68q-186 0 -294.5 129.5t-108.5 346.5z" />
    <glyph glyph-name="d" unicode="d" horiz-adv-x="1052" 
d="M477 61q77 0 145.5 43t151.5 125v588q-111 66 -233 66q-128 0 -203 -72q-115 -107 -115 -344q0 -175 67 -290.5t187 -115.5zM119 446q0 98 24 187.5t72.5 167t133.5 124t196 46.5q115 0 229 -68v631l100 4v-1219q0 -99 17 -313l-86 -12l-23 147q-77 -80 -152.5 -125
t-166.5 -45q-152 0 -247 135.5t-97 339.5z" />
    <glyph glyph-name="e" unicode="e" horiz-adv-x="972" 
d="M119 463q0 142 49.5 257t143 182t214.5 67q158 0 243 -104.5t85 -264.5q0 -72 -12 -143h-621q3 -190 89.5 -289.5t224.5 -99.5q135 0 270 55l29 -74q-156 -72 -318 -72q-82 0 -153 31t-126 90t-86.5 153t-31.5 212zM522 883q-127 0 -206 -93t-93 -255h527q4 54 4 79
q0 117 -61.5 193t-170.5 76z" />
    <glyph glyph-name="f" unicode="f" horiz-adv-x="618" 
d="M221 1208q0 164 70 257.5t205 93.5q116 0 229 -99l-47 -65q-95 73 -184 73q-87 0 -129.5 -66.5t-42.5 -182.5v-277h241v-84h-241v-858h-101v858h-145v84h145v266z" />
    <glyph glyph-name="g" unicode="g" horiz-adv-x="970" 
d="M217 162q0 87 76 172q-86 37 -131 114t-45 175q0 64 21 123t62 109t110 80t157 30q115 0 195 -52q98 101 241 107l4 -90q-95 -8 -190 -60q92 -92 92 -235q0 -90 -37.5 -164t-118 -122t-192.5 -48q-48 0 -96 10q-54 -64 -54 -123q0 -27 10.5 -45.5t26 -29t45.5 -15.5
t57.5 -6.5t73.5 -1.5q373 0 373 -260q0 -109 -63.5 -190.5t-163.5 -120.5t-221 -39q-170 0 -276 78t-105 209q0 95 46.5 167.5t135.5 133.5q-33 38 -33 94zM465 -434q167 0 262 82q74 71 74 172q0 57 -22.5 94t-68 55.5t-97.5 25.5t-128 7q-105 0 -168 23
q-76 -50 -115.5 -109t-39.5 -137q0 -103 80.5 -158t222.5 -55zM713 627q0 118 -65 186t-187 68q-112 0 -179 -66t-67 -180q0 -115 62.5 -183.5t187.5 -68.5q111 0 179.5 63.5t68.5 180.5z" />
    <glyph glyph-name="h" unicode="h" horiz-adv-x="1052" 
d="M176 1534l100 4v-692q167 125 342 125q146 0 206.5 -83t60.5 -247v-641h-101v596q0 153 -38 219t-144 66q-167 0 -326 -121v-760h-100v1534z" />
    <glyph glyph-name="i" unicode="i" horiz-adv-x="452" 
d="M176 940l100 4v-944h-100v940zM147 1223q0 40 24 64t62 24q35 0 56.5 -21.5t21.5 -58.5q0 -38 -23 -62t-61 -24q-37 0 -58.5 21.5t-21.5 56.5z" />
    <glyph glyph-name="j" unicode="j" horiz-adv-x="452" 
d="M176 940l100 4v-901q0 -128 -31.5 -228t-80.5 -166t-127 -134l-57 57q96 103 146 213t50 264v891zM141 1223q0 40 24 64t62 24q35 0 56.5 -21.5t21.5 -58.5q0 -38 -23 -62t-61 -24q-37 0 -58.5 21.5t-21.5 56.5z" />
    <glyph glyph-name="k" unicode="k" horiz-adv-x="956" 
d="M772 942h105q-7 -22 -41 -61l-334 -363l356 -446q37 -47 45 -72h-110l-355 451l-162 -175v-276h-100v1534l100 4v-1132z" />
    <glyph glyph-name="l" unicode="l" horiz-adv-x="483" 
d="M176 1534l100 4v-1374q0 -51 15 -73.5t47 -22.5q35 0 78 14l22 -78q-73 -27 -129 -27q-64 0 -98.5 40.5t-34.5 117.5v1399z" />
    <glyph glyph-name="m" unicode="m" horiz-adv-x="1593" 
d="M162 944l86 10l22 -139q83 77 163.5 116.5t172.5 39.5q177 0 228 -164q85 80 168 122t176 42q132 0 189.5 -84.5t57.5 -253.5v-633h-100v596q2 150 -37 217.5t-133 67.5q-132 0 -307 -148q6 -46 6 -100v-633h-100v596q0 151 -38.5 218t-131.5 67q-132 0 -303 -144v-737
h-101v594q0 151 -18 350z" />
    <glyph glyph-name="n" unicode="n" horiz-adv-x="1056" 
d="M162 944l86 10l22 -137q174 154 351 154q148 0 207 -82.5t59 -247.5v-641h-99v600q0 147 -40 214t-144 67q-152 0 -323 -144v-737h-101v594q0 141 -18 350z" />
    <glyph glyph-name="o" unicode="o" horiz-adv-x="1044" 
d="M119 463q0 91 24.5 178t72 162.5t128.5 121.5t184 46q182 0 290 -138.5t108 -353.5q0 -72 -14.5 -142.5t-47 -137t-79 -117t-116 -81t-153.5 -30.5q-121 0 -212 64t-138 175t-47 253zM823 467q0 183 -80 298.5t-225 115.5q-113 0 -186 -70q-111 -111 -111 -336
q0 -185 79.5 -299.5t225.5 -114.5q117 0 189 72q108 108 108 334z" />
    <glyph glyph-name="p" unicode="p" horiz-adv-x="1052" 
d="M512 59q128 0 203 72q116 108 116 344q0 175 -69 290.5t-195 115.5q-77 0 -140.5 -35t-145.5 -109v-616q110 -62 231 -62zM162 944l86 10l22 -137q74 74 146 114t164 40q160 0 257 -135t97 -342q0 -77 -14.5 -150t-47 -141t-80.5 -119.5t-120 -82t-160 -30.5
q-122 0 -231 68v-531h-101v1084q0 133 -18 352z" />
    <glyph glyph-name="q" unicode="q" horiz-adv-x="1046" 
d="M121 465q0 75 14.5 145t48.5 135.5t84 113.5t126 77t171 29q77 0 144.5 -13t164.5 -41l-2 -1403h-100v568q-140 -105 -289 -105q-113 0 -196.5 67t-124.5 177.5t-41 249.5zM496 59q122 0 276 101l2 684q-112 33 -221 33q-131 0 -205 -62q-125 -109 -125 -346
q0 -183 74.5 -296.5t198.5 -113.5z" />
    <glyph glyph-name="r" unicode="r" horiz-adv-x="702" 
d="M162 944l86 10l26 -188q105 199 269 199q68 0 125 -33l-25 -88q-49 16 -108 16q-71 0 -137.5 -53.5t-116.5 -155.5v-651h-101v594q0 133 -18 350z" />
    <glyph glyph-name="s" unicode="s" horiz-adv-x="849" 
d="M137 711q0 115 88 184.5t215 69.5q77 0 149 -25.5t124 -67.5l-45 -67q-109 72 -226 72q-91 0 -146.5 -41t-55.5 -113q0 -33 13.5 -60.5t30.5 -45.5t50.5 -37t56 -28.5t64.5 -25.5q40 -15 63 -24t58 -25.5t55 -30t44.5 -35t37 -44t21.5 -52.5t9 -65q0 -123 -92.5 -198
t-240.5 -75q-163 0 -314 111l47 68q139 -93 265 -93q103 0 168 47t65 130q0 20 -4 38t-14 33.5t-19 27.5t-28 25t-31 20.5t-37 19t-38 17t-43 17.5t-42 17q-58 22 -97.5 43t-76.5 51t-55.5 70.5t-18.5 91.5z" />
    <glyph glyph-name="t" unicode="t" horiz-adv-x="671" 
d="M233 1223h80v-281h297v-84h-297v-577q0 -124 25 -167.5t96 -43.5q66 0 162 26l22 -78q-112 -41 -215 -41q-105 0 -146.5 62.5t-41.5 218.5v600h-145v84h137z" />
    <glyph glyph-name="u" unicode="u" horiz-adv-x="1038" 
d="M168 940l100 4v-608q0 -142 44 -208.5t141 -66.5q139 0 307 168v713h100v-588q0 -115 17 -348l-84 -12l-25 147q-170 -170 -338 -170q-262 0 -262 330v639z" />
    <glyph glyph-name="v" unicode="v" horiz-adv-x="935" 
d="M772 942h94q0 -34 -16 -74l-334 -866l-102 -4l-324 870q-14 44 -14 74h96l242 -663q30 -81 49 -154h8z" />
    <glyph glyph-name="w" unicode="w" horiz-adv-x="1492" 
d="M702 940l99 4l209 -680l39 -139h8l264 817h94q0 -30 -14 -74l-297 -866l-107 -4l-213 674l-32 119h-4l-250 -789l-107 -4l-301 870q-16 50 -16 74h98l225 -678l43 -139h9z" />
    <glyph glyph-name="x" unicode="x" horiz-adv-x="911" 
d="M109 942h106l244 -369h2l246 369h96q-1 -8 -2.5 -15t-6.5 -16.5t-7 -12.5t-10 -16t-9 -14l-252 -368l291 -426l8 -12t8 -12.5t6.5 -11.5t6.5 -13t4 -11.5t2 -13.5h-101l-290 428l-287 -428h-96q4 30 36 74l287 428l-248 366q-30 47 -34 74z" />
    <glyph glyph-name="y" unicode="y" horiz-adv-x="940" 
d="M776 942h92q0 -24 -16 -74l-373 -985q-85 -205 -175.5 -296t-194.5 -91q-43 0 -64 6v80q123 1 208 98t175 320h-10l-324 868q-16 40 -16 74h98l242 -663q14 -38 49 -154h6z" />
    <glyph glyph-name="z" unicode="z" horiz-adv-x="901" 
d="M121 942h659l19 -78l-586 -780h580l4 -84h-691l-14 78l588 782h-557z" />
    <glyph glyph-name="braceleft" unicode="{" horiz-adv-x="706" 
d="M57 608v72q37 4 66 12t49.5 22t35 27.5t23.5 37t14.5 40t7.5 46.5t2.5 47.5t0.5 52.5v4q0 70 -7 183t-7 169q0 96 28 168.5t81 118t118.5 72t151.5 38.5l16 -78q-71 -16 -121 -37.5t-91 -57.5t-61 -93t-20 -135q0 -67 7 -178.5t7 -169.5q0 -47 -1 -71.5t-5 -64t-14 -63
t-27 -51t-44.5 -46t-65.5 -30.5q38 -12 65.5 -30.5t44.5 -45.5t27 -50.5t14 -62.5t5 -64t1 -71q0 -58 -7 -173.5t-7 -182.5q0 -76 20 -132t60.5 -93t91 -59.5t121.5 -38.5l-16 -80q-86 13 -151.5 39.5t-118.5 72.5t-81 118.5t-28 168.5q0 56 7 173t7 187v46t-2 43.5t-5 43.5
t-10 37.5t-16.5 36t-24.5 29t-34.5 25.5t-46.5 17t-60 11z" />
    <glyph glyph-name="bar" unicode="|" horiz-adv-x="503" 
d="M207 1741h92v-2183h-92v2183z" />
    <glyph glyph-name="braceright" unicode="}" horiz-adv-x="706" 
d="M70 1640l16 78q86 -12 151.5 -38.5t118.5 -72t81 -118t28 -168.5q0 -56 -8 -169t-8 -183q0 -36 0.5 -53t2.5 -48.5t7.5 -47.5t14.5 -40t23.5 -37.5t35 -28t50 -22.5t66.5 -12v-72q-145 -14 -182 -116q-18 -52 -18 -173q0 -70 8 -187t8 -173q0 -96 -28 -168.5t-81 -118.5
t-118.5 -72.5t-151.5 -39.5l-18 80q72 16 122.5 38.5t91 59.5t60.5 92.5t20 132.5q0 67 -7 182.5t-7 173.5q0 39 0.5 61t3.5 56t9 55t17.5 47.5t28 43.5t41.5 33.5t58 27.5q-33 11 -58 27.5t-41.5 34t-28 44t-17.5 47.5t-9 55.5t-3.5 56.5t-0.5 61q0 58 7 169.5t7 178.5
q0 79 -20 135.5t-61 92.5t-90.5 57.5t-120.5 37.5z" />
    <glyph glyph-name="asciitilde" unicode="~" horiz-adv-x="1067" 
d="M692 496q53 0 88.5 33.5t67.5 95.5l63 -31q-31 -81 -86 -132.5t-133 -51.5q-46 0 -90.5 20t-74 43.5t-67.5 43.5t-73 20q-53 0 -92 -32.5t-76 -90.5l-63 35q38 76 97 125t136 49q47 0 92.5 -20t74.5 -43.5t66 -43.5t70 -20z" />
    <glyph glyph-name="uni00A0" unicode="&#xa0;" horiz-adv-x="450" 
 />
    <glyph glyph-name="exclamdown" unicode="&#xa1;" horiz-adv-x="495" 
d="M205 612h88l10 -1042h-108zM160 879q0 38 24 62t62 24q41 0 66.5 -28.5t25.5 -72.5q0 -37 -24 -60.5t-62 -23.5q-41 0 -66.5 28t-25.5 71z" />
    <glyph glyph-name="cent" unicode="&#xa2;" horiz-adv-x="1071" 
d="M125 459q0 214 114.5 350.5t303.5 155.5v170h90v-170q105 -7 184 -54.5t127 -124.5l-59 -55q-112 127 -252 141v-798q140 7 274 80l35 -72q-47 -34 -130 -64.5t-179 -37.5v-166h-90v166q-188 14 -303 143t-115 336zM227 465q0 -173 86 -273t230 -118v796
q-92 -12 -156 -55q-160 -110 -160 -350z" />
    <glyph glyph-name="sterling" unicode="&#xa3;" horiz-adv-x="1009" 
d="M287 735q0 166 17.5 285t58.5 207.5t111.5 132t172.5 43.5q126 0 232 -62l-37 -77q-103 45 -191 45q-103 0 -164 -70q-55 -63 -75.5 -187t-20.5 -319h303v-92h-305q-9 -185 -53 -326.5t-109 -222.5h666l4 -92h-786l-11 90q169 173 185 551h-156v92h158v2z" />
    <glyph glyph-name="currency" unicode="&#xa4;" horiz-adv-x="1046" 
d="M207 563q0 122 74 215l-140 135l58 56l137 -138q81 58 182 58q112 0 191 -66l147 146l57 -56l-149 -145q65 -86 65 -205q0 -118 -63 -203l147 -163l-57 -56l-143 162q-83 -67 -195 -67q-106 0 -184 59l-135 -154l-58 56l138 151q-72 90 -72 215zM743 563q0 102 -61 173
t-164 71t-165 -71.5t-62 -172.5q0 -103 62 -175.5t165 -72.5t164 72.5t61 175.5z" />
    <glyph glyph-name="yen" unicode="&#xa5;" horiz-adv-x="1163" 
d="M954 1372h111q-54 -102 -82 -147l-332 -561h344v-84h-368v-185h368v-86h-368v-309h-103v309h-356v86h356v185h-356v84h334l-324 561q-16 27 -80 147h115l246 -444l119 -199h2z" />
    <glyph glyph-name="brokenbar" unicode="&#xa6;" horiz-adv-x="501" 
d="M205 1741h92v-2183h-92v2183zM297 489v320h-92v-320h92z" />
    <glyph glyph-name="section" unicode="&#xa7;" horiz-adv-x="905" 
d="M412 342q17 -8 108 -57q81 60 127.5 125t46.5 151q0 80 -49.5 136t-150.5 106q-23 11 -109 57q-80 -59 -127 -125t-47 -151q0 -81 49.5 -136t151.5 -106zM186 1122q-1 133 93 206t231 73q132 0 250 -64l-37 -80q-106 52 -213 52q-99 0 -160 -46t-61 -135q0 -23 6.5 -44.5
t14 -37.5t26 -33.5t31 -28t39.5 -27t41 -24t48 -25.5t48 -25q122 -64 187 -135.5t65 -180.5q0 -181 -203 -329q127 -97 127 -215q1 -133 -93 -206t-231 -73q-134 0 -250 63l37 80q104 -51 213 -51q99 0 160 45.5t61 134.5q0 26 -6 48.5t-22.5 43t-29 34.5t-43 33t-44.5 27.5
t-55 30.5t-54 29q-59 31 -99 58.5t-77.5 65.5t-56 85t-18.5 104q0 179 202 330q-127 97 -127 217z" />
    <glyph glyph-name="dieresis" unicode="&#xa8;" horiz-adv-x="819" 
d="M500 1217q0 33 22 55t58 22q30 0 49.5 -18.5t19.5 -50.5q0 -33 -21.5 -55.5t-54.5 -22.5t-53 19t-20 51zM172 1217q0 33 22.5 55t57.5 22q31 0 50.5 -18.5t19.5 -50.5q0 -33 -21 -55.5t-57 -22.5q-31 0 -51.5 19t-20.5 51z" />
    <glyph glyph-name="copyright" unicode="&#xa9;" horiz-adv-x="1546" 
d="M125 686q0 178 88 328.5t237 237.5t322 87q174 0 323.5 -87t237.5 -237.5t88 -328.5t-88 -328.5t-237.5 -237.5t-323.5 -87q-173 0 -322 87t-237 237.5t-88 328.5zM446 676q0 77 21.5 147t63 126.5t109.5 90t153 33.5q139 0 217 -94l-45 -49q-77 63 -170 63
q-106 0 -166 -63q-90 -86 -90 -244q0 -62 14.5 -114.5t44 -95.5t81 -67t120.5 -24q90 0 186 51l31 -59q-34 -26 -95.5 -48t-134.5 -22q-111 0 -189 50.5t-114.5 132.5t-36.5 186zM1335 686q0 157 -76 289.5t-205.5 209.5t-281.5 77q-151 0 -280.5 -77t-205 -209.5
t-75.5 -289.5q0 -117 45 -224t120 -184.5t179 -123t217 -45.5q152 0 281.5 77t205.5 210t76 290z" />
    <glyph glyph-name="ordfeminine" unicode="&#xaa;" horiz-adv-x="761" 
d="M164 1253q118 93 246 93q97 0 139.5 -54.5t42.5 -169.5v-147q0 -94 10 -219l-72 -13l-22 88q-103 -96 -213 -96q-70 0 -113 39.5t-43 108.5q0 79 74 133q78 53 289 69v11q0 97 -24 135.5t-83 38.5q-85 0 -194 -70zM315 805q90 0 187 88v131q-184 -16 -232 -51
q-43 -30 -43 -80q0 -42 24 -65t64 -23z" />
    <glyph glyph-name="guillemotleft" unicode="&#xab;" horiz-adv-x="950" 
d="M100 500l342 405l62 -47l-291 -373l293 -379l-64 -49l-338 410zM424 500l342 405l61 -47l-290 -373l292 -379l-63 -49l-338 410z" />
    <glyph glyph-name="logicalnot" unicode="&#xac;" 
d="M203 561h727v-512h-90v426h-637v86z" />
    <glyph glyph-name="uni00AD" unicode="&#xad;" horiz-adv-x="731" 
d="M158 528h413v-86h-413v86z" />
    <glyph glyph-name="registered" unicode="&#xae;" horiz-adv-x="1114" 
d="M119 1069q0 180 128 306t310 126q183 0 311.5 -126t128.5 -306q0 -181 -128.5 -308.5t-311.5 -127.5q-182 0 -310 127.5t-128 308.5zM924 1069q0 153 -107.5 259t-257.5 106q-152 0 -259 -106t-107 -259q0 -155 106.5 -262t259.5 -107q150 0 257.5 107.5t107.5 261.5z
M522 1085q54 0 82 11q58 26 58 78q0 83 -132 83q-35 0 -55 -2v-170h47zM408 1305q51 10 127 10q92 0 143 -34t51 -103q0 -44 -25.5 -80t-74.5 -54l92 -159q13 -25 20 -45h-71l-107 190q-12 -2 -39 -2h-49v-188h-67v465z" />
    <glyph glyph-name="macron" unicode="&#xaf;" horiz-adv-x="819" 
d="M174 1233h471v-84h-471v84z" />
    <glyph glyph-name="degree" unicode="&#xb0;" horiz-adv-x="798" 
d="M125 1155q0 124 79 205.5t195 81.5t194.5 -81.5t78.5 -205.5t-78.5 -205.5t-194.5 -81.5t-195 81.5t-79 205.5zM580 1155q0 94 -50 150.5t-129 56.5q-81 0 -132.5 -55t-51.5 -152q0 -95 50.5 -152t133.5 -57q79 0 129 56t50 153z" />
    <glyph glyph-name="plusminus" unicode="&#xb1;" 
d="M520 987h90v-354h338v-88h-338v-332h-90v332h-340v88h340v354zM180 86h768v-86h-768v86z" />
    <glyph glyph-name="twosuperior" unicode="&#xb2;" horiz-adv-x="591" 
d="M86 1522q88 67 201 67q103 0 156 -57t53 -148q0 -52 -19 -103.5t-59.5 -105.5t-76 -93t-95.5 -99l-62 -59h318l2 -76h-422l-8 78l98 96q62 63 94 99t68.5 84t51.5 88.5t15 82.5q0 61 -31.5 97t-95.5 36q-82 0 -153 -47z" />
    <glyph glyph-name="threesuperior" unicode="&#xb3;" horiz-adv-x="589" 
d="M84 1524q79 65 195 65q89 0 141.5 -47t52.5 -129q0 -56 -29 -104t-79 -76q62 -17 97.5 -64t35.5 -114q0 -102 -64 -163t-172 -61q-106 0 -186 48l30 67q76 -37 152 -37q61 0 94 29q51 36 51 115q0 63 -43.5 98t-121.5 35h-48l-2 71h41q67 0 108.5 42t41.5 102
q0 52 -30 81t-85 29q-77 0 -149 -45z" />
    <glyph glyph-name="acute" unicode="&#xb4;" horiz-adv-x="819" 
d="M295 1141l291 307l67 -66v-10l-307 -282z" />
    <glyph glyph-name="uni00B5" unicode="&#xb5;" horiz-adv-x="1179" 
d="M797 942h100v-696q0 -94 25.5 -136t78.5 -42q44 0 84 16l23 -78q-60 -29 -125 -29q-81 0 -123.5 51t-48.5 160q-86 -211 -301 -211q-139 0 -215 109l4 -575h-100v1429l100 4v-637q0 -99 57.5 -169t157.5 -70q68 0 124 33t89.5 83.5t51.5 106t18 106.5v545z" />
    <glyph glyph-name="paragraph" unicode="&#xb6;" horiz-adv-x="1083" 
d="M68 991q0 196 136.5 300t373.5 104q44 0 69 -2v-1842h-92v990q-125 6 -221 45.5t-153 102.5t-85 139.5t-28 162.5zM774 -449v1829q65 -8 92 -14v-1815h-92z" />
    <glyph glyph-name="periodcentered" unicode="&#xb7;" horiz-adv-x="430" 
d="M135 514q0 37 22 61.5t58 24.5q35 0 55.5 -22.5t20.5 -57.5q0 -41 -20 -64.5t-58 -23.5q-36 0 -57 23.5t-21 58.5z" />
    <glyph glyph-name="cedilla" unicode="&#xb8;" horiz-adv-x="819" 
d="M301 -168l78 199l72 -25l-56 -141q12 2 37 2q79 0 132.5 -34t53.5 -105q0 -90 -83 -152.5t-242 -91.5l-19 70q246 51 246 167q0 80 -121 80q-37 0 -69 -8z" />
    <glyph glyph-name="onesuperior" unicode="&#xb9;" horiz-adv-x="516" 
d="M80 1507l184 74l74 -2v-657h119l2 -74h-373v74h160v567l-142 -47z" />
    <glyph glyph-name="ordmasculine" unicode="&#xba;" horiz-adv-x="792" 
d="M129 1036q0 57 16.5 111.5t48.5 100.5t85.5 74t121.5 28q120 0 191.5 -87t71.5 -219q0 -58 -16.5 -112t-48.5 -99.5t-85.5 -72.5t-120.5 -27q-123 0 -193.5 85t-70.5 218zM569 1036q0 107 -45 173.5t-129 66.5q-51 0 -94 -29q-78 -60 -78 -205q0 -107 44.5 -172
t129.5 -65q60 0 101 35q71 62 71 196z" />
    <glyph glyph-name="guillemotright" unicode="&#xbb;" horiz-adv-x="950" 
d="M123 858l63 47l340 -405l-4 -33l-336 -410l-65 49l293 379zM446 858l64 47l340 -405l-4 -33l-336 -410l-66 49l293 379z" />
    <glyph glyph-name="onequarter" unicode="&#xbc;" horiz-adv-x="1634" 
d="M160 1262l223 73l74 -2v-657h147l2 -74h-440v74h199v569l-183 -51zM330 16l901 1389l69 -49l-903 -1389zM995 281l322 481l94 -4v-482h107l4 -73h-111v-174h-88v174h-317zM1272 559l-185 -283h236v363h-2z" />
    <glyph glyph-name="onehalf" unicode="&#xbd;" horiz-adv-x="1634" 
d="M160 1262l223 73l74 -2v-657h147l2 -74h-440v74h199v569l-183 -51zM330 16l901 1389l69 -49l-903 -1389zM1053 702q89 68 200 68q103 0 156 -57t53 -148q0 -52 -19 -103.5t-59.5 -105.5t-76 -93t-95.5 -99l-61 -60h315l4 -75h-421l-9 77l99 97q62 63 94 99t68.5 84
t51.5 88.5t15 82.5q0 61 -31.5 97t-95.5 36q-83 0 -154 -47z" />
    <glyph glyph-name="threequarters" unicode="&#xbe;" horiz-adv-x="1634" 
d="M158 1278q79 65 194 65q91 0 143 -47t52 -129q0 -57 -28.5 -104.5t-78.5 -75.5q61 -18 97 -65t36 -113q0 -102 -64.5 -162.5t-172.5 -60.5q-104 0 -186 47l30 67q78 -36 154 -36q59 0 94 28q51 36 51 115q0 63 -44 98t-124 35h-45l-2 72h41q67 0 108.5 41.5t41.5 101.5
q0 52 -30 81.5t-85 29.5q-78 0 -150 -45zM330 16l901 1389l69 -49l-903 -1389zM995 281l322 481l94 -4v-482h107l4 -73h-111v-174h-88v174h-317zM1272 559l-185 -283h236v363h-2z" />
    <glyph glyph-name="questiondown" unicode="&#xbf;" horiz-adv-x="770" 
d="M401 614l91 7q12 -55 12 -103q0 -57 -11.5 -109.5t-26 -88.5t-43 -77t-47 -63t-52.5 -59q-64 -69 -101 -137.5t-37 -147.5q0 -97 61 -149t173 -49q120 0 239 61l37 -70q-141 -82 -293 -82q-146 0 -233.5 73t-87.5 210q0 98 43 175.5t121 164.5q77 84 119 164.5t41 193.5
q0 24 -5 86zM352 870q0 45 25 73t67 28q38 0 62 -24t24 -62q0 -44 -25.5 -71.5t-68.5 -27.5q-38 0 -61 23.5t-23 60.5z" />
    <glyph glyph-name="Agrave" unicode="&#xc0;" horiz-adv-x="1165" 
d="M584 1235l-250 -723h491l-139 414l-96 309h-6zM528 1368l115 8l408 -1198q9 -30 28.5 -89.5t28.5 -88.5h-109l-143 422h-555l-145 -422h-109q44 130 62 176zM315 1679l35 90l400 -165l-25 -72l-410 139v8z" />
    <glyph glyph-name="Aacute" unicode="&#xc1;" horiz-adv-x="1165" 
d="M584 1235l-250 -723h491l-139 414l-96 309h-6zM528 1368l115 8l408 -1198q9 -30 28.5 -89.5t28.5 -88.5h-109l-143 422h-555l-145 -422h-109q44 130 62 176zM422 1604l397 165l35 -92v-8l-408 -137z" />
    <glyph glyph-name="Acircumflex" unicode="&#xc2;" horiz-adv-x="1165" 
d="M584 1235l-250 -723h491l-139 414l-96 309h-6zM528 1368l115 8l408 -1198q9 -30 28.5 -89.5t28.5 -88.5h-109l-143 422h-555l-145 -422h-109q44 130 62 176zM543 1784l75 8l259 -219l-48 -60l-247 189l-244 -186l-47 59z" />
    <glyph glyph-name="Atilde" unicode="&#xc3;" horiz-adv-x="1165" 
d="M584 1235l-250 -723h491l-139 414l-96 309h-6zM528 1368l115 8l408 -1198q9 -30 28.5 -89.5t28.5 -88.5h-109l-143 422h-555l-145 -422h-109q44 130 62 176zM700 1602q33 0 69.5 40t66.5 105l67 -35q-88 -194 -205 -194q-32 0 -60 15t-48.5 36t-39.5 42.5t-39.5 36.5
t-41.5 15q-59 0 -139 -143l-66 36q92 193 209 193q32 0 59.5 -15t47.5 -36.5t38 -43.5t39 -37t43 -15z" />
    <glyph glyph-name="Adieresis" unicode="&#xc4;" horiz-adv-x="1165" 
d="M584 1235l-250 -723h491l-139 414l-96 309h-6zM528 1368l115 8l408 -1198q9 -30 28.5 -89.5t28.5 -88.5h-109l-143 422h-555l-145 -422h-109q44 130 62 176zM680 1624q0 33 22.5 55.5t57.5 22.5q31 0 51 -19t20 -51q0 -33 -21.5 -55.5t-55.5 -22.5q-33 0 -53.5 19
t-20.5 51zM336 1624q0 33 22.5 55.5t57.5 22.5q31 0 50 -19t19 -51q0 -33 -20.5 -55.5t-56.5 -22.5q-31 0 -51.5 19t-20.5 51z" />
    <glyph glyph-name="Aring" unicode="&#xc5;" horiz-adv-x="1165" 
d="M584 1235l-250 -723h491l-139 414l-96 309h-6zM528 1368l115 8l408 -1198q9 -30 28.5 -89.5t28.5 -88.5h-109l-143 422h-555l-145 -422h-109q44 130 62 176zM389 1669q0 88 56.5 142.5t148.5 54.5q83 0 135.5 -51.5t52.5 -131.5q0 -86 -56.5 -140t-145.5 -54
q-84 0 -137.5 51t-53.5 129zM705 1681q0 48 -32 81.5t-81 33.5q-57 0 -91 -34.5t-34 -90.5q0 -50 31 -81t84 -31q56 0 89.5 33.5t33.5 88.5z" />
    <glyph glyph-name="AE" unicode="&#xc6;" horiz-adv-x="1736" 
d="M725 1047l-283 -504h428v739h-10zM803 1372h813l-2 -92h-641v-532h524v-93h-524v-563h641l4 -92h-748v451h-479l-254 -451h-112q0 13 12 29z" />
    <glyph glyph-name="Ccedilla" unicode="&#xc7;" horiz-adv-x="1177" 
d="M125 664q0 113 22.5 218.5t70 199t116.5 163t168 110t217 40.5q207 0 358 -109l-43 -80q-81 48 -155 70t-162 22q-195 0 -309 -120q-172 -183 -172 -504q0 -96 16 -182t52.5 -164t91 -134t137.5 -89t186 -33q165 0 340 86l35 -80q-190 -101 -385 -101h-4l-48 -112
q12 2 33 2q79 0 133 -34t54 -105q0 -90 -83.5 -152.5t-242.5 -91.5l-19 70q246 51 246 167q0 80 -121 80q-37 0 -69 -8l-29 39l59 152q-99 13 -180.5 54.5t-139 104.5t-97 145.5t-58 176.5t-18.5 199z" />
    <glyph glyph-name="Egrave" unicode="&#xc8;" horiz-adv-x="1071" 
d="M207 1372h745l-4 -92h-639v-532h522v-93h-522v-563h641l4 -92h-747v1372zM313 1679l35 90l400 -165l-25 -72l-410 139v8z" />
    <glyph glyph-name="Eacute" unicode="&#xc9;" horiz-adv-x="1071" 
d="M207 1372h745l-4 -92h-639v-532h522v-93h-522v-563h641l4 -92h-747v1372zM420 1604l397 165l35 -92v-8l-408 -137z" />
    <glyph glyph-name="Ecircumflex" unicode="&#xca;" horiz-adv-x="1071" 
d="M207 1372h745l-4 -92h-639v-532h522v-93h-522v-563h641l4 -92h-747v1372zM541 1784l75 8l258 -219l-47 -60l-247 189l-244 -186l-47 59z" />
    <glyph glyph-name="Edieresis" unicode="&#xcb;" horiz-adv-x="1071" 
d="M207 1372h745l-4 -92h-639v-532h522v-93h-522v-563h641l4 -92h-747v1372zM678 1624q0 33 22.5 55.5t57.5 22.5q31 0 51 -19t20 -51q0 -33 -21.5 -55.5t-55.5 -22.5q-33 0 -53.5 19t-20.5 51zM334 1624q0 33 22.5 55.5t57.5 22.5q31 0 50 -19t19 -51q0 -33 -20.5 -55.5
t-56.5 -22.5q-31 0 -51.5 19t-20.5 51z" />
    <glyph glyph-name="Igrave" unicode="&#xcc;" horiz-adv-x="516" 
d="M207 1372h102v-1372h-102v1372zM-10 1679l35 90l399 -165l-25 -72l-409 139v8z" />
    <glyph glyph-name="Iacute" unicode="&#xcd;" horiz-adv-x="516" 
d="M207 1372h102v-1372h-102v1372zM96 1604l398 165l34 -92v-8l-407 -137z" />
    <glyph glyph-name="Icircumflex" unicode="&#xce;" horiz-adv-x="516" 
d="M207 1372h102v-1372h-102v1372zM217 1784l76 8l258 -219l-47 -60l-248 189l-244 -186l-47 59z" />
    <glyph glyph-name="Idieresis" unicode="&#xcf;" horiz-adv-x="516" 
d="M207 1372h102v-1372h-102v1372zM354 1624q0 33 22.5 55.5t57.5 22.5q31 0 51.5 -19t20.5 -51q0 -33 -21.5 -55.5t-56.5 -22.5q-33 0 -53.5 19t-20.5 51zM10 1624q0 33 22.5 55.5t57.5 22.5q31 0 50.5 -19t19.5 -51q0 -33 -21 -55.5t-57 -22.5q-31 0 -51.5 19t-20.5 51z
" />
    <glyph glyph-name="Eth" unicode="&#xd0;" horiz-adv-x="1335" 
d="M217 1362q186 33 367 33q286 0 456 -187t170 -497q0 -157 -47.5 -293t-131 -233t-204.5 -152.5t-262 -55.5q-202 0 -348 31v649h-166v91h166v614zM569 72q153 0 262 71q130 85 201.5 234t69.5 323q-2 271 -142 435.5t-385 164.5q-116 0 -253 -20v-532h354v-91h-354v-569
q109 -16 247 -16z" />
    <glyph glyph-name="Ntilde" unicode="&#xd1;" horiz-adv-x="1366" 
d="M207 1372h119l653 -1077l84 -158h2l-6 185v1050h100v-1372h-123l-653 1077l-82 154h-2l6 -158v-1073h-98v1372zM819 1602q33 0 69 40t66 105l68 -35q-88 -194 -205 -194q-32 0 -60 15t-48.5 36t-39.5 42.5t-39.5 36.5t-41.5 15q-59 0 -139 -143l-66 36q92 193 209 193
q32 0 59.5 -15t47.5 -36.5t38 -43.5t39 -37t43 -15z" />
    <glyph glyph-name="Ograve" unicode="&#xd2;" horiz-adv-x="1384" 
d="M125 668q0 75 10 149.5t32 147t54.5 137t79 120t103.5 95t130.5 62t157.5 22.5q131 0 239 -54.5t179.5 -149t110.5 -221t39 -271.5q0 -107 -20 -209.5t-65 -198t-109.5 -167.5t-161 -115.5t-212.5 -43.5q-174 0 -304.5 94.5t-196.5 251.5t-66 351zM1151 686
q0 130 -31 243t-88 197t-145 132.5t-195 48.5q-139 0 -252 -86q-106 -86 -155 -230t-49 -305q0 -175 52.5 -314t158 -222.5t247.5 -83.5q139 0 252 86q106 86 155.5 229.5t49.5 304.5zM424 1679l35 90l399 -165l-24 -72l-410 139v8z" />
    <glyph glyph-name="Oacute" unicode="&#xd3;" horiz-adv-x="1384" 
d="M125 668q0 75 10 149.5t32 147t54.5 137t79 120t103.5 95t130.5 62t157.5 22.5q131 0 239 -54.5t179.5 -149t110.5 -221t39 -271.5q0 -107 -20 -209.5t-65 -198t-109.5 -167.5t-161 -115.5t-212.5 -43.5q-174 0 -304.5 94.5t-196.5 251.5t-66 351zM1151 686
q0 130 -31 243t-88 197t-145 132.5t-195 48.5q-139 0 -252 -86q-106 -86 -155 -230t-49 -305q0 -175 52.5 -314t158 -222.5t247.5 -83.5q139 0 252 86q106 86 155.5 229.5t49.5 304.5zM530 1604l398 165l35 -92v-8l-408 -137z" />
    <glyph glyph-name="Ocircumflex" unicode="&#xd4;" horiz-adv-x="1384" 
d="M125 668q0 75 10 149.5t32 147t54.5 137t79 120t103.5 95t130.5 62t157.5 22.5q131 0 239 -54.5t179.5 -149t110.5 -221t39 -271.5q0 -107 -20 -209.5t-65 -198t-109.5 -167.5t-161 -115.5t-212.5 -43.5q-174 0 -304.5 94.5t-196.5 251.5t-66 351zM1151 686
q0 130 -31 243t-88 197t-145 132.5t-195 48.5q-139 0 -252 -86q-106 -86 -155 -230t-49 -305q0 -175 52.5 -314t158 -222.5t247.5 -83.5q139 0 252 86q106 86 155.5 229.5t49.5 304.5zM651 1784l76 8l258 -219l-47 -60l-248 189l-244 -186l-47 59z" />
    <glyph glyph-name="Otilde" unicode="&#xd5;" horiz-adv-x="1384" 
d="M125 668q0 75 10 149.5t32 147t54.5 137t79 120t103.5 95t130.5 62t157.5 22.5q131 0 239 -54.5t179.5 -149t110.5 -221t39 -271.5q0 -107 -20 -209.5t-65 -198t-109.5 -167.5t-161 -115.5t-212.5 -43.5q-174 0 -304.5 94.5t-196.5 251.5t-66 351zM1151 686
q0 130 -31 243t-88 197t-145 132.5t-195 48.5q-139 0 -252 -86q-106 -86 -155 -230t-49 -305q0 -175 52.5 -314t158 -222.5t247.5 -83.5q139 0 252 86q106 86 155.5 229.5t49.5 304.5zM809 1602q33 0 69 40t66 105l68 -35q-88 -194 -205 -194q-32 0 -60 15t-48.5 36
t-39.5 42.5t-39.5 36.5t-41.5 15q-60 0 -140 -143l-65 36q92 193 209 193q32 0 59.5 -15t47.5 -36.5t38 -43.5t39 -37t43 -15z" />
    <glyph glyph-name="Odieresis" unicode="&#xd6;" horiz-adv-x="1384" 
d="M125 668q0 75 10 149.5t32 147t54.5 137t79 120t103.5 95t130.5 62t157.5 22.5q131 0 239 -54.5t179.5 -149t110.5 -221t39 -271.5q0 -107 -20 -209.5t-65 -198t-109.5 -167.5t-161 -115.5t-212.5 -43.5q-174 0 -304.5 94.5t-196.5 251.5t-66 351zM1151 686
q0 130 -31 243t-88 197t-145 132.5t-195 48.5q-139 0 -252 -86q-106 -86 -155 -230t-49 -305q0 -175 52.5 -314t158 -222.5t247.5 -83.5q139 0 252 86q106 86 155.5 229.5t49.5 304.5zM788 1624q0 33 22.5 55.5t57.5 22.5q31 0 51.5 -19t20.5 -51q0 -33 -21.5 -55.5
t-56.5 -22.5q-33 0 -53.5 19t-20.5 51zM444 1624q0 33 22.5 55.5t57.5 22.5q31 0 50.5 -19t19.5 -51q0 -33 -21 -55.5t-57 -22.5q-31 0 -51.5 19t-20.5 51z" />
    <glyph glyph-name="multiply" unicode="&#xd7;" 
d="M840 176l-275 281l-276 -281l-64 57l281 285l-279 283l62 57l276 -280l275 280l63 -57l-278 -283l278 -285z" />
    <glyph glyph-name="Oslash" unicode="&#xd8;" horiz-adv-x="1380" 
d="M125 668q0 107 20 209.5t64.5 198t109 167.5t160 115t211.5 43q152 0 275 -74l75 152l78 -43l-82 -162q105 -95 162 -243t57 -326q0 -107 -20 -209.5t-64.5 -198t-109 -167.5t-160 -115.5t-211.5 -43.5q-151 0 -274 74l-78 -151l-78 43l82 163q-105 93 -161 241.5
t-56 326.5zM236 686q0 -150 40.5 -276.5t116.5 -210.5l525 1038q-98 70 -228 70q-146 0 -250 -86q-107 -84 -155.5 -228t-48.5 -307zM1147 686q0 151 -41 278.5t-119 213.5l-526 -1041q104 -71 231 -71q146 0 250 86q106 85 155.5 229t49.5 305z" />
    <glyph glyph-name="Ugrave" unicode="&#xd9;" horiz-adv-x="1273" 
d="M979 1372h102v-848q0 -99 -13.5 -179.5t-46 -151.5t-83.5 -119t-129.5 -75.5t-179.5 -27.5q-436 0 -436 500v901h102v-864q0 -84 8.5 -147.5t32 -121.5t62.5 -95.5t101.5 -59t147.5 -21.5q69 0 128 24t95 58q109 101 109 338v889zM369 1679l34 90l400 -165l-25 -72
l-409 139v8z" />
    <glyph glyph-name="Uacute" unicode="&#xda;" horiz-adv-x="1273" 
d="M979 1372h102v-848q0 -99 -13.5 -179.5t-46 -151.5t-83.5 -119t-129.5 -75.5t-179.5 -27.5q-436 0 -436 500v901h102v-864q0 -84 8.5 -147.5t32 -121.5t62.5 -95.5t101.5 -59t147.5 -21.5q69 0 128 24t95 58q109 101 109 338v889zM475 1604l397 165l35 -92v-8l-407 -137z
" />
    <glyph glyph-name="Ucircumflex" unicode="&#xdb;" horiz-adv-x="1273" 
d="M979 1372h102v-848q0 -99 -13.5 -179.5t-46 -151.5t-83.5 -119t-129.5 -75.5t-179.5 -27.5q-436 0 -436 500v901h102v-864q0 -84 8.5 -147.5t32 -121.5t62.5 -95.5t101.5 -59t147.5 -21.5q69 0 128 24t95 58q109 101 109 338v889zM596 1784l76 8l258 -219l-47 -60
l-248 189l-244 -186l-47 59z" />
    <glyph glyph-name="Udieresis" unicode="&#xdc;" horiz-adv-x="1273" 
d="M979 1372h102v-848q0 -99 -13.5 -179.5t-46 -151.5t-83.5 -119t-129.5 -75.5t-179.5 -27.5q-436 0 -436 500v901h102v-864q0 -84 8.5 -147.5t32 -121.5t62.5 -95.5t101.5 -59t147.5 -21.5q69 0 128 24t95 58q109 101 109 338v889zM733 1624q0 33 22.5 55.5t57.5 22.5
q31 0 51.5 -19t20.5 -51q0 -33 -21.5 -55.5t-56.5 -22.5q-33 0 -53.5 19t-20.5 51zM389 1624q0 33 22.5 55.5t57.5 22.5q31 0 50.5 -19t19.5 -51q0 -33 -21 -55.5t-57 -22.5q-31 0 -51.5 19t-20.5 51z" />
    <glyph glyph-name="Yacute" unicode="&#xdd;" horiz-adv-x="1056" 
d="M905 1372h109q-13 -29 -80 -147l-356 -641v-584h-103v582l-346 643q-36 60 -80 147h115l268 -495l96 -177h2zM371 1604l397 165l35 -92v-8l-408 -137z" />
    <glyph glyph-name="Thorn" unicode="&#xde;" horiz-adv-x="1103" 
d="M465 375q167 0 266 51q168 86 168 305q0 164 -102.5 242t-284.5 78q-89 0 -203 -19v-649q79 -8 156 -8zM207 1372h102v-246q105 19 207 19q236 0 365 -102.5t129 -301.5q0 -101 -32.5 -183.5t-97.5 -145t-170.5 -97t-244.5 -34.5q-74 0 -156 10v-291h-102v1372z" />
    <glyph glyph-name="germandbls" unicode="&#xdf;" horiz-adv-x="1087" 
d="M221 1210q0 163 78 256t215 93q133 -1 209 -80.5t76 -214.5q0 -69 -27 -142t-60 -124.5t-60 -112t-27 -107.5q0 -73 38 -119.5t125 -105.5q53 -35 83.5 -59t64.5 -61t49.5 -81.5t15.5 -99.5q0 -124 -83 -199.5t-230 -75.5q-145 0 -266 72l33 76q111 -62 237 -62
q99 0 155 47t56 134q0 73 -39 121t-139 112q-50 34 -81 59.5t-61.5 60.5t-44.5 76.5t-14 92.5q0 50 18 102t43.5 96t51 89.5t43 100.5t16.5 110q0 96 -45.5 151t-136.5 55q-192 0 -192 -258v-1212h-101v858h-145v84h145v268z" />
    <glyph glyph-name="agrave" unicode="&#xe0;" horiz-adv-x="942" 
d="M135 813q188 152 375 152q139 0 200.5 -87t61.5 -274v-252q0 -125 16 -346l-83 -12l-25 139q-174 -156 -346 -156q-107 0 -172.5 62.5t-65.5 169.5q0 135 117 215q123 84 459 111v28q0 172 -38.5 241.5t-135.5 69.5q-152 0 -322 -126zM346 61q155 0 326 160v234
q-317 -33 -402 -90q-73 -57 -73 -146q0 -74 41 -116t108 -42zM258 1382l68 66l292 -307l-51 -51l-309 282v10z" />
    <glyph glyph-name="aacute" unicode="&#xe1;" horiz-adv-x="942" 
d="M135 813q188 152 375 152q139 0 200.5 -87t61.5 -274v-252q0 -125 16 -346l-83 -12l-25 139q-174 -156 -346 -156q-107 0 -172.5 62.5t-65.5 169.5q0 135 117 215q123 84 459 111v28q0 172 -38.5 241.5t-135.5 69.5q-152 0 -322 -126zM346 61q155 0 326 160v234
q-317 -33 -402 -90q-73 -57 -73 -146q0 -74 41 -116t108 -42zM354 1141l291 307l68 -66v-10l-307 -282z" />
    <glyph glyph-name="acircumflex" unicode="&#xe2;" horiz-adv-x="942" 
d="M135 813q188 152 375 152q139 0 200.5 -87t61.5 -274v-252q0 -125 16 -346l-83 -12l-25 139q-174 -156 -346 -156q-107 0 -172.5 62.5t-65.5 169.5q0 135 117 215q123 84 459 111v28q0 172 -38.5 241.5t-135.5 69.5q-152 0 -322 -126zM346 61q155 0 326 160v234
q-317 -33 -402 -90q-73 -57 -73 -146q0 -74 41 -116t108 -42zM430 1425l76 7l233 -293l-55 -49l-215 245l-219 -248l-57 52z" />
    <glyph glyph-name="atilde" unicode="&#xe3;" horiz-adv-x="942" 
d="M135 813q188 152 375 152q139 0 200.5 -87t61.5 -274v-252q0 -125 16 -346l-83 -12l-25 139q-174 -156 -346 -156q-107 0 -172.5 62.5t-65.5 169.5q0 135 117 215q123 84 459 111v28q0 172 -38.5 241.5t-135.5 69.5q-152 0 -322 -126zM346 61q155 0 326 160v234
q-317 -33 -402 -90q-73 -57 -73 -146q0 -74 41 -116t108 -42zM586 1196q65 0 133 143l65 -32q-38 -92 -89.5 -144.5t-110.5 -52.5q-32 0 -60 15t-48.5 36t-39.5 42.5t-40 36.5t-42 15q-34 0 -65 -36t-70 -107l-63 35q83 194 202 194q31 0 59 -15t48 -36.5t38.5 -42.5
t39.5 -36t43 -15z" />
    <glyph glyph-name="adieresis" unicode="&#xe4;" horiz-adv-x="942" 
d="M135 813q188 152 375 152q139 0 200.5 -87t61.5 -274v-252q0 -125 16 -346l-83 -12l-25 139q-174 -156 -346 -156q-107 0 -172.5 62.5t-65.5 169.5q0 135 117 215q123 84 459 111v28q0 172 -38.5 241.5t-135.5 69.5q-152 0 -322 -126zM346 61q155 0 326 160v234
q-317 -33 -402 -90q-73 -57 -73 -146q0 -74 41 -116t108 -42zM559 1217q0 33 22 55t58 22q30 0 50 -19t20 -50q0 -33 -21.5 -55.5t-54.5 -22.5t-53.5 19t-20.5 51zM231 1217q0 33 22.5 55t57.5 22q31 0 50.5 -18.5t19.5 -50.5q0 -33 -21 -55.5t-57 -22.5q-31 0 -51.5 19
t-20.5 51z" />
    <glyph glyph-name="aring" unicode="&#xe5;" horiz-adv-x="942" 
d="M135 813q188 152 375 152q139 0 200.5 -87t61.5 -274v-252q0 -125 16 -346l-83 -12l-25 139q-174 -156 -346 -156q-107 0 -172.5 62.5t-65.5 169.5q0 135 117 215q123 84 459 111v28q0 172 -38.5 241.5t-135.5 69.5q-152 0 -322 -126zM346 61q155 0 326 160v234
q-317 -33 -402 -90q-73 -57 -73 -146q0 -74 41 -116t108 -42zM270 1257q0 93 57.5 149t151.5 56q83 0 136 -51t53 -135q0 -93 -57 -149t-148 -56q-86 0 -139.5 51t-53.5 135zM588 1272q0 55 -30 87t-83 32q-59 0 -92 -35t-33 -96q0 -56 30.5 -87.5t84.5 -31.5q57 0 90 35.5
t33 95.5z" />
    <glyph glyph-name="ae" unicode="&#xe6;" horiz-adv-x="1531" 
d="M1079 883q-126 0 -206 -92t-93 -256h527q4 54 4 79q0 117 -61.5 193t-170.5 76zM215 424q65 45 174 71.5t283 41.5v26q0 173 -39 243.5t-135 70.5q-141 0 -322 -127l-41 61q187 154 375 154q103 0 160.5 -50t77.5 -155q54 98 139.5 153.5t195.5 55.5q158 0 243 -104.5
t85 -264.5q0 -72 -12 -143h-621q3 -190 89.5 -289.5t224.5 -99.5q137 0 270 55l31 -74q-156 -72 -320 -72q-101 0 -185.5 48.5t-139.5 140.5q-166 -189 -392 -189q-121 0 -190.5 61.5t-69.5 170.5q0 66 32 121.5t87 93.5zM367 61q182 0 348 172q-37 106 -37 222
q-181 -17 -272.5 -37.5t-133.5 -52.5q-75 -59 -75 -146q0 -74 45 -115t125 -43z" />
    <glyph glyph-name="ccedilla" unicode="&#xe7;" horiz-adv-x="892" 
d="M119 453q0 228 113 370t294 142q176 0 277 -154l-58 -53q-55 60 -107 88t-120 28q-96 0 -170 -59q-125 -103 -125 -348q0 -196 82.5 -297.5t226.5 -101.5q107 0 242 55l27 -78q-156 -68 -279 -68l-45 -112q12 2 37 2q79 0 132.5 -34t53.5 -105q0 -90 -83 -152.5
t-242 -91.5l-19 70q246 51 246 167q0 80 -121 80q-37 0 -69 -8l-29 39l59 152q-152 28 -237.5 153t-85.5 316z" />
    <glyph glyph-name="egrave" unicode="&#xe8;" horiz-adv-x="972" 
d="M119 463q0 142 49.5 257t143 182t214.5 67q158 0 243 -104.5t85 -264.5q0 -72 -12 -143h-621q3 -190 89.5 -289.5t224.5 -99.5q135 0 270 55l29 -74q-156 -72 -318 -72q-82 0 -153 31t-126 90t-86.5 153t-31.5 212zM522 883q-127 0 -206 -93t-93 -255h527q4 54 4 79
q0 117 -61.5 193t-170.5 76zM299 1382l68 66l292 -307l-51 -51l-309 282v10z" />
    <glyph glyph-name="eacute" unicode="&#xe9;" horiz-adv-x="972" 
d="M119 463q0 142 49.5 257t143 182t214.5 67q158 0 243 -104.5t85 -264.5q0 -72 -12 -143h-621q3 -190 89.5 -289.5t224.5 -99.5q135 0 270 55l29 -74q-156 -72 -318 -72q-82 0 -153 31t-126 90t-86.5 153t-31.5 212zM522 883q-127 0 -206 -93t-93 -255h527q4 54 4 79
q0 117 -61.5 193t-170.5 76zM395 1141l291 307l68 -66v-10l-308 -282z" />
    <glyph glyph-name="ecircumflex" unicode="&#xea;" horiz-adv-x="972" 
d="M119 463q0 142 49.5 257t143 182t214.5 67q158 0 243 -104.5t85 -264.5q0 -72 -12 -143h-621q3 -190 89.5 -289.5t224.5 -99.5q135 0 270 55l29 -74q-156 -72 -318 -72q-82 0 -153 31t-126 90t-86.5 153t-31.5 212zM522 883q-127 0 -206 -93t-93 -255h527q4 54 4 79
q0 117 -61.5 193t-170.5 76zM471 1425l76 7l233 -293l-55 -49l-215 245l-219 -248l-58 52z" />
    <glyph glyph-name="edieresis" unicode="&#xeb;" horiz-adv-x="972" 
d="M119 463q0 142 49.5 257t143 182t214.5 67q158 0 243 -104.5t85 -264.5q0 -72 -12 -143h-621q3 -190 89.5 -289.5t224.5 -99.5q135 0 270 55l29 -74q-156 -72 -318 -72q-82 0 -153 31t-126 90t-86.5 153t-31.5 212zM522 883q-127 0 -206 -93t-93 -255h527q4 54 4 79
q0 117 -61.5 193t-170.5 76zM600 1217q0 33 22 55t58 22q30 0 50 -19t20 -50q0 -33 -21.5 -55.5t-54.5 -22.5t-53.5 19t-20.5 51zM272 1217q0 33 22.5 55t57.5 22q31 0 50.5 -18.5t19.5 -50.5q0 -33 -21 -55.5t-57 -22.5q-31 0 -51.5 19t-20.5 51z" />
    <glyph glyph-name="igrave" unicode="&#xec;" horiz-adv-x="452" 
d="M176 940l100 4v-944h-100v940zM18 1382l68 66l293 -307l-51 -51l-310 282v10z" />
    <glyph glyph-name="iacute" unicode="&#xed;" horiz-adv-x="452" 
d="M176 940l100 4v-944h-100v940zM115 1141l291 307l67 -66v-10l-307 -282z" />
    <glyph glyph-name="icircumflex" unicode="&#xee;" horiz-adv-x="452" 
d="M176 940l100 4v-944h-100v940zM193 1423l75 9l203 -291l-59 -47l-181 239l-186 -241l-57 47z" />
    <glyph glyph-name="idieresis" unicode="&#xef;" horiz-adv-x="452" 
d="M176 940l100 4v-944h-100v940zM279 1217q0 33 21 55t56 22q31 0 51.5 -18.5t20.5 -50.5q0 -33 -21.5 -55.5t-56.5 -22.5q-32 0 -51.5 19t-19.5 51zM23 1217q0 33 22 55t55 22q31 0 51.5 -18.5t20.5 -50.5q0 -33 -21 -55.5t-57 -22.5q-31 0 -51 19t-20 51z" />
    <glyph glyph-name="eth" unicode="&#xf0;" horiz-adv-x="1073" 
d="M311 1489l43 67q142 -80 246 -178l219 144l43 -66l-207 -135q279 -307 279 -782q0 -272 -110.5 -420t-295.5 -148q-124 0 -218 62.5t-142.5 169.5t-48.5 241q0 94 25 180.5t74 158.5t131 115.5t186 43.5q88 0 151.5 -35t118.5 -100h4q-54 264 -231 465l-263 -170l-41 65
l248 162q-96 89 -211 160zM532 59q140 0 222 122.5t82 318.5v32q-12 148 -101 236t-213 88q-109 0 -184 -70q-56 -51 -86.5 -137t-30.5 -192q0 -173 81.5 -285.5t229.5 -112.5z" />
    <glyph glyph-name="ntilde" unicode="&#xf1;" horiz-adv-x="1056" 
d="M162 944l86 10l22 -137q174 154 351 154q148 0 207 -82.5t59 -247.5v-641h-99v600q0 147 -40 214t-144 67q-152 0 -323 -144v-737h-101v594q0 141 -18 350zM647 1196q65 0 133 143l66 -32q-38 -92 -90 -144.5t-111 -52.5q-32 0 -60 15t-48.5 36t-39 42.5t-39.5 36.5
t-42 15q-34 0 -65 -36t-70 -107l-64 35q38 90 90 142t113 52q31 0 58.5 -15t47.5 -36.5t38.5 -42.5t39.5 -36t43 -15z" />
    <glyph glyph-name="ograve" unicode="&#xf2;" horiz-adv-x="1044" 
d="M119 463q0 91 24.5 178t72 162.5t128.5 121.5t184 46q182 0 290 -138.5t108 -353.5q0 -72 -14.5 -142.5t-47 -137t-79 -117t-116 -81t-153.5 -30.5q-121 0 -212 64t-138 175t-47 253zM823 467q0 183 -80 298.5t-225 115.5q-113 0 -186 -70q-111 -111 -111 -336
q0 -185 79.5 -299.5t225.5 -114.5q117 0 189 72q108 108 108 334zM311 1382l68 66l293 -307l-51 -51l-310 282v10z" />
    <glyph glyph-name="oacute" unicode="&#xf3;" horiz-adv-x="1044" 
d="M119 463q0 91 24.5 178t72 162.5t128.5 121.5t184 46q182 0 290 -138.5t108 -353.5q0 -72 -14.5 -142.5t-47 -137t-79 -117t-116 -81t-153.5 -30.5q-121 0 -212 64t-138 175t-47 253zM823 467q0 183 -80 298.5t-225 115.5q-113 0 -186 -70q-111 -111 -111 -336
q0 -185 79.5 -299.5t225.5 -114.5q117 0 189 72q108 108 108 334zM408 1141l290 307l68 -66v-10l-307 -282z" />
    <glyph glyph-name="ocircumflex" unicode="&#xf4;" horiz-adv-x="1044" 
d="M119 463q0 91 24.5 178t72 162.5t128.5 121.5t184 46q182 0 290 -138.5t108 -353.5q0 -72 -14.5 -142.5t-47 -137t-79 -117t-116 -81t-153.5 -30.5q-121 0 -212 64t-138 175t-47 253zM823 467q0 183 -80 298.5t-225 115.5q-113 0 -186 -70q-111 -111 -111 -336
q0 -185 79.5 -299.5t225.5 -114.5q117 0 189 72q108 108 108 334zM483 1425l76 7l234 -293l-56 -49l-215 245l-219 -248l-57 52z" />
    <glyph glyph-name="otilde" unicode="&#xf5;" horiz-adv-x="1044" 
d="M119 463q0 91 24.5 178t72 162.5t128.5 121.5t184 46q182 0 290 -138.5t108 -353.5q0 -72 -14.5 -142.5t-47 -137t-79 -117t-116 -81t-153.5 -30.5q-121 0 -212 64t-138 175t-47 253zM823 467q0 183 -80 298.5t-225 115.5q-113 0 -186 -70q-111 -111 -111 -336
q0 -185 79.5 -299.5t225.5 -114.5q117 0 189 72q108 108 108 334zM639 1196q65 0 133 143l66 -32q-38 -92 -90 -144.5t-111 -52.5q-32 0 -60 15t-48.5 36t-39 42.5t-39.5 36.5t-42 15q-34 0 -65.5 -36.5t-70.5 -106.5l-63 35q38 90 90 142t113 52q31 0 58.5 -15t47.5 -36.5
t38.5 -42.5t39.5 -36t43 -15z" />
    <glyph glyph-name="odieresis" unicode="&#xf6;" horiz-adv-x="1044" 
d="M119 463q0 91 24.5 178t72 162.5t128.5 121.5t184 46q182 0 290 -138.5t108 -353.5q0 -72 -14.5 -142.5t-47 -137t-79 -117t-116 -81t-153.5 -30.5q-121 0 -212 64t-138 175t-47 253zM823 467q0 183 -80 298.5t-225 115.5q-113 0 -186 -70q-111 -111 -111 -336
q0 -185 79.5 -299.5t225.5 -114.5q117 0 189 72q108 108 108 334zM612 1217q0 33 22 55t58 22q30 0 50 -19t20 -50q0 -33 -21.5 -55.5t-54.5 -22.5t-53.5 19t-20.5 51zM285 1217q0 33 22.5 55t57.5 22q31 0 50 -18.5t19 -50.5q0 -33 -21 -55.5t-57 -22.5q-31 0 -51 19
t-20 51z" />
    <glyph glyph-name="divide" unicode="&#xf7;" 
d="M180 561h768v-86h-768v86zM485 199q0 38 23 61t59 23q34 0 56 -20t22 -52q0 -38 -23 -62t-59 -24q-34 0 -56 20.5t-22 53.5zM485 823q0 38 23 62t61 24q33 0 54.5 -19.5t21.5 -51.5q0 -39 -23 -62.5t-59 -23.5q-35 0 -56.5 19.5t-21.5 51.5z" />
    <glyph glyph-name="oslash" unicode="&#xf8;" horiz-adv-x="1044" 
d="M119 463q0 91 24.5 178t72 162.5t128.5 121.5t184 46q88 0 160 -35l64 141l71 -35l-67 -147q81 -64 125.5 -173t44.5 -243q0 -72 -14.5 -142.5t-47 -137t-79 -117t-116 -81t-153.5 -30.5q-89 0 -164 35l-61 -137l-70 35l66 145q-81 63 -124.5 170.5t-43.5 243.5zM221 475
q0 -222 109 -334l319 709q-60 31 -131 31q-113 0 -186 -70q-111 -111 -111 -336zM823 467q0 224 -110 334l-320 -707q53 -33 133 -33q117 0 189 72q108 108 108 334z" />
    <glyph glyph-name="ugrave" unicode="&#xf9;" horiz-adv-x="1038" 
d="M168 940l100 4v-608q0 -142 44 -208.5t141 -66.5q139 0 307 168v713h100v-588q0 -115 17 -348l-84 -12l-25 147q-170 -170 -338 -170q-262 0 -262 330v639zM297 1382l68 66l292 -307l-51 -51l-309 282v10z" />
    <glyph glyph-name="uacute" unicode="&#xfa;" horiz-adv-x="1038" 
d="M168 940l100 4v-608q0 -142 44 -208.5t141 -66.5q139 0 307 168v713h100v-588q0 -115 17 -348l-84 -12l-25 147q-170 -170 -338 -170q-262 0 -262 330v639zM393 1141l291 307l68 -66v-10l-308 -282z" />
    <glyph glyph-name="ucircumflex" unicode="&#xfb;" horiz-adv-x="1038" 
d="M168 940l100 4v-608q0 -142 44 -208.5t141 -66.5q139 0 307 168v713h100v-588q0 -115 17 -348l-84 -12l-25 147q-170 -170 -338 -170q-262 0 -262 330v639zM469 1425l76 7l233 -293l-55 -49l-215 245l-219 -248l-58 52z" />
    <glyph glyph-name="udieresis" unicode="&#xfc;" horiz-adv-x="1038" 
d="M168 940l100 4v-608q0 -142 44 -208.5t141 -66.5q139 0 307 168v713h100v-588q0 -115 17 -348l-84 -12l-25 147q-170 -170 -338 -170q-262 0 -262 330v639zM598 1217q0 33 22 55t58 22q30 0 50 -19t20 -50q0 -33 -21.5 -55.5t-54.5 -22.5t-53.5 19t-20.5 51zM270 1217
q0 33 22.5 55t57.5 22q31 0 50.5 -18.5t19.5 -50.5q0 -33 -21 -55.5t-57 -22.5q-31 0 -51.5 19t-20.5 51z" />
    <glyph glyph-name="yacute" unicode="&#xfd;" horiz-adv-x="940" 
d="M776 942h92q0 -24 -16 -74l-373 -985q-85 -205 -175.5 -296t-194.5 -91q-43 0 -64 6v80q123 1 208 98t175 320h-10l-324 868q-16 40 -16 74h98l242 -663q14 -38 49 -154h6zM360 1141l291 307l68 -66v-10l-307 -282z" />
    <glyph glyph-name="thorn" unicode="&#xfe;" horiz-adv-x="1050" 
d="M510 59q125 0 203 72q57 55 85.5 146t28.5 198q0 175 -69 290.5t-195 115.5q-78 0 -142 -36t-145 -110v-612q105 -64 234 -64zM176 1534l100 4v-711q73 70 142.5 107t156.5 37q161 0 259 -135t98 -342q0 -77 -14.5 -150t-47.5 -141t-81.5 -119.5t-120.5 -82t-160 -30.5
q-123 0 -232 68v-531h-100v2026z" />
    <glyph glyph-name="ydieresis" unicode="&#xff;" horiz-adv-x="940" 
d="M776 942h92q0 -24 -16 -74l-373 -985q-85 -205 -175.5 -296t-194.5 -91q-43 0 -64 6v80q123 1 208 98t175 320h-10l-324 868q-16 40 -16 74h98l242 -663q14 -38 49 -154h6zM565 1217q0 33 22 55t58 22q30 0 50 -19t20 -50q0 -33 -21.5 -55.5t-54.5 -22.5t-53.5 19
t-20.5 51zM238 1217q0 33 22 55t57 22q31 0 50.5 -18.5t19.5 -50.5q0 -33 -21 -55.5t-57 -22.5q-31 0 -51 19t-20 51z" />
    <glyph glyph-name="Amacron" unicode="&#x100;" horiz-adv-x="1165" 
d="M584 1235l-250 -723h491l-139 414l-96 309h-6zM528 1368l115 8l408 -1198q9 -30 28.5 -89.5t28.5 -88.5h-109l-143 422h-555l-145 -422h-109q44 130 62 176zM344 1642h477v-83h-477v83z" />
    <glyph glyph-name="amacron" unicode="&#x101;" horiz-adv-x="942" 
d="M135 813q188 152 375 152q139 0 200.5 -87t61.5 -274v-252q0 -125 16 -346l-83 -12l-25 139q-174 -156 -346 -156q-107 0 -172.5 62.5t-65.5 169.5q0 135 117 215q123 84 459 111v28q0 172 -38.5 241.5t-135.5 69.5q-152 0 -322 -126zM346 61q155 0 326 160v234
q-317 -33 -402 -90q-73 -57 -73 -146q0 -74 41 -116t108 -42zM233 1233h472v-84h-472v84z" />
    <glyph glyph-name="Abreve" unicode="&#x102;" horiz-adv-x="1165" 
d="M584 1235l-250 -723h491l-139 414l-96 309h-6zM528 1368l115 8l408 -1198q9 -30 28.5 -89.5t28.5 -88.5h-109l-143 422h-555l-145 -422h-109q44 130 62 176zM846 1745q-30 -103 -100.5 -157t-163.5 -54t-160 52t-98 157l67 31q31 -80 78.5 -115t114.5 -35q141 0 196 150z
" />
    <glyph glyph-name="abreve" unicode="&#x103;" horiz-adv-x="942" 
d="M135 813q188 152 375 152q139 0 200.5 -87t61.5 -274v-252q0 -125 16 -346l-83 -12l-25 139q-174 -156 -346 -156q-107 0 -172.5 62.5t-65.5 169.5q0 135 117 215q123 84 459 111v28q0 172 -38.5 241.5t-135.5 69.5q-152 0 -322 -126zM346 61q155 0 326 160v234
q-317 -33 -402 -90q-73 -57 -73 -146q0 -74 41 -116t108 -42zM471 1196q161 0 191 188l71 -10q-17 -136 -86.5 -202t-179.5 -66q-218 0 -256 268l74 10q33 -188 186 -188z" />
    <glyph glyph-name="Aogonek" unicode="&#x104;" horiz-adv-x="1165" 
d="M528 1368l115 8l408 -1198q9 -30 28.5 -89.5t28.5 -88.5q-125 -72 -185.5 -141t-60.5 -144q0 -56 32.5 -88.5t96.5 -32.5q62 0 133 31l27 -76q-94 -43 -180 -43q-95 0 -152 54.5t-57 144.5q0 83 50.5 153t148.5 138l32 24l-137 402h-555l-147 -422h-107q44 130 62 176z
M584 1235l-252 -723h493l-139 414l-96 309h-6z" />
    <glyph glyph-name="aogonek" unicode="&#x105;" horiz-adv-x="942" 
d="M135 813q188 152 375 152q139 0 200.5 -87t61.5 -274v-252q0 -141 16 -389q-227 -112 -227 -229q0 -46 30.5 -75.5t88.5 -29.5q50 0 141 37l27 -76q-90 -47 -186 -47q-89 0 -146 48.5t-57 127.5q0 145 239 277l-20 135q-167 -154 -344 -154q-107 0 -172.5 62.5
t-65.5 169.5q0 135 117 215q123 84 459 111v28q0 172 -38.5 241.5t-135.5 69.5q-152 0 -322 -126zM346 61q155 0 326 160v234q-317 -33 -402 -90q-73 -57 -73 -146q0 -74 41 -116t108 -42z" />
    <glyph glyph-name="Cacute" unicode="&#x106;" horiz-adv-x="1177" 
d="M125 664q0 113 22.5 218.5t70 199t116.5 163t168 110t217 40.5q207 0 358 -109l-43 -80q-81 48 -155 70t-162 22q-195 0 -309 -120q-172 -183 -172 -504q0 -96 16 -182t52.5 -164t91 -134t137.5 -89t186 -33q165 0 340 86l35 -80q-190 -101 -385 -101q-146 0 -259.5 54.5
t-183.5 149.5t-105.5 217.5t-35.5 265.5zM535 1604l397 165l35 -92v-8l-408 -137z" />
    <glyph glyph-name="cacute" unicode="&#x107;" horiz-adv-x="892" 
d="M119 453q0 228 113 370t294 142q176 0 277 -154l-58 -53q-55 60 -107 88t-120 28q-96 0 -170 -59q-125 -103 -125 -348q0 -196 82.5 -297.5t226.5 -101.5q107 0 242 55l27 -78q-156 -68 -279 -68q-186 0 -294.5 129.5t-108.5 346.5zM397 1141l291 307l68 -66v-10
l-307 -282z" />
    <glyph glyph-name="Ccircumflex" unicode="&#x108;" horiz-adv-x="1177" 
d="M125 664q0 113 22.5 218.5t70 199t116.5 163t168 110t217 40.5q207 0 358 -109l-43 -80q-81 48 -155 70t-162 22q-195 0 -309 -120q-172 -183 -172 -504q0 -96 16 -182t52.5 -164t91 -134t137.5 -89t186 -33q165 0 340 86l35 -80q-190 -101 -385 -101q-146 0 -259.5 54.5
t-183.5 149.5t-105.5 217.5t-35.5 265.5zM655 1784l76 8l258 -219l-47 -60l-248 189l-243 -186l-48 59z" />
    <glyph glyph-name="ccircumflex" unicode="&#x109;" horiz-adv-x="892" 
d="M119 453q0 228 113 370t294 142q176 0 277 -154l-58 -53q-55 60 -107 88t-120 28q-96 0 -170 -59q-125 -103 -125 -348q0 -196 82.5 -297.5t226.5 -101.5q107 0 242 55l27 -78q-156 -68 -279 -68q-186 0 -294.5 129.5t-108.5 346.5zM473 1425l76 7l233 -293l-55 -49
l-215 245l-219 -248l-57 52z" />
    <glyph glyph-name="Cdotaccent" unicode="&#x10a;" horiz-adv-x="1177" 
d="M125 664q0 113 22.5 218.5t70 199t116.5 163t168 110t217 40.5q207 0 358 -109l-43 -80q-81 48 -155 70t-162 22q-195 0 -309 -120q-172 -183 -172 -504q0 -96 16 -182t52.5 -164t91 -134t137.5 -89t186 -33q165 0 340 86l35 -80q-190 -101 -385 -101q-146 0 -259.5 54.5
t-183.5 149.5t-105.5 217.5t-35.5 265.5zM616 1628q0 38 23.5 62t60.5 24q34 0 55 -21t21 -55q0 -37 -22.5 -60.5t-59.5 -23.5q-35 0 -56.5 20t-21.5 54z" />
    <glyph glyph-name="cdotaccent" unicode="&#x10b;" horiz-adv-x="892" 
d="M119 453q0 228 113 370t294 142q176 0 277 -154l-58 -53q-55 60 -107 88t-120 28q-96 0 -170 -59q-125 -103 -125 -348q0 -196 82.5 -297.5t226.5 -101.5q107 0 242 55l27 -78q-156 -68 -279 -68q-186 0 -294.5 129.5t-108.5 346.5zM430 1223q0 40 24 64t62 24
q35 0 56.5 -21.5t21.5 -58.5q0 -38 -23 -62t-61 -24q-37 0 -58.5 21.5t-21.5 56.5z" />
    <glyph glyph-name="Ccaron" unicode="&#x10c;" horiz-adv-x="1177" 
d="M125 664q0 113 22.5 218.5t70 199t116.5 163t168 110t217 40.5q207 0 358 -109l-43 -80q-81 48 -155 70t-162 22q-195 0 -309 -120q-172 -183 -172 -504q0 -96 16 -182t52.5 -164t91 -134t137.5 -89t186 -33q165 0 340 86l35 -80q-190 -101 -385 -101q-146 0 -259.5 54.5
t-183.5 149.5t-105.5 217.5t-35.5 265.5zM403 1737l48 59l245 -186l246 186l47 -59l-252 -211l-75 -8z" />
    <glyph glyph-name="ccaron" unicode="&#x10d;" horiz-adv-x="892" 
d="M119 453q0 228 113 370t294 142q176 0 277 -154l-58 -53q-55 60 -107 88t-120 28q-96 0 -170 -59q-125 -103 -125 -348q0 -196 82.5 -297.5t226.5 -101.5q107 0 242 55l27 -78q-156 -68 -279 -68q-186 0 -294.5 129.5t-108.5 346.5zM475 1100l-233 293l55 49l215 -246
l219 248l57 -51l-237 -287z" />
    <glyph glyph-name="Dcaron" unicode="&#x10e;" horiz-adv-x="1323" 
d="M207 1362q183 33 366 33q285 0 455 -187t170 -497q0 -210 -80.5 -377t-228 -262t-336.5 -95q-200 0 -346 31v1354zM559 72q154 0 260 71q131 85 202 233.5t69 323.5q-2 271 -142 435.5t-385 164.5q-117 0 -254 -20v-1192q106 -16 250 -16zM324 1737l47 59l245 -186
l246 186l47 -59l-252 -211l-75 -8z" />
    <glyph glyph-name="dcaron" unicode="&#x10f;" horiz-adv-x="1054" 
d="M477 61q77 0 145.5 43t151.5 125v588q-111 66 -233 66q-128 0 -203 -72q-115 -107 -115 -344q0 -175 67 -290.5t187 -115.5zM119 446q0 98 24 187.5t72.5 167t133.5 124t196 46.5q115 0 229 -68v631l100 4v-1219q0 -99 17 -313l-86 -12l-23 147q-77 -80 -152.5 -125
t-166.5 -45q-152 0 -247 135.5t-97 339.5zM1014 1536l96 6l4 -8l-24 -410h-76v412z" />
    <glyph glyph-name="Dcroat" unicode="&#x110;" horiz-adv-x="1335" 
d="M217 1362q186 33 367 33q286 0 456 -187t170 -497q0 -157 -47.5 -293t-131 -233t-204.5 -152.5t-262 -55.5q-202 0 -348 31v649h-166v91h166v614zM569 72q153 0 262 71q130 85 201.5 234t69.5 323q-2 271 -142 435.5t-385 164.5q-116 0 -253 -20v-532h354v-91h-354v-569
q109 -16 247 -16z" />
    <glyph glyph-name="dcroat" unicode="&#x111;" horiz-adv-x="1058" 
d="M473 61q128 0 307 168v564q-108 61 -245 61q-126 0 -199 -70q-113 -110 -113 -323q0 -176 65.5 -288t184.5 -112zM121 440q0 73 14 143t46 135.5t79.5 115t119 79t159.5 29.5q124 0 241 -68v318h-413v84h413v258l101 4v-262h176v-84h-176v-873q0 -112 16 -313l-86 -12
l-23 149q-176 -172 -329 -172q-151 0 -244.5 132t-93.5 337z" />
    <glyph glyph-name="Emacron" unicode="&#x112;" horiz-adv-x="1071" 
d="M207 1372h745l-4 -92h-639v-532h522v-93h-522v-563h641l4 -92h-747v1372zM342 1642h477v-83h-477v83z" />
    <glyph glyph-name="emacron" unicode="&#x113;" horiz-adv-x="972" 
d="M119 463q0 142 49.5 257t143 182t214.5 67q158 0 243 -104.5t85 -264.5q0 -72 -12 -143h-621q3 -190 89.5 -289.5t224.5 -99.5q135 0 270 55l29 -74q-156 -72 -318 -72q-82 0 -153 31t-126 90t-86.5 153t-31.5 212zM522 883q-127 0 -206 -93t-93 -255h527q4 54 4 79
q0 117 -61.5 193t-170.5 76zM274 1233h471v-84h-471v84z" />
    <glyph glyph-name="Ebreve" unicode="&#x114;" horiz-adv-x="1071" 
d="M207 1372h745l-4 -92h-639v-532h522v-93h-522v-563h641l4 -92h-747v1372zM844 1745q-30 -103 -100.5 -157t-163.5 -54t-160 52t-98 157l67 31q31 -80 78.5 -115t114.5 -35q141 0 196 150z" />
    <glyph glyph-name="ebreve" unicode="&#x115;" horiz-adv-x="972" 
d="M119 463q0 142 49.5 257t143 182t214.5 67q158 0 243 -104.5t85 -264.5q0 -72 -12 -143h-621q3 -190 89.5 -289.5t224.5 -99.5q135 0 270 55l29 -74q-156 -72 -318 -72q-82 0 -153 31t-126 90t-86.5 153t-31.5 212zM522 883q-127 0 -206 -93t-93 -255h527q4 54 4 79
q0 117 -61.5 193t-170.5 76zM512 1196q160 0 190 188l72 -10q-17 -136 -86.5 -202t-179.5 -66q-218 0 -256 268l74 10q33 -188 186 -188z" />
    <glyph glyph-name="Edotaccent" unicode="&#x116;" horiz-adv-x="1071" 
d="M207 1372h745l-4 -92h-639v-532h522v-93h-522v-563h641l4 -92h-747v1372zM502 1628q0 38 23.5 62t60.5 24q34 0 55 -21t21 -55q0 -37 -22.5 -60.5t-59.5 -23.5q-35 0 -56.5 20t-21.5 54z" />
    <glyph glyph-name="edotaccent" unicode="&#x117;" horiz-adv-x="972" 
d="M119 463q0 142 49.5 257t143 182t214.5 67q158 0 243 -104.5t85 -264.5q0 -72 -12 -143h-621q3 -190 89.5 -289.5t224.5 -99.5q135 0 270 55l29 -74q-156 -72 -318 -72q-82 0 -153 31t-126 90t-86.5 153t-31.5 212zM522 883q-127 0 -206 -93t-93 -255h527q4 54 4 79
q0 117 -61.5 193t-170.5 76zM428 1223q0 40 24 64t62 24q35 0 56.5 -21.5t21.5 -58.5q0 -38 -23 -62t-61 -24q-37 0 -58.5 21.5t-21.5 56.5z" />
    <glyph glyph-name="Eogonek" unicode="&#x118;" horiz-adv-x="1071" 
d="M207 1372h745l-4 -92h-639v-532h522v-93h-522v-563h641l4 -92q-128 -75 -186.5 -141.5t-58.5 -141.5q0 -57 32.5 -90t96.5 -33q62 0 133 31l26 -76q-94 -43 -180 -43q-95 0 -153 55t-58 144q0 88 58 157.5t170 135.5v2h-627v1372z" />
    <glyph glyph-name="eogonek" unicode="&#x119;" horiz-adv-x="972" 
d="M119 463q0 142 49.5 257t143 182t214.5 67q158 0 243 -104.5t85 -264.5q0 -72 -12 -143h-621q3 -190 89.5 -289.5t224.5 -99.5q135 0 270 55l29 -74q-152 -87 -220.5 -153t-68.5 -146q0 -58 33.5 -89.5t93.5 -31.5q45 0 139 37l27 -76q-96 -47 -187 -47
q-94 0 -149.5 51.5t-55.5 137.5q0 139 170 252q-58 -7 -100 -7q-82 0 -153 31t-126 90t-86.5 153t-31.5 212zM522 883q-128 0 -207 -92t-92 -256h527q4 54 4 79q0 117 -61.5 193t-170.5 76z" />
    <glyph glyph-name="Ecaron" unicode="&#x11a;" horiz-adv-x="1071" 
d="M207 1372h745l-4 -92h-639v-532h522v-93h-522v-563h641l4 -92h-747v1372zM289 1737l47 59l246 -186l245 186l47 -59l-251 -211l-76 -8z" />
    <glyph glyph-name="ecaron" unicode="&#x11b;" horiz-adv-x="972" 
d="M119 463q0 142 49.5 257t143 182t214.5 67q158 0 243 -104.5t85 -264.5q0 -72 -12 -143h-621q3 -190 89.5 -289.5t224.5 -99.5q135 0 270 55l29 -74q-156 -72 -318 -72q-82 0 -153 31t-126 90t-86.5 153t-31.5 212zM522 883q-127 0 -206 -93t-93 -255h527q4 54 4 79
q0 117 -61.5 193t-170.5 76zM473 1100l-233 293l55 49l215 -246l219 248l57 -51l-237 -287z" />
    <glyph glyph-name="Gcircumflex" unicode="&#x11c;" horiz-adv-x="1245" 
d="M125 655q0 116 22.5 222.5t71 201.5t118 165t170 110.5t220.5 40.5q208 0 354 -109l-43 -80q-164 97 -319 97q-187 0 -309 -125q-88 -90 -131 -222.5t-43 -285.5q0 -95 16 -179.5t53 -162.5t92 -134t139 -89t189 -33q139 0 274 55v457h-366v92h467v-598
q-187 -101 -381 -101q-123 0 -223 35.5t-168 97.5t-114.5 148.5t-67.5 185.5t-21 211zM647 1784l76 8l258 -219l-47 -60l-248 189l-244 -186l-47 59z" />
    <glyph glyph-name="gcircumflex" unicode="&#x11d;" horiz-adv-x="970" 
d="M217 162q0 87 76 172q-86 37 -131 114t-45 175q0 64 21 123t62 109t110 80t157 30q115 0 195 -52q98 101 241 107l4 -90q-95 -8 -190 -60q92 -92 92 -235q0 -90 -37.5 -164t-118 -122t-192.5 -48q-48 0 -96 10q-54 -64 -54 -123q0 -27 10.5 -45.5t26 -29t45.5 -15.5
t57.5 -6.5t73.5 -1.5q373 0 373 -260q0 -109 -63.5 -190.5t-163.5 -120.5t-221 -39q-170 0 -276 78t-105 209q0 95 46.5 167.5t135.5 133.5q-33 38 -33 94zM465 -434q167 0 262 82q74 71 74 172q0 57 -22.5 94t-68 55.5t-97.5 25.5t-128 7q-105 0 -168 23
q-76 -50 -115.5 -109t-39.5 -137q0 -103 80.5 -158t222.5 -55zM713 627q0 118 -65 186t-187 68q-112 0 -179 -66t-67 -180q0 -115 62.5 -183.5t187.5 -68.5q111 0 179.5 63.5t68.5 180.5zM424 1425l76 7l233 -293l-55 -49l-215 245l-219 -248l-58 52z" />
    <glyph glyph-name="Gbreve" unicode="&#x11e;" horiz-adv-x="1245" 
d="M125 655q0 116 22.5 222.5t71 201.5t118 165t170 110.5t220.5 40.5q208 0 354 -109l-43 -80q-164 97 -319 97q-187 0 -309 -125q-88 -90 -131 -222.5t-43 -285.5q0 -95 16 -179.5t53 -162.5t92 -134t139 -89t189 -33q139 0 274 55v457h-366v92h467v-598
q-187 -101 -381 -101q-123 0 -223 35.5t-168 97.5t-114.5 148.5t-67.5 185.5t-21 211zM950 1745q-30 -103 -100.5 -157t-163.5 -54t-160 52t-98 157l68 31q31 -81 78 -115.5t114 -34.5q142 0 197 150z" />
    <glyph glyph-name="gbreve" unicode="&#x11f;" horiz-adv-x="970" 
d="M217 162q0 87 76 172q-86 37 -131 114t-45 175q0 64 21 123t62 109t110 80t157 30q115 0 195 -52q98 101 241 107l4 -90q-95 -8 -190 -60q92 -92 92 -235q0 -90 -37.5 -164t-118 -122t-192.5 -48q-48 0 -96 10q-54 -64 -54 -123q0 -27 10.5 -45.5t26 -29t45.5 -15.5
t57.5 -6.5t73.5 -1.5q373 0 373 -260q0 -109 -63.5 -190.5t-163.5 -120.5t-221 -39q-170 0 -276 78t-105 209q0 95 46.5 167.5t135.5 133.5q-33 38 -33 94zM465 -434q167 0 262 82q74 71 74 172q0 57 -22.5 94t-68 55.5t-97.5 25.5t-128 7q-105 0 -168 23
q-76 -50 -115.5 -109t-39.5 -137q0 -103 80.5 -158t222.5 -55zM713 627q0 118 -65 186t-187 68q-112 0 -179 -66t-67 -180q0 -115 62.5 -183.5t187.5 -68.5q111 0 179.5 63.5t68.5 180.5zM465 1196q160 0 190 188l72 -10q-17 -136 -86.5 -202t-179.5 -66q-218 0 -256 268
l74 10q33 -188 186 -188z" />
    <glyph glyph-name="Gdotaccent" unicode="&#x120;" horiz-adv-x="1245" 
d="M125 655q0 116 22.5 222.5t71 201.5t118 165t170 110.5t220.5 40.5q208 0 354 -109l-43 -80q-164 97 -319 97q-187 0 -309 -125q-88 -90 -131 -222.5t-43 -285.5q0 -95 16 -179.5t53 -162.5t92 -134t139 -89t189 -33q139 0 274 55v457h-366v92h467v-598
q-187 -101 -381 -101q-123 0 -223 35.5t-168 97.5t-114.5 148.5t-67.5 185.5t-21 211zM608 1628q0 38 23.5 62t60.5 24q34 0 55 -21t21 -55q0 -37 -22.5 -60.5t-59.5 -23.5q-35 0 -56.5 20t-21.5 54z" />
    <glyph glyph-name="gdotaccent" unicode="&#x121;" horiz-adv-x="970" 
d="M217 162q0 87 76 172q-86 37 -131 114t-45 175q0 64 21 123t62 109t110 80t157 30q115 0 195 -52q98 101 241 107l4 -90q-95 -8 -190 -60q92 -92 92 -235q0 -90 -37.5 -164t-118 -122t-192.5 -48q-48 0 -96 10q-54 -64 -54 -123q0 -27 10.5 -45.5t26 -29t45.5 -15.5
t57.5 -6.5t73.5 -1.5q373 0 373 -260q0 -109 -63.5 -190.5t-163.5 -120.5t-221 -39q-170 0 -276 78t-105 209q0 95 46.5 167.5t135.5 133.5q-33 38 -33 94zM465 -434q167 0 262 82q74 71 74 172q0 57 -22.5 94t-68 55.5t-97.5 25.5t-128 7q-105 0 -168 23
q-76 -50 -115.5 -109t-39.5 -137q0 -103 80.5 -158t222.5 -55zM713 627q0 118 -65 186t-187 68q-112 0 -179 -66t-67 -180q0 -115 62.5 -183.5t187.5 -68.5q111 0 179.5 63.5t68.5 180.5zM381 1223q0 40 24 64t62 24q35 0 56.5 -21.5t21.5 -58.5q0 -38 -23 -62t-61 -24
q-37 0 -58.5 21.5t-21.5 56.5z" />
    <glyph glyph-name="uni0122" unicode="&#x122;" horiz-adv-x="1245" 
d="M125 655q0 116 22.5 222.5t71 201.5t118 165t170 110.5t220.5 40.5q208 0 354 -109l-43 -80q-164 97 -319 97q-187 0 -309 -125q-88 -90 -131 -222.5t-43 -285.5q0 -95 16 -179.5t53 -162.5t92 -134t139 -89t189 -33q139 0 274 55v457h-366v92h467v-598
q-187 -101 -381 -101q-123 0 -223 35.5t-168 97.5t-114.5 148.5t-67.5 185.5t-21 211zM664 -147l90 12q10 -49 10 -111q0 -158 -80 -270l-66 37q54 108 54 223q0 27 -8 109z" />
    <glyph glyph-name="uni0123" unicode="&#x123;" horiz-adv-x="970" 
d="M217 162q0 87 76 172q-86 37 -131 114t-45 175q0 64 21 123t62 109t110 80t157 30q115 0 195 -52q98 101 241 107l4 -90q-95 -8 -190 -60q92 -92 92 -235q0 -90 -37.5 -164t-118 -122t-192.5 -48q-48 0 -96 10q-54 -64 -54 -123q0 -27 10.5 -45.5t26 -29t45.5 -15.5
t57.5 -6.5t73.5 -1.5q373 0 373 -260q0 -109 -63.5 -190.5t-163.5 -120.5t-221 -39q-170 0 -276 78t-105 209q0 95 46.5 167.5t135.5 133.5q-33 38 -33 94zM465 -434q167 0 262 82q74 71 74 172q0 57 -22.5 94t-68 55.5t-97.5 25.5t-128 7q-105 0 -168 23
q-76 -50 -115.5 -109t-39.5 -137q0 -103 80.5 -158t222.5 -55zM713 627q0 118 -65 186t-187 68q-112 0 -179 -66t-67 -180q0 -115 62.5 -183.5t187.5 -68.5q111 0 179.5 63.5t68.5 180.5zM420 1227q0 71 22 143.5t60 124.5l65 -37q-53 -103 -53 -221q0 -49 6 -113l-88 -10
q-12 52 -12 113z" />
    <glyph glyph-name="Hcircumflex" unicode="&#x124;" horiz-adv-x="1331" 
d="M1022 1372h102v-1372h-102v655h-713v-655h-102v1372h102v-627h713v627zM625 1784l75 8l258 -219l-47 -60l-247 189l-244 -186l-47 59z" />
    <glyph glyph-name="hcircumflex" unicode="&#x125;" horiz-adv-x="1052" 
d="M176 1534l100 4v-692q167 125 342 125q146 0 206.5 -83t60.5 -247v-641h-101v596q0 153 -38 219t-144 66q-167 0 -326 -121v-760h-100v1534zM223 1948l76 8l258 -219l-47 -60l-248 189l-244 -187l-47 60z" />
    <glyph glyph-name="Hbar" unicode="&#x126;" horiz-adv-x="1351" 
d="M1032 1372h105v-264h155v-90h-155v-1018h-105v631h-713v-631h-102v1018h-158v90h158v264h102v-264h713v264zM1032 723v295h-713v-295h713z" />
    <glyph glyph-name="hbar" unicode="&#x127;" horiz-adv-x="1069" 
d="M176 1534l100 4v-262h424v-84h-424v-387q174 137 359 137q146 0 206 -83t60 -247v-612h-100v567q0 153 -38.5 219t-144.5 66q-177 0 -342 -135v-717h-100v1192h-176v84h176v258z" />
    <glyph glyph-name="Itilde" unicode="&#x128;" horiz-adv-x="516" 
d="M207 1372h102v-1372h-102v1372zM375 1602q33 0 69 40t66 105l68 -35q-88 -194 -205 -194q-32 0 -60.5 15t-49 36t-39.5 42.5t-39.5 36.5t-41.5 15q-59 0 -139 -143l-65 36q92 193 208 193q32 0 59.5 -15t47.5 -36.5t38.5 -43.5t39.5 -37t43 -15z" />
    <glyph glyph-name="itilde" unicode="&#x129;" horiz-adv-x="452" 
d="M176 940l100 4v-944h-100v940zM317 1196q49 0 105 143l65 -28q-72 -199 -174 -199q-29 0 -55.5 22.5t-42.5 49t-36 49t-38 22.5q-26 0 -49.5 -35t-54.5 -108l-64 29q32 93 76 145.5t96 52.5q30 0 57 -22.5t43 -49t35.5 -49t36.5 -22.5z" />
    <glyph glyph-name="Imacron" unicode="&#x12a;" horiz-adv-x="516" 
d="M207 1372h102v-1372h-102v1372zM18 1642h478v-83h-478v83z" />
    <glyph glyph-name="imacron" unicode="&#x12b;" horiz-adv-x="452" 
d="M176 940l100 4v-944h-100v940zM37 1233h385v-84h-385v84z" />
    <glyph glyph-name="Ibreve" unicode="&#x12c;" horiz-adv-x="516" 
d="M207 1372h102v-1372h-102v1372zM520 1745q-30 -103 -100.5 -157t-163.5 -54t-160 52t-98 157l68 31q31 -81 78 -115.5t114 -34.5q142 0 197 150z" />
    <glyph glyph-name="ibreve" unicode="&#x12d;" horiz-adv-x="452" 
d="M176 940l100 4v-944h-100v940zM231 1196q134 0 164 205l70 -12q-13 -138 -74.5 -210.5t-163.5 -72.5q-95 0 -153.5 72.5t-73.5 210.5l74 12q31 -205 157 -205z" />
    <glyph glyph-name="Iogonek" unicode="&#x12e;" horiz-adv-x="516" 
d="M207 1372h102v-1374q-88 -76 -129 -138.5t-41 -129.5q0 -136 137 -136q70 0 160 39l27 -75q-110 -52 -205 -52t-157 56t-62 149q0 78 44.5 149.5t123.5 147.5v1364z" />
    <glyph glyph-name="iogonek" unicode="&#x12f;" horiz-adv-x="452" 
d="M176 940l100 4v-948q-87 -64 -126 -120.5t-39 -121.5q0 -61 33 -93t92 -32q49 0 143 37l27 -76q-100 -47 -191 -47q-88 0 -146.5 53t-58.5 142q0 144 166 274v928zM147 1223q0 40 24 64t62 24q35 0 56.5 -21.5t21.5 -58.5q0 -38 -23 -62t-61 -24q-37 0 -58.5 21.5
t-21.5 56.5z" />
    <glyph glyph-name="Idotaccent" unicode="&#x130;" horiz-adv-x="516" 
d="M207 1372h102v-1372h-102v1372zM178 1628q0 38 23.5 62t60.5 24q34 0 55 -21t21 -55q0 -37 -22.5 -60.5t-59.5 -23.5q-35 0 -56.5 20t-21.5 54z" />
    <glyph glyph-name="dotlessi" unicode="&#x131;" horiz-adv-x="452" 
d="M176 940l100 4v-944h-100v940z" />
    <glyph glyph-name="IJ" unicode="&#x132;" horiz-adv-x="1044" 
d="M207 1372h102v-1372h-102v1372zM735 1372h103v-1294q0 -129 -16.5 -220.5t-56.5 -163t-112.5 -110.5t-179.5 -47l-18 82q73 12 121.5 36.5t80.5 60.5t49 96.5t23 131t6 177.5v1251z" />
    <glyph glyph-name="ij" unicode="&#x133;" horiz-adv-x="907" 
d="M176 940l100 4v-944h-100v940zM147 1223q0 40 24 64t62 24q35 0 56.5 -21.5t21.5 -58.5q0 -38 -23 -62t-61 -24q-37 0 -58.5 21.5t-21.5 56.5zM629 940l100 4v-901q0 -97 -16.5 -176t-50.5 -142t-74.5 -111t-98.5 -99l-57 57q97 103 147 213t50 264v891zM594 1223
q0 40 24 64t62 24q35 0 56.5 -21.5t21.5 -58.5q0 -38 -23 -62t-61 -24q-37 0 -58.5 21.5t-21.5 56.5z" />
    <glyph glyph-name="Jcircumflex" unicode="&#x134;" horiz-adv-x="528" 
d="M219 1372h103v-1294q0 -129 -16.5 -220.5t-56.5 -163t-112.5 -110.5t-179.5 -47l-18 82q73 12 121.5 36.5t80.5 60.5t49 96.5t23 131t6 177.5v1251zM229 1784l76 8l258 -219l-47 -60l-248 189l-243 -186l-48 59z" />
    <glyph glyph-name="jcircumflex" unicode="&#x135;" horiz-adv-x="452" 
d="M176 940l100 4v-901q0 -128 -31.5 -228t-80.5 -166t-127 -134l-57 57q96 103 146 213t50 264v891zM186 1423l76 9l203 -291l-59 -47l-181 239l-186 -241l-57 47z" />
    <glyph glyph-name="uni0136" unicode="&#x136;" horiz-adv-x="1138" 
d="M961 1372h120q-14 -28 -45 -59l-481 -514l442 -666q29 -42 82 -133h-118l-478 721l-174 -184v-537h-102v1372h102v-700h4zM590 -147l90 12q10 -49 10 -111q0 -158 -80 -270l-65 37q53 106 53 223q0 27 -8 109z" />
    <glyph glyph-name="uni0137" unicode="&#x137;" horiz-adv-x="956" 
d="M772 942h105q-7 -22 -41 -61l-334 -363l356 -446q37 -47 45 -72h-110l-355 451l-162 -175v-276h-100v1534l100 4v-1132zM500 -147l90 12q10 -49 10 -111q0 -155 -82 -270l-63 37q51 102 51 223q0 48 -6 109z" />
    <glyph glyph-name="kgreenlandic" unicode="&#x138;" horiz-adv-x="956" 
d="M772 942h105q-7 -22 -41 -61l-334 -363l356 -446q37 -47 45 -72h-110l-355 451l-162 -170v-281h-100v940l100 4v-538l142 153z" />
    <glyph glyph-name="Lacute" unicode="&#x139;" horiz-adv-x="987" 
d="M207 1372h102v-1280h621l4 -92h-727v1372zM90 1604l397 165l35 -92v-8l-407 -137z" />
    <glyph glyph-name="lacute" unicode="&#x13a;" horiz-adv-x="483" 
d="M176 1534l100 4v-1374q0 -51 15 -73.5t47 -22.5q35 0 78 14l22 -78q-73 -27 -129 -27q-64 0 -98.5 40.5t-34.5 117.5v1399zM66 1767l397 166l35 -92v-8l-408 -137z" />
    <glyph glyph-name="uni013B" unicode="&#x13b;" horiz-adv-x="987" 
d="M207 1372h102v-1280h621l4 -92h-727v1372zM547 -147l90 12q10 -49 10 -111q0 -158 -80 -270l-65 37q53 106 53 223q0 27 -8 109z" />
    <glyph glyph-name="uni013C" unicode="&#x13c;" horiz-adv-x="483" 
d="M176 1534l100 4v-1374q0 -51 15 -73.5t47 -22.5q35 0 78 14l22 -78q-73 -27 -129 -27q-64 0 -98.5 40.5t-34.5 117.5v1399zM279 -147l90 12q10 -49 10 -111q0 -155 -82 -270l-64 37q52 104 52 223q0 48 -6 109z" />
    <glyph glyph-name="Lcaron" unicode="&#x13d;" horiz-adv-x="972" 
d="M207 1372h102v-1280h621l4 -92h-727v1372zM516 1415l96 6l4 -8l-24 -409h-76v411z" />
    <glyph glyph-name="lcaron" unicode="&#x13e;" horiz-adv-x="485" 
d="M176 1534l100 4v-1374q0 -51 15 -73.5t47 -22.5q35 0 78 14l22 -78q-73 -27 -129 -27q-64 0 -98.5 40.5t-34.5 117.5v1399zM418 1536l96 6l4 -8l-24 -410h-76v412z" />
    <glyph glyph-name="Ldot" unicode="&#x13f;" horiz-adv-x="1048" 
d="M207 1372h102v-1280h621l4 -92h-727v1372zM748 731q0 38 21 62t58 24q34 0 55 -22t21 -56q0 -40 -21 -64t-57 -24q-37 0 -57 22.5t-20 57.5z" />
    <glyph glyph-name="ldot" unicode="&#x140;" horiz-adv-x="632" 
d="M176 1534l100 4v-1374q0 -51 15 -73.5t47 -22.5q35 0 78 14l22 -78q-73 -27 -129 -27q-64 0 -98.5 40.5t-34.5 117.5v1399zM455 727q0 38 21.5 62t58.5 24q34 0 54.5 -22.5t20.5 -55.5q0 -40 -21 -64t-57 -24q-37 0 -57 22.5t-20 57.5z" />
    <glyph glyph-name="Lslash" unicode="&#x141;" horiz-adv-x="1021" 
d="M23 524l217 135v713h102v-649l375 231l47 -80l-422 -260v-522h621l4 -92h-727v553l-172 -107z" />
    <glyph glyph-name="lslash" unicode="&#x142;" horiz-adv-x="583" 
d="M240 1534l100 4v-651l192 127l46 -68v-6l-238 -154v-622q0 -96 61 -96q37 0 78 14l25 -78q-73 -27 -131 -27q-63 0 -98 40.5t-35 117.5v586l-152 -98l-43 67v4l195 127v713z" />
    <glyph glyph-name="Nacute" unicode="&#x143;" horiz-adv-x="1366" 
d="M207 1372h119l653 -1077l84 -158h2l-6 185v1050h100v-1372h-123l-653 1077l-82 154h-2l6 -158v-1073h-98v1372zM541 1604l397 165l35 -92v-8l-408 -137z" />
    <glyph glyph-name="nacute" unicode="&#x144;" horiz-adv-x="1056" 
d="M162 944l86 10l22 -137q174 154 351 154q148 0 207 -82.5t59 -247.5v-641h-99v600q0 147 -40 214t-144 67q-152 0 -323 -144v-737h-101v594q0 141 -18 350zM416 1141l291 307l67 -66v-10l-307 -282z" />
    <glyph glyph-name="uni0145" unicode="&#x145;" horiz-adv-x="1366" 
d="M207 1372h119l653 -1077l84 -158h2l-6 185v1050h100v-1372h-123l-653 1077l-82 154h-2l6 -158v-1073h-98v1372zM637 -147l90 12q10 -49 10 -111q0 -158 -80 -270l-65 37q53 106 53 223q0 27 -8 109z" />
    <glyph glyph-name="uni0146" unicode="&#x146;" horiz-adv-x="1056" 
d="M162 944l86 10l22 -137q174 154 351 154q148 0 207 -82.5t59 -247.5v-641h-99v600q0 147 -40 214t-144 67q-152 0 -323 -144v-737h-101v594q0 141 -18 350zM502 -147l90 12q10 -49 10 -111q0 -155 -82 -270l-63 37q51 102 51 223q0 48 -6 109z" />
    <glyph glyph-name="Ncaron" unicode="&#x147;" horiz-adv-x="1366" 
d="M207 1372h119l653 -1077l84 -158h2l-6 185v1050h100v-1372h-123l-653 1077l-82 154h-2l6 -158v-1073h-98v1372zM410 1737l47 59l245 -186l246 186l47 -59l-252 -211l-75 -8z" />
    <glyph glyph-name="ncaron" unicode="&#x148;" horiz-adv-x="1056" 
d="M162 944l86 10l22 -137q174 154 351 154q148 0 207 -82.5t59 -247.5v-641h-99v600q0 147 -40 214t-144 67q-152 0 -323 -144v-737h-101v594q0 141 -18 350zM494 1100l-234 293l55 49l215 -246l220 248l57 -51l-238 -287z" />
    <glyph glyph-name="napostrophe" unicode="&#x149;" horiz-adv-x="1056" 
d="M162 944l86 10l22 -137q174 154 351 154q148 0 207 -82.5t59 -247.5v-641h-99v600q0 147 -40 214t-144 67q-152 0 -323 -144v-737h-101v594q0 141 -18 350zM211 1456l92 10q16 -66 16 -123q0 -163 -145 -264l-41 47q88 85 88 209q0 53 -10 121z" />
    <glyph glyph-name="Eng" unicode="&#x14a;" horiz-adv-x="1366" 
d="M207 1372h119l647 -1077l84 -156h2v1233h100v-1438q0 -454 -287 -454q-129 0 -229 53l35 80q98 -43 180 -43q45 0 79.5 13.5t55.5 41t35 58.5t20.5 76t8.5 83t2 90v43l-33 25l-643 1077l-82 154h-2l6 -158v-1073h-98v1372z" />
    <glyph glyph-name="eng" unicode="&#x14b;" horiz-adv-x="1056" 
d="M162 944l86 10l22 -137q174 154 351 154q148 0 207 -82.5t59 -247.5v-709q0 -49 -2 -88t-9 -87.5t-18.5 -85.5t-33 -74.5t-50.5 -62t-72.5 -39.5t-97.5 -15q-125 0 -229 55l33 76q93 -41 186 -41q39 0 69.5 10.5t51 26.5t34.5 44.5t21.5 54t11.5 67.5t5 72t1 79v676
q0 147 -40 214t-144 67q-152 0 -323 -144v-737h-101v594q0 126 -8 217z" />
    <glyph glyph-name="Omacron" unicode="&#x14c;" horiz-adv-x="1384" 
d="M125 668q0 75 10 149.5t32 147t54.5 137t79 120t103.5 95t130.5 62t157.5 22.5q131 0 239 -54.5t179.5 -149t110.5 -221t39 -271.5q0 -107 -20 -209.5t-65 -198t-109.5 -167.5t-161 -115.5t-212.5 -43.5q-174 0 -304.5 94.5t-196.5 251.5t-66 351zM1151 686
q0 130 -31 243t-88 197t-145 132.5t-195 48.5q-139 0 -252 -86q-106 -86 -155 -230t-49 -305q0 -175 52.5 -314t158 -222.5t247.5 -83.5q139 0 252 86q106 86 155.5 229.5t49.5 304.5zM453 1642h477v-83h-477v83z" />
    <glyph glyph-name="omacron" unicode="&#x14d;" horiz-adv-x="1044" 
d="M119 463q0 91 24.5 178t72 162.5t128.5 121.5t184 46q182 0 290 -138.5t108 -353.5q0 -72 -14.5 -142.5t-47 -137t-79 -117t-116 -81t-153.5 -30.5q-121 0 -212 64t-138 175t-47 253zM823 467q0 183 -80 298.5t-225 115.5q-113 0 -186 -70q-111 -111 -111 -336
q0 -185 79.5 -299.5t225.5 -114.5q117 0 189 72q108 108 108 334zM287 1233h471v-84h-471v84z" />
    <glyph glyph-name="Obreve" unicode="&#x14e;" horiz-adv-x="1384" 
d="M125 668q0 75 10 149.5t32 147t54.5 137t79 120t103.5 95t130.5 62t157.5 22.5q131 0 239 -54.5t179.5 -149t110.5 -221t39 -271.5q0 -107 -20 -209.5t-65 -198t-109.5 -167.5t-161 -115.5t-212.5 -43.5q-174 0 -304.5 94.5t-196.5 251.5t-66 351zM1151 686
q0 130 -31 243t-88 197t-145 132.5t-195 48.5q-139 0 -252 -86q-106 -86 -155 -230t-49 -305q0 -175 52.5 -314t158 -222.5t247.5 -83.5q139 0 252 86q106 86 155.5 229.5t49.5 304.5zM954 1745q-30 -103 -100.5 -157t-163.5 -54t-160 52t-98 157l68 31q31 -81 78 -115.5
t114 -34.5q142 0 197 150z" />
    <glyph glyph-name="obreve" unicode="&#x14f;" horiz-adv-x="1044" 
d="M119 463q0 91 24.5 178t72 162.5t128.5 121.5t184 46q182 0 290 -138.5t108 -353.5q0 -72 -14.5 -142.5t-47 -137t-79 -117t-116 -81t-153.5 -30.5q-121 0 -212 64t-138 175t-47 253zM823 467q0 183 -80 298.5t-225 115.5q-113 0 -186 -70q-111 -111 -111 -336
q0 -185 79.5 -299.5t225.5 -114.5q117 0 189 72q108 108 108 334zM524 1196q161 0 191 188l71 -10q-17 -136 -86.5 -202t-179.5 -66q-218 0 -256 268l74 10q33 -188 186 -188z" />
    <glyph glyph-name="Ohungarumlaut" unicode="&#x150;" horiz-adv-x="1384" 
d="M125 668q0 75 10 149.5t32 147t54.5 137t79 120t103.5 95t130.5 62t157.5 22.5q131 0 239 -54.5t179.5 -149t110.5 -221t39 -271.5q0 -107 -20 -209.5t-65 -198t-109.5 -167.5t-161 -115.5t-212.5 -43.5q-174 0 -304.5 94.5t-196.5 251.5t-66 351zM1151 686
q0 130 -31 243t-88 197t-145 132.5t-195 48.5q-139 0 -252 -86q-106 -86 -155 -230t-49 -305q0 -175 52.5 -314t158 -222.5t247.5 -83.5q139 0 252 86q106 86 155.5 229.5t49.5 304.5zM465 1571l227 268l74 -59v-6l-246 -250zM764 1571l227 270l74 -59v-8l-244 -250z" />
    <glyph glyph-name="ohungarumlaut" unicode="&#x151;" horiz-adv-x="1044" 
d="M119 463q0 91 24.5 178t72 162.5t128.5 121.5t184 46q182 0 290 -138.5t108 -353.5q0 -72 -14.5 -142.5t-47 -137t-79 -117t-116 -81t-153.5 -30.5q-121 0 -212 64t-138 175t-47 253zM823 467q0 183 -80 298.5t-225 115.5q-113 0 -186 -70q-111 -111 -111 -336
q0 -185 79.5 -299.5t225.5 -114.5q117 0 189 72q108 108 108 334zM322 1122l161 324l82 -43v-10l-180 -303zM596 1122l160 324l84 -43v-10l-183 -303z" />
    <glyph glyph-name="OE" unicode="&#x152;" horiz-adv-x="1810" 
d="M705 72q135 0 241 20v1188q-111 20 -252 20q-79 0 -147 -26t-109 -60q-102 -84 -152 -231t-50 -299q0 -128 30 -238.5t87 -194t147.5 -131.5t204.5 -48zM125 680q0 100 19.5 197.5t64 192t109 166t163.5 115.5t219 44q125 0 256 -23h736l-4 -92h-639v-532h522v-93h-522
v-563h641l4 -92h-748q-125 -23 -250 -23q-135 0 -244.5 54.5t-180 150.5t-108.5 223t-38 275z" />
    <glyph glyph-name="oe" unicode="&#x153;" horiz-adv-x="1615" 
d="M119 465q0 71 15 141.5t47.5 136.5t78 116.5t111.5 81t143 30.5q122 0 206.5 -69.5t125.5 -192.5q46 122 132.5 192t203.5 70q102 0 174.5 -50.5t106.5 -132.5t34 -186q0 -51 -12 -145h-594q3 -190 85 -289.5t214 -99.5q131 0 258 55l29 -74q-150 -72 -306 -72
q-116 0 -202.5 64t-128.5 188q-43 -116 -127.5 -187t-210.5 -71q-176 0 -279.5 138.5t-103.5 355.5zM793 467q0 184 -75.5 299t-213.5 115q-111 0 -176 -74q-54 -64 -80.5 -140t-26.5 -192q0 -185 75.5 -299.5t215.5 -114.5q59 0 105.5 23t66.5 47q55 65 82 143t27 193z
M1176 883q-119 0 -194.5 -91.5t-88.5 -256.5h500q2 27 2 79q0 117 -57.5 193t-161.5 76z" />
    <glyph glyph-name="Racute" unicode="&#x154;" horiz-adv-x="1144" 
d="M473 682q148 0 250 45q81 33 128.5 104.5t47.5 169.5q0 299 -397 299q-67 0 -193 -18v-592q110 -8 164 -8zM207 1362q172 33 301 33q240 0 371 -97.5t131 -285.5q0 -138 -77 -240t-222 -149l268 -502q18 -32 59 -121h-114l-318 600q-68 -10 -133 -10q-69 0 -164 10v-600
h-102v1362zM401 1604l398 165l35 -92v-8l-408 -137z" />
    <glyph glyph-name="racute" unicode="&#x155;" horiz-adv-x="702" 
d="M162 944l86 10l26 -188q105 199 269 199q68 0 125 -33l-25 -88q-49 16 -108 16q-71 0 -137.5 -53.5t-116.5 -155.5v-651h-101v594q0 133 -18 350zM317 1141l291 307l68 -66v-10l-307 -282z" />
    <glyph glyph-name="uni0156" unicode="&#x156;" horiz-adv-x="1144" 
d="M473 682q148 0 250 45q81 33 128.5 104.5t47.5 169.5q0 299 -397 299q-67 0 -193 -18v-592q110 -8 164 -8zM207 1362q172 33 301 33q240 0 371 -97.5t131 -285.5q0 -138 -77 -240t-222 -149l268 -502q18 -32 59 -121h-114l-318 600q-68 -10 -133 -10q-69 0 -164 10v-600
h-102v1362zM551 -147l90 12q10 -49 10 -111q0 -158 -80 -270l-65 37q53 106 53 223q0 27 -8 109z" />
    <glyph glyph-name="uni0157" unicode="&#x157;" horiz-adv-x="702" 
d="M162 944l86 10l26 -188q105 199 269 199q68 0 125 -33l-25 -88q-49 16 -108 16q-71 0 -137.5 -53.5t-116.5 -155.5v-651h-101v594q0 133 -18 350zM203 -147l90 12q10 -49 10 -111q0 -155 -82 -270l-63 37q51 102 51 223q0 48 -6 109z" />
    <glyph glyph-name="Rcaron" unicode="&#x158;" horiz-adv-x="1144" 
d="M473 682q148 0 250 45q81 33 128.5 104.5t47.5 169.5q0 299 -397 299q-67 0 -193 -18v-592q110 -8 164 -8zM207 1362q172 33 301 33q240 0 371 -97.5t131 -285.5q0 -138 -77 -240t-222 -149l268 -502q18 -32 59 -121h-114l-318 600q-68 -10 -133 -10q-69 0 -164 10v-600
h-102v1362zM270 1737l47 59l246 -186l246 186l47 -59l-252 -211l-76 -8z" />
    <glyph glyph-name="rcaron" unicode="&#x159;" horiz-adv-x="702" 
d="M162 944l86 10l26 -188q105 199 269 199q68 0 125 -33l-25 -88q-49 16 -108 16q-71 0 -137.5 -53.5t-116.5 -155.5v-651h-101v594q0 133 -18 350zM395 1100l-233 293l55 49l215 -246l219 248l58 -51l-238 -287z" />
    <glyph glyph-name="Sacute" unicode="&#x15a;" horiz-adv-x="1083" 
d="M145 1028q0 96 40.5 170.5t108 117t146.5 64t166 21.5q83 0 171.5 -20.5t154.5 -53.5l-35 -84q-153 60 -305 60q-47 0 -92 -7.5t-91 -26.5t-80 -48t-55.5 -75t-21.5 -104q0 -51 19 -93.5t45.5 -70.5t74.5 -55.5t86.5 -43.5t100.5 -38l18 -6q158 -59 226 -103
q155 -101 155 -280q0 -77 -25.5 -141t-69.5 -107.5t-103.5 -74t-126 -44.5t-138.5 -14q-111 0 -227 36.5t-189 96.5l45 80q176 -116 379 -116q63 0 122 15.5t110.5 46.5t82.5 86t31 126q0 39 -11 73t-25 58.5t-44 49t-51.5 39t-66 34.5t-67 28.5t-74.5 27.5q-13 5 -19 7
q-67 25 -108.5 43.5t-96 51.5t-85.5 68t-53 88.5t-22 117.5zM399 1604l398 165l34 -92v-8l-407 -137z" />
    <glyph glyph-name="sacute" unicode="&#x15b;" horiz-adv-x="849" 
d="M137 711q0 115 88 184.5t215 69.5q77 0 149 -25.5t124 -67.5l-45 -67q-109 72 -226 72q-91 0 -146.5 -41t-55.5 -113q0 -33 13.5 -60.5t30.5 -45.5t50.5 -37t56 -28.5t64.5 -25.5q40 -15 63 -24t58 -25.5t55 -30t44.5 -35t37 -44t21.5 -52.5t9 -65q0 -123 -92.5 -198
t-240.5 -75q-163 0 -314 111l47 68q139 -93 265 -93q103 0 168 47t65 130q0 20 -4 38t-14 33.5t-19 27.5t-28 25t-31 20.5t-37 19t-38 17t-43 17.5t-42 17q-58 22 -97.5 43t-76.5 51t-55.5 70.5t-18.5 91.5zM322 1141l290 307l68 -66v-10l-307 -282z" />
    <glyph glyph-name="Scircumflex" unicode="&#x15c;" horiz-adv-x="1083" 
d="M145 1028q0 96 40.5 170.5t108 117t146.5 64t166 21.5q83 0 171.5 -20.5t154.5 -53.5l-35 -84q-153 60 -305 60q-47 0 -92 -7.5t-91 -26.5t-80 -48t-55.5 -75t-21.5 -104q0 -51 19 -93.5t45.5 -70.5t74.5 -55.5t86.5 -43.5t100.5 -38l18 -6q158 -59 226 -103
q155 -101 155 -280q0 -77 -25.5 -141t-69.5 -107.5t-103.5 -74t-126 -44.5t-138.5 -14q-111 0 -227 36.5t-189 96.5l45 80q176 -116 379 -116q63 0 122 15.5t110.5 46.5t82.5 86t31 126q0 39 -11 73t-25 58.5t-44 49t-51.5 39t-66 34.5t-67 28.5t-74.5 27.5q-13 5 -19 7
q-67 25 -108.5 43.5t-96 51.5t-85.5 68t-53 88.5t-22 117.5zM520 1784l76 8l258 -219l-47 -60l-248 189l-244 -186l-47 59z" />
    <glyph glyph-name="scircumflex" unicode="&#x15d;" horiz-adv-x="849" 
d="M137 711q0 115 88 184.5t215 69.5q77 0 149 -25.5t124 -67.5l-45 -67q-109 72 -226 72q-91 0 -146.5 -41t-55.5 -113q0 -33 13.5 -60.5t30.5 -45.5t50.5 -37t56 -28.5t64.5 -25.5q40 -15 63 -24t58 -25.5t55 -30t44.5 -35t37 -44t21.5 -52.5t9 -65q0 -123 -92.5 -198
t-240.5 -75q-163 0 -314 111l47 68q139 -93 265 -93q103 0 168 47t65 130q0 20 -4 38t-14 33.5t-19 27.5t-28 25t-31 20.5t-37 19t-38 17t-43 17.5t-42 17q-58 22 -97.5 43t-76.5 51t-55.5 70.5t-18.5 91.5zM397 1425l76 7l234 -293l-56 -49l-215 245l-219 -248l-57 52z" />
    <glyph glyph-name="uni015E" unicode="&#x15e;" horiz-adv-x="1083" 
d="M145 1028q0 96 40.5 170.5t108 117t146.5 64t166 21.5q83 0 171.5 -20.5t154.5 -53.5l-35 -84q-153 60 -305 60q-47 0 -92 -7.5t-91 -26.5t-80 -48t-55.5 -75t-21.5 -104q0 -51 19 -93.5t45.5 -70.5t74.5 -55.5t86.5 -43.5t100.5 -38l18 -6q158 -59 226 -103
q155 -101 155 -280q0 -89 -34 -160.5t-92 -116.5t-131 -71t-157 -31l-45 -108q12 2 33 2q79 0 132.5 -34t53.5 -105q0 -90 -83 -152.5t-242 -91.5l-19 70q246 51 246 167q0 80 -121 80q-37 0 -69 -8l-29 39l55 141q-105 6 -208 41t-169 90l45 80q176 -116 379 -116
q63 0 122 15.5t110.5 46.5t82.5 86t31 126q0 39 -11 73t-25 58.5t-44 49t-51.5 39t-66 34.5t-67 28.5t-74.5 27.5q-13 5 -19 7q-67 25 -108.5 43.5t-96 51.5t-85.5 68t-53 88.5t-22 117.5z" />
    <glyph glyph-name="uni015F" unicode="&#x15f;" horiz-adv-x="849" 
d="M137 711q0 115 88 184.5t215 69.5q77 0 149 -25.5t124 -67.5l-45 -67q-109 72 -226 72q-91 0 -146.5 -41t-55.5 -113q0 -33 13.5 -60.5t30.5 -45.5t50.5 -37t56 -28.5t64.5 -25.5q40 -15 63 -24t58 -25.5t55 -30t44.5 -35t37 -44t21.5 -52.5t9 -65q0 -117 -85 -191
t-220 -82l-45 -112q12 2 37 2q79 0 132.5 -34t53.5 -105q0 -90 -83 -152.5t-242 -91.5l-19 70q246 51 246 167q0 80 -121 80q-37 0 -69 -8l-29 39l57 148q-132 15 -260 108l47 68q139 -93 265 -93q103 0 168 47t65 130q0 20 -4 38t-14 33.5t-19 27.5t-28 25t-31 20.5t-37 19
t-38 17t-43 17.5t-42 17q-58 22 -97.5 43t-76.5 51t-55.5 70.5t-18.5 91.5z" />
    <glyph glyph-name="Scaron" unicode="&#x160;" horiz-adv-x="1083" 
d="M145 1028q0 96 40.5 170.5t108 117t146.5 64t166 21.5q83 0 171.5 -20.5t154.5 -53.5l-35 -84q-153 60 -305 60q-47 0 -92 -7.5t-91 -26.5t-80 -48t-55.5 -75t-21.5 -104q0 -51 19 -93.5t45.5 -70.5t74.5 -55.5t86.5 -43.5t100.5 -38l18 -6q158 -59 226 -103
q155 -101 155 -280q0 -77 -25.5 -141t-69.5 -107.5t-103.5 -74t-126 -44.5t-138.5 -14q-111 0 -227 36.5t-189 96.5l45 80q176 -116 379 -116q63 0 122 15.5t110.5 46.5t82.5 86t31 126q0 39 -11 73t-25 58.5t-44 49t-51.5 39t-66 34.5t-67 28.5t-74.5 27.5q-13 5 -19 7
q-67 25 -108.5 43.5t-96 51.5t-85.5 68t-53 88.5t-22 117.5zM268 1737l47 59l246 -186l246 186l47 -59l-252 -211l-76 -8z" />
    <glyph glyph-name="scaron" unicode="&#x161;" horiz-adv-x="849" 
d="M137 711q0 115 88 184.5t215 69.5q77 0 149 -25.5t124 -67.5l-45 -67q-109 72 -226 72q-91 0 -146.5 -41t-55.5 -113q0 -33 13.5 -60.5t30.5 -45.5t50.5 -37t56 -28.5t64.5 -25.5q40 -15 63 -24t58 -25.5t55 -30t44.5 -35t37 -44t21.5 -52.5t9 -65q0 -123 -92.5 -198
t-240.5 -75q-163 0 -314 111l47 68q139 -93 265 -93q103 0 168 47t65 130q0 20 -4 38t-14 33.5t-19 27.5t-28 25t-31 20.5t-37 19t-38 17t-43 17.5t-42 17q-58 22 -97.5 43t-76.5 51t-55.5 70.5t-18.5 91.5zM399 1100l-233 293l55 49l215 -246l219 248l58 -51l-238 -287z
" />
    <glyph glyph-name="uni0162" unicode="&#x162;" horiz-adv-x="1112" 
d="M51 1372h1010l-2 -94h-451v-1278h-4l-57 -135q12 2 33 2q79 0 132.5 -34t53.5 -105q0 -90 -83.5 -152.5t-242.5 -91.5l-18 70q246 51 246 167q0 80 -121 80q-38 0 -70 -8l-28 39l65 168h-8v1278h-451z" />
    <glyph glyph-name="uni0163" unicode="&#x163;" horiz-adv-x="671" 
d="M233 1223h80v-281h297v-84h-297v-577q0 -124 25 -167.5t96 -43.5q66 0 162 26l22 -78q-112 -41 -215 -41h-4l-45 -112q12 2 37 2q79 0 133 -34t54 -105q0 -90 -83.5 -152.5t-242.5 -91.5l-19 70q246 51 246 167q0 80 -121 80q-37 0 -69 -8l-29 39l62 158
q-58 22 -82.5 84.5t-24.5 183.5v600h-145v84h137z" />
    <glyph glyph-name="Tcaron" unicode="&#x164;" horiz-adv-x="1112" 
d="M51 1372h1010l-2 -94h-451v-1278h-102v1278h-451zM264 1737l47 59l246 -186l246 186l47 -59l-252 -211l-76 -8z" />
    <glyph glyph-name="tcaron" unicode="&#x165;" horiz-adv-x="671" 
d="M233 1223h80v-281h297v-84h-297v-577q0 -124 25 -167.5t96 -43.5q66 0 162 26l22 -78q-112 -41 -215 -41q-105 0 -146.5 62.5t-41.5 218.5v600h-145v84h137zM455 1536l96 6l4 -8l-25 -410h-75v412z" />
    <glyph glyph-name="Tbar" unicode="&#x166;" horiz-adv-x="1142" 
d="M258 745h262v533h-450l-2 94h1009l-4 -94h-450v-533h264v-92h-264v-653h-103v653h-262v92z" />
    <glyph glyph-name="tbar" unicode="&#x167;" horiz-adv-x="684" 
d="M240 1223h82v-281h294v-84h-294v-244h292v-77h-292v-256q0 -124 24.5 -167.5t95.5 -43.5q66 0 162 26l21 -78q-109 -41 -213 -41q-106 0 -148.5 63t-42.5 218v279h-143v77h143v244h-143v84h135z" />
    <glyph glyph-name="Utilde" unicode="&#x168;" horiz-adv-x="1273" 
d="M979 1372h102v-848q0 -99 -13.5 -179.5t-46 -151.5t-83.5 -119t-129.5 -75.5t-179.5 -27.5q-436 0 -436 500v901h102v-864q0 -84 8.5 -147.5t32 -121.5t62.5 -95.5t101.5 -59t147.5 -21.5q69 0 128 24t95 58q109 101 109 338v889zM754 1602q33 0 69 40t66 105l67 -35
q-88 -194 -204 -194q-32 0 -60.5 15t-49 36t-39.5 42.5t-39.5 36.5t-41.5 15q-59 0 -139 -143l-66 36q92 193 209 193q32 0 59.5 -15t47.5 -36.5t38.5 -43.5t39.5 -37t43 -15z" />
    <glyph glyph-name="utilde" unicode="&#x169;" horiz-adv-x="1038" 
d="M168 940l100 4v-608q0 -142 44 -208.5t141 -66.5q139 0 307 168v713h100v-588q0 -115 17 -348l-84 -12l-25 147q-170 -170 -338 -170q-262 0 -262 330v639zM625 1196q65 0 133 143l65 -32q-38 -92 -89.5 -144.5t-110.5 -52.5q-32 0 -60 15t-48.5 36t-39.5 42.5t-40 36.5
t-42 15q-34 0 -65 -36t-70 -107l-63 35q83 194 202 194q31 0 59 -15t48 -36.5t38.5 -42.5t39.5 -36t43 -15z" />
    <glyph glyph-name="Umacron" unicode="&#x16a;" horiz-adv-x="1273" 
d="M979 1372h102v-848q0 -99 -13.5 -179.5t-46 -151.5t-83.5 -119t-129.5 -75.5t-179.5 -27.5q-436 0 -436 500v901h102v-864q0 -84 8.5 -147.5t32 -121.5t62.5 -95.5t101.5 -59t147.5 -21.5q69 0 128 24t95 58q109 101 109 338v889zM397 1642h477v-83h-477v83z" />
    <glyph glyph-name="umacron" unicode="&#x16b;" horiz-adv-x="1038" 
d="M168 940l100 4v-608q0 -142 44 -208.5t141 -66.5q139 0 307 168v713h100v-588q0 -115 17 -348l-84 -12l-25 147q-170 -170 -338 -170q-262 0 -262 330v639zM272 1233h471v-84h-471v84z" />
    <glyph glyph-name="Ubreve" unicode="&#x16c;" horiz-adv-x="1273" 
d="M979 1372h102v-848q0 -99 -13.5 -179.5t-46 -151.5t-83.5 -119t-129.5 -75.5t-179.5 -27.5q-436 0 -436 500v901h102v-864q0 -84 8.5 -147.5t32 -121.5t62.5 -95.5t101.5 -59t147.5 -21.5q69 0 128 24t95 58q109 101 109 338v889zM899 1745q-30 -103 -100.5 -157
t-163.5 -54t-160 52t-98 157l67 31q31 -80 78.5 -115t114.5 -35q142 0 197 150z" />
    <glyph glyph-name="ubreve" unicode="&#x16d;" horiz-adv-x="1038" 
d="M168 940l100 4v-608q0 -142 44 -208.5t141 -66.5q139 0 307 168v713h100v-588q0 -115 17 -348l-84 -12l-25 147q-170 -170 -338 -170q-262 0 -262 330v639zM510 1196q160 0 190 188l72 -10q-17 -136 -86.5 -202t-179.5 -66q-218 0 -256 268l74 10q33 -188 186 -188z" />
    <glyph glyph-name="Uring" unicode="&#x16e;" horiz-adv-x="1273" 
d="M979 1372h102v-848q0 -99 -13.5 -179.5t-46 -151.5t-83.5 -119t-129.5 -75.5t-179.5 -27.5q-436 0 -436 500v901h102v-864q0 -84 8.5 -147.5t32 -121.5t62.5 -95.5t101.5 -59t147.5 -21.5q69 0 128 24t95 58q109 101 109 338v889zM442 1669q0 88 56.5 142.5t148.5 54.5
q83 0 136 -51.5t53 -131.5q0 -86 -57 -140t-146 -54q-84 0 -137.5 51t-53.5 129zM758 1681q0 48 -32 81.5t-81 33.5q-57 0 -91 -34.5t-34 -90.5q0 -50 31 -81t84 -31q56 0 89.5 33.5t33.5 88.5z" />
    <glyph glyph-name="uring" unicode="&#x16f;" horiz-adv-x="1038" 
d="M168 940l100 4v-608q0 -142 44 -208.5t141 -66.5q139 0 307 168v713h100v-588q0 -115 17 -348l-84 -12l-25 147q-170 -170 -338 -170q-262 0 -262 330v639zM309 1257q0 93 57.5 149t151.5 56q83 0 136 -51t53 -135q0 -93 -57 -149t-148 -56q-86 0 -139.5 51t-53.5 135z
M627 1272q0 55 -30 87t-83 32q-59 0 -92 -35t-33 -96q0 -56 30.5 -87.5t84.5 -31.5q57 0 90 35.5t33 95.5z" />
    <glyph glyph-name="Uhungarumlaut" unicode="&#x170;" horiz-adv-x="1273" 
d="M979 1372h102v-848q0 -99 -13.5 -179.5t-46 -151.5t-83.5 -119t-129.5 -75.5t-179.5 -27.5q-436 0 -436 500v901h102v-864q0 -84 8.5 -147.5t32 -121.5t62.5 -95.5t101.5 -59t147.5 -21.5q69 0 128 24t95 58q109 101 109 338v889zM410 1571l227 268l74 -59v-6l-246 -250z
M709 1571l227 270l74 -59v-8l-244 -250z" />
    <glyph glyph-name="uhungarumlaut" unicode="&#x171;" horiz-adv-x="1038" 
d="M168 940l100 4v-608q0 -142 44 -208.5t141 -66.5q139 0 307 168v713h100v-588q0 -115 17 -348l-84 -12l-25 147q-170 -170 -338 -170q-262 0 -262 330v639zM307 1122l162 324l82 -43v-10l-180 -303zM582 1122l159 324l84 -43v-10l-182 -303z" />
    <glyph glyph-name="Uogonek" unicode="&#x172;" horiz-adv-x="1273" 
d="M1081 524q0 -169 -39 -280t-127 -187q-120 -102 -177.5 -182.5t-57.5 -155.5q0 -125 131 -125q57 0 133 31l25 -76q-90 -43 -176 -43q-94 0 -153.5 53.5t-59.5 145.5q0 74 40 140t117 135v2q-61 -11 -108 -11q-436 0 -436 500v901h102v-864q0 -84 8.5 -147.5t32 -121.5
t62.5 -95.5t101.5 -59t147.5 -21.5q69 0 128 24t95 58q109 101 109 338v889h102v-848z" />
    <glyph glyph-name="uogonek" unicode="&#x173;" horiz-adv-x="1038" 
d="M168 942h100v-600q0 -143 44 -212t141 -69q74 0 144.5 39.5t162.5 128.5v713h100v-588q0 -180 17 -391q-230 -112 -230 -229q0 -46 31.5 -75.5t89.5 -29.5q50 0 141 37l27 -76q-90 -47 -186 -47q-89 0 -146 48.5t-57 127.5q0 144 237 277l-20 143q-86 -84 -163 -126
t-171 -42q-262 0 -262 330v641z" />
    <glyph glyph-name="Wcircumflex" unicode="&#x174;" horiz-adv-x="1806" 
d="M1647 1372h108q-9 -34 -31.5 -104.5t-27.5 -87.5l-359 -1176l-129 -8l-258 1081l-30 150h-7l-344 -1223l-127 -8l-317 1184q-44 165 -51 192h110l267 -991l53 -238h6l340 1229h135l240 -995l51 -238h6zM877 1784l75 8l258 -219l-47 -60l-248 189l-243 -186l-47 59z" />
    <glyph glyph-name="wcircumflex" unicode="&#x175;" horiz-adv-x="1492" 
d="M702 940l99 4l209 -680l39 -139h8l264 817h94q0 -30 -14 -74l-297 -866l-107 -4l-213 674l-32 119h-4l-250 -789l-107 -4l-301 870q-16 50 -16 74h98l225 -678l43 -139h9zM711 1425l75 7l234 -293l-55 -49l-215 245l-220 -248l-57 52z" />
    <glyph glyph-name="Ycircumflex" unicode="&#x176;" horiz-adv-x="1056" 
d="M905 1372h109q-13 -29 -80 -147l-356 -641v-584h-103v582l-346 643q-36 60 -80 147h115l268 -495l96 -177h2zM492 1784l75 8l258 -219l-47 -60l-248 189l-243 -186l-47 59z" />
    <glyph glyph-name="ycircumflex" unicode="&#x177;" horiz-adv-x="940" 
d="M776 942h92q0 -24 -16 -74l-373 -985q-85 -205 -175.5 -296t-194.5 -91q-43 0 -64 6v80q123 1 208 98t175 320h-10l-324 868q-16 40 -16 74h98l242 -663q14 -38 49 -154h6zM436 1425l76 7l233 -293l-55 -49l-215 245l-219 -248l-57 52z" />
    <glyph glyph-name="Ydieresis" unicode="&#x178;" horiz-adv-x="1056" 
d="M905 1372h109q-13 -29 -80 -147l-356 -641v-584h-103v582l-346 643q-36 60 -80 147h115l268 -495l96 -177h2zM629 1624q0 33 22.5 55.5t57.5 22.5q31 0 51 -19t20 -51q0 -33 -21.5 -55.5t-56.5 -22.5q-33 0 -53 19t-20 51zM285 1624q0 33 22.5 55.5t57.5 22.5
q31 0 50 -19t19 -51q0 -33 -21 -55.5t-57 -22.5q-31 0 -51 19t-20 51z" />
    <glyph glyph-name="Zacute" unicode="&#x179;" horiz-adv-x="1134" 
d="M127 1372h893l18 -96l-843 -1184h833l2 -92h-938l-12 98l838 1182h-789zM420 1604l397 165l35 -92v-8l-408 -137z" />
    <glyph glyph-name="zacute" unicode="&#x17a;" horiz-adv-x="901" 
d="M121 942h659l19 -78l-586 -780h580l4 -84h-691l-14 78l588 782h-557zM346 1141l291 307l68 -66v-10l-308 -282z" />
    <glyph glyph-name="Zdotaccent" unicode="&#x17b;" horiz-adv-x="1134" 
d="M127 1372h893l18 -96l-843 -1184h833l2 -92h-938l-12 98l838 1182h-789zM502 1628q0 38 23.5 62t60.5 24q34 0 55 -21t21 -55q0 -37 -22.5 -60.5t-59.5 -23.5q-35 0 -56.5 20t-21.5 54z" />
    <glyph glyph-name="zdotaccent" unicode="&#x17c;" horiz-adv-x="901" 
d="M121 942h659l19 -78l-586 -780h580l4 -84h-691l-14 78l588 782h-557zM379 1223q0 40 24 64t62 24q35 0 56.5 -21.5t21.5 -58.5q0 -38 -23 -62t-61 -24q-37 0 -58.5 21.5t-21.5 56.5z" />
    <glyph glyph-name="Zcaron" unicode="&#x17d;" horiz-adv-x="1134" 
d="M127 1372h893l18 -96l-843 -1184h833l2 -92h-938l-12 98l838 1182h-789zM289 1737l47 59l246 -186l245 186l47 -59l-251 -211l-76 -8z" />
    <glyph glyph-name="zcaron" unicode="&#x17e;" horiz-adv-x="901" 
d="M121 942h659l19 -78l-586 -780h580l4 -84h-691l-14 78l588 782h-557zM424 1100l-234 293l56 49l215 -246l219 248l57 -51l-237 -287z" />
    <glyph glyph-name="longs" unicode="&#x17f;" horiz-adv-x="536" 
d="M221 1206q0 161 72 257t207 96q115 0 225 -101l-47 -61q-98 73 -184 73q-78 0 -119 -51q-53 -65 -53 -200v-1219h-101v858h-145v84h145v264z" />
    <glyph glyph-name="uni018F" unicode="&#x18f;" horiz-adv-x="1236" 
d="M1106 702q0 -161 -29 -290.5t-89 -228t-160.5 -152.5t-235.5 -54q-235 0 -350 143.5t-115 399.5q0 96 16 187h856q-1 117 -12.5 206t-40.5 164t-75.5 122.5t-118 74t-168.5 26.5q-198 0 -398 -110l-36 80q48 27 77 41t88.5 37.5t128.5 35t148 11.5q273 0 393.5 -170
t120.5 -523zM594 72q377 0 403 542h-759q0 -4 -3.5 -43.5t-3.5 -62.5q0 -210 91.5 -323t271.5 -113z" />
    <glyph glyph-name="uni0192" unicode="&#x192;" horiz-adv-x="958" 
d="M422 1069q43 326 293 326q119 0 205 -99l-50 -59q-72 68 -161 68q-70 0 -115 -45q-54 -54 -74 -191l-51 -387h233l-8 -82h-235l-84 -641q-19 -141 -85 -216t-173 -75q-114 0 -195 88l47 64q69 -62 152 -62q64 0 103.5 52t51.5 149l84 641h-153l8 82h156z" />
    <glyph glyph-name="Ohorn" unicode="&#x1a0;" horiz-adv-x="1388" 
d="M125 668q0 75 10 149.5t32 147t54.5 137t79 120t103.5 95t130.5 62t157.5 22.5q83 0 172 -27q64 -22 135 -22q115 0 115 94q0 46 -39 117l90 8q43 -71 43 -137q0 -148 -159 -170q102 -93 156.5 -239.5t54.5 -319.5q0 -107 -20 -209.5t-65 -198t-109.5 -167.5t-161 -115.5
t-212.5 -43.5q-174 0 -304.5 94.5t-196.5 251.5t-66 351zM1151 686q0 130 -31 243t-88 197t-145 132.5t-195 48.5q-139 0 -252 -86q-106 -86 -155 -230t-49 -305q0 -175 52.5 -314t158 -222.5t247.5 -83.5q139 0 252 86q106 86 155.5 229.5t49.5 304.5z" />
    <glyph glyph-name="ohorn" unicode="&#x1a1;" horiz-adv-x="1052" 
d="M119 463q0 91 24.5 178t72 162.5t128.5 121.5t184 46q80 0 158 -33q43 -16 76 -16q58 0 81 21.5t23 62.5q0 53 -39 116l84 8q43 -71 43 -135q0 -130 -147 -149q119 -138 119 -367q0 -72 -14.5 -142.5t-47 -137t-79 -117t-116 -81t-153.5 -30.5q-121 0 -212 64t-138 175
t-47 253zM823 467q0 183 -80 298.5t-225 115.5q-113 0 -186 -70q-111 -111 -111 -336q0 -185 79.5 -299.5t225.5 -114.5q117 0 189 72q108 108 108 334z" />
    <glyph glyph-name="Uhorn" unicode="&#x1af;" horiz-adv-x="1273" 
d="M979 1372h57q70 0 97.5 23t27.5 67q0 54 -39 121l90 8q45 -74 45 -139q0 -152 -176 -166v-762q0 -99 -13.5 -179.5t-46 -151.5t-83.5 -119t-129.5 -75.5t-179.5 -27.5q-436 0 -436 500v901h102v-864q0 -84 8.5 -147.5t32 -121.5t62.5 -95.5t101.5 -59t147.5 -21.5
q69 0 128 24t95 58q109 101 109 338v889z" />
    <glyph glyph-name="uhorn" unicode="&#x1b0;" horiz-adv-x="1054" 
d="M907 1143l84 8q43 -71 43 -135q0 -141 -174 -152v-510q0 -115 17 -348l-84 -12l-25 147q-170 -170 -338 -170q-262 0 -262 330v639l100 4v-608q0 -142 44 -208.5t141 -66.5q139 0 307 168v713h63q70 0 96.5 21t26.5 63q0 54 -39 117z" />
    <glyph glyph-name="uni01FA" unicode="&#x1fa;" horiz-adv-x="1165" 
d="M584 1235l-250 -723h491l-139 414l-96 309h-6zM528 1368l115 8l408 -1198q9 -30 28.5 -89.5t28.5 -88.5h-109l-143 422h-555l-145 -422h-109q44 130 62 176zM389 1669q0 88 56.5 142.5t148.5 54.5q83 0 135.5 -51.5t52.5 -131.5q0 -86 -56.5 -140t-145.5 -54
q-84 0 -137.5 51t-53.5 129zM705 1681q0 48 -32 81.5t-81 33.5q-57 0 -91 -34.5t-34 -90.5q0 -50 31 -81t84 -31q56 0 89.5 33.5t33.5 88.5zM422 2011l397 166l35 -92v-8l-408 -138z" />
    <glyph glyph-name="aringacute" unicode="&#x1fb;" horiz-adv-x="942" 
d="M135 813q188 152 375 152q139 0 200.5 -87t61.5 -274v-252q0 -125 16 -346l-83 -12l-25 139q-174 -156 -346 -156q-107 0 -172.5 62.5t-65.5 169.5q0 135 117 215q123 84 459 111v28q0 172 -38.5 241.5t-135.5 69.5q-152 0 -322 -126zM346 61q155 0 326 160v234
q-317 -33 -402 -90q-73 -57 -73 -146q0 -74 41 -116t108 -42zM270 1257q0 93 57.5 149t151.5 56q83 0 136 -51t53 -135q0 -93 -57 -149t-148 -56q-86 0 -139.5 51t-53.5 135zM588 1272q0 55 -30 87t-83 32q-59 0 -92 -35t-33 -96q0 -56 30.5 -87.5t84.5 -31.5q57 0 90 35.5
t33 95.5zM309 1599l398 166l34 -92v-8l-407 -137z" />
    <glyph glyph-name="uni01FC" unicode="&#x1fc;" horiz-adv-x="1736" 
d="M725 1047l-283 -504h428v739h-10zM803 1372h813l-2 -92h-641v-532h524v-93h-524v-563h641l4 -92h-748v451h-479l-254 -451h-112q0 13 12 29zM1047 1604l397 165l35 -92v-8l-408 -137z" />
    <glyph glyph-name="uni01FD" unicode="&#x1fd;" horiz-adv-x="1531" 
d="M1079 883q-126 0 -206 -92t-93 -256h527q4 54 4 79q0 117 -61.5 193t-170.5 76zM215 424q65 45 174 71.5t283 41.5v26q0 173 -39 243.5t-135 70.5q-141 0 -322 -127l-41 61q187 154 375 154q103 0 160.5 -50t77.5 -155q54 98 139.5 153.5t195.5 55.5q158 0 243 -104.5
t85 -264.5q0 -72 -12 -143h-621q3 -190 89.5 -289.5t224.5 -99.5q137 0 270 55l31 -74q-156 -72 -320 -72q-101 0 -185.5 48.5t-139.5 140.5q-166 -189 -392 -189q-121 0 -190.5 61.5t-69.5 170.5q0 66 32 121.5t87 93.5zM367 61q182 0 348 172q-37 106 -37 222
q-181 -17 -272.5 -37.5t-133.5 -52.5q-75 -59 -75 -146q0 -74 45 -115t125 -43zM711 1141l290 307l68 -66v-10l-307 -282z" />
    <glyph glyph-name="Oslashacute" unicode="&#x1fe;" horiz-adv-x="1380" 
d="M125 668q0 107 20 209.5t64.5 198t109 167.5t160 115t211.5 43q152 0 275 -74l75 152l78 -43l-82 -162q105 -95 162 -243t57 -326q0 -107 -20 -209.5t-64.5 -198t-109 -167.5t-160 -115.5t-211.5 -43.5q-151 0 -274 74l-78 -151l-78 43l82 163q-105 93 -161 241.5
t-56 326.5zM236 686q0 -150 40.5 -276.5t116.5 -210.5l525 1038q-98 70 -228 70q-146 0 -250 -86q-107 -84 -155.5 -228t-48.5 -307zM1147 686q0 151 -41 278.5t-119 213.5l-526 -1041q104 -71 231 -71q146 0 250 86q106 85 155.5 229t49.5 305zM530 1604l398 165l35 -92v-8
l-408 -137z" />
    <glyph glyph-name="oslashacute" unicode="&#x1ff;" horiz-adv-x="1044" 
d="M119 463q0 91 24.5 178t72 162.5t128.5 121.5t184 46q88 0 160 -35l64 141l71 -35l-67 -147q81 -64 125.5 -173t44.5 -243q0 -72 -14.5 -142.5t-47 -137t-79 -117t-116 -81t-153.5 -30.5q-89 0 -164 35l-61 -137l-70 35l66 145q-81 63 -124.5 170.5t-43.5 243.5zM221 475
q0 -222 109 -334l319 709q-60 31 -131 31q-113 0 -186 -70q-111 -111 -111 -336zM823 467q0 224 -110 334l-320 -707q53 -33 133 -33q117 0 189 72q108 108 108 334zM397 1141l291 307l68 -66v-10l-307 -282z" />
    <glyph glyph-name="uni0218" unicode="&#x218;" horiz-adv-x="1083" 
d="M145 1028q0 96 40.5 170.5t108 117t146.5 64t166 21.5q83 0 171.5 -20.5t154.5 -53.5l-35 -84q-153 60 -305 60q-47 0 -92 -7.5t-91 -26.5t-80 -48t-55.5 -75t-21.5 -104q0 -51 19 -93.5t45.5 -70.5t74.5 -55.5t86.5 -43.5t100.5 -38l18 -6q158 -59 226 -103
q155 -101 155 -280q0 -77 -25.5 -141t-69.5 -107.5t-103.5 -74t-126 -44.5t-138.5 -14q-111 0 -227 36.5t-189 96.5l45 80q176 -116 379 -116q63 0 122 15.5t110.5 46.5t82.5 86t31 126q0 39 -11 73t-25 58.5t-44 49t-51.5 39t-66 34.5t-67 28.5t-74.5 27.5q-13 5 -19 7
q-67 25 -108.5 43.5t-96 51.5t-85.5 68t-53 88.5t-22 117.5zM483 -147l90 12q11 -54 11 -111q0 -158 -80 -270l-66 37q54 108 54 223q0 17 -9 109z" />
    <glyph glyph-name="uni0219" unicode="&#x219;" horiz-adv-x="849" 
d="M137 711q0 115 88 184.5t215 69.5q77 0 149 -25.5t124 -67.5l-45 -67q-109 72 -226 72q-91 0 -146.5 -41t-55.5 -113q0 -33 13.5 -60.5t30.5 -45.5t50.5 -37t56 -28.5t64.5 -25.5q40 -15 63 -24t58 -25.5t55 -30t44.5 -35t37 -44t21.5 -52.5t9 -65q0 -123 -92.5 -198
t-240.5 -75q-163 0 -314 111l47 68q139 -93 265 -93q103 0 168 47t65 130q0 20 -4 38t-14 33.5t-19 27.5t-28 25t-31 20.5t-37 19t-38 17t-43 17.5t-42 17q-58 22 -97.5 43t-76.5 51t-55.5 70.5t-18.5 91.5zM381 -147l90 12q10 -49 10 -111q0 -155 -82 -270l-63 37
q51 102 51 223q0 48 -6 109z" />
    <glyph glyph-name="uni021A" unicode="&#x21a;" horiz-adv-x="1112" 
d="M51 1372h1010l-2 -94h-451v-1278h-102v1278h-451zM512 -147l90 12q10 -49 10 -111q0 -158 -80 -270l-65 37q53 106 53 223q0 27 -8 109z" />
    <glyph glyph-name="uni021B" unicode="&#x21b;" horiz-adv-x="671" 
d="M233 1223h80v-281h297v-84h-297v-577q0 -124 25 -167.5t96 -43.5q66 0 162 26l22 -78q-112 -41 -215 -41q-105 0 -146.5 62.5t-41.5 218.5v600h-145v84h137zM342 -147l90 12q10 -49 10 -111q0 -155 -82 -270l-63 37q51 102 51 223q0 48 -6 109z" />
    <glyph glyph-name="dotlessj" unicode="&#x237;" horiz-adv-x="452" 
d="M176 940l100 4v-901q0 -128 -31.5 -228t-80.5 -166t-127 -134l-57 57q96 103 146 213t50 264v891z" />
    <glyph glyph-name="uni0259" unicode="&#x259;" horiz-adv-x="940" 
d="M817 485q0 -112 -21 -202.5t-64 -160t-114 -107.5t-165 -38q-160 0 -246 103t-86 274q0 86 12 142h586q-2 196 -66 288.5t-221 92.5q-124 0 -266 -64l-31 72q139 80 305 80q195 0 286 -120.5t91 -359.5zM455 66q245 0 262 348h-498q-2 -20 -2 -72q0 -128 61.5 -202
t176.5 -74z" />
    <glyph glyph-name="uni02BC" unicode="&#x2bc;" horiz-adv-x="0" 
d="M49 1456l92 10q17 -70 17 -123q0 -162 -146 -264l-41 47q88 85 88 209q0 53 -10 121z" />
    <glyph glyph-name="circumflex" unicode="&#x2c6;" horiz-adv-x="819" 
d="M371 1425l75 7l234 -293l-55 -49l-215 245l-220 -248l-57 52z" />
    <glyph glyph-name="caron" unicode="&#x2c7;" horiz-adv-x="819" 
d="M373 1100l-234 293l56 49l215 -246l219 248l57 -51l-237 -287z" />
    <glyph glyph-name="uni02C9" unicode="&#x2c9;" horiz-adv-x="0" 
d="M-236 1233h472v-84h-472v84z" />
    <glyph glyph-name="uni02CA" unicode="&#x2ca;" horiz-adv-x="0" 
d="M-115 1141l291 307l68 -66v-10l-307 -282z" />
    <glyph glyph-name="uni02CB" unicode="&#x2cb;" horiz-adv-x="0" 
d="M-211 1382l68 66l293 -307l-52 -51l-309 282v10z" />
    <glyph glyph-name="breve" unicode="&#x2d8;" horiz-adv-x="819" 
d="M412 1196q160 0 190 188l72 -10q-17 -136 -86.5 -202t-179.5 -66q-218 0 -256 268l73 10q33 -188 187 -188z" />
    <glyph glyph-name="dotaccent" unicode="&#x2d9;" horiz-adv-x="819" 
d="M328 1223q0 40 24 64t62 24q35 0 56.5 -21.5t21.5 -58.5q0 -38 -23 -62t-61 -24q-37 0 -58.5 21.5t-21.5 56.5z" />
    <glyph glyph-name="ring" unicode="&#x2da;" horiz-adv-x="819" 
d="M211 1257q0 93 57.5 149t151.5 56q83 0 135.5 -51t52.5 -135q0 -93 -57 -149t-148 -56q-85 0 -138.5 51t-53.5 135zM528 1272q0 56 -30 87.5t-82 31.5q-59 0 -92 -35t-33 -96q0 -56 30.5 -87.5t84.5 -31.5q57 0 89.5 35.5t32.5 95.5z" />
    <glyph glyph-name="ogonek" unicode="&#x2db;" horiz-adv-x="819" 
d="M137 -270q0 91 74 170t215 161l41 -55q-120 -75 -174.5 -136t-54.5 -126q0 -52 31.5 -83.5t90.5 -31.5q51 0 142 37l28 -76q-100 -47 -188 -47q-90 0 -147.5 51.5t-57.5 135.5z" />
    <glyph glyph-name="tilde" unicode="&#x2dc;" horiz-adv-x="819" 
d="M526 1196q65 0 133 143l66 -32q-38 -92 -90 -144.5t-111 -52.5q-32 0 -60 15t-48.5 36t-39 42.5t-39.5 36.5t-42 15q-34 0 -65 -36t-70 -107l-64 35q38 90 90 142t113 52q31 0 58.5 -15t47.5 -36.5t38.5 -42.5t39.5 -36t43 -15z" />
    <glyph glyph-name="hungarumlaut" unicode="&#x2dd;" horiz-adv-x="819" 
d="M209 1122l162 324l82 -43v-10l-181 -303zM483 1122l160 324l84 -43v-10l-182 -303z" />
    <glyph glyph-name="uni0300" unicode="&#x300;" horiz-adv-x="0" 
d="M-211 1382l68 66l293 -307l-52 -51l-309 282v10z" />
    <glyph glyph-name="uni0301" unicode="&#x301;" horiz-adv-x="0" 
d="M-115 1141l291 307l68 -66v-10l-307 -282z" />
    <glyph glyph-name="uni0302" unicode="&#x302;" horiz-adv-x="0" 
d="M-39 1425l76 7l233 -293l-55 -49l-215 245l-219 -248l-57 52z" />
    <glyph glyph-name="uni0303" unicode="&#x303;" horiz-adv-x="0" 
d="M117 1196q65 0 133 143l65 -32q-38 -92 -89.5 -144.5t-110.5 -52.5q-32 0 -60 15t-48.5 36t-39.5 42.5t-40 36.5t-42 15q-34 0 -65 -36t-70 -107l-63 35q83 194 202 194q31 0 59 -15t48 -36.5t38.5 -42.5t39.5 -36t43 -15z" />
    <glyph glyph-name="uni0304" unicode="&#x304;" horiz-adv-x="0" 
d="M-236 1233h472v-84h-472v84z" />
    <glyph glyph-name="uni0306" unicode="&#x306;" horiz-adv-x="0" 
d="M2 1196q161 0 191 188l71 -10q-17 -136 -86.5 -202t-179.5 -66q-218 0 -256 268l74 10q33 -188 186 -188z" />
    <glyph glyph-name="uni0307" unicode="&#x307;" horiz-adv-x="0" 
d="M-82 1223q0 40 24 64t62 24q35 0 56.5 -21.5t21.5 -58.5q0 -38 -23 -62t-61 -24q-37 0 -58.5 21.5t-21.5 56.5z" />
    <glyph glyph-name="uni0308" unicode="&#x308;" horiz-adv-x="0" 
d="M90 1217q0 33 22 55t58 22q30 0 50 -19t20 -50q0 -33 -21.5 -55.5t-54.5 -22.5t-53.5 19t-20.5 51zM-238 1217q0 33 22.5 55t57.5 22q31 0 50.5 -18.5t19.5 -50.5q0 -33 -21 -55.5t-57 -22.5q-31 0 -51.5 19t-20.5 51z" />
    <glyph glyph-name="uni0309" unicode="&#x309;" horiz-adv-x="0" 
d="M-104 1341l-15 70q51 19 96 19q78 0 126.5 -39.5t48.5 -112.5q0 -90 -63.5 -138.5t-166.5 -58.5l-10 68q71 12 111 40t40 83q0 41 -25 61.5t-67 20.5q-31 0 -75 -13z" />
    <glyph glyph-name="uni030A" unicode="&#x30a;" horiz-adv-x="0" 
d="M-199 1257q0 93 57.5 149t151.5 56q83 0 136 -51t53 -135q0 -93 -57 -149t-148 -56q-86 0 -139.5 51t-53.5 135zM119 1272q0 55 -30 87t-83 32q-59 0 -92 -35t-33 -96q0 -56 30.5 -87.5t84.5 -31.5q57 0 90 35.5t33 95.5z" />
    <glyph glyph-name="uni030B" unicode="&#x30b;" horiz-adv-x="0" 
d="M-201 1122l162 324l82 -43v-10l-180 -303zM74 1122l159 324l84 -43v-10l-182 -303z" />
    <glyph glyph-name="uni030C" unicode="&#x30c;" horiz-adv-x="0" 
d="M-37 1100l-233 293l55 49l215 -246l219 248l57 -51l-237 -287z" />
    <glyph glyph-name="uni031B" unicode="&#x31b;" horiz-adv-x="0" 
d="M12 1143l82 8q43 -71 43 -135q0 -154 -209 -154h-24v80h22q72 0 98.5 21t26.5 63q0 46 -39 117z" />
    <glyph glyph-name="uni0323" unicode="&#x323;" horiz-adv-x="0" 
d="M-80 -297q0 38 23.5 62t60.5 24q34 0 55 -21t21 -55q0 -37 -22.5 -60.5t-59.5 -23.5q-35 0 -56.5 20.5t-21.5 53.5z" />
    <glyph glyph-name="uni0326" unicode="&#x326;" horiz-adv-x="0" 
d="M-27 -147l90 12q11 -54 11 -111q0 -155 -82 -270l-64 37q52 104 52 223q0 37 -7 109z" />
    <glyph glyph-name="uni0327" unicode="&#x327;" horiz-adv-x="0" 
d="M-109 -168l78 199l72 -25l-55 -141q12 2 37 2q79 0 132.5 -34t53.5 -105q0 -90 -83.5 -152.5t-242.5 -91.5l-18 70q246 51 246 167q0 80 -121 80q-38 0 -70 -8z" />
    <glyph glyph-name="uni0328" unicode="&#x328;" horiz-adv-x="0" 
d="M-272 -270q0 91 74 170t214 161l41 -55q-120 -75 -174.5 -136t-54.5 -126q0 -52 32 -83.5t91 -31.5q50 0 141 37l29 -76q-100 -47 -189 -47q-90 0 -147 51.5t-57 135.5z" />
    <glyph glyph-name="uni0335" unicode="&#x335;" horiz-adv-x="0" 
d="M-281 449h562v-78h-562v78z" />
    <glyph glyph-name="a.sups" unicode="&#x1d43;" horiz-adv-x="645" 
d="M100 1352q117 92 246 92q97 0 139.5 -54t42.5 -169v-148q0 -81 11 -219l-72 -12l-23 88q-103 -96 -213 -96q-70 0 -112.5 39t-42.5 108q0 79 74 133q79 54 288 70v10q0 98 -23.5 136t-82.5 38q-86 0 -195 -70zM252 903q89 0 186 88v131q-183 -16 -231 -51
q-43 -30 -43 -80q0 -42 24 -65t64 -23z" />
    <glyph glyph-name="b.sups" unicode="&#x1d47;" horiz-adv-x="704" 
d="M119 1784l90 2v-426q85 88 180 88q111 0 170 -85t59 -220q0 -62 -16.5 -116t-49 -98t-89 -69.5t-129.5 -25.5q-103 0 -215 34v916zM338 907q70 0 113 37q75 60 75 195q0 107 -38.5 171t-110.5 64q-77 0 -168 -84v-366q66 -17 129 -17z" />
    <glyph glyph-name="d.sups" unicode="&#x1d48;" horiz-adv-x="708" 
d="M324 905q75 0 172 90v340q-67 39 -134 39q-72 0 -116 -41q-68 -62 -68 -196q0 -101 39 -166.5t107 -65.5zM86 1126q-1 60 15 116t47.5 103t84.5 75t121 28q74 0 142 -43v379l90 2v-729q0 -65 12 -203l-72 -10l-22 88q-94 -101 -197 -101q-99 0 -160 83t-61 212z" />
    <glyph glyph-name="e.sups" unicode="&#x1d49;" horiz-adv-x="653" 
d="M84 1133q0 135 73 225t195 90q104 0 160.5 -67t56.5 -169q0 -51 -8 -90h-385q4 -106 54 -159.5t132 -53.5q93 0 173 31l20 -61q-101 -43 -205 -43q-117 0 -191.5 77t-74.5 220zM350 1376q-73 0 -118 -50.5t-54 -141.5h303q2 12 2 41q0 66 -34.5 108.5t-98.5 42.5z" />
    <glyph glyph-name="g.sups" unicode="&#x1d4d;" horiz-adv-x="663" 
d="M141 944q0 60 54 111q-54 24 -83.5 71t-29.5 105q0 86 59.5 149.5t173.5 63.5q69 0 125 -29q64 64 160 64l2 -70q-65 -7 -115 -31q54 -57 54 -139q0 -89 -60.5 -148t-169.5 -59q-25 0 -57 4q-33 -37 -33 -67q0 -19 8 -31t28 -17t40 -6.5t57 -1.5q242 -3 242 -163
q0 -102 -86 -161t-213 -59q-111 0 -179.5 46t-68.5 126q0 110 115 183q-23 23 -23 59zM313 600q75 0 131 29q70 37 70 112q0 59 -47.5 80t-142.5 21q-68 0 -105 12q-88 -56 -88 -135q0 -119 182 -119zM455 1235q0 66 -37 104.5t-107 38.5q-65 0 -104 -36.5t-39 -102.5
q0 -65 36 -104t109 -39q64 0 103 36t39 103z" />
    <glyph glyph-name="k.sups" unicode="&#x1d4f;" horiz-adv-x="647" 
d="M502 1430h92q-5 -19 -29 -46l-198 -217l211 -268q21 -24 28 -51h-94l-213 270l-88 -39v-231h-90v936l90 2v-629l80 43z" />
    <glyph glyph-name="m.sups" unicode="&#x1d50;" horiz-adv-x="1056" 
d="M113 1427l71 11l21 -86q103 96 209 96q114 0 149 -100q103 100 213 100q87 0 125.5 -52t38.5 -157v-391h-90v371q0 82 -21 118.5t-75 36.5q-79 0 -179 -84q3 -24 3 -51v-391h-91v371q0 82 -21 118.5t-75 36.5q-79 0 -176 -82v-444h-92v356q0 96 -10 223z" />
    <glyph glyph-name="o.sups" unicode="&#x1d52;" horiz-adv-x="702" 
d="M84 1135q0 57 16.5 111t48.5 100t85.5 74t121.5 28q120 0 191 -86.5t71 -218.5q0 -58 -16.5 -112.5t-48.5 -99.5t-85 -72.5t-120 -27.5q-123 0 -193.5 85.5t-70.5 218.5zM524 1135q0 107 -45 173t-129 66q-52 0 -94 -28q-78 -60 -78 -205q0 -107 44.5 -172.5t129.5 -65.5
q60 0 101 35q71 62 71 197z" />
    <glyph glyph-name="p.sups" unicode="&#x1d56;" horiz-adv-x="708" 
d="M350 905q64 0 103 33q77 56 77 205q0 102 -39 166.5t-112 64.5q-43 0 -81.5 -20.5t-84.5 -59.5v-352q64 -37 137 -37zM111 1427l73 11l19 -84q45 45 90.5 69.5t103.5 24.5q104 0 166 -84t62 -211q0 -84 -28 -155t-90.5 -119t-150.5 -48q-79 0 -143 43v-325h-90v655
q0 51 -12 223z" />
    <glyph glyph-name="t.sups" unicode="&#x1d57;" horiz-adv-x="499" 
d="M168 1606h72v-176h180v-68h-180v-328q0 -74 15.5 -99.5t59.5 -25.5q33 0 93 17l18 -64q-70 -26 -133 -26q-75 0 -109 41.5t-34 136.5v348h-93v68h88z" />
    <glyph glyph-name="u.sups" unicode="&#x1d58;" horiz-adv-x="702" 
d="M115 1430h92v-371q0 -80 24 -117t80 -37q74 0 178 96v429h91v-353q0 -64 10 -223l-72 -10l-20 90q-51 -51 -100 -77t-109 -26q-174 0 -174 203v396z" />
    <glyph glyph-name="v.sups" unicode="&#x1d5b;" horiz-adv-x="618" 
d="M487 1430h86q0 -24 -10 -54l-209 -526l-98 -4l-199 530q-10 30 -10 54h88l137 -383q24 -67 33 -105h6z" />
    <glyph glyph-name="i.sinf" unicode="&#x1d62;" horiz-adv-x="331" 
d="M121 479l90 2v-583h-90v581zM102 653q0 29 19.5 47.5t48.5 18.5q28 0 45.5 -17t17.5 -43q0 -28 -19 -45.5t-48 -17.5q-28 0 -46 16t-18 41z" />
    <glyph glyph-name="r.sinf" unicode="&#x1d63;" horiz-adv-x="491" 
d="M106 477l74 10l23 -112q64 119 166 119q50 0 82 -21l-21 -80q-30 10 -63 10q-94 0 -158 -110v-395h-90v372q0 55 -13 207z" />
    <glyph glyph-name="u.sinf" unicode="&#x1d64;" horiz-adv-x="702" 
d="M113 479h92v-370q0 -80 24 -117t80 -37q74 0 178 96v428h91v-352q0 -64 10 -223l-72 -10l-20 90q-51 -51 -100 -77t-109 -26q-174 0 -174 203v395z" />
    <glyph glyph-name="v.sinf" unicode="&#x1d65;" horiz-adv-x="618" 
d="M487 479h86q0 -23 -10 -53l-209 -526l-98 -4l-199 530q-10 30 -10 53h88l137 -383q25 -68 33 -104h6z" />
    <glyph glyph-name="Wgrave" unicode="&#x1e80;" horiz-adv-x="1806" 
d="M1647 1372h108q-9 -34 -31.5 -104.5t-27.5 -87.5l-359 -1176l-129 -8l-258 1081l-30 150h-7l-344 -1223l-127 -8l-317 1184q-44 165 -51 192h110l267 -991l53 -238h6l340 1229h135l240 -995l51 -238h6zM649 1679l35 90l399 -165l-24 -72l-410 139v8z" />
    <glyph glyph-name="wgrave" unicode="&#x1e81;" horiz-adv-x="1492" 
d="M702 940l99 4l209 -680l39 -139h8l264 817h94q0 -30 -14 -74l-297 -866l-107 -4l-213 674l-32 119h-4l-250 -789l-107 -4l-301 870q-16 50 -16 74h98l225 -678l43 -139h9zM539 1382l67 66l293 -307l-51 -51l-309 282v10z" />
    <glyph glyph-name="Wacute" unicode="&#x1e82;" horiz-adv-x="1806" 
d="M1647 1372h108q-9 -34 -31.5 -104.5t-27.5 -87.5l-359 -1176l-129 -8l-258 1081l-30 150h-7l-344 -1223l-127 -8l-317 1184q-44 165 -51 192h110l267 -991l53 -238h6l340 1229h135l240 -995l51 -238h6zM756 1604l397 165l35 -92v-8l-408 -137z" />
    <glyph glyph-name="wacute" unicode="&#x1e83;" horiz-adv-x="1492" 
d="M702 940l99 4l209 -680l39 -139h8l264 817h94q0 -30 -14 -74l-297 -866l-107 -4l-213 674l-32 119h-4l-250 -789l-107 -4l-301 870q-16 50 -16 74h98l225 -678l43 -139h9zM635 1141l291 307l67 -66v-10l-307 -282z" />
    <glyph glyph-name="Wdieresis" unicode="&#x1e84;" horiz-adv-x="1806" 
d="M1647 1372h108q-9 -34 -31.5 -104.5t-27.5 -87.5l-359 -1176l-129 -8l-258 1081l-30 150h-7l-344 -1223l-127 -8l-317 1184q-44 165 -51 192h110l267 -991l53 -238h6l340 1229h135l240 -995l51 -238h6zM1014 1624q0 33 22.5 55.5t57.5 22.5q31 0 51 -19t20 -51
q0 -33 -21.5 -55.5t-56.5 -22.5q-33 0 -53 19t-20 51zM670 1624q0 33 22.5 55.5t57.5 22.5q31 0 50 -19t19 -51q0 -33 -21 -55.5t-57 -22.5q-31 0 -51 19t-20 51z" />
    <glyph glyph-name="wdieresis" unicode="&#x1e85;" horiz-adv-x="1492" 
d="M702 940l99 4l209 -680l39 -139h8l264 817h94q0 -30 -14 -74l-297 -866l-107 -4l-213 674l-32 119h-4l-250 -789l-107 -4l-301 870q-16 50 -16 74h98l225 -678l43 -139h9zM840 1217q0 33 22 55t58 22q30 0 49.5 -18.5t19.5 -50.5q0 -33 -21.5 -55.5t-54.5 -22.5t-53 19
t-20 51zM512 1217q0 33 22.5 55t57.5 22q31 0 50.5 -18.5t19.5 -50.5q0 -33 -21 -55.5t-57 -22.5q-31 0 -51.5 19t-20.5 51z" />
    <glyph glyph-name="uni1E9E" unicode="&#x1e9e;" horiz-adv-x="1273" 
d="M1108 1251v-16l-317 -487q72 -12 135.5 -37.5t124 -70t96 -117t35.5 -165.5q0 -165 -109.5 -273t-279.5 -108q-164 0 -283 72l41 80q97 -59 244 -59q121 0 200.5 77.5t79.5 204.5q0 68 -23.5 121.5t-59.5 87t-89 58t-102 37t-109 20.5l-14 67l303 471q-144 93 -336 93
q-172 0 -254 -100.5t-82 -307.5v-899h-102v915q0 243 113 364.5t325 121.5q137 -1 259.5 -44t203.5 -106z" />
    <glyph glyph-name="uni1EA2" unicode="&#x1ea2;" horiz-adv-x="1165" 
d="M584 1235l-250 -723h491l-139 414l-96 309h-6zM528 1368l115 8l408 -1198q9 -30 28.5 -89.5t28.5 -88.5h-109l-143 422h-555l-145 -422h-109q44 130 62 176zM477 1767l-14 70q43 16 100 16q75 0 119.5 -35t44.5 -104q0 -165 -223 -186l-10 67q145 21 145 113q0 72 -86 72
q-35 0 -76 -13z" />
    <glyph glyph-name="uni1EA3" unicode="&#x1ea3;" horiz-adv-x="942" 
d="M135 813q188 152 375 152q139 0 200.5 -87t61.5 -274v-252q0 -125 16 -346l-83 -12l-25 139q-174 -156 -346 -156q-107 0 -172.5 62.5t-65.5 169.5q0 135 117 215q123 84 459 111v28q0 172 -38.5 241.5t-135.5 69.5q-152 0 -322 -126zM346 61q155 0 326 160v234
q-317 -33 -402 -90q-73 -57 -73 -146q0 -74 41 -116t108 -42zM369 1341l-15 70q51 19 97 19q78 0 126 -39.5t48 -112.5q0 -90 -63.5 -138.5t-166.5 -58.5l-10 68q72 12 112 40t40 83q0 41 -25.5 61.5t-67.5 20.5q-31 0 -75 -13z" />
    <glyph glyph-name="uni1EA4" unicode="&#x1ea4;" horiz-adv-x="1165" 
d="M584 1235l-250 -723h491l-139 414l-96 309h-6zM528 1368l115 8l408 -1198q9 -30 28.5 -89.5t28.5 -88.5h-109l-143 422h-555l-145 -422h-109q44 130 62 176zM543 1761l75 8l259 -217l-48 -59l-247 186l-244 -184l-47 59zM389 1905l399 163l35 -90v-8l-407 -137z" />
    <glyph glyph-name="uni1EA5" unicode="&#x1ea5;" horiz-adv-x="942" 
d="M135 813q188 152 375 152q139 0 200.5 -87t61.5 -274v-252q0 -125 16 -346l-83 -12l-25 139q-174 -156 -346 -156q-107 0 -172.5 62.5t-65.5 169.5q0 135 117 215q123 84 459 111v28q0 172 -38.5 241.5t-135.5 69.5q-152 0 -322 -126zM346 61q155 0 326 160v234
q-317 -33 -402 -90q-73 -57 -73 -146q0 -74 41 -116t108 -42zM434 1403l76 8l233 -291l-55 -49l-215 242l-219 -244l-57 51zM662 1440l227 311l74 -55v-8l-244 -289z" />
    <glyph glyph-name="uni1EA6" unicode="&#x1ea6;" horiz-adv-x="1165" 
d="M584 1235l-250 -723h491l-139 414l-96 309h-6zM528 1368l115 8l408 -1198q9 -30 28.5 -89.5t28.5 -88.5h-109l-143 422h-555l-145 -422h-109q44 130 62 176zM543 1761l75 8l259 -217l-48 -59l-247 186l-244 -184l-47 59zM356 1978l35 90l400 -163l-25 -72l-410 137v8z
" />
    <glyph glyph-name="uni1EA7" unicode="&#x1ea7;" horiz-adv-x="942" 
d="M135 813q188 152 375 152q139 0 200.5 -87t61.5 -274v-252q0 -125 16 -346l-83 -12l-25 139q-174 -156 -346 -156q-107 0 -172.5 62.5t-65.5 169.5q0 135 117 215q123 84 459 111v28q0 172 -38.5 241.5t-135.5 69.5q-152 0 -322 -126zM346 61q155 0 326 160v234
q-317 -33 -402 -90q-73 -57 -73 -146q0 -74 41 -116t108 -42zM434 1403l76 8l233 -291l-55 -49l-215 242l-219 -244l-57 51zM502 1696l73 55l228 -309l-58 -43l-243 289v8z" />
    <glyph glyph-name="uni1EA8" unicode="&#x1ea8;" horiz-adv-x="1165" 
d="M584 1235l-250 -723h491l-139 414l-96 309h-6zM528 1368l115 8l408 -1198q9 -30 28.5 -89.5t28.5 -88.5h-109l-143 422h-555l-145 -422h-109q44 130 62 176zM543 1761l75 8l259 -217l-48 -59l-247 186l-244 -184l-47 59zM715 2009l-15 70q43 16 101 16q75 0 119.5 -35
t44.5 -104q0 -86 -61.5 -131.5t-162.5 -55.5l-10 68q146 21 146 113q0 71 -86 71q-35 0 -76 -12z" />
    <glyph glyph-name="uni1EA9" unicode="&#x1ea9;" horiz-adv-x="942" 
d="M135 813q188 152 375 152q139 0 200.5 -87t61.5 -274v-252q0 -125 16 -346l-83 -12l-25 139q-174 -156 -346 -156q-107 0 -172.5 62.5t-65.5 169.5q0 135 117 215q123 84 459 111v28q0 172 -38.5 241.5t-135.5 69.5q-152 0 -322 -126zM346 61q155 0 326 160v234
q-317 -33 -402 -90q-73 -57 -73 -146q0 -74 41 -116t108 -42zM434 1403l76 8l233 -291l-55 -49l-215 242l-219 -244l-57 51zM625 1667l-15 70q43 16 99 16q76 0 124 -39t48 -110q0 -90 -63.5 -138.5t-166.5 -58.5l-10 68q72 12 112 40t40 82q0 41 -25.5 61.5t-67.5 20.5
q-34 0 -75 -12z" />
    <glyph glyph-name="uni1EAA" unicode="&#x1eaa;" horiz-adv-x="1165" 
d="M584 1235l-250 -723h491l-139 414l-96 309h-6zM528 1368l115 8l408 -1198q9 -30 28.5 -89.5t28.5 -88.5h-109l-143 422h-555l-145 -422h-109q44 130 62 176zM705 1933q34 0 70 37t65 101l67 -37q-88 -183 -207 -183q-32 0 -60 14t-48.5 34.5t-39 41t-39.5 34.5t-42 14
q-63 0 -137 -134l-66 35q88 181 209 181q32 0 59.5 -14t47.5 -34.5t38.5 -41t39.5 -34.5t43 -14zM543 1761l75 8l259 -217l-48 -59l-247 186l-244 -184l-47 59z" />
    <glyph glyph-name="uni1EAB" unicode="&#x1eab;" horiz-adv-x="942" 
d="M135 813q188 152 375 152q139 0 200.5 -87t61.5 -274v-252q0 -125 16 -346l-83 -12l-25 139q-174 -156 -346 -156q-107 0 -172.5 62.5t-65.5 169.5q0 135 117 215q123 84 459 111v28q0 172 -38.5 241.5t-135.5 69.5q-152 0 -322 -126zM346 61q155 0 326 160v234
q-317 -33 -402 -90q-73 -57 -73 -146q0 -74 41 -116t108 -42zM434 1401l76 8l233 -291l-55 -49l-215 242l-219 -244l-57 51zM616 1597q63 0 129 142l66 -31q-83 -195 -199 -195q-32 0 -60 15t-48.5 36.5t-39.5 43t-40 36.5t-43 15q-34 0 -65 -36.5t-68 -106.5l-66 34
q89 193 201 193q39 0 73.5 -23t55.5 -50t49 -50t55 -23z" />
    <glyph glyph-name="uni1EAC" unicode="&#x1eac;" horiz-adv-x="1165" 
d="M584 1235l-250 -723h491l-139 414l-96 309h-6zM528 1368l115 8l408 -1198q9 -30 28.5 -89.5t28.5 -88.5h-109l-143 422h-555l-145 -422h-109q44 130 62 176zM504 -297q0 38 23.5 62t60.5 24q34 0 55 -21t21 -55q0 -37 -22.5 -60.5t-59.5 -23.5q-35 0 -56.5 20.5
t-21.5 53.5zM543 1784l75 8l259 -219l-48 -60l-247 189l-244 -186l-47 59z" />
    <glyph glyph-name="uni1EAD" unicode="&#x1ead;" horiz-adv-x="942" 
d="M135 813q188 152 375 152q139 0 200.5 -87t61.5 -274v-252q0 -125 16 -346l-83 -12l-25 139q-174 -156 -346 -156q-107 0 -172.5 62.5t-65.5 169.5q0 135 117 215q123 84 459 111v28q0 172 -38.5 241.5t-135.5 69.5q-152 0 -322 -126zM346 61q155 0 326 160v234
q-317 -33 -402 -90q-73 -57 -73 -146q0 -74 41 -116t108 -42zM375 -297q0 38 23.5 62t60.5 24q34 0 55 -21t21 -55q0 -37 -22.5 -60.5t-59.5 -23.5q-35 0 -56.5 20.5t-21.5 53.5zM434 1425l76 7l233 -293l-55 -49l-215 245l-219 -248l-57 52z" />
    <glyph glyph-name="uni1EAE" unicode="&#x1eae;" horiz-adv-x="1165" 
d="M584 1235l-250 -723h491l-139 414l-96 309h-6zM528 1368l115 8l408 -1198q9 -30 28.5 -89.5t28.5 -88.5h-109l-143 422h-555l-145 -422h-109q44 130 62 176zM846 1731q-30 -103 -100 -156t-164 -53q-93 0 -160 51t-98 156l67 30q31 -80 78 -113.5t115 -33.5
q142 0 196 147zM408 1905l399 163l35 -90v-8l-408 -137z" />
    <glyph glyph-name="uni1EAF" unicode="&#x1eaf;" horiz-adv-x="942" 
d="M135 813q188 152 375 152q139 0 200.5 -87t61.5 -274v-252q0 -125 16 -346l-83 -12l-25 139q-174 -156 -346 -156q-107 0 -172.5 62.5t-65.5 169.5q0 135 117 215q123 84 459 111v28q0 172 -38.5 241.5t-135.5 69.5q-152 0 -322 -126zM346 61q155 0 326 160v234
q-317 -33 -402 -90q-73 -57 -73 -146q0 -74 41 -116t108 -42zM475 1190q161 0 191 188l71 -10q-17 -135 -86.5 -200.5t-179.5 -65.5q-108 0 -172 64.5t-84 201.5l74 10q33 -188 186 -188zM406 1448l229 313l74 -55v-10l-246 -289z" />
    <glyph glyph-name="uni1EB0" unicode="&#x1eb0;" horiz-adv-x="1165" 
d="M584 1235l-250 -723h491l-139 414l-96 309h-6zM528 1368l115 8l408 -1198q9 -30 28.5 -89.5t28.5 -88.5h-109l-143 422h-555l-145 -422h-109q44 130 62 176zM846 1731q-30 -103 -100 -156t-164 -53q-93 0 -160 51t-98 156l67 30q31 -80 78 -113.5t115 -33.5
q142 0 196 147zM313 1978l35 90l400 -163l-25 -72l-408 137z" />
    <glyph glyph-name="uni1EB1" unicode="&#x1eb1;" horiz-adv-x="942" 
d="M135 813q188 152 375 152q139 0 200.5 -87t61.5 -274v-252q0 -125 16 -346l-83 -12l-25 139q-174 -156 -346 -156q-107 0 -172.5 62.5t-65.5 169.5q0 135 117 215q123 84 459 111v28q0 172 -38.5 241.5t-135.5 69.5q-152 0 -322 -126zM346 61q155 0 326 160v234
q-317 -33 -402 -90q-73 -57 -73 -146q0 -74 41 -116t108 -42zM475 1190q161 0 191 188l71 -10q-17 -135 -86.5 -200.5t-179.5 -65.5q-108 0 -172 64.5t-84 201.5l74 10q33 -188 186 -188zM254 1706l74 55l227 -311l-57 -43l-244 289v10z" />
    <glyph glyph-name="uni1EB2" unicode="&#x1eb2;" horiz-adv-x="1165" 
d="M584 1235l-250 -723h491l-139 414l-96 309h-6zM528 1368l115 8l408 -1198q9 -30 28.5 -89.5t28.5 -88.5h-109l-143 422h-555l-145 -422h-109q44 130 62 176zM846 1731q-30 -103 -100 -156t-164 -53q-93 0 -160 51t-98 156l67 30q31 -80 78 -113.5t115 -33.5
q142 0 196 147zM483 2017l-14 68q49 18 100 18q75 0 120.5 -36t45.5 -105q0 -86 -61.5 -131t-163.5 -55l-10 67q71 11 109 37.5t38 75.5q0 72 -86 72q-29 0 -78 -11z" />
    <glyph glyph-name="uni1EB3" unicode="&#x1eb3;" horiz-adv-x="942" 
d="M135 813q188 152 375 152q139 0 200.5 -87t61.5 -274v-252q0 -125 16 -346l-83 -12l-25 139q-174 -156 -346 -156q-107 0 -172.5 62.5t-65.5 169.5q0 135 117 215q123 84 459 111v28q0 172 -38.5 241.5t-135.5 69.5q-152 0 -322 -126zM346 61q155 0 326 160v234
q-317 -33 -402 -90q-73 -57 -73 -146q0 -74 41 -116t108 -42zM475 1190q161 0 191 188l71 -10q-17 -135 -86.5 -200.5t-179.5 -65.5q-108 0 -172 64.5t-84 201.5l74 10q33 -188 186 -188zM375 1675l-15 68q52 18 99 18q76 0 124 -39t48 -112q0 -89 -63.5 -137.5
t-166.5 -59.5l-10 70q152 24 152 121q0 82 -92 82q-27 0 -76 -11z" />
    <glyph glyph-name="uni1EB4" unicode="&#x1eb4;" horiz-adv-x="1165" 
d="M584 1235l-250 -723h491l-139 414l-96 309h-6zM528 1368l115 8l408 -1198q9 -30 28.5 -89.5t28.5 -88.5h-109l-143 422h-555l-145 -422h-109q44 130 62 176zM846 1731q-30 -103 -100 -156t-164 -53q-93 0 -160 51t-98 156l67 30q31 -80 78 -113.5t115 -33.5
q142 0 196 147zM700 1933q35 0 71 35.5t67 99.5l65 -34q-84 -183 -205 -183q-39 0 -73.5 21.5t-55.5 46.5t-48.5 46.5t-53.5 21.5q-61 0 -137 -132l-66 35q88 181 209 181q39 0 73 -21.5t54.5 -47.5t47 -47.5t52.5 -21.5z" />
    <glyph glyph-name="uni1EB5" unicode="&#x1eb5;" horiz-adv-x="942" 
d="M135 813q188 152 375 152q139 0 200.5 -87t61.5 -274v-252q0 -125 16 -346l-83 -12l-25 139q-174 -156 -346 -156q-107 0 -172.5 62.5t-65.5 169.5q0 135 117 215q123 84 459 111v28q0 172 -38.5 241.5t-135.5 69.5q-152 0 -322 -126zM346 61q155 0 326 160v234
q-317 -33 -402 -90q-73 -57 -73 -146q0 -74 41 -116t108 -42zM475 1190q161 0 191 188l71 -10q-17 -135 -86.5 -200.5t-179.5 -65.5q-108 0 -172 64.5t-84 201.5l74 10q33 -188 186 -188zM608 1597q63 0 129 142l66 -31q-37 -90 -88.5 -142.5t-110.5 -52.5q-32 0 -60 15
t-48.5 36.5t-39.5 43t-40 36.5t-43 15q-34 0 -65 -36.5t-68 -106.5l-66 34q89 193 203 193q38 0 72 -23t55 -50t49 -50t55 -23z" />
    <glyph glyph-name="uni1EB6" unicode="&#x1eb6;" horiz-adv-x="1165" 
d="M584 1235l-250 -723h491l-139 414l-96 309h-6zM528 1368l115 8l408 -1198q9 -30 28.5 -89.5t28.5 -88.5h-109l-143 422h-555l-145 -422h-109q44 130 62 176zM504 -297q0 38 23.5 62t60.5 24q34 0 55 -21t21 -55q0 -37 -22.5 -60.5t-59.5 -23.5q-35 0 -56.5 20.5
t-21.5 53.5zM846 1745q-30 -103 -100.5 -157t-163.5 -54t-160 52t-98 157l67 31q31 -80 78.5 -115t114.5 -35q141 0 196 150z" />
    <glyph glyph-name="uni1EB7" unicode="&#x1eb7;" horiz-adv-x="942" 
d="M135 813q188 152 375 152q139 0 200.5 -87t61.5 -274v-252q0 -125 16 -346l-83 -12l-25 139q-174 -156 -346 -156q-107 0 -172.5 62.5t-65.5 169.5q0 135 117 215q123 84 459 111v28q0 172 -38.5 241.5t-135.5 69.5q-152 0 -322 -126zM346 61q155 0 326 160v234
q-317 -33 -402 -90q-73 -57 -73 -146q0 -74 41 -116t108 -42zM375 -297q0 38 23.5 62t60.5 24q34 0 55 -21t21 -55q0 -37 -22.5 -60.5t-59.5 -23.5q-35 0 -56.5 20.5t-21.5 53.5zM475 1196q161 0 191 188l71 -10q-17 -136 -86.5 -202t-179.5 -66q-218 0 -256 268l74 10
q33 -188 186 -188z" />
    <glyph glyph-name="uni1EBA" unicode="&#x1eba;" horiz-adv-x="1071" 
d="M207 1372h745l-4 -92h-639v-532h522v-93h-522v-563h641l4 -92h-747v1372zM475 1767l-14 70q43 16 100 16q75 0 119.5 -35t44.5 -104q0 -165 -223 -186l-10 67q145 21 145 113q0 72 -86 72q-35 0 -76 -13z" />
    <glyph glyph-name="uni1EBB" unicode="&#x1ebb;" horiz-adv-x="972" 
d="M119 463q0 142 49.5 257t143 182t214.5 67q158 0 243 -104.5t85 -264.5q0 -72 -12 -143h-621q3 -190 89.5 -289.5t224.5 -99.5q135 0 270 55l29 -74q-156 -72 -318 -72q-82 0 -153 31t-126 90t-86.5 153t-31.5 212zM522 883q-127 0 -206 -93t-93 -255h527q4 54 4 79
q0 117 -61.5 193t-170.5 76zM406 1341l-15 70q51 19 96 19q78 0 126.5 -39.5t48.5 -112.5q0 -90 -63.5 -138.5t-166.5 -58.5l-10 68q71 12 111 40t40 83q0 41 -25 61.5t-67 20.5q-31 0 -75 -13z" />
    <glyph glyph-name="uni1EBC" unicode="&#x1ebc;" horiz-adv-x="1071" 
d="M207 1372h745l-4 -92h-639v-532h522v-93h-522v-563h641l4 -92h-747v1372zM698 1602q33 0 69.5 40t66.5 105l67 -35q-88 -194 -205 -194q-32 0 -60 15t-48.5 36t-39.5 42.5t-39.5 36.5t-41.5 15q-59 0 -139 -143l-66 36q92 193 209 193q32 0 59.5 -15t47.5 -36.5t38 -43.5
t39 -37t43 -15z" />
    <glyph glyph-name="uni1EBD" unicode="&#x1ebd;" horiz-adv-x="972" 
d="M119 463q0 142 49.5 257t143 182t214.5 67q158 0 243 -104.5t85 -264.5q0 -72 -12 -143h-621q3 -190 89.5 -289.5t224.5 -99.5q135 0 270 55l29 -74q-156 -72 -318 -72q-82 0 -153 31t-126 90t-86.5 153t-31.5 212zM522 883q-127 0 -206 -93t-93 -255h527q4 54 4 79
q0 117 -61.5 193t-170.5 76zM627 1196q65 0 133 143l65 -32q-38 -92 -89.5 -144.5t-110.5 -52.5q-32 0 -60 15t-48.5 36t-39.5 42.5t-40 36.5t-42 15q-34 0 -65 -36t-70 -107l-63 35q83 194 202 194q31 0 59 -15t48 -36.5t38.5 -42.5t39.5 -36t43 -15z" />
    <glyph glyph-name="uni1EBE" unicode="&#x1ebe;" horiz-adv-x="1071" 
d="M207 1372h745l-4 -92h-639v-532h522v-93h-522v-563h641l4 -92h-747v1372zM541 1761l75 8l258 -217l-47 -59l-247 186l-244 -184l-47 59zM387 1905l399 163l35 -90v-8l-407 -137z" />
    <glyph glyph-name="uni1EBF" unicode="&#x1ebf;" horiz-adv-x="972" 
d="M119 463q0 142 49.5 257t143 182t214.5 67q158 0 243 -104.5t85 -264.5q0 -72 -12 -143h-621q3 -190 89.5 -289.5t224.5 -99.5q135 0 270 55l29 -74q-156 -72 -318 -72q-82 0 -153 31t-126 90t-86.5 153t-31.5 212zM522 883q-127 0 -206 -93t-93 -255h527q4 54 4 79
q0 117 -61.5 193t-170.5 76zM471 1403l76 8l233 -291l-55 -49l-215 242l-219 -244l-58 51zM698 1440l228 311l73 -55v-8l-243 -289z" />
    <glyph glyph-name="uni1EC0" unicode="&#x1ec0;" horiz-adv-x="1071" 
d="M207 1372h745l-4 -92h-639v-532h522v-93h-522v-563h641l4 -92h-747v1372zM541 1761l75 8l258 -217l-47 -59l-247 186l-244 -184l-47 59zM354 1978l35 90l399 -163l-24 -72l-410 137v8z" />
    <glyph glyph-name="uni1EC1" unicode="&#x1ec1;" horiz-adv-x="972" 
d="M119 463q0 142 49.5 257t143 182t214.5 67q158 0 243 -104.5t85 -264.5q0 -72 -12 -143h-621q3 -190 89.5 -289.5t224.5 -99.5q135 0 270 55l29 -74q-156 -72 -318 -72q-82 0 -153 31t-126 90t-86.5 153t-31.5 212zM522 883q-127 0 -206 -93t-93 -255h527q4 54 4 79
q0 117 -61.5 193t-170.5 76zM471 1403l76 8l233 -291l-55 -49l-215 242l-219 -244l-58 51zM539 1696l73 55l228 -309l-58 -43l-243 289v8z" />
    <glyph glyph-name="uni1EC2" unicode="&#x1ec2;" horiz-adv-x="1071" 
d="M207 1372h745l-4 -92h-639v-532h522v-93h-522v-563h641l4 -92h-747v1372zM541 1761l75 8l258 -217l-47 -59l-247 186l-244 -184l-47 59zM713 2009l-15 70q43 16 101 16q75 0 119.5 -35t44.5 -104q0 -86 -61.5 -131.5t-162.5 -55.5l-10 68q145 21 145 113q0 71 -86 71
q-34 0 -75 -12z" />
    <glyph glyph-name="uni1EC3" unicode="&#x1ec3;" horiz-adv-x="972" 
d="M119 463q0 142 49.5 257t143 182t214.5 67q158 0 243 -104.5t85 -264.5q0 -72 -12 -143h-621q3 -190 89.5 -289.5t224.5 -99.5q135 0 270 55l29 -74q-156 -72 -318 -72q-82 0 -153 31t-126 90t-86.5 153t-31.5 212zM522 883q-127 0 -206 -93t-93 -255h527q4 54 4 79
q0 117 -61.5 193t-170.5 76zM471 1403l76 8l233 -291l-55 -49l-215 242l-219 -244l-58 51zM662 1667l-15 70q43 16 98 16q76 0 124.5 -39t48.5 -110q0 -90 -63.5 -138.5t-166.5 -58.5l-10 68q72 12 111.5 39.5t39.5 82.5q0 41 -25 61.5t-67 20.5q-35 0 -75 -12z" />
    <glyph glyph-name="uni1EC4" unicode="&#x1ec4;" horiz-adv-x="1071" 
d="M207 1372h745l-4 -92h-639v-532h522v-93h-522v-563h641l4 -92h-747v1372zM702 1933q34 0 70.5 37t65.5 101l67 -37q-88 -183 -207 -183q-32 0 -60 14t-48.5 34.5t-39 41t-39.5 34.5t-42 14q-63 0 -137 -134l-66 35q88 181 209 181q32 0 59.5 -14t47.5 -34.5t38 -41
t39 -34.5t43 -14zM541 1761l75 8l258 -217l-47 -59l-247 186l-244 -184l-47 59z" />
    <glyph glyph-name="uni1EC5" unicode="&#x1ec5;" horiz-adv-x="972" 
d="M119 463q0 142 49.5 257t143 182t214.5 67q158 0 243 -104.5t85 -264.5q0 -72 -12 -143h-621q3 -190 89.5 -289.5t224.5 -99.5q135 0 270 55l29 -74q-156 -72 -318 -72q-82 0 -153 31t-126 90t-86.5 153t-31.5 212zM522 883q-127 0 -206 -93t-93 -255h527q4 54 4 79
q0 117 -61.5 193t-170.5 76zM471 1401l76 8l233 -291l-55 -49l-215 242l-219 -244l-58 51zM653 1597q63 0 129 142l66 -31q-83 -195 -199 -195q-32 0 -60 15t-48.5 36.5t-39.5 43t-40 36.5t-43 15q-34 0 -65 -36.5t-68 -106.5l-66 34q89 193 201 193q39 0 73.5 -23t55.5 -50
t49 -50t55 -23z" />
    <glyph glyph-name="uni1EC6" unicode="&#x1ec6;" horiz-adv-x="1071" 
d="M207 1372h745l-4 -92h-639v-532h522v-93h-522v-563h641l4 -92h-747v1372zM504 -297q0 38 23.5 62t60.5 24q34 0 55 -21t21 -55q0 -37 -22.5 -60.5t-59.5 -23.5q-35 0 -56.5 20.5t-21.5 53.5zM541 1784l75 8l258 -219l-47 -60l-247 189l-244 -186l-47 59z" />
    <glyph glyph-name="uni1EC7" unicode="&#x1ec7;" horiz-adv-x="972" 
d="M119 463q0 142 49.5 257t143 182t214.5 67q158 0 243 -104.5t85 -264.5q0 -72 -12 -143h-621q3 -190 89.5 -289.5t224.5 -99.5q135 0 270 55l29 -74q-156 -72 -318 -72q-82 0 -153 31t-126 90t-86.5 153t-31.5 212zM522 883q-127 0 -206 -93t-93 -255h527q4 54 4 79
q0 117 -61.5 193t-170.5 76zM428 -297q0 38 23.5 62t60.5 24q34 0 55 -21t21 -55q0 -37 -22.5 -60.5t-59.5 -23.5q-35 0 -56.5 20.5t-21.5 53.5zM471 1425l76 7l233 -293l-55 -49l-215 245l-219 -248l-58 52z" />
    <glyph glyph-name="uni1EC8" unicode="&#x1ec8;" horiz-adv-x="516" 
d="M207 1372h102v-1372h-102v1372zM152 1767l-15 70q43 16 101 16q75 0 119 -35t44 -104q0 -165 -223 -186l-10 67q145 21 145 113q0 72 -86 72q-34 0 -75 -13z" />
    <glyph glyph-name="uni1EC9" unicode="&#x1ec9;" horiz-adv-x="452" 
d="M176 940l100 4v-944h-100v940zM125 1341l-14 70q51 19 96 19q78 0 126 -39.5t48 -112.5q0 -90 -63 -138.5t-166 -58.5l-11 68q72 12 112 40t40 83q0 41 -25 61.5t-67 20.5q-32 0 -76 -13z" />
    <glyph glyph-name="uni1ECE" unicode="&#x1ece;" horiz-adv-x="1384" 
d="M125 668q0 75 10 149.5t32 147t54.5 137t79 120t103.5 95t130.5 62t157.5 22.5q131 0 239 -54.5t179.5 -149t110.5 -221t39 -271.5q0 -107 -20 -209.5t-65 -198t-109.5 -167.5t-161 -115.5t-212.5 -43.5q-174 0 -304.5 94.5t-196.5 251.5t-66 351zM1151 686
q0 130 -31 243t-88 197t-145 132.5t-195 48.5q-139 0 -252 -86q-106 -86 -155 -230t-49 -305q0 -175 52.5 -314t158 -222.5t247.5 -83.5q139 0 252 86q106 86 155.5 229.5t49.5 304.5zM586 1767l-15 70q43 16 101 16q75 0 119.5 -35t44.5 -104q0 -164 -224 -186l-10 67
q146 21 146 113q0 72 -86 72q-35 0 -76 -13z" />
    <glyph glyph-name="uni1ECF" unicode="&#x1ecf;" horiz-adv-x="1044" 
d="M119 463q0 91 24.5 178t72 162.5t128.5 121.5t184 46q182 0 290 -138.5t108 -353.5q0 -72 -14.5 -142.5t-47 -137t-79 -117t-116 -81t-153.5 -30.5q-121 0 -212 64t-138 175t-47 253zM823 467q0 183 -80 298.5t-225 115.5q-113 0 -186 -70q-111 -111 -111 -336
q0 -185 79.5 -299.5t225.5 -114.5q117 0 189 72q108 108 108 334zM418 1341l-15 70q51 19 97 19q78 0 126 -39.5t48 -112.5q0 -90 -63.5 -138.5t-166.5 -58.5l-10 68q72 12 112 40t40 83q0 41 -25 61.5t-67 20.5q-32 0 -76 -13z" />
    <glyph glyph-name="uni1ED0" unicode="&#x1ed0;" horiz-adv-x="1384" 
d="M125 668q0 75 10 149.5t32 147t54.5 137t79 120t103.5 95t130.5 62t157.5 22.5q131 0 239 -54.5t179.5 -149t110.5 -221t39 -271.5q0 -107 -20 -209.5t-65 -198t-109.5 -167.5t-161 -115.5t-212.5 -43.5q-174 0 -304.5 94.5t-196.5 251.5t-66 351zM1151 686
q0 130 -31 243t-88 197t-145 132.5t-195 48.5q-139 0 -252 -86q-106 -86 -155 -230t-49 -305q0 -175 52.5 -314t158 -222.5t247.5 -83.5q139 0 252 86q106 86 155.5 229.5t49.5 304.5zM651 1761l76 8l258 -217l-47 -59l-248 186l-244 -184l-47 59zM498 1905l399 163l35 -90
v-8l-408 -137z" />
    <glyph glyph-name="uni1ED1" unicode="&#x1ed1;" horiz-adv-x="1044" 
d="M119 463q0 91 24.5 178t72 162.5t128.5 121.5t184 46q182 0 290 -138.5t108 -353.5q0 -72 -14.5 -142.5t-47 -137t-79 -117t-116 -81t-153.5 -30.5q-121 0 -212 64t-138 175t-47 253zM823 467q0 183 -80 298.5t-225 115.5q-113 0 -186 -70q-111 -111 -111 -336
q0 -185 79.5 -299.5t225.5 -114.5q117 0 189 72q108 108 108 334zM483 1403l76 8l234 -291l-56 -49l-215 242l-219 -244l-57 51zM711 1440l227 311l74 -55v-8l-244 -289z" />
    <glyph glyph-name="uni1ED2" unicode="&#x1ed2;" horiz-adv-x="1384" 
d="M125 668q0 75 10 149.5t32 147t54.5 137t79 120t103.5 95t130.5 62t157.5 22.5q131 0 239 -54.5t179.5 -149t110.5 -221t39 -271.5q0 -107 -20 -209.5t-65 -198t-109.5 -167.5t-161 -115.5t-212.5 -43.5q-174 0 -304.5 94.5t-196.5 251.5t-66 351zM1151 686
q0 130 -31 243t-88 197t-145 132.5t-195 48.5q-139 0 -252 -86q-106 -86 -155 -230t-49 -305q0 -175 52.5 -314t158 -222.5t247.5 -83.5q139 0 252 86q106 86 155.5 229.5t49.5 304.5zM651 1761l76 8l258 -217l-47 -59l-248 186l-244 -184l-47 59zM465 1978l35 90l399 -163
l-25 -72l-409 137v8z" />
    <glyph glyph-name="uni1ED3" unicode="&#x1ed3;" horiz-adv-x="1044" 
d="M119 463q0 91 24.5 178t72 162.5t128.5 121.5t184 46q182 0 290 -138.5t108 -353.5q0 -72 -14.5 -142.5t-47 -137t-79 -117t-116 -81t-153.5 -30.5q-121 0 -212 64t-138 175t-47 253zM823 467q0 183 -80 298.5t-225 115.5q-113 0 -186 -70q-111 -111 -111 -336
q0 -185 79.5 -299.5t225.5 -114.5q117 0 189 72q108 108 108 334zM483 1403l76 8l234 -291l-56 -49l-215 242l-219 -244l-57 51zM551 1696l74 55l227 -309l-57 -43l-244 289v8z" />
    <glyph glyph-name="uni1ED4" unicode="&#x1ed4;" horiz-adv-x="1384" 
d="M125 668q0 75 10 149.5t32 147t54.5 137t79 120t103.5 95t130.5 62t157.5 22.5q131 0 239 -54.5t179.5 -149t110.5 -221t39 -271.5q0 -107 -20 -209.5t-65 -198t-109.5 -167.5t-161 -115.5t-212.5 -43.5q-174 0 -304.5 94.5t-196.5 251.5t-66 351zM1151 686
q0 130 -31 243t-88 197t-145 132.5t-195 48.5q-139 0 -252 -86q-106 -86 -155 -230t-49 -305q0 -175 52.5 -314t158 -222.5t247.5 -83.5q139 0 252 86q106 86 155.5 229.5t49.5 304.5zM651 1761l76 8l258 -217l-47 -59l-248 186l-244 -184l-47 59zM823 2009l-14 70
q43 16 100 16q75 0 119.5 -35t44.5 -104q0 -86 -61 -131.5t-162 -55.5l-10 68q145 21 145 113q0 71 -86 71q-35 0 -76 -12z" />
    <glyph glyph-name="uni1ED5" unicode="&#x1ed5;" horiz-adv-x="1044" 
d="M119 463q0 91 24.5 178t72 162.5t128.5 121.5t184 46q182 0 290 -138.5t108 -353.5q0 -72 -14.5 -142.5t-47 -137t-79 -117t-116 -81t-153.5 -30.5q-121 0 -212 64t-138 175t-47 253zM823 467q0 183 -80 298.5t-225 115.5q-113 0 -186 -70q-111 -111 -111 -336
q0 -185 79.5 -299.5t225.5 -114.5q117 0 189 72q108 108 108 334zM483 1403l76 8l234 -291l-56 -49l-215 242l-219 -244l-57 51zM674 1667l-15 70q43 16 99 16q76 0 124 -39t48 -110q0 -90 -63.5 -138.5t-166.5 -58.5l-10 68q72 12 112 40t40 82q0 41 -25 61.5t-67 20.5
q-36 0 -76 -12z" />
    <glyph glyph-name="uni1ED6" unicode="&#x1ed6;" horiz-adv-x="1384" 
d="M125 668q0 75 10 149.5t32 147t54.5 137t79 120t103.5 95t130.5 62t157.5 22.5q131 0 239 -54.5t179.5 -149t110.5 -221t39 -271.5q0 -107 -20 -209.5t-65 -198t-109.5 -167.5t-161 -115.5t-212.5 -43.5q-174 0 -304.5 94.5t-196.5 251.5t-66 351zM1151 686
q0 130 -31 243t-88 197t-145 132.5t-195 48.5q-139 0 -252 -86q-106 -86 -155 -230t-49 -305q0 -175 52.5 -314t158 -222.5t247.5 -83.5q139 0 252 86q106 86 155.5 229.5t49.5 304.5zM813 1933q34 0 70 37t65 101l68 -37q-88 -183 -207 -183q-32 0 -60 14t-48.5 34.5
t-39 41t-39.5 34.5t-42 14q-64 0 -138 -134l-65 35q88 181 209 181q32 0 59.5 -14t47.5 -34.5t38 -41t39 -34.5t43 -14zM651 1761l76 8l258 -217l-47 -59l-248 186l-244 -184l-47 59z" />
    <glyph glyph-name="uni1ED7" unicode="&#x1ed7;" horiz-adv-x="1044" 
d="M119 463q0 91 24.5 178t72 162.5t128.5 121.5t184 46q182 0 290 -138.5t108 -353.5q0 -72 -14.5 -142.5t-47 -137t-79 -117t-116 -81t-153.5 -30.5q-121 0 -212 64t-138 175t-47 253zM823 467q0 183 -80 298.5t-225 115.5q-113 0 -186 -70q-111 -111 -111 -336
q0 -185 79.5 -299.5t225.5 -114.5q117 0 189 72q108 108 108 334zM483 1401l76 8l234 -291l-56 -49l-215 242l-219 -244l-57 51zM666 1597q63 0 129 142l65 -31q-83 -195 -198 -195q-39 0 -73.5 23t-55.5 50t-49 50t-54 23q-34 0 -65 -36.5t-68 -106.5l-66 34
q89 193 201 193q39 0 73.5 -23t56 -50t49.5 -50t55 -23z" />
    <glyph glyph-name="uni1ED8" unicode="&#x1ed8;" horiz-adv-x="1384" 
d="M125 668q0 75 10 149.5t32 147t54.5 137t79 120t103.5 95t130.5 62t157.5 22.5q131 0 239 -54.5t179.5 -149t110.5 -221t39 -271.5q0 -107 -20 -209.5t-65 -198t-109.5 -167.5t-161 -115.5t-212.5 -43.5q-174 0 -304.5 94.5t-196.5 251.5t-66 351zM1151 686
q0 130 -31 243t-88 197t-145 132.5t-195 48.5q-139 0 -252 -86q-106 -86 -155 -230t-49 -305q0 -175 52.5 -314t158 -222.5t247.5 -83.5q139 0 252 86q106 86 155.5 229.5t49.5 304.5zM612 -297q0 38 23.5 62t60.5 24q34 0 55 -21t21 -55q0 -37 -22.5 -60.5t-59.5 -23.5
q-35 0 -56.5 20.5t-21.5 53.5zM651 1784l76 8l258 -219l-47 -60l-248 189l-244 -186l-47 59z" />
    <glyph glyph-name="uni1ED9" unicode="&#x1ed9;" horiz-adv-x="1044" 
d="M119 463q0 91 24.5 178t72 162.5t128.5 121.5t184 46q182 0 290 -138.5t108 -353.5q0 -72 -14.5 -142.5t-47 -137t-79 -117t-116 -81t-153.5 -30.5q-121 0 -212 64t-138 175t-47 253zM823 467q0 183 -80 298.5t-225 115.5q-113 0 -186 -70q-111 -111 -111 -336
q0 -185 79.5 -299.5t225.5 -114.5q117 0 189 72q108 108 108 334zM444 -297q0 38 23.5 62t60.5 24q34 0 55 -21t21 -55q0 -37 -22.5 -60.5t-59.5 -23.5q-35 0 -56.5 20.5t-21.5 53.5zM483 1425l76 7l234 -293l-56 -49l-215 245l-219 -248l-57 52z" />
    <glyph glyph-name="uni1EDA" unicode="&#x1eda;" horiz-adv-x="1384" 
d="M125 668q0 75 10 149.5t32 147t54.5 137t79 120t103.5 95t130.5 62t157.5 22.5q83 0 172 -27q64 -22 135 -22q115 0 115 94q0 46 -39 117l90 8q43 -71 43 -137q0 -148 -159 -170q102 -93 156.5 -239.5t54.5 -319.5q0 -107 -20 -209.5t-65 -198t-109.5 -167.5t-161 -115.5
t-212.5 -43.5q-174 0 -304.5 94.5t-196.5 251.5t-66 351zM1151 686q0 130 -31 243t-88 197t-145 132.5t-195 48.5q-139 0 -252 -86q-106 -86 -155 -230t-49 -305q0 -175 52.5 -314t158 -222.5t247.5 -83.5q139 0 252 86q106 86 155.5 229.5t49.5 304.5zM530 1604l398 165
l35 -92v-8l-408 -137z" />
    <glyph glyph-name="uni1EDB" unicode="&#x1edb;" horiz-adv-x="1044" 
d="M119 463q0 91 24.5 178t72 162.5t128.5 121.5t184 46q80 0 158 -33q43 -16 76 -16q58 0 81 21.5t23 62.5q0 53 -39 116l84 8q43 -71 43 -135q0 -130 -147 -149q119 -138 119 -367q0 -72 -14.5 -142.5t-47 -137t-79 -117t-116 -81t-153.5 -30.5q-121 0 -212 64t-138 175
t-47 253zM823 467q0 183 -80 298.5t-225 115.5q-113 0 -186 -70q-111 -111 -111 -336q0 -185 79.5 -299.5t225.5 -114.5q117 0 189 72q108 108 108 334zM408 1141l290 307l68 -66v-10l-307 -282z" />
    <glyph glyph-name="uni1EDC" unicode="&#x1edc;" horiz-adv-x="1384" 
d="M125 668q0 75 10 149.5t32 147t54.5 137t79 120t103.5 95t130.5 62t157.5 22.5q83 0 172 -27q64 -22 135 -22q115 0 115 94q0 46 -39 117l90 8q43 -71 43 -137q0 -148 -159 -170q102 -93 156.5 -239.5t54.5 -319.5q0 -107 -20 -209.5t-65 -198t-109.5 -167.5t-161 -115.5
t-212.5 -43.5q-174 0 -304.5 94.5t-196.5 251.5t-66 351zM1151 686q0 130 -31 243t-88 197t-145 132.5t-195 48.5q-139 0 -252 -86q-106 -86 -155 -230t-49 -305q0 -175 52.5 -314t158 -222.5t247.5 -83.5q139 0 252 86q106 86 155.5 229.5t49.5 304.5zM424 1679l35 90
l399 -165l-24 -72l-410 139v8z" />
    <glyph glyph-name="uni1EDD" unicode="&#x1edd;" horiz-adv-x="1044" 
d="M119 463q0 91 24.5 178t72 162.5t128.5 121.5t184 46q80 0 158 -33q43 -16 76 -16q58 0 81 21.5t23 62.5q0 53 -39 116l84 8q43 -71 43 -135q0 -130 -147 -149q119 -138 119 -367q0 -72 -14.5 -142.5t-47 -137t-79 -117t-116 -81t-153.5 -30.5q-121 0 -212 64t-138 175
t-47 253zM823 467q0 183 -80 298.5t-225 115.5q-113 0 -186 -70q-111 -111 -111 -336q0 -185 79.5 -299.5t225.5 -114.5q117 0 189 72q108 108 108 334zM311 1382l68 66l293 -307l-51 -51l-310 282v10z" />
    <glyph glyph-name="uni1EDE" unicode="&#x1ede;" horiz-adv-x="1384" 
d="M125 668q0 75 10 149.5t32 147t54.5 137t79 120t103.5 95t130.5 62t157.5 22.5q83 0 172 -27q64 -22 135 -22q115 0 115 94q0 46 -39 117l90 8q43 -71 43 -137q0 -148 -159 -170q102 -93 156.5 -239.5t54.5 -319.5q0 -107 -20 -209.5t-65 -198t-109.5 -167.5t-161 -115.5
t-212.5 -43.5q-174 0 -304.5 94.5t-196.5 251.5t-66 351zM1151 686q0 130 -31 243t-88 197t-145 132.5t-195 48.5q-139 0 -252 -86q-106 -86 -155 -230t-49 -305q0 -175 52.5 -314t158 -222.5t247.5 -83.5q139 0 252 86q106 86 155.5 229.5t49.5 304.5zM586 1767l-15 70
q43 16 101 16q75 0 119.5 -35t44.5 -104q0 -164 -224 -186l-10 67q146 21 146 113q0 72 -86 72q-35 0 -76 -13z" />
    <glyph glyph-name="uni1EDF" unicode="&#x1edf;" horiz-adv-x="1044" 
d="M119 463q0 91 24.5 178t72 162.5t128.5 121.5t184 46q80 0 158 -33q43 -16 76 -16q58 0 81 21.5t23 62.5q0 53 -39 116l84 8q43 -71 43 -135q0 -130 -147 -149q119 -138 119 -367q0 -72 -14.5 -142.5t-47 -137t-79 -117t-116 -81t-153.5 -30.5q-121 0 -212 64t-138 175
t-47 253zM823 467q0 183 -80 298.5t-225 115.5q-113 0 -186 -70q-111 -111 -111 -336q0 -185 79.5 -299.5t225.5 -114.5q117 0 189 72q108 108 108 334zM418 1341l-15 70q51 19 97 19q78 0 126 -39.5t48 -112.5q0 -90 -63.5 -138.5t-166.5 -58.5l-10 68q72 12 112 40t40 83
q0 41 -25 61.5t-67 20.5q-32 0 -76 -13z" />
    <glyph glyph-name="uni1EE0" unicode="&#x1ee0;" horiz-adv-x="1384" 
d="M125 668q0 75 10 149.5t32 147t54.5 137t79 120t103.5 95t130.5 62t157.5 22.5q83 0 172 -27q64 -22 135 -22q115 0 115 94q0 46 -39 117l90 8q43 -71 43 -137q0 -148 -159 -170q102 -93 156.5 -239.5t54.5 -319.5q0 -107 -20 -209.5t-65 -198t-109.5 -167.5t-161 -115.5
t-212.5 -43.5q-174 0 -304.5 94.5t-196.5 251.5t-66 351zM1151 686q0 130 -31 243t-88 197t-145 132.5t-195 48.5q-139 0 -252 -86q-106 -86 -155 -230t-49 -305q0 -175 52.5 -314t158 -222.5t247.5 -83.5q139 0 252 86q106 86 155.5 229.5t49.5 304.5zM799 1602q33 0 69 40
t66 105l67 -35q-88 -194 -204 -194q-32 0 -60.5 15t-49 36t-39.5 42.5t-39.5 36.5t-41.5 15q-59 0 -139 -143l-66 36q92 193 209 193q32 0 59.5 -15t47.5 -36.5t38.5 -43.5t39.5 -37t43 -15z" />
    <glyph glyph-name="uni1EE1" unicode="&#x1ee1;" horiz-adv-x="1044" 
d="M119 463q0 91 24.5 178t72 162.5t128.5 121.5t184 46q80 0 158 -33q43 -16 76 -16q58 0 81 21.5t23 62.5q0 53 -39 116l84 8q43 -71 43 -135q0 -130 -147 -149q119 -138 119 -367q0 -72 -14.5 -142.5t-47 -137t-79 -117t-116 -81t-153.5 -30.5q-121 0 -212 64t-138 175
t-47 253zM823 467q0 183 -80 298.5t-225 115.5q-113 0 -186 -70q-111 -111 -111 -336q0 -185 79.5 -299.5t225.5 -114.5q117 0 189 72q108 108 108 334zM631 1196q64 0 127 143l65 -32q-35 -92 -85 -144.5t-109 -52.5q-32 0 -60 15t-48.5 36t-39.5 42.5t-40 36.5t-42 15
q-33 0 -64 -37t-65 -106l-65 31q80 198 198 198q32 0 59.5 -15t47.5 -36.5t38.5 -42.5t39.5 -36t43 -15z" />
    <glyph glyph-name="uni1EE2" unicode="&#x1ee2;" horiz-adv-x="1384" 
d="M125 668q0 75 10 149.5t32 147t54.5 137t79 120t103.5 95t130.5 62t157.5 22.5q83 0 172 -27q64 -22 135 -22q115 0 115 94q0 46 -39 117l90 8q43 -71 43 -137q0 -148 -159 -170q102 -93 156.5 -239.5t54.5 -319.5q0 -107 -20 -209.5t-65 -198t-109.5 -167.5t-161 -115.5
t-212.5 -43.5q-174 0 -304.5 94.5t-196.5 251.5t-66 351zM1151 686q0 130 -31 243t-88 197t-145 132.5t-195 48.5q-139 0 -252 -86q-106 -86 -155 -230t-49 -305q0 -175 52.5 -314t158 -222.5t247.5 -83.5q139 0 252 86q106 86 155.5 229.5t49.5 304.5zM612 -297
q0 38 23.5 62t60.5 24q34 0 55 -21t21 -55q0 -37 -22.5 -60.5t-59.5 -23.5q-35 0 -56.5 20.5t-21.5 53.5z" />
    <glyph glyph-name="uni1EE3" unicode="&#x1ee3;" horiz-adv-x="1044" 
d="M119 463q0 91 24.5 178t72 162.5t128.5 121.5t184 46q80 0 158 -33q43 -16 76 -16q58 0 81 21.5t23 62.5q0 53 -39 116l84 8q43 -71 43 -135q0 -130 -147 -149q119 -138 119 -367q0 -72 -14.5 -142.5t-47 -137t-79 -117t-116 -81t-153.5 -30.5q-121 0 -212 64t-138 175
t-47 253zM823 467q0 183 -80 298.5t-225 115.5q-113 0 -186 -70q-111 -111 -111 -336q0 -185 79.5 -299.5t225.5 -114.5q117 0 189 72q108 108 108 334zM444 -297q0 38 23.5 62t60.5 24q34 0 55 -21t21 -55q0 -37 -22.5 -60.5t-59.5 -23.5q-35 0 -56.5 20.5t-21.5 53.5z" />
    <glyph glyph-name="uni1EE6" unicode="&#x1ee6;" horiz-adv-x="1273" 
d="M979 1372h102v-848q0 -99 -13.5 -179.5t-46 -151.5t-83.5 -119t-129.5 -75.5t-179.5 -27.5q-436 0 -436 500v901h102v-864q0 -84 8.5 -147.5t32 -121.5t62.5 -95.5t101.5 -59t147.5 -21.5q69 0 128 24t95 58q109 101 109 338v889zM530 1767l-14 70q43 16 100 16
q75 0 119.5 -35t44.5 -104q0 -165 -223 -186l-10 67q145 21 145 113q0 72 -86 72q-35 0 -76 -13z" />
    <glyph glyph-name="uni1EE7" unicode="&#x1ee7;" horiz-adv-x="1038" 
d="M168 940l100 4v-608q0 -142 44 -208.5t141 -66.5q139 0 307 168v713h100v-588q0 -115 17 -348l-84 -12l-25 147q-170 -170 -338 -170q-262 0 -262 330v639zM403 1341l-14 70q51 19 96 19q78 0 126 -39.5t48 -112.5q0 -90 -63 -138.5t-166 -58.5l-10 68q71 12 111 40
t40 83q0 41 -25 61.5t-67 20.5q-32 0 -76 -13z" />
    <glyph glyph-name="uni1EE8" unicode="&#x1ee8;" horiz-adv-x="1265" 
d="M979 1372h57q70 0 97.5 23t27.5 67q0 54 -39 121l90 8q45 -74 45 -139q0 -152 -176 -166v-762q0 -99 -13.5 -179.5t-46 -151.5t-83.5 -119t-129.5 -75.5t-179.5 -27.5q-436 0 -436 500v901h102v-864q0 -84 8.5 -147.5t32 -121.5t62.5 -95.5t101.5 -59t147.5 -21.5
q69 0 128 24t95 58q109 101 109 338v889zM475 1604l397 165l35 -92v-8l-407 -137z" />
    <glyph glyph-name="uni1EE9" unicode="&#x1ee9;" horiz-adv-x="1042" 
d="M907 1143l84 8q43 -71 43 -135q0 -141 -174 -152v-510q0 -115 17 -348l-84 -12l-25 147q-170 -170 -338 -170q-262 0 -262 330v639l100 4v-608q0 -142 44 -208.5t141 -66.5q139 0 307 168v713h63q70 0 96.5 21t26.5 63q0 54 -39 117zM393 1141l291 307l68 -66v-10
l-308 -282z" />
    <glyph glyph-name="uni1EEA" unicode="&#x1eea;" horiz-adv-x="1265" 
d="M979 1372h57q70 0 97.5 23t27.5 67q0 54 -39 121l90 8q45 -74 45 -139q0 -152 -176 -166v-762q0 -99 -13.5 -179.5t-46 -151.5t-83.5 -119t-129.5 -75.5t-179.5 -27.5q-436 0 -436 500v901h102v-864q0 -84 8.5 -147.5t32 -121.5t62.5 -95.5t101.5 -59t147.5 -21.5
q69 0 128 24t95 58q109 101 109 338v889zM369 1679l34 90l400 -165l-25 -72l-409 139v8z" />
    <glyph glyph-name="uni1EEB" unicode="&#x1eeb;" horiz-adv-x="1042" 
d="M907 1143l84 8q43 -71 43 -135q0 -141 -174 -152v-510q0 -115 17 -348l-84 -12l-25 147q-170 -170 -338 -170q-262 0 -262 330v639l100 4v-608q0 -142 44 -208.5t141 -66.5q139 0 307 168v713h63q70 0 96.5 21t26.5 63q0 54 -39 117zM297 1382l68 66l292 -307l-51 -51
l-309 282v10z" />
    <glyph glyph-name="uni1EEC" unicode="&#x1eec;" horiz-adv-x="1265" 
d="M979 1372h57q70 0 97.5 23t27.5 67q0 54 -39 121l90 8q45 -74 45 -139q0 -152 -176 -166v-762q0 -99 -13.5 -179.5t-46 -151.5t-83.5 -119t-129.5 -75.5t-179.5 -27.5q-436 0 -436 500v901h102v-864q0 -84 8.5 -147.5t32 -121.5t62.5 -95.5t101.5 -59t147.5 -21.5
q69 0 128 24t95 58q109 101 109 338v889zM530 1767l-14 70q43 16 100 16q75 0 119.5 -35t44.5 -104q0 -165 -223 -186l-10 67q145 21 145 113q0 72 -86 72q-35 0 -76 -13z" />
    <glyph glyph-name="uni1EED" unicode="&#x1eed;" horiz-adv-x="1042" 
d="M907 1143l84 8q43 -71 43 -135q0 -141 -174 -152v-510q0 -115 17 -348l-84 -12l-25 147q-170 -170 -338 -170q-262 0 -262 330v639l100 4v-608q0 -142 44 -208.5t141 -66.5q139 0 307 168v713h63q70 0 96.5 21t26.5 63q0 54 -39 117zM403 1341l-14 70q51 19 96 19
q78 0 126 -39.5t48 -112.5q0 -90 -63 -138.5t-166 -58.5l-10 68q71 12 111 40t40 83q0 41 -25 61.5t-67 20.5q-32 0 -76 -13z" />
    <glyph glyph-name="uni1EEE" unicode="&#x1eee;" horiz-adv-x="1265" 
d="M979 1372h57q70 0 97.5 23t27.5 67q0 54 -39 121l90 8q45 -74 45 -139q0 -152 -176 -166v-762q0 -99 -13.5 -179.5t-46 -151.5t-83.5 -119t-129.5 -75.5t-179.5 -27.5q-436 0 -436 500v901h102v-864q0 -84 8.5 -147.5t32 -121.5t62.5 -95.5t101.5 -59t147.5 -21.5
q69 0 128 24t95 58q109 101 109 338v889zM772 1602q33 0 69 40t66 105l68 -35q-88 -194 -205 -194q-32 0 -60 15t-48.5 36t-39.5 42.5t-39.5 36.5t-41.5 15q-60 0 -140 -143l-65 36q92 193 209 193q32 0 59.5 -15t47.5 -36.5t38 -43.5t39 -37t43 -15z" />
    <glyph glyph-name="uni1EEF" unicode="&#x1eef;" horiz-adv-x="1042" 
d="M907 1143l84 8q43 -71 43 -135q0 -141 -174 -152v-510q0 -115 17 -348l-84 -12l-25 147q-170 -170 -338 -170q-262 0 -262 330v639l100 4v-608q0 -142 44 -208.5t141 -66.5q139 0 307 168v713h63q70 0 96.5 21t26.5 63q0 54 -39 117zM657 1196q66 0 134 143l65 -32
q-38 -92 -90 -144.5t-111 -52.5q-32 0 -60 15t-48.5 36t-39 42.5t-39.5 36.5t-42 15q-34 0 -65 -36t-70 -107l-64 35q38 90 90 142t113 52q31 0 58.5 -15t47.5 -36.5t38.5 -42.5t39.5 -36t43 -15z" />
    <glyph glyph-name="uni1EF0" unicode="&#x1ef0;" horiz-adv-x="1265" 
d="M979 1372h57q70 0 97.5 23t27.5 67q0 54 -39 121l90 8q45 -74 45 -139q0 -152 -176 -166v-762q0 -99 -13.5 -179.5t-46 -151.5t-83.5 -119t-129.5 -75.5t-179.5 -27.5q-436 0 -436 500v901h102v-864q0 -84 8.5 -147.5t32 -121.5t62.5 -95.5t101.5 -59t147.5 -21.5
q69 0 128 24t95 58q109 101 109 338v889zM557 -297q0 38 23.5 62t60.5 24q34 0 55 -21t21 -55q0 -37 -22.5 -60.5t-59.5 -23.5q-35 0 -56.5 20.5t-21.5 53.5z" />
    <glyph glyph-name="uni1EF1" unicode="&#x1ef1;" horiz-adv-x="1042" 
d="M907 1143l84 8q43 -71 43 -135q0 -141 -174 -152v-510q0 -115 17 -348l-84 -12l-25 147q-170 -170 -338 -170q-262 0 -262 330v639l100 4v-608q0 -142 44 -208.5t141 -66.5q139 0 307 168v713h63q70 0 96.5 21t26.5 63q0 54 -39 117zM444 -297q0 38 23.5 62t60.5 24
q34 0 55 -21t21 -55q0 -37 -22.5 -60.5t-59.5 -23.5q-35 0 -56.5 20.5t-21.5 53.5z" />
    <glyph glyph-name="Ygrave" unicode="&#x1ef2;" horiz-adv-x="1056" 
d="M905 1372h109q-13 -29 -80 -147l-356 -641v-584h-103v582l-346 643q-36 60 -80 147h115l268 -495l96 -177h2zM264 1679l35 90l399 -165l-24 -72l-410 139v8z" />
    <glyph glyph-name="ygrave" unicode="&#x1ef3;" horiz-adv-x="940" 
d="M776 942h92q0 -24 -16 -74l-373 -985q-85 -205 -175.5 -296t-194.5 -91q-43 0 -64 6v80q123 1 208 98t175 320h-10l-324 868q-16 40 -16 74h98l242 -663q14 -38 49 -154h6zM264 1382l68 66l293 -307l-52 -51l-309 282v10z" />
    <glyph glyph-name="uni1EF6" unicode="&#x1ef6;" horiz-adv-x="1056" 
d="M905 1372h109q-13 -29 -80 -147l-356 -641v-584h-103v582l-346 643q-36 60 -80 147h115l268 -495l96 -177h2zM426 1767l-14 70q43 16 100 16q75 0 119.5 -35t44.5 -104q0 -165 -223 -186l-11 67q146 21 146 113q0 72 -86 72q-35 0 -76 -13z" />
    <glyph glyph-name="uni1EF7" unicode="&#x1ef7;" horiz-adv-x="940" 
d="M776 942h92q0 -24 -16 -74l-373 -985q-85 -205 -175.5 -296t-194.5 -91q-43 0 -64 6v80q123 1 208 98t175 320h-10l-324 868q-16 40 -16 74h98l242 -663q14 -38 49 -154h6zM371 1341l-15 70q51 19 97 19q78 0 126 -39.5t48 -112.5q0 -90 -63.5 -138.5t-166.5 -58.5
l-10 68q72 12 112 40t40 83q0 41 -25.5 61.5t-67.5 20.5q-31 0 -75 -13z" />
    <glyph glyph-name="uni1EF8" unicode="&#x1ef8;" horiz-adv-x="1056" 
d="M905 1372h109q-13 -29 -80 -147l-356 -641v-584h-103v582l-346 643q-36 60 -80 147h115l268 -495l96 -177h2zM649 1602q33 0 69 40t66 105l68 -35q-88 -194 -205 -194q-32 0 -60 15t-48.5 36t-39.5 42.5t-39.5 36.5t-41.5 15q-59 0 -139 -143l-66 36q92 193 209 193
q32 0 59.5 -15t47.5 -36.5t38 -43.5t39 -37t43 -15z" />
    <glyph glyph-name="uni1EF9" unicode="&#x1ef9;" horiz-adv-x="940" 
d="M776 942h92q0 -24 -16 -74l-373 -985q-85 -205 -175.5 -296t-194.5 -91q-43 0 -64 6v80q123 1 208 98t175 320h-10l-324 868q-16 40 -16 74h98l242 -663q14 -38 49 -154h6zM592 1196q65 0 133 143l66 -32q-38 -92 -90 -144.5t-111 -52.5q-32 0 -60 15t-48.5 36
t-39.5 42.5t-40 36.5t-42 15q-34 0 -65 -36t-70 -107l-63 35q38 90 90 142t113 52q31 0 58.5 -15t47.5 -36.5t38.5 -42.5t39.5 -36t43 -15z" />
    <glyph glyph-name="enspace" unicode="&#x2002;" horiz-adv-x="1003" 
 />
    <glyph glyph-name="uni2003" unicode="&#x2003;" horiz-adv-x="1886" 
 />
    <glyph glyph-name="uni2009" unicode="&#x2009;" horiz-adv-x="163" 
 />
    <glyph glyph-name="uni2010" unicode="&#x2010;" horiz-adv-x="731" 
d="M158 528h413v-86h-413v86z" />
    <glyph glyph-name="uni2011" unicode="&#x2011;" horiz-adv-x="731" 
d="M158 528h413v-86h-413v86z" />
    <glyph glyph-name="endash" unicode="&#x2013;" horiz-adv-x="1114" 
d="M158 528h798v-86h-798v86z" />
    <glyph glyph-name="emdash" unicode="&#x2014;" horiz-adv-x="1972" 
d="M158 528h1654v-86h-1654v86z" />
    <glyph glyph-name="quoteleft" unicode="&#x2018;" horiz-adv-x="468" 
d="M137 1167q0 115 51.5 221.5t147.5 176.5l43 -45q-146 -138 -146 -346q0 -41 13 -130l-92 -10q-17 73 -17 133z" />
    <glyph glyph-name="quoteright" unicode="&#x2019;" horiz-adv-x="475" 
d="M244 1540l92 10q16 -69 16 -133q0 -116 -50.5 -221.5t-147.5 -175.5l-43 43q145 139 145 348q0 47 -12 129z" />
    <glyph glyph-name="quotesinglbase" unicode="&#x201a;" horiz-adv-x="450" 
d="M172 254l92 10q17 -73 17 -133q0 -116 -51 -221.5t-148 -175.5l-43 43q145 139 145 348q0 47 -12 129z" />
    <glyph glyph-name="quotedblleft" unicode="&#x201c;" horiz-adv-x="690" 
d="M358 1167q0 116 51 222t148 176l43 -45q-145 -137 -145 -346q0 -48 12 -130l-92 -10q-17 73 -17 133zM137 1167q0 115 51.5 221.5t147.5 176.5l43 -45q-146 -138 -146 -346q0 -41 13 -130l-92 -10q-17 73 -17 133z" />
    <glyph glyph-name="quotedblright" unicode="&#x201d;" horiz-adv-x="696" 
d="M465 1540l92 10q16 -69 16 -133q0 -116 -51 -221.5t-147 -175.5l-45 43q145 139 145 348q0 61 -10 129zM244 1540l92 10q16 -69 16 -133q0 -116 -50.5 -221.5t-147.5 -175.5l-43 43q145 139 145 348q0 47 -12 129z" />
    <glyph glyph-name="quotedblbase" unicode="&#x201e;" horiz-adv-x="671" 
d="M393 254l92 10q17 -73 17 -133q0 -115 -51.5 -221t-147.5 -176l-45 43q145 139 145 348q0 61 -10 129zM172 254l92 10q17 -73 17 -133q0 -116 -51 -221.5t-148 -175.5l-43 43q145 139 145 348q0 47 -12 129z" />
    <glyph glyph-name="dagger" unicode="&#x2020;" horiz-adv-x="884" 
d="M391 1239h105l-2 -297h272v-84h-272l-7 -1276h-88l-6 1276h-274v84h274z" />
    <glyph glyph-name="daggerdbl" unicode="&#x2021;" horiz-adv-x="884" 
d="M391 1239h105l-2 -297h272v-84h-272l-2 -426h274v-84h-274l-5 -766h-88l-4 766h-276v84h276l-2 426h-274v84h274z" />
    <glyph glyph-name="bullet" unicode="&#x2022;" horiz-adv-x="782" 
d="M618 512q0 -112 -61 -171.5t-166 -59.5q-104 0 -165.5 60t-61.5 171t61.5 171t165.5 60q105 0 166 -59.5t61 -171.5z" />
    <glyph glyph-name="ellipsis" unicode="&#x2026;" horiz-adv-x="1497" 
d="M1163 63q0 44 27 71.5t70 27.5q38 0 62 -23t24 -61q0 -46 -26 -73.5t-69 -27.5q-40 0 -64 24t-24 62zM150 63q0 44 26.5 71.5t69.5 27.5q38 0 62 -23t24 -61q0 -46 -25.5 -73.5t-68.5 -27.5q-40 0 -64 24t-24 62zM657 63q0 44 27 71.5t70 27.5q38 0 62 -23t24 -61
q0 -46 -26 -73.5t-69 -27.5q-40 0 -64 24t-24 62z" />
    <glyph glyph-name="perthousand" unicode="&#x2030;" horiz-adv-x="1998" 
d="M221 16l903 1389l70 -49l-903 -1389zM104 1006q0 104 28 192t88 145.5t142 57.5q78 0 134 -52t82 -133t26 -180q0 -105 -28 -193t-88.5 -146t-143.5 -58q-115 0 -177.5 106t-62.5 261zM508 1032q0 125 -39 207t-111 82q-37 0 -77 -31q-80 -74 -80 -278q0 -126 38 -209.5
t109 -83.5q47 0 82 35q38 39 58 115.5t20 162.5zM813 336q0 78 16.5 148t47.5 125.5t81.5 88.5t112.5 33q115 0 177.5 -104.5t62.5 -257.5q0 -105 -27.5 -193.5t-87.5 -146.5t-143 -58q-115 0 -177.5 106t-62.5 259zM1217 365q0 125 -39 206.5t-111 81.5q-40 0 -78 -30
q-80 -74 -80 -281q0 -125 38.5 -208t109.5 -83q47 0 82 35q38 39 58 115.5t20 163.5zM1411 336q0 105 27.5 192.5t87.5 145t143 57.5q114 0 177 -105t63 -257q0 -105 -27.5 -193.5t-88 -146.5t-144.5 -58q-77 0 -132 52.5t-80.5 133.5t-25.5 179zM1812 365q0 125 -38 206.5
t-109 81.5q-45 0 -78 -30q-41 -38 -61.5 -114t-20.5 -167q0 -124 39 -207.5t109 -83.5q47 0 82 35q38 39 57.5 115.5t19.5 163.5z" />
    <glyph glyph-name="uni2032" unicode="&#x2032;" horiz-adv-x="419" 
d="M188 1456h107l-74 -446h-69z" />
    <glyph glyph-name="uni2033" unicode="&#x2033;" horiz-adv-x="622" 
d="M389 1456h107l-74 -446h-68zM188 1456h107l-74 -446h-69z" />
    <glyph glyph-name="guilsinglleft" unicode="&#x2039;" horiz-adv-x="626" 
d="M100 500l342 405l62 -47l-291 -373l293 -379l-64 -49l-338 410z" />
    <glyph glyph-name="guilsinglright" unicode="&#x203a;" horiz-adv-x="626" 
d="M123 858l63 47l340 -405l-4 -33l-336 -410l-65 49l293 379z" />
    <glyph glyph-name="fraction" unicode="&#x2044;" horiz-adv-x="153" 
d="M-410 16l902 1389l69 -49l-903 -1389z" />
    <glyph glyph-name="zerosuperior" unicode="&#x2070;" horiz-adv-x="686" 
d="M92 1196q0 104 28.5 192t89 145.5t142.5 57.5q78 0 134.5 -51.5t83 -132t26.5 -178.5q0 -105 -28.5 -193.5t-89.5 -146.5t-144 -58q-78 0 -134 52t-82 133t-26 180zM500 1225q0 124 -40 205t-112 81q-45 0 -76 -28q-42 -38 -63 -113.5t-21 -167.5q0 -125 39 -208t111 -83
q44 0 82 33q38 40 59 117t21 164z" />
    <glyph glyph-name="i.sups" unicode="&#x2071;" horiz-adv-x="331" 
d="M121 1430l90 2v-584h-90v582zM102 1604q0 29 19 47t49 18q28 0 45.5 -16.5t17.5 -42.5q0 -28 -19 -46t-48 -18q-28 0 -46 16.5t-18 41.5z" />
    <glyph glyph-name="foursuperior" unicode="&#x2074;" horiz-adv-x="651" 
d="M59 1100l320 481l96 -4v-481h105l4 -74h-109v-174h-90v174h-315zM336 1378l-186 -282h235v362h-2z" />
    <glyph glyph-name="fivesuperior" unicode="&#x2075;" horiz-adv-x="585" 
d="M109 1577h360l-4 -80h-272v-211q48 10 88 10q101 0 162 -56t61 -157q0 -112 -69.5 -182t-186.5 -70q-81 0 -160 33l25 70q76 -23 131 -23q65 0 104 31q62 43 62 137q0 70 -39.5 109t-112.5 39q-48 0 -121 -21l-28 8v363z" />
    <glyph glyph-name="sixsuperior" unicode="&#x2076;" horiz-adv-x="628" 
d="M92 1157q0 115 35.5 211t111 158.5t177.5 62.5q56 0 88 -14l-19 -72q-18 6 -57 6q-105 0 -167 -77t-75 -199q73 51 158 51q95 0 151 -58.5t56 -152.5q0 -100 -63.5 -171t-168.5 -71q-60 0 -105.5 27.5t-71 75t-38 103.5t-12.5 120zM324 909q50 0 88 33q49 46 49 127
q0 67 -33.5 105t-95.5 38q-78 0 -150 -53q2 -112 35.5 -181t106.5 -69z" />
    <glyph glyph-name="sevensuperior" unicode="&#x2077;" horiz-adv-x="552" 
d="M59 1577h428l11 -78l-291 -672l-84 39l280 631h-340z" />
    <glyph glyph-name="eightsuperior" unicode="&#x2078;" horiz-adv-x="653" 
d="M121 1411q0 81 60 130.5t153 49.5q85 0 141.5 -47.5t56.5 -124.5q0 -103 -106 -192q65 -37 102 -82.5t37 -108.5q0 -97 -69 -151t-170 -54q-105 0 -171.5 50t-66.5 141q0 118 148 215q-115 68 -115 174zM209 1411q0 -49 37.5 -81.5t120.5 -72.5q79 75 79 154
q0 48 -31 76.5t-83 28.5q-48 0 -78 -21q-45 -27 -45 -84zM328 907q52 0 94 25q53 37 53 102q0 30 -11 52.5t-40.5 44.5t-52 34.5t-74.5 38.5q-121 -81 -121 -174q0 -60 42.5 -91.5t109.5 -31.5z" />
    <glyph glyph-name="ninesuperior" unicode="&#x2079;" horiz-adv-x="628" 
d="M297 1206q79 0 149 54q0 111 -35 181t-108 70q-55 0 -90 -38q-45 -42 -45 -121q0 -67 33.5 -106.5t95.5 -39.5zM78 1348q0 99 62.5 170t166.5 71q61 0 107 -27.5t72 -74.5t38.5 -102.5t12.5 -118.5q0 -116 -36.5 -213.5t-112 -159.5t-177.5 -62q-52 0 -86 15l18 72
q32 -9 58 -9q107 0 167.5 77.5t73.5 201.5q-73 -51 -157 -51q-96 0 -151.5 58.5t-55.5 152.5z" />
    <glyph glyph-name="n.sups" unicode="&#x207f;" horiz-adv-x="712" 
d="M111 1427l73 11l21 -84q104 94 217 94q95 0 134.5 -51.5t39.5 -153.5v-395h-90v371q0 82 -22.5 118.5t-82.5 36.5q-84 0 -188 -82v-444h-90v356q0 80 -12 223z" />
    <glyph glyph-name="zeroinferior" unicode="&#x2080;" horiz-adv-x="686" 
d="M92 246q0 104 28.5 192t89 145.5t142.5 57.5q78 0 134.5 -51.5t83 -132t26.5 -178.5q0 -105 -28.5 -193.5t-89.5 -146.5t-144 -58q-78 0 -134 52t-82 133t-26 180zM500 274q0 124 -40 205.5t-112 81.5q-44 0 -76 -29q-42 -38 -63 -113t-21 -167q0 -125 39 -208t111 -83
q44 0 82 33q38 40 59 116.5t21 163.5z" />
    <glyph glyph-name="oneinferior" unicode="&#x2081;" horiz-adv-x="516" 
d="M80 557l184 74l74 -2v-658h119l2 -73h-373v73h160v568l-142 -47z" />
    <glyph glyph-name="twoinferior" unicode="&#x2082;" horiz-adv-x="591" 
d="M86 571q89 68 201 68q103 0 156 -57t53 -148q0 -52 -19 -103.5t-59.5 -105.5t-76 -93t-95.5 -99l-62 -60h318l2 -75h-422l-8 77l98 97q62 63 94 99t68.5 84t51.5 88.5t15 82.5q0 61 -31.5 97t-95.5 36q-82 0 -153 -47z" />
    <glyph glyph-name="threeinferior" unicode="&#x2083;" horiz-adv-x="589" 
d="M84 573q80 66 195 66q89 0 141.5 -47t52.5 -129q0 -56 -29 -104t-79 -76q62 -17 97.5 -64.5t35.5 -114.5q0 -102 -64 -162.5t-172 -60.5t-186 47l30 68q76 -37 152 -37q61 0 94 29q51 36 51 114q0 63 -43.5 98.5t-121.5 35.5h-48l-2 71h41q67 0 108.5 42t41.5 102
q0 52 -30 81t-85 29q-77 0 -149 -45z" />
    <glyph glyph-name="fourinferior" unicode="&#x2084;" horiz-adv-x="651" 
d="M59 150l320 481l96 -4v-482h105l4 -73h-109v-174h-90v174h-315zM336 428l-186 -283h235v363h-2z" />
    <glyph glyph-name="fiveinferior" unicode="&#x2085;" horiz-adv-x="585" 
d="M109 627h360l-4 -80h-272v-211q48 10 88 10q101 0 162 -56t61 -157q0 -112 -69.5 -182t-186.5 -70q-81 0 -160 33l25 70q76 -23 131 -23q65 0 104 31q62 43 62 137q0 70 -39.5 108.5t-112.5 38.5q-51 0 -121 -20l-28 8v363z" />
    <glyph glyph-name="sixinferior" unicode="&#x2086;" horiz-adv-x="628" 
d="M92 207q0 115 35.5 211t111 158.5t177.5 62.5q56 0 88 -14l-19 -72q-18 6 -57 6q-105 0 -167 -77t-75 -199q73 51 158 51q95 0 151 -58.5t56 -152.5q0 -100 -63.5 -171t-168.5 -71q-60 0 -105.5 27.5t-71 75t-38 103.5t-12.5 120zM324 -41q50 0 88 33q49 46 49 127
q0 67 -33.5 105t-95.5 38q-78 0 -150 -53q2 -112 35.5 -181t106.5 -69z" />
    <glyph glyph-name="seveninferior" unicode="&#x2087;" horiz-adv-x="552" 
d="M59 627h428l11 -78l-291 -672l-84 39l280 631h-340z" />
    <glyph glyph-name="eightinferior" unicode="&#x2088;" horiz-adv-x="653" 
d="M121 461q0 81 60 130.5t153 49.5q85 0 141.5 -47.5t56.5 -124.5q0 -104 -106 -193q65 -38 102 -82.5t37 -107.5q0 -97 -69 -151t-170 -54q-105 0 -171.5 50t-66.5 141q0 118 148 215q-115 68 -115 174zM209 461q0 -49 37.5 -81.5t120.5 -72.5q79 75 79 154q0 47 -31 75.5
t-83 28.5q-49 0 -78 -20q-45 -27 -45 -84zM328 -43q52 0 94 25q53 37 53 102q0 30 -11 52.5t-40.5 44.5t-52 34.5t-74.5 38.5q-121 -81 -121 -174q0 -60 42.5 -91.5t109.5 -31.5z" />
    <glyph glyph-name="nineinferior" unicode="&#x2089;" horiz-adv-x="628" 
d="M297 256q80 0 149 53q0 111 -35 181.5t-108 70.5q-54 0 -90 -39q-45 -42 -45 -121q0 -67 33.5 -106t95.5 -39zM78 397q0 99 62.5 170.5t166.5 71.5q81 0 134.5 -49t74.5 -119t21 -156q0 -116 -36.5 -213t-112 -159t-177.5 -62q-52 0 -86 15l18 71q28 -8 58 -8
q107 0 167.5 77.5t73.5 201.5q-74 -52 -157 -52q-96 0 -151.5 58.5t-55.5 152.5z" />
    <glyph glyph-name="a.sinf" unicode="&#x2090;" horiz-adv-x="645" 
d="M98 401q118 93 246 93q97 0 139.5 -54.5t42.5 -169.5v-147q0 -81 11 -219l-72 -13l-23 89q-104 -97 -213 -97q-70 0 -112.5 39.5t-42.5 108.5q0 79 73 133q78 53 289 69v11q0 98 -23.5 136t-82.5 38q-86 0 -195 -70zM250 -47q89 0 186 88v131q-183 -16 -231 -51
q-43 -30 -43 -80q0 -42 24 -65t64 -23z" />
    <glyph glyph-name="e.sinf" unicode="&#x2091;" horiz-adv-x="653" 
d="M84 182q0 136 73 226t195 90q104 0 160.5 -67t56.5 -169q0 -51 -8 -90h-385q4 -106 54 -159.5t132 -53.5q93 0 173 31l20 -62q-101 -43 -205 -43q-117 0 -191.5 77t-74.5 220zM350 426q-73 0 -118 -51t-54 -142h303q2 12 2 41q0 66 -35 109t-98 43z" />
    <glyph glyph-name="o.sinf" unicode="&#x2092;" horiz-adv-x="702" 
d="M84 184q0 57 16.5 111.5t48.5 100.5t85.5 74t121.5 28q120 0 191 -86.5t71 -218.5q0 -58 -16.5 -112.5t-48.5 -99.5t-85 -72.5t-120 -27.5q-123 0 -193.5 85t-70.5 218zM524 184q0 107 -45 173.5t-129 66.5q-50 0 -94 -29q-78 -60 -78 -205q0 -107 44.5 -172t129.5 -65
q60 0 101 35q71 62 71 196z" />
    <glyph glyph-name="x.sinf" unicode="&#x2093;" horiz-adv-x="622" 
d="M76 479h92l145 -225h4l144 225h86q-2 -19 -25 -53l-151 -219l174 -256q22 -33 24 -53h-90l-172 256h-2l-166 -256h-86q1 10 25 53l172 256l-150 219q-23 41 -24 53z" />
    <glyph glyph-name="uni20AB" unicode="&#x20ab;" horiz-adv-x="1005" 
d="M436 264q71 0 138 44t151 126v418q-120 68 -246 68q-115 0 -184 -60q-105 -86 -105 -272q0 -141 65 -232.5t181 -91.5zM90 571q0 190 103.5 311.5t289.5 121.5q118 0 242 -72v231h-365v76h365v154h96v-154h166v-76h-166v-639q0 -72 19 -311l-84 -12l-23 147
q-75 -79 -150 -124.5t-161 -45.5q-145 0 -237.5 111t-94.5 282zM111 76h755v-76h-755v76z" />
    <glyph glyph-name="Euro" unicode="&#x20ac;" horiz-adv-x="1310" 
d="M229 664q0 64 9 129h-127l-2 84h143q23 110 69 202t115 163.5t168.5 112t218.5 40.5q206 0 357 -109l-43 -80q-81 48 -155 70t-163 22q-148 0 -258 -77q-154 -112 -203 -344h590l2 -84h-606q-6 -59 -6 -119q0 -30 4 -88h608l-2 -84h-596q17 -93 52 -169t90.5 -135.5
t139 -92.5t187.5 -33q96 0 174.5 21.5t167.5 64.5l35 -80q-96 -50 -186.5 -75.5t-200.5 -25.5q-125 0 -226 40t-170 111.5t-112 165.5t-61 208h-133l2 84h120q-2 25 -2 78z" />
    <glyph glyph-name="uni20B9" unicode="&#x20b9;" horiz-adv-x="1171" 
d="M166 545l24 90h60q138 0 241.5 28t171 93t80.5 164h-593v86h593q-15 136 -132.5 209t-319.5 73h-141v84h892v-84h-393q188 -89 203 -282h190v-86h-190q-14 -117 -88.5 -200.5t-191 -126t-269.5 -48.5l438 -404q109 -101 127 -141h-120z" />
    <glyph glyph-name="uni20BA" unicode="&#x20ba;" horiz-adv-x="1052" 
d="M240 1372h104v-375l440 142l29 -80l-469 -150v-211l440 142l29 -80l-469 -150v-518q511 3 574 488l100 -15q-71 -565 -674 -565h-104v578l-146 -48l-26 80l172 56v211l-146 -48l-26 80l172 56v407z" />
    <glyph glyph-name="uni20BD" unicode="&#x20bd;" horiz-adv-x="1110" 
d="M211 1372h295q254 3 381 -89t127 -288q0 -204 -144.5 -309.5t-420.5 -105.5h-134v-185h482v-86h-482v-309h-104v309h-145v86h145v185h-145v86h145v706zM508 1282h-193v-616h123q225 0 346 79.5t121 241.5q0 161 -98.5 228t-298.5 67z" />
    <glyph glyph-name="uni2113" unicode="&#x2113;" horiz-adv-x="720" 
d="M395 -23q-99 0 -157 62.5t-58 196.5v194h-94v84h94v530q0 351 240 351q120 0 179.5 -96t59.5 -261q0 -133 -20.5 -235.5t-64.5 -181.5t-118 -125.5t-177 -59.5v-172q0 -108 32.5 -152t100.5 -44q56 0 127 30l28 -78q-92 -43 -172 -43zM420 1303q-75 0 -108 -64.5
t-33 -189.5v-527q153 27 216.5 153.5t63.5 362.5q0 265 -139 265z" />
    <glyph glyph-name="trademark" unicode="&#x2122;" horiz-adv-x="1595" 
d="M1249 1372h101l96 -686h-80l-63 447l-13 129h-2l-196 -576h-84l-152 447l-35 129h-4l-76 -576h-79l96 686h100l158 -465l33 -114h4zM94 1372h568v-67h-242v-619h-86v619h-238z" />
    <glyph glyph-name="estimated" unicode="&#x212e;" horiz-adv-x="1656" 
d="M1395 162l26 -60q-114 -67 -245.5 -100t-323.5 -33q-165 0 -301 55t-225.5 150.5t-138 223t-48.5 272.5q0 104 24.5 205.5t80 197.5t135.5 169t200.5 117t266.5 44q165 0 294.5 -55t211 -151t124 -222t42.5 -273v-51h-1135v-424q170 -188 467 -188q314 0 545 123z
M850 1333q-297 0 -467 -184v-430h913v426q-154 188 -446 188z" />
    <glyph glyph-name="uni2150" unicode="&#x2150;" horiz-adv-x="1634" 
d="M160 1262l223 73l74 -2v-657h147l2 -74h-440v74h199v569l-183 -51zM330 16l901 1389l69 -49l-903 -1389zM1038 758h447l12 -78l-313 -672l-84 39l301 631h-359z" />
    <glyph glyph-name="uni2151" unicode="&#x2151;" horiz-adv-x="1634" 
d="M160 1262l223 73l74 -2v-657h147l2 -74h-440v74h199v569l-183 -51zM330 16l901 1389l69 -49l-903 -1389zM1245 387q81 0 150 53q0 72 -13.5 126t-46.5 90t-84 36q-54 0 -90 -39q-45 -42 -45 -121q0 -67 33.5 -106t95.5 -39zM1026 528q0 99 62.5 170.5t166.5 71.5
q81 0 134.5 -49t74.5 -119t21 -156q0 -116 -36 -213t-112 -159t-178 -62q-52 0 -86 15l19 71q28 -8 57 -8q107 0 168 77.5t74 201.5q-74 -52 -158 -52q-96 0 -151.5 58.5t-55.5 152.5z" />
    <glyph glyph-name="uni2153" unicode="&#x2153;" horiz-adv-x="1634" 
d="M160 1262l223 73l74 -2v-657h147l2 -74h-440v74h199v569l-183 -51zM330 16l901 1389l69 -49l-903 -1389zM1051 705q79 65 194 65q91 0 143 -47t52 -129q0 -57 -28.5 -104.5t-78.5 -75.5q61 -18 97 -65t36 -113q0 -102 -64.5 -163t-172.5 -61q-105 0 -187 47l31 68
q80 -37 154 -37q58 0 94 29q51 36 51 114q0 63 -44.5 98.5t-123.5 35.5h-45l-2 71h41q67 0 108.5 42t41.5 102q0 52 -30 81t-85 29q-78 0 -150 -45z" />
    <glyph glyph-name="uni2154" unicode="&#x2154;" horiz-adv-x="1634" 
d="M160 1276q88 67 200 67q103 0 156 -56.5t53 -147.5q0 -52 -19 -103.5t-59.5 -105.5t-76 -93.5t-95.5 -99.5l-61 -59h315l5 -76h-422l-9 78l99 96q62 63 94 99t68.5 84t51.5 88.5t15 82.5q0 61 -31.5 97.5t-95.5 36.5q-82 0 -153 -47zM330 16l901 1389l69 -49l-903 -1389z
M1051 705q79 65 194 65q91 0 143 -47t52 -129q0 -57 -28.5 -104.5t-78.5 -75.5q61 -18 97 -65t36 -113q0 -102 -64.5 -163t-172.5 -61q-105 0 -187 47l31 68q80 -37 154 -37q58 0 94 29q51 36 51 114q0 63 -44.5 98.5t-123.5 35.5h-45l-2 71h41q67 0 108.5 42t41.5 102
q0 52 -30 81t-85 29q-78 0 -150 -45z" />
    <glyph glyph-name="uni2155" unicode="&#x2155;" horiz-adv-x="1634" 
d="M160 1262l223 73l74 -2v-657h147l2 -74h-440v74h199v569l-183 -51zM330 16l901 1389l69 -49l-903 -1389zM1081 758h361l-4 -80h-273v-211q48 10 88 10q100 0 161 -56t61 -157q0 -112 -69 -182t-185 -70q-81 0 -160 33l24 70q76 -23 129 -23q68 0 107 31q61 45 61 137
q0 70 -39.5 109t-113.5 39q-45 0 -119 -21l-29 8v363z" />
    <glyph glyph-name="uni2156" unicode="&#x2156;" horiz-adv-x="1634" 
d="M160 1276q88 67 200 67q103 0 156 -56.5t53 -147.5q0 -52 -19 -103.5t-59.5 -105.5t-76 -93.5t-95.5 -99.5l-61 -59h315l5 -76h-422l-9 78l99 96q62 63 94 99t68.5 84t51.5 88.5t15 82.5q0 61 -31.5 97.5t-95.5 36.5q-82 0 -153 -47zM330 16l901 1389l69 -49l-903 -1389z
M1081 758h361l-4 -80h-273v-211q48 10 88 10q100 0 161 -56t61 -157q0 -112 -69 -182t-185 -70q-81 0 -160 33l24 70q76 -23 129 -23q68 0 107 31q61 45 61 137q0 70 -39.5 109t-113.5 39q-45 0 -119 -21l-29 8v363z" />
    <glyph glyph-name="uni2157" unicode="&#x2157;" horiz-adv-x="1634" 
d="M158 1278q79 65 194 65q91 0 143 -47t52 -129q0 -57 -28.5 -104.5t-78.5 -75.5q61 -18 97 -65t36 -113q0 -102 -64.5 -162.5t-172.5 -60.5q-104 0 -186 47l30 67q78 -36 154 -36q59 0 94 28q51 36 51 115q0 63 -44 98t-124 35h-45l-2 72h41q67 0 108.5 41.5t41.5 101.5
q0 52 -30 81.5t-85 29.5q-78 0 -150 -45zM330 16l901 1389l69 -49l-903 -1389zM1081 758h361l-4 -80h-273v-211q48 10 88 10q100 0 161 -56t61 -157q0 -112 -69 -182t-185 -70q-81 0 -160 33l24 70q76 -23 129 -23q68 0 107 31q61 45 61 137q0 70 -39.5 109t-113.5 39
q-45 0 -119 -21l-29 8v363z" />
    <glyph glyph-name="uni2158" unicode="&#x2158;" horiz-adv-x="1634" 
d="M102 854l322 481l94 -4v-481h107l4 -74h-111v-174h-88v174h-317zM379 1133l-184 -283h235v362h-2zM330 16l901 1389l69 -49l-903 -1389zM1081 758h361l-4 -80h-273v-211q48 10 88 10q100 0 161 -56t61 -157q0 -112 -69 -182t-185 -70q-81 0 -160 33l24 70q76 -23 129 -23
q68 0 107 31q61 45 61 137q0 70 -39.5 109t-113.5 39q-45 0 -119 -21l-29 8v363z" />
    <glyph glyph-name="uni2159" unicode="&#x2159;" horiz-adv-x="1634" 
d="M160 1262l223 73l74 -2v-657h147l2 -74h-440v74h199v569l-183 -51zM330 16l901 1389l69 -49l-903 -1389zM1040 338q0 115 35.5 211t111 158.5t177.5 62.5q56 0 88 -14l-18 -72q-18 6 -58 6q-105 0 -166.5 -76.5t-74.5 -199.5q73 51 157 51q95 0 151 -58.5t56 -152.5
q0 -100 -63 -171t-168 -71q-80 0 -133 49t-74 119.5t-21 157.5zM1272 90q50 0 88 33q49 46 49 127q0 67 -33.5 105t-95.5 38q-78 0 -150 -53q2 -112 35.5 -181t106.5 -69z" />
    <glyph glyph-name="uni215A" unicode="&#x215a;" horiz-adv-x="1634" 
d="M186 1331h361l-4 -80h-273v-211q53 11 88 11q100 0 161 -56t61 -157q0 -112 -69 -182t-185 -70q-84 0 -160 32l24 70q73 -22 129 -22q69 0 107 30q61 45 61 138q0 70 -39.5 108.5t-113.5 38.5q-49 0 -119 -20l-29 8v362zM330 16l901 1389l69 -49l-903 -1389zM1040 338
q0 115 35.5 211t111 158.5t177.5 62.5q56 0 88 -14l-18 -72q-18 6 -58 6q-105 0 -166.5 -76.5t-74.5 -199.5q73 51 157 51q95 0 151 -58.5t56 -152.5q0 -100 -63 -171t-168 -71q-80 0 -133 49t-74 119.5t-21 157.5zM1272 90q50 0 88 33q49 46 49 127q0 67 -33.5 105
t-95.5 38q-78 0 -150 -53q2 -112 35.5 -181t106.5 -69z" />
    <glyph glyph-name="uni215B" unicode="&#x215b;" horiz-adv-x="1634" 
d="M160 1262l223 73l74 -2v-657h147l2 -74h-440v74h199v569l-183 -51zM330 16l901 1389l69 -49l-903 -1389zM1059 592q0 81 59.5 130.5t151.5 49.5q86 0 143 -47.5t57 -124.5q0 -105 -108 -192q65 -37 102 -82.5t37 -108.5q0 -97 -68.5 -151t-168.5 -54q-105 0 -172 50
t-66 141q0 118 145 215q-112 69 -112 174zM1145 592q0 -48 37.5 -80.5t120.5 -73.5q79 72 79 154q0 47 -31 75.5t-83 28.5q-45 0 -78 -20q-45 -27 -45 -84zM1264 88q51 0 96 25q51 38 51 102q0 24 -9.5 45t-21 34.5t-40 32t-45.5 27.5t-60 31q-121 -81 -121 -174
q0 -60 42.5 -91.5t107.5 -31.5z" />
    <glyph glyph-name="uni215C" unicode="&#x215c;" horiz-adv-x="1634" 
d="M158 1278q79 65 194 65q91 0 143 -47t52 -129q0 -57 -28.5 -104.5t-78.5 -75.5q61 -18 97 -65t36 -113q0 -102 -64.5 -162.5t-172.5 -60.5q-104 0 -186 47l30 67q78 -36 154 -36q59 0 94 28q51 36 51 115q0 63 -44 98t-124 35h-45l-2 72h41q67 0 108.5 41.5t41.5 101.5
q0 52 -30 81.5t-85 29.5q-78 0 -150 -45zM330 16l901 1389l69 -49l-903 -1389zM1059 592q0 81 59.5 130.5t151.5 49.5q86 0 143 -47.5t57 -124.5q0 -105 -108 -192q65 -37 102 -82.5t37 -108.5q0 -97 -68.5 -151t-168.5 -54q-105 0 -172 50t-66 141q0 118 145 215
q-112 69 -112 174zM1145 592q0 -48 37.5 -80.5t120.5 -73.5q79 72 79 154q0 47 -31 75.5t-83 28.5q-45 0 -78 -20q-45 -27 -45 -84zM1264 88q51 0 96 25q51 38 51 102q0 24 -9.5 45t-21 34.5t-40 32t-45.5 27.5t-60 31q-121 -81 -121 -174q0 -60 42.5 -91.5t107.5 -31.5z
" />
    <glyph glyph-name="uni215D" unicode="&#x215d;" horiz-adv-x="1634" 
d="M186 1331h361l-4 -80h-273v-211q53 11 88 11q100 0 161 -56t61 -157q0 -112 -69 -182t-185 -70q-84 0 -160 32l24 70q73 -22 129 -22q69 0 107 30q61 45 61 138q0 70 -39.5 108.5t-113.5 38.5q-49 0 -119 -20l-29 8v362zM330 16l901 1389l69 -49l-903 -1389zM1059 592
q0 81 59.5 130.5t151.5 49.5q86 0 143 -47.5t57 -124.5q0 -105 -108 -192q65 -37 102 -82.5t37 -108.5q0 -97 -68.5 -151t-168.5 -54q-105 0 -172 50t-66 141q0 118 145 215q-112 69 -112 174zM1145 592q0 -48 37.5 -80.5t120.5 -73.5q79 72 79 154q0 47 -31 75.5t-83 28.5
q-45 0 -78 -20q-45 -27 -45 -84zM1264 88q51 0 96 25q51 38 51 102q0 24 -9.5 45t-21 34.5t-40 32t-45.5 27.5t-60 31q-121 -81 -121 -174q0 -60 42.5 -91.5t107.5 -31.5z" />
    <glyph glyph-name="uni215E" unicode="&#x215e;" horiz-adv-x="1634" 
d="M145 1331h447l12 -78l-313 -671l-84 39l301 630h-358zM330 16l901 1389l69 -49l-903 -1389zM1059 592q0 81 59.5 130.5t151.5 49.5q86 0 143 -47.5t57 -124.5q0 -105 -108 -192q65 -37 102 -82.5t37 -108.5q0 -97 -68.5 -151t-168.5 -54q-105 0 -172 50t-66 141
q0 118 145 215q-112 69 -112 174zM1145 592q0 -48 37.5 -80.5t120.5 -73.5q79 72 79 154q0 47 -31 75.5t-83 28.5q-45 0 -78 -20q-45 -27 -45 -84zM1264 88q51 0 96 25q51 38 51 102q0 24 -9.5 45t-21 34.5t-40 32t-45.5 27.5t-60 31q-121 -81 -121 -174q0 -60 42.5 -91.5
t107.5 -31.5z" />
    <glyph glyph-name="uni2190" unicode="&#x2190;" horiz-adv-x="1689" 
d="M51 512l600 471l56 -68l-308 -245l-178 -127h1424v-86h-1424l180 -129l304 -240l-56 -70l-598 471v23z" />
    <glyph glyph-name="uni2191" unicode="&#x2191;" horiz-adv-x="1071" 
d="M524 1499h23l471 -602l-70 -55l-243 307l-125 176v-1479h-91v1479l-127 -176l-239 -305l-70 55z" />
    <glyph glyph-name="uni2192" unicode="&#x2192;" horiz-adv-x="1689" 
d="M983 915l55 68l600 -471v-23l-598 -471l-55 70l303 240l180 129h-1423v86h1423l-178 127z" />
    <glyph glyph-name="uni2193" unicode="&#x2193;" horiz-adv-x="1071" 
d="M489 1499h91v-1481l125 177l243 307l70 -56l-471 -600h-23l-471 598l70 56l239 -303l127 -179v1481z" />
    <glyph glyph-name="uni2194" unicode="&#x2194;" horiz-adv-x="2504" 
d="M1798 915l55 68l601 -471v-23l-599 -471l-55 70l303 240l183 129h-2067l182 -129l304 -240l-58 -70l-596 471v23l598 471l58 -68l-308 -245l-176 -127h2058l-178 127z" />
    <glyph glyph-name="uni2195" unicode="&#x2195;" horiz-adv-x="1071" 
d="M524 1489h23l471 -602l-70 -56l-243 308l-125 178v-1675l125 174l243 307l70 -53l-471 -602h-23l-471 598l70 55l239 -303l127 -180v1679l-127 -178l-239 -305l-70 55z" />
    <glyph glyph-name="uni2196" unicode="&#x2196;" horiz-adv-x="1191" 
d="M127 1260l18 14l719 -193l-22 -84l-367 99l-205 59l867 -1171l-70 -52l-864 1172l6 -215l-10 -389l-88 2z" />
    <glyph glyph-name="uni2197" unicode="&#x2197;" horiz-adv-x="1191" 
d="M328 1081l716 193l21 -14l16 -758l-88 -2l-10 389l6 215l-866 -1172l-70 52l865 1171l-201 -59l-367 -99z" />
    <glyph glyph-name="uni2198" unicode="&#x2198;" horiz-adv-x="1191" 
d="M53 1253l70 54l866 -1174l-6 217l10 389l88 -2l-16 -760l-21 -14l-716 193l22 84l367 -99l201 -59z" />
    <glyph glyph-name="uni2199" unicode="&#x2199;" horiz-adv-x="1191" 
d="M145 -37l-18 14l-16 760l88 2l10 -389l-6 -217l864 1174l70 -54l-867 -1171l205 59l367 99l22 -84z" />
    <glyph glyph-name="uni219E" unicode="&#x219e;" horiz-adv-x="1994" 
d="M559 512l600 469l55 -68l-305 -243l-178 -127h1219v-86h-1221l180 -127l305 -244l-55 -70l-600 471v25zM51 512l580 496l57 -68l-506 -440l506 -441l-57 -67l-580 495v25z" />
    <glyph glyph-name="uni219F" unicode="&#x219f;" horiz-adv-x="1120" 
d="M549 989h22l471 -600l-67 -55l-246 307l-127 180v-1261h-86v1261l-129 -182l-240 -303l-69 55zM549 1499h22l496 -581l-66 -58l-442 506l-438 -504l-68 58z" />
    <glyph glyph-name="uni21A0" unicode="&#x21a0;" horiz-adv-x="1994" 
d="M780 913l56 68l600 -469v-25l-600 -471l-56 70l305 244l181 127h-1221v86h1221l-181 127zM1307 940l57 68l580 -496v-25l-580 -495l-57 67l508 441z" />
    <glyph glyph-name="uni21A1" unicode="&#x21a1;" horiz-adv-x="1120" 
d="M516 1499h86v-1261l127 180l246 307l67 -55l-471 -600h-22l-471 598l69 55l240 -303l129 -182v1261zM53 139l68 58l438 -504l442 506l66 -58l-496 -581h-22z" />
    <glyph glyph-name="uni21B0" unicode="&#x21b0;" horiz-adv-x="1497" 
d="M51 512l600 471l56 -68l-308 -245l-178 -127h1094v-973h-86v887h-1008l180 -129l304 -240l-56 -70l-598 471v23z" />
    <glyph glyph-name="uni21B1" unicode="&#x21b1;" horiz-adv-x="1497" 
d="M791 915l55 68l600 -471v-23l-598 -471l-55 70l303 240l180 129h-1008v-887h-86v973h1094l-178 127z" />
    <glyph glyph-name="uni21B2" unicode="&#x21b2;" horiz-adv-x="1497" 
d="M1229 1430h86v-973h-1096l180 -127l308 -246l-56 -68l-600 471v23l598 471l56 -70l-304 -239l-180 -129h1008v887z" />
    <glyph glyph-name="uni21B3" unicode="&#x21b3;" horiz-adv-x="1497" 
d="M182 1430h86v-887h1008l-180 129l-303 239l55 70l598 -471v-23l-600 -471l-55 68l307 246l180 127h-1096v973z" />
    <glyph glyph-name="uni21B4" unicode="&#x21b4;" horiz-adv-x="1632" 
d="M45 543h1094v-873l127 178l243 308l70 -56l-471 -600h-23l-471 598l70 56l240 -304l129 -182v789h-1008v86z" />
    <glyph glyph-name="uni21BC" unicode="&#x21bc;" horiz-adv-x="1701" 
d="M33 481l626 502l56 -72l-303 -237l-170 -131h1413v-86h-1622v24z" />
    <glyph glyph-name="uni21BD" unicode="&#x21bd;" horiz-adv-x="1701" 
d="M33 543h1622v-86h-1413l170 -131l303 -240l-56 -70l-626 502v25z" />
    <glyph glyph-name="uni21BE" unicode="&#x21be;" horiz-adv-x="792" 
d="M213 1518h23l503 -625l-69 -57l-244 303l-123 159v-1458h-90v1678z" />
    <glyph glyph-name="uni21BF" unicode="&#x21bf;" horiz-adv-x="792" 
d="M557 1518h23v-1678h-91v1460l-122 -161l-244 -303l-70 57z" />
    <glyph glyph-name="uni21C0" unicode="&#x21c0;" horiz-adv-x="1701" 
d="M987 911l55 72l627 -502v-24h-1622v86h1413l-170 131z" />
    <glyph glyph-name="uni21C1" unicode="&#x21c1;" horiz-adv-x="1701" 
d="M47 543h1622v-25l-627 -502l-55 70l303 240l170 131h-1413v86z" />
    <glyph glyph-name="uni21C2" unicode="&#x21c2;" horiz-adv-x="792" 
d="M213 1518h90v-1461l123 162l244 301l69 -57l-503 -623h-23v1678z" />
    <glyph glyph-name="uni21C3" unicode="&#x21c3;" horiz-adv-x="792" 
d="M489 1518h91v-1678h-23l-504 623l70 57l244 -301l122 -164v1463z" />
    <glyph glyph-name="uni21C4" unicode="&#x21c4;" horiz-adv-x="1705" 
d="M1006 1397l55 69l594 -469v-24l-586 -471l-55 69l293 238l182 133h-1436v84h1434l-180 129zM51 43l588 471l55 -68l-295 -239l-178 -131h1434v-86h-1434l178 -129l301 -240l-55 -70l-594 469v23z" />
    <glyph glyph-name="uni21C5" unicode="&#x21c5;" horiz-adv-x="2043" 
d="M1466 1497h88v-1481l127 177l242 303l68 -58l-467 -594h-25l-469 592l70 58l237 -299l129 -179v1481zM522 1499h23l469 -596l-68 -57l-241 303l-127 176v-1479h-91v1479l-129 -178l-235 -299l-70 57z" />
    <glyph glyph-name="uni21C6" unicode="&#x21c6;" horiz-adv-x="1705" 
d="M51 997l594 469l57 -69l-303 -242l-180 -129h1436v-84h-1436l182 -133l293 -238l-57 -69l-586 471v24zM1012 446l57 68l586 -471v-23l-594 -469l-55 70l301 240l180 129h-1434v86h1432l-178 131z" />
    <glyph glyph-name="uni21C7" unicode="&#x21c7;" horiz-adv-x="1689" 
d="M51 997l588 461l53 -69l-293 -234l-180 -129h1426v-84h-1426l182 -125l289 -217l-53 -68l-586 441v24zM51 45l588 440l53 -67l-293 -219l-178 -123h1424v-86h-1424l180 -131l289 -230l-53 -69l-586 460v25z" />
    </font>
</defs>
</svg>
