<?xml version="1.0" standalone="no"?>
<!DOCTYPE svg PUBLIC "-//W3C//DTD SVG 1.1//EN" "http://www.w3.org/Graphics/SVG/1.1/DTD/svg11.dtd" >
<svg xmlns="http://www.w3.org/2000/svg" xmlns:xlink="http://www.w3.org/1999/xlink" version="1.1">
<metadata>
Created by FontForge 20170731 at Fri Aug 27 18:28:18 2021
 By Aleksey,,,
Copyright (c) 2014-16 by David Brezina. All rights reserved.
</metadata>
<defs>
<font id="SkolarSansLatn-Sb" horiz-adv-x="1128" >
  <font-face 
    font-family="Skolar Sans Latn Sb"
    font-weight="600"
    font-stretch="normal"
    units-per-em="2048"
    panose-1="2 13 0 0 0 4 0 0 0 0"
    ascent="1536"
    descent="-512"
    x-height="971"
    cap-height="1372"
    bbox="-420 -551 2759 2320"
    underline-thickness="51"
    underline-position="-316"
    unicode-range="U+000D-FC01"
  />
<missing-glyph horiz-adv-x="1335" 
d="M184 1358h967v-1358h-967v1358zM997 98l-329 494l-330 -494h659zM608 678l-327 493v-989zM1055 182v989l-330 -493zM668 766l329 494h-659z" />
    <glyph glyph-name="f_b" unicode="fb" horiz-adv-x="1800" 
d="M219 1155q0 84 22 155t65.5 128t118 89t171.5 32q151 0 281 -43l180 22v-661q116 122 264 122q176 0 279.5 -138.5t103.5 -352.5q0 -105 -30.5 -199t-88.5 -169t-152.5 -119t-213.5 -44q-188 0 -383 60v1300q-101 29 -224 29q-91 0 -130.5 -50.5t-39.5 -152.5v-192h234
v-185h-234v-786h-221l-2 786h-147v185h147v184zM1233 164q52 0 96.5 15t65.5 38q48 52 64 113t16 155q0 154 -51.5 240t-145.5 86q-115 0 -221 -106v-521q92 -20 176 -20z" />
    <glyph glyph-name="f_f" unicode="ff" horiz-adv-x="1355" 
d="M219 1108q0 83 23.5 156t69 130.5t120.5 90.5t172 33q160 0 314 -99q98 140 282 140q144 0 266 -91l-82 -151q-76 47 -170 47q-147 0 -147 -188v-205h233v-185h-233v-786h-223v786h-402v-786h-223v786h-147v185h147v137zM844 1155q0 61 12 113q-51 27 -116 43t-117 16
q-97 0 -139 -49.5t-42 -149.5v-157h402v184z" />
    <glyph glyph-name="f_h" unicode="fh" horiz-adv-x="1810" 
d="M219 1155q0 84 21.5 155t65 128t116.5 89t170 32q65 0 147 -12t138 -31l180 22v-647q137 108 313 108q153 0 225 -85t72 -252l-2 -662h-219l-2 588q0 117 -30.5 168t-106.5 51q-126 0 -250 -76v-731h-221v1337q-107 29 -224 29q-90 0 -130 -49.5t-40 -153.5v-192h234
v-185h-234v-786h-221l-2 786h-147v185h147v184z" />
    <glyph glyph-name="f_i" unicode="fi" horiz-adv-x="1206" 
d="M219 1159q0 83 23 154t68 127t119 87.5t169 31.5q125 0 237 -41t185 -101l-96 -135q-68 38 -153 60t-159 22q-90 0 -130 -49t-40 -150v-194h613v-971h-221v786h-392v-786h-223v786h-147v185h147v188z" />
    <glyph glyph-name="f_iacute" unicode="f&#xed;" horiz-adv-x="1206" 
d="M219 1153q0 83 20 154.5t60.5 128.5t109 90t158.5 33q136 0 236 -78l-80 -146q-69 29 -133 29q-81 0 -114.5 -48t-33.5 -145v-200h613v-971h-221v786h-392v-786h-223v786h-147v185h147v182zM786 1200l326 320l125 -140v-10l-358 -274z" />
    <glyph glyph-name="f_j" unicode="fj" horiz-adv-x="1206" 
d="M219 1155q0 116 39.5 205t126.5 144t213 55q241 0 422 -142l-96 -135q-60 35 -148.5 58.5t-163.5 23.5q-92 0 -131 -48t-39 -149v-196h613v-912q0 -195 -73.5 -327t-211.5 -230l-119 119q89 95 136 204t47 253v708h-392v-786h-223v786h-147v185h147v184z" />
    <glyph glyph-name="f_k" unicode="fk" horiz-adv-x="1748" 
d="M219 1155q0 80 20.5 150t62 128.5t114 92t168.5 33.5q66 0 150 -12t143 -31l182 22v-1032l397 465h221q-3 -41 -49 -97l-291 -339l320 -433q38 -47 51 -102h-242l-270 381l-137 -137v-244h-223v1335q-121 31 -224 31q-92 0 -131 -49.5t-39 -153.5v-192h234v-185h-234
v-786h-223v786h-147v185h147v184z" />
    <glyph glyph-name="f_l" unicode="fl" horiz-adv-x="1259" 
d="M219 1155q0 80 20.5 150t62.5 128t114.5 92t167.5 34q66 0 150 -12t143 -31l180 22v-1286q0 -46 13.5 -65t45.5 -19q30 0 70 12l47 -166q-93 -37 -189 -37q-208 0 -208 220v1140q-113 29 -224 29q-91 0 -130.5 -49t-39.5 -154v-192h234v-185h-234v-786h-223v786h-147v185
h147v184z" />
    <glyph glyph-name="f_lcaron" unicode="f&#x13e;" horiz-adv-x="1267" 
d="M219 1155q0 80 20.5 150t62.5 128t114.5 92t167.5 34q66 0 150 -12t143 -31l180 22v-1286q0 -46 13.5 -65t45.5 -19q30 0 70 12l47 -166q-93 -37 -189 -37q-208 0 -208 220v1140q-113 29 -224 29q-91 0 -130.5 -49t-39.5 -154v-192h234v-185h-234v-786h-223v786h-147v185
h147v184zM1165 1546l199 6l6 -8l-45 -432h-160v434z" />
    <glyph glyph-name="f_t" unicode="ft" horiz-adv-x="1404" 
d="M854 1257h182v-286h293v-185h-293v-421q0 -115 24.5 -154t96.5 -39q61 0 150 18l41 -163q-136 -50 -281 -50q-129 0 -190.5 72t-61.5 254v483h-373v-786h-223v786h-147v185h147v174q0 85 20.5 157.5t63 131t114 92t165.5 33.5q132 0 260 -91l-82 -149q-86 45 -168 45
q-150 0 -150 -178v-215h361z" />
    <glyph glyph-name="f_f_i" unicode="ffi" horiz-adv-x="1830" 
d="M844 1147q0 65 12 123q-117 57 -240 57q-91 0 -132.5 -49.5t-41.5 -147.5v-159h402v176zM72 971h147v137q0 82 23.5 155t69 130.5t120.5 91t170 33.5q160 0 320 -97q97 138 301 138q233 0 419 -142l-96 -135q-149 82 -309 82q-90 0 -130 -48t-40 -149v-196h612v-971h-221
v786h-391v-786h-223v786h-402v-786h-223v786h-147v185z" />
    <glyph glyph-name="f_f_b" unicode="ffb" horiz-adv-x="2422" 
d="M844 1147q0 65 12 121q-108 59 -240 59q-174 0 -174 -197v-159h402v176zM1858 164q52 0 95 15t66 38q47 52 63.5 114t16.5 154q0 154 -51.5 240t-144.5 86q-115 0 -222 -104v-523q92 -20 177 -20zM72 971h147v137q0 82 23.5 155t69 130.5t120.5 91t170 33.5
q162 0 316 -99q96 140 303 140q153 0 280 -43l180 22v-661q116 122 263 122q177 0 280 -138t103 -353q0 -105 -30 -199t-88.5 -169t-153 -119t-214.5 -44q-189 0 -381 60v1300q-126 29 -223 29q-93 0 -131.5 -48t-38.5 -151v-196h233v-185h-233v-786h-221l-2 786h-402v-786
h-223v786h-147v185z" />
    <glyph glyph-name="f_f_h" unicode="ffh" horiz-adv-x="2433" 
d="M844 1155q0 51 10 113q-118 59 -236 59q-94 0 -135 -49.5t-41 -149.5v-157h402v184zM72 971h147v137q0 82 23.5 155t69 130.5t120.5 91t170 33.5q159 0 313 -99q98 140 297 140q66 0 151 -12.5t138 -30.5l182 22v-645q135 106 310 106q154 0 226.5 -85t72.5 -252l-2 -662
h-219l-3 588q0 116 -31 167.5t-106 51.5q-125 0 -248 -74v-733h-223v1335q-118 31 -223 31q-92 0 -131 -49t-39 -154v-192h233v-185h-233v-786h-223v786h-402v-786h-223v786h-147v185z" />
    <glyph glyph-name="f_f_j" unicode="ffj" horiz-adv-x="1830" 
d="M844 1147q0 63 12 121q-115 59 -240 59q-91 0 -132.5 -49.5t-41.5 -147.5v-159h402v176zM72 971h147v137q0 82 23.5 155t69 130.5t120.5 91t170 33.5q160 0 318 -99q98 140 303 140q233 0 419 -142l-96 -135q-149 82 -309 82q-90 0 -130 -48t-40 -149v-196h612v-912
q0 -133 -37.5 -240.5t-97 -179.5t-149.5 -137l-121 119q90 94 137 203.5t47 253.5v708h-391v-786h-223v786h-402v-786h-223v786h-147v185z" />
    <glyph glyph-name="f_f_k" unicode="ffk" horiz-adv-x="2371" 
d="M844 1155q0 53 10 115q-117 57 -238 57q-92 0 -133 -50t-41 -149v-157h402v184zM72 971h147v137q0 82 23.5 155t69 130.5t120.5 91t170 33.5q164 0 313 -99q95 140 293 140q66 0 149 -11.5t144 -31.5l182 22v-1032l398 465h221q-3 -43 -51 -97l-289 -339l319 -433
q35 -43 52 -102h-242l-270 381l-138 -137v-244h-223v1335q-121 31 -223 31q-93 0 -131.5 -47.5t-38.5 -155.5v-192h233v-185h-233v-786h-223v786h-402v-786h-223v786h-147v185z" />
    <glyph glyph-name="f_f_l" unicode="ffl" horiz-adv-x="1884" 
d="M844 1155q0 57 12 113q-112 59 -238 59q-93 0 -134.5 -50.5t-41.5 -148.5v-157h402v184zM72 971h147v137q0 82 23.5 155t69 130.5t119 91t167.5 33.5q162 0 322 -99q98 140 290 140q65 0 147.5 -12t143.5 -31l180 22v-1286q0 -45 13.5 -64.5t44.5 -19.5t71 12l45 -166
q-90 -37 -186 -37q-104 0 -156.5 56.5t-52.5 163.5v1140q-119 29 -221 29q-95 0 -133.5 -45.5t-38.5 -157.5v-192h233v-185h-233v-786h-223v786h-402v-786h-223v786h-147v185z" />
    <glyph glyph-name="f_f_t" unicode="fft" horiz-adv-x="2029" 
d="M219 1108q0 82 23.5 155t69 130.5t120.5 91t170 33.5q158 0 316 -99q98 140 274 140q83 0 145 -22.5t129 -68.5l-82 -149q-90 45 -174 45q-143 0 -143 -193v-200h360l50 286h182v-286h295v-185h-295v-421q0 -115 25.5 -154t97.5 -39q60 0 149 18l41 -163
q-136 -50 -280 -50q-129 0 -191.5 72t-62.5 254v483h-371v-786h-223v786h-402v-786h-223v786h-147v185h147v137zM844 1155q0 61 12 113q-106 59 -240 59q-91 0 -132.5 -50.5t-41.5 -148.5v-157h402v184z" />
    <glyph glyph-name="T_h" unicode="Th" horiz-adv-x="2125" 
d="M37 1372h1114v162l223 4v-645q135 106 312 106q153 0 224.5 -85t71.5 -252v-662h-221l-2 588q0 117 -30.5 168t-106.5 51q-124 0 -248 -76v-731h-223v1180h-467v-1180h-225v1180h-416z" />
    <glyph glyph-name="uni021A_h" unicode="&#x21a;h" horiz-adv-x="2125" 
d="M37 1372h1114v162l223 4v-645q135 106 312 106q153 0 224.5 -85t71.5 -252v-662h-221l-2 588q0 117 -30.5 168t-106.5 51q-124 0 -248 -76v-731h-223v1180h-467v-1180h-225v1180h-416zM483 -147l191 18q10 -55 10 -109q0 -95 -36.5 -178t-90.5 -135l-123 72q53 97 53 223
q0 39 -4 109z" />
    <glyph glyph-name="uni0162_h" unicode="&#x162;h" horiz-adv-x="2125" 
d="M37 1372h1114v162l223 4v-645q135 106 312 106q153 0 224.5 -85t71.5 -252v-662h-221l-2 588q0 117 -30.5 168t-106.5 51q-124 0 -248 -76v-731h-223v1180h-467v-1180h-31l-47 -102h4q56 0 102.5 -14.5t81.5 -54.5t35 -101q0 -110 -106.5 -180t-288.5 -91l-26 135
q94 15 149 47.5t55 75.5q0 32 -26.5 49t-67.5 17q-27 0 -55 -4l-49 65l75 158h-30v1180h-416z" />
    <glyph glyph-name="jacute" unicode="&#xfc00;" horiz-adv-x="524" arabic-form="isolated" 
d="M152 969l221 4v-914q0 -195 -73.5 -327t-211.5 -230l-119 119q89 94 136 203t47 254v891zM92 1206l328 322l133 -148v-10l-358 -274z" />
    <glyph glyph-name="Jacute" unicode="&#xfc01;" horiz-adv-x="593" arabic-form="isolated" 
d="M193 1372h225v-1290q0 -265 -111 -401t-344 -148l-39 178q71 15 117.5 36.5t77.5 51.5t46.5 81t21.5 111.5t6 155.5v1225zM104 1661l451 184l63 -188v-10l-466 -134z" />
    <glyph glyph-name=".notdef" horiz-adv-x="1335" 
d="M184 1358h967v-1358h-967v1358zM997 98l-329 494l-330 -494h659zM608 678l-327 493v-989zM1055 182v989l-330 -493zM668 766l329 494h-659z" />
    <glyph glyph-name=".null" horiz-adv-x="0" 
 />
    <glyph glyph-name="uni000D" unicode="&#xd;" horiz-adv-x="0" 
 />
    <glyph glyph-name="NULL" horiz-adv-x="0" 
 />
    <glyph glyph-name="NULL" horiz-adv-x="0" 
 />
    <glyph glyph-name="space" unicode=" " horiz-adv-x="434" 
 />
    <glyph glyph-name="exclam" unicode="!" horiz-adv-x="577" 
d="M176 1372h225l-18 -989h-188zM156 111q0 61 37.5 99t97.5 38t95.5 -35t35.5 -92q0 -66 -37 -105t-100 -39q-57 0 -93 37t-36 97z" />
    <glyph glyph-name="quotedbl" unicode="&#x22;" horiz-adv-x="763" 
d="M436 1589h197l-15 -559h-165zM131 1589h197l-15 -559h-166z" />
    <glyph glyph-name="numbersign" unicode="#" horiz-adv-x="1271" 
d="M264 4l35 197h-199v168h230l41 231h-199v168h229l39 221l150 -26l-35 -195h260l39 221l152 -26l-35 -195h200v-168h-229l-41 -231h201v-168h-232l-39 -224l-151 27l35 197h-260l-39 -224zM743 369l41 231h-258l-41 -231h258z" />
    <glyph glyph-name="dollar" unicode="$" horiz-adv-x="1138" 
d="M348 1006q0 -101 152 -175v332q-152 -32 -152 -157zM836 360q0 99 -152 170v-319q152 31 152 149zM127 1001q0 109 50.5 188t132 121t190.5 56v170h184v-168q188 -15 315 -90l-71 -174q-111 46 -244 63v-411q65 -26 112.5 -49t100 -57.5t85 -72t54 -89.5t21.5 -113
q0 -160 -100 -251t-273 -116v-172h-184v166q-121 6 -230.5 41t-181.5 86l84 168q160 -83 328 -94v399q-65 26 -110.5 48t-99 58t-86 74.5t-55 95t-22.5 123.5z" />
    <glyph glyph-name="percent" unicode="%" horiz-adv-x="1576" 
d="M266 53l903 1370l146 -100l-905 -1370zM80 993q0 81 19 153t56 129.5t98 91.5t138 34q95 0 161.5 -53t96 -135.5t29.5 -184.5q0 -112 -32 -202.5t-104 -149t-173 -58.5q-96 0 -162.5 53t-96.5 136t-30 186zM485 1018q0 227 -102 227q-38 0 -66 -28q-45 -50 -45 -209
q0 -236 103 -236q43 0 67 35q43 56 43 211zM901 348q0 80 19 151.5t55.5 129.5t97 91.5t137.5 33.5q141 0 214 -106t73 -265q0 -83 -19 -156t-55.5 -131t-97 -91.5t-137.5 -33.5q-72 0 -128 30.5t-90 83.5t-51.5 120t-17.5 143zM1307 373q0 227 -103 227q-39 0 -67 -31
q-45 -50 -45 -209q0 -233 102 -233q44 0 68 35q45 59 45 211z" />
    <glyph glyph-name="ampersand" unicode="&#x26;" horiz-adv-x="1507" 
d="M215 1053q0 151 99 247.5t272 96.5q156 0 250 -86.5t92 -220.5q-2 -218 -281 -412q136 -157 297 -311q137 155 197 456h209q-3 -142 -73.5 -299.5t-189.5 -285.5q49 -38 90.5 -55t98.5 -17q53 0 123 24l57 -151q-32 -27 -86 -45.5t-115 -18.5q-92 0 -161 32t-156 102
q-191 -134 -399 -134q-127 0 -222.5 34.5t-154 113t-58.5 194.5q-1 82 37.5 156.5t94.5 127.5t137 106q-71 93 -114.5 176.5t-43.5 169.5zM424 1055q0 -52 31.5 -112t85.5 -134q86 61 132 122t46 140q0 61 -39.5 104.5t-97.5 43.5q-81 0 -117 -39q-41 -41 -41 -125zM555 166
q117 0 236 72q-166 156 -316 340q-143 -108 -143 -234q0 -82 57 -130t166 -48z" />
    <glyph glyph-name="quotesingle" unicode="'" horiz-adv-x="458" 
d="M131 1589h197l-15 -559h-166z" />
    <glyph glyph-name="parenleft" unicode="(" horiz-adv-x="686" 
d="M100 662q0 280 95.5 570t269.5 537l164 -108q-293 -461 -299 -999q6 -541 299 -1002l-164 -106q-174 247 -269.5 536.5t-95.5 571.5z" />
    <glyph glyph-name="parenright" unicode=")" horiz-adv-x="686" 
d="M57 1661l164 108q174 -247 269.5 -537t95.5 -570q0 -282 -95.5 -571.5t-269.5 -536.5l-164 106q290 456 299 1002q-9 543 -299 999z" />
    <glyph glyph-name="asterisk" unicode="*" horiz-adv-x="931" 
d="M311 1538l133 37l58 -246l166 187l98 -99l-184 -170l247 -53l-34 -135l-242 76l78 -242l-133 -37l-58 246l-168 -187l-98 99l184 170l-245 53l34 135l240 -76z" />
    <glyph glyph-name="plus" unicode="+" 
d="M473 952h186v-319h318v-176h-318v-322h-186v322h-319v176h319v319z" />
    <glyph glyph-name="comma" unicode="," horiz-adv-x="503" 
d="M145 289l203 12q17 -76 17 -149q0 -141 -69 -261.5t-198 -201.5l-90 69q146 156 146 385q0 40 -9 146z" />
    <glyph glyph-name="hyphen" unicode="-" horiz-adv-x="722" 
d="M135 586h451v-176h-451v176z" />
    <glyph glyph-name="period" unicode="." horiz-adv-x="520" 
d="M121 111q0 65 39.5 104t103.5 39q60 0 97.5 -36.5t37.5 -96.5q0 -68 -38.5 -109t-102.5 -41q-61 0 -99 39t-38 101z" />
    <glyph glyph-name="slash" unicode="/" horiz-adv-x="864" 
d="M51 -139l574 1618l186 -70l-571 -1618z" />
    <glyph glyph-name="zero" unicode="0" horiz-adv-x="1214" 
d="M111 657q0 145 34 277.5t96.5 237t162 167t221.5 62.5q93 0 171.5 -36.5t134.5 -101t95.5 -151t58.5 -187t19 -208.5q0 -148 -34.5 -281.5t-98 -237.5t-163 -165.5t-220.5 -61.5q-114 0 -206 56.5t-150.5 152t-89.5 218t-31 259.5zM870 707q0 137 -27.5 246.5t-86 178
t-140.5 68.5q-65 0 -118 -41q-45 -34 -77 -95t-48 -133t-22.5 -134.5t-6.5 -122.5q0 -139 28 -251t86.5 -181.5t139.5 -69.5q69 0 121 43q58 46 94 140t46.5 178.5t10.5 173.5z" />
    <glyph glyph-name="one" unicode="1" horiz-adv-x="911" 
d="M104 1262l340 112l187 -4v-1177h207l10 -193h-727v193h287v962l-254 -59z" />
    <glyph glyph-name="two" unicode="2" horiz-adv-x="1048" 
d="M98 1241q74 76 176 115t211 39q106 0 191 -35t138 -94.5t80.5 -134.5t27.5 -158q0 -118 -58 -239t-145 -221.5t-221 -223.5l-103 -96h541l6 -193h-805l-18 203l198 188q86 85 145 149.5t114 139.5t82.5 146.5t27.5 140.5q0 103 -58 165t-171 62q-65 0 -133 -23.5
t-123 -64.5z" />
    <glyph glyph-name="three" unicode="3" horiz-adv-x="1050" 
d="M106 1245q162 150 386 150q184 0 295.5 -92.5t111.5 -247.5q0 -103 -50 -186.5t-138 -137.5q110 -40 170.5 -125.5t60.5 -204.5q0 -190 -139 -308t-365 -118q-92 0 -183 20.5t-157 57.5l64 166q115 -45 258 -45q122 0 194 51q93 56 93 170q0 103 -76.5 161t-210.5 58
h-103l-4 189h107q112 0 179 56.5t67 156.5q0 86 -57.5 132t-153.5 46q-118 0 -248 -84z" />
    <glyph glyph-name="four" unicode="4" horiz-adv-x="1169" 
d="M70 504l589 870l228 -4v-878h192l11 -189h-203v-303h-223v303h-570zM553 883l-268 -391h379v567h-5z" />
    <glyph glyph-name="five" unicode="5" horiz-adv-x="1026" 
d="M150 1372h714l-8 -196h-494l3 -330q75 14 133 14q192 -2 312 -110.5t120 -290.5q0 -117 -38 -210t-106.5 -152.5t-159.5 -90.5t-200 -31q-184 0 -322 60l52 174q136 -35 247 -35q141 0 209 55q84 63 84 217q0 102 -70.5 167t-193.5 65q-107 0 -262 -45l-20 24v715z" />
    <glyph glyph-name="six" unicode="6" horiz-adv-x="1112" 
d="M111 584q0 167 43.5 314t123.5 258t202.5 175t271.5 64q75 0 149 -19l-24 -190q-49 8 -99 8q-182 0 -288.5 -112t-135.5 -312h4q120 74 275 74q185 0 290 -115.5t105 -290.5q0 -201 -126 -334t-335 -133q-96 0 -173.5 32.5t-129.5 89t-87 135t-50.5 167t-15.5 189.5z
M580 172q93 0 151 61q64 70 64 187q0 113 -55.5 175t-157.5 62q-120 0 -238 -79q4 -120 27 -207t76 -143t133 -56z" />
    <glyph glyph-name="seven" unicode="7" horiz-adv-x="978" 
d="M76 1372h827l17 -192l-529 -1211l-205 78l496 1129h-596z" />
    <glyph glyph-name="eight" unicode="8" horiz-adv-x="1146" 
d="M166 1038q0 161 119 262t301 101q180 0 291.5 -91.5t111.5 -242.5q0 -189 -194 -350q56 -32 97.5 -63.5t76.5 -73t53 -93t18 -112.5q0 -128 -66 -221t-175.5 -138t-249.5 -45q-197 0 -321 97t-124 268q1 119 66.5 209t189.5 176q-90 59 -142 141t-52 176zM395 1040
q0 -33 12 -61.5t28.5 -49t52.5 -45t64.5 -40.5t84.5 -45q129 111 129 248q0 73 -50 119t-128 46q-82 0 -137 -45q-56 -43 -56 -127zM565 160q104 0 172 53q72 54 72 147q0 85 -66.5 142.5t-222.5 134.5q-94 -63 -142 -130t-48 -155q0 -90 67 -141t168 -51z" />
    <glyph glyph-name="nine" unicode="9" horiz-adv-x="1112" 
d="M530 715q119 0 238 80q-7 185 -63 295t-173 110q-93 0 -151 -61q-64 -70 -64 -187q0 -113 55.5 -175t157.5 -62zM84 934q0 201 126 334t335 133q96 0 173.5 -32.5t129.5 -89t87 -135t50.5 -167t15.5 -189.5q0 -133 -27 -254.5t-81 -223t-130 -176t-179 -116t-222 -41.5
q-77 0 -151 19l25 190q49 -8 98 -8q183 0 289 112t135 312h-2q-123 -74 -277 -74q-184 0 -289.5 116t-105.5 290z" />
    <glyph glyph-name="colon" unicode=":" horiz-adv-x="548" 
d="M141 793q0 61 38 99t100 38q59 0 95 -35t36 -92q0 -66 -37.5 -105t-100.5 -39q-59 0 -95 37t-36 97zM141 123q0 61 37.5 99t97.5 38t96 -35t36 -92q0 -66 -37.5 -104.5t-100.5 -38.5q-57 0 -93 36.5t-36 96.5z" />
    <glyph glyph-name="semicolon" unicode=";" horiz-adv-x="546" 
d="M180 289l205 12q16 -72 16 -149q0 -141 -68.5 -261.5t-197.5 -201.5l-90 69q145 155 145 385q0 68 -10 146zM131 793q0 61 37.5 99t99.5 38q58 0 93.5 -35t35.5 -92q0 -66 -36.5 -105t-98.5 -39q-59 0 -95 37t-36 97z" />
    <glyph glyph-name="less" unicode="&#x3c;" 
d="M147 629l727 352l87 -166l-547 -276l547 -277l-87 -166l-727 353v180z" />
    <glyph glyph-name="equal" unicode="=" 
d="M174 778h782v-172h-782v172zM174 469h782v-170h-782v170z" />
    <glyph glyph-name="greater" unicode="&#x3e;" 
d="M168 815l88 166l727 -352v-180l-727 -353l-88 166l547 277z" />
    <glyph glyph-name="question" unicode="?" horiz-adv-x="854" 
d="M66 1305q148 96 354 96q158 0 258 -79.5t100 -234.5q0 -96 -41.5 -171.5t-113.5 -147.5q-78 -78 -121 -148.5t-43 -152.5q0 -62 2 -82l-189 -6q-24 77 -24 145q0 49 13 92t40 81.5t50.5 64.5t62.5 63q137 126 137 246q0 65 -48.5 102t-129.5 35q-124 0 -238 -51zM236 111
q0 61 38 99t99 38q58 0 93.5 -35t35.5 -92q0 -66 -36.5 -105t-98.5 -39q-59 0 -95 37t-36 97z" />
    <glyph glyph-name="at" unicode="@" horiz-adv-x="1685" 
d="M104 453q0 348 212.5 555t572.5 206q157 -1 286 -47t215.5 -126.5t133.5 -190.5t47 -238q0 -122 -34.5 -215.5t-88 -148.5t-126 -89t-141 -45t-141.5 -8l-34 103q-105 -115 -232 -115q-136 0 -218.5 109t-82.5 289q0 77 21.5 148t62 129t107 92.5t149.5 33.5
q116 0 205 -59l22 51l136 -19l-5 -108q-6 -86 -6 -180v-166q0 -76 6 -156q213 36 213 348q0 195 -132.5 322t-370.5 127q-281 0 -434.5 -159t-153.5 -437q0 -132 43 -237t116.5 -169t164.5 -97.5t192 -33.5q177 0 315 58l58 -127q-47 -35 -153.5 -64t-227.5 -29
q-141 1 -266.5 48.5t-221.5 134.5t-152.5 219t-56.5 291zM819 254q74 0 162 78v375q-63 38 -137 38q-78 0 -119 -47q-33 -40 -48 -82t-15 -114q0 -248 157 -248z" />
    <glyph glyph-name="A" unicode="A" horiz-adv-x="1224" 
d="M614 1106l-186 -571h365l-93 290l-77 281h-9zM492 1368l253 8l408 -1265q19 -52 25 -111h-215l-109 344h-487l-113 -344h-221q8 52 26 109z" />
    <glyph glyph-name="B" unicode="B" horiz-adv-x="1222" 
d="M176 1362q227 31 369 31q245 0 375.5 -87t130.5 -251q0 -102 -48.5 -185.5t-144.5 -134.5q130 -31 200 -117t70 -219q0 -196 -144 -309t-421 -113q-129 0 -387 31v1354zM549 803q124 0 182 37q86 52 86 170q0 99 -67.5 144.5t-202.5 45.5q-61 0 -146 -10v-385q36 0 84 -1
t64 -1zM571 172q159 0 232 51q92 66 92 178q0 108 -81 161.5t-255 53.5h-158v-436q84 -8 170 -8z" />
    <glyph glyph-name="C" unicode="C" horiz-adv-x="1185" 
d="M102 655q0 114 23.5 220t75 201.5t125 166t180.5 111.5t235 41q207 0 375 -101l-84 -176q-140 76 -293 76q-163 0 -260 -100q-73 -73 -107 -184t-34 -238q0 -78 12.5 -147.5t42.5 -134t76 -111t117.5 -74t161.5 -27.5q159 0 307 66l61 -174q-184 -93 -399 -93
q-195 0 -336 89.5t-210 241t-69 347.5z" />
    <glyph glyph-name="D" unicode="D" horiz-adv-x="1372" 
d="M176 1362q251 33 434 33q307 0 483.5 -187.5t176.5 -498.5q0 -214 -84.5 -380t-242 -259t-365.5 -93q-200 0 -402 31v1354zM569 178q160 0 254 64q107 71 160 189t53 265q-2 231 -114.5 364.5t-319.5 133.5q-91 0 -201 -10v-998q68 -8 168 -8z" />
    <glyph glyph-name="E" unicode="E" horiz-adv-x="1097" 
d="M178 1372h819l-6 -192h-590v-381h473v-193h-473v-413h596l9 -193h-830z" />
    <glyph glyph-name="F" unicode="F" horiz-adv-x="1071" 
d="M178 1372h821l-10 -192h-590v-439h475v-194h-475v-547h-223z" />
    <glyph glyph-name="G" unicode="G" horiz-adv-x="1275" 
d="M102 653q0 115 26 222.5t80 202.5t131 165t187 111t240 41q193 0 373 -101l-84 -176q-150 78 -299 78q-163 0 -269 -106q-149 -141 -149 -416q0 -78 12.5 -147.5t43.5 -134.5t77.5 -111.5t119.5 -74.5t165 -28t180 21v307h-270v192h485v-624q-199 -97 -414 -97
q-155 0 -277.5 51.5t-200 143t-117.5 214t-40 267.5z" />
    <glyph glyph-name="H" unicode="H" horiz-adv-x="1394" 
d="M993 1372h224v-1372h-224v602h-592v-602h-225v1372h225v-577h592v577z" />
    <glyph glyph-name="I" unicode="I" horiz-adv-x="577" 
d="M176 1372h225v-1372h-225v1372z" />
    <glyph glyph-name="J" unicode="J" horiz-adv-x="593" 
d="M193 1372h225v-1290q0 -265 -111 -401t-344 -148l-39 178q71 15 117.5 36.5t77.5 51.5t46.5 81t21.5 111.5t6 155.5v1225z" />
    <glyph glyph-name="K" unicode="K" horiz-adv-x="1220" 
d="M940 1372h234q0 -34 -50 -92l-438 -485l416 -652q38 -59 54 -89t20 -54h-236l-401 633l-138 -154v-479h-225v1372h225v-620h5z" />
    <glyph glyph-name="L" unicode="L" horiz-adv-x="1003" 
d="M176 1372h225v-1179h547l8 -193h-780v1372z" />
    <glyph glyph-name="M" unicode="M" horiz-adv-x="1730" 
d="M1143 1372h315l152 -1218q2 -15 6.5 -49.5t7 -59t2.5 -45.5h-211l-104 838l-25 256h-8l-279 -1094h-276l-225 840l-58 256h-6l-123 -1096h-205q0 35 19 170l143 1202h318l227 -842l53 -256h8z" />
    <glyph glyph-name="N" unicode="N" horiz-adv-x="1413" 
d="M176 1372h256l500 -860l106 -229h2l-10 258v831h205v-1372h-254l-508 870l-96 209h-4l8 -225v-854h-205v1372z" />
    <glyph glyph-name="O" unicode="O" horiz-adv-x="1419" 
d="M102 666q0 143 38.5 272.5t112.5 234t194.5 166.5t271.5 62q114 0 210.5 -35.5t167.5 -99t121 -150.5t74.5 -190.5t24.5 -218.5q0 -114 -23.5 -220t-73.5 -200t-121.5 -164t-173.5 -111t-223 -41q-142 0 -257 55t-189.5 150t-114 220.5t-39.5 269.5zM1081 688
q0 106 -24 198t-69.5 162.5t-117 111t-161.5 40.5q-124 0 -207 -72q-84 -74 -125 -193t-41 -251q0 -142 41.5 -256.5t128.5 -185t207 -70.5q126 0 205 72q85 73 124 191.5t39 252.5z" />
    <glyph glyph-name="P" unicode="P" horiz-adv-x="1187" 
d="M518 659q144 0 223 43q136 68 136 240q0 252 -316 252q-87 0 -160 -8v-520q75 -7 117 -7zM176 1362q197 33 363 33q283 0 427 -111t144 -317q0 -232 -153 -367t-425 -135q-64 0 -131 6v-471h-225v1362z" />
    <glyph glyph-name="Q" unicode="Q" horiz-adv-x="1419" 
d="M102 666q0 143 38.5 272.5t112.5 234t194.5 166.5t271.5 62q114 0 210.5 -35.5t167.5 -99t121 -150.5t74.5 -190.5t24.5 -218.5q0 -125 -29.5 -241t-86.5 -214.5t-149.5 -169t-209.5 -96.5q106 -166 311 -166q61 0 123 16l29 -178q-92 -35 -222 -35q-146 0 -257 86
t-199 266q-165 19 -285.5 117t-180 246t-59.5 328zM1081 688q0 106 -24 198t-69.5 162.5t-117 111t-161.5 40.5q-124 0 -207 -72q-84 -74 -125 -193t-41 -251q0 -142 41.5 -256.5t128.5 -185t207 -70.5q126 0 205 72q85 73 124 191.5t39 252.5z" />
    <glyph glyph-name="R" unicode="R" horiz-adv-x="1232" 
d="M516 709q144 0 223 39q135 64 135 219q0 113 -79.5 170t-231.5 57q-86 0 -162 -8v-473q78 -4 115 -4zM176 1362q206 33 377 33q259 0 408 -106t149 -304q0 -138 -69.5 -245t-196.5 -165l252 -438q45 -79 61 -137h-231l-293 520q-49 -6 -105 -6t-127 6v-520h-225v1362z
" />
    <glyph glyph-name="S" unicode="S" horiz-adv-x="1120" 
d="M121 1001q0 100 42 178.5t114 125.5t161 71.5t189 24.5q194 0 366 -86l-63 -172q-147 57 -305 57q-53 0 -98 -8.5t-86 -28t-65 -56.5t-24 -89q0 -30 8.5 -55.5t28.5 -47t40 -37t56 -32.5t61.5 -27.5t71.5 -27.5q171 -68 239 -110q147 -93 170 -239q5 -31 5 -63
q0 -131 -70 -225t-184.5 -138.5t-259.5 -44.5q-128 0 -245.5 34.5t-198.5 88.5l82 170q176 -92 362 -92q121 0 202 46.5t81 141.5q0 27 -8.5 51.5t-20.5 43t-35.5 36.5t-43.5 30.5t-55 27.5t-58.5 24.5t-65.5 24.5q-55 22 -83.5 33.5t-77.5 35.5t-75.5 43.5t-61 51t-52 64.5
t-30.5 78t-13 97z" />
    <glyph glyph-name="T" unicode="T" horiz-adv-x="1167" 
d="M49 1372h1069l-6 -192h-416v-1180h-223v1180h-418z" />
    <glyph glyph-name="U" unicode="U" horiz-adv-x="1331" 
d="M946 1372h223v-819q0 -132 -29.5 -236.5t-91 -183t-163 -120.5t-238.5 -42q-235 0 -359 137t-124 398v866h223v-833q0 -189 63.5 -279t219.5 -90q55 0 103.5 19.5t78.5 48.5q94 88 94 268v866z" />
    <glyph glyph-name="V" unicode="V" horiz-adv-x="1253" 
d="M989 1372h225q-4 -58 -55 -201l-407 -1167l-258 -8l-394 1175q-55 140 -57 201h227l265 -807l86 -309h8z" />
    <glyph glyph-name="W" unicode="W" horiz-adv-x="1890" 
d="M1630 1372h221q-2 -18 -10 -47t-21 -71t-20 -70l-340 -1180l-276 -8l-193 897l-37 231h-10l-252 -1120l-278 -8l-318 1196q-5 19 -13.5 50.5t-13.5 50.5t-10 41.5t-6 37.5h223l224 -862l53 -266h8l246 1128h295l188 -862l41 -266h8z" />
    <glyph glyph-name="X" unicode="X" horiz-adv-x="1228" 
d="M72 1372h243l299 -500h7l319 500h225q-3 -47 -59 -129l-344 -532l354 -570q64 -102 66 -141h-240l-330 537h-6l-340 -537h-225q3 49 70 141l354 555l-334 549q-56 83 -59 127z" />
    <glyph glyph-name="Y" unicode="Y" horiz-adv-x="1155" 
d="M899 1372h227q-6 -40 -72 -160q-5 -8 -7 -12l-361 -663v-537h-223v547l-350 653q-72 125 -76 172h235l222 -418l90 -188h4z" />
    <glyph glyph-name="Z" unicode="Z" horiz-adv-x="1185" 
d="M115 1372h946l35 -190l-756 -989h741l6 -193h-985l-18 195l743 985h-706z" />
    <glyph glyph-name="bracketleft" unicode="[" horiz-adv-x="770" 
d="M184 -416v2155h510v-174l-286 -9v-1789l286 -9v-174h-510z" />
    <glyph glyph-name="backslash" unicode="\" horiz-adv-x="864" 
d="M53 1409l187 70l573 -1618l-188 -70z" />
    <glyph glyph-name="bracketright" unicode="]" horiz-adv-x="770" 
d="M76 -242l286 9v1789l-286 9v174h510v-2155h-510v174z" />
    <glyph glyph-name="asciicircum" unicode="^" horiz-adv-x="1013" 
d="M453 1366l108 6l352 -479l-157 -125l-248 340l-250 -336l-156 117z" />
    <glyph glyph-name="underscore" unicode="_" horiz-adv-x="987" 
d="M0 -59h987v-177h-987v177z" />
    <glyph glyph-name="grave" unicode="`" horiz-adv-x="819" 
d="M152 1380l131 148l327 -322l-102 -110l-356 274v10z" />
    <glyph glyph-name="a" unicode="a" horiz-adv-x="1003" 
d="M119 836q181 157 413 157q168 0 247 -86t79 -276v-242q0 -90 16 -377l-184 -26l-31 125q-156 -134 -321 -134q-121 0 -190.5 67t-69.5 179q0 80 37.5 144.5t103.5 105.5q113 68 418 94v2q0 130 -34.5 181t-117.5 51q-132 0 -288 -103zM391 152q113 0 246 106v154
q-232 -16 -295 -56q-51 -33 -51 -104q0 -100 100 -100z" />
    <glyph glyph-name="b" unicode="b" horiz-adv-x="1112" 
d="M147 1534l224 4v-659q114 120 262 120q176 0 279.5 -138.5t103.5 -352.5q0 -105 -30.5 -199t-89 -169t-153 -119t-213.5 -44q-188 0 -383 60v1497zM545 164q52 0 96.5 15t65.5 38q48 52 63.5 113t15.5 155q0 154 -51.5 240t-144.5 86q-112 0 -219 -104v-525
q99 -18 174 -18z" />
    <glyph glyph-name="c" unicode="c" horiz-adv-x="931" 
d="M98 455q0 241 126.5 389.5t336.5 148.5q181 0 305 -133l-98 -135q-121 78 -221 78q-82 0 -131 -41q-92 -77 -92 -281q0 -160 62 -235.5t185 -75.5q103 0 236 47l47 -166q-154 -74 -313 -74q-206 0 -324.5 126.5t-118.5 351.5z" />
    <glyph glyph-name="d" unicode="d" horiz-adv-x="1122" 
d="M526 162q108 0 222 102v498q-83 49 -191 49q-104 0 -156 -55q-77 -80 -77 -264q0 -155 52 -242.5t150 -87.5zM96 446q-1 140 52 265t158.5 206.5t240.5 81.5q104 0 201 -65v600l221 4v-1159q0 -103 18 -367l-186 -24l-31 118q-132 -135 -285 -135q-164 0 -276 135.5
t-113 339.5z" />
    <glyph glyph-name="e" unicode="e" horiz-adv-x="1019" 
d="M98 455q0 152 53.5 273.5t159 194t246.5 72.5q180 0 273.5 -110.5t93.5 -292.5q0 -83 -17 -170h-583q23 -252 247 -252q150 0 275 47l53 -156q-178 -84 -367 -84q-197 0 -315.5 125.5t-118.5 352.5zM539 815q-183 0 -211 -240h372q2 18 2 58q0 182 -163 182z" />
    <glyph glyph-name="f" unicode="f" horiz-adv-x="733" 
d="M219 1143q0 118 36.5 209.5t118.5 149t201 57.5q150 0 267 -91l-82 -149q-92 45 -170 45q-148 0 -148 -186v-207h234v-185h-234v-786h-223v786h-147v185h147v172z" />
    <glyph glyph-name="g" unicode="g" horiz-adv-x="1056" 
d="M184 141q0 99 92 185q-86 43 -132 121t-46 174q0 74 27 140.5t77.5 118.5t131 82.5t180.5 30.5q117 0 207 -49q124 117 276 125l9 -188q-88 -10 -172 -31q65 -86 65 -201q0 -159 -114 -262.5t-308 -103.5q-23 0 -69 4q-21 -32 -21 -62q0 -24 9 -41t23.5 -27t41 -16
t52.5 -8.5t67 -3.5q195 -3 296 -74t101 -205q0 -167 -140 -268.5t-370 -101.5q-188 0 -304.5 78.5t-115.5 216.5q3 145 166 266q-29 44 -29 100zM500 -340q147 0 211 49q59 44 59 113q0 38 -18.5 62.5t-56.5 37t-80 17.5t-103 6q-102 0 -168 18q-92 -76 -92 -162
q0 -141 248 -141zM684 635q0 188 -188 188q-87 0 -137 -48t-50 -132q0 -192 189 -192q87 0 136.5 48.5t49.5 135.5z" />
    <glyph glyph-name="h" unicode="h" horiz-adv-x="1124" 
d="M152 1534l221 4v-645q135 106 311 106q153 0 225 -85t72 -252v-662h-221l-2 588q0 117 -30.5 168t-106.5 51q-124 0 -248 -76v-731h-221v1534z" />
    <glyph glyph-name="i" unicode="i" horiz-adv-x="522" 
d="M152 969l221 4v-973h-221v969zM127 1274q0 63 40.5 103t104.5 40q59 0 95 -35.5t36 -93.5q0 -63 -39.5 -102t-103.5 -39q-61 0 -97 34t-36 93z" />
    <glyph glyph-name="j" unicode="j" horiz-adv-x="524" 
d="M152 969l221 4v-914q0 -195 -73.5 -327t-211.5 -230l-119 119q89 94 136 203t47 254v891zM125 1274q0 63 40.5 103t104.5 40q59 0 95 -35.5t36 -93.5q0 -63 -39.5 -102t-103.5 -39q-61 0 -97 34t-36 93z" />
    <glyph glyph-name="k" unicode="k" horiz-adv-x="1062" 
d="M770 971h223q-3 -43 -51 -97l-291 -339l322 -433q35 -46 51 -102h-242l-270 381l-139 -150v-231h-221v1534l221 4v-1036z" />
    <glyph glyph-name="l" unicode="l" horiz-adv-x="571" 
d="M147 1534l222 4v-1286q0 -46 12 -65t43 -19q30 0 74 12l45 -166q-93 -37 -191 -37q-101 0 -153 57t-52 163v1337z" />
    <glyph glyph-name="m" unicode="m" horiz-adv-x="1681" 
d="M135 963l187 24l30 -133q72 74 150 109.5t174 35.5q191 0 250 -151q74 77 152 114t177 37q146 0 214.5 -87.5t68.5 -262.5v-649h-221v563q0 136 -27 191t-98 55q-111 0 -236 -100q2 -18 2 -60v-649h-223v563q0 136 -27 191t-98 55q-115 0 -235 -102v-707h-221v569
q0 129 -19 394z" />
    <glyph glyph-name="n" unicode="n" horiz-adv-x="1126" 
d="M135 963l187 24l30 -127q142 139 332 139q156 0 227.5 -85t71.5 -252v-662h-221v580q0 124 -29 176.5t-108 52.5q-124 0 -250 -102v-707h-221v569q0 129 -19 394z" />
    <glyph glyph-name="o" unicode="o" horiz-adv-x="1091" 
d="M96 459q0 105 31.5 201t89 172t148 121.5t200.5 45.5q196 0 313 -137.5t117 -353.5q0 -107 -31 -203t-88.5 -171t-147.5 -119t-200 -44q-197 0 -314.5 135t-117.5 353zM768 473q0 155 -57.5 245.5t-167.5 90.5q-95 0 -144 -57q-75 -85 -75 -260q0 -153 58.5 -242.5
t168.5 -89.5q92 0 143 59q74 83 74 254z" />
    <glyph glyph-name="p" unicode="p" horiz-adv-x="1122" 
d="M563 158q94 0 158 55q76 79 76 266q0 153 -52.5 241.5t-152.5 88.5q-98 0 -217 -92v-508q84 -51 188 -51zM135 963l187 24l28 -121q133 133 281 133q170 0 281.5 -136t113.5 -341q0 -141 -54.5 -266.5t-157.5 -205t-230 -79.5q-114 0 -209 64v-527h-221v1059
q0 93 -19 396z" />
    <glyph glyph-name="q" unicode="q" horiz-adv-x="1112" 
d="M98 459q0 85 18 162.5t57 146t96.5 118t140.5 78.5t184 29q187 0 373 -61v-1424h-224v541q-118 -78 -256 -78q-121 0 -210.5 66t-134 175t-44.5 247zM541 160q90 0 202 47v579q-87 19 -168 19q-116 0 -167 -51q-82 -84 -82 -271q0 -155 55 -239t160 -84z" />
    <glyph glyph-name="r" unicode="r" horiz-adv-x="792" 
d="M135 963l187 24l38 -174q106 180 261 180q80 0 139 -39l-39 -211q-58 15 -113 15q-142 0 -233 -129v-629h-221v569q0 91 -19 394z" />
    <glyph glyph-name="s" unicode="s" horiz-adv-x="917" 
d="M115 690q-3 138 106.5 220.5t270.5 82.5q166 0 309 -112l-96 -144q-115 72 -220 72q-68 0 -105.5 -25t-37.5 -65q0 -20 10.5 -38t24 -30.5t43 -27t52 -23.5t65.5 -25q55 -20 92 -36t78 -41.5t65.5 -53.5t40.5 -69t16 -90q0 -139 -106.5 -223.5t-282.5 -84.5
q-207 0 -364 121l90 146q136 -84 264 -84q75 0 121.5 27t46.5 73q0 35 -33.5 65t-66.5 45t-108 44l-15 6q-47 18 -80.5 33.5t-69.5 39.5t-57.5 50t-36.5 64t-16 83z" />
    <glyph glyph-name="t" unicode="t" horiz-adv-x="798" 
d="M248 1257h182v-286h293v-185h-293v-421q0 -115 25 -154t96 -39q62 0 151 18l41 -163q-136 -50 -280 -50q-129 0 -191.5 72t-62.5 254v483h-141v185h131z" />
    <glyph glyph-name="u" unicode="u" horiz-adv-x="1112" 
d="M143 969l222 4v-584q0 -121 34 -174t109 -53q114 0 229 98v711h221v-570q0 -92 19 -389l-184 -24l-31 114q-131 -131 -311 -131q-155 0 -231.5 86t-76.5 250v662z" />
    <glyph glyph-name="v" unicode="v" horiz-adv-x="1028" 
d="M752 971h221q0 -46 -23 -105l-319 -864l-242 -4l-307 868q-21 58 -21 105h228l170 -533q37 -106 53 -211h10z" />
    <glyph glyph-name="w" unicode="w" horiz-adv-x="1574" 
d="M684 969l223 4l156 -598l33 -148h8l194 744h220q0 -42 -23 -105l-281 -862l-247 -8l-152 528l-31 140h-4l-176 -660l-248 -8l-272 870q-21 69 -21 105h228l160 -596l32 -148h9z" />
    <glyph glyph-name="x" unicode="x" horiz-adv-x="1013" 
d="M84 971h238l188 -328h4l203 328h211q-3 -53 -39 -105l-246 -362l275 -400q36 -52 36 -104h-225l-231 360h-4l-228 -360h-205q0 49 37 102l264 402l-239 362q-36 50 -39 105z" />
    <glyph glyph-name="y" unicode="y" horiz-adv-x="1024" 
d="M752 971h217q0 -51 -21 -105l-323 -893q-98 -253 -210.5 -368t-260.5 -115q-57 0 -109 10v174q139 1 234 78.5t167 247.5h-57l-307 866q-21 50 -21 105h228l172 -533q34 -111 49 -211h8z" />
    <glyph glyph-name="z" unicode="z" horiz-adv-x="972" 
d="M119 971h737l25 -166l-521 -625h504l6 -180h-764l-22 166l518 625h-477z" />
    <glyph glyph-name="braceleft" unicode="{" horiz-adv-x="780" 
d="M47 592v135q63 13 102 35t58 59t25 75.5t6 100.5q0 68 -7.5 182.5t-7.5 163.5q0 87 26 158t70 118.5t104.5 79t128.5 44.5t142 10l17 -160q-134 -27 -199.5 -85t-65.5 -183q1 -57 8 -163t7 -165q0 -56 -3.5 -95.5t-15.5 -81.5t-34 -71t-60 -53t-92 -37q54 -13 92 -37
t60 -52.5t34 -71t15.5 -81.5t3.5 -95q0 -59 -7 -164t-8 -162q0 -65 18 -112t54.5 -76.5t82 -47.5t110.5 -30l-17 -160q-94 -3 -176.5 19t-149.5 69t-106 129t-39 190q0 48 7.5 162.5t7.5 182.5q0 61 -6 99.5t-25 75.5t-58 59.5t-102 35.5z" />
    <glyph glyph-name="bar" unicode="|" horiz-adv-x="542" 
d="M184 1741h174v-2183h-174v2183z" />
    <glyph glyph-name="braceright" unicode="}" horiz-adv-x="780" 
d="M70 1593l16 160q74 3 142 -10t128.5 -44.5t104.5 -79t70 -118.5t26 -158q0 -49 -7 -163.5t-7 -182.5q0 -49 3 -81.5t14 -66t31.5 -55t55.5 -39.5t86 -28v-135q-63 -13 -102 -35.5t-57.5 -59.5t-24.5 -75t-6 -100q0 -68 7 -182.5t7 -162.5q0 -108 -39 -190t-106 -129
t-149.5 -69t-176.5 -19l-16 160q134 25 199 82.5t65 183.5q-1 57 -8 162t-7 164q0 56 3.5 95t15.5 81.5t34 71t60 52.5t92 37q-54 13 -92 37t-60 53t-34 71t-15.5 81.5t-3.5 95.5q0 59 7 165t8 163q0 125 -64.5 183t-199.5 85z" />
    <glyph glyph-name="asciitilde" unicode="~" horiz-adv-x="1073" 
d="M686 571q24 0 44.5 10t38 30.5t26.5 34.5t22 38l125 -61q-25 -99 -95 -163.5t-159 -64.5q-45 0 -89 17.5t-72.5 38t-62.5 38t-63 17.5q-34 0 -64.5 -19.5t-44 -37.5t-34.5 -50l-125 66q32 93 104 155t162 62q47 0 91.5 -17.5t72.5 -38t61.5 -38t61.5 -17.5z" />
    <glyph glyph-name="uni00A0" unicode="&#xa0;" horiz-adv-x="434" 
 />
    <glyph glyph-name="exclamdown" unicode="&#xa1;" horiz-adv-x="552" 
d="M182 588h187l20 -989h-225zM141 860q0 60 36 96.5t95 36.5q63 0 100.5 -38.5t37.5 -104.5q0 -57 -35.5 -92t-95.5 -35q-62 0 -100 38t-38 99z" />
    <glyph glyph-name="cent" unicode="&#xa2;" horiz-adv-x="1105" 
d="M102 467q0 206 109.5 346t298.5 174v170h184v-166q203 -21 307 -145l-104 -135q-101 70 -203 86v-621q52 5 103.5 17.5t72 20.5t60.5 24l63 -152q-124 -85 -299 -102v-174h-184v174q-181 26 -294.5 154t-113.5 329zM328 479q0 -231 182 -289v596q-37 -12 -64 -30
q-57 -39 -87.5 -112t-30.5 -165z" />
    <glyph glyph-name="sterling" unicode="&#xa3;" horiz-adv-x="1054" 
d="M127 786h141q12 298 118.5 456.5t291.5 158.5q164 0 276 -70l-69 -166q-90 37 -170 37q-91 0 -140 -57q-73 -87 -79 -359h266v-192h-273q-17 -248 -118 -401h565l8 -193h-842l-14 170q24 23 33 31.5t31 33t32 42.5t26 52t24.5 69t16.5 86t11 110h-135v192z" />
    <glyph glyph-name="currency" unicode="&#xa4;" horiz-adv-x="1089" 
d="M197 567q0 100 49 187l-127 125l123 116l120 -123q82 50 183 50q96 0 180 -48l125 121l121 -116l-129 -123q53 -83 53 -189q0 -103 -51 -188l127 -135l-121 -113l-121 131q-79 -51 -184 -51q-104 0 -189 53l-114 -133l-123 113l127 137q-49 82 -49 186zM721 567
q0 75 -48 130t-128 55t-128 -55t-48 -130t48 -129.5t128 -54.5t128 54.5t48 129.5z" />
    <glyph glyph-name="yen" unicode="&#xa5;" horiz-adv-x="1230" 
d="M936 1372h227q-23 -82 -82 -172l-319 -522h291v-162h-332v-129h332v-160h-332v-227h-223v227h-322v160h322v129h-322v162h281l-310 522q-54 86 -77 172h235l191 -352l120 -232h2z" />
    <glyph glyph-name="brokenbar" unicode="&#xa6;" horiz-adv-x="540" 
d="M182 1741h174v-2183h-174v2183zM356 489v320h-174v-320h174z" />
    <glyph glyph-name="section" unicode="&#xa7;" horiz-adv-x="995" 
d="M471 352q43 -21 90 -45q133 95 133 211q0 125 -168 203q-38 17 -92 45q-131 -97 -133 -211q0 -130 170 -203zM174 1081q-1 79 30 141.5t85 101t122 58t146 19.5q164 0 301 -72l-67 -170q-125 55 -232 55q-72 0 -118 -32t-46 -90q0 -32 16.5 -59t46.5 -48t64 -39t76 -37
q6 -2 9.5 -3.5t8.5 -4l9 -4.5q134 -66 209 -150t75 -208q0 -94 -57.5 -177t-151.5 -147q120 -99 123 -225q1 -154 -109.5 -237t-273.5 -83q-159 0 -303 74l68 170q120 -55 231 -55q73 0 118.5 32.5t45.5 90.5q0 25 -12 48.5t-27.5 39t-47 35t-52.5 29.5t-62 29q-19 9 -28 13
q-134 66 -208.5 150t-74.5 206q0 182 207 326q-121 99 -121 223z" />
    <glyph glyph-name="dieresis" unicode="&#xa8;" horiz-adv-x="819" 
d="M487 1268q0 60 37.5 96.5t98.5 36.5q54 0 87 -30.5t33 -86.5q0 -61 -36 -98t-97 -37q-54 0 -88.5 31.5t-34.5 87.5zM88 1268q0 60 36 96.5t99 36.5q54 0 87.5 -30.5t33.5 -86.5q0 -61 -36 -98t-97 -37q-55 0 -89 31.5t-34 87.5z" />
    <glyph glyph-name="copyright" unicode="&#xa9;" horiz-adv-x="1587" 
d="M102 686q0 141 56 267t150.5 214t221.5 139.5t265 51.5t264.5 -51.5t220 -139.5t149.5 -214t56 -267t-56 -267t-149.5 -214t-220 -139.5t-264.5 -51.5t-265 51.5t-221.5 139.5t-150.5 214t-56 267zM446 672q0 77 22.5 146t66.5 125.5t117.5 90t166.5 33.5
q90 0 150.5 -32.5t91.5 -76.5l-86 -96q-74 53 -144 53q-87 0 -131 -47q-61 -61 -61 -178q0 -229 205 -229q19 0 37 2t29 4t29 8t22 7.5t23 10.5l20 9l53 -117q-30 -28 -97.5 -53t-152.5 -25q-169 0 -265 102.5t-96 262.5zM1329 686q0 148 -71.5 270.5t-194 192.5t-268.5 70
q-147 0 -269.5 -70t-194 -192.5t-71.5 -270.5t71.5 -270.5t194 -192t269.5 -69.5q146 0 268.5 69.5t194 192t71.5 270.5z" />
    <glyph glyph-name="ordfeminine" unicode="&#xaa;" horiz-adv-x="808" 
d="M137 1249q134 97 287 97q124 0 182 -56t58 -174v-133q0 -80 12 -244l-144 -22l-30 82q-97 -84 -205 -84q-86 0 -135 41t-49 114q0 96 90 152q84 50 278 65q-1 66 -21 89.5t-73 23.5q-78 0 -188 -55zM350 842q55 0 131 51v92q-116 -7 -166 -35q-28 -19 -28 -53
q0 -55 63 -55z" />
    <glyph glyph-name="guillemotleft" unicode="&#xab;" horiz-adv-x="1095" 
d="M86 532l346 414l141 -88l-262 -358l264 -361l-143 -90l-342 418zM508 532l346 414l141 -88l-262 -358l264 -361l-143 -90l-342 418z" />
    <glyph glyph-name="logicalnot" unicode="&#xac;" 
d="M174 627h776v-582l-196 2v404h-580v176z" />
    <glyph glyph-name="uni00AD" unicode="&#xad;" horiz-adv-x="722" 
d="M135 586h451v-176h-451v176z" />
    <glyph glyph-name="registered" unicode="&#xae;" horiz-adv-x="1175" 
d="M96 1067q0 131 64 241.5t177.5 175t250.5 64.5q206 0 348.5 -140.5t142.5 -340.5t-142.5 -341.5t-348.5 -141.5q-137 0 -250.5 65t-177.5 176t-64 242zM956 1067q0 156 -107.5 263.5t-260.5 107.5t-261 -107.5t-108 -263.5t108 -264.5t261 -108.5t260.5 108.5
t107.5 264.5zM557 1092q50 0 70 8q47 23 47 61q0 36 -27.5 51t-83.5 15q-31 0 -49 -2v-133h43zM412 1305q70 12 155 12q215 0 215 -146q0 -94 -94 -139l90 -145q15 -25 21 -47h-115l-92 168q-10 -2 -33 -2h-45v-166h-102v465z" />
    <glyph glyph-name="macron" unicode="&#xaf;" horiz-adv-x="819" 
d="M133 1321h553v-170h-553v170z" />
    <glyph glyph-name="degree" unicode="&#xb0;" horiz-adv-x="800" 
d="M102 1157q0 134 85.5 215.5t213.5 81.5q125 0 211 -82t86 -215t-86 -216t-211 -83q-127 0 -213 82.5t-86 216.5zM520 1157q0 73 -31.5 109.5t-87.5 36.5q-57 0 -88.5 -36.5t-31.5 -109.5t31.5 -110t88.5 -37q56 0 87.5 37t31.5 110z" />
    <glyph glyph-name="plusminus" unicode="&#xb1;" 
d="M473 1042h186v-311h306v-176h-306v-289h-186v289h-309v176h309v311zM164 176h801v-176h-801v176z" />
    <glyph glyph-name="twosuperior" unicode="&#xb2;" horiz-adv-x="665" 
d="M76 1530q101 82 248 82q120 0 183.5 -62.5t63.5 -163.5q0 -99 -59 -182.5t-172 -179.5l-31 -27h266l7 -149h-492l-10 149l119 107q99 90 131 129q55 69 55 127q0 92 -102 92q-75 0 -146 -39z" />
    <glyph glyph-name="threesuperior" unicode="&#xb3;" horiz-adv-x="663" 
d="M80 1542q100 70 242 70q108 0 171.5 -50.5t63.5 -140.5q0 -107 -92 -170q58 -24 88.5 -70.5t30.5 -107.5q0 -108 -76.5 -175t-212.5 -67q-134 0 -232 52l50 135q92 -33 166 -33q45 0 81 19q33 23 33 69q0 88 -141 88h-57l-7 137h66q117 0 117 88q0 35 -24.5 54.5
t-67.5 19.5q-49 0 -144 -33z" />
    <glyph glyph-name="acute" unicode="&#xb4;" horiz-adv-x="819" 
d="M240 1206l327 322l133 -148v-10l-358 -274z" />
    <glyph glyph-name="uni00B5" unicode="&#xb5;" horiz-adv-x="1263" 
d="M780 971h221v-680q0 -74 22.5 -98.5t70.5 -24.5q33 0 69 8l35 -162q-80 -37 -168 -37q-172 0 -209 150q-32 -71 -97 -110.5t-159 -39.5q-114 0 -180 66l12 -526h-219v1452l221 6v-600q0 -89 44 -148t128 -59q91 0 150 65.5t59 157.5v580z" />
    <glyph glyph-name="paragraph" unicode="&#xb6;" horiz-adv-x="1165" 
d="M61 971q0 108 42 191t117.5 133t173 75t214.5 25h66v-1844h-178v945q-216 31 -325.5 162t-109.5 313zM797 -449v1835q109 -7 176 -22v-1813h-176z" />
    <glyph glyph-name="periodcentered" unicode="&#xb7;" horiz-adv-x="466" 
d="M106 535q0 60 35.5 99.5t94.5 39.5q56 0 90 -37t34 -92q0 -63 -34.5 -104.5t-94.5 -41.5q-58 0 -91.5 39t-33.5 97z" />
    <glyph glyph-name="cedilla" unicode="&#xb8;" horiz-adv-x="819" 
d="M252 -158l102 215l142 -47l-52 -112h5q56 0 102.5 -14.5t81.5 -54.5t35 -101q0 -110 -107 -180t-289 -91l-26 135q94 15 149.5 47.5t55.5 75.5q0 32 -27 49t-68 17q-27 0 -55 -4z" />
    <glyph glyph-name="onesuperior" unicode="&#xb9;" horiz-adv-x="600" 
d="M72 1516l204 86l154 -3v-602h107l4 -149h-451v149h154v424l-125 -35z" />
    <glyph glyph-name="ordmasculine" unicode="&#xba;" horiz-adv-x="845" 
d="M104 1018q0 141 88 236.5t242 95.5q141 0 224 -88.5t83 -221.5q0 -142 -85.5 -235.5t-239.5 -93.5q-146 0 -229 86.5t-83 220.5zM553 1030q0 81 -33 131.5t-94 50.5q-47 0 -80 -26q-51 -48 -51 -154q0 -85 33.5 -135.5t97.5 -50.5q52 0 82 33q45 45 45 151z" />
    <glyph glyph-name="guillemotright" unicode="&#xbb;" horiz-adv-x="1095" 
d="M100 858l140 88l348 -414l-4 -65l-344 -418l-142 90l264 361zM522 858l140 88l348 -414l-4 -65l-344 -418l-142 90l264 361z" />
    <glyph glyph-name="onequarter" unicode="&#xbc;" horiz-adv-x="1677" 
d="M117 1270l233 86l152 -2v-602h135l4 -150h-508v150h184v426l-155 -41zM319 45l904 1378l133 -92l-903 -1378zM993 319l334 461l184 -2v-465h91l6 -145h-97v-139h-180v139h-319zM1278 471l-109 -158h162v244h-2z" />
    <glyph glyph-name="onehalf" unicode="&#xbd;" horiz-adv-x="1677" 
d="M117 1270l233 86l152 -2v-602h135l4 -150h-508v150h184v426l-155 -41zM319 45l904 1378l133 -92l-903 -1378zM1051 711q101 82 247 82q120 0 184 -62.5t64 -163.5q0 -99 -59 -182.5t-172 -179.5l-31 -27h266l6 -149h-491l-10 149l119 107q99 90 131 129q55 69 55 127
q0 92 -103 92q-73 0 -145 -39z" />
    <glyph glyph-name="threequarters" unicode="&#xbe;" horiz-adv-x="1677" 
d="M117 1296q104 70 241 70q110 0 173 -50t63 -140q0 -107 -92 -170q58 -24 88.5 -71t30.5 -108q0 -109 -75.5 -175t-213.5 -66q-136 0 -232 51l50 135q92 -33 165 -33q50 0 82 19q35 24 35 69q0 88 -143 88h-58l-6 138h68q115 0 115 88q0 35 -25 54t-68 19
q-17 0 -34.5 -2.5t-35 -7t-29 -7.5t-26.5 -8.5t-18 -6.5zM319 45l904 1378l133 -92l-903 -1378zM993 319l334 461l184 -2v-465h91l6 -145h-97v-139h-180v139h-319zM1278 471l-109 -158h162v244h-2z" />
    <glyph glyph-name="questiondown" unicode="&#xbf;" horiz-adv-x="837" 
d="M387 592l186 4q25 -80 25 -145q0 -49 -13 -92t-39.5 -81t-50.5 -64t-63 -62q-135 -131 -135 -248q0 -65 47.5 -101t128.5 -34q131 0 238 49l69 -148q-148 -96 -354 -96q-157 0 -257.5 79.5t-100.5 233.5q0 98 42.5 174t114.5 146q78 80 121 149.5t43 151.5q0 16 -1 45.5
t-1 38.5zM344 856q0 66 37 104.5t100 38.5q59 0 95 -36.5t36 -96.5q0 -62 -38 -99.5t-99 -37.5q-60 0 -95.5 35t-35.5 92z" />
    <glyph glyph-name="Agrave" unicode="&#xc0;" horiz-adv-x="1224" 
d="M614 1106l-186 -571h365l-93 290l-77 281h-9zM492 1368l253 8l408 -1265q19 -52 25 -111h-215l-109 344h-487l-113 -344h-221q8 52 26 109zM297 1657l63 188l451 -184l-47 -148l-467 134v10z" />
    <glyph glyph-name="Aacute" unicode="&#xc1;" horiz-adv-x="1224" 
d="M614 1106l-186 -571h365l-93 290l-77 281h-9zM492 1368l253 8l408 -1265q19 -52 25 -111h-215l-109 344h-487l-113 -344h-221q8 52 26 109zM418 1661l450 184l64 -188v-10l-467 -134z" />
    <glyph glyph-name="Acircumflex" unicode="&#xc2;" horiz-adv-x="1224" 
d="M614 1106l-186 -571h365l-93 290l-77 281h-9zM492 1368l253 8l408 -1265q19 -52 25 -111h-215l-109 344h-487l-113 -344h-221q8 52 26 109zM537 1833l153 8l262 -219l-94 -125l-246 170l-243 -168l-93 129z" />
    <glyph glyph-name="Atilde" unicode="&#xc3;" horiz-adv-x="1224" 
d="M614 1106l-186 -571h365l-93 290l-77 281h-9zM492 1368l253 8l408 -1265q19 -52 25 -111h-215l-109 344h-487l-113 -344h-221q8 52 26 109zM735 1700q57 0 119 131l131 -64q-88 -247 -252 -247q-44 0 -81.5 19.5t-58.5 43t-47.5 43t-49.5 19.5q-55 0 -123 -123l-129 65
q44 113 109.5 175.5t146.5 62.5q42 0 79 -19.5t58.5 -43t48 -43t49.5 -19.5z" />
    <glyph glyph-name="Adieresis" unicode="&#xc4;" horiz-adv-x="1224" 
d="M614 1106l-186 -571h365l-93 290l-77 281h-9zM492 1368l253 8l408 -1265q19 -52 25 -111h-215l-109 344h-487l-113 -344h-221q8 52 26 109zM692 1657q0 60 38.5 96.5t100.5 36.5q54 0 89.5 -32t35.5 -87q0 -60 -37.5 -96.5t-99.5 -36.5q-55 0 -91 32t-36 87zM272 1657
q0 60 38.5 96.5t101.5 36.5q54 0 88.5 -31.5t34.5 -87.5q0 -60 -37.5 -96.5t-98.5 -36.5q-56 0 -91.5 31.5t-35.5 87.5z" />
    <glyph glyph-name="Aring" unicode="&#xc5;" horiz-adv-x="1224" 
d="M614 1106l-186 -571h365l-93 290l-77 281h-9zM492 1368l253 8l408 -1265q19 -52 25 -111h-215l-109 344h-487l-113 -344h-221q8 52 26 109zM365 1694q0 108 72 170.5t190 62.5q104 0 171.5 -57.5t67.5 -155.5q0 -108 -73 -169.5t-189 -61.5q-105 0 -172 56.5t-67 154.5z
M713 1706q0 40 -25.5 66t-69.5 26q-47 0 -74.5 -26t-27.5 -70q0 -41 25.5 -66.5t68.5 -25.5q46 0 74.5 25t28.5 71z" />
    <glyph glyph-name="AE" unicode="&#xc6;" horiz-adv-x="1800" 
d="M772 993l-223 -428h330l2 615h-11zM745 1372h955l-6 -192h-590v-381h473v-193h-473v-413h596l8 -193h-829v369h-435l-192 -369h-236q3 25 35 90z" />
    <glyph glyph-name="Ccedilla" unicode="&#xc7;" horiz-adv-x="1185" 
d="M102 655q0 114 23.5 220t75 201.5t125 166t180.5 111.5t235 41q207 0 375 -101l-84 -176q-140 76 -293 76q-163 0 -260 -100q-73 -73 -107 -184t-34 -238q0 -78 12.5 -147.5t42.5 -134t76 -111t117.5 -74t161.5 -27.5q159 0 307 66l61 -174q-158 -81 -356 -90l-37 -82h4
q56 0 102.5 -14.5t81.5 -54.5t35 -101q0 -110 -106.5 -180t-288.5 -91l-27 135q94 15 149.5 47.5t55.5 75.5q0 32 -26.5 49t-67.5 17q-27 0 -55 -4l-50 65l70 144q-239 39 -368.5 220t-129.5 449z" />
    <glyph glyph-name="Egrave" unicode="&#xc8;" horiz-adv-x="1097" 
d="M178 1372h819l-6 -192h-590v-381h473v-193h-473v-413h596l9 -193h-830zM279 1657l63 188l451 -184l-48 -148l-466 134v10z" />
    <glyph glyph-name="Eacute" unicode="&#xc9;" horiz-adv-x="1097" 
d="M178 1372h819l-6 -192h-590v-381h473v-193h-473v-413h596l9 -193h-830zM399 1661l451 184l63 -188v-10l-467 -134z" />
    <glyph glyph-name="Ecircumflex" unicode="&#xca;" horiz-adv-x="1097" 
d="M178 1372h819l-6 -192h-590v-381h473v-193h-473v-413h596l9 -193h-830zM518 1833l154 8l262 -219l-94 -125l-246 170l-244 -168l-92 129z" />
    <glyph glyph-name="Edieresis" unicode="&#xcb;" horiz-adv-x="1097" 
d="M178 1372h819l-6 -192h-590v-381h473v-193h-473v-413h596l9 -193h-830zM674 1657q0 60 38.5 96.5t100.5 36.5q54 0 89.5 -32t35.5 -87q0 -60 -37.5 -96.5t-99.5 -36.5q-55 0 -91 32t-36 87zM254 1657q0 60 38 96.5t101 36.5q54 0 88.5 -31.5t34.5 -87.5q0 -60 -37 -96.5
t-98 -36.5q-56 0 -91.5 31.5t-35.5 87.5z" />
    <glyph glyph-name="Igrave" unicode="&#xcc;" horiz-adv-x="577" 
d="M176 1372h225v-1372h-225v1372zM-29 1657l64 188l450 -184l-47 -148l-467 134v10z" />
    <glyph glyph-name="Iacute" unicode="&#xcd;" horiz-adv-x="577" 
d="M176 1372h225v-1372h-225v1372zM92 1661l451 184l63 -188v-10l-467 -134z" />
    <glyph glyph-name="Icircumflex" unicode="&#xce;" horiz-adv-x="577" 
d="M176 1372h225v-1372h-225v1372zM211 1833l154 8l262 -219l-95 -125l-245 170l-244 -168l-92 129z" />
    <glyph glyph-name="Idieresis" unicode="&#xcf;" horiz-adv-x="577" 
d="M176 1372h225v-1372h-225v1372zM367 1657q0 60 38.5 96.5t100.5 36.5q54 0 89.5 -32t35.5 -87q0 -60 -37.5 -96.5t-99.5 -36.5q-55 0 -91 32t-36 87zM-53 1657q0 60 38 96.5t101 36.5q54 0 88.5 -31.5t34.5 -87.5q0 -60 -37 -96.5t-98 -36.5q-56 0 -91.5 31.5t-35.5 87.5
z" />
    <glyph glyph-name="Eth" unicode="&#xd0;" horiz-adv-x="1386" 
d="M193 1362q251 33 432 33q307 0 484 -187.5t177 -498.5q0 -214 -84.5 -380t-242 -259t-365.5 -93q-200 0 -401 31v606h-140v177h140v571zM586 178q160 0 254 64q107 71 160 189t53 265q-2 231 -115.5 364.5t-319.5 133.5q-92 0 -202 -10v-393h305v-177h-305v-428
q68 -8 170 -8z" />
    <glyph glyph-name="Ntilde" unicode="&#xd1;" horiz-adv-x="1413" 
d="M176 1372h256l500 -860l106 -229h2l-10 258v831h205v-1372h-254l-508 870l-96 209h-4l8 -225v-854h-205v1372zM848 1700q57 0 119 131l131 -64q-88 -247 -252 -247q-44 0 -81.5 19.5t-59 43t-48 43t-49.5 19.5q-55 0 -123 -123l-129 65q44 113 109.5 175.5t146.5 62.5
q42 0 79 -19.5t59 -43t48.5 -43t49.5 -19.5z" />
    <glyph glyph-name="Ograve" unicode="&#xd2;" horiz-adv-x="1419" 
d="M102 666q0 143 38.5 272.5t112.5 234t194.5 166.5t271.5 62q114 0 210.5 -35.5t167.5 -99t121 -150.5t74.5 -190.5t24.5 -218.5q0 -114 -23.5 -220t-73.5 -200t-121.5 -164t-173.5 -111t-223 -41q-142 0 -257 55t-189.5 150t-114 220.5t-39.5 269.5zM1081 688
q0 106 -24 198t-69.5 162.5t-117 111t-161.5 40.5q-124 0 -207 -72q-84 -74 -125 -193t-41 -251q0 -142 41.5 -256.5t128.5 -185t207 -70.5q126 0 205 72q85 73 124 191.5t39 252.5zM393 1657l64 188l450 -184l-47 -148l-467 134v10z" />
    <glyph glyph-name="Oacute" unicode="&#xd3;" horiz-adv-x="1419" 
d="M102 666q0 143 38.5 272.5t112.5 234t194.5 166.5t271.5 62q114 0 210.5 -35.5t167.5 -99t121 -150.5t74.5 -190.5t24.5 -218.5q0 -114 -23.5 -220t-73.5 -200t-121.5 -164t-173.5 -111t-223 -41q-142 0 -257 55t-189.5 150t-114 220.5t-39.5 269.5zM1081 688
q0 106 -24 198t-69.5 162.5t-117 111t-161.5 40.5q-124 0 -207 -72q-84 -74 -125 -193t-41 -251q0 -142 41.5 -256.5t128.5 -185t207 -70.5q126 0 205 72q85 73 124 191.5t39 252.5zM514 1661l451 184l63 -188v-10l-467 -134z" />
    <glyph glyph-name="Ocircumflex" unicode="&#xd4;" horiz-adv-x="1419" 
d="M102 666q0 143 38.5 272.5t112.5 234t194.5 166.5t271.5 62q114 0 210.5 -35.5t167.5 -99t121 -150.5t74.5 -190.5t24.5 -218.5q0 -114 -23.5 -220t-73.5 -200t-121.5 -164t-173.5 -111t-223 -41q-142 0 -257 55t-189.5 150t-114 220.5t-39.5 269.5zM1081 688
q0 106 -24 198t-69.5 162.5t-117 111t-161.5 40.5q-124 0 -207 -72q-84 -74 -125 -193t-41 -251q0 -142 41.5 -256.5t128.5 -185t207 -70.5q126 0 205 72q85 73 124 191.5t39 252.5zM633 1833l153 8l263 -219l-95 -125l-245 170l-244 -168l-92 129z" />
    <glyph glyph-name="Otilde" unicode="&#xd5;" horiz-adv-x="1419" 
d="M102 666q0 143 38.5 272.5t112.5 234t194.5 166.5t271.5 62q114 0 210.5 -35.5t167.5 -99t121 -150.5t74.5 -190.5t24.5 -218.5q0 -114 -23.5 -220t-73.5 -200t-121.5 -164t-173.5 -111t-223 -41q-142 0 -257 55t-189.5 150t-114 220.5t-39.5 269.5zM1081 688
q0 106 -24 198t-69.5 162.5t-117 111t-161.5 40.5q-124 0 -207 -72q-84 -74 -125 -193t-41 -251q0 -142 41.5 -256.5t128.5 -185t207 -70.5q126 0 205 72q85 73 124 191.5t39 252.5zM831 1700q57 0 119 131l131 -64q-88 -247 -252 -247q-44 0 -81.5 19.5t-58.5 43t-47.5 43
t-49.5 19.5q-55 0 -123 -123l-129 65q44 113 109.5 175.5t146.5 62.5q42 0 79 -19.5t58.5 -43t48 -43t49.5 -19.5z" />
    <glyph glyph-name="Odieresis" unicode="&#xd6;" horiz-adv-x="1419" 
d="M102 666q0 143 38.5 272.5t112.5 234t194.5 166.5t271.5 62q114 0 210.5 -35.5t167.5 -99t121 -150.5t74.5 -190.5t24.5 -218.5q0 -114 -23.5 -220t-73.5 -200t-121.5 -164t-173.5 -111t-223 -41q-142 0 -257 55t-189.5 150t-114 220.5t-39.5 269.5zM1081 688
q0 106 -24 198t-69.5 162.5t-117 111t-161.5 40.5q-124 0 -207 -72q-84 -74 -125 -193t-41 -251q0 -142 41.5 -256.5t128.5 -185t207 -70.5q126 0 205 72q85 73 124 191.5t39 252.5zM788 1657q0 60 39 96.5t101 36.5q54 0 89.5 -32t35.5 -87q0 -60 -38 -96.5t-100 -36.5
q-55 0 -91 32t-36 87zM369 1657q0 60 38 96.5t101 36.5q54 0 88.5 -31.5t34.5 -87.5q0 -60 -37 -96.5t-98 -36.5q-56 0 -91.5 31.5t-35.5 87.5z" />
    <glyph glyph-name="multiply" unicode="&#xd7;" 
d="M813 162l-248 256l-248 -256l-127 112l256 265l-256 264l127 112l248 -256l248 256l125 -112l-256 -264l256 -267z" />
    <glyph glyph-name="Oslash" unicode="&#xd8;" horiz-adv-x="1400" 
d="M102 666q0 143 38.5 273t111.5 234t191 166t266 62q145 0 262 -60l80 144l151 -88l-90 -160q91 -96 138.5 -233t47.5 -297q0 -114 -23 -220t-72.5 -200t-119.5 -164t-171 -111t-220 -41q-148 0 -262 60l-80 -140l-149 86l88 158q-90 95 -138.5 233.5t-48.5 297.5z
M338 684q0 -196 74 -332l454 805q-71 47 -168 47q-122 0 -200 -71q-82 -72 -121 -193.5t-39 -255.5zM1063 688q0 196 -74 332l-457 -805q74 -47 168 -47q125 0 201 72q82 72 122 193.5t40 254.5z" />
    <glyph glyph-name="Ugrave" unicode="&#xd9;" horiz-adv-x="1331" 
d="M946 1372h223v-819q0 -132 -29.5 -236.5t-91 -183t-163 -120.5t-238.5 -42q-235 0 -359 137t-124 398v866h223v-833q0 -189 63.5 -279t219.5 -90q55 0 103.5 19.5t78.5 48.5q94 88 94 268v866zM346 1657l64 188l450 -184l-47 -148l-467 134v10z" />
    <glyph glyph-name="Uacute" unicode="&#xda;" horiz-adv-x="1331" 
d="M946 1372h223v-819q0 -132 -29.5 -236.5t-91 -183t-163 -120.5t-238.5 -42q-235 0 -359 137t-124 398v866h223v-833q0 -189 63.5 -279t219.5 -90q55 0 103.5 19.5t78.5 48.5q94 88 94 268v866zM467 1661l451 184l63 -188v-10l-467 -134z" />
    <glyph glyph-name="Ucircumflex" unicode="&#xdb;" horiz-adv-x="1331" 
d="M946 1372h223v-819q0 -132 -29.5 -236.5t-91 -183t-163 -120.5t-238.5 -42q-235 0 -359 137t-124 398v866h223v-833q0 -189 63.5 -279t219.5 -90q55 0 103.5 19.5t78.5 48.5q94 88 94 268v866zM586 1833l153 8l262 -219l-94 -125l-245 170l-244 -168l-92 129z" />
    <glyph glyph-name="Udieresis" unicode="&#xdc;" horiz-adv-x="1331" 
d="M946 1372h223v-819q0 -132 -29.5 -236.5t-91 -183t-163 -120.5t-238.5 -42q-235 0 -359 137t-124 398v866h223v-833q0 -189 63.5 -279t219.5 -90q55 0 103.5 19.5t78.5 48.5q94 88 94 268v866zM741 1657q0 60 39 96.5t101 36.5q54 0 89.5 -32t35.5 -87q0 -60 -38 -96.5
t-100 -36.5q-55 0 -91 32t-36 87zM322 1657q0 60 38 96.5t101 36.5q54 0 88.5 -31.5t34.5 -87.5q0 -60 -37 -96.5t-98 -36.5q-56 0 -91.5 31.5t-35.5 87.5z" />
    <glyph glyph-name="Yacute" unicode="&#xdd;" horiz-adv-x="1155" 
d="M899 1372h227q-6 -40 -72 -160q-5 -8 -7 -12l-361 -663v-537h-223v547l-350 653q-72 125 -76 172h235l222 -418l90 -188h4zM383 1661l451 184l63 -188v-10l-467 -134z" />
    <glyph glyph-name="Thorn" unicode="&#xde;" horiz-adv-x="1189" 
d="M522 442q141 0 223 43q132 66 132 248q0 122 -84 182t-234 60q-85 0 -158 -8v-518q79 -7 121 -7zM176 1372h225v-207q110 9 158 9q165 0 286.5 -43.5t193 -140t71.5 -238.5q0 -110 -37.5 -201.5t-108.5 -159.5t-181 -105.5t-248 -37.5q-63 0 -134 6v-254h-225v1372z" />
    <glyph glyph-name="germandbls" unicode="&#xdf;" horiz-adv-x="1220" 
d="M219 1130q0 187 104.5 308.5t284.5 120.5q163 -1 250.5 -91t87.5 -239q1 -57 -13.5 -112.5t-35 -99.5t-41 -84t-35 -82.5t-14.5 -80.5q0 -57 27.5 -96.5t89.5 -79.5q50 -34 78.5 -55t62 -52t50.5 -59t28.5 -67t11.5 -85q0 -133 -88.5 -216t-243.5 -83q-170 0 -297 74
l64 160q121 -55 231 -53q121 0 121 102q0 39 -32.5 73.5t-110.5 88.5q-106 73 -154.5 142.5t-48.5 172.5q0 57 14 109t34 93t40 82.5t34 94.5t13 111q-2 70 -34 108.5t-93 38.5q-84 0 -123 -51.5t-39 -153.5v-1169h-221l-2 786h-147v185h147v159z" />
    <glyph glyph-name="agrave" unicode="&#xe0;" horiz-adv-x="1003" 
d="M119 836q181 157 413 157q168 0 247 -86t79 -276v-242q0 -90 16 -377l-184 -26l-31 125q-156 -134 -321 -134q-121 0 -190.5 67t-69.5 179q0 80 37.5 144.5t103.5 105.5q113 68 418 94v2q0 130 -34.5 181t-117.5 51q-132 0 -288 -103zM391 152q113 0 246 106v154
q-232 -16 -295 -56q-51 -33 -51 -104q0 -100 100 -100zM227 1380l131 148l328 -322l-102 -110l-357 274v10z" />
    <glyph glyph-name="aacute" unicode="&#xe1;" horiz-adv-x="1003" 
d="M119 836q181 157 413 157q168 0 247 -86t79 -276v-242q0 -90 16 -377l-184 -26l-31 125q-156 -134 -321 -134q-121 0 -190.5 67t-69.5 179q0 80 37.5 144.5t103.5 105.5q113 68 418 94v2q0 130 -34.5 181t-117.5 51q-132 0 -288 -103zM391 152q113 0 246 106v154
q-232 -16 -295 -56q-51 -33 -51 -104q0 -100 100 -100zM315 1206l328 322l133 -148v-10l-358 -274z" />
    <glyph glyph-name="acircumflex" unicode="&#xe2;" horiz-adv-x="1003" 
d="M119 836q181 157 413 157q168 0 247 -86t79 -276v-242q0 -90 16 -377l-184 -26l-31 125q-156 -134 -321 -134q-121 0 -190.5 67t-69.5 179q0 80 37.5 144.5t103.5 105.5q113 68 418 94v2q0 130 -34.5 181t-117.5 51q-132 0 -288 -103zM391 152q113 0 246 106v154
q-232 -16 -295 -56q-51 -33 -51 -104q0 -100 100 -100zM406 1503l161 6l256 -301l-112 -106l-228 223l-225 -221l-108 106z" />
    <glyph glyph-name="atilde" unicode="&#xe3;" horiz-adv-x="1003" 
d="M119 836q181 157 413 157q168 0 247 -86t79 -276v-242q0 -90 16 -377l-184 -26l-31 125q-156 -134 -321 -134q-121 0 -190.5 67t-69.5 179q0 80 37.5 144.5t103.5 105.5q113 68 418 94v2q0 130 -34.5 181t-117.5 51q-132 0 -288 -103zM391 152q113 0 246 106v154
q-232 -16 -295 -56q-51 -33 -51 -104q0 -100 100 -100zM604 1296q63 0 121 125l129 -61q-36 -120 -101.5 -183t-146.5 -63q-45 0 -83.5 18.5t-60 41t-47 41t-48.5 18.5q-22 0 -45.5 -20t-37.5 -40.5t-40 -62.5l-127 70q40 113 105 174t149 61q43 0 81 -18.5t60 -41t47 -41
t45 -18.5z" />
    <glyph glyph-name="adieresis" unicode="&#xe4;" horiz-adv-x="1003" 
d="M119 836q181 157 413 157q168 0 247 -86t79 -276v-242q0 -90 16 -377l-184 -26l-31 125q-156 -134 -321 -134q-121 0 -190.5 67t-69.5 179q0 80 37.5 144.5t103.5 105.5q113 68 418 94v2q0 130 -34.5 181t-117.5 51q-132 0 -288 -103zM391 152q113 0 246 106v154
q-232 -16 -295 -56q-51 -33 -51 -104q0 -100 100 -100zM563 1268q0 60 37 96.5t98 36.5q54 0 87.5 -30.5t33.5 -86.5q0 -61 -36 -98t-97 -37q-54 0 -88.5 31.5t-34.5 87.5zM164 1268q0 60 36 96.5t99 36.5q54 0 87.5 -30.5t33.5 -86.5q0 -61 -36 -98t-97 -37q-55 0 -89 31.5
t-34 87.5z" />
    <glyph glyph-name="aring" unicode="&#xe5;" horiz-adv-x="1003" 
d="M119 836q181 157 413 157q168 0 247 -86t79 -276v-242q0 -90 16 -377l-184 -26l-31 125q-156 -134 -321 -134q-121 0 -190.5 67t-69.5 179q0 80 37.5 144.5t103.5 105.5q113 68 418 94v2q0 130 -34.5 181t-117.5 51q-132 0 -288 -103zM391 152q113 0 246 106v154
q-232 -16 -295 -56q-51 -33 -51 -104q0 -100 100 -100zM236 1300q0 109 73 175.5t189 66.5q106 0 173.5 -60t67.5 -159q0 -109 -73.5 -176.5t-188.5 -67.5q-106 0 -173.5 61t-67.5 160zM584 1315q0 45 -24 70.5t-68 25.5q-49 0 -76 -27t-27 -77q0 -45 24.5 -70t69.5 -25
q101 0 101 103z" />
    <glyph glyph-name="ae" unicode="&#xe6;" horiz-adv-x="1552" 
d="M1071 815q-91 0 -144 -62.5t-67 -177.5h375q2 18 2 58q0 87 -41.5 134.5t-124.5 47.5zM219 471q123 75 416 100q0 129 -33.5 179.5t-116.5 50.5q-134 0 -290 -101l-72 136q170 157 407 157q191 0 256 -127q123 129 306 129q180 0 273 -110.5t93 -292.5q0 -94 -18 -170
h-584q23 -252 248 -252q148 0 276 47l52 -156q-178 -84 -365 -84q-106 0 -193.5 41t-144.5 119q-164 -160 -371 -160q-133 0 -208.5 64.5t-75.5 181.5q0 79 39 143t106 105zM395 152q62 0 134 31.5t137 88.5q-19 69 -25 146q-226 -19 -297 -64q-55 -33 -55 -98
q0 -53 25.5 -78.5t80.5 -25.5z" />
    <glyph glyph-name="ccedilla" unicode="&#xe7;" horiz-adv-x="931" 
d="M98 455q0 241 126.5 389.5t336.5 148.5q181 0 305 -133l-98 -135q-121 78 -221 78q-82 0 -131 -41q-92 -77 -92 -281q0 -160 62 -235.5t185 -75.5q103 0 236 47l47 -166q-125 -61 -264 -71l-37 -82h4q56 0 102.5 -14.5t81.5 -54.5t35 -101q0 -110 -106.5 -180t-288.5 -91
l-27 135q94 15 149.5 47.5t55.5 75.5q0 32 -26.5 49t-67.5 17q-27 0 -55 -4l-50 65l70 146q-158 32 -245 153.5t-87 313.5z" />
    <glyph glyph-name="egrave" unicode="&#xe8;" horiz-adv-x="1019" 
d="M98 455q0 152 53.5 273.5t159 194t246.5 72.5q180 0 273.5 -110.5t93.5 -292.5q0 -83 -17 -170h-583q23 -252 247 -252q150 0 275 47l53 -156q-178 -84 -367 -84q-197 0 -315.5 125.5t-118.5 352.5zM539 815q-183 0 -211 -240h372q2 18 2 58q0 182 -163 182zM270 1380
l131 148l328 -322l-102 -110l-357 274v10z" />
    <glyph glyph-name="eacute" unicode="&#xe9;" horiz-adv-x="1019" 
d="M98 455q0 152 53.5 273.5t159 194t246.5 72.5q180 0 273.5 -110.5t93.5 -292.5q0 -83 -17 -170h-583q23 -252 247 -252q150 0 275 47l53 -156q-178 -84 -367 -84q-197 0 -315.5 125.5t-118.5 352.5zM539 815q-183 0 -211 -240h372q2 18 2 58q0 182 -163 182zM358 1206
l328 322l133 -148v-10l-358 -274z" />
    <glyph glyph-name="ecircumflex" unicode="&#xea;" horiz-adv-x="1019" 
d="M98 455q0 152 53.5 273.5t159 194t246.5 72.5q180 0 273.5 -110.5t93.5 -292.5q0 -83 -17 -170h-583q23 -252 247 -252q150 0 275 47l53 -156q-178 -84 -367 -84q-197 0 -315.5 125.5t-118.5 352.5zM539 815q-183 0 -211 -240h372q2 18 2 58q0 182 -163 182zM449 1503
l161 6l256 -301l-112 -106l-228 223l-225 -221l-108 106z" />
    <glyph glyph-name="edieresis" unicode="&#xeb;" horiz-adv-x="1019" 
d="M98 455q0 152 53.5 273.5t159 194t246.5 72.5q180 0 273.5 -110.5t93.5 -292.5q0 -83 -17 -170h-583q23 -252 247 -252q150 0 275 47l53 -156q-178 -84 -367 -84q-197 0 -315.5 125.5t-118.5 352.5zM539 815q-183 0 -211 -240h372q2 18 2 58q0 182 -163 182zM606 1268
q0 60 37 96.5t98 36.5q54 0 87.5 -30.5t33.5 -86.5q0 -61 -36 -98t-97 -37q-54 0 -88.5 31.5t-34.5 87.5zM207 1268q0 60 36.5 96.5t98.5 36.5q54 0 87.5 -30.5t33.5 -86.5q0 -61 -36 -98t-97 -37q-55 0 -89 31.5t-34 87.5z" />
    <glyph glyph-name="igrave" unicode="&#xec;" horiz-adv-x="522" 
d="M152 969l221 4v-973h-221v969zM6 1380l131 148l328 -322l-103 -110l-356 274v10z" />
    <glyph glyph-name="iacute" unicode="&#xed;" horiz-adv-x="522" 
d="M152 969l221 4v-973h-221v969zM94 1206l328 322l133 -148v-10l-358 -274z" />
    <glyph glyph-name="icircumflex" unicode="&#xee;" horiz-adv-x="522" 
d="M152 969l221 4v-973h-221v969zM184 1501l162 8l223 -305l-114 -98l-191 217l-192 -215l-109 96z" />
    <glyph glyph-name="idieresis" unicode="&#xef;" horiz-adv-x="522" 
d="M152 969l221 4v-973h-221v969zM307 1268q0 60 37.5 96.5t99.5 36.5q54 0 87.5 -30.5t33.5 -86.5q0 -60 -37 -97.5t-98 -37.5q-53 0 -88 32t-35 87zM-37 1268q0 60 36.5 96.5t98.5 36.5q54 0 87.5 -30.5t33.5 -86.5q0 -61 -36 -98t-97 -37q-55 0 -89 31.5t-34 87.5z" />
    <glyph glyph-name="eth" unicode="&#xf0;" horiz-adv-x="1110" 
d="M299 1427l80 142q159 -56 283 -156l204 113l82 -140l-170 -92q113 -139 166 -318t53 -372q0 -311 -125 -472t-337 -161q-196 0 -317.5 129.5t-121.5 341.5q0 78 17.5 153t55 143.5t90.5 120t129.5 82t166.5 30.5q57 0 94 -10.5t82 -36.5q-46 155 -139 268l-301 -164
l-76 141l260 142q-72 61 -176 116zM555 160q120 0 170 96t53 285q-3 128 -68.5 189t-162.5 61q-90 0 -146 -56q-37 -40 -57 -110t-20 -152q0 -141 57.5 -227t173.5 -86z" />
    <glyph glyph-name="ntilde" unicode="&#xf1;" horiz-adv-x="1126" 
d="M135 963l187 24l30 -127q142 139 332 139q156 0 227.5 -85t71.5 -252v-662h-221v580q0 124 -29 176.5t-108 52.5q-124 0 -250 -102v-707h-221v569q0 129 -19 394zM688 1296q63 0 121 125l129 -61q-36 -120 -101.5 -183t-146.5 -63q-45 0 -83.5 18.5t-60 41t-47 41
t-48.5 18.5q-22 0 -45.5 -20t-37.5 -40.5t-40 -62.5l-127 70q40 113 105 174t149 61q43 0 81 -18.5t60 -41t47 -41t45 -18.5z" />
    <glyph glyph-name="ograve" unicode="&#xf2;" horiz-adv-x="1091" 
d="M96 459q0 105 31.5 201t89 172t148 121.5t200.5 45.5q196 0 313 -137.5t117 -353.5q0 -107 -31 -203t-88.5 -171t-147.5 -119t-200 -44q-197 0 -314.5 135t-117.5 353zM768 473q0 155 -57.5 245.5t-167.5 90.5q-95 0 -144 -57q-75 -85 -75 -260q0 -153 58.5 -242.5
t168.5 -89.5q92 0 143 59q74 83 74 254zM293 1380l131 148l328 -322l-103 -110l-356 274v10z" />
    <glyph glyph-name="oacute" unicode="&#xf3;" horiz-adv-x="1091" 
d="M96 459q0 105 31.5 201t89 172t148 121.5t200.5 45.5q196 0 313 -137.5t117 -353.5q0 -107 -31 -203t-88.5 -171t-147.5 -119t-200 -44q-197 0 -314.5 135t-117.5 353zM768 473q0 155 -57.5 245.5t-167.5 90.5q-95 0 -144 -57q-75 -85 -75 -260q0 -153 58.5 -242.5
t168.5 -89.5q92 0 143 59q74 83 74 254zM381 1206l328 322l133 -148v-10l-359 -274z" />
    <glyph glyph-name="ocircumflex" unicode="&#xf4;" horiz-adv-x="1091" 
d="M96 459q0 105 31.5 201t89 172t148 121.5t200.5 45.5q196 0 313 -137.5t117 -353.5q0 -107 -31 -203t-88.5 -171t-147.5 -119t-200 -44q-197 0 -314.5 135t-117.5 353zM768 473q0 155 -57.5 245.5t-167.5 90.5q-95 0 -144 -57q-75 -85 -75 -260q0 -153 58.5 -242.5
t168.5 -89.5q92 0 143 59q74 83 74 254zM471 1503l162 6l256 -301l-113 -106l-227 223l-225 -221l-109 106z" />
    <glyph glyph-name="otilde" unicode="&#xf5;" horiz-adv-x="1091" 
d="M96 459q0 105 31.5 201t89 172t148 121.5t200.5 45.5q196 0 313 -137.5t117 -353.5q0 -107 -31 -203t-88.5 -171t-147.5 -119t-200 -44q-197 0 -314.5 135t-117.5 353zM768 473q0 155 -57.5 245.5t-167.5 90.5q-95 0 -144 -57q-75 -85 -75 -260q0 -153 58.5 -242.5
t168.5 -89.5q92 0 143 59q74 83 74 254zM670 1296q63 0 121 125l129 -61q-36 -120 -101.5 -183t-146.5 -63q-45 0 -83.5 18.5t-60.5 41t-47.5 41t-48.5 18.5q-22 0 -45.5 -20t-37.5 -40.5t-40 -62.5l-127 70q40 113 105 174t149 61q43 0 81 -18.5t60 -41t47.5 -41
t45.5 -18.5z" />
    <glyph glyph-name="odieresis" unicode="&#xf6;" horiz-adv-x="1091" 
d="M96 459q0 105 31.5 201t89 172t148 121.5t200.5 45.5q196 0 313 -137.5t117 -353.5q0 -107 -31 -203t-88.5 -171t-147.5 -119t-200 -44q-197 0 -314.5 135t-117.5 353zM768 473q0 155 -57.5 245.5t-167.5 90.5q-95 0 -144 -57q-75 -85 -75 -260q0 -153 58.5 -242.5
t168.5 -89.5q92 0 143 59q74 83 74 254zM629 1268q0 60 37 96.5t98 36.5q54 0 87.5 -30.5t33.5 -86.5q0 -61 -36 -98t-97 -37q-54 0 -88.5 31.5t-34.5 87.5zM229 1268q0 60 36.5 96.5t99.5 36.5q54 0 87 -30.5t33 -86.5q0 -61 -36 -98t-97 -37q-55 0 -89 31.5t-34 87.5z" />
    <glyph glyph-name="divide" unicode="&#xf7;" 
d="M164 627h801v-176h-801v176zM444 203q0 55 34 88t89 33q51 0 84 -31t33 -82q0 -56 -33.5 -92.5t-87.5 -36.5q-51 0 -85 34.5t-34 86.5zM444 872q0 53 34.5 88t88.5 35q51 0 85 -32t34 -84q0 -56 -35 -90.5t-90 -34.5q-50 0 -83.5 32.5t-33.5 85.5z" />
    <glyph glyph-name="oslash" unicode="&#xf8;" horiz-adv-x="1091" 
d="M96 459q0 105 31.5 201t89 172t148 121.5t200.5 45.5q74 0 142 -22l59 123l133 -72l-61 -125q75 -66 116 -168.5t41 -226.5q0 -107 -31 -203t-88.5 -171t-147.5 -119t-200 -44q-72 0 -143 23l-61 -125l-134 65l66 132q-77 65 -118.5 166.5t-41.5 226.5zM324 492
q0 -132 38 -207l254 512q-34 12 -73 12q-95 0 -144 -57q-75 -85 -75 -260zM768 473q0 132 -39 211l-254 -510q32 -14 76 -14q92 0 143 59q74 83 74 254z" />
    <glyph glyph-name="ugrave" unicode="&#xf9;" horiz-adv-x="1112" 
d="M143 969l222 4v-584q0 -121 34 -174t109 -53q114 0 229 98v711h221v-570q0 -92 19 -389l-184 -24l-31 114q-131 -131 -311 -131q-155 0 -231.5 86t-76.5 250v662zM291 1380l131 148l328 -322l-103 -110l-356 274v10z" />
    <glyph glyph-name="uacute" unicode="&#xfa;" horiz-adv-x="1112" 
d="M143 969l222 4v-584q0 -121 34 -174t109 -53q114 0 229 98v711h221v-570q0 -92 19 -389l-184 -24l-31 114q-131 -131 -311 -131q-155 0 -231.5 86t-76.5 250v662zM379 1206l328 322l133 -148v-10l-359 -274z" />
    <glyph glyph-name="ucircumflex" unicode="&#xfb;" horiz-adv-x="1112" 
d="M143 969l222 4v-584q0 -121 34 -174t109 -53q114 0 229 98v711h221v-570q0 -92 19 -389l-184 -24l-31 114q-131 -131 -311 -131q-155 0 -231.5 86t-76.5 250v662zM469 1503l162 6l256 -301l-113 -106l-227 223l-225 -221l-109 106z" />
    <glyph glyph-name="udieresis" unicode="&#xfc;" horiz-adv-x="1112" 
d="M143 969l222 4v-584q0 -121 34 -174t109 -53q114 0 229 98v711h221v-570q0 -92 19 -389l-184 -24l-31 114q-131 -131 -311 -131q-155 0 -231.5 86t-76.5 250v662zM627 1268q0 60 37 96.5t98 36.5q54 0 87.5 -30.5t33.5 -86.5q0 -61 -36 -98t-97 -37q-54 0 -88.5 31.5
t-34.5 87.5zM227 1268q0 60 36.5 96.5t98.5 36.5q54 0 87.5 -30.5t33.5 -86.5q0 -61 -36 -98t-97 -37q-55 0 -89 31.5t-34 87.5z" />
    <glyph glyph-name="yacute" unicode="&#xfd;" horiz-adv-x="1024" 
d="M752 971h217q0 -51 -21 -105l-323 -893q-98 -253 -210.5 -368t-260.5 -115q-57 0 -109 10v174q139 1 234 78.5t167 247.5h-57l-307 866q-21 50 -21 105h228l172 -533q34 -111 49 -211h8zM352 1206l328 322l133 -148v-10l-358 -274z" />
    <glyph glyph-name="thorn" unicode="&#xfe;" horiz-adv-x="1120" 
d="M561 158q95 0 156 55q78 81 78 266q0 153 -52.5 241.5t-152.5 88.5q-102 0 -217 -92v-508q84 -51 188 -51zM152 1532l221 8v-649q124 108 256 108q170 0 281.5 -136t113.5 -341q0 -141 -54.5 -266.5t-157.5 -205t-230 -79.5q-114 0 -209 64v-527h-221v2024z" />
    <glyph glyph-name="ydieresis" unicode="&#xff;" horiz-adv-x="1024" 
d="M752 971h217q0 -51 -21 -105l-323 -893q-98 -253 -210.5 -368t-260.5 -115q-57 0 -109 10v174q139 1 234 78.5t167 247.5h-57l-307 866q-21 50 -21 105h228l172 -533q34 -111 49 -211h8zM600 1268q0 60 37 96.5t98 36.5q54 0 87.5 -30.5t33.5 -86.5q0 -61 -36 -98
t-97 -37q-54 0 -88.5 31.5t-34.5 87.5zM201 1268q0 60 36.5 96.5t98.5 36.5q54 0 87.5 -30.5t33.5 -86.5q0 -61 -36 -98t-97 -37q-55 0 -89 31.5t-34 87.5z" />
    <glyph glyph-name="Amacron" unicode="&#x100;" horiz-adv-x="1224" 
d="M614 1106l-186 -571h365l-93 290l-77 281h-9zM492 1368l253 8l408 -1265q19 -52 25 -111h-215l-109 344h-487l-113 -344h-221q8 52 26 109zM352 1716h525v-172h-525v172z" />
    <glyph glyph-name="amacron" unicode="&#x101;" horiz-adv-x="1003" 
d="M119 836q181 157 413 157q168 0 247 -86t79 -276v-242q0 -90 16 -377l-184 -26l-31 125q-156 -134 -321 -134q-121 0 -190.5 67t-69.5 179q0 80 37.5 144.5t103.5 105.5q113 68 418 94v2q0 130 -34.5 181t-117.5 51q-132 0 -288 -103zM391 152q113 0 246 106v154
q-232 -16 -295 -56q-51 -33 -51 -104q0 -100 100 -100zM209 1321h553v-170h-553v170z" />
    <glyph glyph-name="Abreve" unicode="&#x102;" horiz-adv-x="1224" 
d="M614 1106l-186 -571h365l-93 290l-77 281h-9zM492 1368l253 8l408 -1265q19 -52 25 -111h-215l-109 344h-487l-113 -344h-221q8 52 26 109zM926 1782q-35 -126 -119 -194t-195 -68q-239 0 -309 258l135 61q28 -69 70.5 -102t105.5 -33q126 0 181 135z" />
    <glyph glyph-name="abreve" unicode="&#x103;" horiz-adv-x="1003" 
d="M119 836q181 157 413 157q168 0 247 -86t79 -276v-242q0 -90 16 -377l-184 -26l-31 125q-156 -134 -321 -134q-121 0 -190.5 67t-69.5 179q0 80 37.5 144.5t103.5 105.5q113 68 418 94v2q0 130 -34.5 181t-117.5 51q-132 0 -288 -103zM391 152q113 0 246 106v154
q-232 -16 -295 -56q-51 -33 -51 -104q0 -100 100 -100zM489 1292q68 0 113 47.5t55 137.5l148 -17q-8 -162 -92.5 -254.5t-233.5 -91.5q-277 0 -303 346l150 17q24 -185 163 -185z" />
    <glyph glyph-name="Aogonek" unicode="&#x104;" horiz-adv-x="1224" 
d="M492 1368l253 8l408 -1265q19 -52 25 -111q-203 -104 -203 -227q0 -86 94 -86q54 0 111 22l47 -149q-104 -52 -228 -52q-115 0 -178 56.5t-63 154.5q0 161 155 275l41 33l-100 317h-487l-113 -344h-221q8 52 26 109zM614 1106l-186 -571h365l-93 290l-77 281h-9z" />
    <glyph glyph-name="aogonek" unicode="&#x105;" horiz-adv-x="1003" 
d="M119 836q181 157 413 157q168 0 247 -86t79 -276v-242q0 -96 16 -424q-85 -35 -132.5 -82t-47.5 -94q0 -82 88 -82q53 0 107 21l47 -150q-101 -49 -221 -49q-113 0 -175.5 53.5t-62.5 149.5q0 146 201 274l-23 103q-151 -132 -317 -132q-121 0 -190.5 67t-69.5 179
q0 80 37.5 144.5t103.5 105.5q113 68 418 94v2q0 130 -34.5 181t-117.5 51q-132 0 -288 -103zM391 152q113 0 246 106v154q-232 -16 -295 -56q-51 -33 -51 -104q0 -100 100 -100z" />
    <glyph glyph-name="Cacute" unicode="&#x106;" horiz-adv-x="1185" 
d="M102 655q0 114 23.5 220t75 201.5t125 166t180.5 111.5t235 41q207 0 375 -101l-84 -176q-140 76 -293 76q-163 0 -260 -100q-73 -73 -107 -184t-34 -238q0 -78 12.5 -147.5t42.5 -134t76 -111t117.5 -74t161.5 -27.5q159 0 307 66l61 -174q-184 -93 -399 -93
q-195 0 -336 89.5t-210 241t-69 347.5zM508 1661l450 184l64 -188v-10l-467 -134z" />
    <glyph glyph-name="cacute" unicode="&#x107;" horiz-adv-x="931" 
d="M98 455q0 241 126.5 389.5t336.5 148.5q181 0 305 -133l-98 -135q-121 78 -221 78q-82 0 -131 -41q-92 -77 -92 -281q0 -160 62 -235.5t185 -75.5q103 0 236 47l47 -166q-154 -74 -313 -74q-206 0 -324.5 126.5t-118.5 351.5zM365 1206l327 322l133 -148v-10l-358 -274z
" />
    <glyph glyph-name="Ccircumflex" unicode="&#x108;" horiz-adv-x="1185" 
d="M102 655q0 114 23.5 220t75 201.5t125 166t180.5 111.5t235 41q207 0 375 -101l-84 -176q-140 76 -293 76q-163 0 -260 -100q-73 -73 -107 -184t-34 -238q0 -78 12.5 -147.5t42.5 -134t76 -111t117.5 -74t161.5 -27.5q159 0 307 66l61 -174q-184 -93 -399 -93
q-195 0 -336 89.5t-210 241t-69 347.5zM627 1833l153 8l262 -219l-94 -125l-246 170l-243 -168l-92 129z" />
    <glyph glyph-name="ccircumflex" unicode="&#x109;" horiz-adv-x="931" 
d="M98 455q0 241 126.5 389.5t336.5 148.5q181 0 305 -133l-98 -135q-121 78 -221 78q-82 0 -131 -41q-92 -77 -92 -281q0 -160 62 -235.5t185 -75.5q103 0 236 47l47 -166q-154 -74 -313 -74q-206 0 -324.5 126.5t-118.5 351.5zM455 1503l161 6l256 -301l-112 -106
l-228 223l-225 -221l-108 106z" />
    <glyph glyph-name="Cdotaccent" unicode="&#x10a;" horiz-adv-x="1185" 
d="M102 655q0 114 23.5 220t75 201.5t125 166t180.5 111.5t235 41q207 0 375 -101l-84 -176q-140 76 -293 76q-163 0 -260 -100q-73 -73 -107 -184t-34 -238q0 -78 12.5 -147.5t42.5 -134t76 -111t117.5 -74t161.5 -27.5q159 0 307 66l61 -174q-184 -93 -399 -93
q-195 0 -336 89.5t-210 241t-69 347.5zM569 1663q0 62 40 101.5t104 39.5q57 0 92 -35t35 -92q0 -62 -39 -100.5t-103 -38.5q-59 0 -94 34t-35 91z" />
    <glyph glyph-name="cdotaccent" unicode="&#x10b;" horiz-adv-x="931" 
d="M98 455q0 241 126.5 389.5t336.5 148.5q181 0 305 -133l-98 -135q-121 78 -221 78q-82 0 -131 -41q-92 -77 -92 -281q0 -160 62 -235.5t185 -75.5q103 0 236 47l47 -166q-154 -74 -313 -74q-206 0 -324.5 126.5t-118.5 351.5zM397 1274q0 63 41 103t105 40q59 0 95 -35.5
t36 -93.5q0 -63 -40 -102t-104 -39q-61 0 -97 34t-36 93z" />
    <glyph glyph-name="Ccaron" unicode="&#x10c;" horiz-adv-x="1185" 
d="M102 655q0 114 23.5 220t75 201.5t125 166t180.5 111.5t235 41q207 0 375 -101l-84 -176q-140 76 -293 76q-163 0 -260 -100q-73 -73 -107 -184t-34 -238q0 -78 12.5 -147.5t42.5 -134t76 -111t117.5 -74t161.5 -27.5q159 0 307 66l61 -174q-184 -93 -399 -93
q-195 0 -336 89.5t-210 241t-69 347.5zM367 1731l94 127l246 -172l243 169l92 -129l-260 -206l-153 -9z" />
    <glyph glyph-name="ccaron" unicode="&#x10d;" horiz-adv-x="931" 
d="M98 455q0 241 126.5 389.5t336.5 148.5q181 0 305 -133l-98 -135q-121 78 -221 78q-82 0 -131 -41q-92 -77 -92 -281q0 -160 62 -235.5t185 -75.5q103 0 236 47l47 -166q-154 -74 -313 -74q-206 0 -324.5 126.5t-118.5 351.5zM459 1114l-258 301l112 107l228 -222
l225 222l108 -107l-256 -293z" />
    <glyph glyph-name="Dcaron" unicode="&#x10e;" horiz-adv-x="1372" 
d="M176 1362q251 33 434 33q307 0 483.5 -187.5t176.5 -498.5q0 -214 -84.5 -380t-242 -259t-365.5 -93q-200 0 -402 31v1354zM569 178q160 0 254 64q107 71 160 189t53 265q-2 231 -114.5 364.5t-319.5 133.5q-91 0 -201 -10v-998q68 -8 168 -8zM309 1731l94 127l246 -172
l244 169l92 -129l-260 -206l-154 -9z" />
    <glyph glyph-name="dcaron" unicode="&#x10f;" horiz-adv-x="1132" 
d="M526 162q108 0 222 102v498q-83 49 -191 49q-104 0 -156 -55q-77 -80 -77 -264q0 -155 52 -242.5t150 -87.5zM96 446q-1 140 52 265t158.5 206.5t240.5 81.5q104 0 201 -65v600l221 4v-1159q0 -103 18 -367l-186 -24l-31 118q-132 -135 -285 -135q-164 0 -276 135.5
t-113 339.5zM1075 1546l199 6l6 -8l-45 -432h-160v434z" />
    <glyph glyph-name="Dcroat" unicode="&#x110;" horiz-adv-x="1386" 
d="M193 1362q251 33 432 33q307 0 484 -187.5t177 -498.5q0 -214 -84.5 -380t-242 -259t-365.5 -93q-200 0 -401 31v606h-140v177h140v571zM586 178q160 0 254 64q107 71 160 189t53 265q-2 231 -115.5 364.5t-319.5 133.5q-92 0 -202 -10v-393h305v-177h-305v-428
q68 -8 170 -8z" />
    <glyph glyph-name="dcroat" unicode="&#x111;" horiz-adv-x="1124" 
d="M526 162q108 0 222 102v469q-83 49 -193 49q-101 0 -154 -53q-77 -80 -77 -246q0 -154 51.5 -237.5t150.5 -83.5zM96 438q-1 135 52 255.5t158 199t239 78.5q108 0 203 -64v254h-396v168h396v205l221 4v-209h174v-168h-174v-782q0 -101 18 -367l-186 -24l-31 118
q-135 -135 -287 -135q-163 0 -274.5 132.5t-112.5 334.5z" />
    <glyph glyph-name="Emacron" unicode="&#x112;" horiz-adv-x="1097" 
d="M178 1372h819l-6 -192h-590v-381h473v-193h-473v-413h596l9 -193h-830zM334 1716h524v-172h-524v172z" />
    <glyph glyph-name="emacron" unicode="&#x113;" horiz-adv-x="1019" 
d="M98 455q0 152 53.5 273.5t159 194t246.5 72.5q180 0 273.5 -110.5t93.5 -292.5q0 -83 -17 -170h-583q23 -252 247 -252q150 0 275 47l53 -156q-178 -84 -367 -84q-197 0 -315.5 125.5t-118.5 352.5zM539 815q-183 0 -211 -240h372q2 18 2 58q0 182 -163 182zM252 1321
h553v-170h-553v170z" />
    <glyph glyph-name="Ebreve" unicode="&#x114;" horiz-adv-x="1097" 
d="M178 1372h819l-6 -192h-590v-381h473v-193h-473v-413h596l9 -193h-830zM907 1782q-35 -126 -118.5 -194t-194.5 -68q-238 0 -309 258l135 61q28 -69 70.5 -102t105.5 -33q124 0 180 135z" />
    <glyph glyph-name="ebreve" unicode="&#x115;" horiz-adv-x="1019" 
d="M98 455q0 152 53.5 273.5t159 194t246.5 72.5q180 0 273.5 -110.5t93.5 -292.5q0 -83 -17 -170h-583q23 -252 247 -252q150 0 275 47l53 -156q-178 -84 -367 -84q-197 0 -315.5 125.5t-118.5 352.5zM539 815q-183 0 -211 -240h372q2 18 2 58q0 182 -163 182zM532 1292
q68 0 113 47.5t55 137.5l148 -17q-8 -162 -92.5 -254.5t-233.5 -91.5q-277 0 -303 346l150 17q24 -185 163 -185z" />
    <glyph glyph-name="Edotaccent" unicode="&#x116;" horiz-adv-x="1097" 
d="M178 1372h819l-6 -192h-590v-381h473v-193h-473v-413h596l9 -193h-830zM461 1663q0 62 39.5 101.5t103.5 39.5q57 0 92 -35t35 -92q0 -62 -38.5 -100.5t-102.5 -38.5q-59 0 -94 34t-35 91z" />
    <glyph glyph-name="edotaccent" unicode="&#x117;" horiz-adv-x="1019" 
d="M98 455q0 152 53.5 273.5t159 194t246.5 72.5q180 0 273.5 -110.5t93.5 -292.5q0 -83 -17 -170h-583q23 -252 247 -252q150 0 275 47l53 -156q-178 -84 -367 -84q-197 0 -315.5 125.5t-118.5 352.5zM539 815q-183 0 -211 -240h372q2 18 2 58q0 182 -163 182zM391 1274
q0 63 41 103t105 40q59 0 95 -35.5t36 -93.5q0 -63 -40 -102t-104 -39q-61 0 -97 34t-36 93z" />
    <glyph glyph-name="Eogonek" unicode="&#x118;" horiz-adv-x="1097" 
d="M178 1372h819l-6 -192h-590v-381h473v-193h-473v-413h596l9 -193q-205 -105 -205 -227q0 -38 23 -62t71 -24q56 0 111 22l47 -149q-101 -52 -228 -52q-115 0 -178 56t-63 153q0 87 52 152.5t155 126.5v4h-615z" />
    <glyph glyph-name="eogonek" unicode="&#x119;" horiz-adv-x="1019" 
d="M98 455q0 152 53.5 273.5t159 194t246.5 72.5q180 0 273.5 -110.5t93.5 -292.5q0 -83 -17 -170h-583q23 -252 247 -252q150 0 275 47l53 -156q-254 -135 -254 -268q0 -86 100 -86q50 0 113 23l47 -150q-109 -51 -229 -51q-116 0 -179 54t-63 147q0 69 38 128t118 117v5
q-30 -3 -58 -3q-197 0 -315.5 125.5t-118.5 352.5zM539 815q-92 0 -144.5 -62.5t-66.5 -177.5h372q2 18 2 58q0 182 -163 182z" />
    <glyph glyph-name="Ecaron" unicode="&#x11a;" horiz-adv-x="1097" 
d="M178 1372h819l-6 -192h-590v-381h473v-193h-473v-413h596l9 -193h-830zM258 1731l94 127l246 -172l244 169l92 -129l-260 -206l-154 -9z" />
    <glyph glyph-name="ecaron" unicode="&#x11b;" horiz-adv-x="1019" 
d="M98 455q0 152 53.5 273.5t159 194t246.5 72.5q180 0 273.5 -110.5t93.5 -292.5q0 -83 -17 -170h-583q23 -252 247 -252q150 0 275 47l53 -156q-178 -84 -367 -84q-197 0 -315.5 125.5t-118.5 352.5zM539 815q-183 0 -211 -240h372q2 18 2 58q0 182 -163 182zM453 1114
l-258 301l112 107l228 -222l225 222l108 -107l-256 -293z" />
    <glyph glyph-name="Gcircumflex" unicode="&#x11c;" horiz-adv-x="1275" 
d="M102 653q0 115 26 222.5t80 202.5t131 165t187 111t240 41q193 0 373 -101l-84 -176q-150 78 -299 78q-163 0 -269 -106q-149 -141 -149 -416q0 -78 12.5 -147.5t43.5 -134.5t77.5 -111.5t119.5 -74.5t165 -28t180 21v307h-270v192h485v-624q-199 -97 -414 -97
q-155 0 -277.5 51.5t-200 143t-117.5 214t-40 267.5zM633 1833l153 8l263 -219l-95 -125l-245 170l-244 -168l-92 129z" />
    <glyph glyph-name="gcircumflex" unicode="&#x11d;" horiz-adv-x="1056" 
d="M184 141q0 99 92 185q-86 43 -132 121t-46 174q0 74 27 140.5t77.5 118.5t131 82.5t180.5 30.5q117 0 207 -49q124 117 276 125l9 -188q-88 -10 -172 -31q65 -86 65 -201q0 -159 -114 -262.5t-308 -103.5q-23 0 -69 4q-21 -32 -21 -62q0 -24 9 -41t23.5 -27t41 -16
t52.5 -8.5t67 -3.5q195 -3 296 -74t101 -205q0 -167 -140 -268.5t-370 -101.5q-188 0 -304.5 78.5t-115.5 216.5q3 145 166 266q-29 44 -29 100zM500 -340q147 0 211 49q59 44 59 113q0 38 -18.5 62.5t-56.5 37t-80 17.5t-103 6q-102 0 -168 18q-92 -76 -92 -162
q0 -141 248 -141zM684 635q0 188 -188 188q-87 0 -137 -48t-50 -132q0 -192 189 -192q87 0 136.5 48.5t49.5 135.5zM416 1503l162 6l256 -301l-113 -106l-227 223l-226 -221l-108 106z" />
    <glyph glyph-name="Gbreve" unicode="&#x11e;" horiz-adv-x="1275" 
d="M102 653q0 115 26 222.5t80 202.5t131 165t187 111t240 41q193 0 373 -101l-84 -176q-150 78 -299 78q-163 0 -269 -106q-149 -141 -149 -416q0 -78 12.5 -147.5t43.5 -134.5t77.5 -111.5t119.5 -74.5t165 -28t180 21v307h-270v192h485v-624q-199 -97 -414 -97
q-155 0 -277.5 51.5t-200 143t-117.5 214t-40 267.5zM1022 1782q-35 -126 -118.5 -194t-194.5 -68q-239 0 -310 258l136 61q28 -69 70.5 -102t105.5 -33q125 0 180 135z" />
    <glyph glyph-name="gbreve" unicode="&#x11f;" horiz-adv-x="1056" 
d="M184 141q0 99 92 185q-86 43 -132 121t-46 174q0 74 27 140.5t77.5 118.5t131 82.5t180.5 30.5q117 0 207 -49q124 117 276 125l9 -188q-88 -10 -172 -31q65 -86 65 -201q0 -159 -114 -262.5t-308 -103.5q-23 0 -69 4q-21 -32 -21 -62q0 -24 9 -41t23.5 -27t41 -16
t52.5 -8.5t67 -3.5q195 -3 296 -74t101 -205q0 -167 -140 -268.5t-370 -101.5q-188 0 -304.5 78.5t-115.5 216.5q3 145 166 266q-29 44 -29 100zM500 -340q147 0 211 49q59 44 59 113q0 38 -18.5 62.5t-56.5 37t-80 17.5t-103 6q-102 0 -168 18q-92 -76 -92 -162
q0 -141 248 -141zM684 635q0 188 -188 188q-87 0 -137 -48t-50 -132q0 -192 189 -192q87 0 136.5 48.5t49.5 135.5zM500 1292q68 0 113 47.5t55 137.5l147 -17q-8 -162 -92.5 -254.5t-233.5 -91.5q-277 0 -303 346l150 17q24 -185 164 -185z" />
    <glyph glyph-name="Gdotaccent" unicode="&#x120;" horiz-adv-x="1275" 
d="M102 653q0 115 26 222.5t80 202.5t131 165t187 111t240 41q193 0 373 -101l-84 -176q-150 78 -299 78q-163 0 -269 -106q-149 -141 -149 -416q0 -78 12.5 -147.5t43.5 -134.5t77.5 -111.5t119.5 -74.5t165 -28t180 21v307h-270v192h485v-624q-199 -97 -414 -97
q-155 0 -277.5 51.5t-200 143t-117.5 214t-40 267.5zM575 1663q0 62 40 101.5t104 39.5q57 0 92 -35t35 -92q0 -62 -38.5 -100.5t-102.5 -38.5q-59 0 -94.5 34t-35.5 91z" />
    <glyph glyph-name="gdotaccent" unicode="&#x121;" horiz-adv-x="1056" 
d="M184 141q0 99 92 185q-86 43 -132 121t-46 174q0 74 27 140.5t77.5 118.5t131 82.5t180.5 30.5q117 0 207 -49q124 117 276 125l9 -188q-88 -10 -172 -31q65 -86 65 -201q0 -159 -114 -262.5t-308 -103.5q-23 0 -69 4q-21 -32 -21 -62q0 -24 9 -41t23.5 -27t41 -16
t52.5 -8.5t67 -3.5q195 -3 296 -74t101 -205q0 -167 -140 -268.5t-370 -101.5q-188 0 -304.5 78.5t-115.5 216.5q3 145 166 266q-29 44 -29 100zM500 -340q147 0 211 49q59 44 59 113q0 38 -18.5 62.5t-56.5 37t-80 17.5t-103 6q-102 0 -168 18q-92 -76 -92 -162
q0 -141 248 -141zM684 635q0 188 -188 188q-87 0 -137 -48t-50 -132q0 -192 189 -192q87 0 136.5 48.5t49.5 135.5zM358 1274q0 63 41 103t105 40q59 0 95 -35.5t36 -93.5q0 -63 -39.5 -102t-103.5 -39q-62 0 -98 34.5t-36 92.5z" />
    <glyph glyph-name="uni0122" unicode="&#x122;" horiz-adv-x="1275" 
d="M102 653q0 115 26 222.5t80 202.5t131 165t187 111t240 41q193 0 373 -101l-84 -176q-150 78 -299 78q-163 0 -269 -106q-149 -141 -149 -416q0 -78 12.5 -147.5t43.5 -134.5t77.5 -111.5t119.5 -74.5t165 -28t180 21v307h-270v192h485v-624q-199 -97 -414 -97
q-155 0 -277.5 51.5t-200 143t-117.5 214t-40 267.5zM649 -147l191 18q10 -55 10 -109q0 -95 -36.5 -178t-90.5 -135l-123 72q53 97 53 223q0 39 -4 109z" />
    <glyph glyph-name="uni0123" unicode="&#x123;" horiz-adv-x="1056" 
d="M184 141q0 99 92 185q-86 43 -132 121t-46 174q0 74 27 140.5t77.5 118.5t131 82.5t180.5 30.5q117 0 207 -49q124 117 276 125l9 -188q-88 -10 -172 -31q65 -86 65 -201q0 -159 -114 -262.5t-308 -103.5q-23 0 -69 4q-21 -32 -21 -62q0 -24 9 -41t23.5 -27t41 -16
t52.5 -8.5t67 -3.5q195 -3 296 -74t101 -205q0 -167 -140 -268.5t-370 -101.5q-188 0 -304.5 78.5t-115.5 216.5q3 145 166 266q-29 44 -29 100zM500 -340q147 0 211 49q59 44 59 113q0 38 -18.5 62.5t-56.5 37t-80 17.5t-103 6q-102 0 -168 18q-92 -76 -92 -162
q0 -141 248 -141zM684 635q0 188 -188 188q-87 0 -137 -48t-50 -132q0 -192 189 -192q87 0 136.5 48.5t49.5 135.5zM403 1237q0 92 34 175.5t93 139.5l123 -69q-55 -104 -55 -221q0 -52 6 -113l-190 -16q-11 61 -11 104z" />
    <glyph glyph-name="Hcircumflex" unicode="&#x124;" horiz-adv-x="1394" 
d="M993 1372h224v-1372h-224v602h-592v-602h-225v1372h225v-577h592v577zM618 1833l154 8l262 -219l-94 -125l-246 170l-243 -168l-93 129z" />
    <glyph glyph-name="hcircumflex" unicode="&#x125;" horiz-adv-x="1124" 
d="M152 1534l221 4v-645q135 106 311 106q153 0 225 -85t72 -252v-662h-221l-2 588q0 117 -30.5 168t-106.5 51q-124 0 -248 -76v-731h-221v1534zM207 1997l153 8l263 -219l-95 -125l-245 170l-244 -168l-92 129z" />
    <glyph glyph-name="Hbar" unicode="&#x126;" horiz-adv-x="1427" 
d="M1010 1372h223v-219h137v-174h-137v-979h-223v565h-592v-565h-225v979h-136v174h136v219h225v-219h592v219zM1010 762v217h-592v-217h592z" />
    <glyph glyph-name="hbar" unicode="&#x127;" horiz-adv-x="1136" 
d="M152 1534l221 4v-209h403v-168h-403v-307q140 117 325 117q153 0 225 -85.5t72 -252.5l-2 -633h-221v559q0 117 -31 168t-106 51q-132 0 -262 -84v-694h-221v1161h-175v168h175v205z" />
    <glyph glyph-name="Itilde" unicode="&#x128;" horiz-adv-x="577" 
d="M176 1372h225v-1372h-225v1372zM410 1700q56 0 118 131l131 -64q-88 -247 -251 -247q-44 0 -81.5 19.5t-59 43t-48 43t-49.5 19.5q-55 0 -123 -123l-129 65q44 113 109.5 175.5t146.5 62.5q42 0 79 -19.5t59 -43t48.5 -43t49.5 -19.5z" />
    <glyph glyph-name="itilde" unicode="&#x129;" horiz-adv-x="522" 
d="M152 969l221 4v-973h-221v969zM362 1296q41 0 91 125l127 -51q-62 -252 -218 -252q-35 0 -66.5 18t-50.5 39.5t-40 39.5t-37 18q-24 0 -45 -29t-49 -92l-125 57q32 118 90 180t131 62q34 0 65 -18t49.5 -39.5t40 -39.5t37.5 -18z" />
    <glyph glyph-name="Imacron" unicode="&#x12a;" horiz-adv-x="577" 
d="M176 1372h225v-1372h-225v1372zM27 1716h524v-172h-524v172z" />
    <glyph glyph-name="imacron" unicode="&#x12b;" horiz-adv-x="522" 
d="M152 969l221 4v-973h-221v969zM33 1327h463v-176h-463v176z" />
    <glyph glyph-name="Ibreve" unicode="&#x12c;" horiz-adv-x="577" 
d="M176 1372h225v-1372h-225v1372zM600 1782q-35 -126 -118.5 -194t-194.5 -68q-239 0 -310 258l136 61q28 -69 70.5 -102t105.5 -33q125 0 180 135z" />
    <glyph glyph-name="ibreve" unicode="&#x12d;" horiz-adv-x="522" 
d="M152 969l221 4v-973h-221v969zM266 1296q59 0 91.5 46t54.5 141l137 -23q-4 -160 -84 -254t-209 -92q-123 0 -192 91t-80 255l147 23q21 -96 50 -141.5t85 -45.5z" />
    <glyph glyph-name="Iogonek" unicode="&#x12e;" horiz-adv-x="577" 
d="M176 1372h225v-1372q-137 -107 -137 -203q0 -52 27 -81t80 -29q54 0 129 30l53 -145q-125 -64 -244 -64q-118 0 -191 61.5t-73 168.5q0 161 131 262v1372z" />
    <glyph glyph-name="iogonek" unicode="&#x12f;" horiz-adv-x="522" 
d="M152 969l221 4v-973q-140 -98 -140 -201q0 -92 99 -92q47 0 112 23l50 -150q-108 -51 -232 -51q-118 0 -183 55.5t-65 153.5q0 134 138 262v969zM127 1274q0 63 40.5 103t104.5 40q59 0 95 -35.5t36 -93.5q0 -63 -39.5 -102t-103.5 -39q-61 0 -97 34t-36 93z" />
    <glyph glyph-name="Idotaccent" unicode="&#x130;" horiz-adv-x="577" 
d="M176 1372h225v-1372h-225v1372zM154 1663q0 62 39.5 101.5t103.5 39.5q57 0 92 -35t35 -92q0 -62 -38.5 -100.5t-102.5 -38.5q-59 0 -94 34t-35 91z" />
    <glyph glyph-name="dotlessi" unicode="&#x131;" horiz-adv-x="522" 
d="M152 969l221 4v-973h-221v969z" />
    <glyph glyph-name="IJ" unicode="&#x132;" horiz-adv-x="1169" 
d="M176 1372h225v-1372h-225v1372zM768 1372h225v-1290q0 -265 -110.5 -401t-343.5 -148l-39 178q60 13 101 28.5t72 41t48.5 55t28.5 77.5t14.5 101.5t3.5 132.5v1225z" />
    <glyph glyph-name="ij" unicode="&#x133;" horiz-adv-x="1046" 
d="M152 969l221 4v-973h-221v969zM127 1274q0 63 40.5 103t104.5 40q59 0 95 -35.5t36 -93.5q0 -63 -39.5 -102t-103.5 -39q-61 0 -97 34t-36 93zM674 969l221 4v-914q0 -195 -73.5 -327t-211.5 -230l-118 119q89 94 135.5 203t46.5 254v891zM647 1274q0 63 41 103t105 40
q59 0 95 -35.5t36 -93.5q0 -63 -40 -102t-104 -39q-61 0 -97 34t-36 93z" />
    <glyph glyph-name="Jcircumflex" unicode="&#x134;" horiz-adv-x="593" 
d="M193 1372h225v-1290q0 -265 -111 -401t-344 -148l-39 178q71 15 117.5 36.5t77.5 51.5t46.5 81t21.5 111.5t6 155.5v1225zM223 1833l154 8l262 -219l-94 -125l-246 170l-244 -168l-92 129z" />
    <glyph glyph-name="jcircumflex" unicode="&#x135;" horiz-adv-x="524" 
d="M152 969l221 4v-914q0 -195 -73.5 -327t-211.5 -230l-119 119q89 94 136 203t47 254v891zM182 1501l162 8l223 -305l-114 -98l-191 217l-192 -215l-109 96z" />
    <glyph glyph-name="uni0136" unicode="&#x136;" horiz-adv-x="1220" 
d="M940 1372h234q0 -34 -50 -92l-438 -485l416 -652q38 -59 54 -89t20 -54h-236l-401 633l-138 -154v-479h-225v1372h225v-620h5zM592 -147l190 18q11 -61 11 -109q0 -95 -36.5 -178t-90.5 -135l-123 72q53 97 53 223q0 39 -4 109z" />
    <glyph glyph-name="uni0137" unicode="&#x137;" horiz-adv-x="1062" 
d="M770 971h223q-3 -43 -51 -97l-291 -339l322 -433q35 -46 51 -102h-242l-270 381l-139 -150v-231h-221v1534l221 4v-1036zM506 -147l190 18q11 -61 11 -109q0 -95 -36.5 -178t-88.5 -135l-125 72q55 101 55 223q0 56 -6 109z" />
    <glyph glyph-name="kgreenlandic" unicode="&#x138;" horiz-adv-x="1062" 
d="M770 971h223q-3 -43 -51 -97l-291 -339l322 -433q35 -46 51 -102h-242l-270 381l-139 -139v-242h-221v969l221 4v-469l108 127z" />
    <glyph glyph-name="Lacute" unicode="&#x139;" horiz-adv-x="1003" 
d="M176 1372h225v-1179h547l8 -193h-780v1372zM82 1661l450 184l64 -188v-10l-467 -134z" />
    <glyph glyph-name="lacute" unicode="&#x13a;" horiz-adv-x="571" 
d="M147 1534l222 4v-1286q0 -46 12 -65t43 -19q30 0 74 12l45 -166q-93 -37 -191 -37q-101 0 -153 57t-52 163v1337zM63 1825l451 184l64 -188v-11l-467 -133z" />
    <glyph glyph-name="uni013B" unicode="&#x13b;" horiz-adv-x="1003" 
d="M176 1372h225v-1179h547l8 -193h-780v1372zM506 -147l190 18q11 -61 11 -109q0 -95 -36.5 -178t-90.5 -135l-123 72q53 97 53 223q0 39 -4 109z" />
    <glyph glyph-name="uni013C" unicode="&#x13c;" horiz-adv-x="571" 
d="M147 1534l222 4v-1286q0 -46 12 -65t43 -19q30 0 74 12l45 -166q-93 -37 -191 -37q-101 0 -153 57t-52 163v1337zM272 -147l191 18q10 -55 10 -109q0 -95 -36.5 -178t-88.5 -135l-125 72q56 102 56 223q0 48 -7 109z" />
    <glyph glyph-name="Lcaron" unicode="&#x13d;" horiz-adv-x="991" 
d="M176 1372h225v-1179h547l8 -193h-780v1372zM573 1436l199 6l6 -8l-45 -433h-160v435z" />
    <glyph glyph-name="lcaron" unicode="&#x13e;" horiz-adv-x="579" 
d="M147 1534l222 4v-1286q0 -46 12 -65t43 -19q30 0 74 12l45 -166q-93 -37 -191 -37q-101 0 -153 57t-52 163v1337zM477 1546l199 6l6 -8l-45 -432h-160v434z" />
    <glyph glyph-name="Ldot" unicode="&#x13f;" horiz-adv-x="1136" 
d="M176 1372h225v-1179h547l8 -193h-780v1372zM778 748q0 60 35 99.5t94 39.5q57 0 91 -36.5t34 -92.5q0 -65 -34.5 -105.5t-94.5 -40.5q-58 0 -91.5 38.5t-33.5 97.5z" />
    <glyph glyph-name="ldot" unicode="&#x140;" horiz-adv-x="802" 
d="M147 1534l222 4v-1286q0 -46 12 -65t43 -19q30 0 74 12l45 -166q-93 -37 -191 -37q-101 0 -153 57t-52 163v1337zM530 727q0 60 35 99.5t94 39.5q57 0 92 -37t35 -92q0 -64 -35.5 -104.5t-95.5 -40.5q-58 0 -91.5 38t-33.5 97z" />
    <glyph glyph-name="Lslash" unicode="&#x141;" horiz-adv-x="1077" 
d="M33 590l215 102v680h223v-571l317 151l80 -161l-397 -189v-409h549l8 -193h-780v496l-139 -66z" />
    <glyph glyph-name="lslash" unicode="&#x142;" horiz-adv-x="692" 
d="M231 1534l224 4v-571l159 96l82 -135v-10l-241 -148v-518q0 -46 12 -65t43 -19q30 0 74 12l45 -166q-93 -37 -193 -37q-99 0 -152 57t-53 163v438l-120 -74l-84 139v9l204 122v703z" />
    <glyph glyph-name="Nacute" unicode="&#x143;" horiz-adv-x="1413" 
d="M176 1372h256l500 -860l106 -229h2l-10 258v831h205v-1372h-254l-508 870l-96 209h-4l8 -225v-854h-205v1372zM530 1661l451 184l63 -188v-10l-466 -134z" />
    <glyph glyph-name="nacute" unicode="&#x144;" horiz-adv-x="1126" 
d="M135 963l187 24l30 -127q142 139 332 139q156 0 227.5 -85t71.5 -252v-662h-221v580q0 124 -29 176.5t-108 52.5q-124 0 -250 -102v-707h-221v569q0 129 -19 394zM399 1206l328 322l133 -148v-10l-358 -274z" />
    <glyph glyph-name="uni0145" unicode="&#x145;" horiz-adv-x="1413" 
d="M176 1372h256l500 -860l106 -229h2l-10 258v831h205v-1372h-254l-508 870l-96 209h-4l8 -225v-854h-205v1372zM608 -147l191 18q10 -55 10 -109q0 -95 -36.5 -178t-90.5 -135l-123 72q53 97 53 223q0 39 -4 109z" />
    <glyph glyph-name="uni0146" unicode="&#x146;" horiz-adv-x="1126" 
d="M135 963l187 24l30 -127q142 139 332 139q156 0 227.5 -85t71.5 -252v-662h-221v580q0 124 -29 176.5t-108 52.5q-124 0 -250 -102v-707h-221v569q0 129 -19 394zM498 -147l190 18q10 -55 10 -109q0 -95 -36.5 -178t-88.5 -135l-124 72q55 101 55 223q0 56 -6 109z" />
    <glyph glyph-name="Ncaron" unicode="&#x147;" horiz-adv-x="1413" 
d="M176 1372h256l500 -860l106 -229h2l-10 258v831h205v-1372h-254l-508 870l-96 209h-4l8 -225v-854h-205v1372zM389 1731l94 127l246 -172l244 169l92 -129l-260 -206l-154 -9z" />
    <glyph glyph-name="ncaron" unicode="&#x148;" horiz-adv-x="1126" 
d="M135 963l187 24l30 -127q142 139 332 139q156 0 227.5 -85t71.5 -252v-662h-221v580q0 124 -29 176.5t-108 52.5q-124 0 -250 -102v-707h-221v569q0 129 -19 394zM494 1114l-258 301l112 107l227 -222l226 222l108 -107l-256 -293z" />
    <glyph glyph-name="napostrophe" unicode="&#x149;" horiz-adv-x="1126" 
d="M135 963l187 24l30 -127q142 139 332 139q156 0 227.5 -85t71.5 -252v-662h-221v580q0 124 -29 176.5t-108 52.5q-124 0 -250 -102v-707h-221v569q0 129 -19 394zM174 1495l203 10q16 -59 16 -121q0 -98 -63 -176t-162 -116l-78 98q92 68 92 188q0 43 -8 117z" />
    <glyph glyph-name="Eng" unicode="&#x14a;" horiz-adv-x="1413" 
d="M176 1372h256l490 -860l106 -229h2v1089h205v-1419q0 -72 -10 -136t-36.5 -127t-67 -108.5t-106 -73.5t-149.5 -28q-151 0 -264 67l66 158q95 -29 178 -29q56 0 93.5 21.5t56 63.5t25 89.5t5.5 112.5l2 37h-72l-483 870l-96 209h-4l8 -225v-854h-205v1372z" />
    <glyph glyph-name="eng" unicode="&#x14b;" horiz-adv-x="1126" 
d="M135 963l187 24l30 -127q142 139 332 139q156 0 227.5 -85t71.5 -252v-699q0 -68 -9.5 -131.5t-35 -129t-65 -113.5t-105.5 -78.5t-150 -30.5q-146 0 -268 69l62 154q96 -35 176 -35q45 0 76.5 14t50.5 36.5t29.5 60t14 76t3.5 92.5v633q0 124 -29 176.5t-108 52.5
q-124 0 -250 -102v-707h-221v569q0 75 -9 246z" />
    <glyph glyph-name="Omacron" unicode="&#x14c;" horiz-adv-x="1419" 
d="M102 666q0 143 38.5 272.5t112.5 234t194.5 166.5t271.5 62q114 0 210.5 -35.5t167.5 -99t121 -150.5t74.5 -190.5t24.5 -218.5q0 -114 -23.5 -220t-73.5 -200t-121.5 -164t-173.5 -111t-223 -41q-142 0 -257 55t-189.5 150t-114 220.5t-39.5 269.5zM1081 688
q0 106 -24 198t-69.5 162.5t-117 111t-161.5 40.5q-124 0 -207 -72q-84 -74 -125 -193t-41 -251q0 -142 41.5 -256.5t128.5 -185t207 -70.5q126 0 205 72q85 73 124 191.5t39 252.5zM449 1716h524v-172h-524v172z" />
    <glyph glyph-name="omacron" unicode="&#x14d;" horiz-adv-x="1091" 
d="M96 459q0 105 31.5 201t89 172t148 121.5t200.5 45.5q196 0 313 -137.5t117 -353.5q0 -107 -31 -203t-88.5 -171t-147.5 -119t-200 -44q-197 0 -314.5 135t-117.5 353zM768 473q0 155 -57.5 245.5t-167.5 90.5q-95 0 -144 -57q-75 -85 -75 -260q0 -153 58.5 -242.5
t168.5 -89.5q92 0 143 59q74 83 74 254zM274 1321h553v-170h-553v170z" />
    <glyph glyph-name="Obreve" unicode="&#x14e;" horiz-adv-x="1419" 
d="M102 666q0 143 38.5 272.5t112.5 234t194.5 166.5t271.5 62q114 0 210.5 -35.5t167.5 -99t121 -150.5t74.5 -190.5t24.5 -218.5q0 -114 -23.5 -220t-73.5 -200t-121.5 -164t-173.5 -111t-223 -41q-142 0 -257 55t-189.5 150t-114 220.5t-39.5 269.5zM1081 688
q0 106 -24 198t-69.5 162.5t-117 111t-161.5 40.5q-124 0 -207 -72q-84 -74 -125 -193t-41 -251q0 -142 41.5 -256.5t128.5 -185t207 -70.5q126 0 205 72q85 73 124 191.5t39 252.5zM1022 1782q-35 -126 -118.5 -194t-194.5 -68q-239 0 -310 258l136 61q28 -69 70.5 -102
t105.5 -33q125 0 180 135z" />
    <glyph glyph-name="obreve" unicode="&#x14f;" horiz-adv-x="1091" 
d="M96 459q0 105 31.5 201t89 172t148 121.5t200.5 45.5q196 0 313 -137.5t117 -353.5q0 -107 -31 -203t-88.5 -171t-147.5 -119t-200 -44q-197 0 -314.5 135t-117.5 353zM768 473q0 155 -57.5 245.5t-167.5 90.5q-95 0 -144 -57q-75 -85 -75 -260q0 -153 58.5 -242.5
t168.5 -89.5q92 0 143 59q74 83 74 254zM555 1292q68 0 113 47.5t55 137.5l147 -17q-8 -162 -92.5 -254.5t-232.5 -91.5q-277 0 -303 346l149 17q24 -185 164 -185z" />
    <glyph glyph-name="Ohungarumlaut" unicode="&#x150;" horiz-adv-x="1419" 
d="M102 666q0 143 38.5 272.5t112.5 234t194.5 166.5t271.5 62q114 0 210.5 -35.5t167.5 -99t121 -150.5t74.5 -190.5t24.5 -218.5q0 -114 -23.5 -220t-73.5 -200t-121.5 -164t-173.5 -111t-223 -41q-142 0 -257 55t-189.5 150t-114 220.5t-39.5 269.5zM1081 688
q0 106 -24 198t-69.5 162.5t-117 111t-161.5 40.5q-124 0 -207 -72q-84 -74 -125 -193t-41 -251q0 -142 41.5 -256.5t128.5 -185t207 -70.5q126 0 205 72q85 73 124 191.5t39 252.5zM418 1589l217 340l160 -114v-9l-256 -303zM780 1589l215 340l160 -114l2 -9l-256 -303z
" />
    <glyph glyph-name="ohungarumlaut" unicode="&#x151;" horiz-adv-x="1091" 
d="M96 459q0 105 31.5 201t89 172t148 121.5t200.5 45.5q196 0 313 -137.5t117 -353.5q0 -107 -31 -203t-88.5 -171t-147.5 -119t-200 -44q-197 0 -314.5 135t-117.5 353zM768 473q0 155 -57.5 245.5t-167.5 90.5q-95 0 -144 -57q-75 -85 -75 -260q0 -153 58.5 -242.5
t168.5 -89.5q92 0 143 59q74 83 74 254zM272 1167l185 359l170 -96v-11l-230 -321zM610 1167l187 359l166 -96v-11l-228 -321z" />
    <glyph glyph-name="OE" unicode="&#x152;" horiz-adv-x="1882" 
d="M104 662q0 111 21.5 213.5t70.5 198t121.5 166t182.5 113t245 42.5q107 0 248 -23h787l-6 -192h-590v-381h473v-193h-473v-413h596l8 -193h-803q-118 -23 -250 -23q-131 0 -237.5 36t-179 98.5t-121.5 150t-71 187.5t-22 213zM756 172q91 0 205 18v992q-112 16 -232 16
q-147 0 -229 -70q-84 -76 -122 -208.5t-38 -262.5q0 -79 12.5 -147.5t42.5 -132t76.5 -108t119 -71t165.5 -26.5z" />
    <glyph glyph-name="oe" unicode="&#x153;" horiz-adv-x="1681" 
d="M96 459q0 105 31 201t88.5 172t147.5 121.5t200 45.5q221 0 328 -186q55 88 139.5 137t190.5 49q179 0 272.5 -108.5t93.5 -288.5q0 -104 -18 -180h-578q23 -252 242 -252q149 0 274 47l54 -156q-178 -84 -363 -84q-231 0 -332 173q-115 -179 -340 -179q-196 0 -313 135
t-117 353zM760 477q0 155 -55.5 243.5t-165.5 88.5q-89 0 -142 -57q-73 -87 -73 -260q0 -153 58.5 -242.5t166.5 -89.5q88 0 139 59q72 81 72 258zM1202 815q-91 0 -143 -62t-64 -178h367q2 18 2 58q0 87 -40.5 134.5t-121.5 47.5z" />
    <glyph glyph-name="Racute" unicode="&#x154;" horiz-adv-x="1232" 
d="M516 709q144 0 223 39q135 64 135 219q0 113 -79.5 170t-231.5 57q-86 0 -162 -8v-473q78 -4 115 -4zM176 1362q206 33 377 33q259 0 408 -106t149 -304q0 -138 -69.5 -245t-196.5 -165l252 -438q45 -79 61 -137h-231l-293 520q-49 -6 -105 -6t-127 6v-520h-225v1362z
M410 1661l450 184l64 -188v-10l-467 -134z" />
    <glyph glyph-name="racute" unicode="&#x155;" horiz-adv-x="792" 
d="M135 963l187 24l38 -174q106 180 261 180q80 0 139 -39l-39 -211q-58 15 -113 15q-142 0 -233 -129v-629h-221v569q0 91 -19 394zM299 1206l328 322l133 -148v-10l-359 -274z" />
    <glyph glyph-name="uni0156" unicode="&#x156;" horiz-adv-x="1232" 
d="M516 709q144 0 223 39q135 64 135 219q0 113 -79.5 170t-231.5 57q-86 0 -162 -8v-473q78 -4 115 -4zM176 1362q206 33 377 33q259 0 408 -106t149 -304q0 -138 -69.5 -245t-196.5 -165l252 -438q45 -79 61 -137h-231l-293 520q-49 -6 -105 -6t-127 6v-520h-225v1362z
M565 -147l191 18q10 -55 10 -109q0 -95 -36.5 -178t-90.5 -135l-123 72q53 97 53 223q0 39 -4 109z" />
    <glyph glyph-name="uni0157" unicode="&#x157;" horiz-adv-x="792" 
d="M135 963l187 24l38 -174q106 180 261 180q80 0 139 -39l-39 -211q-58 15 -113 15q-142 0 -233 -129v-629h-221v569q0 91 -19 394zM197 -147l190 18q10 -55 10 -109q0 -95 -36.5 -178t-88.5 -135l-125 72q56 102 56 223q0 56 -6 109z" />
    <glyph glyph-name="Rcaron" unicode="&#x158;" horiz-adv-x="1232" 
d="M516 709q144 0 223 39q135 64 135 219q0 113 -79.5 170t-231.5 57q-86 0 -162 -8v-473q78 -4 115 -4zM176 1362q206 33 377 33q259 0 408 -106t149 -304q0 -138 -69.5 -245t-196.5 -165l252 -438q45 -79 61 -137h-231l-293 520q-49 -6 -105 -6t-127 6v-520h-225v1362z
M268 1731l94 127l246 -172l244 169l92 -129l-260 -206l-154 -9z" />
    <glyph glyph-name="rcaron" unicode="&#x159;" horiz-adv-x="792" 
d="M135 963l187 24l38 -174q106 180 261 180q80 0 139 -39l-39 -211q-58 15 -113 15q-142 0 -233 -129v-629h-221v569q0 91 -19 394zM393 1114l-258 301l113 107l227 -222l225 222l109 -107l-256 -293z" />
    <glyph glyph-name="Sacute" unicode="&#x15a;" horiz-adv-x="1120" 
d="M121 1001q0 100 42 178.5t114 125.5t161 71.5t189 24.5q194 0 366 -86l-63 -172q-147 57 -305 57q-53 0 -98 -8.5t-86 -28t-65 -56.5t-24 -89q0 -30 8.5 -55.5t28.5 -47t40 -37t56 -32.5t61.5 -27.5t71.5 -27.5q171 -68 239 -110q147 -93 170 -239q5 -31 5 -63
q0 -131 -70 -225t-184.5 -138.5t-259.5 -44.5q-128 0 -245.5 34.5t-198.5 88.5l82 170q176 -92 362 -92q121 0 202 46.5t81 141.5q0 27 -8.5 51.5t-20.5 43t-35.5 36.5t-43.5 30.5t-55 27.5t-58.5 24.5t-65.5 24.5q-55 22 -83.5 33.5t-77.5 35.5t-75.5 43.5t-61 51t-52 64.5
t-30.5 78t-13 97zM381 1661l450 184l64 -188v-10l-467 -134z" />
    <glyph glyph-name="sacute" unicode="&#x15b;" horiz-adv-x="917" 
d="M115 690q-3 138 106.5 220.5t270.5 82.5q166 0 309 -112l-96 -144q-115 72 -220 72q-68 0 -105.5 -25t-37.5 -65q0 -20 10.5 -38t24 -30.5t43 -27t52 -23.5t65.5 -25q55 -20 92 -36t78 -41.5t65.5 -53.5t40.5 -69t16 -90q0 -139 -106.5 -223.5t-282.5 -84.5
q-207 0 -364 121l90 146q136 -84 264 -84q75 0 121.5 27t46.5 73q0 35 -33.5 65t-66.5 45t-108 44l-15 6q-47 18 -80.5 33.5t-69.5 39.5t-57.5 50t-36.5 64t-16 83zM297 1206l328 322l133 -148v-10l-359 -274z" />
    <glyph glyph-name="Scircumflex" unicode="&#x15c;" horiz-adv-x="1120" 
d="M121 1001q0 100 42 178.5t114 125.5t161 71.5t189 24.5q194 0 366 -86l-63 -172q-147 57 -305 57q-53 0 -98 -8.5t-86 -28t-65 -56.5t-24 -89q0 -30 8.5 -55.5t28.5 -47t40 -37t56 -32.5t61.5 -27.5t71.5 -27.5q171 -68 239 -110q147 -93 170 -239q5 -31 5 -63
q0 -131 -70 -225t-184.5 -138.5t-259.5 -44.5q-128 0 -245.5 34.5t-198.5 88.5l82 170q176 -92 362 -92q121 0 202 46.5t81 141.5q0 27 -8.5 51.5t-20.5 43t-35.5 36.5t-43.5 30.5t-55 27.5t-58.5 24.5t-65.5 24.5q-55 22 -83.5 33.5t-77.5 35.5t-75.5 43.5t-61 51t-52 64.5
t-30.5 78t-13 97zM500 1833l153 8l262 -219l-94 -125l-246 170l-243 -168l-92 129z" />
    <glyph glyph-name="scircumflex" unicode="&#x15d;" horiz-adv-x="917" 
d="M115 690q-3 138 106.5 220.5t270.5 82.5q166 0 309 -112l-96 -144q-115 72 -220 72q-68 0 -105.5 -25t-37.5 -65q0 -20 10.5 -38t24 -30.5t43 -27t52 -23.5t65.5 -25q55 -20 92 -36t78 -41.5t65.5 -53.5t40.5 -69t16 -90q0 -139 -106.5 -223.5t-282.5 -84.5
q-207 0 -364 121l90 146q136 -84 264 -84q75 0 121.5 27t46.5 73q0 35 -33.5 65t-66.5 45t-108 44l-15 6q-47 18 -80.5 33.5t-69.5 39.5t-57.5 50t-36.5 64t-16 83zM387 1503l162 6l256 -301l-113 -106l-227 223l-225 -221l-109 106z" />
    <glyph glyph-name="uni015E" unicode="&#x15e;" horiz-adv-x="1120" 
d="M121 1001q0 100 42 178.5t114 125.5t161 71.5t189 24.5q194 0 366 -86l-63 -172q-147 57 -305 57q-53 0 -98 -8.5t-86 -28t-65 -56.5t-24 -89q0 -30 8.5 -55.5t28.5 -47t40 -37t56 -32.5t61.5 -27.5t71.5 -27.5q171 -68 239 -110q147 -93 170 -239q5 -31 5 -63
q0 -173 -116 -277t-304 -125l-37 -79h5q56 0 102.5 -14.5t81.5 -54.5t35 -101q0 -110 -107 -180t-289 -91l-26 135q94 15 149.5 47.5t55.5 75.5q0 32 -27 49t-68 17q-27 0 -55 -4l-49 65l63 131q-216 20 -372 121l82 170q176 -92 362 -92q121 0 202 46.5t81 141.5
q0 27 -8.5 51.5t-20.5 43t-35.5 36.5t-43.5 30.5t-55 27.5t-58.5 24.5t-65.5 24.5q-55 22 -83.5 33.5t-77.5 35.5t-75.5 43.5t-61 51t-52 64.5t-30.5 78t-13 97z" />
    <glyph glyph-name="uni015F" unicode="&#x15f;" horiz-adv-x="917" 
d="M115 690q-3 138 106.5 220.5t270.5 82.5q166 0 309 -112l-96 -144q-115 72 -220 72q-68 0 -105.5 -25t-37.5 -65q0 -20 10.5 -38t24 -30.5t43 -27t52 -23.5t65.5 -25q55 -20 92 -36t78 -41.5t65.5 -53.5t40.5 -69t16 -90q0 -122 -84 -203t-227 -100l-39 -84h4
q56 0 102.5 -14.5t81.5 -54.5t35 -101q0 -110 -106.5 -180t-288.5 -91l-26 135q94 15 149 47.5t55 75.5q0 32 -26.5 49t-67.5 17q-27 0 -55 -4l-49 65l67 142q-153 21 -278 114l90 146q136 -84 264 -84q75 0 121.5 27t46.5 73q0 35 -33.5 65t-66.5 45t-108 44l-15 6
q-47 18 -80.5 33.5t-69.5 39.5t-57.5 50t-36.5 64t-16 83z" />
    <glyph glyph-name="Scaron" unicode="&#x160;" horiz-adv-x="1120" 
d="M121 1001q0 100 42 178.5t114 125.5t161 71.5t189 24.5q194 0 366 -86l-63 -172q-147 57 -305 57q-53 0 -98 -8.5t-86 -28t-65 -56.5t-24 -89q0 -30 8.5 -55.5t28.5 -47t40 -37t56 -32.5t61.5 -27.5t71.5 -27.5q171 -68 239 -110q147 -93 170 -239q5 -31 5 -63
q0 -131 -70 -225t-184.5 -138.5t-259.5 -44.5q-128 0 -245.5 34.5t-198.5 88.5l82 170q176 -92 362 -92q121 0 202 46.5t81 141.5q0 27 -8.5 51.5t-20.5 43t-35.5 36.5t-43.5 30.5t-55 27.5t-58.5 24.5t-65.5 24.5q-55 22 -83.5 33.5t-77.5 35.5t-75.5 43.5t-61 51t-52 64.5
t-30.5 78t-13 97zM240 1731l94 127l246 -172l243 169l92 -129l-260 -206l-153 -9z" />
    <glyph glyph-name="scaron" unicode="&#x161;" horiz-adv-x="917" 
d="M115 690q-3 138 106.5 220.5t270.5 82.5q166 0 309 -112l-96 -144q-115 72 -220 72q-68 0 -105.5 -25t-37.5 -65q0 -20 10.5 -38t24 -30.5t43 -27t52 -23.5t65.5 -25q55 -20 92 -36t78 -41.5t65.5 -53.5t40.5 -69t16 -90q0 -139 -106.5 -223.5t-282.5 -84.5
q-207 0 -364 121l90 146q136 -84 264 -84q75 0 121.5 27t46.5 73q0 35 -33.5 65t-66.5 45t-108 44l-15 6q-47 18 -80.5 33.5t-69.5 39.5t-57.5 50t-36.5 64t-16 83zM391 1114l-258 301l113 107l227 -222l225 222l109 -107l-256 -293z" />
    <glyph glyph-name="uni0162" unicode="&#x162;" horiz-adv-x="1167" 
d="M49 1372h1069l-6 -192h-416v-1180h-28l-47 -102h4q56 0 102.5 -14.5t81.5 -54.5t35 -101q0 -110 -106.5 -180t-288.5 -91l-27 135q94 15 149.5 47.5t55.5 75.5q0 32 -27 49t-68 17q-27 0 -55 -4l-49 65l76 158h-31v1180h-418z" />
    <glyph glyph-name="uni0163" unicode="&#x163;" horiz-adv-x="798" 
d="M248 1257h182v-286h293v-185h-293v-421q0 -115 25 -154t96 -39q62 0 151 18l41 -163q-108 -40 -229 -47l-37 -82h4q56 0 102.5 -14.5t81.5 -54.5t35 -101q0 -110 -106.5 -180t-288.5 -91l-26 135q94 15 149 47.5t55 75.5q0 32 -26.5 49t-67.5 17q-27 0 -55 -4l-49 65
l71 150q-73 26 -110 99.5t-37 211.5v483h-141v185h131z" />
    <glyph glyph-name="Tcaron" unicode="&#x164;" horiz-adv-x="1167" 
d="M49 1372h1069l-6 -192h-416v-1180h-223v1180h-418zM246 1731l94 127l246 -172l243 169l93 -129l-260 -206l-154 -9z" />
    <glyph glyph-name="tcaron" unicode="&#x165;" horiz-adv-x="798" 
d="M248 1257h182v-286h293v-185h-293v-421q0 -115 25 -154t96 -39q62 0 151 18l41 -163q-136 -50 -280 -50q-129 0 -191.5 72t-62.5 254v483h-141v185h131zM539 1546l198 6l6 -8l-45 -432h-159v434z" />
    <glyph glyph-name="Tbar" unicode="&#x166;" horiz-adv-x="1187" 
d="M250 780h233v400h-417l-7 192h1069l-6 -192h-415v-400h231v-176h-231v-604h-224v604h-233v176z" />
    <glyph glyph-name="tbar" unicode="&#x167;" horiz-adv-x="808" 
d="M254 1257h182v-286h293v-185h-293v-180h293v-153h-293v-88q0 -115 25 -154t96 -39q63 0 152 18l41 -163q-129 -50 -281 -50q-129 0 -191.5 72t-62.5 254v150h-143v153h143v180h-143v185h131z" />
    <glyph glyph-name="Utilde" unicode="&#x168;" horiz-adv-x="1331" 
d="M946 1372h223v-819q0 -132 -29.5 -236.5t-91 -183t-163 -120.5t-238.5 -42q-235 0 -359 137t-124 398v866h223v-833q0 -189 63.5 -279t219.5 -90q55 0 103.5 19.5t78.5 48.5q94 88 94 268v866zM784 1700q57 0 119 131l131 -64q-88 -247 -252 -247q-44 0 -81.5 19.5
t-58.5 43t-47.5 43t-49.5 19.5q-55 0 -123 -123l-129 65q44 113 109.5 175.5t146.5 62.5q42 0 79 -19.5t58.5 -43t48 -43t49.5 -19.5z" />
    <glyph glyph-name="utilde" unicode="&#x169;" horiz-adv-x="1112" 
d="M143 969l222 4v-584q0 -121 34 -174t109 -53q114 0 229 98v711h221v-570q0 -92 19 -389l-184 -24l-31 114q-131 -131 -311 -131q-155 0 -231.5 86t-76.5 250v662zM668 1296q62 0 120 125l130 -61q-36 -120 -101.5 -183t-146.5 -63q-45 0 -83.5 18.5t-60.5 41t-47.5 41
t-48.5 18.5q-22 0 -45.5 -20t-37.5 -40.5t-40 -62.5l-127 70q40 113 105 174t149 61q43 0 81 -18.5t60 -41t47.5 -41t45.5 -18.5z" />
    <glyph glyph-name="Umacron" unicode="&#x16a;" horiz-adv-x="1331" 
d="M946 1372h223v-819q0 -132 -29.5 -236.5t-91 -183t-163 -120.5t-238.5 -42q-235 0 -359 137t-124 398v866h223v-833q0 -189 63.5 -279t219.5 -90q55 0 103.5 19.5t78.5 48.5q94 88 94 268v866zM401 1716h525v-172h-525v172z" />
    <glyph glyph-name="umacron" unicode="&#x16b;" horiz-adv-x="1112" 
d="M143 969l222 4v-584q0 -121 34 -174t109 -53q114 0 229 98v711h221v-570q0 -92 19 -389l-184 -24l-31 114q-131 -131 -311 -131q-155 0 -231.5 86t-76.5 250v662zM272 1321h553v-170h-553v170z" />
    <glyph glyph-name="Ubreve" unicode="&#x16c;" horiz-adv-x="1331" 
d="M946 1372h223v-819q0 -132 -29.5 -236.5t-91 -183t-163 -120.5t-238.5 -42q-235 0 -359 137t-124 398v866h223v-833q0 -189 63.5 -279t219.5 -90q55 0 103.5 19.5t78.5 48.5q94 88 94 268v866zM975 1782q-35 -126 -118.5 -194t-194.5 -68q-240 0 -310 258l135 61
q55 -135 177 -135q124 0 180 135z" />
    <glyph glyph-name="ubreve" unicode="&#x16d;" horiz-adv-x="1112" 
d="M143 969l222 4v-584q0 -121 34 -174t109 -53q114 0 229 98v711h221v-570q0 -92 19 -389l-184 -24l-31 114q-131 -131 -311 -131q-155 0 -231.5 86t-76.5 250v662zM553 1292q68 0 113 47.5t55 137.5l147 -17q-8 -162 -92.5 -254.5t-232.5 -91.5q-277 0 -303 346l149 17
q24 -185 164 -185z" />
    <glyph glyph-name="Uring" unicode="&#x16e;" horiz-adv-x="1331" 
d="M946 1372h223v-819q0 -132 -29.5 -236.5t-91 -183t-163 -120.5t-238.5 -42q-235 0 -359 137t-124 398v866h223v-833q0 -189 63.5 -279t219.5 -90q55 0 103.5 19.5t78.5 48.5q94 88 94 268v866zM414 1694q0 108 72 170.5t190 62.5q104 0 171.5 -57.5t67.5 -155.5
q0 -108 -73 -169.5t-189 -61.5q-105 0 -172 56.5t-67 154.5zM762 1706q0 41 -25.5 66.5t-68.5 25.5q-47 0 -75 -26t-28 -70q0 -41 25.5 -66.5t68.5 -25.5q46 0 74.5 25t28.5 71z" />
    <glyph glyph-name="uring" unicode="&#x16f;" horiz-adv-x="1112" 
d="M143 969l222 4v-584q0 -121 34 -174t109 -53q114 0 229 98v711h221v-570q0 -92 19 -389l-184 -24l-31 114q-131 -131 -311 -131q-155 0 -231.5 86t-76.5 250v662zM299 1300q0 109 73 175.5t189 66.5q106 0 174 -60.5t68 -158.5q0 -109 -73.5 -176.5t-188.5 -67.5
q-107 0 -174.5 61t-67.5 160zM647 1315q0 45 -24 70.5t-68 25.5q-49 0 -75.5 -27t-26.5 -77q0 -45 24.5 -70t69.5 -25q100 0 100 103z" />
    <glyph glyph-name="Uhungarumlaut" unicode="&#x170;" horiz-adv-x="1331" 
d="M946 1372h223v-819q0 -132 -29.5 -236.5t-91 -183t-163 -120.5t-238.5 -42q-235 0 -359 137t-124 398v866h223v-833q0 -189 63.5 -279t219.5 -90q55 0 103.5 19.5t78.5 48.5q94 88 94 268v866zM371 1589l217 340l160 -114v-9l-256 -303zM733 1589l215 340l160 -114l2 -9
l-256 -303z" />
    <glyph glyph-name="uhungarumlaut" unicode="&#x171;" horiz-adv-x="1112" 
d="M143 969l222 4v-584q0 -121 34 -174t109 -53q114 0 229 98v711h221v-570q0 -92 19 -389l-184 -24l-31 114q-131 -131 -311 -131q-155 0 -231.5 86t-76.5 250v662zM270 1167l185 359l170 -96v-11l-230 -321zM608 1167l187 359l166 -96v-11l-228 -321z" />
    <glyph glyph-name="Uogonek" unicode="&#x172;" horiz-adv-x="1331" 
d="M1169 553q0 -189 -50.5 -299.5t-178.5 -216.5q-156 -142 -156 -258q0 -92 95 -92q49 0 108 20l49 -147q-104 -52 -227 -52q-113 0 -177.5 54.5t-64.5 156.5q0 139 135 252v2q-18 -2 -55 -2q-235 0 -359 137t-124 398v866h223v-833q0 -189 63.5 -279t219.5 -90
q55 0 103.5 19.5t78.5 48.5q94 88 94 268v866h223v-819z" />
    <glyph glyph-name="uogonek" unicode="&#x173;" horiz-adv-x="1112" 
d="M143 971h222v-582q0 -121 34.5 -174t112.5 -53q113 0 225 98v711h221v-570q0 -141 19 -436q-85 -35 -132.5 -82t-47.5 -94q0 -82 88 -82q52 0 106 21l47 -150q-104 -49 -223 -49q-113 0 -174 53.5t-61 149.5q0 143 198 272l-20 94q-130 -127 -301 -127q-163 0 -238.5 85
t-75.5 251v664z" />
    <glyph glyph-name="Wcircumflex" unicode="&#x174;" horiz-adv-x="1890" 
d="M1630 1372h221q-2 -18 -10 -47t-21 -71t-20 -70l-340 -1180l-276 -8l-193 897l-37 231h-10l-252 -1120l-278 -8l-318 1196q-5 19 -13.5 50.5t-13.5 50.5t-10 41.5t-6 37.5h223l224 -862l53 -266h8l246 1128h295l188 -862l41 -266h8zM881 1833l153 8l262 -219l-94 -125
l-246 170l-243 -168l-92 129z" />
    <glyph glyph-name="wcircumflex" unicode="&#x175;" horiz-adv-x="1574" 
d="M684 969l223 4l156 -598l33 -148h8l194 744h220q0 -42 -23 -105l-281 -862l-247 -8l-152 528l-31 140h-4l-176 -660l-248 -8l-272 870q-21 69 -21 105h228l160 -596l32 -148h9zM723 1503l162 6l256 -301l-113 -106l-227 223l-226 -221l-108 106z" />
    <glyph glyph-name="Ycircumflex" unicode="&#x176;" horiz-adv-x="1155" 
d="M899 1372h227q-6 -40 -72 -160q-5 -8 -7 -12l-361 -663v-537h-223v547l-350 653q-72 125 -76 172h235l222 -418l90 -188h4zM502 1833l153 8l263 -219l-95 -125l-245 170l-244 -168l-92 129z" />
    <glyph glyph-name="ycircumflex" unicode="&#x177;" horiz-adv-x="1024" 
d="M752 971h217q0 -51 -21 -105l-323 -893q-98 -253 -210.5 -368t-260.5 -115q-57 0 -109 10v174q139 1 234 78.5t167 247.5h-57l-307 866q-21 50 -21 105h228l172 -533q34 -111 49 -211h8zM442 1503l162 6l256 -301l-112 -106l-228 223l-225 -221l-109 106z" />
    <glyph glyph-name="Ydieresis" unicode="&#x178;" horiz-adv-x="1155" 
d="M899 1372h227q-6 -40 -72 -160q-5 -8 -7 -12l-361 -663v-537h-223v547l-350 653q-72 125 -76 172h235l222 -418l90 -188h4zM657 1657q0 60 39 96.5t101 36.5q54 0 89.5 -32t35.5 -87q0 -60 -38 -96.5t-100 -36.5q-55 0 -91 32t-36 87zM238 1657q0 60 38 96.5t101 36.5
q54 0 88.5 -31.5t34.5 -87.5q0 -60 -37 -96.5t-98 -36.5q-56 0 -91.5 31.5t-35.5 87.5z" />
    <glyph glyph-name="Zacute" unicode="&#x179;" horiz-adv-x="1185" 
d="M115 1372h946l35 -190l-756 -989h741l6 -193h-985l-18 195l743 985h-706zM401 1661l451 184l63 -188v-10l-466 -134z" />
    <glyph glyph-name="zacute" unicode="&#x17a;" horiz-adv-x="972" 
d="M119 971h737l25 -166l-521 -625h504l6 -180h-764l-22 166l518 625h-477zM324 1206l327 322l133 -148v-10l-358 -274z" />
    <glyph glyph-name="Zdotaccent" unicode="&#x17b;" horiz-adv-x="1185" 
d="M115 1372h946l35 -190l-756 -989h741l6 -193h-985l-18 195l743 985h-706zM463 1663q0 62 39.5 101.5t103.5 39.5q57 0 92 -35t35 -92q0 -62 -38.5 -100.5t-102.5 -38.5q-59 0 -94 34t-35 91z" />
    <glyph glyph-name="zdotaccent" unicode="&#x17c;" horiz-adv-x="972" 
d="M119 971h737l25 -166l-521 -625h504l6 -180h-764l-22 166l518 625h-477zM356 1274q0 63 41 103t105 40q59 0 95 -35.5t36 -93.5q0 -63 -40 -102t-104 -39q-61 0 -97 34t-36 93z" />
    <glyph glyph-name="Zcaron" unicode="&#x17d;" horiz-adv-x="1185" 
d="M115 1372h946l35 -190l-756 -989h741l6 -193h-985l-18 195l743 985h-706zM260 1731l94 127l246 -172l244 169l92 -129l-260 -206l-154 -9z" />
    <glyph glyph-name="zcaron" unicode="&#x17e;" horiz-adv-x="972" 
d="M119 971h737l25 -166l-521 -625h504l6 -180h-764l-22 166l518 625h-477zM418 1114l-258 301l112 107l228 -222l225 222l109 -107l-256 -293z" />
    <glyph glyph-name="longs" unicode="&#x17f;" horiz-adv-x="630" 
d="M219 1135q0 111 42 206t129.5 156.5t205.5 61.5q131 0 254 -97l-90 -139q-80 47 -170 47q-77 0 -105 -41q-43 -56 -43 -158v-1171h-221l-2 786h-147v185h147v164z" />
    <glyph glyph-name="uni018F" unicode="&#x18f;" horiz-adv-x="1243" 
d="M1133 717q0 -740 -537 -740q-251 0 -371.5 143.5t-120.5 405.5q0 125 21 230h784q-4 108 -21.5 185t-55.5 136t-103.5 88t-161.5 29q-168 0 -368 -82l-66 164q209 119 457 119q283 0 413 -174t130 -504zM600 178q149 0 219 95.5t84 289.5h-575q-4 -46 -4 -78
q0 -150 69 -228.5t207 -78.5z" />
    <glyph glyph-name="uni0192" unicode="&#x192;" horiz-adv-x="1058" 
d="M408 1012q23 172 121.5 277.5t265.5 105.5q135 0 237 -86l-82 -142q-81 37 -153 37q-64 0 -105 -35q-47 -44 -63 -151l-37 -281h219l-20 -184h-224l-73 -563q-21 -165 -115.5 -269t-247.5 -104q-132 0 -231 80l77 145q81 -37 144 -37t101.5 47.5t49.5 131.5l76 569h-160
l19 184h164z" />
    <glyph glyph-name="Ohorn" unicode="&#x1a0;" horiz-adv-x="1435" 
d="M102 666q0 143 38.5 272.5t112.5 234t194.5 166.5t271.5 62q119 0 217 -37q40 -12 96 -12q45 0 70.5 24.5t25.5 67.5q0 62 -41 137l201 8q49 -83 49 -182q0 -177 -159 -229q139 -186 139 -471q0 -114 -23.5 -220t-73.5 -200t-121.5 -164t-173.5 -111t-223 -41
q-142 0 -257 55t-189.5 150t-114 220.5t-39.5 269.5zM1081 688q0 143 -40.5 257t-126.5 185t-205 70q-124 0 -207 -72q-84 -74 -125 -193t-41 -251q0 -142 41.5 -256.5t128.5 -185t207 -70.5q126 0 205 72q85 73 124 191.5t39 252.5z" />
    <glyph glyph-name="ohorn" unicode="&#x1a1;" horiz-adv-x="1122" 
d="M96 459q0 105 31.5 201t89 172t148 121.5t200.5 45.5q88 0 170 -32q46 -17 76 -17q84 0 84 82q0 58 -43 137l178 9q49 -83 49 -179q0 -155 -153 -204q69 -123 69 -287q0 -107 -31 -203t-88.5 -171t-147.5 -119t-200 -44q-197 0 -314.5 135t-117.5 353zM768 473
q0 155 -57.5 245.5t-167.5 90.5q-95 0 -144 -57q-75 -85 -75 -260q0 -153 58.5 -242.5t168.5 -89.5q92 0 143 59q74 83 74 254z" />
    <glyph glyph-name="Uhorn" unicode="&#x1af;" horiz-adv-x="1353" 
d="M946 1372h131q58 0 83.5 22.5t25.5 67.5q0 69 -43 140l200 8q52 -88 52 -183q0 -215 -226 -243v-631q0 -132 -29.5 -236.5t-91 -183t-163 -120.5t-238.5 -42q-235 0 -359 137t-124 398v866h223v-833q0 -189 63.5 -279t219.5 -90q55 0 103.5 19.5t78.5 48.5q94 88 94 268
v866z" />
    <glyph glyph-name="uhorn" unicode="&#x1b0;" horiz-adv-x="1146" 
d="M956 1190l181 8q49 -83 49 -178q0 -100 -62 -154t-166 -65v-400q0 -92 19 -389l-184 -24l-31 114q-131 -131 -311 -131q-155 0 -231.5 86t-76.5 250v662l222 4v-584q0 -121 34 -174t109 -53q114 0 229 98v711h158q58 0 81 19.5t23 62.5q0 66 -43 137z" />
    <glyph glyph-name="uni01FA" unicode="&#x1fa;" horiz-adv-x="1224" 
d="M614 1106l-186 -571h365l-93 290l-77 281h-9zM492 1368l253 8l408 -1265q19 -52 25 -111h-215l-109 344h-487l-113 -344h-221q8 52 26 109zM365 1694q0 108 72 170.5t190 62.5q104 0 171.5 -57.5t67.5 -155.5q0 -108 -73 -169.5t-189 -61.5q-105 0 -172 56.5t-67 154.5z
M713 1706q0 40 -25.5 66t-69.5 26q-47 0 -74.5 -26t-27.5 -70q0 -41 25.5 -66.5t68.5 -25.5q46 0 74.5 25t28.5 71zM418 2136l450 184l64 -188v-10l-467 -133z" />
    <glyph glyph-name="aringacute" unicode="&#x1fb;" horiz-adv-x="1003" 
d="M119 836q181 157 413 157q168 0 247 -86t79 -276v-242q0 -90 16 -377l-184 -26l-31 125q-156 -134 -321 -134q-121 0 -190.5 67t-69.5 179q0 80 37.5 144.5t103.5 105.5q113 68 418 94v2q0 130 -34.5 181t-117.5 51q-132 0 -288 -103zM391 152q113 0 246 106v154
q-232 -16 -295 -56q-51 -33 -51 -104q0 -100 100 -100zM236 1300q0 109 73 175.5t189 66.5q106 0 173.5 -60t67.5 -159q0 -109 -73.5 -176.5t-188.5 -67.5q-106 0 -173.5 61t-67.5 160zM584 1315q0 45 -24 70.5t-68 25.5q-49 0 -76 -27t-27 -77q0 -45 24.5 -70t69.5 -25
q101 0 101 103zM289 1739l450 184l64 -188v-11l-467 -133z" />
    <glyph glyph-name="uni01FC" unicode="&#x1fc;" horiz-adv-x="1800" 
d="M772 993l-223 -428h330l2 615h-11zM745 1372h955l-6 -192h-590v-381h473v-193h-473v-413h596l8 -193h-829v369h-435l-192 -369h-236q3 25 35 90zM1028 1661l451 184l63 -188v-10l-467 -134z" />
    <glyph glyph-name="uni01FD" unicode="&#x1fd;" horiz-adv-x="1552" 
d="M1071 815q-91 0 -144 -62.5t-67 -177.5h375q2 18 2 58q0 87 -41.5 134.5t-124.5 47.5zM219 471q123 75 416 100q0 129 -33.5 179.5t-116.5 50.5q-134 0 -290 -101l-72 136q170 157 407 157q191 0 256 -127q123 129 306 129q180 0 273 -110.5t93 -292.5q0 -94 -18 -170
h-584q23 -252 248 -252q148 0 276 47l52 -156q-178 -84 -365 -84q-106 0 -193.5 41t-144.5 119q-164 -160 -371 -160q-133 0 -208.5 64.5t-75.5 181.5q0 79 39 143t106 105zM395 152q62 0 134 31.5t137 88.5q-19 69 -25 146q-226 -19 -297 -64q-55 -33 -55 -98
q0 -53 25.5 -78.5t80.5 -25.5zM662 1206l327 322l133 -148v-10l-358 -274z" />
    <glyph glyph-name="Oslashacute" unicode="&#x1fe;" horiz-adv-x="1400" 
d="M102 666q0 143 38.5 273t111.5 234t191 166t266 62q145 0 262 -60l80 144l151 -88l-90 -160q91 -96 138.5 -233t47.5 -297q0 -114 -23 -220t-72.5 -200t-119.5 -164t-171 -111t-220 -41q-148 0 -262 60l-80 -140l-149 86l88 158q-90 95 -138.5 233.5t-48.5 297.5z
M338 684q0 -196 74 -332l454 805q-71 47 -168 47q-122 0 -200 -71q-82 -72 -121 -193.5t-39 -255.5zM1063 688q0 196 -74 332l-457 -805q74 -47 168 -47q125 0 201 72q82 72 122 193.5t40 254.5zM506 1661l450 184l64 -188v-10l-467 -134z" />
    <glyph glyph-name="oslashacute" unicode="&#x1ff;" horiz-adv-x="1091" 
d="M96 459q0 105 31.5 201t89 172t148 121.5t200.5 45.5q74 0 142 -22l59 123l133 -72l-61 -125q75 -66 116 -168.5t41 -226.5q0 -107 -31 -203t-88.5 -171t-147.5 -119t-200 -44q-72 0 -143 23l-61 -125l-134 65l66 132q-77 65 -118.5 166.5t-41.5 226.5zM324 492
q0 -132 38 -207l254 512q-34 12 -73 12q-95 0 -144 -57q-75 -85 -75 -260zM768 473q0 132 -39 211l-254 -510q32 -14 76 -14q92 0 143 59q74 83 74 254zM371 1206l327 322l133 -148v-10l-358 -274z" />
    <glyph glyph-name="uni0218" unicode="&#x218;" horiz-adv-x="1120" 
d="M121 1001q0 100 42 178.5t114 125.5t161 71.5t189 24.5q194 0 366 -86l-63 -172q-147 57 -305 57q-53 0 -98 -8.5t-86 -28t-65 -56.5t-24 -89q0 -30 8.5 -55.5t28.5 -47t40 -37t56 -32.5t61.5 -27.5t71.5 -27.5q171 -68 239 -110q147 -93 170 -239q5 -31 5 -63
q0 -131 -70 -225t-184.5 -138.5t-259.5 -44.5q-128 0 -245.5 34.5t-198.5 88.5l82 170q176 -92 362 -92q121 0 202 46.5t81 141.5q0 27 -8.5 51.5t-20.5 43t-35.5 36.5t-43.5 30.5t-55 27.5t-58.5 24.5t-65.5 24.5q-55 22 -83.5 33.5t-77.5 35.5t-75.5 43.5t-61 51t-52 64.5
t-30.5 78t-13 97zM453 -147l190 18q10 -55 10 -109q0 -95 -36.5 -178t-90.5 -135l-123 72q54 99 54 223q0 39 -4 109z" />
    <glyph glyph-name="uni0219" unicode="&#x219;" horiz-adv-x="917" 
d="M115 690q-3 138 106.5 220.5t270.5 82.5q166 0 309 -112l-96 -144q-115 72 -220 72q-68 0 -105.5 -25t-37.5 -65q0 -20 10.5 -38t24 -30.5t43 -27t52 -23.5t65.5 -25q55 -20 92 -36t78 -41.5t65.5 -53.5t40.5 -69t16 -90q0 -139 -106.5 -223.5t-282.5 -84.5
q-207 0 -364 121l90 146q136 -84 264 -84q75 0 121.5 27t46.5 73q0 35 -33.5 65t-66.5 45t-108 44l-15 6q-47 18 -80.5 33.5t-69.5 39.5t-57.5 50t-36.5 64t-16 83zM375 -147l190 18q10 -55 10 -109q0 -95 -36 -178t-88 -135l-125 72q55 101 55 223q0 56 -6 109z" />
    <glyph glyph-name="uni021A" unicode="&#x21a;" horiz-adv-x="1167" 
d="M49 1372h1069l-6 -192h-416v-1180h-223v1180h-418zM498 -147l190 18q10 -55 10 -109q0 -95 -36.5 -178t-90.5 -135l-122 72q53 97 53 223q0 39 -4 109z" />
    <glyph glyph-name="uni021B" unicode="&#x21b;" horiz-adv-x="798" 
d="M248 1257h182v-286h293v-185h-293v-421q0 -115 25 -154t96 -39q62 0 151 18l41 -163q-136 -50 -280 -50q-129 0 -191.5 72t-62.5 254v483h-141v185h131zM373 -147l190 18q10 -55 10 -109q0 -95 -36 -178t-88 -135l-125 72q55 101 55 223q0 56 -6 109z" />
    <glyph glyph-name="dotlessj" unicode="&#x237;" horiz-adv-x="524" 
d="M152 969l221 4v-914q0 -195 -73.5 -327t-211.5 -230l-119 119q89 94 136 203t47 254v891z" />
    <glyph glyph-name="uni0259" unicode="&#x259;" horiz-adv-x="978" 
d="M879 510q0 -121 -22.5 -216.5t-70.5 -167.5t-127.5 -110.5t-187.5 -38.5q-185 0 -278 108.5t-93 305.5q0 95 13 178h555q-9 131 -62.5 186.5t-177.5 55.5q-28 0 -57 -2.5t-50.5 -6t-47.5 -10t-39.5 -10t-36 -10.5t-27.5 -8l-53 154q153 75 334 75q223 0 325.5 -122
t102.5 -361zM471 160q102 0 145.5 59.5t51.5 186.5h-363q-2 -18 -2 -52q0 -194 168 -194z" />
    <glyph glyph-name="uni02BC" unicode="&#x2bc;" horiz-adv-x="0" 
d="M39 1495l203 10q16 -59 16 -121q0 -98 -63 -176t-162 -116l-78 98q92 68 92 188q0 43 -8 117z" />
    <glyph glyph-name="circumflex" unicode="&#x2c6;" horiz-adv-x="819" 
d="M330 1503l162 6l256 -301l-113 -106l-227 223l-226 -221l-108 106z" />
    <glyph glyph-name="caron" unicode="&#x2c7;" horiz-adv-x="819" 
d="M334 1114l-258 301l112 107l228 -222l225 222l109 -107l-256 -293z" />
    <glyph glyph-name="uni02C9" unicode="&#x2c9;" horiz-adv-x="0" 
d="M-276 1321h552v-170h-552v170z" />
    <glyph glyph-name="uni02CA" unicode="&#x2ca;" horiz-adv-x="0" 
d="M-170 1206l328 322l133 -148v-10l-359 -274z" />
    <glyph glyph-name="uni02CB" unicode="&#x2cb;" horiz-adv-x="0" 
d="M-258 1380l131 148l328 -322l-103 -110l-356 274v10z" />
    <glyph glyph-name="breve" unicode="&#x2d8;" horiz-adv-x="819" 
d="M414 1292q68 0 113 47.5t55 137.5l147 -17q-8 -162 -92.5 -254.5t-233.5 -91.5q-277 0 -303 346l150 17q24 -185 164 -185z" />
    <glyph glyph-name="dotaccent" unicode="&#x2d9;" horiz-adv-x="819" 
d="M272 1274q0 63 41 103t105 40q59 0 95 -35.5t36 -93.5q0 -63 -39.5 -102t-103.5 -39q-62 0 -98 34.5t-36 92.5z" />
    <glyph glyph-name="ring" unicode="&#x2da;" horiz-adv-x="819" 
d="M160 1300q0 109 73 175.5t189 66.5q106 0 174 -60.5t68 -158.5q0 -109 -74 -176.5t-189 -67.5q-106 0 -173.5 61t-67.5 160zM508 1315q0 45 -24 70.5t-68 25.5q-49 0 -76 -27t-27 -77q0 -45 25 -70t70 -25q100 0 100 103z" />
    <glyph glyph-name="ogonek" unicode="&#x2db;" horiz-adv-x="819" 
d="M106 -262q0 111 90 202.5t246 172.5l72 -101q-96 -52 -143 -104.5t-47 -112.5q0 -88 98 -88q50 0 115 23l47 -150q-105 -51 -230 -51q-118 0 -183 55.5t-65 153.5z" />
    <glyph glyph-name="tilde" unicode="&#x2dc;" horiz-adv-x="819" 
d="M528 1296q63 0 121 125l129 -61q-36 -120 -101.5 -183t-146.5 -63q-45 0 -83.5 18.5t-60 41t-47 41t-48.5 18.5q-22 0 -45.5 -20t-37.5 -40.5t-40 -62.5l-127 70q40 113 105 174t149 61q43 0 81 -18.5t60 -41t47 -41t45 -18.5z" />
    <glyph glyph-name="hungarumlaut" unicode="&#x2dd;" horiz-adv-x="819" 
d="M131 1167l184 359l170 -96v-11l-229 -321zM469 1167l186 359l166 -96v-11l-227 -321z" />
    <glyph glyph-name="uni0300" unicode="&#x300;" horiz-adv-x="0" 
d="M-258 1380l131 148l328 -322l-103 -110l-356 274v10z" />
    <glyph glyph-name="uni0301" unicode="&#x301;" horiz-adv-x="0" 
d="M-170 1206l328 322l133 -148v-10l-359 -274z" />
    <glyph glyph-name="uni0302" unicode="&#x302;" horiz-adv-x="0" 
d="M-80 1503l162 6l256 -301l-113 -106l-227 223l-225 -221l-109 106z" />
    <glyph glyph-name="uni0303" unicode="&#x303;" horiz-adv-x="0" 
d="M119 1296q63 0 121 125l129 -61q-36 -120 -101.5 -183t-146.5 -63q-45 0 -83.5 18.5t-60.5 41t-47.5 41t-48.5 18.5q-22 0 -45.5 -20t-37.5 -40.5t-40 -62.5l-127 70q40 113 105 174t149 61q43 0 81 -18.5t60 -41t47.5 -41t45.5 -18.5z" />
    <glyph glyph-name="uni0304" unicode="&#x304;" horiz-adv-x="0" 
d="M-276 1321h552v-170h-552v170z" />
    <glyph glyph-name="uni0306" unicode="&#x306;" horiz-adv-x="0" 
d="M4 1292q68 0 113 47.5t55 137.5l147 -17q-8 -162 -92.5 -254.5t-232.5 -91.5q-277 0 -303 346l149 17q24 -185 164 -185z" />
    <glyph glyph-name="uni0307" unicode="&#x307;" horiz-adv-x="0" 
d="M-137 1274q0 63 40.5 103t104.5 40q59 0 95 -35.5t36 -93.5q0 -63 -39.5 -102t-103.5 -39q-61 0 -97 34t-36 93z" />
    <glyph glyph-name="uni0308" unicode="&#x308;" horiz-adv-x="0" 
d="M78 1268q0 60 37 96.5t98 36.5q54 0 87.5 -30.5t33.5 -86.5q0 -61 -36 -98t-97 -37q-54 0 -88.5 31.5t-34.5 87.5zM-322 1268q0 60 36.5 96.5t99.5 36.5q54 0 87 -30.5t33 -86.5q0 -61 -36 -98t-97 -37q-55 0 -89 31.5t-34 87.5z" />
    <glyph glyph-name="uni0309" unicode="&#x309;" horiz-adv-x="0" 
d="M-129 1360l-31 133q79 27 140 27q100 0 159.5 -50t59.5 -139q0 -105 -81.5 -164.5t-219.5 -68.5l-21 129q75 16 109 34.5t34 57.5q0 55 -67 55q-41 0 -82 -14z" />
    <glyph glyph-name="uni030A" unicode="&#x30a;" horiz-adv-x="0" 
d="M-250 1300q0 109 73 175.5t189 66.5q106 0 174 -60.5t68 -158.5q0 -109 -73.5 -176.5t-188.5 -67.5q-107 0 -174.5 61t-67.5 160zM98 1315q0 45 -24 70.5t-68 25.5q-49 0 -75.5 -27t-26.5 -77q0 -45 24.5 -70t69.5 -25q100 0 100 103z" />
    <glyph glyph-name="uni030B" unicode="&#x30b;" horiz-adv-x="0" 
d="M-279 1167l185 359l170 -96v-11l-230 -321zM59 1167l187 359l166 -96v-11l-228 -321z" />
    <glyph glyph-name="uni030C" unicode="&#x30c;" horiz-adv-x="0" 
d="M-76 1114l-258 301l113 107l227 -222l225 222l109 -107l-256 -293z" />
    <glyph glyph-name="uni031B" unicode="&#x31b;" horiz-adv-x="0" 
d="M-27 1190l181 8q49 -83 49 -178q0 -114 -78.5 -167.5t-204.5 -53.5h-49v172h41q58 0 81 19.5t23 62.5q0 66 -43 137z" />
    <glyph glyph-name="uni0323" unicode="&#x323;" horiz-adv-x="0" 
d="M-135 -307q0 62 39.5 101.5t103.5 39.5q57 0 92 -35t35 -92q0 -62 -38.5 -100.5t-102.5 -38.5q-59 0 -94 34t-35 91z" />
    <glyph glyph-name="uni0326" unicode="&#x326;" horiz-adv-x="0" 
d="M-70 -147l191 18q10 -55 10 -109q0 -95 -36.5 -178t-88.5 -135l-125 72q56 102 56 223q0 48 -7 109z" />
    <glyph glyph-name="uni0327" unicode="&#x327;" horiz-adv-x="0" 
d="M-158 -158l103 215l141 -47l-51 -112h4q56 0 102.5 -14.5t81.5 -54.5t35 -101q0 -110 -106.5 -180t-288.5 -91l-27 135q94 15 149.5 47.5t55.5 75.5q0 32 -26.5 49t-67.5 17q-28 0 -56 -4z" />
    <glyph glyph-name="uni0328" unicode="&#x328;" horiz-adv-x="0" 
d="M-303 -262q0 111 90 202.5t246 172.5l71 -101q-96 -52 -143 -104.5t-47 -112.5q0 -88 98 -88q50 0 115 23l47 -150q-105 -51 -229 -51q-118 0 -183 55.5t-65 153.5z" />
    <glyph glyph-name="uni0335" unicode="&#x335;" horiz-adv-x="0" 
d="M-332 487h664v-153h-664v153z" />
    <glyph glyph-name="a.sups" unicode="&#x1d43;" horiz-adv-x="724" 
d="M90 1370q133 96 287 96q124 0 181.5 -55.5t57.5 -173.5v-133q0 -66 13 -244l-144 -22l-30 82q-97 -84 -205 -84q-86 0 -135 41t-49 114q0 96 90 152q84 50 278 65q-1 66 -21 89.5t-73 23.5q-78 0 -188 -55zM303 963q55 0 131 51v92q-116 -7 -166 -35q-28 -19 -28 -53
q0 -55 63 -55z" />
    <glyph glyph-name="b.sups" unicode="&#x1d47;" horiz-adv-x="798" 
d="M111 1784l184 2v-387q74 71 168 71q125 0 192.5 -86.5t67.5 -222.5q0 -143 -87 -234t-253 -91q-145 0 -272 36v912zM389 977q53 0 92 27q54 37 54 147q0 84 -30 130t-85 46q-62 0 -125 -49v-291q52 -10 94 -10z" />
    <glyph glyph-name="d.sups" unicode="&#x1d48;" horiz-adv-x="808" 
d="M383 973q59 0 125 51v274q-56 29 -109 29q-54 0 -90 -31q-45 -40 -45 -143q0 -86 30.5 -133t88.5 -47zM74 1133q0 89 35.5 165t105.5 124t160 48q71 0 133 -40v354l186 2v-682q0 -66 13 -244l-148 -20l-29 78q-87 -87 -192 -87q-112 0 -187.5 83t-76.5 219z" />
    <glyph glyph-name="e.sups" unicode="&#x1d49;" horiz-adv-x="731" 
d="M74 1133q0 145 86 240t235 95q129 0 195.5 -72.5t66.5 -191.5q0 -52 -10 -104h-383q17 -123 158 -123q92 0 178 24l39 -116q-122 -49 -250 -49q-145 0 -230 77.5t-85 219.5zM387 1335q-107 0 -123 -129h217q2 8 2 31q0 45 -24 71.5t-72 26.5z" />
    <glyph glyph-name="g.sups" unicode="&#x1d4d;" horiz-adv-x="768" 
d="M125 934q0 68 68 121q-59 27 -90 74t-31 102q0 99 77.5 167t217.5 68q77 0 137 -26q92 75 205 80v-140q-66 -4 -111 -14q41 -53 41 -119q0 -99 -78 -161t-213 -62q-35 0 -51 2q-12 -15 -12 -33q0 -31 30.5 -40t100.5 -9q133 -2 203.5 -46.5t70.5 -131.5
q0 -107 -99.5 -171.5t-262.5 -64.5q-132 0 -211 46t-78 131q0 92 108 159q-22 25 -22 68zM358 662q84 0 127 22q41 18 41 64q0 33 -42 45t-122 12q-69 0 -116 12q-49 -40 -49 -80q0 -75 161 -75zM463 1243q0 103 -109 103q-48 0 -78 -26t-30 -75q0 -102 108 -102q49 0 79 26
t30 74z" />
    <glyph glyph-name="k.sups" unicode="&#x1d4f;" horiz-adv-x="763" 
d="M526 1452h179q0 -25 -37 -72l-176 -198l194 -258q32 -45 37 -76h-193l-170 229l-63 -47v-182h-184v936l184 2v-582l51 49z" />
    <glyph glyph-name="m.sups" unicode="&#x1d50;" horiz-adv-x="1191" 
d="M102 1442l148 22l31 -86q92 92 215 92q130 0 174 -96q93 96 217 96q198 0 198 -219v-403h-184v362q0 63 -17 90t-59 27q-57 0 -133 -51v-25v-403h-184v362q0 62 -16.5 89.5t-57.5 27.5q-62 0 -133 -51v-428h-186v338q0 70 -13 256z" />
    <glyph glyph-name="o.sups" unicode="&#x1d52;" horiz-adv-x="784" 
d="M74 1139q0 141 87.5 236t241.5 95q141 0 224.5 -88t83.5 -221q0 -142 -86 -236t-240 -94q-146 0 -228.5 87t-82.5 221zM522 1151q0 81 -33 131.5t-94 50.5q-47 0 -80 -26q-51 -48 -51 -154q0 -85 33.5 -135.5t97.5 -50.5q53 0 82 32q45 45 45 152z" />
    <glyph glyph-name="p.sups" unicode="&#x1d56;" horiz-adv-x="806" 
d="M410 973q53 0 84 31q49 41 49 151q0 172 -119 172q-58 0 -123 -43v-285q51 -26 109 -26zM102 1442l148 22l29 -80q89 86 188 86q120 0 193 -86t73 -217q0 -139 -85 -237.5t-210 -98.5q-76 0 -137 39v-319h-186v633q0 26 -13 258z" />
    <glyph glyph-name="t.sups" unicode="&#x1d57;" horiz-adv-x="610" 
d="M188 1636h146v-186h194v-135h-194v-225q0 -64 17 -86.5t63 -22.5q38 0 96 12l29 -121q-89 -36 -187 -36t-150 50t-52 161v268h-95v135h92z" />
    <glyph glyph-name="u.sups" unicode="&#x1d58;" horiz-adv-x="804" 
d="M106 1452h187v-369q0 -61 19.5 -85.5t64.5 -24.5q58 0 127 53v426h186v-336q0 -84 12 -256l-145 -20l-31 78q-87 -87 -207 -87q-213 0 -213 213v408z" />
    <glyph glyph-name="v.sups" unicode="&#x1d5b;" horiz-adv-x="727" 
d="M510 1452h178q0 -30 -12 -76l-213 -526l-207 -4l-201 530q-14 40 -14 76h188l95 -295q27 -87 38 -143h5z" />
    <glyph glyph-name="i.sinf" unicode="&#x1d62;" horiz-adv-x="409" 
d="M113 500l184 4v-606h-184v602zM100 688q0 46 31 74.5t82 28.5q45 0 73.5 -26.5t28.5 -66.5q0 -45 -31 -73.5t-81 -28.5q-47 0 -75 26t-28 66z" />
    <glyph glyph-name="r.sinf" unicode="&#x1d63;" horiz-adv-x="593" 
d="M102 492l148 22l37 -111q69 113 170 113q52 0 98 -24l-31 -168q-33 8 -75 8q-90 0 -148 -58v-376h-186v338q0 68 -13 256z" />
    <glyph glyph-name="u.sinf" unicode="&#x1d64;" horiz-adv-x="804" 
d="M104 502h187v-369q0 -61 19.5 -85.5t64.5 -24.5q58 0 127 53v426h186v-336q0 -84 12 -256l-145 -21l-31 78q-86 -86 -207 -86q-213 0 -213 213v408z" />
    <glyph glyph-name="v.sinf" unicode="&#x1d65;" horiz-adv-x="727" 
d="M508 502h178q0 -30 -12 -76l-213 -526l-207 -4l-201 530q-14 40 -14 76h188l95 -295q26 -85 38 -144h5z" />
    <glyph glyph-name="Wgrave" unicode="&#x1e80;" horiz-adv-x="1890" 
d="M1630 1372h221q-2 -18 -10 -47t-21 -71t-20 -70l-340 -1180l-276 -8l-193 897l-37 231h-10l-252 -1120l-278 -8l-318 1196q-5 19 -13.5 50.5t-13.5 50.5t-10 41.5t-6 37.5h223l224 -862l53 -266h8l246 1128h295l188 -862l41 -266h8zM641 1657l64 188l450 -184l-47 -148
l-467 134v10z" />
    <glyph glyph-name="wgrave" unicode="&#x1e81;" horiz-adv-x="1574" 
d="M684 969l223 4l156 -598l33 -148h8l194 744h220q0 -42 -23 -105l-281 -862l-247 -8l-152 528l-31 140h-4l-176 -660l-248 -8l-272 870q-21 69 -21 105h228l160 -596l32 -148h9zM545 1380l131 148l328 -322l-103 -110l-356 274v10z" />
    <glyph glyph-name="Wacute" unicode="&#x1e82;" horiz-adv-x="1890" 
d="M1630 1372h221q-2 -18 -10 -47t-21 -71t-20 -70l-340 -1180l-276 -8l-193 897l-37 231h-10l-252 -1120l-278 -8l-318 1196q-5 19 -13.5 50.5t-13.5 50.5t-10 41.5t-6 37.5h223l224 -862l53 -266h8l246 1128h295l188 -862l41 -266h8zM762 1661l450 184l64 -188v-10
l-467 -134z" />
    <glyph glyph-name="wacute" unicode="&#x1e83;" horiz-adv-x="1574" 
d="M684 969l223 4l156 -598l33 -148h8l194 744h220q0 -42 -23 -105l-281 -862l-247 -8l-152 528l-31 140h-4l-176 -660l-248 -8l-272 870q-21 69 -21 105h228l160 -596l32 -148h9zM633 1206l328 322l133 -148v-10l-359 -274z" />
    <glyph glyph-name="Wdieresis" unicode="&#x1e84;" horiz-adv-x="1890" 
d="M1630 1372h221q-2 -18 -10 -47t-21 -71t-20 -70l-340 -1180l-276 -8l-193 897l-37 231h-10l-252 -1120l-278 -8l-318 1196q-5 19 -13.5 50.5t-13.5 50.5t-10 41.5t-6 37.5h223l224 -862l53 -266h8l246 1128h295l188 -862l41 -266h8zM1036 1657q0 60 39 96.5t101 36.5
q54 0 89 -32t35 -87q0 -60 -37.5 -96.5t-99.5 -36.5q-55 0 -91 32t-36 87zM616 1657q0 60 38.5 96.5t101.5 36.5q54 0 88.5 -31.5t34.5 -87.5q0 -60 -37.5 -96.5t-98.5 -36.5q-56 0 -91.5 31.5t-35.5 87.5z" />
    <glyph glyph-name="wdieresis" unicode="&#x1e85;" horiz-adv-x="1574" 
d="M684 969l223 4l156 -598l33 -148h8l194 744h220q0 -42 -23 -105l-281 -862l-247 -8l-152 528l-31 140h-4l-176 -660l-248 -8l-272 870q-21 69 -21 105h228l160 -596l32 -148h9zM881 1268q0 60 37 96.5t98 36.5q54 0 87.5 -30.5t33.5 -86.5q0 -61 -36 -98t-97 -37
q-54 0 -88.5 31.5t-34.5 87.5zM481 1268q0 60 36.5 96.5t98.5 36.5q54 0 87.5 -30.5t33.5 -86.5q0 -61 -36 -98t-97 -37q-55 0 -89 31.5t-34 87.5z" />
    <glyph glyph-name="uni1E9E" unicode="&#x1e9e;" horiz-adv-x="1349" 
d="M1200 1255v-34l-274 -459q49 -12 93.5 -30.5t93 -51t83.5 -73.5t57.5 -102.5t22.5 -133.5q0 -172 -117.5 -283t-298.5 -111q-173 0 -305 72l68 166q96 -49 225 -49q95 0 152 54.5t57 150.5q0 59 -25 104t-73.5 75.5t-107 50t-136.5 32.5l-13 119l232 399q-104 53 -248 53
q-151 0 -219 -82t-68 -282v-840h-223v848q0 291 131 423t385 130q145 -1 281.5 -43.5t226.5 -102.5z" />
    <glyph glyph-name="uni1EA2" unicode="&#x1ea2;" horiz-adv-x="1224" 
d="M614 1106l-186 -571h365l-93 290l-77 281h-9zM492 1368l253 8l408 -1265q19 -52 25 -111h-215l-109 344h-487l-113 -344h-221q8 52 26 109zM481 1722l-30 133q69 27 139 27q98 0 154.5 -42.5t56.5 -129.5q0 -103 -79 -155t-214 -60l-21 129q69 11 101.5 25.5t32.5 46.5
q0 43 -62 43q-29 0 -78 -17z" />
    <glyph glyph-name="uni1EA3" unicode="&#x1ea3;" horiz-adv-x="1003" 
d="M119 836q181 157 413 157q168 0 247 -86t79 -276v-242q0 -90 16 -377l-184 -26l-31 125q-156 -134 -321 -134q-121 0 -190.5 67t-69.5 179q0 80 37.5 144.5t103.5 105.5q113 68 418 94v2q0 130 -34.5 181t-117.5 51q-132 0 -288 -103zM391 152q113 0 246 106v154
q-232 -16 -295 -56q-51 -33 -51 -104q0 -100 100 -100zM371 1360l-31 133q79 27 139 27q100 0 159.5 -50t59.5 -139q0 -105 -81.5 -164.5t-219.5 -68.5l-20 129q75 16 109 34.5t34 57.5q0 55 -67 55q-41 0 -82 -14z" />
    <glyph glyph-name="uni1EA4" unicode="&#x1ea4;" horiz-adv-x="1224" 
d="M614 1106l-186 -571h365l-93 290l-77 281h-9zM492 1368l253 8l408 -1265q19 -52 25 -111h-215l-109 344h-487l-113 -344h-221q8 52 26 109zM537 1802l153 8l262 -208l-94 -125l-246 161l-243 -159l-93 129zM375 1997l454 186l62 -184v-10l-467 -134z" />
    <glyph glyph-name="uni1EA5" unicode="&#x1ea5;" horiz-adv-x="1003" 
d="M119 836q181 157 413 157q168 0 247 -86t79 -276v-242q0 -90 16 -377l-184 -26l-31 125q-156 -134 -321 -134q-121 0 -190.5 67t-69.5 179q0 80 37.5 144.5t103.5 105.5q113 68 418 94v2q0 130 -34.5 181t-117.5 51q-132 0 -288 -103zM391 152q113 0 246 106v154
q-232 -16 -295 -56q-51 -33 -51 -104q0 -100 100 -100zM420 1481l162 6l256 -289l-113 -106l-225 213l-228 -213l-108 106zM680 1522l258 352l149 -119v-12l-296 -307z" />
    <glyph glyph-name="uni1EA6" unicode="&#x1ea6;" horiz-adv-x="1224" 
d="M614 1106l-186 -571h365l-93 290l-77 281h-9zM492 1368l253 8l408 -1265q19 -52 25 -111h-215l-109 344h-487l-113 -344h-221q8 52 26 109zM537 1802l153 8l262 -208l-94 -125l-246 161l-243 -159l-93 129zM354 1999l62 184l454 -186l-49 -142l-467 134v10z" />
    <glyph glyph-name="uni1EA7" unicode="&#x1ea7;" horiz-adv-x="1003" 
d="M119 836q181 157 413 157q168 0 247 -86t79 -276v-242q0 -90 16 -377l-184 -26l-31 125q-156 -134 -321 -134q-121 0 -190.5 67t-69.5 179q0 80 37.5 144.5t103.5 105.5q113 68 418 94v2q0 130 -34.5 181t-117.5 51q-132 0 -288 -103zM391 152q113 0 246 106v154
q-232 -16 -295 -56q-51 -33 -51 -104q0 -100 100 -100zM420 1481l162 6l256 -289l-113 -106l-225 213l-228 -213l-108 106zM522 1755l150 119l256 -348l-109 -90l-297 307v12z" />
    <glyph glyph-name="uni1EA8" unicode="&#x1ea8;" horiz-adv-x="1224" 
d="M614 1106l-186 -571h365l-93 290l-77 281h-9zM492 1368l253 8l408 -1265q19 -52 25 -111h-215l-109 344h-487l-113 -344h-221q8 52 26 109zM537 1802l153 8l262 -208l-94 -125l-246 161l-243 -159l-93 129zM766 2013l-31 133q79 27 142 27q96 0 152 -43t56 -131
q0 -194 -292 -215l-21 129q67 10 100 26t33 48q0 41 -61 41q-24 0 -78 -15z" />
    <glyph glyph-name="uni1EA9" unicode="&#x1ea9;" horiz-adv-x="1003" 
d="M119 836q181 157 413 157q168 0 247 -86t79 -276v-242q0 -90 16 -377l-184 -26l-31 125q-156 -134 -321 -134q-121 0 -190.5 67t-69.5 179q0 80 37.5 144.5t103.5 105.5q113 68 418 94v2q0 130 -34.5 181t-117.5 51q-132 0 -288 -103zM391 152q113 0 246 106v154
q-232 -16 -295 -56q-51 -33 -51 -104q0 -100 100 -100zM420 1481l162 6l256 -289l-113 -106l-225 213l-228 -213l-108 106zM668 1708l-29 133q79 27 139 27q100 0 159.5 -50t59.5 -139q0 -105 -82.5 -164.5t-220.5 -68.5l-18 129q75 16 109 34.5t34 57.5q0 55 -69 55
q-39 0 -82 -14z" />
    <glyph glyph-name="uni1EAA" unicode="&#x1eaa;" horiz-adv-x="1224" 
d="M614 1106l-186 -571h365l-93 290l-77 281h-9zM492 1368l253 8l408 -1265q19 -52 25 -111h-215l-109 344h-487l-113 -344h-221q8 52 26 109zM756 2038q31 0 57.5 30.5t56.5 92.5l131 -62q-83 -227 -251 -227q-44 0 -81.5 18.5t-59.5 40t-50 40t-53 18.5q-29 0 -56 -29
t-61 -88l-129 65q44 103 109.5 160t146.5 57q35 0 65.5 -12t52 -29t41 -34t40 -29t41.5 -12zM537 1802l153 8l262 -208l-94 -125l-246 161l-243 -159l-93 129z" />
    <glyph glyph-name="uni1EAB" unicode="&#x1eab;" horiz-adv-x="1003" 
d="M119 836q181 157 413 157q168 0 247 -86t79 -276v-242q0 -90 16 -377l-184 -26l-31 125q-156 -134 -321 -134q-121 0 -190.5 67t-69.5 179q0 80 37.5 144.5t103.5 105.5q113 68 418 94v2q0 130 -34.5 181t-117.5 51q-132 0 -288 -103zM391 152q113 0 246 106v154
q-232 -16 -295 -56q-51 -33 -51 -104q0 -100 100 -100zM420 1473l162 6l256 -291l-113 -107l-227 215l-226 -213l-108 107zM651 1751q30 0 56 30.5t57 92.5l127 -57q-36 -112 -98 -175t-140 -63q-46 0 -86 18.5t-63 41t-51.5 41t-53.5 18.5q-32 0 -57.5 -30.5t-58.5 -90.5
l-129 68q88 225 245 225q43 0 82.5 -18.5t63.5 -41t53 -41t53 -18.5z" />
    <glyph glyph-name="uni1EAC" unicode="&#x1eac;" horiz-adv-x="1224" 
d="M614 1106l-186 -571h365l-93 290l-77 281h-9zM492 1368l253 8l408 -1265q19 -52 25 -111h-215l-109 344h-487l-113 -344h-221q8 52 26 109zM479 -307q0 62 40 101.5t104 39.5q57 0 92 -35t35 -92q0 -62 -39 -100.5t-103 -38.5q-59 0 -94 34t-35 91zM537 1833l153 8
l262 -219l-94 -125l-246 170l-243 -168l-93 129z" />
    <glyph glyph-name="uni1EAD" unicode="&#x1ead;" horiz-adv-x="1003" 
d="M119 836q181 157 413 157q168 0 247 -86t79 -276v-242q0 -90 16 -377l-184 -26l-31 125q-156 -134 -321 -134q-121 0 -190.5 67t-69.5 179q0 80 37.5 144.5t103.5 105.5q113 68 418 94v2q0 130 -34.5 181t-117.5 51q-132 0 -288 -103zM391 152q113 0 246 106v154
q-232 -16 -295 -56q-51 -33 -51 -104q0 -100 100 -100zM352 -307q0 62 40 101.5t104 39.5q57 0 92 -35t35 -92q0 -62 -39 -100.5t-103 -38.5q-59 0 -94 34t-35 91zM420 1503l162 6l256 -301l-113 -106l-227 223l-226 -221l-108 106z" />
    <glyph glyph-name="uni1EAE" unicode="&#x1eae;" horiz-adv-x="1224" 
d="M614 1106l-186 -571h365l-93 290l-77 281h-9zM492 1368l253 8l408 -1265q19 -52 25 -111h-215l-109 344h-487l-113 -344h-221q8 52 26 109zM926 1751q-34 -124 -118 -188t-196 -64q-240 0 -309 248l135 61q28 -68 70 -98.5t106 -30.5q128 0 181 129zM383 1997l455 186
l61 -184v-10l-467 -134z" />
    <glyph glyph-name="uni1EAF" unicode="&#x1eaf;" horiz-adv-x="1003" 
d="M119 836q181 157 413 157q168 0 247 -86t79 -276v-242q0 -90 16 -377l-184 -26l-31 125q-156 -134 -321 -134q-121 0 -190.5 67t-69.5 179q0 80 37.5 144.5t103.5 105.5q113 68 418 94v2q0 130 -34.5 181t-117.5 51q-132 0 -288 -103zM391 152q113 0 246 106v154
q-232 -16 -295 -56q-51 -33 -51 -104q0 -100 100 -100zM504 1272q69 0 113.5 45t54.5 137l147 -16q-8 -158 -92.5 -249.5t-232.5 -90.5q-277 0 -304 340l150 16q23 -182 164 -182zM387 1563l260 352l150 -119v-12l-295 -307z" />
    <glyph glyph-name="uni1EB0" unicode="&#x1eb0;" horiz-adv-x="1224" 
d="M614 1106l-186 -571h365l-93 290l-77 281h-9zM492 1368l253 8l408 -1265q19 -52 25 -111h-215l-109 344h-487l-113 -344h-221q8 52 26 109zM926 1751q-34 -124 -118 -188t-196 -64q-240 0 -309 248l135 61q28 -68 70 -98.5t106 -30.5q128 0 181 129zM322 1999l61 184
l455 -186l-50 -142l-464 134z" />
    <glyph glyph-name="uni1EB1" unicode="&#x1eb1;" horiz-adv-x="1003" 
d="M119 836q181 157 413 157q168 0 247 -86t79 -276v-242q0 -90 16 -377l-184 -26l-31 125q-156 -134 -321 -134q-121 0 -190.5 67t-69.5 179q0 80 37.5 144.5t103.5 105.5q113 68 418 94v2q0 130 -34.5 181t-117.5 51q-132 0 -288 -103zM391 152q113 0 246 106v154
q-232 -16 -295 -56q-51 -33 -51 -104q0 -100 100 -100zM504 1272q69 0 113.5 45t54.5 137l147 -16q-8 -158 -92.5 -249.5t-232.5 -90.5q-277 0 -304 340l150 16q23 -182 164 -182zM223 1796l150 119l256 -348l-111 -90l-295 307v12z" />
    <glyph glyph-name="uni1EB2" unicode="&#x1eb2;" horiz-adv-x="1224" 
d="M614 1106l-186 -571h365l-93 290l-77 281h-9zM492 1368l253 8l408 -1265q19 -52 25 -111h-215l-109 344h-487l-113 -344h-221q8 52 26 109zM926 1751q-34 -124 -118 -188t-196 -64q-240 0 -309 248l135 61q28 -68 70 -98.5t106 -30.5q128 0 181 129zM494 2044l-31 133
q69 27 139 27q98 0 154.5 -42.5t56.5 -129.5q0 -194 -293 -215l-20 129q69 11 101 25t32 48q0 41 -62 41q-31 0 -77 -16z" />
    <glyph glyph-name="uni1EB3" unicode="&#x1eb3;" horiz-adv-x="1003" 
d="M119 836q181 157 413 157q168 0 247 -86t79 -276v-242q0 -90 16 -377l-184 -26l-31 125q-156 -134 -321 -134q-121 0 -190.5 67t-69.5 179q0 80 37.5 144.5t103.5 105.5q113 68 418 94v2q0 130 -34.5 181t-117.5 51q-132 0 -288 -103zM391 152q113 0 246 106v154
q-232 -16 -295 -56q-51 -33 -51 -104q0 -100 100 -100zM504 1272q69 0 113.5 45t54.5 137l147 -16q-8 -158 -92.5 -249.5t-232.5 -90.5q-277 0 -304 340l150 16q23 -182 164 -182zM385 1741l-29 133q79 27 140 27q100 0 159.5 -50t59.5 -139q0 -105 -82.5 -164.5
t-220.5 -70.5l-19 131q73 14 108.5 33t35.5 59q0 55 -70 55q-28 0 -82 -14z" />
    <glyph glyph-name="uni1EB4" unicode="&#x1eb4;" horiz-adv-x="1224" 
d="M614 1106l-186 -571h365l-93 290l-77 281h-9zM492 1368l253 8l408 -1265q19 -52 25 -111h-215l-109 344h-487l-113 -344h-221q8 52 26 109zM926 1751q-34 -124 -118 -188t-196 -64q-240 0 -309 248l135 61q28 -68 70 -98.5t106 -30.5q128 0 181 129zM737 2036
q56 0 115 125l131 -62q-83 -227 -252 -227q-44 0 -81.5 18t-59.5 39.5t-50 39.5t-53 18q-29 0 -55.5 -28.5t-60.5 -86.5l-129 65q44 102 109 158.5t147 56.5q42 0 79 -18t59 -40t49 -40t52 -18z" />
    <glyph glyph-name="uni1EB5" unicode="&#x1eb5;" horiz-adv-x="1003" 
d="M119 836q181 157 413 157q168 0 247 -86t79 -276v-242q0 -90 16 -377l-184 -26l-31 125q-156 -134 -321 -134q-121 0 -190.5 67t-69.5 179q0 80 37.5 144.5t103.5 105.5q113 68 418 94v2q0 130 -34.5 181t-117.5 51q-132 0 -288 -103zM391 152q113 0 246 106v154
q-232 -16 -295 -56q-51 -33 -51 -104q0 -100 100 -100zM504 1272q69 0 113.5 45t54.5 137l147 -16q-8 -158 -92.5 -249.5t-232.5 -90.5q-277 0 -304 340l150 16q23 -182 164 -182zM651 1751q30 0 56 30.5t57 92.5l127 -57q-36 -112 -98 -175t-140 -63q-46 0 -86 18.5t-63 41
t-51.5 41t-53.5 18.5q-32 0 -57.5 -30.5t-58.5 -90.5l-129 68q88 225 245 225q43 0 82.5 -18.5t63.5 -41t53 -41t53 -18.5z" />
    <glyph glyph-name="uni1EB6" unicode="&#x1eb6;" horiz-adv-x="1224" 
d="M614 1106l-186 -571h365l-93 290l-77 281h-9zM492 1368l253 8l408 -1265q19 -52 25 -111h-215l-109 344h-487l-113 -344h-221q8 52 26 109zM479 -307q0 62 40 101.5t104 39.5q57 0 92 -35t35 -92q0 -62 -39 -100.5t-103 -38.5q-59 0 -94 34t-35 91zM926 1782
q-35 -126 -119 -194t-195 -68q-239 0 -309 258l135 61q28 -69 70.5 -102t105.5 -33q126 0 181 135z" />
    <glyph glyph-name="uni1EB7" unicode="&#x1eb7;" horiz-adv-x="1003" 
d="M119 836q181 157 413 157q168 0 247 -86t79 -276v-242q0 -90 16 -377l-184 -26l-31 125q-156 -134 -321 -134q-121 0 -190.5 67t-69.5 179q0 80 37.5 144.5t103.5 105.5q113 68 418 94v2q0 130 -34.5 181t-117.5 51q-132 0 -288 -103zM391 152q113 0 246 106v154
q-232 -16 -295 -56q-51 -33 -51 -104q0 -100 100 -100zM352 -307q0 62 40 101.5t104 39.5q57 0 92 -35t35 -92q0 -62 -39 -100.5t-103 -38.5q-59 0 -94 34t-35 91zM504 1292q68 0 113 47.5t55 137.5l147 -17q-8 -162 -92.5 -254.5t-232.5 -91.5q-278 0 -304 346l150 17
q24 -185 164 -185z" />
    <glyph glyph-name="uni1EBA" unicode="&#x1eba;" horiz-adv-x="1097" 
d="M178 1372h819l-6 -192h-590v-381h473v-193h-473v-413h596l9 -193h-830zM463 1722l-31 133q69 27 139 27q98 0 154.5 -42.5t56.5 -129.5q0 -103 -79 -155t-214 -60l-20 129q45 7 70.5 13.5t44 21.5t18.5 37q0 43 -61 43q-29 0 -78 -17z" />
    <glyph glyph-name="uni1EBB" unicode="&#x1ebb;" horiz-adv-x="1019" 
d="M98 455q0 152 53.5 273.5t159 194t246.5 72.5q180 0 273.5 -110.5t93.5 -292.5q0 -83 -17 -170h-583q23 -252 247 -252q150 0 275 47l53 -156q-178 -84 -367 -84q-197 0 -315.5 125.5t-118.5 352.5zM539 815q-183 0 -211 -240h372q2 18 2 58q0 182 -163 182zM399 1360
l-30 133q79 27 139 27q100 0 159.5 -50t59.5 -139q0 -105 -81.5 -164.5t-219.5 -68.5l-20 129q75 16 109 34.5t34 57.5q0 55 -68 55q-41 0 -82 -14z" />
    <glyph glyph-name="uni1EBC" unicode="&#x1ebc;" horiz-adv-x="1097" 
d="M178 1372h819l-6 -192h-590v-381h473v-193h-473v-413h596l9 -193h-830zM717 1700q57 0 119 131l131 -64q-88 -247 -252 -247q-44 0 -81.5 19.5t-59 43t-48 43t-49.5 19.5q-55 0 -123 -123l-129 65q44 113 109.5 175.5t146.5 62.5q42 0 79 -19.5t59 -43t48.5 -43
t49.5 -19.5z" />
    <glyph glyph-name="uni1EBD" unicode="&#x1ebd;" horiz-adv-x="1019" 
d="M98 455q0 152 53.5 273.5t159 194t246.5 72.5q180 0 273.5 -110.5t93.5 -292.5q0 -83 -17 -170h-583q23 -252 247 -252q150 0 275 47l53 -156q-178 -84 -367 -84q-197 0 -315.5 125.5t-118.5 352.5zM539 815q-183 0 -211 -240h372q2 18 2 58q0 182 -163 182zM647 1296
q63 0 121 125l129 -61q-36 -120 -101.5 -183t-146.5 -63q-45 0 -83.5 18.5t-60 41t-47 41t-48.5 18.5q-22 0 -45.5 -20t-37.5 -40.5t-40 -62.5l-127 70q40 113 105 174t149 61q43 0 81 -18.5t60 -41t47 -41t45 -18.5z" />
    <glyph glyph-name="uni1EBE" unicode="&#x1ebe;" horiz-adv-x="1097" 
d="M178 1372h819l-6 -192h-590v-381h473v-193h-473v-413h596l9 -193h-830zM518 1802l154 8l262 -208l-94 -125l-246 161l-244 -159l-92 129zM356 1997l455 186l61 -184v-10l-466 -134z" />
    <glyph glyph-name="uni1EBF" unicode="&#x1ebf;" horiz-adv-x="1019" 
d="M98 455q0 152 53.5 273.5t159 194t246.5 72.5q180 0 273.5 -110.5t93.5 -292.5q0 -83 -17 -170h-583q23 -252 247 -252q150 0 275 47l53 -156q-178 -84 -367 -84q-197 0 -315.5 125.5t-118.5 352.5zM539 815q-183 0 -211 -240h372q2 18 2 58q0 182 -163 182zM449 1481
l161 6l256 -289l-112 -106l-226 213l-227 -213l-108 106zM709 1522l258 352l149 -119v-12l-297 -307z" />
    <glyph glyph-name="uni1EC0" unicode="&#x1ec0;" horiz-adv-x="1097" 
d="M178 1372h819l-6 -192h-590v-381h473v-193h-473v-413h596l9 -193h-830zM518 1802l154 8l262 -208l-94 -125l-246 161l-244 -159l-92 129zM336 1999l61 184l455 -186l-49 -142l-467 134v10z" />
    <glyph glyph-name="uni1EC1" unicode="&#x1ec1;" horiz-adv-x="1019" 
d="M98 455q0 152 53.5 273.5t159 194t246.5 72.5q180 0 273.5 -110.5t93.5 -292.5q0 -83 -17 -170h-583q23 -252 247 -252q150 0 275 47l53 -156q-178 -84 -367 -84q-197 0 -315.5 125.5t-118.5 352.5zM539 815q-183 0 -211 -240h372q2 18 2 58q0 182 -163 182zM449 1481
l161 6l256 -289l-112 -106l-226 213l-227 -213l-108 106zM551 1755l149 119l256 -348l-108 -90l-297 307v12z" />
    <glyph glyph-name="uni1EC2" unicode="&#x1ec2;" horiz-adv-x="1097" 
d="M178 1372h819l-6 -192h-590v-381h473v-193h-473v-413h596l9 -193h-830zM518 1802l154 8l262 -208l-94 -125l-246 161l-244 -159l-92 129zM748 2013l-31 133q79 27 141 27q97 0 153 -43.5t56 -130.5q0 -194 -293 -215l-20 129q67 10 100 26t33 48q0 41 -62 41
q-23 0 -77 -15z" />
    <glyph glyph-name="uni1EC3" unicode="&#x1ec3;" horiz-adv-x="1019" 
d="M98 455q0 152 53.5 273.5t159 194t246.5 72.5q180 0 273.5 -110.5t93.5 -292.5q0 -83 -17 -170h-583q23 -252 247 -252q150 0 275 47l53 -156q-178 -84 -367 -84q-197 0 -315.5 125.5t-118.5 352.5zM539 815q-183 0 -211 -240h372q2 18 2 58q0 182 -163 182zM449 1481
l161 6l256 -289l-112 -106l-226 213l-227 -213l-108 106zM696 1708l-28 133q79 27 139 27q100 0 159.5 -50t59.5 -139q0 -105 -82.5 -164.5t-220.5 -68.5l-18 129q75 16 109 34.5t34 57.5q0 55 -70 55q-39 0 -82 -14z" />
    <glyph glyph-name="uni1EC4" unicode="&#x1ec4;" horiz-adv-x="1097" 
d="M178 1372h819l-6 -192h-590v-381h473v-193h-473v-413h596l9 -193h-830zM737 2038q31 0 58 31t57 92l131 -62q-83 -227 -252 -227q-44 0 -81.5 18.5t-59.5 40t-50 40t-53 18.5q-29 0 -55.5 -29t-60.5 -88l-129 65q44 103 109.5 160t146.5 57q42 0 79 -18t59 -40t49 -40
t52 -18zM518 1802l154 8l262 -208l-94 -125l-246 161l-244 -159l-92 129z" />
    <glyph glyph-name="uni1EC5" unicode="&#x1ec5;" horiz-adv-x="1019" 
d="M98 455q0 152 53.5 273.5t159 194t246.5 72.5q180 0 273.5 -110.5t93.5 -292.5q0 -83 -17 -170h-583q23 -252 247 -252q150 0 275 47l53 -156q-178 -84 -367 -84q-197 0 -315.5 125.5t-118.5 352.5zM539 815q-183 0 -211 -240h372q2 18 2 58q0 182 -163 182zM449 1473
l161 6l256 -291l-112 -107l-228 215l-225 -213l-108 107zM680 1751q30 0 56 30.5t57 92.5l127 -57q-36 -112 -98 -175t-140 -63q-46 0 -86 18.5t-63 41t-51.5 41t-53.5 18.5q-32 0 -58 -31t-59 -90l-129 68q88 225 246 225q43 0 82.5 -18.5t63.5 -41t53 -41t53 -18.5z" />
    <glyph glyph-name="uni1EC6" unicode="&#x1ec6;" horiz-adv-x="1097" 
d="M178 1372h819l-6 -192h-590v-381h473v-193h-473v-413h596l9 -193h-830zM473 -307q0 62 39.5 101.5t103.5 39.5q57 0 92 -35t35 -92q0 -62 -38.5 -100.5t-102.5 -38.5q-59 0 -94 34t-35 91zM518 1833l154 8l262 -219l-94 -125l-246 170l-244 -168l-92 129z" />
    <glyph glyph-name="uni1EC7" unicode="&#x1ec7;" horiz-adv-x="1019" 
d="M98 455q0 152 53.5 273.5t159 194t246.5 72.5q180 0 273.5 -110.5t93.5 -292.5q0 -83 -17 -170h-583q23 -252 247 -252q150 0 275 47l53 -156q-178 -84 -367 -84q-197 0 -315.5 125.5t-118.5 352.5zM539 815q-183 0 -211 -240h372q2 18 2 58q0 182 -163 182zM401 -307
q0 62 40 101.5t104 39.5q57 0 92 -35t35 -92q0 -62 -39 -100.5t-103 -38.5q-59 0 -94 34t-35 91zM449 1503l161 6l256 -301l-112 -106l-228 223l-225 -221l-108 106z" />
    <glyph glyph-name="uni1EC8" unicode="&#x1ec8;" horiz-adv-x="577" 
d="M176 1372h225v-1372h-225v1372zM156 1722l-31 133q69 27 139 27q98 0 154.5 -42.5t56.5 -129.5q0 -103 -79 -155t-214 -60l-20 129q45 7 70.5 13.5t44 21.5t18.5 37q0 43 -62 43q-28 0 -77 -17z" />
    <glyph glyph-name="uni1EC9" unicode="&#x1ec9;" horiz-adv-x="522" 
d="M152 969l221 4v-973h-221v969zM135 1360l-31 133q79 27 140 27q100 0 159.5 -50t59.5 -139q0 -105 -81.5 -164.5t-219.5 -68.5l-21 129q75 16 109.5 34.5t34.5 57.5q0 55 -68 55q-41 0 -82 -14z" />
    <glyph glyph-name="uni1ECE" unicode="&#x1ece;" horiz-adv-x="1419" 
d="M102 666q0 143 38.5 272.5t112.5 234t194.5 166.5t271.5 62q114 0 210.5 -35.5t167.5 -99t121 -150.5t74.5 -190.5t24.5 -218.5q0 -114 -23.5 -220t-73.5 -200t-121.5 -164t-173.5 -111t-223 -41q-142 0 -257 55t-189.5 150t-114 220.5t-39.5 269.5zM1081 688
q0 106 -24 198t-69.5 162.5t-117 111t-161.5 40.5q-124 0 -207 -72q-84 -74 -125 -193t-41 -251q0 -142 41.5 -256.5t128.5 -185t207 -70.5q126 0 205 72q85 73 124 191.5t39 252.5zM578 1722l-31 133q69 27 139 27q98 0 154.5 -42.5t56.5 -129.5q0 -103 -79 -155t-214 -60
l-20 129q45 7 70.5 13.5t44 21.5t18.5 37q0 43 -62 43q-28 0 -77 -17z" />
    <glyph glyph-name="uni1ECF" unicode="&#x1ecf;" horiz-adv-x="1091" 
d="M96 459q0 105 31.5 201t89 172t148 121.5t200.5 45.5q196 0 313 -137.5t117 -353.5q0 -107 -31 -203t-88.5 -171t-147.5 -119t-200 -44q-197 0 -314.5 135t-117.5 353zM768 473q0 155 -57.5 245.5t-167.5 90.5q-95 0 -144 -57q-75 -85 -75 -260q0 -153 58.5 -242.5
t168.5 -89.5q92 0 143 59q74 83 74 254zM422 1360l-31 133q79 27 139 27q100 0 160 -50t60 -139q0 -105 -81.5 -164.5t-219.5 -68.5l-21 129q75 16 109 34.5t34 57.5q0 55 -67 55q-41 0 -82 -14z" />
    <glyph glyph-name="uni1ED0" unicode="&#x1ed0;" horiz-adv-x="1419" 
d="M102 666q0 143 38.5 272.5t112.5 234t194.5 166.5t271.5 62q114 0 210.5 -35.5t167.5 -99t121 -150.5t74.5 -190.5t24.5 -218.5q0 -114 -23.5 -220t-73.5 -200t-121.5 -164t-173.5 -111t-223 -41q-142 0 -257 55t-189.5 150t-114 220.5t-39.5 269.5zM1081 688
q0 106 -24 198t-69.5 162.5t-117 111t-161.5 40.5q-124 0 -207 -72q-84 -74 -125 -193t-41 -251q0 -142 41.5 -256.5t128.5 -185t207 -70.5q126 0 205 72q85 73 124 191.5t39 252.5zM633 1802l153 8l263 -208l-95 -125l-245 161l-244 -159l-92 129zM471 1997l455 186
l61 -184v-10l-467 -134z" />
    <glyph glyph-name="uni1ED1" unicode="&#x1ed1;" horiz-adv-x="1091" 
d="M96 459q0 105 31.5 201t89 172t148 121.5t200.5 45.5q196 0 313 -137.5t117 -353.5q0 -107 -31 -203t-88.5 -171t-147.5 -119t-200 -44q-197 0 -314.5 135t-117.5 353zM768 473q0 155 -57.5 245.5t-167.5 90.5q-95 0 -144 -57q-75 -85 -75 -260q0 -153 58.5 -242.5
t168.5 -89.5q92 0 143 59q74 83 74 254zM471 1481l162 6l256 -289l-113 -106l-225 213l-227 -213l-109 106zM731 1522l258 352l150 -119v-12l-297 -307z" />
    <glyph glyph-name="uni1ED2" unicode="&#x1ed2;" horiz-adv-x="1419" 
d="M102 666q0 143 38.5 272.5t112.5 234t194.5 166.5t271.5 62q114 0 210.5 -35.5t167.5 -99t121 -150.5t74.5 -190.5t24.5 -218.5q0 -114 -23.5 -220t-73.5 -200t-121.5 -164t-173.5 -111t-223 -41q-142 0 -257 55t-189.5 150t-114 220.5t-39.5 269.5zM1081 688
q0 106 -24 198t-69.5 162.5t-117 111t-161.5 40.5q-124 0 -207 -72q-84 -74 -125 -193t-41 -251q0 -142 41.5 -256.5t128.5 -185t207 -70.5q126 0 205 72q85 73 124 191.5t39 252.5zM633 1802l153 8l263 -208l-95 -125l-245 161l-244 -159l-92 129zM451 1999l61 184
l455 -186l-49 -142l-467 134v10z" />
    <glyph glyph-name="uni1ED3" unicode="&#x1ed3;" horiz-adv-x="1091" 
d="M96 459q0 105 31.5 201t89 172t148 121.5t200.5 45.5q196 0 313 -137.5t117 -353.5q0 -107 -31 -203t-88.5 -171t-147.5 -119t-200 -44q-197 0 -314.5 135t-117.5 353zM768 473q0 155 -57.5 245.5t-167.5 90.5q-95 0 -144 -57q-75 -85 -75 -260q0 -153 58.5 -242.5
t168.5 -89.5q92 0 143 59q74 83 74 254zM471 1481l162 6l256 -289l-113 -106l-225 213l-227 -213l-109 106zM573 1755l150 119l256 -348l-109 -90l-297 307v12z" />
    <glyph glyph-name="uni1ED4" unicode="&#x1ed4;" horiz-adv-x="1419" 
d="M102 666q0 143 38.5 272.5t112.5 234t194.5 166.5t271.5 62q114 0 210.5 -35.5t167.5 -99t121 -150.5t74.5 -190.5t24.5 -218.5q0 -114 -23.5 -220t-73.5 -200t-121.5 -164t-173.5 -111t-223 -41q-142 0 -257 55t-189.5 150t-114 220.5t-39.5 269.5zM1081 688
q0 106 -24 198t-69.5 162.5t-117 111t-161.5 40.5q-124 0 -207 -72q-84 -74 -125 -193t-41 -251q0 -142 41.5 -256.5t128.5 -185t207 -70.5q126 0 205 72q85 73 124 191.5t39 252.5zM633 1802l153 8l263 -208l-95 -125l-245 161l-244 -159l-92 129zM862 2013l-31 133
q79 27 142 27q97 0 153 -43.5t56 -130.5q0 -194 -293 -215l-21 129q67 10 100 26t33 48q0 41 -61 41q-24 0 -78 -15z" />
    <glyph glyph-name="uni1ED5" unicode="&#x1ed5;" horiz-adv-x="1091" 
d="M96 459q0 105 31.5 201t89 172t148 121.5t200.5 45.5q196 0 313 -137.5t117 -353.5q0 -107 -31 -203t-88.5 -171t-147.5 -119t-200 -44q-197 0 -314.5 135t-117.5 353zM768 473q0 155 -57.5 245.5t-167.5 90.5q-95 0 -144 -57q-75 -85 -75 -260q0 -153 58.5 -242.5
t168.5 -89.5q92 0 143 59q74 83 74 254zM471 1481l162 6l256 -289l-113 -106l-225 213l-227 -213l-109 106zM719 1708l-29 133q79 27 139 27q100 0 160 -50t60 -139q0 -105 -83 -164.5t-221 -68.5l-18 129q75 16 109 34.5t34 57.5q0 55 -69 55q-39 0 -82 -14z" />
    <glyph glyph-name="uni1ED6" unicode="&#x1ed6;" horiz-adv-x="1419" 
d="M102 666q0 143 38.5 272.5t112.5 234t194.5 166.5t271.5 62q114 0 210.5 -35.5t167.5 -99t121 -150.5t74.5 -190.5t24.5 -218.5q0 -114 -23.5 -220t-73.5 -200t-121.5 -164t-173.5 -111t-223 -41q-142 0 -257 55t-189.5 150t-114 220.5t-39.5 269.5zM1081 688
q0 106 -24 198t-69.5 162.5t-117 111t-161.5 40.5q-124 0 -207 -72q-84 -74 -125 -193t-41 -251q0 -142 41.5 -256.5t128.5 -185t207 -70.5q126 0 205 72q85 73 124 191.5t39 252.5zM852 2038q31 0 58 31t57 92l131 -62q-83 -227 -252 -227q-44 0 -81.5 18.5t-59.5 40
t-50 40t-53 18.5q-29 0 -56 -29t-61 -88l-129 65q44 103 109.5 160t146.5 57q35 0 65.5 -12t52 -29t41 -34t40 -29t41.5 -12zM633 1802l153 8l263 -208l-95 -125l-245 161l-244 -159l-92 129z" />
    <glyph glyph-name="uni1ED7" unicode="&#x1ed7;" horiz-adv-x="1091" 
d="M96 459q0 105 31.5 201t89 172t148 121.5t200.5 45.5q196 0 313 -137.5t117 -353.5q0 -107 -31 -203t-88.5 -171t-147.5 -119t-200 -44q-197 0 -314.5 135t-117.5 353zM768 473q0 155 -57.5 245.5t-167.5 90.5q-95 0 -144 -57q-75 -85 -75 -260q0 -153 58.5 -242.5
t168.5 -89.5q92 0 143 59q74 83 74 254zM471 1473l162 6l256 -291l-113 -107l-227 215l-225 -213l-109 107zM702 1751q30 0 56 30.5t57 92.5l127 -57q-36 -112 -97.5 -175t-139.5 -63q-46 0 -86 18.5t-63 41t-51.5 41t-53.5 18.5q-32 0 -58 -31t-59 -90l-129 68
q88 225 246 225q35 0 67 -12.5t55.5 -30t44.5 -34.5t42.5 -29.5t41.5 -12.5z" />
    <glyph glyph-name="uni1ED8" unicode="&#x1ed8;" horiz-adv-x="1419" 
d="M102 666q0 143 38.5 272.5t112.5 234t194.5 166.5t271.5 62q114 0 210.5 -35.5t167.5 -99t121 -150.5t74.5 -190.5t24.5 -218.5q0 -114 -23.5 -220t-73.5 -200t-121.5 -164t-173.5 -111t-223 -41q-142 0 -257 55t-189.5 150t-114 220.5t-39.5 269.5zM1081 688
q0 106 -24 198t-69.5 162.5t-117 111t-161.5 40.5q-124 0 -207 -72q-84 -74 -125 -193t-41 -251q0 -142 41.5 -256.5t128.5 -185t207 -70.5q126 0 205 72q85 73 124 191.5t39 252.5zM575 -307q0 62 40 101.5t104 39.5q57 0 92 -35t35 -92q0 -62 -38.5 -100.5t-102.5 -38.5
q-59 0 -94.5 34t-35.5 91zM633 1833l153 8l263 -219l-95 -125l-245 170l-244 -168l-92 129z" />
    <glyph glyph-name="uni1ED9" unicode="&#x1ed9;" horiz-adv-x="1091" 
d="M96 459q0 105 31.5 201t89 172t148 121.5t200.5 45.5q196 0 313 -137.5t117 -353.5q0 -107 -31 -203t-88.5 -171t-147.5 -119t-200 -44q-197 0 -314.5 135t-117.5 353zM768 473q0 155 -57.5 245.5t-167.5 90.5q-95 0 -144 -57q-75 -85 -75 -260q0 -153 58.5 -242.5
t168.5 -89.5q92 0 143 59q74 83 74 254zM403 -307q0 62 40 101.5t104 39.5q57 0 92 -35t35 -92q0 -62 -39 -100.5t-103 -38.5q-59 0 -94 34t-35 91zM471 1503l162 6l256 -301l-113 -106l-227 223l-225 -221l-109 106z" />
    <glyph glyph-name="uni1EDA" unicode="&#x1eda;" horiz-adv-x="1419" 
d="M102 666q0 143 38.5 272.5t112.5 234t194.5 166.5t271.5 62q119 0 217 -37q40 -12 96 -12q45 0 70.5 24.5t25.5 67.5q0 62 -41 137l201 8q49 -83 49 -182q0 -177 -159 -229q139 -186 139 -471q0 -114 -23.5 -220t-73.5 -200t-121.5 -164t-173.5 -111t-223 -41
q-142 0 -257 55t-189.5 150t-114 220.5t-39.5 269.5zM1081 688q0 143 -40.5 257t-126.5 185t-205 70q-124 0 -207 -72q-84 -74 -125 -193t-41 -251q0 -142 41.5 -256.5t128.5 -185t207 -70.5q126 0 205 72q85 73 124 191.5t39 252.5zM514 1661l451 184l63 -188v-10
l-467 -134z" />
    <glyph glyph-name="uni1EDB" unicode="&#x1edb;" horiz-adv-x="1097" 
d="M96 459q0 105 31.5 201t89 172t148 121.5t200.5 45.5q88 0 170 -32q46 -17 76 -17q84 0 84 82q0 58 -43 137l178 9q49 -83 49 -179q0 -155 -153 -204q69 -123 69 -287q0 -107 -31 -203t-88.5 -171t-147.5 -119t-200 -44q-197 0 -314.5 135t-117.5 353zM768 473
q0 155 -57.5 245.5t-167.5 90.5q-95 0 -144 -57q-75 -85 -75 -260q0 -153 58.5 -242.5t168.5 -89.5q92 0 143 59q74 83 74 254zM381 1206l328 322l133 -148v-10l-359 -274z" />
    <glyph glyph-name="uni1EDC" unicode="&#x1edc;" horiz-adv-x="1419" 
d="M102 666q0 143 38.5 272.5t112.5 234t194.5 166.5t271.5 62q119 0 217 -37q40 -12 96 -12q45 0 70.5 24.5t25.5 67.5q0 62 -41 137l201 8q49 -83 49 -182q0 -177 -159 -229q139 -186 139 -471q0 -114 -23.5 -220t-73.5 -200t-121.5 -164t-173.5 -111t-223 -41
q-142 0 -257 55t-189.5 150t-114 220.5t-39.5 269.5zM1081 688q0 143 -40.5 257t-126.5 185t-205 70q-124 0 -207 -72q-84 -74 -125 -193t-41 -251q0 -142 41.5 -256.5t128.5 -185t207 -70.5q126 0 205 72q85 73 124 191.5t39 252.5zM393 1657l64 188l450 -184l-47 -148
l-467 134v10z" />
    <glyph glyph-name="uni1EDD" unicode="&#x1edd;" horiz-adv-x="1097" 
d="M96 459q0 105 31.5 201t89 172t148 121.5t200.5 45.5q88 0 170 -32q46 -17 76 -17q84 0 84 82q0 58 -43 137l178 9q49 -83 49 -179q0 -155 -153 -204q69 -123 69 -287q0 -107 -31 -203t-88.5 -171t-147.5 -119t-200 -44q-197 0 -314.5 135t-117.5 353zM768 473
q0 155 -57.5 245.5t-167.5 90.5q-95 0 -144 -57q-75 -85 -75 -260q0 -153 58.5 -242.5t168.5 -89.5q92 0 143 59q74 83 74 254zM293 1380l131 148l328 -322l-103 -110l-356 274v10z" />
    <glyph glyph-name="uni1EDE" unicode="&#x1ede;" horiz-adv-x="1419" 
d="M102 666q0 143 38.5 272.5t112.5 234t194.5 166.5t271.5 62q119 0 217 -37q40 -12 96 -12q45 0 70.5 24.5t25.5 67.5q0 62 -41 137l201 8q49 -83 49 -182q0 -177 -159 -229q139 -186 139 -471q0 -114 -23.5 -220t-73.5 -200t-121.5 -164t-173.5 -111t-223 -41
q-142 0 -257 55t-189.5 150t-114 220.5t-39.5 269.5zM1081 688q0 143 -40.5 257t-126.5 185t-205 70q-124 0 -207 -72q-84 -74 -125 -193t-41 -251q0 -142 41.5 -256.5t128.5 -185t207 -70.5q126 0 205 72q85 73 124 191.5t39 252.5zM578 1722l-31 133q69 27 139 27
q98 0 154.5 -42.5t56.5 -129.5q0 -103 -79 -155t-214 -60l-20 129q45 7 70.5 13.5t44 21.5t18.5 37q0 43 -62 43q-28 0 -77 -17z" />
    <glyph glyph-name="uni1EDF" unicode="&#x1edf;" horiz-adv-x="1097" 
d="M96 459q0 105 31.5 201t89 172t148 121.5t200.5 45.5q88 0 170 -32q46 -17 76 -17q84 0 84 82q0 58 -43 137l178 9q49 -83 49 -179q0 -155 -153 -204q69 -123 69 -287q0 -107 -31 -203t-88.5 -171t-147.5 -119t-200 -44q-197 0 -314.5 135t-117.5 353zM768 473
q0 155 -57.5 245.5t-167.5 90.5q-95 0 -144 -57q-75 -85 -75 -260q0 -153 58.5 -242.5t168.5 -89.5q92 0 143 59q74 83 74 254zM422 1360l-31 133q79 27 139 27q100 0 160 -50t60 -139q0 -105 -81.5 -164.5t-219.5 -68.5l-21 129q75 16 109 34.5t34 57.5q0 55 -67 55
q-41 0 -82 -14z" />
    <glyph glyph-name="uni1EE0" unicode="&#x1ee0;" horiz-adv-x="1419" 
d="M102 666q0 143 38.5 272.5t112.5 234t194.5 166.5t271.5 62q119 0 217 -37q40 -12 96 -12q45 0 70.5 24.5t25.5 67.5q0 62 -41 137l201 8q49 -83 49 -182q0 -177 -159 -229q139 -186 139 -471q0 -114 -23.5 -220t-73.5 -200t-121.5 -164t-173.5 -111t-223 -41
q-142 0 -257 55t-189.5 150t-114 220.5t-39.5 269.5zM1081 688q0 143 -40.5 257t-126.5 185t-205 70q-124 0 -207 -72q-84 -74 -125 -193t-41 -251q0 -142 41.5 -256.5t128.5 -185t207 -70.5q126 0 205 72q85 73 124 191.5t39 252.5zM817 1700q57 0 119 131l131 -64
q-88 -247 -252 -247q-44 0 -81.5 19.5t-58.5 43t-47.5 43t-49.5 19.5q-55 0 -123 -123l-129 65q44 113 109.5 175.5t146.5 62.5q42 0 79 -19.5t58.5 -43t48 -43t49.5 -19.5z" />
    <glyph glyph-name="uni1EE1" unicode="&#x1ee1;" horiz-adv-x="1097" 
d="M96 459q0 105 31.5 201t89 172t148 121.5t200.5 45.5q88 0 170 -32q46 -17 76 -17q84 0 84 82q0 58 -43 137l178 9q49 -83 49 -179q0 -155 -153 -204q69 -123 69 -287q0 -107 -31 -203t-88.5 -171t-147.5 -119t-200 -44q-197 0 -314.5 135t-117.5 353zM768 473
q0 155 -57.5 245.5t-167.5 90.5q-95 0 -144 -57q-75 -85 -75 -260q0 -153 58.5 -242.5t168.5 -89.5q92 0 143 59q74 83 74 254zM639 1296q53 0 98 125l129 -55q-28 -122 -86.5 -187t-138.5 -65q-44 0 -82 18.5t-60 41t-47.5 41t-48.5 18.5q-53 0 -102 -123l-127 57
q32 116 91.5 182t140.5 66q43 0 80.5 -18.5t59 -41t47 -41t46.5 -18.5z" />
    <glyph glyph-name="uni1EE2" unicode="&#x1ee2;" horiz-adv-x="1419" 
d="M102 666q0 143 38.5 272.5t112.5 234t194.5 166.5t271.5 62q119 0 217 -37q40 -12 96 -12q45 0 70.5 24.5t25.5 67.5q0 62 -41 137l201 8q49 -83 49 -182q0 -177 -159 -229q139 -186 139 -471q0 -114 -23.5 -220t-73.5 -200t-121.5 -164t-173.5 -111t-223 -41
q-142 0 -257 55t-189.5 150t-114 220.5t-39.5 269.5zM1081 688q0 143 -40.5 257t-126.5 185t-205 70q-124 0 -207 -72q-84 -74 -125 -193t-41 -251q0 -142 41.5 -256.5t128.5 -185t207 -70.5q126 0 205 72q85 73 124 191.5t39 252.5zM575 -307q0 62 40 101.5t104 39.5
q57 0 92 -35t35 -92q0 -62 -38.5 -100.5t-102.5 -38.5q-59 0 -94.5 34t-35.5 91z" />
    <glyph glyph-name="uni1EE3" unicode="&#x1ee3;" horiz-adv-x="1097" 
d="M96 459q0 105 31.5 201t89 172t148 121.5t200.5 45.5q88 0 170 -32q46 -17 76 -17q84 0 84 82q0 58 -43 137l178 9q49 -83 49 -179q0 -155 -153 -204q69 -123 69 -287q0 -107 -31 -203t-88.5 -171t-147.5 -119t-200 -44q-197 0 -314.5 135t-117.5 353zM768 473
q0 155 -57.5 245.5t-167.5 90.5q-95 0 -144 -57q-75 -85 -75 -260q0 -153 58.5 -242.5t168.5 -89.5q92 0 143 59q74 83 74 254zM403 -307q0 62 40 101.5t104 39.5q57 0 92 -35t35 -92q0 -62 -39 -100.5t-103 -38.5q-59 0 -94 34t-35 91z" />
    <glyph glyph-name="uni1EE6" unicode="&#x1ee6;" horiz-adv-x="1331" 
d="M946 1372h223v-819q0 -132 -29.5 -236.5t-91 -183t-163 -120.5t-238.5 -42q-235 0 -359 137t-124 398v866h223v-833q0 -189 63.5 -279t219.5 -90q55 0 103.5 19.5t78.5 48.5q94 88 94 268v866zM530 1722l-30 133q69 27 139 27q98 0 154.5 -42.5t56.5 -129.5
q0 -103 -79 -155t-214 -60l-20 129q45 7 70.5 13.5t44 21.5t18.5 37q0 43 -62 43q-29 0 -78 -17z" />
    <glyph glyph-name="uni1EE7" unicode="&#x1ee7;" horiz-adv-x="1112" 
d="M143 969l222 4v-584q0 -121 34 -174t109 -53q114 0 229 98v711h221v-570q0 -92 19 -389l-184 -24l-31 114q-131 -131 -311 -131q-155 0 -231.5 86t-76.5 250v662zM420 1360l-31 133q79 27 139 27q100 0 160 -50t60 -139q0 -105 -82 -164.5t-220 -68.5l-20 129
q75 16 109 34.5t34 57.5q0 55 -67 55q-41 0 -82 -14z" />
    <glyph glyph-name="uni1EE8" unicode="&#x1ee8;" horiz-adv-x="1325" 
d="M946 1372h131q58 0 83.5 22.5t25.5 67.5q0 69 -43 140l200 8q52 -88 52 -183q0 -215 -226 -243v-631q0 -132 -29.5 -236.5t-91 -183t-163 -120.5t-238.5 -42q-235 0 -359 137t-124 398v866h223v-833q0 -189 63.5 -279t219.5 -90q55 0 103.5 19.5t78.5 48.5q94 88 94 268
v866zM467 1661l451 184l63 -188v-10l-467 -134z" />
    <glyph glyph-name="uni1EE9" unicode="&#x1ee9;" horiz-adv-x="1130" 
d="M956 1190l181 8q49 -83 49 -178q0 -100 -62 -154t-166 -65v-400q0 -92 19 -389l-184 -24l-31 114q-131 -131 -311 -131q-155 0 -231.5 86t-76.5 250v662l222 4v-584q0 -121 34 -174t109 -53q114 0 229 98v711h158q58 0 81 19.5t23 62.5q0 66 -43 137zM379 1206l328 322
l133 -148v-10l-359 -274z" />
    <glyph glyph-name="uni1EEA" unicode="&#x1eea;" horiz-adv-x="1325" 
d="M946 1372h131q58 0 83.5 22.5t25.5 67.5q0 69 -43 140l200 8q52 -88 52 -183q0 -215 -226 -243v-631q0 -132 -29.5 -236.5t-91 -183t-163 -120.5t-238.5 -42q-235 0 -359 137t-124 398v866h223v-833q0 -189 63.5 -279t219.5 -90q55 0 103.5 19.5t78.5 48.5q94 88 94 268
v866zM346 1657l64 188l450 -184l-47 -148l-467 134v10z" />
    <glyph glyph-name="uni1EEB" unicode="&#x1eeb;" horiz-adv-x="1130" 
d="M956 1190l181 8q49 -83 49 -178q0 -100 -62 -154t-166 -65v-400q0 -92 19 -389l-184 -24l-31 114q-131 -131 -311 -131q-155 0 -231.5 86t-76.5 250v662l222 4v-584q0 -121 34 -174t109 -53q114 0 229 98v711h158q58 0 81 19.5t23 62.5q0 66 -43 137zM291 1380l131 148
l328 -322l-103 -110l-356 274v10z" />
    <glyph glyph-name="uni1EEC" unicode="&#x1eec;" horiz-adv-x="1325" 
d="M946 1372h131q58 0 83.5 22.5t25.5 67.5q0 69 -43 140l200 8q52 -88 52 -183q0 -215 -226 -243v-631q0 -132 -29.5 -236.5t-91 -183t-163 -120.5t-238.5 -42q-235 0 -359 137t-124 398v866h223v-833q0 -189 63.5 -279t219.5 -90q55 0 103.5 19.5t78.5 48.5q94 88 94 268
v866zM530 1722l-30 133q69 27 139 27q98 0 154.5 -42.5t56.5 -129.5q0 -103 -79 -155t-214 -60l-20 129q45 7 70.5 13.5t44 21.5t18.5 37q0 43 -62 43q-29 0 -78 -17z" />
    <glyph glyph-name="uni1EED" unicode="&#x1eed;" horiz-adv-x="1130" 
d="M956 1190l181 8q49 -83 49 -178q0 -100 -62 -154t-166 -65v-400q0 -92 19 -389l-184 -24l-31 114q-131 -131 -311 -131q-155 0 -231.5 86t-76.5 250v662l222 4v-584q0 -121 34 -174t109 -53q114 0 229 98v711h158q58 0 81 19.5t23 62.5q0 66 -43 137zM420 1360l-31 133
q79 27 139 27q100 0 160 -50t60 -139q0 -105 -82 -164.5t-220 -68.5l-20 129q75 16 109 34.5t34 57.5q0 55 -67 55q-41 0 -82 -14z" />
    <glyph glyph-name="uni1EEE" unicode="&#x1eee;" horiz-adv-x="1325" 
d="M946 1372h131q58 0 83.5 22.5t25.5 67.5q0 69 -43 140l200 8q52 -88 52 -183q0 -215 -226 -243v-631q0 -132 -29.5 -236.5t-91 -183t-163 -120.5t-238.5 -42q-235 0 -359 137t-124 398v866h223v-833q0 -189 63.5 -279t219.5 -90q55 0 103.5 19.5t78.5 48.5q94 88 94 268
v866zM797 1700q56 0 118 131l132 -64q-88 -247 -252 -247q-44 0 -81.5 19.5t-59 43t-48 43t-49.5 19.5q-55 0 -123 -123l-129 65q44 113 109.5 175.5t146.5 62.5q42 0 79 -19.5t59 -43t48.5 -43t49.5 -19.5z" />
    <glyph glyph-name="uni1EEF" unicode="&#x1eef;" horiz-adv-x="1130" 
d="M956 1190l181 8q49 -83 49 -178q0 -100 -62 -154t-166 -65v-400q0 -92 19 -389l-184 -24l-31 114q-131 -131 -311 -131q-155 0 -231.5 86t-76.5 250v662l222 4v-584q0 -121 34 -174t109 -53q114 0 229 98v711h158q58 0 81 19.5t23 62.5q0 66 -43 137zM705 1296
q62 0 120 125l129 -61q-36 -121 -101 -183.5t-146 -62.5q-45 0 -83.5 18.5t-60.5 41t-47.5 41t-48.5 18.5q-22 0 -45.5 -20t-37.5 -40.5t-40 -62.5l-127 70q40 113 105 174t149 61q43 0 81 -18.5t60 -41t47.5 -41t45.5 -18.5z" />
    <glyph glyph-name="uni1EF0" unicode="&#x1ef0;" horiz-adv-x="1325" 
d="M946 1372h131q58 0 83.5 22.5t25.5 67.5q0 69 -43 140l200 8q52 -88 52 -183q0 -215 -226 -243v-631q0 -132 -29.5 -236.5t-91 -183t-163 -120.5t-238.5 -42q-235 0 -359 137t-124 398v866h223v-833q0 -189 63.5 -279t219.5 -90q55 0 103.5 19.5t78.5 48.5q94 88 94 268
v866zM530 -307q0 62 40 101.5t104 39.5q57 0 92 -35t35 -92q0 -62 -39 -100.5t-103 -38.5q-59 0 -94 34t-35 91z" />
    <glyph glyph-name="uni1EF1" unicode="&#x1ef1;" horiz-adv-x="1130" 
d="M956 1190l181 8q49 -83 49 -178q0 -100 -62 -154t-166 -65v-400q0 -92 19 -389l-184 -24l-31 114q-131 -131 -311 -131q-155 0 -231.5 86t-76.5 250v662l222 4v-584q0 -121 34 -174t109 -53q114 0 229 98v711h158q58 0 81 19.5t23 62.5q0 66 -43 137zM422 -307
q0 62 39.5 101.5t103.5 39.5q57 0 92 -35t35 -92q0 -62 -38.5 -100.5t-102.5 -38.5q-59 0 -94 34t-35 91z" />
    <glyph glyph-name="Ygrave" unicode="&#x1ef2;" horiz-adv-x="1155" 
d="M899 1372h227q-6 -40 -72 -160q-5 -8 -7 -12l-361 -663v-537h-223v547l-350 653q-72 125 -76 172h235l222 -418l90 -188h4zM262 1657l64 188l450 -184l-47 -148l-467 134v10z" />
    <glyph glyph-name="ygrave" unicode="&#x1ef3;" horiz-adv-x="1024" 
d="M752 971h217q0 -51 -21 -105l-323 -893q-98 -253 -210.5 -368t-260.5 -115q-57 0 -109 10v174q139 1 234 78.5t167 247.5h-57l-307 866q-21 50 -21 105h228l172 -533q34 -111 49 -211h8zM264 1380l131 148l328 -322l-102 -110l-357 274v10z" />
    <glyph glyph-name="uni1EF6" unicode="&#x1ef6;" horiz-adv-x="1155" 
d="M899 1372h227q-6 -40 -72 -160q-5 -8 -7 -12l-361 -663v-537h-223v547l-350 653q-72 125 -76 172h235l222 -418l90 -188h4zM446 1722l-30 133q69 27 139 27q98 0 154.5 -42.5t56.5 -129.5q0 -103 -79 -155t-214 -60l-20 129q45 7 70.5 13.5t44 21.5t18.5 37q0 43 -62 43
q-29 0 -78 -17z" />
    <glyph glyph-name="uni1EF7" unicode="&#x1ef7;" horiz-adv-x="1024" 
d="M752 971h217q0 -51 -21 -105l-323 -893q-98 -253 -210.5 -368t-260.5 -115q-57 0 -109 10v174q139 1 234 78.5t167 247.5h-57l-307 866q-21 50 -21 105h228l172 -533q34 -111 49 -211h8zM393 1360l-31 133q79 27 140 27q100 0 159.5 -50t59.5 -139q0 -105 -81.5 -164.5
t-219.5 -68.5l-21 129q75 16 109.5 34.5t34.5 57.5q0 55 -68 55q-41 0 -82 -14z" />
    <glyph glyph-name="uni1EF8" unicode="&#x1ef8;" horiz-adv-x="1155" 
d="M899 1372h227q-6 -40 -72 -160q-5 -8 -7 -12l-361 -663v-537h-223v547l-350 653q-72 125 -76 172h235l222 -418l90 -188h4zM700 1700q57 0 119 131l131 -64q-88 -247 -252 -247q-44 0 -81.5 19.5t-58.5 43t-47.5 43t-49.5 19.5q-55 0 -123 -123l-129 65
q44 113 109.5 175.5t146.5 62.5q42 0 79 -19.5t58.5 -43t48 -43t49.5 -19.5z" />
    <glyph glyph-name="uni1EF9" unicode="&#x1ef9;" horiz-adv-x="1024" 
d="M752 971h217q0 -51 -21 -105l-323 -893q-98 -253 -210.5 -368t-260.5 -115q-57 0 -109 10v174q139 1 234 78.5t167 247.5h-57l-307 866q-21 50 -21 105h228l172 -533q34 -111 49 -211h8zM641 1296q63 0 121 125l129 -61q-36 -120 -101.5 -183t-146.5 -63
q-45 0 -83.5 18.5t-60.5 41t-47.5 41t-48.5 18.5q-22 0 -45.5 -20.5t-36.5 -40t-40 -62.5l-127 70q40 113 105 174t149 61q43 0 81 -18.5t60 -41t47 -41t45 -18.5z" />
    <glyph glyph-name="enspace" unicode="&#x2002;" horiz-adv-x="993" 
 />
    <glyph glyph-name="uni2003" unicode="&#x2003;" horiz-adv-x="1855" 
 />
    <glyph glyph-name="uni2009" unicode="&#x2009;" horiz-adv-x="163" 
 />
    <glyph glyph-name="uni2010" unicode="&#x2010;" horiz-adv-x="722" 
d="M135 586h451v-176h-451v176z" />
    <glyph glyph-name="uni2011" unicode="&#x2011;" horiz-adv-x="722" 
d="M135 586h451v-176h-451v176z" />
    <glyph glyph-name="endash" unicode="&#x2013;" horiz-adv-x="1085" 
d="M135 586h813v-176h-813v176z" />
    <glyph glyph-name="emdash" unicode="&#x2014;" horiz-adv-x="1912" 
d="M135 586h1643v-176h-1643v176z" />
    <glyph glyph-name="quoteleft" unicode="&#x2018;" horiz-adv-x="518" 
d="M111 1178q0 133 64.5 246.5t184.5 187.5l86 -66q-137 -140 -137 -360q0 -51 8 -137l-190 -11q-16 69 -16 140z" />
    <glyph glyph-name="quoteright" unicode="&#x2019;" horiz-adv-x="512" 
d="M209 1577l190 12q17 -73 17 -139q0 -133 -65 -247t-185 -187l-86 63q137 143 137 363q0 53 -8 135z" />
    <glyph glyph-name="quotesinglbase" unicode="&#x201a;" horiz-adv-x="489" 
d="M145 270l191 13q16 -69 16 -140q0 -133 -65 -247t-185 -187l-86 64q138 144 138 362q0 43 -9 135z" />
    <glyph glyph-name="quotedblleft" unicode="&#x201c;" horiz-adv-x="839" 
d="M434 1178q0 134 64 247t186 187l86 -66q-137 -140 -137 -360q0 -51 8 -137l-190 -11q-17 73 -17 140zM111 1178q0 133 64.5 246.5t184.5 187.5l86 -66q-137 -140 -137 -360q0 -51 8 -137l-190 -11q-16 69 -16 140z" />
    <glyph glyph-name="quotedblright" unicode="&#x201d;" horiz-adv-x="835" 
d="M530 1577l193 12q16 -69 16 -139q0 -133 -65 -247t-185 -187l-86 63q138 144 138 363q0 60 -11 135zM209 1577l190 12q17 -73 17 -139q0 -133 -65 -247t-185 -187l-86 63q137 143 137 363q0 53 -8 135z" />
    <glyph glyph-name="quotedblbase" unicode="&#x201e;" horiz-adv-x="813" 
d="M467 270l192 13q17 -73 17 -140q0 -133 -65 -247t-185 -187l-86 64q137 143 137 362q0 67 -10 135zM145 270l191 13q16 -69 16 -140q0 -133 -65 -247t-185 -187l-86 64q138 144 138 362q0 43 -9 135z" />
    <glyph glyph-name="dagger" unicode="&#x2020;" horiz-adv-x="903" 
d="M342 1241h223l-2 -270h232v-189h-234l-12 -1200h-189l-14 1200h-237v189h235z" />
    <glyph glyph-name="daggerdbl" unicode="&#x2021;" horiz-adv-x="903" 
d="M342 1241h223l-2 -270h232v-189h-234l-4 -338h238v-188h-240l-6 -674h-191l-6 674h-243v188h241l-4 338h-237v189h235z" />
    <glyph glyph-name="bullet" unicode="&#x2022;" horiz-adv-x="782" 
d="M618 512q0 -112 -61 -171.5t-166 -59.5q-104 0 -165.5 60t-61.5 171t61.5 171t165.5 60q105 0 166 -59.5t61 -171.5z" />
    <glyph glyph-name="ellipsis" unicode="&#x2026;" horiz-adv-x="1658" 
d="M1260 111q0 65 39 104t104 39q60 0 97.5 -36.5t37.5 -96.5q0 -68 -38.5 -109t-102.5 -41q-61 0 -99 39t-38 101zM121 111q0 65 39.5 104t103.5 39q60 0 97.5 -36.5t37.5 -96.5q0 -68 -38.5 -109t-102.5 -41q-61 0 -99 39t-38 101zM690 111q0 64 39.5 103.5t104.5 39.5
q60 0 97.5 -36.5t37.5 -96.5q0 -68 -39 -109t-103 -41q-61 0 -99 39t-38 101z" />
    <glyph glyph-name="perthousand" unicode="&#x2030;" horiz-adv-x="2238" 
d="M266 45l903 1378l134 -92l-904 -1378zM80 993q0 81 19 153t56 129.5t98 91.5t138 34q95 0 161.5 -53t96 -135.5t29.5 -184.5q0 -112 -32 -202.5t-104 -149t-173 -58.5q-96 0 -162.5 53t-96.5 136t-30 186zM485 1018q0 227 -102 227q-38 0 -66 -28q-45 -50 -45 -209
q0 -236 103 -236q43 0 67 35q43 56 43 211zM889 348q0 80 19 151.5t55.5 129.5t97 91.5t137.5 33.5q95 0 161.5 -53t96 -135t29.5 -185q0 -113 -31.5 -203t-103 -148.5t-172.5 -58.5q-72 0 -128.5 30.5t-91 83t-52 119.5t-17.5 144zM1294 371q0 227 -102 227q-42 0 -68 -29
q-45 -53 -45 -209q0 -233 105 -233q37 0 67 33q43 60 43 211zM1567 348q0 64 11.5 122.5t36.5 110.5t61 90.5t88 60.5t114 22q95 0 161.5 -53t96 -135.5t29.5 -184.5q0 -112 -32.5 -203t-104.5 -149t-173 -58q-96 0 -162.5 53.5t-96 136.5t-29.5 187zM1972 371
q0 227 -102 227q-40 0 -66 -29q-45 -50 -45 -209q0 -233 103 -233q41 0 67 33q43 56 43 211z" />
    <glyph glyph-name="uni2032" unicode="&#x2032;" horiz-adv-x="475" 
d="M170 1446h215l-111 -475h-147z" />
    <glyph glyph-name="uni2033" unicode="&#x2033;" horiz-adv-x="743" 
d="M438 1446h215l-110 -475h-148zM170 1446h215l-111 -475h-147z" />
    <glyph glyph-name="guilsinglleft" unicode="&#x2039;" horiz-adv-x="673" 
d="M86 532l346 414l141 -88l-262 -358l264 -361l-143 -90l-342 418z" />
    <glyph glyph-name="guilsinglright" unicode="&#x203a;" horiz-adv-x="673" 
d="M100 858l140 88l348 -414l-4 -65l-344 -418l-142 90l264 361z" />
    <glyph glyph-name="fraction" unicode="&#x2044;" horiz-adv-x="198" 
d="M-420 45l903 1378l133 -92l-903 -1378z" />
    <glyph glyph-name="zerosuperior" unicode="&#x2070;" horiz-adv-x="780" 
d="M82 1208q0 80 20.5 152t59 129t100.5 91t139 34q96 0 164.5 -53t100.5 -135.5t32 -184.5q0 -112 -34.5 -203t-107.5 -149t-175 -58q-96 0 -165 53t-101.5 137t-32.5 187zM508 1231q0 103 -28.5 165t-84.5 62q-38 0 -65 -24q-58 -58 -58 -213q0 -103 29.5 -168.5
t85.5 -65.5q40 0 68 31q53 62 53 213z" />
    <glyph glyph-name="i.sups" unicode="&#x2071;" horiz-adv-x="409" 
d="M113 1450l184 4v-606h-184v602zM100 1638q0 46 31 74.5t82 28.5q45 0 73.5 -26t28.5 -66q0 -45 -31 -74t-81 -29q-47 0 -75 26t-28 66z" />
    <glyph glyph-name="foursuperior" unicode="&#x2074;" horiz-adv-x="743" 
d="M57 1139l334 460l184 -2v-464h91l6 -146h-97v-139h-180v139h-321zM342 1290l-109 -157h162v243h-2z" />
    <glyph glyph-name="fivesuperior" unicode="&#x2075;" horiz-adv-x="663" 
d="M109 1599h436l-6 -157h-267l2 -121q46 4 68 4q114 0 181 -60t67 -167q0 -125 -79 -196t-216 -71q-128 0 -219 43l43 138q98 -25 153 -25t86 19q43 29 43 90q0 94 -131 94q-64 0 -120 -16l-41 14v411z" />
    <glyph glyph-name="sixsuperior" unicode="&#x2076;" horiz-adv-x="704" 
d="M82 1167q0 191 104 318t277 127q63 0 110 -15l-26 -149q-24 6 -64 6q-172 0 -211 -172q64 33 131 33q108 0 171 -61.5t63 -166.5q0 -111 -75 -183.5t-200 -72.5q-138 0 -209 93.5t-71 242.5zM369 985q40 0 63 23q29 29 29 73q0 99 -96 99q-47 0 -103 -27q7 -168 107 -168
z" />
    <glyph glyph-name="sevensuperior" unicode="&#x2077;" horiz-adv-x="624" 
d="M66 1599h487l20 -157l-299 -625l-168 82l275 543h-309z" />
    <glyph glyph-name="eightsuperior" unicode="&#x2078;" horiz-adv-x="739" 
d="M109 1405q0 95 75.5 152t190.5 57q112 0 184 -53t72 -140q0 -103 -103 -180q131 -74 131 -186q0 -105 -80 -164.5t-210 -59.5q-136 0 -213 52.5t-76 148.5q0 115 133 199q-104 66 -104 174zM287 1405q0 -30 24 -48.5t82 -46.5q10 -4 15 -7q45 45 45 98q0 31 -21.5 49
t-58.5 18q-38 0 -60 -16q-26 -16 -26 -47zM371 979q43 0 75 16q33 23 33 58q0 11 -3.5 20t-12 18t-16 15t-24.5 15t-27 14t-33 15.5t-35 16.5q-70 -54 -70 -110q0 -39 32 -58.5t81 -19.5z" />
    <glyph glyph-name="ninesuperior" unicode="&#x2079;" horiz-adv-x="704" 
d="M340 1264q48 0 102 26q-7 168 -106 168q-39 0 -66 -24q-26 -26 -26 -72q0 -98 96 -98zM68 1354q0 112 75 185t199 73q140 0 210.5 -93t70.5 -241q0 -199 -107 -323t-276 -124q-62 0 -109 15l27 149q40 -8 61 -8q172 0 213 172q-64 -31 -131 -31q-109 0 -171 61.5
t-62 164.5z" />
    <glyph glyph-name="n.sups" unicode="&#x207f;" horiz-adv-x="815" 
d="M102 1442l148 22l31 -86q95 92 219 92q207 0 207 -215v-407h-185v369q0 58 -18 84t-64 26q-60 0 -139 -51v-428h-186v338q0 70 -13 256z" />
    <glyph glyph-name="zeroinferior" unicode="&#x2080;" horiz-adv-x="780" 
d="M82 258q0 80 20.5 152t59 129t100.5 91t139 34q96 0 164.5 -53t100.5 -135.5t32 -184.5q0 -112 -34.5 -203t-107.5 -149t-175 -58q-96 0 -165 53t-101.5 137t-32.5 187zM508 281q0 103 -28.5 165t-84.5 62q-37 0 -65 -25q-58 -58 -58 -213q0 -103 29.5 -168t85.5 -65
q40 0 68 31q53 62 53 213z" />
    <glyph glyph-name="oneinferior" unicode="&#x2081;" horiz-adv-x="600" 
d="M72 565l204 86l154 -2v-602h107l4 -149h-451v149h154v424l-125 -35z" />
    <glyph glyph-name="twoinferior" unicode="&#x2082;" horiz-adv-x="665" 
d="M76 580q101 82 248 82q120 0 183.5 -62.5t63.5 -163.5q0 -99 -59 -182.5t-172 -179.5l-31 -27h266l7 -149h-492l-10 149l119 107q99 90 131 129q55 69 55 127q0 92 -102 92q-75 0 -146 -39z" />
    <glyph glyph-name="threeinferior" unicode="&#x2083;" horiz-adv-x="663" 
d="M80 592q100 70 242 70q108 0 171.5 -50.5t63.5 -140.5q0 -107 -92 -170q58 -24 88.5 -70.5t30.5 -107.5q0 -108 -76.5 -175t-212.5 -67t-232 51l50 136q92 -33 166 -33q47 0 81 18q33 23 33 70q0 88 -141 88h-57l-7 137h66q117 0 117 88q0 35 -24.5 54.5t-67.5 19.5
q-49 0 -144 -33z" />
    <glyph glyph-name="fourinferior" unicode="&#x2084;" horiz-adv-x="743" 
d="M57 188l334 461l184 -2v-465h91l6 -145h-97v-139h-180v139h-321zM342 340l-109 -158h162v244h-2z" />
    <glyph glyph-name="fiveinferior" unicode="&#x2085;" horiz-adv-x="663" 
d="M109 649h436l-6 -157h-267l2 -121q46 4 68 4q114 0 181 -60.5t67 -167.5q0 -125 -79 -195.5t-216 -70.5q-128 0 -219 43l43 137q94 -24 153 -24q56 0 86 18q43 29 43 90q0 45 -33 70t-98 25q-60 0 -120 -17l-41 15v411z" />
    <glyph glyph-name="sixinferior" unicode="&#x2086;" horiz-adv-x="704" 
d="M82 217q0 191 104 318t277 127q63 0 110 -15l-26 -149q-24 6 -64 6q-172 0 -211 -172q64 33 131 33q108 0 171 -61.5t63 -166.5q0 -111 -75 -183.5t-200 -72.5q-138 0 -209 93.5t-71 242.5zM369 35q41 0 63 22q29 29 29 74q0 98 -96 98q-49 0 -103 -26q7 -168 107 -168z
" />
    <glyph glyph-name="seveninferior" unicode="&#x2087;" horiz-adv-x="624" 
d="M66 649h487l20 -157l-299 -625l-168 82l275 543h-309z" />
    <glyph glyph-name="eightinferior" unicode="&#x2088;" horiz-adv-x="739" 
d="M109 455q0 95 75.5 152t190.5 57q112 0 184 -53t72 -140q0 -103 -103 -180q131 -74 131 -187q0 -105 -80 -164t-210 -59q-136 0 -213 52.5t-76 148.5q0 115 133 199q-104 66 -104 174zM287 455q0 -21 16.5 -39t33 -27.5t59.5 -30.5l12 -6q45 45 45 99q0 31 -21.5 49
t-58.5 18q-38 0 -60 -16q-26 -16 -26 -47zM371 29q43 0 75 16q33 23 33 57q0 8 -2 15.5t-7.5 15t-10.5 13t-15 12t-17.5 11.5t-21.5 11.5t-23 11t-26.5 12.5t-27.5 13q-70 -54 -70 -111q0 -39 31.5 -58t81.5 -19z" />
    <glyph glyph-name="nineinferior" unicode="&#x2089;" horiz-adv-x="704" 
d="M340 313q46 0 102 27q-7 168 -106 168q-37 0 -66 -25q-26 -26 -26 -71q0 -99 96 -99zM68 403q0 112 75 185.5t199 73.5q140 0 210.5 -93t70.5 -241q0 -199 -107 -323t-276 -124q-62 0 -109 15l27 149q40 -8 61 -8q172 0 213 172q-64 -31 -131 -31q-109 0 -171 61t-62 164
z" />
    <glyph glyph-name="a.sinf" unicode="&#x2090;" horiz-adv-x="724" 
d="M88 420q133 96 287 96q124 0 181.5 -55.5t57.5 -173.5v-133q0 -66 13 -244l-144 -23l-30 82q-97 -84 -205 -84q-86 0 -135.5 41.5t-49.5 114.5q0 95 91 152q84 50 278 65q-1 66 -21 89.5t-73 23.5q-76 0 -188 -56zM301 12q55 0 131 51v93q-116 -7 -166 -35
q-28 -19 -28 -53q0 -56 63 -56z" />
    <glyph glyph-name="e.sinf" unicode="&#x2091;" horiz-adv-x="731" 
d="M76 182q0 145 86 240.5t235 95.5q129 0 195.5 -72.5t66.5 -191.5q0 -52 -10 -104h-383q17 -123 158 -123q92 0 178 24l39 -117q-122 -49 -250 -49q-145 0 -230 77.5t-85 219.5zM389 385q-107 0 -123 -129h217q2 8 2 31q0 45 -24 71.5t-72 26.5z" />
    <glyph glyph-name="o.sinf" unicode="&#x2092;" horiz-adv-x="784" 
d="M74 188q0 141 87.5 236.5t241.5 95.5q141 0 224.5 -88t83.5 -221q0 -142 -86 -236t-240 -94q-146 0 -228.5 86.5t-82.5 220.5zM522 201q0 81 -33 131.5t-94 50.5q-46 0 -80 -27q-51 -48 -51 -153q0 -85 33.5 -136t97.5 -51q52 0 82 33q45 45 45 152z" />
    <glyph glyph-name="x.sinf" unicode="&#x2093;" horiz-adv-x="739" 
d="M66 502h186l121 -205h4l117 205h178q0 -30 -33 -76l-150 -215l166 -236q31 -52 31 -77h-184l-140 219h-2l-131 -219h-176q0 23 33 75l162 234l-152 219q-27 38 -30 76z" />
    <glyph glyph-name="uni20AB" unicode="&#x20ab;" horiz-adv-x="1083" 
d="M481 395q101 0 217 101v311q-90 53 -192 53q-88 0 -137 -43q-70 -58 -70 -188q0 -110 46.5 -172t135.5 -62zM82 602q-1 182 117.5 305t289.5 123q112 0 209 -61v166h-331v141h331v117h209v-117h162v-141h-162v-512q0 -84 19 -365l-174 -25l-29 117q-136 -133 -289 -133
q-68 0 -131.5 28.5t-112 78t-78 122t-30.5 156.5zM102 145h844v-145h-844v145z" />
    <glyph glyph-name="Euro" unicode="&#x20ac;" horiz-adv-x="1351" 
d="M236 655q0 57 6 109h-138v162h168q30 101 81.5 184.5t125 148t175.5 100.5t223 36q208 0 372 -101l-84 -176q-140 76 -291 76q-133 0 -229 -70q-92 -69 -137 -198h463v-162h-496q-4 -58 -4 -92q0 -40 2 -60h498v-161h-469q40 -126 133.5 -199.5t247.5 -73.5q159 0 307 66
l61 -174q-188 -93 -399 -93q-239 0 -392 128t-202 346h-154v161h132v43z" />
    <glyph glyph-name="uni20B9" unicode="&#x20b9;" horiz-adv-x="1185" 
d="M125 483l41 183h67q176 0 282 44t134 150h-524v162h522q-26 91 -116.5 139.5t-237.5 48.5h-168v162h956v-162h-313q93 -72 117 -188h196v-162h-196q-27 -151 -153 -245t-326 -121l360 -310q56 -49 102 -103t52 -81h-258z" />
    <glyph glyph-name="uni20BA" unicode="&#x20ba;" horiz-adv-x="1173" 
d="M227 1372h224v-282l378 118l52 -153l-430 -135v-146l378 119l52 -154l-430 -135v-411q201 1 311 107.5t156 336.5l215 -47q-44 -284 -219.5 -437t-462.5 -153h-224v535l-133 -41l-51 153l184 58v145l-133 -41l-51 154l184 57v352z" />
    <glyph glyph-name="uni20BD" unicode="&#x20bd;" horiz-adv-x="1191" 
d="M180 1372h363q571 3 571 -414q0 -216 -161.5 -329t-446.5 -113h-103v-129h449v-160h-449v-227h-223v227h-160v160h160v129h-160v164h160v692zM565 1190h-162v-510h101q178 0 276.5 67.5t98.5 202.5q0 127 -79 183.5t-235 56.5z" />
    <glyph glyph-name="uni2113" unicode="&#x2113;" horiz-adv-x="847" 
d="M459 -23q-62 0 -113.5 16.5t-94 51.5t-67 98t-24.5 148v139h-99v162h99v416q0 185 79 286t236 101q156 0 233.5 -103.5t77.5 -279.5q0 -249 -99.5 -391.5t-309.5 -178.5v-98q0 -101 32.5 -138.5t98.5 -37.5q61 0 129 22l47 -165q-104 -48 -225 -48zM475 1204
q-55 0 -76.5 -44.5t-21.5 -141.5v-406q106 31 153.5 122t47.5 270q0 44 -4 77t-15 62.5t-32 45t-52 15.5z" />
    <glyph glyph-name="trademark" unicode="&#x2122;" horiz-adv-x="1683" 
d="M1280 1372h184l90 -686h-137l-51 377l-10 133h-2l-156 -510h-160l-116 377l-29 135h-4l-64 -512h-137l92 686h185l125 -393l26 -123h6zM88 1372h600l-6 -115h-219v-571h-152v571h-217z" />
    <glyph glyph-name="estimated" unicode="&#x212e;" horiz-adv-x="1656" 
d="M1395 162l26 -60q-114 -67 -245.5 -100t-323.5 -33q-165 0 -301 55t-225.5 150.5t-138 223t-48.5 272.5q0 104 24.5 205.5t80 197.5t135.5 169t200.5 117t266.5 44q165 0 294.5 -55t211 -151t124 -222t42.5 -273v-51h-1135v-424q170 -188 467 -188q314 0 545 123z
M850 1333q-297 0 -467 -184v-430h913v426q-154 188 -446 188z" />
    <glyph glyph-name="uni2150" unicode="&#x2150;" horiz-adv-x="1677" 
d="M117 1270l233 86l152 -2v-602h135l4 -150h-508v150h184v426l-155 -41zM319 45l904 1378l133 -92l-903 -1378zM1051 780h508l20 -157l-317 -625l-168 82l290 543h-327z" />
    <glyph glyph-name="uni2151" unicode="&#x2151;" horiz-adv-x="1677" 
d="M117 1270l233 86l152 -2v-602h135l4 -150h-508v150h184v426l-155 -41zM319 45l904 1378l133 -92l-903 -1378zM1296 444q47 0 103 27q-7 168 -107 168q-40 0 -65 -25q-27 -27 -27 -71q0 -99 96 -99zM1022 535q0 112 75.5 185t200.5 73q139 0 210 -93.5t71 -240.5
q0 -199 -107 -323t-276 -124q-62 0 -109 15l27 149q40 -8 62 -8q172 0 213 172q-64 -31 -132 -31q-109 0 -172 62t-63 164z" />
    <glyph glyph-name="uni2153" unicode="&#x2153;" horiz-adv-x="1677" 
d="M117 1270l233 86l152 -2v-602h135l4 -150h-508v150h184v426l-155 -41zM319 45l904 1378l133 -92l-903 -1378zM1055 723q104 70 241 70q110 0 173 -50.5t63 -140.5q0 -107 -92 -170q58 -24 88.5 -70.5t30.5 -107.5q0 -109 -75.5 -175.5t-213.5 -66.5q-136 0 -232 51
l49 136q92 -33 166 -33q52 0 82 18q35 25 35 70q0 88 -143 88h-58l-6 137h68q115 0 115 88q0 35 -25 54.5t-68 19.5q-21 0 -45 -4.5t-38 -8.5t-36.5 -12t-23.5 -8z" />
    <glyph glyph-name="uni2154" unicode="&#x2154;" horiz-adv-x="1677" 
d="M113 1284q101 82 247 82q120 0 184 -62t64 -163q0 -99 -59 -183t-172 -180l-31 -26h266l6 -150h-491l-10 150l119 106q99 90 131 129q55 69 55 127q0 92 -103 92q-73 0 -145 -39zM319 45l904 1378l133 -92l-903 -1378zM1055 723q104 70 241 70q110 0 173 -50.5t63 -140.5
q0 -107 -92 -170q58 -24 88.5 -70.5t30.5 -107.5q0 -109 -75.5 -175.5t-213.5 -66.5q-136 0 -232 51l49 136q92 -33 166 -33q52 0 82 18q35 25 35 70q0 88 -143 88h-58l-6 137h68q115 0 115 88q0 35 -25 54.5t-68 19.5q-21 0 -45 -4.5t-38 -8.5t-36.5 -12t-23.5 -8z" />
    <glyph glyph-name="uni2155" unicode="&#x2155;" horiz-adv-x="1677" 
d="M117 1270l233 86l152 -2v-602h135l4 -150h-508v150h184v426l-155 -41zM319 45l904 1378l133 -92l-903 -1378zM1083 780h437l-7 -157h-264v-121q50 4 70 4q114 0 181 -60t67 -167q0 -125 -80 -196t-217 -71q-128 0 -219 43l43 138q98 -25 153 -25q56 0 86 18q45 28 45 90
q0 45 -34 70t-99 25q-61 0 -121 -17l-41 15v411z" />
    <glyph glyph-name="uni2156" unicode="&#x2156;" horiz-adv-x="1677" 
d="M113 1284q101 82 247 82q120 0 184 -62t64 -163q0 -99 -59 -183t-172 -180l-31 -26h266l6 -150h-491l-10 150l119 106q99 90 131 129q55 69 55 127q0 92 -103 92q-73 0 -145 -39zM319 45l904 1378l133 -92l-903 -1378zM1083 780h437l-7 -157h-264v-121q50 4 70 4
q114 0 181 -60t67 -167q0 -125 -80 -196t-217 -71q-128 0 -219 43l43 138q98 -25 153 -25q56 0 86 18q45 28 45 90q0 45 -34 70t-99 25q-61 0 -121 -17l-41 15v411z" />
    <glyph glyph-name="uni2157" unicode="&#x2157;" horiz-adv-x="1677" 
d="M117 1296q104 70 241 70q110 0 173 -50t63 -140q0 -107 -92 -170q58 -24 88.5 -71t30.5 -108q0 -109 -75.5 -175t-213.5 -66q-136 0 -232 51l50 135q92 -33 165 -33q50 0 82 19q35 24 35 69q0 88 -143 88h-58l-6 138h68q115 0 115 88q0 35 -25 54t-68 19
q-17 0 -34.5 -2.5t-35 -7t-29 -7.5t-26.5 -8.5t-18 -6.5zM319 45l904 1378l133 -92l-903 -1378zM1083 780h437l-7 -157h-264v-121q50 4 70 4q114 0 181 -60t67 -167q0 -125 -80 -196t-217 -71q-128 0 -219 43l43 138q98 -25 153 -25q56 0 86 18q45 28 45 90q0 45 -34 70
t-99 25q-61 0 -121 -17l-41 15v411z" />
    <glyph glyph-name="uni2158" unicode="&#x2158;" horiz-adv-x="1677" 
d="M55 893l334 461l184 -2v-465h91l6 -146h-97v-139h-180v139h-319zM340 1044l-109 -157h162v243h-2zM319 45l904 1378l133 -92l-903 -1378zM1083 780h437l-7 -157h-264v-121q50 4 70 4q114 0 181 -60t67 -167q0 -125 -80 -196t-217 -71q-128 0 -219 43l43 138
q98 -25 153 -25q56 0 86 18q45 28 45 90q0 45 -34 70t-99 25q-61 0 -121 -17l-41 15v411z" />
    <glyph glyph-name="uni2159" unicode="&#x2159;" horiz-adv-x="1677" 
d="M117 1270l233 86l152 -2v-602h135l4 -150h-508v150h184v426l-155 -41zM319 45l904 1378l133 -92l-903 -1378zM1036 348q0 191 104.5 318t278.5 127q62 0 109 -15l-27 -149q-21 6 -61 6q-172 0 -211 -170q64 31 131 31q107 0 170 -62t63 -166q0 -111 -75 -183.5
t-201 -72.5q-137 0 -209 94t-72 242zM1323 166q41 0 66 22q26 26 26 74q0 98 -94 98q-52 0 -102 -26q7 -168 104 -168z" />
    <glyph glyph-name="uni215A" unicode="&#x215a;" horiz-adv-x="1677" 
d="M145 1354h437l-7 -158h-264v-121q50 4 70 4q114 0 181 -60t67 -167q0 -125 -79.5 -195.5t-217.5 -70.5q-128 0 -219 43l43 137q98 -25 153 -25t86 19q45 28 45 90q0 45 -34 69.5t-99 24.5t-121 -16l-41 14v412zM319 45l904 1378l133 -92l-903 -1378zM1036 348
q0 191 104.5 318t278.5 127q62 0 109 -15l-27 -149q-21 6 -61 6q-172 0 -211 -170q64 31 131 31q107 0 170 -62t63 -166q0 -111 -75 -183.5t-201 -72.5q-137 0 -209 94t-72 242zM1323 166q41 0 66 22q26 26 26 74q0 98 -94 98q-52 0 -102 -26q7 -168 104 -168z" />
    <glyph glyph-name="uni215B" unicode="&#x215b;" horiz-adv-x="1677" 
d="M117 1270l233 86l152 -2v-602h135l4 -150h-508v150h184v426l-155 -41zM319 45l904 1378l133 -92l-903 -1378zM1047 586q0 95 76.5 152t191.5 57q110 0 182 -53t72 -140q0 -103 -103 -180q131 -76 131 -186q0 -105 -80 -164.5t-210 -59.5q-136 0 -212.5 52.5t-76.5 148.5
q3 117 133 199q-104 66 -104 174zM1225 586q0 -21 16.5 -39t33 -27.5t59.5 -30.5l12 -6q47 47 47 99q0 31 -22.5 49t-59.5 18q-34 0 -60 -16q-26 -19 -26 -47zM1309 160q46 0 75 16q35 25 35 57q0 11 -3.5 20t-12 18t-16 15.5t-24 15.5t-27 14.5t-33.5 16.5t-35 17
q-72 -59 -72 -112q0 -39 32 -58.5t81 -19.5z" />
    <glyph glyph-name="uni215C" unicode="&#x215c;" horiz-adv-x="1677" 
d="M117 1296q104 70 241 70q110 0 173 -50t63 -140q0 -107 -92 -170q58 -24 88.5 -71t30.5 -108q0 -109 -75.5 -175t-213.5 -66q-136 0 -232 51l50 135q92 -33 165 -33q50 0 82 19q35 24 35 69q0 88 -143 88h-58l-6 138h68q115 0 115 88q0 35 -25 54t-68 19
q-17 0 -34.5 -2.5t-35 -7t-29 -7.5t-26.5 -8.5t-18 -6.5zM319 45l904 1378l133 -92l-903 -1378zM1047 586q0 95 76.5 152t191.5 57q110 0 182 -53t72 -140q0 -103 -103 -180q131 -76 131 -186q0 -105 -80 -164.5t-210 -59.5q-136 0 -212.5 52.5t-76.5 148.5q3 117 133 199
q-104 66 -104 174zM1225 586q0 -21 16.5 -39t33 -27.5t59.5 -30.5l12 -6q47 47 47 99q0 31 -22.5 49t-59.5 18q-34 0 -60 -16q-26 -19 -26 -47zM1309 160q46 0 75 16q35 25 35 57q0 11 -3.5 20t-12 18t-16 15.5t-24 15.5t-27 14.5t-33.5 16.5t-35 17q-72 -59 -72 -112
q0 -39 32 -58.5t81 -19.5z" />
    <glyph glyph-name="uni215D" unicode="&#x215d;" horiz-adv-x="1677" 
d="M145 1354h437l-7 -158h-264v-121q50 4 70 4q114 0 181 -60t67 -167q0 -125 -79.5 -195.5t-217.5 -70.5q-128 0 -219 43l43 137q98 -25 153 -25t86 19q45 28 45 90q0 45 -34 69.5t-99 24.5t-121 -16l-41 14v412zM319 45l904 1378l133 -92l-903 -1378zM1047 586
q0 95 76.5 152t191.5 57q110 0 182 -53t72 -140q0 -103 -103 -180q131 -76 131 -186q0 -105 -80 -164.5t-210 -59.5q-136 0 -212.5 52.5t-76.5 148.5q3 117 133 199q-104 66 -104 174zM1225 586q0 -21 16.5 -39t33 -27.5t59.5 -30.5l12 -6q47 47 47 99q0 31 -22.5 49
t-59.5 18q-34 0 -60 -16q-26 -19 -26 -47zM1309 160q46 0 75 16q35 25 35 57q0 11 -3.5 20t-12 18t-16 15.5t-24 15.5t-27 14.5t-33.5 16.5t-35 17q-72 -59 -72 -112q0 -39 32 -58.5t81 -19.5z" />
    <glyph glyph-name="uni215E" unicode="&#x215e;" horiz-adv-x="1677" 
d="M113 1354h508l20 -158l-317 -625l-168 82l290 543h-327zM319 45l904 1378l133 -92l-903 -1378zM1047 586q0 95 76.5 152t191.5 57q110 0 182 -53t72 -140q0 -103 -103 -180q131 -76 131 -186q0 -105 -80 -164.5t-210 -59.5q-136 0 -212.5 52.5t-76.5 148.5q3 117 133 199
q-104 66 -104 174zM1225 586q0 -21 16.5 -39t33 -27.5t59.5 -30.5l12 -6q47 47 47 99q0 31 -22.5 49t-59.5 18q-34 0 -60 -16q-26 -19 -26 -47zM1309 160q46 0 75 16q35 25 35 57q0 11 -3.5 20t-12 18t-16 15.5t-24 15.5t-27 14.5t-33.5 16.5t-35 17q-72 -59 -72 -112
q0 -39 32 -58.5t81 -19.5z" />
    <glyph glyph-name="uni2190" unicode="&#x2190;" horiz-adv-x="1693" 
d="M51 528l639 496l115 -143l-230 -181l-167 -102h1247v-176h-1247l167 -103l228 -176l-115 -147l-637 498v34z" />
    <glyph glyph-name="uni2191" unicode="&#x2191;" horiz-adv-x="1114" 
d="M541 1503h34l496 -639l-143 -112l-180 229l-103 166v-1307h-176v1307l-102 -166l-177 -227l-147 112z" />
    <glyph glyph-name="uni2192" unicode="&#x2192;" horiz-adv-x="1693" 
d="M891 881l113 143l638 -496v-34l-636 -498l-113 147l227 176l166 103h-1247v176h1247l-166 102z" />
    <glyph glyph-name="uni2193" unicode="&#x2193;" horiz-adv-x="1114" 
d="M469 1503h176v-1306l103 168l180 227l143 -113l-496 -639h-34l-498 637l147 113l177 -225l102 -168v1306z" />
    <glyph glyph-name="uni2194" unicode="&#x2194;" horiz-adv-x="2803" 
d="M2009 881l113 143l631 -496v-34l-629 -498l-113 147l217 174l168 105h-1988l167 -105l218 -174l-113 -147l-629 498v34l631 496l113 -143l-220 -179l-167 -104h1988l-168 104z" />
    <glyph glyph-name="uni2195" unicode="&#x2195;" horiz-adv-x="1114" 
d="M541 1493h34l496 -639l-143 -115l-180 230l-103 168v-1313l103 168l180 229l143 -115l-496 -638h-34l-498 636l147 115l177 -227l102 -168v1313l-102 -168l-177 -228l-147 115z" />
    <glyph glyph-name="uni2196" unicode="&#x2196;" horiz-adv-x="1228" 
d="M123 1251l27 21l763 -207l-47 -176l-268 80l-186 69l768 -1040l-140 -104l-759 1032l20 -189l-12 -291l-180 5z" />
    <glyph glyph-name="uni2197" unicode="&#x2197;" horiz-adv-x="1228" 
d="M315 1065l764 207l27 -21l14 -800l-180 -5l-12 291l20 189l-762 -1032l-137 104l768 1040l-186 -69l-269 -80z" />
    <glyph glyph-name="uni2198" unicode="&#x2198;" horiz-adv-x="1228" 
d="M49 1231l137 104l762 -1032l-20 191l12 288l180 -4l-14 -801l-27 -20l-764 207l47 176l269 -80l186 -70z" />
    <glyph glyph-name="uni2199" unicode="&#x2199;" horiz-adv-x="1228" 
d="M150 -43l-27 20l-14 801l180 4l12 -288l-20 -191l759 1032l140 -104l-768 -1041l186 70l268 80l47 -176z" />
    <glyph glyph-name="uni219E" unicode="&#x219e;" horiz-adv-x="2066" 
d="M621 526l639 498l112 -145l-227 -179l-166 -102h1049v-176h-1049l166 -103l227 -178l-112 -145l-639 496v34zM51 526l617 539l125 -139l-474 -416l474 -416l-123 -139l-619 537v34z" />
    <glyph glyph-name="uni219F" unicode="&#x219f;" horiz-adv-x="1196" 
d="M582 934h34l496 -639l-143 -115l-181 230l-102 165v-1017h-176v1017l-102 -165l-177 -228l-147 115zM582 1503h34l537 -618l-137 -125l-418 475l-414 -473l-141 125z" />
    <glyph glyph-name="uni21A0" unicode="&#x21a0;" horiz-adv-x="2066" 
d="M692 879l115 145l637 -498v-34l-637 -496l-115 145l230 178l165 103h-1048v176h1048l-165 102zM1274 926l123 139l618 -539v-34l-618 -537l-125 139l475 416z" />
    <glyph glyph-name="uni21A1" unicode="&#x21a1;" horiz-adv-x="1196" 
d="M510 1503h176v-1020l102 168l181 228l143 -113l-496 -639h-34l-498 637l147 113l177 -226l102 -168v1020zM43 174l141 123l414 -473l418 475l137 -123l-537 -618h-34z" />
    <glyph glyph-name="uni21B0" unicode="&#x21b0;" horiz-adv-x="1574" 
d="M51 528l639 496l115 -143l-230 -181l-167 -102h1022v-1028h-177v852h-845l167 -103l228 -176l-115 -147l-637 498v34z" />
    <glyph glyph-name="uni21B1" unicode="&#x21b1;" horiz-adv-x="1574" 
d="M770 881l115 143l639 -496v-34l-637 -498l-115 147l227 176l168 103h-845v-852h-177v1028h1022l-168 102z" />
    <glyph glyph-name="uni21B2" unicode="&#x21b2;" horiz-adv-x="1574" 
d="M1253 1450h177v-1028h-1022l167 -103l230 -180l-115 -143l-639 496v34l637 498l115 -147l-228 -177l-167 -102h845v852z" />
    <glyph glyph-name="uni21B3" unicode="&#x21b3;" horiz-adv-x="1574" 
d="M145 1450h177v-852h845l-168 102l-227 177l115 147l637 -498v-34l-639 -496l-115 143l229 180l168 103h-1022v1028z" />
    <glyph glyph-name="uni21B4" unicode="&#x21b4;" horiz-adv-x="1564" 
d="M39 598h1057v-727l104 168l178 227l144 -112l-496 -639h-35l-497 637l147 112l178 -225l101 -168v551h-881v176z" />
    <glyph glyph-name="uni21BC" unicode="&#x21bc;" horiz-adv-x="1708" 
d="M25 459l677 565l113 -147l-223 -177l-141 -102h1218v-176h-1644v37z" />
    <glyph glyph-name="uni21BD" unicode="&#x21bd;" horiz-adv-x="1708" 
d="M25 598h1644v-176h-1218l141 -103l223 -176l-113 -147l-677 565v37z" />
    <glyph glyph-name="uni21BE" unicode="&#x21be;" horiz-adv-x="819" 
d="M174 1544h35l567 -678l-147 -112l-176 217l-103 149v-1280h-176v1704z" />
    <glyph glyph-name="uni21BF" unicode="&#x21bf;" horiz-adv-x="819" 
d="M608 1544h37v-1704h-176v1280l-102 -149l-177 -217l-147 112z" />
    <glyph glyph-name="uni21C0" unicode="&#x21c0;" horiz-adv-x="1708" 
d="M893 877l113 147l677 -565v-37h-1644v176h1218l-141 102z" />
    <glyph glyph-name="uni21C1" unicode="&#x21c1;" horiz-adv-x="1708" 
d="M39 598h1644v-37l-677 -565l-113 147l223 176l141 103h-1218v176z" />
    <glyph glyph-name="uni21C2" unicode="&#x21c2;" horiz-adv-x="819" 
d="M174 1544h176v-1280l103 150l176 217l147 -113l-567 -678h-35v1704z" />
    <glyph glyph-name="uni21C3" unicode="&#x21c3;" horiz-adv-x="819" 
d="M469 1544h176v-1704h-37l-565 678l147 113l177 -217l102 -150v1280z" />
    <glyph glyph-name="uni21C4" unicode="&#x21c4;" horiz-adv-x="1757" 
d="M975 1386l119 144l612 -488v-34l-612 -496l-117 145l205 170l168 111h-1293v176h1293l-168 107zM51 66l613 497l116 -145l-205 -170l-169 -111h1294v-176h-1292l167 -106l205 -166l-116 -146l-613 488v35z" />
    <glyph glyph-name="uni21C5" unicode="&#x21c5;" horiz-adv-x="2109" 
d="M1473 1497h176v-1309l108 170l166 207l143 -119l-487 -612h-35l-487 610l145 119l164 -205l107 -168v1307zM532 1503h35l486 -612l-144 -119l-166 207l-108 170v-1309h-174v1307l-107 -168l-164 -205l-147 119z" />
    <glyph glyph-name="uni21C6" unicode="&#x21c6;" horiz-adv-x="1757" 
d="M51 1042l613 488l116 -144l-205 -165l-167 -107h1292v-176h-1294l169 -111l205 -170l-116 -145l-613 496v34zM975 418l119 145l612 -497v-35l-612 -488l-117 146l205 166l168 106h-1293v176h1293l-168 111z" />
    <glyph glyph-name="uni21C7" unicode="&#x21c7;" horiz-adv-x="1693" 
d="M51 1042l578 453l110 -143l-164 -129l-169 -109h1249v-176h-1247l167 -107l164 -124l-112 -146l-576 447v34zM51 66l578 446l110 -143l-164 -125l-167 -107h1247v-176h-1249l169 -108l164 -129l-112 -146l-576 453v35z" />
    <glyph glyph-name="uni21C8" unicode="&#x21c8;" horiz-adv-x="2109" 
d="M1544 1503h35l487 -616l-145 -115l-164 207l-108 168v-1307h-176v1305l-103 -166l-160 -205l-145 113zM530 1503h35l479 -616l-145 -115l-160 207l-104 170v-1309h-174v1307l-107 -168l-166 -205l-145 113z" />
    <glyph glyph-name="uni21C9" unicode="&#x21c9;" horiz-adv-x="1693" 
d="M954 1352l113 143l575 -453v-34l-575 -447l-113 146l166 124l168 107h-1249v176h1249l-168 109zM954 369l113 143l575 -446v-35l-575 -453l-113 146l166 129l168 108h-1249v176h1249l-168 107z" />
    <glyph glyph-name="uni21CA" unicode="&#x21ca;" horiz-adv-x="2109" 
d="M1473 1503h176v-1308l108 170l164 204l145 -112l-487 -617h-35l-479 617l145 112l160 -204l103 -168v1306zM461 1503h174v-1310l104 172l160 204l145 -112l-479 -617h-35l-487 617l145 112l166 -204l107 -168v1306z" />
    <glyph glyph-name="uni21CB" unicode="&#x21cb;" horiz-adv-x="1693" 
d="M25 678l577 452l115 -147l-119 -90l-139 -82h1210v-170h-1644v37zM25 381h1644v-37l-577 -453l-115 148l119 90l139 82h-1210v170z" />
    <glyph glyph-name="uni21CC" unicode="&#x21cc;" horiz-adv-x="1693" 
d="M977 983l115 147l577 -452v-37h-1644v170h1210l-139 82zM25 381h1644v-170h-1210l139 -82l119 -90l-115 -148l-577 453v37z" />
    <glyph glyph-name="uni21CD" unicode="&#x21cd;" horiz-adv-x="2025" 
d="M461 381h663l119 260h-782l-156 -129zM51 528l674 602l123 -145l-100 -82l-123 -92h696l135 293l152 -70l-103 -223h469v-170h-547l-120 -260h667v-170h-745l-135 -293l-150 70l103 223h-422l123 -92l100 -82l-123 -146l-674 603v34z" />
    <glyph glyph-name="uni21CE" unicode="&#x21ce;" horiz-adv-x="2809" 
d="M1962 985l123 145l674 -602v-34l-674 -603l-123 146l100 82l123 92h-831l-135 -293l-148 70l103 223h-549l123 -92l100 -82l-123 -146l-674 603v34l674 602l123 -145l-100 -82l-123 -92h823l133 293l152 -70l-103 -223h555l-123 92zM2505 512l-156 129h-797l-120 -260
h917zM461 381h790l119 260h-909l-156 -129z" />
    <glyph glyph-name="uni21CF" unicode="&#x21cf;" horiz-adv-x="2025" 
d="M1178 985l122 145l674 -602v-34l-671 -603l-125 146l100 82l123 92h-692l-136 -293l-149 70l102 223h-475v170h553l119 260h-672v170h750l135 293l151 -70l-102 -223h416l-123 92zM1567 641h-660l-121 -260h781l153 129z" />
    <glyph glyph-name="uni21D0" unicode="&#x21d0;" horiz-adv-x="1738" 
d="M51 528l674 602l123 -145l-100 -82l-123 -92h1075v-170h-1239l-156 -129l156 -131h1239v-170h-1075l123 -92l100 -82l-123 -146l-674 603v34z" />
    <glyph glyph-name="uni21D1" unicode="&#x21d1;" horiz-adv-x="1277" 
d="M623 1503h34l578 -674l-143 -124l-84 102l-68 106v-1073h-170v1254l-131 155l-129 -155v-1254h-170v1075l-68 -108l-82 -100l-147 124z" />
    <glyph glyph-name="uni21D2" unicode="&#x21d2;" horiz-adv-x="1738" 
d="M891 985l123 145l674 -602v-34l-674 -603l-123 146l100 82l123 92h-1075v170h1239l156 131l-156 129h-1239v170h1075l-123 92z" />
    <glyph glyph-name="uni21D3" unicode="&#x21d3;" horiz-adv-x="1277" 
d="M770 1503h170v-1073l68 107l84 102l143 -125l-578 -674h-34l-580 672l147 125l82 -100l68 -109v1075h170v-1255l129 -154l131 154v1255z" />
    <glyph glyph-name="uni21D4" unicode="&#x21d4;" horiz-adv-x="2809" 
d="M1962 985l123 145l674 -602v-34l-674 -603l-123 146l100 82l123 92h-1560l123 -92l100 -82l-123 -146l-674 603v34l674 602l123 -145l-100 -82l-123 -92h1560l-123 92zM2505 512l-156 129h-1888l-156 -129l156 -131h1888z" />
    </font>
</defs>
</svg>
