<?xml version="1.0" standalone="no"?>
<!DOCTYPE svg PUBLIC "-//W3C//DTD SVG 1.1//EN" "http://www.w3.org/Graphics/SVG/1.1/DTD/svg11.dtd" >
<svg xmlns="http://www.w3.org/2000/svg" xmlns:xlink="http://www.w3.org/1999/xlink" version="1.1">
<metadata>
Created by FontForge 20170731 at Fri Aug 27 18:28:08 2021
 By Aleksey,,,
Copyright (c) 2014-16 by David Brezina. All rights reserved.
</metadata>
<defs>
<font id="SkolarSansLatn-LtIt" horiz-adv-x="1128" >
  <font-face 
    font-family="Skolar Sans Latn Lt"
    font-weight="300"
    font-style="italic"
    font-stretch="normal"
    units-per-em="2048"
    panose-1="2 13 0 0 0 4 0 0 0 0"
    ascent="1536"
    descent="-512"
    x-height="952"
    cap-height="1372"
    bbox="-483 -532 2542 2195"
    underline-thickness="83"
    underline-position="-349"
    slope="-8"
    unicode-range="U+000D-FC01"
  />
<missing-glyph horiz-adv-x="1363" 
d="M1178 1358v-1358h-967v1358h967zM694 766l330 494h-659zM752 678l329 -496v989zM694 592l-329 -494h659zM635 678l-328 493v-989z" />
    <glyph glyph-name="f_b" unicode="fb" horiz-adv-x="1554" 
d="M979 98q95 0 162 54q78 71 124 190.5t46 267.5q0 107 -30 176t-87 72q-67 -3 -149.5 -55.5t-157.5 -128.5l-72 -551q91 -25 164 -25zM113 952h139l33 271q19 154 104.5 245t228.5 91q123 -2 254 -41l129 20l-96 -723q174 166 320 166q76 0 127.5 -49t74 -125t23.5 -174
q1 -177 -60 -326t-177 -239.5t-263 -90.5q-75 0 -155 19t-127 41l180 1372q-109 31 -230 31q-76 0 -122 -37q-61 -58 -76 -186l-33 -265h215l-12 -106h-215l-162 -1338h-135l162 1338h-142z" />
    <glyph glyph-name="f_f" unicode="ff" horiz-adv-x="1144" 
d="M817 1223q5 44 23 100q-47 25 -112.5 44t-121.5 19q-73 0 -119 -38q-57 -60 -71 -181l-27 -215h395zM113 952h139l27 217q20 154 104 245t227 91q73 0 147 -26.5t126 -59.5q86 140 252 140q115 -3 202 -68l-53 -92q-71 39 -149 39q-72 0 -117 -39q-52 -62 -66 -178
l-32 -269h213l-13 -106h-213l-162 -1338h-135l162 1338h-395l-164 -1338h-135l162 1338h-142z" />
    <glyph glyph-name="f_h" unicode="fh" horiz-adv-x="1583" 
d="M113 952h139l33 269q20 156 105.5 247t232.5 91q131 -3 247 -43l129 22l-100 -762q84 93 180 149t187 56t137 -43.5t50.5 -116.5t-7.5 -170l-86 -651h-135l80 604q7 50 9.5 79.5t2 65.5t-7.5 56t-23.5 36t-42.5 19q-82 -4 -179 -67t-183 -160l-84 -633h-135l188 1407
q-118 33 -227 33q-74 0 -121 -33q-67 -58 -82 -190l-33 -265h215l-12 -106h-215l-162 -1338h-135l162 1338h-142z" />
    <glyph glyph-name="f_i" unicode="fi" horiz-adv-x="1030" 
d="M113 952h139l33 271q18 148 104 242t223 94q164 0 316 -111l-56 -92q-141 84 -266 84q-57 0 -108 -35q-59 -54 -78 -186l-33 -267h401l136 4l-125 -956h-135l110 846h-399l-162 -1338h-135l162 1338h-142z" />
    <glyph glyph-name="f_iacute" unicode="f&#xed;" horiz-adv-x="1026" 
d="M113 952h139l33 271q19 143 98.5 239.5t208.5 96.5q119 0 209 -68l-53 -92q-67 39 -154 39q-58 0 -105 -35q-52 -57 -69 -182l-33 -269h397l136 4l-125 -956h-136l111 846h-395l-162 -1338h-135l162 1338h-142zM1188 1372v-8l-361 -277l-57 70l340 311z" />
    <glyph glyph-name="f_j" unicode="fj" horiz-adv-x="1044" 
d="M113 952h139l33 271q18 144 103.5 240t219.5 96q94 0 184 -35t148 -78l-55 -94q-146 88 -281 88q-58 0 -108 -37q-58 -52 -76 -182l-33 -269h418l133 4l-123 -946q-22 -174 -98.5 -290.5t-208.5 -208.5l-64 77q101 93 161 193t79 239l107 826h-416l-162 -1338h-135
l162 1338h-142z" />
    <glyph glyph-name="f_k" unicode="fk" horiz-adv-x="1480" 
d="M113 952h139l33 271q19 154 105.5 245t230.5 91q137 -3 247 -43l133 22l-139 -1055l453 469h141q0 -33 -51 -80l-342 -340l266 -448q35 -63 35 -84h-137l-258 444l-127 -112l-43 -332h-137l186 1407q-105 33 -230 33q-69 0 -116 -33q-67 -58 -82 -190l-33 -265h215
l-12 -106h-215l-162 -1338h-135l162 1338h-142z" />
    <glyph glyph-name="f_l" unicode="fl" horiz-adv-x="1067" 
d="M113 952h139l33 271q20 154 105 245t235 91q114 0 241 -43l135 22l-178 -1345q-6 -53 5 -75t44 -22q31 0 74 15l23 -99q-63 -35 -142 -35q-166 0 -141 195l162 1235q-119 33 -223 33q-74 0 -125 -33q-62 -59 -80 -190l-33 -265h215l-12 -106h-215l-162 -1338h-135
l162 1338h-142z" />
    <glyph glyph-name="f_lcaron" unicode="f&#x13e;" horiz-adv-x="1069" 
d="M113 952h139l33 271q20 154 105 245t235 91q114 0 241 -43l135 22l-178 -1345q-6 -53 5 -75t44 -22q31 0 74 15l23 -99q-63 -35 -142 -35q-166 0 -141 195l162 1235q-119 33 -223 33q-74 0 -125 -33q-62 -59 -80 -190l-33 -265h215l-12 -106h-215l-162 -1338h-135
l162 1338h-142zM1063 1120l65 420l127 6l5 -8l-101 -418h-96z" />
    <glyph glyph-name="f_t" unicode="ft" horiz-adv-x="1222" 
d="M113 952h139l33 271q20 148 101.5 242t211.5 94q117 0 209 -68l-53 -92q-74 39 -156 39q-64 0 -106 -33q-56 -59 -70 -180l-33 -273h399l68 281l100 2l-36 -283h290l-12 -106h-293l-80 -623q-18 -123 52 -123q40 0 99.5 22.5t106.5 51.5l37 -90q-59 -42 -137 -74.5
t-149 -32.5q-87 0 -124 60.5t-22 173.5l84 635h-397l-162 -1338h-135l162 1338h-142z" />
    <glyph glyph-name="f_f_i" unicode="ffi" horiz-adv-x="1560" 
d="M817 1223q6 51 21 94q-46 27 -110 48t-122 21q-75 0 -119 -38q-57 -60 -71 -181l-27 -215h395zM1321 952l135 4l-127 -956h-135l113 846h-400l-162 -1338h-135l162 1338h-395l-164 -1338h-135l162 1338h-142l15 106h139l27 217q20 154 104 245t227 91q134 0 271 -92
q91 146 262 146q91 0 175.5 -33.5t141.5 -77.5l-55 -92q-133 82 -266 82q-67 0 -111 -35q-61 -52 -76 -182l-32 -269h401z" />
    <glyph glyph-name="f_f_b" unicode="ffb" horiz-adv-x="2086" 
d="M113 952h139l27 217q20 154 104 245t227 91q134 0 271 -92q92 146 270 146q138 -3 250 -43l133 22l-96 -723q174 166 319 166q75 0 126.5 -49t74 -125t22.5 -174q1 -177 -59.5 -326t-176.5 -239.5t-263 -90.5q-73 0 -155 19t-126 41l180 1370q-101 33 -229 33
q-79 0 -129 -41q-56 -62 -70 -182l-32 -265h213l-13 -106h-213l-162 -1338h-135l162 1338h-395l-164 -1338h-135l162 1338h-142zM817 1223q6 51 21 94q-119 69 -232 69q-73 0 -119 -38q-57 -60 -71 -181l-27 -215h395zM1511 98q92 0 162 54q78 71 124 190.5t46 267.5
q0 106 -30.5 175.5t-88.5 72.5q-64 -3 -146 -54.5t-159 -127.5l-71 -553q91 -25 163 -25z" />
    <glyph glyph-name="f_f_h" unicode="ffh" horiz-adv-x="2115" 
d="M113 952h139l27 217q20 154 104 245t227 91q129 0 271 -92q92 146 268 146q142 -3 252 -43l131 22l-100 -760q85 92 180 147.5t186 55.5q69 0 112 -25t59 -69t18.5 -104.5t-9.5 -131.5l-88 -651h-135l80 604q4 33 6 50.5t5 45t2.5 43t-2.5 36t-7 32t-13 23.5t-20.5 18
t-29.5 8q-82 -4 -181 -67.5t-184 -159.5l-84 -633h-135l188 1407q-108 33 -231 33q-72 0 -121 -37q-59 -59 -78 -186l-32 -265h215l-13 -106h-215l-162 -1338h-133l160 1338h-393l-164 -1338h-135l162 1338h-142zM815 1223q3 26 21 96q-46 27 -109 47t-121 20
q-73 0 -119 -38q-57 -60 -71 -181l-27 -215h393z" />
    <glyph glyph-name="f_f_j" unicode="ffj" horiz-adv-x="1574" 
d="M113 952h139l27 217q20 154 104 245t227 91q134 0 271 -92q95 146 262 146q91 0 177.5 -34.5t147.5 -78.5l-53 -94q-143 88 -274 88q-63 0 -113 -35q-63 -63 -76 -184l-32 -269h413l135 4l-122 -946q-23 -174 -100.5 -290.5t-207.5 -208.5l-63 77q101 93 160.5 193
t76.5 239l107 826h-412l-162 -1338h-135l162 1338h-395l-164 -1338h-135l162 1338h-142zM817 1223q6 51 21 94q-119 69 -232 69q-72 0 -119 -38q-57 -63 -71 -181l-27 -215h395z" />
    <glyph glyph-name="f_f_k" unicode="ffk" horiz-adv-x="2013" 
d="M113 952h139l27 217q20 154 104 245t227 91q129 0 271 -92q89 146 270 146q141 -3 250 -41l131 20l-139 -1057l454 471h142q0 -28 -52 -80l-342 -340l267 -448q34 -62 34 -84h-137l-258 444l-129 -114l-43 -330h-135l186 1407q-108 33 -229 33q-77 0 -125 -39
q-58 -55 -74 -184l-32 -265h206l-12 -106h-207l-162 -1338h-135l162 1338h-395l-164 -1338h-135l162 1338h-142zM817 1223q6 49 21 96q-123 67 -232 67q-72 0 -119 -38q-57 -60 -71 -181l-27 -215h395z" />
    <glyph glyph-name="f_f_l" unicode="ffl" horiz-adv-x="1597" 
d="M817 1223q5 46 23 102q-116 61 -234 61q-72 0 -117 -36q-59 -59 -73 -183l-27 -215h395zM1356 -23q-80 0 -115.5 50t-23.5 145l163 1235q-116 33 -229 33q-73 0 -123 -35q-60 -57 -78 -188l-30 -265h213l-13 -106h-215l-160 -1338h-135l162 1338h-395l-164 -1338h-135
l162 1338h-142l15 106h139l27 217q20 154 104 245t227 91q128 0 273 -88q89 142 268 142q120 -3 248 -43l133 22l-178 -1345q-6 -52 5 -74.5t44 -22.5q29 0 76 15l20 -99q-63 -35 -143 -35z" />
    <glyph glyph-name="f_f_t" unicode="fft" horiz-adv-x="1755" 
d="M113 952h139l27 217q20 154 104 245t227 91q132 0 269 -92q42 69 105 107.5t140 38.5q122 0 213 -68l-53 -92q-71 39 -158 39q-60 0 -102 -33q-55 -59 -72 -178l-32 -275h399l70 281l100 2l-37 -283h291l-14 -106h-291l-82 -623q-15 -123 51 -123q43 0 102 22.5t105 51.5
l37 -90q-59 -43 -136 -75t-153 -32q-84 0 -120.5 61t-22.5 173l84 635h-396l-162 -1338h-135l162 1338h-395l-164 -1338h-135l162 1338h-142zM817 1229q5 38 19 90q-119 67 -230 67q-72 0 -119 -38q-57 -60 -71 -181l-27 -215h395z" />
    <glyph glyph-name="T_h" unicode="Th" horiz-adv-x="1894" 
d="M1171 1534l138 4l-101 -762q84 93 180.5 149t188.5 56q68 0 111 -25t59 -69t18 -104.5t-10 -131.5l-86 -651h-135l80 604q7 50 9.5 79.5t2.5 65.5t-7 56t-23 36t-42 19q-83 -4 -179.5 -67t-184.5 -160l-84 -633h-137l166 1253h-471l-164 -1253h-142l166 1253h-395l2 119
h1020z" />
    <glyph glyph-name="uni021A_h" unicode="&#x21a;h" horiz-adv-x="1894" 
d="M1171 1534l138 4l-101 -762q84 93 180.5 149t188.5 56q68 0 111 -25t59 -69t18 -104.5t-10 -131.5l-86 -651h-135l80 604q7 50 9.5 79.5t2.5 65.5t-7 56t-23 36t-42 19q-83 -4 -179.5 -67t-184.5 -160l-84 -633h-137l166 1253h-471l-164 -1253h-142l166 1253h-395l2 119
h1020zM340 -528l-76 49q88 126 88 284v50l121 10q2 -18 2 -58q0 -191 -135 -335z" />
    <glyph glyph-name="uni0162_h" unicode="&#x162;h" horiz-adv-x="1894" 
d="M1171 1534l138 4l-101 -762q84 93 180.5 149t188.5 56q68 0 111 -25t59 -69t18 -104.5t-10 -131.5l-86 -651h-135l80 604q7 50 9.5 79.5t2.5 65.5t-7 56t-23 36t-42 19q-83 -4 -179.5 -67t-184.5 -160l-84 -633h-137l166 1253h-471l-164 -1253h-13l-67 -119q14 2 39 2
q75 0 121.5 -36.5t46.5 -102.5q0 -97 -100.5 -170.5t-284.5 -97.5l-25 86q277 59 283 184q-8 53 -101 53q-35 0 -71 -8l-35 53l78 156h-13l166 1253h-395l2 119h1020z" />
    <glyph glyph-name="jacute" unicode="&#xfc00;" horiz-adv-x="448" arabic-form="isolated" 
d="M205 950l137 6l-123 -946q-23 -174 -100 -290.5t-207 -208.5l-64 77q100 92 159.5 192t78.5 240zM600 1372l-80 96l-340 -311l60 -70l358 277z" />
    <glyph glyph-name="Jacute" unicode="&#xfc01;" horiz-adv-x="520" arabic-form="isolated" 
d="M297 1372h141l-176 -1333q-30 -242 -129.5 -364.5t-298.5 -139.5l-20 113q152 23 218 116.5t93 303.5zM684 1673l-47 113l-410 -170l31 -90l424 139z" />
    <glyph glyph-name=".notdef" horiz-adv-x="1363" 
d="M1178 1358v-1358h-967v1358h967zM694 766l330 494h-659zM752 678l329 -496v989zM694 592l-329 -494h659zM635 678l-328 493v-989z" />
    <glyph glyph-name=".null" horiz-adv-x="0" 
 />
    <glyph glyph-name="uni000D" unicode="&#xd;" horiz-adv-x="0" 
 />
    <glyph glyph-name="NULL" horiz-adv-x="0" 
 />
    <glyph glyph-name="NULL" horiz-adv-x="0" 
 />
    <glyph glyph-name="space" unicode=" " horiz-adv-x="401" 
 />
    <glyph glyph-name="exclam" unicode="!" horiz-adv-x="514" 
d="M434 1372l-151 -1026h-115l119 1026h147zM90 61q0 52 32 88.5t87 36.5q42 0 65 -23t23 -59q0 -56 -33.5 -91.5t-83.5 -35.5q-43 0 -66.5 23.5t-23.5 60.5z" />
    <glyph glyph-name="quotedbl" unicode="&#x22;" horiz-adv-x="649" 
d="M639 1561l-96 -535l-103 4l54 531h145zM403 1561l-96 -535l-102 4l53 531h145z" />
    <glyph glyph-name="numbersign" unicode="#" horiz-adv-x="1296" 
d="M635 967l-70 -222h301l76 246l115 -24l-68 -222h223l-14 -110h-244l-90 -295h223l-14 -113h-244l-75 -243l-115 22l68 221h-301l-76 -243l-117 22l70 221h-222l17 113h239l93 295h-222l15 110h241l76 246zM741 340l90 295h-299l-92 -295h301z" />
    <glyph glyph-name="dollar" unicode="$" horiz-adv-x="1077" 
d="M401 -168l23 170q-109 7 -210 45.5t-167 93.5l64 103q68 -46 155 -78.5t174 -38.5l70 520q-68 37 -119 72t-100.5 82t-76 104.5t-26.5 122.5q0 154 112 244.5t306 99.5l23 168h116l-22 -172q94 -8 171 -34.5t126 -57.5l-53 -105q-154 63 -260 72l-70 -512
q72 -38 122.5 -71t96.5 -77.5t69 -98t23 -117.5q0 -158 -111.5 -254t-295.5 -111l-23 -170h-117zM330 1053q-7 -86 44.5 -148t153.5 -117l62 457q-108 -10 -180.5 -59t-79.5 -133zM807 344q6 81 -43 138t-146 110l-61 -461q104 16 173.5 71.5t76.5 141.5z" />
    <glyph glyph-name="percent" unicode="%" horiz-adv-x="1400" 
d="M666 1116q0 -92 -21.5 -178t-61 -154t-101.5 -109.5t-136 -41.5q-100 0 -151.5 79t-51.5 206q0 200 89.5 341.5t232.5 141.5q68 0 115 -41t66.5 -103t19.5 -141zM262 918q0 -187 98 -187q49 0 89 37q44 51 71 148.5t27 201.5q0 185 -98 185q-43 0 -80 -29
q-46 -47 -76.5 -148t-30.5 -208zM129 29l1092 1382l84 -68l-1092 -1380zM1284 453q0 -123 -36.5 -231t-111.5 -179.5t-173 -71.5q-99 0 -151 79.5t-52 205.5q0 200 89 341.5t232 141.5q101 0 152 -81t51 -205zM879 256q0 -186 98 -186q49 0 88 36q44 50 71 148.5t27 202.5
q0 86 -21.5 135t-76.5 49q-40 0 -80 -29q-46 -47 -76 -148t-30 -208z" />
    <glyph glyph-name="ampersand" unicode="&#x26;" horiz-adv-x="1394" 
d="M293 1044q0 152 94.5 252.5t257.5 100.5q118 0 186 -68.5t68 -173.5q0 -60 -19.5 -117.5t-50 -103t-76.5 -91.5t-89.5 -80t-98.5 -71q1 -2 3 -5t3 -5q187 -281 271 -387q193 199 282 526h131q-30 -156 -120.5 -320t-219.5 -292q59 -62 103 -87.5t108 -25.5q57 0 125 33
l37 -92q-77 -60 -184 -60q-86 0 -144.5 33.5t-138.5 116.5q-202 -150 -401 -150q-163 0 -253.5 79.5t-90.5 217.5q0 75 27.5 142.5t78 123t102.5 96.5t119 83q-110 185 -110 325zM426 1047q0 -116 82 -265q262 171 262 353q0 65 -38.5 107t-106.5 42q-71 0 -131 -43
q-68 -65 -68 -194zM438 96q87 0 159.5 29t147.5 86q-124 152 -286 418q-48 -29 -85.5 -58t-77 -70.5t-61.5 -93t-22 -108.5q0 -96 58 -149.5t167 -53.5z" />
    <glyph glyph-name="quotesingle" unicode="'" horiz-adv-x="413" 
d="M403 1561l-96 -535l-102 4l53 531h145z" />
    <glyph glyph-name="parenleft" unicode="(" horiz-adv-x="628" 
d="M336 -463q-127 224 -180.5 456.5t-53.5 434.5q0 193 40.5 386t112.5 361t162.5 313t198.5 265l101 -72q-96 -111 -178 -247.5t-148.5 -297t-104.5 -346t-38 -370.5t44 -401.5t154 -417.5z" />
    <glyph glyph-name="parenright" unicode=")" horiz-adv-x="628" 
d="M309 1751q88 -155 143.5 -327.5t74 -305t18.5 -260.5q0 -255 -72 -508t-185 -453t-259 -362l-99 70q96 112 178 248t148.5 296.5t104.5 346.5t38 372q0 184 -44 400.5t-154 417.5z" />
    <glyph glyph-name="asterisk" unicode="*" horiz-adv-x="931" 
d="M893 1171l-43 -114l-254 98l68 -268l-117 -25l-33 279l-201 -226l-82 89l226 190l-260 57l32 121l260 -96l-65 272l121 21l28 -279l220 219l71 -94l-231 -182z" />
    <glyph glyph-name="plus" unicode="+" 
d="M446 123l46 346h-330l14 113h332l45 346h119l-45 -346h327l-16 -113h-328l-45 -346h-119z" />
    <glyph glyph-name="comma" unicode="," horiz-adv-x="454" 
d="M252 143q-18 -131 -89.5 -245.5t-191.5 -190.5l-51 68q89 76 134 164t59 196q3 22 8 141l135 11q6 -66 -4 -144z" />
    <glyph glyph-name="hyphen" unicode="-" horiz-adv-x="708" 
d="M139 545h424l-14 -113h-424z" />
    <glyph glyph-name="period" unicode="." horiz-adv-x="473" 
d="M74 61q0 54 32.5 90.5t88.5 36.5q43 0 66.5 -23.5t23.5 -60.5q0 -56 -34.5 -92.5t-86.5 -36.5q-43 0 -66.5 24.5t-23.5 61.5z" />
    <glyph glyph-name="slash" unicode="/" horiz-adv-x="825" 
d="M860 1401l-772 -1598l-111 56l773 1595z" />
    <glyph glyph-name="zero" unicode="0" horiz-adv-x="1083" 
d="M115 475q-1 92 14.5 194t44.5 206t76 198t105 167.5t137 117t167 43.5q70 0 126 -26.5t94.5 -72t64.5 -110t37.5 -138t11.5 -157.5q1 -115 -19 -239.5t-64 -247.5t-105.5 -220.5t-153 -158t-198.5 -60.5q-87 0 -152.5 39.5t-105 110t-59.5 159.5t-21 195zM852 901
q0 173 -53 273t-156 100q-79 0 -145 -51q-108 -103 -175 -324t-65 -430q0 -170 53.5 -270.5t157.5 -100.5q82 0 149 58q106 104 170 320t64 425z" />
    <glyph glyph-name="one" unicode="1" horiz-adv-x="843" 
d="M180 1262l363 110h121l-164 -1253h229l-6 -119h-666l13 119h288l146 1110l-297 -78z" />
    <glyph glyph-name="two" unicode="2" horiz-adv-x="940" 
d="M193 1260q163 137 356 137q150 0 237.5 -89.5t87.5 -242.5q0 -190 -134 -391.5t-400 -450.5l-117 -102h547l-4 -121h-721l-2 121q23 21 88 80t95 87t91 86.5t93 93t83.5 91.5t79.5 97.5t62.5 95t52.5 99.5t30.5 96.5t12.5 99.5q0 106 -52 164.5t-153 58.5
q-133 0 -272 -99z" />
    <glyph glyph-name="three" unicode="3" horiz-adv-x="958" 
d="M195 1266q55 48 146.5 89.5t211.5 41.5q140 0 224.5 -79t84.5 -208q0 -119 -64 -223.5t-180 -163.5q92 -29 147.5 -111.5t55.5 -191.5q0 -191 -129.5 -318t-337.5 -127q-103 0 -186.5 24.5t-120.5 51.5l47 107q128 -56 260 -56q122 0 207 50q119 91 119 264
q0 113 -70 174t-184 61h-92l6 121h82q115 0 207 89.5t92 225.5q0 87 -50 135t-143 48q-59 0 -123.5 -20.5t-89 -34t-63.5 -37.5z" />
    <glyph glyph-name="four" unicode="4" horiz-adv-x="1050" 
d="M51 455l697 917h147l-121 -917h172l-4 -119h-182l-45 -336h-140l46 336h-558zM621 1010l-420 -555h436l94 714z" />
    <glyph glyph-name="five" unicode="5" horiz-adv-x="940" 
d="M309 -25q-145 0 -262 62l45 106q117 -43 227 -43q119 0 213 64q68 52 108 139.5t40 192.5q0 108 -62.5 166.5t-177.5 58.5q-117 0 -239 -47l-27 16l90 682h613l-19 -127h-477l-55 -424q86 23 161 23q150 0 242 -88.5t92 -247.5q0 -148 -67.5 -270.5t-185 -192.5
t-259.5 -70z" />
    <glyph glyph-name="six" unicode="6" horiz-adv-x="1001" 
d="M727 1395q124 0 193 -43l-46 -109q-65 25 -137 25q-96 0 -176 -41q-106 -62 -177 -204.5t-105 -320.5h2q127 117 294 117q141 0 227.5 -97t86.5 -249q-1 -131 -54 -244t-154 -183.5t-230 -70.5q-160 0 -251 125t-91 320q0 74 9.5 158.5t32 179.5t55.5 184.5t83.5 172
t112 144.5t145.5 99t180 37zM465 102q100 0 172 56q51 51 81.5 131.5t31.5 171.5q0 110 -55 175.5t-152 65.5q-145 0 -285 -127q-8 -71 -8 -153q0 -147 54 -233.5t161 -86.5z" />
    <glyph glyph-name="seven" unicode="7" horiz-adv-x="878" 
d="M229 -33l-129 64l648 1214h-588l6 127h723l14 -125z" />
    <glyph glyph-name="eight" unicode="8" horiz-adv-x="1042" 
d="M231 1032q0 157 116 263t290 106q137 0 227 -82.5t90 -210.5q0 -226 -252 -406q201 -141 201 -311q0 -83 -32 -159t-90.5 -134t-148 -92.5t-196.5 -34.5q-159 0 -258.5 84.5t-99.5 223.5q0 138 83 255.5t238 206.5q-168 126 -168 291zM575 780q15 -9 33 -18
q207 146 207 330q0 87 -52.5 135.5t-146.5 48.5q-81 0 -141 -37q-46 -32 -74 -84.5t-28 -116.5q0 -82 51.5 -141.5t150.5 -116.5zM453 96q117 0 198 51q109 81 109 226q0 52 -20 97t-59 82.5t-79.5 65t-99.5 60.5q-4 4 -8 4q-129 -82 -203 -173.5t-74 -203.5q0 -101 66 -155
t170 -54z" />
    <glyph glyph-name="nine" unicode="9" horiz-adv-x="1003" 
d="M487 670q145 0 285 127q8 71 8 153q0 147 -54 233.5t-161 86.5q-100 0 -172 -56q-51 -51 -80.5 -131.5t-31.5 -171.5q0 -110 54.5 -175.5t151.5 -65.5zM303 -23q-123 0 -192 43l45 109q65 -25 137 -25q96 0 176 41q106 62 177.5 204.5t105.5 320.5h-2
q-130 -117 -295 -117q-141 0 -227.5 97t-86.5 249q1 98 32.5 187.5t87.5 159t139 110.5t180 41q160 0 251 -125t91 -320q0 -74 -9.5 -158.5t-32.5 -179.5t-56 -184.5t-83.5 -172t-112 -144.5t-145.5 -99t-180 -37z" />
    <glyph glyph-name="colon" unicode=":" horiz-adv-x="497" 
d="M178 774q0 52 31.5 87.5t85.5 35.5q42 0 65 -23t23 -59q0 -55 -33.5 -90t-83.5 -35q-41 0 -64.5 23.5t-23.5 60.5zM80 61q0 52 32 88.5t87 36.5q42 0 65 -23t23 -59q0 -56 -33.5 -91.5t-83.5 -35.5q-43 0 -66.5 23.5t-23.5 60.5z" />
    <glyph glyph-name="semicolon" unicode=";" horiz-adv-x="499" 
d="M168 774q0 52 32 87.5t87 35.5q42 0 65 -23t23 -59q0 -55 -33.5 -90t-83.5 -35q-43 0 -66.5 23.5t-23.5 60.5zM291 143q-18 -131 -89.5 -245.5t-191.5 -190.5l-51 68q89 76 134 164t59 196q3 22 8 141l135 11q6 -66 -4 -144z" />
    <glyph glyph-name="less" unicode="&#x3c;" 
d="M182 582l731 358l52 -104l-633 -316l534 -313l-63 -101l-635 359z" />
    <glyph glyph-name="equal" unicode="=" 
d="M207 709h749l-14 -109h-749zM172 446h750l-15 -110h-749z" />
    <glyph glyph-name="greater" unicode="&#x3e;" 
d="M934 465l-729 -359l-53 105l634 319l-534 312l61 98l637 -358z" />
    <glyph glyph-name="question" unicode="?" horiz-adv-x="786" 
d="M772 1149q0 116 -77.5 184t-213.5 68q-168 0 -327 -101l49 -96q156 76 280 78q73 -4 110.5 -43t37.5 -104q0 -47 -15 -91.5t-47 -86.5t-55.5 -68t-64.5 -66q-47 -45 -79 -80.5t-66 -86t-52.5 -109t-20.5 -125.5q-2 -26 5 -70l112 -4q0 36 10 84q8 55 25.5 101t49 88
t55.5 68.5t69 70.5q39 39 59 60t55 65t53 79t33 85t15 100zM168 61q0 52 32 88.5t85 36.5q42 0 65 -23t23 -59q0 -56 -33.5 -91.5t-83.5 -35.5q-41 0 -64.5 23.5t-23.5 60.5z" />
    <glyph glyph-name="at" unicode="@" horiz-adv-x="1538" 
d="M440 393q0 129 49.5 241t142 181.5t206.5 69.5q140 0 247 -84l-69 -527v-47q131 19 203.5 142.5t72.5 324.5q0 176 -105 280t-323 105q-188 0 -335 -93.5t-226.5 -257.5t-79.5 -372q0 -223 115 -341.5t311 -120.5q152 0 307 63l39 -94q-167 -89 -358 -86q-159 1 -281 65
t-193 193.5t-71 308.5t58.5 336.5t161 271.5t250 179.5t317.5 64.5q132 -1 236.5 -38t172 -103t102.5 -155.5t35 -197.5q0 -149 -41.5 -266t-112 -187t-158.5 -104.5t-187 -31.5l-19 106q-130 -117 -250 -117q-109 0 -163 80t-54 211zM688 209q94 0 217 113l58 432
q-72 28 -134 28q-56 0 -118 -30q-62 -46 -102 -141t-40 -208q0 -194 119 -194z" />
    <glyph glyph-name="A" unicode="A" horiz-adv-x="1103" 
d="M639 1214l-303 -696h424l-72 438l-43 258h-6zM573 1368l170 8l234 -1331q4 -36 4 -45h-137l-66 399h-495l-174 -399h-138q0 17 15 47z" />
    <glyph glyph-name="B" unicode="B" horiz-adv-x="1110" 
d="M289 1362q44 11 133 22t176 11q67 -1 124.5 -11t108.5 -33t87.5 -57.5t57.5 -85.5t21 -116q0 -66 -25 -134.5t-83 -133t-139 -95.5q106 -27 171.5 -105.5t65.5 -195.5q0 -65 -18 -127t-60 -121t-103 -104t-154.5 -72t-207.5 -27q-169 0 -333 29zM578 1274q-64 0 -164 -17
l-64 -479h154q129 0 209 39q67 38 106 105.5t39 144.5q0 60 -21.5 102t-62 64t-88 31.5t-108.5 9.5zM459 98q142 0 243 56q66 48 105 117.5t39 152.5q0 108 -78.5 173t-230.5 65q-33 0 -101.5 -1.5t-101.5 -1.5l-72 -548q83 -13 197 -13z" />
    <glyph glyph-name="C" unicode="C" horiz-adv-x="1069" 
d="M111 506q0 114 23.5 233t76 237.5t127.5 211t187.5 150t246.5 57.5q177 0 315 -101l-61 -102q-120 76 -264 76q-159 0 -270 -99q-114 -112 -176 -291.5t-62 -357.5q0 -189 84.5 -302.5t257.5 -113.5q151 0 307 70l39 -104q-83 -45 -169.5 -69t-203.5 -24
q-152 0 -257 70.5t-153 187.5t-48 271z" />
    <glyph glyph-name="D" unicode="D" horiz-adv-x="1245" 
d="M289 1362q168 33 350 33q241 0 381.5 -154.5t140.5 -406.5q0 -116 -26.5 -234t-85 -230.5t-141.5 -199.5t-205.5 -140t-268.5 -53q-181 0 -323 31zM1016 815q0 211 -101 333t-288 122q-100 0 -213 -17l-152 -1138q83 -13 172 -13q177 0 297 84q138 101 211.5 277.5
t73.5 351.5z" />
    <glyph glyph-name="E" unicode="E" horiz-adv-x="1007" 
d="M289 1372h717l-19 -121h-573l-64 -489h463l-14 -119h-465l-68 -522h570l-7 -121h-720z" />
    <glyph glyph-name="F" unicode="F" horiz-adv-x="987" 
d="M289 1372h717l-19 -121h-573l-70 -532h465l-14 -121h-467l-78 -598h-141z" />
    <glyph glyph-name="G" unicode="G" horiz-adv-x="1157" 
d="M901 672h137l-77 -598h-3q-98 -48 -186 -72.5t-194 -24.5q-117 0 -207 40.5t-146.5 113.5t-85 168.5t-28.5 210.5q1 96 18 196t51 200t89 187.5t125.5 155t167.5 107t208 39.5q185 0 332 -103l-62 -102q-127 78 -276 78q-162 0 -270 -99q-120 -116 -180 -294t-60 -351
q0 -91 18.5 -165t57.5 -133.5t108.5 -92.5t163.5 -33q112 0 227 41z" />
    <glyph glyph-name="H" unicode="H" horiz-adv-x="1259" 
d="M1038 1372h140l-181 -1372h-139l84 641h-608l-84 -641h-141l180 1372h141l-80 -612h608z" />
    <glyph glyph-name="I" unicode="I" horiz-adv-x="512" 
d="M289 1372h141l-180 -1372h-141z" />
    <glyph glyph-name="J" unicode="J" horiz-adv-x="520" 
d="M297 1372h141l-176 -1333q-30 -242 -129.5 -364.5t-298.5 -139.5l-20 113q152 23 218 116.5t93 303.5z" />
    <glyph glyph-name="K" unicode="K" horiz-adv-x="1093" 
d="M997 1372h148q-5 -31 -47 -76l-506 -510l311 -647q46 -93 58 -139h-142l-250 530l-75 158l-183 -182l-65 -506h-137l180 1372h137l-90 -682z" />
    <glyph glyph-name="L" unicode="L" horiz-adv-x="919" 
d="M289 1372h141l-164 -1251h547l-4 -121h-700z" />
    <glyph glyph-name="M" unicode="M" horiz-adv-x="1550" 
d="M1192 1372h184l-12 -1288q0 -16 -1 -43.5t-1 -40.5h-137l16 942l12 242h-6l-471 -1184h-155l-136 940l-24 244h-6l-281 -1184h-133q2 16 16 82l320 1290h182l137 -973l21 -215h6z" />
    <glyph glyph-name="N" unicode="N" horiz-adv-x="1286" 
d="M289 1372h155l422 -1018l62 -176h2l18 225l127 969h131l-182 -1372h-150l-428 1030l-57 166h-4l-18 -217l-127 -979h-131z" />
    <glyph glyph-name="O" unicode="O" horiz-adv-x="1269" 
d="M113 514q0 158 46.5 316t127.5 285t202 206.5t259 79.5q210 0 323 -150.5t113 -396.5q0 -128 -28.5 -256t-84 -240t-130.5 -199t-175.5 -137.5t-212.5 -50.5q-142 0 -242.5 71t-149 192t-48.5 280zM1040 848q0 198 -79.5 313t-229.5 115q-104 0 -225 -84
q-117 -104 -184.5 -291.5t-67.5 -380.5q0 -200 80.5 -312t236.5 -112q111 0 222 84q114 102 180.5 290t66.5 378z" />
    <glyph glyph-name="P" unicode="P" horiz-adv-x="1048" 
d="M473 637q126 0 223 53q86 48 134.5 142.5t48.5 195.5q0 244 -301 244q-58 0 -162 -17l-80 -606q58 -12 137 -12zM289 1362q157 33 305 33q193 0 309.5 -90.5t116.5 -260.5q0 -80 -22 -156t-67.5 -144t-109.5 -119t-155 -81t-197 -30q-75 0 -150 14l-69 -528h-141z" />
    <glyph glyph-name="Q" unicode="Q" horiz-adv-x="1269" 
d="M113 514q0 158 46.5 316t127.5 285t202 206.5t259 79.5q210 0 323 -150.5t113 -396.5q0 -144 -36.5 -286t-102 -261t-164 -205.5t-213.5 -115.5q45 -108 112 -153.5t170 -45.5q74 0 125 14l23 -106q-75 -31 -176 -31q-133 0 -230.5 77.5t-146.5 229.5q-139 2 -238 73.5
t-146.5 191.5t-47.5 278zM1040 848q0 198 -79.5 313t-229.5 115q-104 0 -225 -84q-117 -104 -184.5 -291.5t-67.5 -380.5q0 -200 80.5 -312t236.5 -112q111 0 222 84q114 102 180.5 290t66.5 378z" />
    <glyph glyph-name="R" unicode="R" horiz-adv-x="1081" 
d="M475 694q138 0 232 47q84 47 128 124.5t44 172.5q0 119 -74.5 176.5t-226.5 57.5q-60 0 -164 -17l-72 -550q68 -11 133 -11zM289 1362q157 33 303 33q204 0 316 -89t112 -253q0 -150 -85.5 -269t-232.5 -174l170 -485q29 -81 37 -125h-143l-193 578q-47 -9 -94 -9
q-80 0 -153 15l-76 -584h-139z" />
    <glyph glyph-name="S" unicode="S" horiz-adv-x="1009" 
d="M186 1030q0 173 127 272t326 99q94 0 183.5 -23t146.5 -57l-54 -109q-124 62 -286 62q-170 0 -260 -107q-41 -58 -41 -129q0 -50 19 -92t59.5 -78.5t76.5 -61t95 -58.5q65 -36 109 -66t94 -77t76 -106.5t26 -129.5q0 -182 -125 -290t-326 -108q-115 0 -221 34.5
t-180 94.5l63 107q69 -51 160 -80t180 -29q93 0 167 35.5t112 95.5q32 59 32 125q-1 52 -20.5 95t-62.5 81t-84 64t-111 65q-62 35 -107 69t-87.5 79.5t-64.5 101.5t-22 121z" />
    <glyph glyph-name="T" unicode="T" horiz-adv-x="1040" 
d="M141 1372h944l-16 -121h-395l-164 -1251h-141l166 1251h-396z" />
    <glyph glyph-name="U" unicode="U" horiz-adv-x="1214" 
d="M1006 1372h141l-119 -880q-15 -118 -48.5 -209t-91.5 -163.5t-149 -110.5t-211 -38q-61 0 -113.5 12t-90.5 34.5t-68.5 52.5t-50.5 67t-32.5 77t-17.5 83.5t-5 85.5t6 84l120 905h140l-117 -880q-58 -396 246 -396q132 0 217 74q48 46 80 122.5t43 164.5z" />
    <glyph glyph-name="V" unicode="V" horiz-adv-x="1101" 
d="M1016 1372h141q-6 -21 -16 -47t-17.5 -43.5t-22.5 -51t-22 -50.5l-518 -1176l-174 -8l-205 1180q-30 175 -32 196h141l158 -962l40 -252h5z" />
    <glyph glyph-name="W" unicode="W" horiz-adv-x="1710" 
d="M1614 1372h139q-15 -52 -63 -174l-476 -1194l-178 -8l-84 997l-8 203l-6 -2l-440 -1190l-176 -8l-129 1194q-16 143 -19 182h137l101 -989l18 -207h6l441 1196h178l78 -989l12 -207h8z" />
    <glyph glyph-name="X" unicode="X" horiz-adv-x="1083" 
d="M195 1372h139l188 -457l49 -114h2l404 571h147q-7 -21 -51 -82l-428 -596l262 -590q27 -59 37 -104h-141l-207 492l-51 114h-4l-422 -606h-148q8 20 64 102l434 615l-242 563q-25 54 -32 92z" />
    <glyph glyph-name="Y" unicode="Y" horiz-adv-x="1001" 
d="M926 1372h143q-17 -39 -80 -137l-426 -674l-71 -561h-140l74 575l-236 664q-41 114 -45 133h140l172 -495l57 -168z" />
    <glyph glyph-name="Z" unicode="Z" horiz-adv-x="1062" 
d="M219 1372h838l8 -119l-893 -1132h731l-2 -121h-887l-4 121l887 1130h-680z" />
    <glyph glyph-name="bracketleft" unicode="[" horiz-adv-x="718" 
d="M516 -434h-459l15 119h2l248 1921l16 118h459l-15 -108l-319 -6l-252 -1929l319 -7z" />
    <glyph glyph-name="backslash" unicode="\" horiz-adv-x="1157" 
d="M1026 -141l-111 -56l-772 1598l111 53z" />
    <glyph glyph-name="bracketright" unicode="]" horiz-adv-x="718" 
d="M-45 -326l319 7l252 1929l-319 6l14 108h459l-14 -118h-2l-248 -1921l-17 -119h-458z" />
    <glyph glyph-name="asciicircum" unicode="^" horiz-adv-x="870" 
d="M502 1366l84 6l209 -483l-97 -55l-168 364l-284 -356l-84 63z" />
    <glyph glyph-name="underscore" unicode="_" horiz-adv-x="966" 
d="M-94 -190l14 110h967l-15 -110h-966z" />
    <glyph glyph-name="grave" unicode="`" horiz-adv-x="817" 
d="M664 1157l-342 311l-78 -96l2 -8l358 -277z" />
    <glyph glyph-name="a" unicode="a" horiz-adv-x="962" 
d="M338 96q125 6 297 174l76 557q-84 33 -158 33q-60 0 -109 -22q-102 -58 -162.5 -193t-60.5 -303q0 -107 29 -174.5t88 -71.5zM82 319q0 180 62.5 331t177.5 241t258 90q132 0 274 -94l-78 -565q-15 -155 -24 -316l-115 -12l-6 156q-173 -177 -330 -177q-76 0 -126.5 50
t-71.5 125t-21 171z" />
    <glyph glyph-name="b" unicode="b" horiz-adv-x="970" 
d="M279 1534l137 4l-97 -723q174 166 320 166q76 0 127.5 -49t74 -125t23.5 -174q1 -177 -59.5 -326t-176.5 -239.5t-263 -90.5q-75 0 -157 19t-126 41zM393 98q92 0 162 54q78 71 124 190.5t46 267.5q0 107 -30 176t-87 72q-67 -3 -149.5 -55.5t-157.5 -128.5l-72 -551
q91 -25 164 -25z" />
    <glyph glyph-name="c" unicode="c" horiz-adv-x="831" 
d="M84 340q-1 129 36 247t99.5 203.5t150.5 136t185 50.5q141 0 242 -113l-64 -92q-96 84 -205 84q-47 0 -94 -20q-95 -53 -153 -183.5t-58 -302.5q0 -233 148 -252q117 0 278 84l45 -96q-174 -109 -323 -109q-140 0 -212.5 99.5t-74.5 263.5z" />
    <glyph glyph-name="d" unicode="d" horiz-adv-x="970" 
d="M340 96q125 5 297 174l74 555q-84 35 -160 35q-60 0 -109 -22q-101 -58 -161 -193t-60 -303q0 -107 30 -174.5t89 -71.5zM82 319q-1 179 60.5 330t175.5 241.5t257 90.5q70 0 152 -29l76 582l137 4l-160 -1206q-11 -88 -24 -326l-115 -12l-6 158q-179 -179 -330 -179
q-56 0 -100 28.5t-70 78t-39 110t-14 129.5z" />
    <glyph glyph-name="e" unicode="e" horiz-adv-x="915" 
d="M84 340q0 173 61.5 319t175 234t254.5 88q120 0 189.5 -61t69.5 -168q0 -67 -26.5 -121t-74.5 -90.5t-106.5 -62.5t-130 -41t-137 -22t-136.5 -9q-2 -14 -2 -44q0 -111 36.5 -181.5t107.5 -82.5q156 3 337 119l50 -90q-91 -70 -192 -110t-195 -40q-134 0 -207.5 100
t-73.5 263zM385 809q-113 -110 -149 -301q464 14 464 227q0 64 -39.5 97.5t-105.5 33.5q-93 0 -170 -57z" />
    <glyph glyph-name="f" unicode="f" horiz-adv-x="612" 
d="M113 952h139l33 271q18 148 101 242t218 94q116 -3 203 -68l-53 -92q-71 39 -152 39q-66 0 -113 -35q-54 -57 -69 -182l-33 -269h215l-12 -106h-215l-162 -1338h-135l162 1338h-142z" />
    <glyph glyph-name="g" unicode="g" horiz-adv-x="958" 
d="M338 96q60 1 141 50.5t160 127.5l70 549q-75 37 -160 37q-59 0 -109 -22q-99 -57 -159 -190.5t-60 -299.5q0 -111 28.5 -179.5t88.5 -72.5zM82 319q-1 181 61.5 332.5t176.5 240.5t255 89q128 0 277 -94l-115 -879q-16 -120 -46.5 -211t-82 -163.5t-131 -110
t-184.5 -37.5q-143 0 -273 70l50 110q121 -57 237 -57q102 0 166 45q56 57 84.5 143t44.5 203l19 139q-173 -166 -318 -166q-109 0 -164 95.5t-57 250.5z" />
    <glyph glyph-name="h" unicode="h" horiz-adv-x="1005" 
d="M285 1534l137 4l-103 -762q87 93 182.5 149t186.5 56q69 0 112 -25t59 -69t18.5 -104.5t-9.5 -131.5l-86 -651h-137l82 604q4 35 5.5 50.5t4 45t2 43.5t-2 35.5t-7 32t-13.5 23t-20.5 18.5t-29.5 8q-82 -4 -181 -67.5t-184 -159.5l-84 -633h-135z" />
    <glyph glyph-name="i" unicode="i" horiz-adv-x="448" 
d="M207 950l135 6l-125 -956h-135zM213 1208q0 51 34 84t81 33q39 0 59.5 -20.5t20.5 -55.5q0 -52 -33 -84t-80 -32q-39 0 -60.5 21t-21.5 54z" />
    <glyph glyph-name="j" unicode="j" horiz-adv-x="448" 
d="M205 950l137 6l-123 -946q-23 -174 -100 -290.5t-207 -208.5l-64 77q100 92 159.5 192t78.5 240zM211 1208q0 51 34 84t81 33q39 0 59.5 -20.5t20.5 -55.5q0 -52 -33 -84t-80 -32q-39 0 -60.5 21t-21.5 54z" />
    <glyph glyph-name="k" unicode="k" horiz-adv-x="901" 
d="M285 1534l135 4l-139 -1057l454 471h142q0 -30 -54 -80l-342 -340l269 -448q32 -58 32 -84h-137l-256 444l-129 -112l-43 -332h-135z" />
    <glyph glyph-name="l" unicode="l" horiz-adv-x="481" 
d="M240 -23q-79 0 -115 50t-25 145l181 1362l135 4l-178 -1345q-6 -51 5.5 -74t43.5 -23q28 0 75 15l23 -99q-73 -35 -145 -35z" />
    <glyph glyph-name="m" unicode="m" horiz-adv-x="1531" 
d="M193 948l114 10l4 -196q188 219 371 219q102 0 140.5 -55t35.5 -158q190 213 369 213q64 0 104 -24t55 -66t17.5 -99t-8.5 -122l-88 -670h-136l82 629q4 32 6 49t4.5 42.5t2 39t-2 32t-7 28t-13 19.5t-19.5 15t-28 6q-158 -11 -350 -231l-82 -629h-135l82 627
q6 47 8.5 74.5t1.5 61t-7.5 51t-21.5 31t-39 15.5q-76 -3 -168 -65.5t-180 -161.5l-84 -633h-135l72 559q12 86 35 389z" />
    <glyph glyph-name="n" unicode="n" horiz-adv-x="1009" 
d="M193 948l114 10l4 -198q88 99 187 160t194 61q69 0 112 -25t59 -69t18.5 -104.5t-9.5 -131.5l-86 -651h-135l80 608q7 50 9.5 78t2.5 64.5t-7 56t-23.5 35t-42.5 18.5q-83 -4 -179 -67t-186 -162l-84 -631h-135l72 559q12 86 35 389z" />
    <glyph glyph-name="o" unicode="o" horiz-adv-x="989" 
d="M84 365q0 106 33 214t92 198t150.5 147t197.5 57q162 0 245 -110.5t81 -286.5q-1 -107 -34.5 -215t-93 -197t-150.5 -145t-197 -56q-157 0 -241.5 108.5t-82.5 285.5zM743 580q2 129 -48.5 204.5t-157.5 75.5q-80 3 -146 -49q-77 -68 -122.5 -187.5t-47.5 -254.5
q0 -125 53 -201t154 -76q84 0 147 47q76 72 122 190t46 251z" />
    <glyph glyph-name="p" unicode="p" horiz-adv-x="974" 
d="M397 94q52 0 111 23q101 58 161 193t60 302q0 107 -30.5 174.5t-90.5 71.5q-129 -6 -299 -176l-73 -551q78 -37 161 -37zM868 633q0 -179 -62 -329t-176 -240.5t-257 -90.5q-77 0 -154 31l-65 -496h-134l148 1113q14 120 25 327l114 10l4 -155q178 178 328 178
q59 0 104 -28t71.5 -77.5t39.5 -110t14 -132.5z" />
    <glyph glyph-name="q" unicode="q" horiz-adv-x="958" 
d="M82 317q0 188 64.5 339.5t177 237t251.5 85.5q143 0 277 -92l-180 -1379h-133l82 629q-172 -164 -312 -164q-113 0 -169 96.5t-58 247.5zM338 96q60 3 141 52t160 126l70 545q-80 37 -160 37q-95 0 -164 -59q-76 -72 -120 -191t-44 -262q0 -106 29 -175t88 -73z" />
    <glyph glyph-name="r" unicode="r" horiz-adv-x="708" 
d="M193 948l114 10l4 -233q141 250 303 250q60 0 107 -31l-43 -123q-30 15 -76 15q-139 0 -307 -281l-74 -555h-135l74 563q17 141 33 385z" />
    <glyph glyph-name="s" unicode="s" horiz-adv-x="792" 
d="M137 715q0 120 90 190t230 70q155 0 258 -90l-62 -97q-101 70 -207 70q-86 0 -133 -37q-41 -38 -41 -94q0 -12 2.5 -24t6 -21t11.5 -20.5t12.5 -18.5t17.5 -18t18.5 -16t21.5 -17t21 -15.5t24 -16t23 -15.5q46 -29 73 -47.5t61 -47.5t52 -55t30 -62.5t11 -76.5
q-3 -127 -98.5 -203t-239.5 -76q-169 0 -290 111l65 96q115 -92 236 -92q84 0 143 45q47 41 47 107q1 25 -9 48.5t-22 40t-41.5 40.5t-48.5 37.5t-63 42.5q-45 29 -73 51t-61 55.5t-49 72t-16 83.5z" />
    <glyph glyph-name="t" unicode="t" horiz-adv-x="688" 
d="M90 846l12 98l152 8l70 281l100 2l-37 -283h287l-12 -106h-289l-82 -623q-8 -62 3.5 -92.5t47.5 -30.5q42 0 100.5 22t106.5 52l37 -90q-58 -43 -136 -75t-153 -32q-85 0 -121 61t-22 173l84 635h-148z" />
    <glyph glyph-name="u" unicode="u" horiz-adv-x="995" 
d="M778 6l-114 -12l-5 194q-84 -96 -180 -156.5t-190 -60.5q-83 0 -128 40.5t-53 111t3 164.5l88 663l135 6l-82 -634q-18 -100 -6 -163.5t69 -66.5q77 4 172 68.5t179 158.5l84 633h137l-74 -557q-21 -196 -35 -389z" />
    <glyph glyph-name="v" unicode="v" horiz-adv-x="884" 
d="M711 952h127v-39q0 -153 -124.5 -408t-334.5 -503l-121 -4l-139 870q-8 57 -4 84h131l92 -643l18 -153h6q326 454 349 796z" />
    <glyph glyph-name="w" unicode="w" horiz-adv-x="1363" 
d="M119 868q-9 44 -6 84h133l92 -641l22 -155h7q186 260 288 567q-31 174 -28 229h133l94 -651l20 -145h7q282 407 305 796h129q0 -2 0.5 -21.5t-0.5 -19.5q-2 -78 -26 -176t-71 -215.5t-129.5 -253.5t-189.5 -264l-123 -4l-80 530h-6q-126 -306 -305 -526l-125 -4z" />
    <glyph glyph-name="x" unicode="x" horiz-adv-x="851" 
d="M125 952h137l115 -256l53 -125h2q116 135 175 222t71 159h131q-14 -159 -315 -475l194 -387q27 -50 27 -90h-129l-135 285l-54 118l-2 3q-168 -194 -256 -406h-133q26 101 121.5 243t200.5 255l-176 368q-27 56 -27 86z" />
    <glyph glyph-name="y" unicode="y" horiz-adv-x="903" 
d="M-51 -506q-31 0 -55 4l18 119q110 3 213 92.5t219 284.5h-25l-208 874q-10 49 -5 84h132l141 -643l37 -174h8q277 480 291 817h129v-39q0 -114 -65.5 -310t-196.5 -437q-191 -352 -338.5 -512t-294.5 -160z" />
    <glyph glyph-name="z" unicode="z" horiz-adv-x="827" 
d="M158 952h618q0 -52 -14 -90t-49 -82l-529 -674h490l-12 -106h-646q1 60 15.5 95.5t58.5 90.5l516 662h-463z" />
    <glyph glyph-name="braceleft" unicode="{" horiz-adv-x="739" 
d="M299 977q8 67 20 190t19 179q46 366 459 395l18 -103q-152 -27 -236 -94t-102 -211q-8 -68 -19.5 -185t-17.5 -171q-6 -46 -11.5 -75.5t-15.5 -67.5t-25 -63t-37.5 -51t-55.5 -44t-76 -29q39 -14 67 -35t43 -49.5t23 -55.5t7.5 -66.5t-3 -68.5t-8.5 -75q-8 -60 -26 -167
t-27 -169q-12 -95 18.5 -160.5t88.5 -99.5t147 -53l-27 -103q-86 10 -155 37.5t-122.5 76.5t-76.5 127t-10 179q7 53 27 168.5t28 185.5q5 38 7 59.5t2 53.5t-5 51.5t-16.5 42.5t-31 37t-50 26.5t-70.5 18.5q8 63 12 90q49 6 86 18.5t61.5 34t40 42t25.5 55t14.5 60
t10.5 69.5z" />
    <glyph glyph-name="bar" unicode="|" horiz-adv-x="512" 
d="M190 -442h-137l287 2183h137z" />
    <glyph glyph-name="braceright" unicode="}" horiz-adv-x="739" 
d="M457 311q-8 -68 -20 -191t-19 -179q-46 -367 -459 -396l-18 105q152 27 236 94t102 209q8 69 19 186t17 172q7 54 14 89t22.5 78t38 70.5t59.5 53t88 39.5q-39 14 -67 34.5t-43 49t-23 55t-7.5 66.5t3 69t8.5 76q8 58 26 164.5t27 171.5q12 95 -18.5 160.5t-88.5 99.5
t-147 53l26 103q68 -8 125.5 -27t108 -52.5t82.5 -79.5t46 -113t3 -148q-7 -53 -26 -168.5t-27 -185.5q-5 -37 -7.5 -60t-3 -54.5t5 -51t17 -42.5t30.5 -37.5t49.5 -26t70.5 -17.5q-9 -63 -13 -92q-59 -7 -100.5 -26t-64.5 -40.5t-38.5 -60.5t-21 -68t-12.5 -82z" />
    <glyph glyph-name="asciitilde" unicode="~" horiz-adv-x="1034" 
d="M127 457q46 80 115.5 131t150.5 51q45 0 83 -18.5t60 -41t53 -43.5t62 -24q87 5 172 129l74 -43q-39 -84 -106 -138t-148 -54q-38 0 -69.5 12t-53.5 29.5t-42 35.5t-45 32t-52 17q-53 -4 -95 -36.5t-83 -85.5z" />
    <glyph glyph-name="uni00A0" unicode="&#xa0;" horiz-adv-x="401" 
 />
    <glyph glyph-name="exclamdown" unicode="&#xa1;" horiz-adv-x="489" 
d="M43 -422l152 1026h114l-116 -1026h-150zM387 889q0 -52 -32 -88.5t-87 -36.5q-42 0 -65 23t-23 59q0 56 33.5 91.5t83.5 35.5q43 0 66.5 -23.5t23.5 -60.5z" />
    <glyph glyph-name="cent" unicode="&#xa2;" horiz-adv-x="935" 
d="M367 -188l22 168q-145 9 -222 110.5t-77 255.5q0 147 51.5 281.5t150.5 229t226 114.5l23 170h116l-22 -168q77 -8 136 -40.5t93 -68.5l-61 -94q-85 66 -185 80l-96 -737q92 20 191 71l45 -96q-115 -78 -252 -102l-23 -174h-116zM231 352q0 -107 47 -172.5t128 -77.5
l96 744q-37 -8 -76 -31q-82 -60 -138.5 -183.5t-56.5 -279.5z" />
    <glyph glyph-name="sterling" unicode="&#xa3;" horiz-adv-x="1015" 
d="M150 748h149q17 125 38 217t56 177.5t82 138.5t117 84.5t160 31.5q151 0 249 -90l-63 -90q-83 55 -197 55q-74 0 -135 -39q-66 -52 -102.5 -168t-63.5 -317h277l-15 -119h-280q-61 -339 -209 -510h627v-119h-799l-6 113q88 77 148 192.5t98 323.5h-148z" />
    <glyph glyph-name="currency" unicode="&#xa4;" horiz-adv-x="1062" 
d="M852 565q0 -115 -64 -207l138 -147l-74 -72l-131 146q-85 -66 -199 -66q-109 0 -190 62l-123 -142l-78 72l129 141q-65 94 -65 213t67 211l-131 127l78 72l125 -125q83 57 188 57q113 0 195 -63l135 131l74 -72l-138 -133q64 -92 64 -205zM303 565q0 -98 60 -168.5
t159 -70.5t159 70.5t60 168.5q0 97 -60 166.5t-159 69.5t-159 -69.5t-60 -166.5z" />
    <glyph glyph-name="yen" unicode="&#xa5;" horiz-adv-x="1089" 
d="M885 287h-322l-37 -287h-139l37 287h-309l14 106h309l21 168h-307l14 107h280l-213 549q-35 80 -53 155h137l158 -428l74 -192l412 620h141q-25 -59 -92 -155l-371 -549h297l-14 -107h-324l-20 -168h321z" />
    <glyph glyph-name="brokenbar" unicode="&#xa6;" horiz-adv-x="509" 
d="M174 489h137l-121 -931h-139zM352 809h-137l123 932h137z" />
    <glyph glyph-name="section" unicode="&#xa7;" horiz-adv-x="892" 
d="M379 344q24 -15 88 -59q186 120 186 272q0 69 -33 119t-122 108q-23 14 -76 56q-186 -128 -186 -273q0 -67 31.5 -118t111.5 -105zM250 1118q0 127 90 205t238 78q93 0 164.5 -27t107.5 -59l-59 -96q-111 59 -211 59q-88 0 -140.5 -42t-52.5 -116q0 -28 10 -53.5
t25 -45.5t41.5 -43t51 -41t63.5 -44q8 -5 12 -8q107 -74 152.5 -145t45.5 -165q0 -207 -241 -358q98 -98 98 -205q0 -134 -90 -211t-233 -77q-86 0 -160.5 27.5t-120.5 62.5l61 98q113 -66 222 -66q85 0 133.5 42t48.5 114q0 65 -49 115.5t-154 118.5q-103 65 -154 139.5
t-51 171.5q0 61 20.5 115.5t58 99t77.5 77.5t92 66q-96 99 -96 213z" />
    <glyph glyph-name="dieresis" unicode="&#xa8;" horiz-adv-x="817" 
d="M254 1208q0 45 29.5 77t74.5 32q34 0 53 -19t19 -51q0 -45 -28.5 -76.5t-73.5 -31.5q-35 0 -54.5 19t-19.5 50zM584 1208q0 45 29 77t73 32q34 0 53 -19t19 -51q0 -45 -29 -76.5t-74 -31.5q-34 0 -52.5 18.5t-18.5 50.5z" />
    <glyph glyph-name="copyright" unicode="&#xa9;" horiz-adv-x="1548" 
d="M1448 686q0 181 -90 332.5t-241.5 238t-328.5 86.5q-133 0 -255 -51t-211 -138.5t-142 -209.5t-53 -258t53 -258.5t142 -210t211 -139t255 -51.5q177 0 328.5 87t241.5 239t90 333zM233 686q0 154 74.5 283.5t202.5 204.5t278 75t277.5 -75t201.5 -204.5t74 -283.5
t-74 -283.5t-201.5 -204.5t-277.5 -75t-278 75t-202.5 204.5t-74.5 283.5zM457 676q0 77 21.5 146t63 125.5t111 90t156.5 33.5q79 0 136 -28.5t89 -69.5l-57 -62q-75 60 -162 60q-97 0 -158 -58q-82 -82 -82 -225q0 -126 59.5 -204t186.5 -78q82 0 178 49l37 -74
q-31 -27 -94 -50.5t-139 -23.5q-112 0 -191.5 50t-117 132t-37.5 187z" />
    <glyph glyph-name="ordfeminine" unicode="&#xaa;" horiz-adv-x="759" 
d="M352 827q76 6 172 95l45 319q-41 14 -88 14q-37 0 -69 -14q-58 -35 -90.5 -112t-32.5 -171q0 -125 63 -131zM166 940q-2 176 92 294t244 118q90 0 192 -58l-45 -338q-9 -70 -14 -206l-98 -13l-11 97q-111 -107 -209 -107q-72 0 -111.5 61t-39.5 152z" />
    <glyph glyph-name="guillemotleft" unicode="&#xab;" horiz-adv-x="974" 
d="M80 518l393 404l80 -74l-330 -359l236 -372l-97 -62l-286 422zM432 518l393 404l80 -74l-330 -359l236 -372l-96 -62l-287 422z" />
    <glyph glyph-name="logicalnot" unicode="&#xac;" 
d="M862 47l-119 2l56 418h-615l15 113h735z" />
    <glyph glyph-name="uni00AD" unicode="&#xad;" horiz-adv-x="708" 
d="M139 545h424l-14 -113h-424z" />
    <glyph glyph-name="registered" unicode="&#xae;" horiz-adv-x="1120" 
d="M1073 1069q0 -186 -133 -318.5t-322 -132.5t-321.5 132.5t-132.5 318.5q0 121 60.5 224t165 163t228.5 60t229 -60t165.5 -163t60.5 -224zM252 1069q0 -156 107 -263.5t259 -107.5t259.5 107.5t107.5 263.5q0 153 -108 260t-259 107t-258.5 -107t-107.5 -260zM584 1087
q52 0 80 11q55 26 55 71q0 80 -127 80q-33 0 -53 -2v-160h45zM461 1305q54 10 135 10q95 0 148 -34.5t53 -104.5q0 -44 -25.5 -80t-73.5 -56l93 -155q13 -27 18 -45h-84l-100 184q-12 -2 -37 -2h-49v-182h-78v465z" />
    <glyph glyph-name="macron" unicode="&#xaf;" horiz-adv-x="817" 
d="M270 1260h486l-17 -111h-483z" />
    <glyph glyph-name="degree" unicode="&#xb0;" horiz-adv-x="733" 
d="M377 1325q-39 -28 -63.5 -81.5t-24.5 -121.5q0 -74 30 -117.5t91 -43.5q52 0 96 30q35 29 57.5 81.5t22.5 117.5q0 72 -30.5 116t-90.5 44q-49 0 -88 -25zM399 870q-101 0 -161 69.5t-60 172.5q0 139 87 232.5t208 93.5q103 0 162 -69t59 -171q0 -137 -86.5 -232.5
t-208.5 -95.5z" />
    <glyph glyph-name="plusminus" unicode="&#xb1;" 
d="M453 227l45 322h-322l17 110h319l47 342h119l-47 -342h323l-16 -110h-322l-43 -322h-120zM113 0l16 113h770l-16 -113h-770z" />
    <glyph glyph-name="twosuperior" unicode="&#xb2;" horiz-adv-x="595" 
d="M186 1507q51 42 104.5 66t127.5 24q91 0 141.5 -53.5t50.5 -138.5q0 -59 -23 -116.5t-67.5 -111t-88 -94.5t-107.5 -92l-62 -47h291l-2 -96h-434v96l114 92q79 66 128 113.5t89.5 113.5t40.5 126q0 106 -96 106q-71 0 -160 -61z" />
    <glyph glyph-name="threesuperior" unicode="&#xb3;" horiz-adv-x="593" 
d="M193 1530q90 65 215 65q88 0 137 -42.5t49 -114.5q0 -66 -35.5 -118t-93.5 -83q108 -41 108 -156q0 -112 -76.5 -181t-199.5 -69q-111 0 -191 54l37 84q86 -37 158 -37q58 0 92 22q58 41 58 119q0 51 -37 79t-109 28h-49l6 90h49q66 0 114 40t48 101q0 38 -25 62t-73 24
q-70 0 -146 -41z" />
    <glyph glyph-name="acute" unicode="&#xb4;" horiz-adv-x="817" 
d="M801 1372l-80 96l-340 -311l59 -70l359 277z" />
    <glyph glyph-name="uni00B5" unicode="&#xb5;" horiz-adv-x="1187" 
d="M133 252l94 698l135 6l-75 -579q-15 -113 22 -194.5t115 -90.5q73 0 136.5 57.5t101.5 142.5t51 179l63 481h135l-86 -659q-13 -93 -6 -143.5t41 -57.5q54 0 154 84l55 -86q-112 -117 -223 -117q-79 0 -114.5 51.5t-29.5 163.5q-42 -95 -115.5 -156t-170.5 -61
q-127 0 -176 119q-32 -372 -9 -571l-135 -17q-25 270 37 750z" />
    <glyph glyph-name="paragraph" unicode="&#xb6;" horiz-adv-x="1116" 
d="M408 -449l127 967q-111 8 -195 41.5t-134.5 86.5t-75 117.5t-24.5 141.5q0 228 160 360t453 132q150 0 305 -37l-238 -1809h-129l228 1713q-56 10 -123 14l-227 -1727h-127z" />
    <glyph glyph-name="periodcentered" unicode="&#xb7;" horiz-adv-x="462" 
d="M133 504q0 52 31 85.5t76 33.5q38 0 57.5 -22t19.5 -58q0 -52 -30.5 -84.5t-75.5 -32.5q-36 0 -57 21t-21 57z" />
    <glyph glyph-name="cedilla" unicode="&#xb8;" horiz-adv-x="817" 
d="M207 -156l100 195l99 -31l-70 -127q12 2 37 2q76 0 123 -36.5t47 -102.5q0 -97 -101.5 -170.5t-285.5 -97.5l-23 86q273 58 283 184q-11 53 -103 53q-35 0 -71 -8z" />
    <glyph glyph-name="onesuperior" unicode="&#xb9;" horiz-adv-x="532" 
d="M182 1513l205 74l98 -4l-84 -639h121l-2 -96h-399l8 96h154l69 522l-149 -39z" />
    <glyph glyph-name="ordmasculine" unicode="&#xba;" horiz-adv-x="757" 
d="M164 971q0 64 21 130t59 122.5t100.5 92.5t138.5 36q111 0 168.5 -69.5t55.5 -178.5q0 -64 -21 -129.5t-60 -121t-101.5 -91t-137.5 -35.5q-107 0 -165 68t-58 176zM586 1104q0 156 -119 156q-49 0 -86 -29q-44 -39 -70 -111t-26 -149q0 -70 30.5 -111t90.5 -41
q46 0 86 29q44 41 69 110t25 146z" />
    <glyph glyph-name="guillemotright" unicode="&#xbb;" horiz-adv-x="974" 
d="M522 457l-391 -402l-82 72l330 360l-234 373l95 62l288 -422zM874 457l-391 -402l-82 72l330 360l-233 373l94 62l289 -422z" />
    <glyph glyph-name="onequarter" unicode="&#xbc;" horiz-adv-x="1646" 
d="M231 1268l238 73l100 -4l-86 -639h142l-4 -96h-455l8 96h191l69 525l-180 -41zM1415 1348l-1075 -1387l-84 66l1075 1386zM963 291l378 475l119 -2l-63 -477h96l-6 -94h-103l-22 -164h-115l23 164h-305zM1266 532l-193 -245h209l43 323h-2z" />
    <glyph glyph-name="onehalf" unicode="&#xbd;" horiz-adv-x="1646" 
d="M231 1268l238 73l100 -4l-86 -639h142l-4 -96h-455l8 96h191l69 525l-180 -41zM1415 1348l-1075 -1387l-84 66l1075 1386zM1061 688q106 90 229 90q92 0 142.5 -53.5t50.5 -138.5q0 -60 -22.5 -117t-67 -110t-88.5 -94.5t-107 -92.5l-61 -47h290l-2 -96h-436v96l117 92
q59 49 97.5 85t79 82.5t61 93t20.5 91.5q0 107 -98 107q-31 0 -61.5 -10t-49 -21t-47.5 -31z" />
    <glyph glyph-name="threequarters" unicode="&#xbe;" horiz-adv-x="1646" 
d="M236 1284q91 66 213 66q89 0 138.5 -43t49.5 -115q0 -66 -35.5 -118t-95.5 -83q110 -40 110 -155q0 -112 -77 -181t-199 -69q-111 0 -193 53l39 84q86 -37 158 -37q56 0 92 23q58 41 58 118q0 51 -37 79t-109 28h-49l6 90h49q66 0 114 40t48 101q0 38 -25 62t-73 24
q-68 0 -148 -41zM1415 1348l-1075 -1387l-84 66l1075 1386zM963 291l378 475l119 -2l-63 -477h96l-6 -94h-103l-22 -164h-115l23 164h-305zM1266 532l-193 -245h209l43 323h-2z" />
    <glyph glyph-name="questiondown" unicode="&#xbf;" horiz-adv-x="776" 
d="M-18 -197q0 -117 78 -185.5t214 -68.5q171 0 326 101l-47 96q-157 -76 -281 -76q-73 4 -110 42.5t-37 103.5q0 47 15 91t47 86.5t55 67.5t65 66q99 93 156 185t61 216q2 31 -4 70l-112 4q-1 -11 -11 -84q-12 -72 -44.5 -134.5t-64.5 -99.5t-91 -94q-37 -36 -59 -59
t-55.5 -65t-52.5 -78t-33.5 -85.5t-14.5 -99.5zM588 889q0 -52 -32 -87.5t-87 -35.5q-42 0 -65 23t-23 59q0 55 33.5 90t83.5 35q43 0 66.5 -23.5t23.5 -60.5z" />
    <glyph glyph-name="Agrave" unicode="&#xc0;" horiz-adv-x="1103" 
d="M639 1214l-303 -696h424l-72 438l-43 258h-6zM573 1368l170 8l234 -1331q4 -36 4 -45h-137l-66 399h-495l-174 -399h-138q0 17 15 47zM854 1616l-35 -90l-424 139v8l45 113z" />
    <glyph glyph-name="Aacute" unicode="&#xc1;" horiz-adv-x="1103" 
d="M639 1214l-303 -696h424l-72 438l-43 258h-6zM573 1368l170 8l234 -1331q4 -36 4 -45h-137l-66 399h-495l-174 -399h-138q0 17 15 47zM977 1673l-2 -8l-424 -139l-31 90l410 170z" />
    <glyph glyph-name="Acircumflex" unicode="&#xc2;" horiz-adv-x="1103" 
d="M639 1214l-303 -696h424l-72 438l-43 258h-6zM573 1368l170 8l234 -1331q4 -36 4 -45h-137l-66 399h-495l-174 -399h-138q0 17 15 47zM662 1796l98 8l192 -235l-75 -62l-177 181l-245 -179l-58 70z" />
    <glyph glyph-name="Atilde" unicode="&#xc3;" horiz-adv-x="1103" 
d="M639 1214l-303 -696h424l-72 438l-43 258h-6zM573 1368l170 8l234 -1331q4 -36 4 -45h-137l-66 399h-495l-174 -399h-138q0 17 15 47zM373 1569q29 48 51 79t51 62.5t61.5 46.5t69.5 15q35 0 66.5 -21.5t50.5 -48t42 -49.5t42 -25q31 3 63.5 40.5t71.5 103.5l82 -48
q-59 -106 -107 -156t-116 -50q-38 0 -71 21.5t-52 47.5t-41 49.5t-41 26.5q-33 -3 -67.5 -40t-77.5 -103z" />
    <glyph glyph-name="Adieresis" unicode="&#xc4;" horiz-adv-x="1103" 
d="M639 1214l-303 -696h424l-72 438l-43 258h-6zM573 1368l170 8l234 -1331q4 -36 4 -45h-137l-66 399h-495l-174 -399h-138q0 17 15 47zM424 1622q0 41 30 72.5t74 31.5q34 0 55 -19t21 -52q0 -42 -28.5 -73.5t-75.5 -31.5q-35 0 -55.5 19t-20.5 53zM760 1622q0 42 29 73
t75 31q33 0 53.5 -19t20.5 -52q0 -42 -28.5 -73.5t-73.5 -31.5q-36 0 -56 18.5t-20 53.5z" />
    <glyph glyph-name="Aring" unicode="&#xc5;" horiz-adv-x="1103" 
d="M639 1214l-303 -696h424l-72 438l-43 258h-6zM573 1368l170 8l234 -1331q4 -36 4 -45h-137l-66 399h-495l-174 -399h-138q0 17 15 47zM494 1653q0 93 67.5 161t177.5 68q83 0 131 -43t48 -117q0 -96 -66 -165.5t-178 -69.5q-82 0 -131 46t-49 120zM817 1712q0 84 -88 84
q-50 0 -86 -22q-24 -18 -37.5 -49.5t-13.5 -63.5q0 -88 92 -88q56 0 92 31q41 38 41 108z" />
    <glyph glyph-name="AE" unicode="&#xc6;" horiz-adv-x="1634" 
d="M723 983l-277 -438h363l92 706h-14zM817 1372h815l-18 -121h-574l-63 -489h463l-15 -119h-464l-68 -522h567l-4 -121h-719l56 428h-420l-269 -428h-143q0 17 19 47z" />
    <glyph glyph-name="Ccedilla" unicode="&#xc7;" horiz-adv-x="1071" 
d="M111 506q0 114 23.5 233t76 237.5t127.5 211t187.5 150t246.5 57.5q177 0 315 -101l-61 -102q-120 76 -264 76q-159 0 -270 -99q-114 -112 -176 -291.5t-62 -357.5q0 -189 84.5 -302.5t257.5 -113.5q151 0 307 70l39 -104q-155 -83 -326 -90l-55 -99q14 2 39 2
q75 0 121.5 -36.5t46.5 -102.5q0 -97 -100.5 -170.5t-284.5 -97.5l-25 86q277 59 283 184q-8 53 -100 53q-36 0 -72 -8l-35 53l70 138q-130 14 -220 87t-131.5 183.5t-41.5 253.5z" />
    <glyph glyph-name="Egrave" unicode="&#xc8;" horiz-adv-x="1007" 
d="M289 1372h717l-19 -121h-573l-64 -489h463l-14 -119h-465l-68 -522h570l-7 -121h-720zM840 1616l-35 -90l-424 139v8l45 113z" />
    <glyph glyph-name="Eacute" unicode="&#xc9;" horiz-adv-x="1007" 
d="M289 1372h717l-19 -121h-573l-64 -489h463l-14 -119h-465l-68 -522h570l-7 -121h-720zM963 1673l-2 -8l-424 -139l-31 90l409 170z" />
    <glyph glyph-name="Ecircumflex" unicode="&#xca;" horiz-adv-x="1007" 
d="M289 1372h717l-19 -121h-573l-64 -489h463l-14 -119h-465l-68 -522h570l-7 -121h-720zM647 1796l98 8l193 -235l-76 -62l-176 181l-246 -179l-57 70z" />
    <glyph glyph-name="Edieresis" unicode="&#xcb;" horiz-adv-x="1007" 
d="M289 1372h717l-19 -121h-573l-64 -489h463l-14 -119h-465l-68 -522h570l-7 -121h-720zM410 1622q0 41 30 72.5t74 31.5q34 0 55 -19t21 -52q0 -42 -29 -73.5t-76 -31.5q-34 0 -54.5 18.5t-20.5 53.5zM745 1622q0 41 29.5 72.5t75.5 31.5q33 0 53.5 -19t20.5 -52
q0 -42 -29 -73.5t-74 -31.5q-36 0 -56 18.5t-20 53.5z" />
    <glyph glyph-name="Igrave" unicode="&#xcc;" horiz-adv-x="512" 
d="M289 1372h141l-180 -1372h-141zM553 1616l-414 170l-45 -113v-8l424 -139z" />
    <glyph glyph-name="Iacute" unicode="&#xcd;" horiz-adv-x="512" 
d="M289 1372h141l-180 -1372h-141zM676 1673l-47 113l-410 -170l31 -90l424 139z" />
    <glyph glyph-name="Icircumflex" unicode="&#xce;" horiz-adv-x="512" 
d="M289 1372h141l-180 -1372h-141zM360 1796l99 8l192 -235l-76 -62l-176 181l-245 -179l-58 70z" />
    <glyph glyph-name="Idieresis" unicode="&#xcf;" horiz-adv-x="512" 
d="M289 1372h141l-180 -1372h-141zM123 1622q0 41 30 72.5t74 31.5q34 0 55 -19t21 -52q0 -42 -28.5 -73.5t-75.5 -31.5q-35 0 -55.5 19t-20.5 53zM459 1622q0 42 29 73t75 31q33 0 53.5 -19t20.5 -52q0 -42 -28.5 -73.5t-73.5 -31.5q-36 0 -56 18.5t-20 53.5z" />
    <glyph glyph-name="Eth" unicode="&#xd0;" horiz-adv-x="1267" 
d="M61 758h170l80 604q201 33 351 33q241 0 380.5 -155.5t139.5 -405.5q0 -115 -27 -232.5t-85.5 -230.5t-142 -200t-207 -140.5t-269.5 -53.5q-176 0 -318 31l84 637h-170zM1038 815q0 211 -100 333t-287 122q-100 0 -213 -17l-65 -495h321l-16 -113h-320l-71 -530
q80 -13 170 -13q177 0 301 88q91 67 156 178t94.5 225t29.5 222z" />
    <glyph glyph-name="Ntilde" unicode="&#xd1;" horiz-adv-x="1286" 
d="M289 1372h155l422 -1018l62 -176h2l18 225l127 969h131l-182 -1372h-150l-428 1030l-57 166h-4l-18 -217l-127 -979h-131zM465 1569q29 48 51 79t51 62.5t61.5 46.5t69.5 15q35 0 66.5 -21.5t50.5 -48t42 -49.5t42 -25q31 3 63.5 40.5t71.5 103.5l82 -48
q-59 -106 -107 -156t-116 -50q-38 0 -71 21.5t-52 47.5t-41 49.5t-41 26.5q-33 -3 -67.5 -40t-77.5 -103z" />
    <glyph glyph-name="Ograve" unicode="&#xd2;" horiz-adv-x="1269" 
d="M113 514q0 158 46.5 316t127.5 285t202 206.5t259 79.5q210 0 323 -150.5t113 -396.5q0 -128 -28.5 -256t-84 -240t-130.5 -199t-175.5 -137.5t-212.5 -50.5q-142 0 -242.5 71t-149 192t-48.5 280zM1040 848q0 198 -79.5 313t-229.5 115q-104 0 -225 -84
q-117 -104 -184.5 -291.5t-67.5 -380.5q0 -200 80.5 -312t236.5 -112q111 0 222 84q114 102 180.5 290t66.5 378zM940 1616l-414 170l-45 -113v-8l424 -139z" />
    <glyph glyph-name="Oacute" unicode="&#xd3;" horiz-adv-x="1269" 
d="M113 514q0 158 46.5 316t127.5 285t202 206.5t259 79.5q210 0 323 -150.5t113 -396.5q0 -128 -28.5 -256t-84 -240t-130.5 -199t-175.5 -137.5t-212.5 -50.5q-142 0 -242.5 71t-149 192t-48.5 280zM1040 848q0 198 -79.5 313t-229.5 115q-104 0 -225 -84
q-117 -104 -184.5 -291.5t-67.5 -380.5q0 -200 80.5 -312t236.5 -112q111 0 222 84q114 102 180.5 290t66.5 378zM1063 1673l-47 113l-410 -170l31 -90l424 139z" />
    <glyph glyph-name="Ocircumflex" unicode="&#xd4;" horiz-adv-x="1269" 
d="M113 514q0 158 46.5 316t127.5 285t202 206.5t259 79.5q210 0 323 -150.5t113 -396.5q0 -128 -28.5 -256t-84 -240t-130.5 -199t-175.5 -137.5t-212.5 -50.5q-142 0 -242.5 71t-149 192t-48.5 280zM1040 848q0 198 -79.5 313t-229.5 115q-104 0 -225 -84
q-117 -104 -184.5 -291.5t-67.5 -380.5q0 -200 80.5 -312t236.5 -112q111 0 222 84q114 102 180.5 290t66.5 378zM748 1796l98 8l192 -235l-75 -62l-177 181l-245 -179l-58 70z" />
    <glyph glyph-name="Otilde" unicode="&#xd5;" horiz-adv-x="1269" 
d="M113 514q0 158 46.5 316t127.5 285t202 206.5t259 79.5q210 0 323 -150.5t113 -396.5q0 -128 -28.5 -256t-84 -240t-130.5 -199t-175.5 -137.5t-212.5 -50.5q-142 0 -242.5 71t-149 192t-48.5 280zM1040 848q0 198 -79.5 313t-229.5 115q-104 0 -225 -84
q-117 -104 -184.5 -291.5t-67.5 -380.5q0 -200 80.5 -312t236.5 -112q111 0 222 84q114 102 180.5 290t66.5 378zM459 1569q29 48 51 79t51 62.5t61.5 46.5t69.5 15q35 0 66.5 -21.5t50.5 -48t42 -49.5t42 -25q31 3 63.5 40.5t71.5 103.5l82 -48q-59 -106 -107 -156
t-116 -50q-38 0 -71 21.5t-52 47.5t-41 49.5t-41 26.5q-33 -3 -67.5 -40t-77.5 -103z" />
    <glyph glyph-name="Odieresis" unicode="&#xd6;" horiz-adv-x="1269" 
d="M113 514q0 158 46.5 316t127.5 285t202 206.5t259 79.5q210 0 323 -150.5t113 -396.5q0 -128 -28.5 -256t-84 -240t-130.5 -199t-175.5 -137.5t-212.5 -50.5q-142 0 -242.5 71t-149 192t-48.5 280zM1040 848q0 198 -79.5 313t-229.5 115q-104 0 -225 -84
q-117 -104 -184.5 -291.5t-67.5 -380.5q0 -200 80.5 -312t236.5 -112q111 0 222 84q114 102 180.5 290t66.5 378zM510 1622q0 41 30 72.5t74 31.5q34 0 55 -19t21 -52q0 -42 -28.5 -73.5t-75.5 -31.5q-35 0 -55.5 19t-20.5 53zM846 1622q0 42 29 73t75 31q33 0 53.5 -19
t20.5 -52q0 -42 -28.5 -73.5t-73.5 -31.5q-36 0 -56 18.5t-20 53.5z" />
    <glyph glyph-name="multiply" unicode="&#xd7;" 
d="M764 172l-215 272l-293 -272l-72 76l299 278l-221 281l86 67l217 -272l293 272l72 -75l-301 -279l223 -280z" />
    <glyph glyph-name="Oslash" unicode="&#xd8;" horiz-adv-x="1269" 
d="M100 -59l121 186q-108 144 -108 387q0 126 29 253.5t85.5 240.5t132.5 201.5t177.5 140t212.5 51.5q144 0 249 -78l107 162l90 -62l-119 -180q107 -143 107 -389q0 -128 -28.5 -256t-84 -240t-130.5 -199t-175.5 -137.5t-212.5 -50.5q-150 0 -254 80l-111 -168zM256 520
q0 -163 51 -262l617 946q-75 72 -193 72q-106 0 -223 -84q-118 -104 -185 -291t-67 -381zM1040 848q0 158 -49 262l-618 -944q79 -70 198 -70q115 0 222 84q114 102 180.5 290t66.5 378z" />
    <glyph glyph-name="Ugrave" unicode="&#xd9;" horiz-adv-x="1214" 
d="M1006 1372h141l-119 -880q-15 -118 -48.5 -209t-91.5 -163.5t-149 -110.5t-211 -38q-61 0 -113.5 12t-90.5 34.5t-68.5 52.5t-50.5 67t-32.5 77t-17.5 83.5t-5 85.5t6 84l120 905h140l-117 -880q-58 -396 246 -396q132 0 217 74q48 46 80 122.5t43 164.5zM891 1616
l-414 170l-45 -113v-8l424 -139z" />
    <glyph glyph-name="Uacute" unicode="&#xda;" horiz-adv-x="1214" 
d="M1006 1372h141l-119 -880q-15 -118 -48.5 -209t-91.5 -163.5t-149 -110.5t-211 -38q-61 0 -113.5 12t-90.5 34.5t-68.5 52.5t-50.5 67t-32.5 77t-17.5 83.5t-5 85.5t6 84l120 905h140l-117 -880q-58 -396 246 -396q132 0 217 74q48 46 80 122.5t43 164.5zM1014 1673
l-47 113l-410 -170l31 -90l424 139z" />
    <glyph glyph-name="Ucircumflex" unicode="&#xdb;" horiz-adv-x="1214" 
d="M1006 1372h141l-119 -880q-15 -118 -48.5 -209t-91.5 -163.5t-149 -110.5t-211 -38q-61 0 -113.5 12t-90.5 34.5t-68.5 52.5t-50.5 67t-32.5 77t-17.5 83.5t-5 85.5t6 84l120 905h140l-117 -880q-58 -396 246 -396q132 0 217 74q48 46 80 122.5t43 164.5zM698 1796l99 8
l192 -235l-76 -62l-176 181l-245 -179l-58 70z" />
    <glyph glyph-name="Udieresis" unicode="&#xdc;" horiz-adv-x="1214" 
d="M1006 1372h141l-119 -880q-15 -118 -48.5 -209t-91.5 -163.5t-149 -110.5t-211 -38q-61 0 -113.5 12t-90.5 34.5t-68.5 52.5t-50.5 67t-32.5 77t-17.5 83.5t-5 85.5t6 84l120 905h140l-117 -880q-58 -396 246 -396q132 0 217 74q48 46 80 122.5t43 164.5zM461 1622
q0 41 30 72.5t74 31.5q34 0 55 -19t21 -52q0 -42 -28.5 -73.5t-75.5 -31.5q-35 0 -55.5 19t-20.5 53zM797 1622q0 42 29 73t75 31q33 0 53.5 -19t20.5 -52q0 -42 -29 -73.5t-74 -31.5q-36 0 -55.5 18.5t-19.5 53.5z" />
    <glyph glyph-name="Yacute" unicode="&#xdd;" horiz-adv-x="1001" 
d="M926 1372h143q-17 -39 -80 -137l-426 -674l-71 -561h-140l74 575l-236 664q-41 114 -45 133h140l172 -495l57 -168zM924 1673l-2 -8l-424 -139l-31 90l410 170z" />
    <glyph glyph-name="Thorn" unicode="&#xde;" horiz-adv-x="1052" 
d="M438 385q127 0 230 53q85 48 133.5 143.5t48.5 196.5q0 244 -301 244q-68 0 -166 -16l-80 -607q61 -14 135 -14zM109 0l182 1372h141l-33 -239q85 10 160 10q206 0 319 -92.5t113 -257.5q0 -75 -20.5 -148.5t-64.5 -142.5t-107.5 -121.5t-156.5 -84.5t-204 -32
q-72 0 -151 17l-37 -281h-141z" />
    <glyph glyph-name="germandbls" unicode="&#xdf;" horiz-adv-x="1046" 
d="M244 1233q21 151 113 241.5t233 90.5q129 0 199.5 -77.5t70.5 -191.5q0 -65 -26 -133.5t-63.5 -124.5t-75 -108t-64 -102t-27.5 -89q3 -29 13 -52.5t32 -47t40 -38.5t56 -44q42 -30 71.5 -56t58 -61.5t43 -78.5t14.5 -93q0 -133 -90.5 -212t-235.5 -79q-89 0 -164 29
t-125 70l62 100q45 -34 109 -59t133 -25q102 0 155 66q25 48 25 88q0 69 -38.5 117.5t-125.5 109.5q-42 32 -64.5 52.5t-50 52t-39.5 67t-12 78.5q0 54 26.5 112t64 110.5t75 106t64 115t26.5 119.5q0 71 -38 115.5t-120 44.5q-68 0 -118 -41q-58 -61 -74 -191l-223 -1706
h-136z" />
    <glyph glyph-name="agrave" unicode="&#xe0;" horiz-adv-x="962" 
d="M338 96q125 6 297 174l76 557q-84 33 -158 33q-60 0 -109 -22q-102 -58 -162.5 -193t-60.5 -303q0 -107 29 -174.5t88 -71.5zM82 319q0 180 62.5 331t177.5 241t258 90q132 0 274 -94l-78 -565q-15 -155 -24 -316l-115 -12l-6 156q-173 -177 -330 -177q-76 0 -126.5 50
t-71.5 125t-21 171zM758 1157l-60 -70l-358 277l-2 8l78 96z" />
    <glyph glyph-name="aacute" unicode="&#xe1;" horiz-adv-x="962" 
d="M338 96q125 6 297 174l76 557q-84 33 -158 33q-60 0 -109 -22q-102 -58 -162.5 -193t-60.5 -303q0 -107 29 -174.5t88 -71.5zM82 319q0 180 62.5 331t177.5 241t258 90q132 0 274 -94l-78 -565q-15 -155 -24 -316l-115 -12l-6 156q-173 -177 -330 -177q-76 0 -126.5 50
t-71.5 125t-21 171zM893 1372l-2 -8l-359 -277l-59 70l340 311z" />
    <glyph glyph-name="acircumflex" unicode="&#xe2;" horiz-adv-x="962" 
d="M338 96q125 6 297 174l76 557q-84 33 -158 33q-60 0 -109 -22q-102 -58 -162.5 -193t-60.5 -303q0 -107 29 -174.5t88 -71.5zM82 319q0 180 62.5 331t177.5 241t258 90q132 0 274 -94l-78 -565q-15 -155 -24 -316l-115 -12l-6 156q-173 -177 -330 -177q-76 0 -126.5 50
t-71.5 125t-21 171zM584 1446l96 6l176 -307l-80 -51l-155 237l-244 -239l-66 65z" />
    <glyph glyph-name="atilde" unicode="&#xe3;" horiz-adv-x="962" 
d="M338 96q125 6 297 174l76 557q-84 33 -158 33q-60 0 -109 -22q-102 -58 -162.5 -193t-60.5 -303q0 -107 29 -174.5t88 -71.5zM82 319q0 180 62.5 331t177.5 241t258 90q132 0 274 -94l-78 -565q-15 -155 -24 -316l-115 -12l-6 156q-173 -177 -330 -177q-76 0 -126.5 50
t-71.5 125t-21 171zM293 1163q51 99 101.5 151t119.5 52q35 0 66 -19.5t50 -44t43 -49t46 -30.5q57 8 133 143l80 -43q-48 -99 -100 -153t-121 -54q-36 0 -66.5 20t-48.5 44.5t-42.5 49t-47.5 30.5q-54 -9 -133 -144z" />
    <glyph glyph-name="adieresis" unicode="&#xe4;" horiz-adv-x="962" 
d="M338 96q125 6 297 174l76 557q-84 33 -158 33q-60 0 -109 -22q-102 -58 -162.5 -193t-60.5 -303q0 -107 29 -174.5t88 -71.5zM82 319q0 180 62.5 331t177.5 241t258 90q132 0 274 -94l-78 -565q-15 -155 -24 -316l-115 -12l-6 156q-173 -177 -330 -177q-76 0 -126.5 50
t-71.5 125t-21 171zM348 1208q0 45 30 77t75 32q34 0 52.5 -19t18.5 -51q0 -45 -28.5 -76.5t-73.5 -31.5q-35 0 -54.5 19t-19.5 50zM678 1208q0 45 29 77t73 32q34 0 53 -19t19 -51q0 -45 -28.5 -76.5t-73.5 -31.5q-34 0 -53 18.5t-19 50.5z" />
    <glyph glyph-name="aring" unicode="&#xe5;" horiz-adv-x="962" 
d="M338 96q125 6 297 174l76 557q-84 33 -158 33q-60 0 -109 -22q-102 -58 -162.5 -193t-60.5 -303q0 -107 29 -174.5t88 -71.5zM82 319q0 180 62.5 331t177.5 241t258 90q132 0 274 -94l-78 -565q-15 -155 -24 -316l-115 -12l-6 156q-173 -177 -330 -177q-76 0 -126.5 50
t-71.5 125t-21 171zM397 1239q0 98 67 172t185 74q79 0 124.5 -46t43.5 -116q0 -100 -64 -175t-182 -75q-80 0 -127 48t-47 118zM719 1311q0 38 -22 61t-62 23q-49 0 -84 -21q-53 -44 -53 -123q0 -90 90 -90q50 0 84 27q47 44 47 123z" />
    <glyph glyph-name="ae" unicode="&#xe6;" horiz-adv-x="1425" 
d="M41 186q0 338 580 373l10 103q9 100 -25 148t-127 48q-126 0 -282 -94l-50 88q172 125 365 125q102 0 162.5 -44.5t75.5 -125.5q141 174 337 174q119 0 187.5 -61.5t68.5 -163.5q0 -76 -33.5 -136t-89 -99t-133 -65t-161.5 -37t-178 -11h-17q-2 -16 -2 -50
q0 -112 38 -181t110 -79q77 0 168.5 33.5t166.5 85.5l50 -90q-193 -150 -390 -150q-86 0 -148 45.5t-95 127.5q-165 -175 -369 -175q-97 0 -158 56.5t-61 154.5zM897 811q-115 -112 -154 -301q85 0 162 11t148 35t113.5 69.5t43.5 107.5q0 63 -38.5 98t-104.5 35
q-95 0 -170 -55zM596 336q0 67 8 119q-235 -14 -350 -82q-80 -63 -80 -164q0 -56 32.5 -87.5t88.5 -31.5q73 0 153.5 42t153.5 124q-6 38 -6 80z" />
    <glyph glyph-name="ccedilla" unicode="&#xe7;" horiz-adv-x="831" 
d="M84 340q-1 129 36 247t99.5 203.5t150.5 136t185 50.5q141 0 242 -113l-64 -92q-96 84 -205 84q-47 0 -94 -20q-95 -53 -153 -183.5t-58 -302.5q0 -233 148 -252q117 0 278 84l45 -96q-144 -89 -270 -104l-55 -101q12 2 37 2q76 0 122.5 -36.5t46.5 -102.5
q0 -97 -101.5 -170.5t-285.5 -97.5l-22 86q273 58 283 184q-11 53 -103 53q-36 0 -72 -8l-34 53l71 140q-111 21 -168 116t-59 240z" />
    <glyph glyph-name="egrave" unicode="&#xe8;" horiz-adv-x="915" 
d="M84 340q0 173 61.5 319t175 234t254.5 88q120 0 189.5 -61t69.5 -168q0 -67 -26.5 -121t-74.5 -90.5t-106.5 -62.5t-130 -41t-137 -22t-136.5 -9q-2 -14 -2 -44q0 -111 36.5 -181.5t107.5 -82.5q156 3 337 119l50 -90q-91 -70 -192 -110t-195 -40q-134 0 -207.5 100
t-73.5 263zM385 809q-113 -110 -149 -301q464 14 464 227q0 64 -39.5 97.5t-105.5 33.5q-93 0 -170 -57zM743 1157l-59 -70l-358 277l-2 8l77 96z" />
    <glyph glyph-name="eacute" unicode="&#xe9;" horiz-adv-x="915" 
d="M84 340q0 173 61.5 319t175 234t254.5 88q120 0 189.5 -61t69.5 -168q0 -67 -26.5 -121t-74.5 -90.5t-106.5 -62.5t-130 -41t-137 -22t-136.5 -9q-2 -14 -2 -44q0 -111 36.5 -181.5t107.5 -82.5q156 3 337 119l50 -90q-91 -70 -192 -110t-195 -40q-134 0 -207.5 100
t-73.5 263zM385 809q-113 -110 -149 -301q464 14 464 227q0 64 -39.5 97.5t-105.5 33.5q-93 0 -170 -57zM881 1372l-2 -8l-359 -277l-59 70l340 311z" />
    <glyph glyph-name="ecircumflex" unicode="&#xea;" horiz-adv-x="915" 
d="M84 340q0 173 61.5 319t175 234t254.5 88q120 0 189.5 -61t69.5 -168q0 -67 -26.5 -121t-74.5 -90.5t-106.5 -62.5t-130 -41t-137 -22t-136.5 -9q-2 -14 -2 -44q0 -111 36.5 -181.5t107.5 -82.5q156 3 337 119l50 -90q-91 -70 -192 -110t-195 -40q-134 0 -207.5 100
t-73.5 263zM385 809q-113 -110 -149 -301q464 14 464 227q0 64 -39.5 97.5t-105.5 33.5q-93 0 -170 -57zM569 1446l97 6l176 -307l-80 -51l-156 237l-244 -239l-65 65z" />
    <glyph glyph-name="edieresis" unicode="&#xeb;" horiz-adv-x="915" 
d="M84 340q0 173 61.5 319t175 234t254.5 88q120 0 189.5 -61t69.5 -168q0 -67 -26.5 -121t-74.5 -90.5t-106.5 -62.5t-130 -41t-137 -22t-136.5 -9q-2 -14 -2 -44q0 -111 36.5 -181.5t107.5 -82.5q156 3 337 119l50 -90q-91 -70 -192 -110t-195 -40q-134 0 -207.5 100
t-73.5 263zM385 809q-113 -110 -149 -301q464 14 464 227q0 64 -39.5 97.5t-105.5 33.5q-93 0 -170 -57zM334 1208q0 45 29.5 77t74.5 32q34 0 53 -19t19 -51q0 -45 -28.5 -76.5t-73.5 -31.5q-35 0 -54.5 19t-19.5 50zM664 1208q0 45 29 77t73 32q34 0 53 -19t19 -51
q0 -45 -29 -76.5t-74 -31.5q-34 0 -52.5 18.5t-18.5 50.5z" />
    <glyph glyph-name="igrave" unicode="&#xec;" horiz-adv-x="448" 
d="M207 950l135 6l-125 -956h-135zM465 1157l-342 311l-78 -96l2 -8l359 -277z" />
    <glyph glyph-name="iacute" unicode="&#xed;" horiz-adv-x="448" 
d="M207 950l135 6l-125 -956h-135zM600 1372l-80 96l-340 -311l60 -70l358 277z" />
    <glyph glyph-name="icircumflex" unicode="&#xee;" horiz-adv-x="448" 
d="M207 950l135 6l-125 -956h-135zM285 1446l98 8l156 -303l-82 -53l-133 231l-199 -233l-74 63z" />
    <glyph glyph-name="idieresis" unicode="&#xef;" horiz-adv-x="448" 
d="M207 950l135 6l-125 -956h-135zM360 1210q0 48 30.5 78.5t74.5 30.5q35 0 53.5 -19t18.5 -49q0 -49 -30 -79.5t-73 -30.5q-35 0 -54.5 20t-19.5 49zM82 1210q0 48 30 78.5t74 30.5q34 0 52 -19.5t18 -48.5q0 -50 -29 -80t-73 -30q-35 0 -53.5 19.5t-18.5 49.5z" />
    <glyph glyph-name="eth" unicode="&#xf0;" horiz-adv-x="997" 
d="M418 96q90 0 160 60q74 74 117.5 216t49.5 308q-46 149 -210 149q-77 0 -144 -43q-73 -59 -119.5 -172.5t-46.5 -246.5q0 -128 47.5 -199.5t145.5 -71.5zM926 1434l-199 -131q158 -236 158 -576q0 -65 -7 -133.5t-24 -143.5t-42 -143t-63.5 -130t-86.5 -107t-114 -72
t-142 -27q-155 0 -239.5 106.5t-82.5 282.5q1 80 19 161.5t55.5 159t90 138t127.5 97t161 36.5q122 0 202 -71q-25 198 -121 350l-212 -141l-56 84l209 137q-71 83 -166 151l66 97q118 -72 209 -177l202 136z" />
    <glyph glyph-name="ntilde" unicode="&#xf1;" horiz-adv-x="1009" 
d="M193 948l114 10l4 -198q88 99 187 160t194 61q69 0 112 -25t59 -69t18.5 -104.5t-9.5 -131.5l-86 -651h-135l80 608q7 50 9.5 78t2.5 64.5t-7 56t-23.5 35t-42.5 18.5q-83 -4 -179 -67t-186 -162l-84 -631h-135l72 559q12 86 35 389zM254 1163q51 99 101.5 151t119.5 52
q35 0 66 -19.5t50 -44t43 -49t46 -30.5q57 8 133 143l80 -43q-48 -99 -100 -153t-121 -54q-36 0 -66.5 20t-48.5 44.5t-42.5 49t-47.5 30.5q-54 -9 -133 -144z" />
    <glyph glyph-name="ograve" unicode="&#xf2;" horiz-adv-x="989" 
d="M84 365q0 106 33 214t92 198t150.5 147t197.5 57q162 0 245 -110.5t81 -286.5q-1 -107 -34.5 -215t-93 -197t-150.5 -145t-197 -56q-157 0 -241.5 108.5t-82.5 285.5zM743 580q2 129 -48.5 204.5t-157.5 75.5q-80 3 -146 -49q-77 -68 -122.5 -187.5t-47.5 -254.5
q0 -125 53 -201t154 -76q84 0 147 47q76 72 122 190t46 251zM741 1157l-342 311l-77 -96l2 -8l358 -277z" />
    <glyph glyph-name="oacute" unicode="&#xf3;" horiz-adv-x="989" 
d="M84 365q0 106 33 214t92 198t150.5 147t197.5 57q162 0 245 -110.5t81 -286.5q-1 -107 -34.5 -215t-93 -197t-150.5 -145t-197 -56q-157 0 -241.5 108.5t-82.5 285.5zM743 580q2 129 -48.5 204.5t-157.5 75.5q-80 3 -146 -49q-77 -68 -122.5 -187.5t-47.5 -254.5
q0 -125 53 -201t154 -76q84 0 147 47q76 72 122 190t46 251zM879 1372l-80 96l-340 -311l59 -70l359 277z" />
    <glyph glyph-name="ocircumflex" unicode="&#xf4;" horiz-adv-x="989" 
d="M84 365q0 106 33 214t92 198t150.5 147t197.5 57q162 0 245 -110.5t81 -286.5q-1 -107 -34.5 -215t-93 -197t-150.5 -145t-197 -56q-157 0 -241.5 108.5t-82.5 285.5zM743 580q2 129 -48.5 204.5t-157.5 75.5q-80 3 -146 -49q-77 -68 -122.5 -187.5t-47.5 -254.5
q0 -125 53 -201t154 -76q84 0 147 47q76 72 122 190t46 251zM567 1446l97 6l176 -307l-80 -51l-156 237l-244 -239l-65 65z" />
    <glyph glyph-name="otilde" unicode="&#xf5;" horiz-adv-x="989" 
d="M84 365q0 106 33 214t92 198t150.5 147t197.5 57q162 0 245 -110.5t81 -286.5q-1 -107 -34.5 -215t-93 -197t-150.5 -145t-197 -56q-157 0 -241.5 108.5t-82.5 285.5zM743 580q2 129 -48.5 204.5t-157.5 75.5q-80 3 -146 -49q-77 -68 -122.5 -187.5t-47.5 -254.5
q0 -125 53 -201t154 -76q84 0 147 47q76 72 122 190t46 251zM276 1163q51 99 102 151t120 52q35 0 66 -19.5t49.5 -44t42.5 -49t46 -30.5q58 8 134 143l79 -43q-48 -99 -100 -153t-121 -54q-36 0 -66.5 20t-48.5 44.5t-42.5 49t-47.5 30.5q-54 -9 -133 -144z" />
    <glyph glyph-name="odieresis" unicode="&#xf6;" horiz-adv-x="989" 
d="M84 365q0 106 33 214t92 198t150.5 147t197.5 57q162 0 245 -110.5t81 -286.5q-1 -107 -34.5 -215t-93 -197t-150.5 -145t-197 -56q-157 0 -241.5 108.5t-82.5 285.5zM743 580q2 129 -48.5 204.5t-157.5 75.5q-80 3 -146 -49q-77 -68 -122.5 -187.5t-47.5 -254.5
q0 -125 53 -201t154 -76q84 0 147 47q76 72 122 190t46 251zM334 1208q0 45 29.5 77t74.5 32q34 0 53 -19t19 -51q0 -45 -28.5 -76.5t-73.5 -31.5q-35 0 -54.5 19t-19.5 50zM664 1208q0 45 29 77t73 32q34 0 53 -19t19 -51q0 -45 -29 -76.5t-74 -31.5q-34 0 -52.5 18.5
t-18.5 50.5z" />
    <glyph glyph-name="divide" unicode="&#xf7;" 
d="M182 584h768l-16 -111h-766zM514 825q2 46 33 76.5t78 30.5q35 0 57.5 -21t22.5 -53q0 -46 -32 -76t-77 -30q-37 0 -59.5 20.5t-22.5 52.5zM416 188q0 47 30.5 77t77.5 30q35 0 57.5 -20t22.5 -52q0 -46 -31 -77t-77 -31q-36 0 -58 21t-22 52z" />
    <glyph glyph-name="oslash" unicode="&#xf8;" horiz-adv-x="989" 
d="M98 -78l84 139q-101 107 -98 304q0 106 33 214t92 198t150.5 147t197.5 57q91 0 156 -35l82 135l84 -53l-88 -145q95 -109 92 -299q-1 -107 -34.5 -215t-93 -197t-150.5 -145t-197 -56q-81 0 -148 31l-80 -133zM221 369q0 -111 39 -179l385 641q-47 29 -108 29
q-80 3 -146 -49q-77 -68 -122.5 -187.5t-47.5 -254.5zM743 580q0 113 -30 172l-383 -635q42 -25 98 -25q84 0 147 47q76 72 122 190t46 251z" />
    <glyph glyph-name="ugrave" unicode="&#xf9;" horiz-adv-x="995" 
d="M778 6l-114 -12l-5 194q-84 -96 -180 -156.5t-190 -60.5q-83 0 -128 40.5t-53 111t3 164.5l88 663l135 6l-82 -634q-18 -100 -6 -163.5t69 -66.5q77 4 172 68.5t179 158.5l84 633h137l-74 -557q-21 -196 -35 -389zM725 1157l-59 -70l-359 277l-2 8l78 96z" />
    <glyph glyph-name="uacute" unicode="&#xfa;" horiz-adv-x="995" 
d="M778 6l-114 -12l-5 194q-84 -96 -180 -156.5t-190 -60.5q-83 0 -128 40.5t-53 111t3 164.5l88 663l135 6l-82 -634q-18 -100 -6 -163.5t69 -66.5q77 4 172 68.5t179 158.5l84 633h137l-74 -557q-21 -196 -35 -389zM860 1372l-2 -8l-358 -277l-60 70l340 311z" />
    <glyph glyph-name="ucircumflex" unicode="&#xfb;" horiz-adv-x="995" 
d="M778 6l-114 -12l-5 194q-84 -96 -180 -156.5t-190 -60.5q-83 0 -128 40.5t-53 111t3 164.5l88 663l135 6l-82 -634q-18 -100 -6 -163.5t69 -66.5q77 4 172 68.5t179 158.5l84 633h137l-74 -557q-21 -196 -35 -389zM551 1446l96 6l176 -307l-80 -51l-155 237l-244 -239
l-65 65z" />
    <glyph glyph-name="udieresis" unicode="&#xfc;" horiz-adv-x="995" 
d="M778 6l-114 -12l-5 194q-84 -96 -180 -156.5t-190 -60.5q-83 0 -128 40.5t-53 111t3 164.5l88 663l135 6l-82 -634q-18 -100 -6 -163.5t69 -66.5q77 4 172 68.5t179 158.5l84 633h137l-74 -557q-21 -196 -35 -389zM315 1208q0 45 30 77t75 32q34 0 53 -19t19 -51
q0 -45 -29 -76.5t-74 -31.5q-35 0 -54.5 19t-19.5 50zM645 1208q0 45 29.5 77t73.5 32q34 0 52.5 -19t18.5 -51q0 -45 -28.5 -76.5t-73.5 -31.5q-35 0 -53.5 18.5t-18.5 50.5z" />
    <glyph glyph-name="yacute" unicode="&#xfd;" horiz-adv-x="903" 
d="M-51 -506q-31 0 -55 4l18 119q110 3 213 92.5t219 284.5h-25l-208 874q-10 49 -5 84h132l141 -643l37 -174h8q277 480 291 817h129v-39q0 -114 -65.5 -310t-196.5 -437q-191 -352 -338.5 -512t-294.5 -160zM795 1372l-2 -8l-359 -277l-59 70l340 311z" />
    <glyph glyph-name="thorn" unicode="&#xfe;" horiz-adv-x="970" 
d="M285 1534l135 4l-96 -721q171 164 315 164q110 0 167.5 -95t57.5 -249q1 -137 -36 -260t-101.5 -211.5t-156 -140.5t-195.5 -52q-80 0 -158 33l-65 -498h-134zM397 94q91 0 164 62q80 74 123 195t43 265q0 105 -31 172t-90 70q-62 -3 -143 -52t-156 -124l-74 -551
q79 -37 164 -37z" />
    <glyph glyph-name="ydieresis" unicode="&#xff;" horiz-adv-x="903" 
d="M-51 -506q-31 0 -55 4l18 119q110 3 213 92.5t219 284.5h-25l-208 874q-10 49 -5 84h132l141 -643l37 -174h8q277 480 291 817h129v-39q0 -114 -65.5 -310t-196.5 -437q-191 -352 -338.5 -512t-294.5 -160zM248 1208q0 45 29.5 77t74.5 32q34 0 53 -19t19 -51
q0 -45 -28.5 -76.5t-73.5 -31.5q-35 0 -54.5 19t-19.5 50zM578 1208q0 45 29 77t73 32q34 0 53 -19t19 -51q0 -45 -29 -76.5t-74 -31.5q-34 0 -52.5 18.5t-18.5 50.5z" />
    <glyph glyph-name="Amacron" unicode="&#x100;" horiz-adv-x="1103" 
d="M639 1214l-303 -696h424l-72 438l-43 258h-6zM573 1368l170 8l234 -1331q4 -36 4 -45h-137l-66 399h-495l-174 -399h-138q0 17 15 47zM449 1661h499l-14 -107h-500z" />
    <glyph glyph-name="amacron" unicode="&#x101;" horiz-adv-x="962" 
d="M338 96q125 6 297 174l76 557q-84 33 -158 33q-60 0 -109 -22q-102 -58 -162.5 -193t-60.5 -303q0 -107 29 -174.5t88 -71.5zM82 319q0 180 62.5 331t177.5 241t258 90q132 0 274 -94l-78 -565q-15 -155 -24 -316l-115 -12l-6 156q-173 -177 -330 -177q-76 0 -126.5 50
t-71.5 125t-21 171zM365 1260h485l-16 -111h-484z" />
    <glyph glyph-name="Abreve" unicode="&#x102;" horiz-adv-x="1103" 
d="M639 1214l-303 -696h424l-72 438l-43 258h-6zM573 1368l170 8l234 -1331q4 -36 4 -45h-137l-66 399h-495l-174 -399h-138q0 17 15 47zM981 1745q-92 -215 -305 -215q-91 0 -153.5 58.5t-80.5 170.5l95 29q25 -81 61.5 -116.5t97.5 -35.5q47 0 82 17q66 37 121 133z" />
    <glyph glyph-name="abreve" unicode="&#x103;" horiz-adv-x="962" 
d="M338 96q125 6 297 174l76 557q-84 33 -158 33q-60 0 -109 -22q-102 -58 -162.5 -193t-60.5 -303q0 -107 29 -174.5t88 -71.5zM82 319q0 180 62.5 331t177.5 241t258 90q132 0 274 -94l-78 -565q-15 -155 -24 -316l-115 -12l-6 156q-173 -177 -330 -177q-76 0 -126.5 50
t-71.5 125t-21 171zM895 1380q-98 -272 -307 -272q-112 0 -169.5 75.5t-62.5 213.5l97 14q8 -91 42.5 -139.5t104.5 -48.5q46 0 90 24q68 45 115 164z" />
    <glyph glyph-name="Aogonek" unicode="&#x104;" horiz-adv-x="1103" 
d="M573 1368l170 8l234 -1331q4 -36 4 -45q-126 -67 -199 -146.5t-73 -152.5q0 -36 20.5 -57.5t52.5 -24.5q78 -3 172 41l35 -82q-106 -70 -219 -70q-85 0 -137.5 45t-52.5 123q0 169 215 316l45 31l-62 376h-495l-174 -399h-138q0 17 15 47zM639 1214l-303 -696h424
l-72 438l-43 258h-6z" />
    <glyph glyph-name="aogonek" unicode="&#x105;" horiz-adv-x="964" 
d="M82 319q-1 180 61.5 331t178 241t258.5 90q132 0 274 -94l-76 -565q-14 -125 -24 -355q-254 -130 -254 -248q0 -32 17.5 -49.5t47.5 -19.5q73 -5 172 41l33 -80q-104 -72 -219 -72q-84 0 -134 41.5t-50 116.5q0 156 270 303l-6 150q-173 -177 -328 -177q-58 0 -101.5 28
t-68.5 77.5t-37.5 109.5t-13.5 131zM338 96q125 6 297 174l76 557q-84 33 -158 33q-60 0 -109 -22q-102 -58 -162.5 -193t-60.5 -303q0 -106 29.5 -174t87.5 -72z" />
    <glyph glyph-name="Cacute" unicode="&#x106;" horiz-adv-x="1069" 
d="M111 506q0 114 23.5 233t76 237.5t127.5 211t187.5 150t246.5 57.5q177 0 315 -101l-61 -102q-120 76 -264 76q-159 0 -270 -99q-114 -112 -176 -291.5t-62 -357.5q0 -189 84.5 -302.5t257.5 -113.5q151 0 307 70l39 -104q-83 -45 -169.5 -69t-203.5 -24
q-152 0 -257 70.5t-153 187.5t-48 271zM1073 1673l-47 113l-410 -170l31 -90l424 139z" />
    <glyph glyph-name="cacute" unicode="&#x107;" horiz-adv-x="831" 
d="M84 340q-1 129 36 247t99.5 203.5t150.5 136t185 50.5q141 0 242 -113l-64 -92q-96 84 -205 84q-47 0 -94 -20q-95 -53 -153 -183.5t-58 -302.5q0 -233 148 -252q117 0 278 84l45 -96q-174 -109 -323 -109q-140 0 -212.5 99.5t-74.5 263.5zM870 1372l-79 96l-340 -311
l59 -70l358 277z" />
    <glyph glyph-name="Ccircumflex" unicode="&#x108;" horiz-adv-x="1069" 
d="M111 506q0 114 23.5 233t76 237.5t127.5 211t187.5 150t246.5 57.5q177 0 315 -101l-61 -102q-120 76 -264 76q-159 0 -270 -99q-114 -112 -176 -291.5t-62 -357.5q0 -189 84.5 -302.5t257.5 -113.5q151 0 307 70l39 -104q-83 -45 -169.5 -69t-203.5 -24
q-152 0 -257 70.5t-153 187.5t-48 271zM758 1796l98 8l193 -235l-76 -62l-176 181l-246 -179l-57 70z" />
    <glyph glyph-name="ccircumflex" unicode="&#x109;" horiz-adv-x="831" 
d="M84 340q-1 129 36 247t99.5 203.5t150.5 136t185 50.5q141 0 242 -113l-64 -92q-96 84 -205 84q-47 0 -94 -20q-95 -53 -153 -183.5t-58 -302.5q0 -233 148 -252q117 0 278 84l45 -96q-174 -109 -323 -109q-140 0 -212.5 99.5t-74.5 263.5zM559 1446l96 6l176 -307
l-79 -51l-156 237l-244 -239l-65 65z" />
    <glyph glyph-name="Cdotaccent" unicode="&#x10a;" horiz-adv-x="1069" 
d="M111 506q0 114 23.5 233t76 237.5t127.5 211t187.5 150t246.5 57.5q177 0 315 -101l-61 -102q-120 76 -264 76q-159 0 -270 -99q-114 -112 -176 -291.5t-62 -357.5q0 -189 84.5 -302.5t257.5 -113.5q151 0 307 70l39 -104q-83 -45 -169.5 -69t-203.5 -24
q-152 0 -257 70.5t-153 187.5t-48 271zM700 1626q0 41 28 75t83 34q33 0 54.5 -20.5t21.5 -53.5q0 -45 -28.5 -78t-78.5 -33q-36 0 -58 20.5t-22 55.5z" />
    <glyph glyph-name="cdotaccent" unicode="&#x10b;" horiz-adv-x="831" 
d="M84 340q-1 129 36 247t99.5 203.5t150.5 136t185 50.5q141 0 242 -113l-64 -92q-96 84 -205 84q-47 0 -94 -20q-95 -53 -153 -183.5t-58 -302.5q0 -233 148 -252q117 0 278 84l45 -96q-174 -109 -323 -109q-140 0 -212.5 99.5t-74.5 263.5zM481 1208q0 51 34 84t81 33
q39 0 59.5 -20.5t20.5 -55.5q0 -52 -33 -84t-80 -32q-39 0 -60.5 21t-21.5 54z" />
    <glyph glyph-name="Ccaron" unicode="&#x10c;" horiz-adv-x="1069" 
d="M111 506q0 114 23.5 233t76 237.5t127.5 211t187.5 150t246.5 57.5q177 0 315 -101l-61 -102q-120 76 -264 76q-159 0 -270 -99q-114 -112 -176 -291.5t-62 -357.5q0 -189 84.5 -302.5t257.5 -113.5q151 0 307 70l39 -104q-83 -45 -169.5 -69t-203.5 -24
q-152 0 -257 70.5t-153 187.5t-48 271zM827 1524l-98 -8l-203 235l76 64l189 -181l256 178l57 -71z" />
    <glyph glyph-name="ccaron" unicode="&#x10d;" horiz-adv-x="831" 
d="M84 340q-1 129 36 247t99.5 203.5t150.5 136t185 50.5q141 0 242 -113l-64 -92q-96 84 -205 84q-47 0 -94 -20q-95 -53 -153 -183.5t-58 -302.5q0 -233 148 -252q117 0 278 84l45 -96q-174 -109 -323 -109q-140 0 -212.5 99.5t-74.5 263.5zM612 1110l-96 -6l-178 307
l80 51l157 -237l244 237l66 -63z" />
    <glyph glyph-name="Dcaron" unicode="&#x10e;" horiz-adv-x="1245" 
d="M289 1362q168 33 350 33q241 0 381.5 -154.5t140.5 -406.5q0 -116 -26.5 -234t-85 -230.5t-141.5 -199.5t-205.5 -140t-268.5 -53q-181 0 -323 31zM1016 815q0 211 -101 333t-288 122q-100 0 -213 -17l-152 -1138q83 -13 172 -13q177 0 297 84q138 101 211.5 277.5
t73.5 351.5zM727 1524l-98 -8l-203 235l76 64l188 -181l256 178l58 -71z" />
    <glyph glyph-name="dcaron" unicode="&#x10f;" horiz-adv-x="970" 
d="M340 96q125 5 297 174l74 555q-84 35 -160 35q-60 0 -109 -22q-101 -58 -161 -193t-60 -303q0 -107 30 -174.5t89 -71.5zM82 319q-1 179 60.5 330t175.5 241.5t257 90.5q70 0 152 -29l76 582l137 4l-160 -1206q-11 -88 -24 -326l-115 -12l-6 158q-179 -179 -330 -179
q-56 0 -100 28.5t-70 78t-39 110t-14 129.5zM1001 1120l66 420l127 6l4 -8l-100 -418h-97z" />
    <glyph glyph-name="Dcroat" unicode="&#x110;" horiz-adv-x="1267" 
d="M61 758h170l80 604q201 33 351 33q241 0 380.5 -155.5t139.5 -405.5q0 -115 -27 -232.5t-85.5 -230.5t-142 -200t-207 -140.5t-269.5 -53.5q-176 0 -318 31l84 637h-170zM1038 815q0 211 -100 333t-287 122q-100 0 -213 -17l-65 -495h321l-16 -113h-320l-71 -530
q80 -13 170 -13q177 0 301 88q91 67 156 178t94.5 225t29.5 222z" />
    <glyph glyph-name="dcroat" unicode="&#x111;" horiz-adv-x="970" 
d="M340 96q125 5 297 174l70 525q-79 36 -164 36q-60 0 -109 -22q-102 -59 -157.5 -180t-55.5 -287q0 -107 30 -174.5t89 -71.5zM756 6l-115 -12l-6 158q-179 -179 -330 -179q-56 0 -100 28.5t-70 78t-39 110t-14 129.5q-1 179 58.5 323t171 227t255.5 83q78 0 156 -30
l35 262h-373l14 106h371l33 244l137 4l-33 -248h172l-12 -106h-174l-113 -852q-11 -88 -24 -326z" />
    <glyph glyph-name="Emacron" unicode="&#x112;" horiz-adv-x="1007" 
d="M289 1372h717l-19 -121h-573l-64 -489h463l-14 -119h-465l-68 -522h570l-7 -121h-720zM434 1661h500l-14 -107h-500z" />
    <glyph glyph-name="emacron" unicode="&#x113;" horiz-adv-x="915" 
d="M84 340q0 173 61.5 319t175 234t254.5 88q120 0 189.5 -61t69.5 -168q0 -67 -26.5 -121t-74.5 -90.5t-106.5 -62.5t-130 -41t-137 -22t-136.5 -9q-2 -14 -2 -44q0 -111 36.5 -181.5t107.5 -82.5q156 3 337 119l50 -90q-91 -70 -192 -110t-195 -40q-134 0 -207.5 100
t-73.5 263zM385 809q-113 -110 -149 -301q464 14 464 227q0 64 -39.5 97.5t-105.5 33.5q-93 0 -170 -57zM350 1260h486l-17 -111h-483z" />
    <glyph glyph-name="Ebreve" unicode="&#x114;" horiz-adv-x="1007" 
d="M289 1372h717l-19 -121h-573l-64 -489h463l-14 -119h-465l-68 -522h570l-7 -121h-720zM967 1745q-92 -215 -305 -215q-91 0 -153.5 58.5t-80.5 170.5l94 29q25 -80 62 -116t98 -36q47 0 82 17q66 37 121 133z" />
    <glyph glyph-name="ebreve" unicode="&#x115;" horiz-adv-x="915" 
d="M84 340q0 173 61.5 319t175 234t254.5 88q120 0 189.5 -61t69.5 -168q0 -67 -26.5 -121t-74.5 -90.5t-106.5 -62.5t-130 -41t-137 -22t-136.5 -9q-2 -14 -2 -44q0 -111 36.5 -181.5t107.5 -82.5q156 3 337 119l50 -90q-91 -70 -192 -110t-195 -40q-134 0 -207.5 100
t-73.5 263zM385 809q-113 -110 -149 -301q464 14 464 227q0 64 -39.5 97.5t-105.5 33.5q-93 0 -170 -57zM881 1380q-98 -272 -308 -272q-111 0 -168.5 75t-62.5 214l96 14q16 -188 148 -188q46 0 90 24q68 45 115 164z" />
    <glyph glyph-name="Edotaccent" unicode="&#x116;" horiz-adv-x="1007" 
d="M289 1372h717l-19 -121h-573l-64 -489h463l-14 -119h-465l-68 -522h570l-7 -121h-720zM590 1626q0 42 27.5 75.5t82.5 33.5q33 0 54.5 -20.5t21.5 -53.5q0 -45 -28 -78t-78 -33q-36 0 -58 20.5t-22 55.5z" />
    <glyph glyph-name="edotaccent" unicode="&#x117;" horiz-adv-x="915" 
d="M84 340q0 173 61.5 319t175 234t254.5 88q120 0 189.5 -61t69.5 -168q0 -67 -26.5 -121t-74.5 -90.5t-106.5 -62.5t-130 -41t-137 -22t-136.5 -9q-2 -14 -2 -44q0 -111 36.5 -181.5t107.5 -82.5q156 3 337 119l50 -90q-91 -70 -192 -110t-195 -40q-134 0 -207.5 100
t-73.5 263zM385 809q-113 -110 -149 -301q464 14 464 227q0 64 -39.5 97.5t-105.5 33.5q-93 0 -170 -57zM492 1208q0 51 33.5 84t80.5 33q39 0 59.5 -20.5t20.5 -55.5q0 -52 -33 -84t-80 -32q-39 0 -60 21t-21 54z" />
    <glyph glyph-name="Eogonek" unicode="&#x118;" horiz-adv-x="1007" 
d="M289 1372h717l-19 -121h-573l-64 -489h463l-14 -119h-465l-68 -522h570l-7 -121q-124 -71 -194 -150.5t-70 -150.5q0 -34 20 -56.5t52 -25.5q81 -2 170 41l35 -80q-34 -21 -53.5 -31.5t-68.5 -25.5t-97 -15q-84 0 -136.5 45t-52.5 123q0 165 238 324v2h-563z" />
    <glyph glyph-name="eogonek" unicode="&#x119;" horiz-adv-x="915" 
d="M84 340q0 173 61.5 319t175 234t254.5 88q120 0 189.5 -61t69.5 -168q0 -67 -26.5 -121t-74.5 -90.5t-106.5 -62.5t-130 -41t-137 -22t-136.5 -9q-2 -14 -2 -44q0 -111 36.5 -181.5t107.5 -82.5q156 3 337 119l50 -90q-3 -2 -9.5 -7t-9.5 -7q-146 -110 -231.5 -205.5
t-85.5 -183.5q0 -32 17 -51.5t46 -22.5q72 -5 176 43l35 -82q-109 -72 -225 -72q-81 0 -129.5 42.5t-48.5 113.5q0 76 47 146.5t131 144.5v2q-64 -11 -100 -11q-134 0 -207.5 100t-73.5 263zM385 809q-113 -110 -149 -301q464 14 464 227q0 64 -39.5 97.5t-105.5 33.5
q-93 0 -170 -57z" />
    <glyph glyph-name="Ecaron" unicode="&#x11a;" horiz-adv-x="1007" 
d="M289 1372h717l-19 -121h-573l-64 -489h463l-14 -119h-465l-68 -522h570l-7 -121h-720zM717 1524l-99 -8l-202 235l76 64l188 -181l256 178l57 -71z" />
    <glyph glyph-name="ecaron" unicode="&#x11b;" horiz-adv-x="915" 
d="M84 340q0 173 61.5 319t175 234t254.5 88q120 0 189.5 -61t69.5 -168q0 -67 -26.5 -121t-74.5 -90.5t-106.5 -62.5t-130 -41t-137 -22t-136.5 -9q-2 -14 -2 -44q0 -111 36.5 -181.5t107.5 -82.5q156 3 337 119l50 -90q-91 -70 -192 -110t-195 -40q-134 0 -207.5 100
t-73.5 263zM385 809q-113 -110 -149 -301q464 14 464 227q0 64 -39.5 97.5t-105.5 33.5q-93 0 -170 -57zM623 1110l-97 -6l-178 307l80 51l158 -237l243 237l66 -63z" />
    <glyph glyph-name="Gcircumflex" unicode="&#x11c;" horiz-adv-x="1157" 
d="M901 672h137l-77 -598h-3q-98 -48 -186 -72.5t-194 -24.5q-117 0 -207 40.5t-146.5 113.5t-85 168.5t-28.5 210.5q1 96 18 196t51 200t89 187.5t125.5 155t167.5 107t208 39.5q185 0 332 -103l-62 -102q-127 78 -276 78q-162 0 -270 -99q-120 -116 -180 -294t-60 -351
q0 -91 18.5 -165t57.5 -133.5t108.5 -92.5t163.5 -33q112 0 227 41zM758 1796l98 8l193 -235l-76 -62l-176 181l-246 -179l-57 70z" />
    <glyph glyph-name="gcircumflex" unicode="&#x11d;" horiz-adv-x="958" 
d="M338 96q60 1 141 50.5t160 127.5l70 549q-75 37 -160 37q-59 0 -109 -22q-99 -57 -159 -190.5t-60 -299.5q0 -111 28.5 -179.5t88.5 -72.5zM82 319q-1 181 61.5 332.5t176.5 240.5t255 89q128 0 277 -94l-115 -879q-16 -120 -46.5 -211t-82 -163.5t-131 -110
t-184.5 -37.5q-143 0 -273 70l50 110q121 -57 237 -57q102 0 166 45q56 57 84.5 143t44.5 203l19 139q-173 -166 -318 -166q-109 0 -164 95.5t-57 250.5zM588 1446l96 6l176 -307l-80 -51l-155 237l-244 -239l-66 65z" />
    <glyph glyph-name="Gbreve" unicode="&#x11e;" horiz-adv-x="1157" 
d="M901 672h137l-77 -598h-3q-98 -48 -186 -72.5t-194 -24.5q-117 0 -207 40.5t-146.5 113.5t-85 168.5t-28.5 210.5q1 96 18 196t51 200t89 187.5t125.5 155t167.5 107t208 39.5q185 0 332 -103l-62 -102q-127 78 -276 78q-162 0 -270 -99q-120 -116 -180 -294t-60 -351
q0 -91 18.5 -165t57.5 -133.5t108.5 -92.5t163.5 -33q112 0 227 41zM1077 1745q-92 -215 -305 -215q-91 0 -153 58.5t-80 170.5l94 29q25 -80 62 -116t98 -36q46 0 81 17q66 37 121 133z" />
    <glyph glyph-name="gbreve" unicode="&#x11f;" horiz-adv-x="958" 
d="M338 96q60 1 141 50.5t160 127.5l70 549q-75 37 -160 37q-59 0 -109 -22q-99 -57 -159 -190.5t-60 -299.5q0 -111 28.5 -179.5t88.5 -72.5zM82 319q-1 181 61.5 332.5t176.5 240.5t255 89q128 0 277 -94l-115 -879q-16 -120 -46.5 -211t-82 -163.5t-131 -110
t-184.5 -37.5q-143 0 -273 70l50 110q121 -57 237 -57q102 0 166 45q56 57 84.5 143t44.5 203l19 139q-173 -166 -318 -166q-109 0 -164 95.5t-57 250.5zM899 1380q-98 -272 -307 -272q-112 0 -169.5 75.5t-62.5 213.5l97 14q8 -91 42.5 -139.5t104.5 -48.5q46 0 90 24
q68 45 115 164z" />
    <glyph glyph-name="Gdotaccent" unicode="&#x120;" horiz-adv-x="1157" 
d="M901 672h137l-77 -598h-3q-98 -48 -186 -72.5t-194 -24.5q-117 0 -207 40.5t-146.5 113.5t-85 168.5t-28.5 210.5q1 96 18 196t51 200t89 187.5t125.5 155t167.5 107t208 39.5q185 0 332 -103l-62 -102q-127 78 -276 78q-162 0 -270 -99q-120 -116 -180 -294t-60 -351
q0 -91 18.5 -165t57.5 -133.5t108.5 -92.5t163.5 -33q112 0 227 41zM700 1626q0 41 28 75t83 34q33 0 54.5 -20.5t21.5 -53.5q0 -45 -28.5 -78t-78.5 -33q-36 0 -58 20.5t-22 55.5z" />
    <glyph glyph-name="gdotaccent" unicode="&#x121;" horiz-adv-x="958" 
d="M338 96q60 1 141 50.5t160 127.5l70 549q-75 37 -160 37q-59 0 -109 -22q-99 -57 -159 -190.5t-60 -299.5q0 -111 28.5 -179.5t88.5 -72.5zM82 319q-1 181 61.5 332.5t176.5 240.5t255 89q128 0 277 -94l-115 -879q-16 -120 -46.5 -211t-82 -163.5t-131 -110
t-184.5 -37.5q-143 0 -273 70l50 110q121 -57 237 -57q102 0 166 45q56 57 84.5 143t44.5 203l19 139q-173 -166 -318 -166q-109 0 -164 95.5t-57 250.5zM510 1208q0 51 34 84t81 33q39 0 59.5 -20.5t20.5 -55.5q0 -52 -33 -84t-80 -32q-39 0 -60.5 21t-21.5 54z" />
    <glyph glyph-name="uni0122" unicode="&#x122;" horiz-adv-x="1157" 
d="M901 672h137l-77 -598h-3q-98 -48 -186 -72.5t-194 -24.5q-117 0 -207 40.5t-146.5 113.5t-85 168.5t-28.5 210.5q1 96 18 196t51 200t89 187.5t125.5 155t167.5 107t208 39.5q185 0 332 -103l-62 -102q-127 78 -276 78q-162 0 -270 -99q-120 -116 -180 -294t-60 -351
q0 -91 18.5 -165t57.5 -133.5t108.5 -92.5t163.5 -33q112 0 227 41zM496 -528l-76 49q88 126 88 284v50l121 10q2 -18 2 -58q0 -191 -135 -335z" />
    <glyph glyph-name="uni0123" unicode="&#x123;" horiz-adv-x="958" 
d="M338 96q60 1 141 50.5t160 127.5l70 549q-75 37 -160 37q-59 0 -109 -22q-99 -57 -159 -190.5t-60 -299.5q0 -111 28.5 -179.5t88.5 -72.5zM82 319q-1 181 61.5 332.5t176.5 240.5t255 89q128 0 277 -94l-115 -879q-16 -120 -46.5 -211t-82 -163.5t-131 -110
t-184.5 -37.5q-143 0 -273 70l50 110q121 -57 237 -57q102 0 166 45q56 57 84.5 143t44.5 203l19 139q-173 -166 -318 -166q-109 0 -164 95.5t-57 250.5zM676 1511l74 -49q-79 -113 -86 -266q-2 -25 -2 -66l-121 -10q-3 37 0 74q2 89 36.5 172t98.5 145z" />
    <glyph glyph-name="Hcircumflex" unicode="&#x124;" horiz-adv-x="1259" 
d="M1038 1372h140l-181 -1372h-139l84 641h-608l-84 -641h-141l180 1372h141l-80 -612h608zM737 1796l99 8l192 -235l-76 -62l-176 181l-246 -179l-57 70z" />
    <glyph glyph-name="hcircumflex" unicode="&#x125;" horiz-adv-x="1005" 
d="M285 1534l137 4l-103 -762q87 93 182.5 149t186.5 56q69 0 112 -25t59 -69t18.5 -104.5t-9.5 -131.5l-86 -651h-137l82 604q4 35 5.5 50.5t4 45t2 43.5t-2 35.5t-7 32t-13.5 23t-20.5 18.5t-29.5 8q-82 -4 -181 -67.5t-184 -159.5l-84 -633h-135zM356 1960l99 8l192 -235
l-76 -62l-176 180l-245 -178l-58 70z" />
    <glyph glyph-name="Hbar" unicode="&#x126;" horiz-adv-x="1288" 
d="M121 1118h151l33 254h139l-32 -254h608l33 254h141l-33 -254h139l-12 -112h-143l-131 -1006h-142l80 614h-608l-80 -614h-139l131 1006h-147zM969 733l35 273h-609l-35 -273h609z" />
    <glyph glyph-name="hbar" unicode="&#x127;" horiz-adv-x="1005" 
d="M285 1534l137 4l-33 -248h373l-14 -106h-373l-58 -436q84 93 180 148.5t189 55.5q87 0 133 -42.5t52 -115t-5 -169.5l-84 -625h-137l80 575q7 50 9.5 79.5t2.5 66t-7 56.5t-23.5 35.5t-42.5 18.5q-83 -3 -181 -66.5t-186 -162.5l-80 -602h-135l156 1184h-172l14 106h172z
" />
    <glyph glyph-name="Itilde" unicode="&#x128;" horiz-adv-x="512" 
d="M289 1372h141l-180 -1372h-141zM72 1569q29 48 51 79t51 62.5t61.5 46.5t69.5 15q35 0 66.5 -21.5t50.5 -48t42 -49.5t42 -25q31 3 63.5 40.5t71.5 103.5l82 -48q-59 -106 -107 -156t-116 -50q-38 0 -71 21.5t-52 47.5t-41 49.5t-41 26.5q-33 -3 -67.5 -40t-77.5 -103z
" />
    <glyph glyph-name="itilde" unicode="&#x129;" horiz-adv-x="448" 
d="M207 950l135 6l-125 -956h-135zM29 1161q23 47 41.5 77.5t44 62.5t55 47.5t63.5 15.5q33 0 59 -22t38.5 -48t28 -49t30.5 -24q15 1 30 13t31 39t23 41t23 48l77 -35q-30 -93 -77.5 -152t-112.5 -59q-35 0 -61.5 22t-39 48.5t-28 49.5t-31.5 24q-43 -2 -113 -134
q-1 -3 -2 -4.5t-2 -3.5z" />
    <glyph glyph-name="Imacron" unicode="&#x12a;" horiz-adv-x="512" 
d="M289 1372h141l-180 -1372h-141zM147 1661h500l-14 -107h-500z" />
    <glyph glyph-name="imacron" unicode="&#x12b;" horiz-adv-x="448" 
d="M207 950l135 6l-125 -956h-135zM115 1262h405l-14 -111h-406z" />
    <glyph glyph-name="Ibreve" unicode="&#x12c;" horiz-adv-x="512" 
d="M289 1372h141l-180 -1372h-141zM680 1745l-82 41q-55 -96 -121 -133q-35 -17 -82 -17q-61 0 -97.5 35.5t-61.5 116.5l-95 -29q18 -112 80.5 -170.5t153.5 -58.5q213 0 305 215z" />
    <glyph glyph-name="ibreve" unicode="&#x12d;" horiz-adv-x="448" 
d="M207 950l135 6l-125 -956h-135zM592 1403l-92 18q-44 -134 -115 -180q-32 -16 -72 -16q-59 0 -85.5 45t-32.5 141l-95 -12q-2 -140 48 -215.5t145 -75.5q105 0 185 79t114 216z" />
    <glyph glyph-name="Iogonek" unicode="&#x12e;" horiz-adv-x="512" 
d="M291 1372h139l-180 -1372v-4q-225 -137 -225 -299q0 -34 17.5 -55.5t49.5 -24.5q75 -2 172 45l35 -84q-33 -20 -51.5 -30.5t-68 -26t-99.5 -15.5q-83 0 -134.5 44t-51.5 118q0 185 217 338l2 6z" />
    <glyph glyph-name="iogonek" unicode="&#x12f;" horiz-adv-x="448" 
d="M207 950l135 6l-125 -956q-201 -144 -201 -279q0 -32 17.5 -50.5t48.5 -20.5q73 -5 172 41l35 -80q-109 -72 -219 -72q-83 0 -134 42.5t-51 117.5q0 83 51 156.5t146 152.5zM213 1208q0 51 34 84t81 33q39 0 59.5 -20.5t20.5 -55.5q0 -52 -33 -84t-80 -32q-39 0 -60.5 21
t-21.5 54z" />
    <glyph glyph-name="Idotaccent" unicode="&#x130;" horiz-adv-x="512" 
d="M289 1372h141l-180 -1372h-141zM303 1626q0 41 28 75t83 34q33 0 54 -20.5t21 -53.5q0 -45 -28 -78t-78 -33q-36 0 -58 20.5t-22 55.5z" />
    <glyph glyph-name="dotlessi" unicode="&#x131;" horiz-adv-x="448" 
d="M207 950l135 6l-125 -956h-135z" />
    <glyph glyph-name="IJ" unicode="&#x132;" horiz-adv-x="1032" 
d="M289 1372h141l-180 -1372h-141zM809 1372h141l-176 -1333q-30 -242 -129.5 -364.5t-298.5 -139.5l-20 113q152 23 218 116.5t93 303.5z" />
    <glyph glyph-name="ij" unicode="&#x133;" horiz-adv-x="894" 
d="M207 950l135 6l-125 -956h-135zM213 1208q0 51 34 84t81 33q39 0 59.5 -20.5t20.5 -55.5q0 -52 -33 -84t-80 -32q-39 0 -60.5 21t-21.5 54zM653 950l138 6l-123 -946q-23 -174 -100.5 -290.5t-207.5 -208.5l-63 77q100 92 159.5 192t78.5 240zM659 1208q0 51 34 84t81 33
q39 0 59.5 -20.5t20.5 -55.5q0 -52 -33 -84t-80 -32q-39 0 -60.5 21t-21.5 54z" />
    <glyph glyph-name="Jcircumflex" unicode="&#x134;" horiz-adv-x="520" 
d="M297 1372h141l-176 -1333q-30 -242 -129.5 -364.5t-298.5 -139.5l-20 113q152 23 218 116.5t93 303.5zM369 1796l98 8l192 -235l-75 -62l-176 181l-246 -179l-58 70z" />
    <glyph glyph-name="jcircumflex" unicode="&#x135;" horiz-adv-x="448" 
d="M205 950l137 6l-123 -946q-23 -174 -100 -290.5t-207 -208.5l-64 77q100 92 159.5 192t78.5 240zM289 1446l96 6l176 -307l-80 -51l-155 237l-244 -239l-66 65z" />
    <glyph glyph-name="uni0136" unicode="&#x136;" horiz-adv-x="1093" 
d="M997 1372h148q-5 -31 -47 -76l-506 -510l311 -647q46 -93 58 -139h-142l-250 530l-75 158l-183 -182l-65 -506h-137l180 1372h137l-90 -682zM438 -528l-76 49q89 127 89 284v50l120 10q2 -18 2 -58q0 -191 -135 -335z" />
    <glyph glyph-name="uni0137" unicode="&#x137;" horiz-adv-x="901" 
d="M285 1534l135 4l-139 -1057l454 471h142q0 -30 -54 -80l-342 -340l269 -448q32 -58 32 -84h-137l-256 444l-129 -112l-43 -332h-135zM334 -528l-76 49q88 126 88 284v50l121 10q2 -18 2 -58q0 -191 -135 -335z" />
    <glyph glyph-name="kgreenlandic" unicode="&#x138;" horiz-adv-x="903" 
d="M207 952l135 2l-63 -479l462 477h142q0 -33 -52 -78l-352 -346l271 -444q32 -52 32 -84h-137l-256 444l-129 -112l-43 -332h-135z" />
    <glyph glyph-name="Lacute" unicode="&#x139;" horiz-adv-x="919" 
d="M289 1372h141l-164 -1251h547l-4 -121h-700zM680 1673l-2 -8l-424 -139l-31 90l410 170z" />
    <glyph glyph-name="lacute" unicode="&#x13a;" horiz-adv-x="481" 
d="M240 -23q-79 0 -115 50t-25 145l181 1362l135 4l-178 -1345q-6 -51 5.5 -74t43.5 -23q28 0 75 15l23 -99q-73 -35 -145 -35zM662 1837l-48 113l-409 -170l31 -90l423 139z" />
    <glyph glyph-name="uni013B" unicode="&#x13b;" horiz-adv-x="919" 
d="M289 1372h141l-164 -1251h547l-4 -121h-700zM373 -528l-76 49q88 126 88 284v50l121 10q2 -18 2 -58q0 -191 -135 -335z" />
    <glyph glyph-name="uni013C" unicode="&#x13c;" horiz-adv-x="481" 
d="M240 -23q-79 0 -115 50t-25 145l181 1362l135 4l-178 -1345q-6 -51 5.5 -74t43.5 -23q28 0 75 15l23 -99q-73 -35 -145 -35zM115 -528l-76 49q88 126 88 284v50l121 10q2 -18 2 -58q0 -191 -135 -335z" />
    <glyph glyph-name="Lcaron" unicode="&#x13d;" horiz-adv-x="909" 
d="M289 1372h141l-164 -1251h547l-4 -121h-700zM565 999l66 420l127 6l4 -8l-100 -418h-97z" />
    <glyph glyph-name="lcaron" unicode="&#x13e;" horiz-adv-x="485" 
d="M240 -23q-79 0 -115 50t-25 145l181 1362l135 4l-178 -1345q-6 -51 5.5 -74t43.5 -23q28 0 75 15l23 -99q-73 -35 -145 -35zM479 1120l66 420l127 6l4 -8l-101 -418h-96z" />
    <glyph glyph-name="Ldot" unicode="&#x13f;" horiz-adv-x="1077" 
d="M289 1372h141l-164 -1251h547l-4 -121h-700zM715 719q0 52 30.5 85.5t75.5 33.5q38 0 58 -22t20 -58q0 -52 -30.5 -84.5t-75.5 -32.5q-36 0 -57 21t-21 57z" />
    <glyph glyph-name="ldot" unicode="&#x140;" horiz-adv-x="724" 
d="M240 -23q-79 0 -115 50t-25 145l181 1362l135 4l-178 -1345q-6 -51 5.5 -74t43.5 -23q28 0 75 15l23 -99q-73 -35 -145 -35zM473 711q0 51 32 83.5t77 32.5q37 0 57 -21.5t20 -55.5q0 -53 -30.5 -86t-75.5 -33q-36 0 -58 22t-22 58z" />
    <glyph glyph-name="Lslash" unicode="&#x141;" horiz-adv-x="956" 
d="M16 543l215 125l93 704h141l-80 -614l336 196l47 -98l-401 -233l-66 -502h549l-6 -121h-701l70 532l-152 -88z" />
    <glyph glyph-name="lslash" unicode="&#x142;" horiz-adv-x="595" 
d="M309 -23q-162 0 -141 195l68 518l-138 -86l-43 88v6l199 125l94 711l135 4l-82 -623l183 113l45 -86l-2 -8l-242 -152l-78 -589q-8 -51 3.5 -74t43.5 -23q33 0 76 15l23 -99q-73 -35 -144 -35z" />
    <glyph glyph-name="Nacute" unicode="&#x143;" horiz-adv-x="1286" 
d="M289 1372h155l422 -1018l62 -176h2l18 225l127 969h131l-182 -1372h-150l-428 1030l-57 166h-4l-18 -217l-127 -979h-131zM1069 1673l-2 -8l-424 -139l-31 90l410 170z" />
    <glyph glyph-name="nacute" unicode="&#x144;" horiz-adv-x="1009" 
d="M193 948l114 10l4 -198q88 99 187 160t194 61q69 0 112 -25t59 -69t18.5 -104.5t-9.5 -131.5l-86 -651h-135l80 608q7 50 9.5 78t2.5 64.5t-7 56t-23.5 35t-42.5 18.5q-83 -4 -179 -67t-186 -162l-84 -631h-135l72 559q12 86 35 389zM856 1372l-2 -8l-358 -277l-60 70
l340 311z" />
    <glyph glyph-name="uni0145" unicode="&#x145;" horiz-adv-x="1286" 
d="M289 1372h155l422 -1018l62 -176h2l18 225l127 969h131l-182 -1372h-150l-428 1030l-57 166h-4l-18 -217l-127 -979h-131zM485 -528l-75 49q88 126 88 284v50l120 10q3 -27 3 -58q0 -190 -136 -335z" />
    <glyph glyph-name="uni0146" unicode="&#x146;" horiz-adv-x="1009" 
d="M193 948l114 10l4 -198q88 99 187 160t194 61q69 0 112 -25t59 -69t18.5 -104.5t-9.5 -131.5l-86 -651h-135l80 608q7 50 9.5 78t2.5 64.5t-7 56t-23.5 35t-42.5 18.5q-83 -4 -179 -67t-186 -162l-84 -631h-135l72 559q12 86 35 389zM352 -528l-76 49q89 127 89 284v50
l120 10q2 -18 2 -58q0 -191 -135 -335z" />
    <glyph glyph-name="Ncaron" unicode="&#x147;" horiz-adv-x="1286" 
d="M289 1372h155l422 -1018l62 -176h2l18 225l127 969h131l-182 -1372h-150l-428 1030l-57 166h-4l-18 -217l-127 -979h-131zM823 1524l-98 -8l-203 235l76 64l188 -181l256 178l58 -71z" />
    <glyph glyph-name="ncaron" unicode="&#x148;" horiz-adv-x="1009" 
d="M193 948l114 10l4 -198q88 99 187 160t194 61q69 0 112 -25t59 -69t18.5 -104.5t-9.5 -131.5l-86 -651h-135l80 608q7 50 9.5 78t2.5 64.5t-7 56t-23.5 35t-42.5 18.5q-83 -4 -179 -67t-186 -162l-84 -631h-135l72 559q12 86 35 389zM598 1110l-96 -6l-178 307l79 51
l158 -237l244 237l65 -63z" />
    <glyph glyph-name="napostrophe" unicode="&#x149;" horiz-adv-x="1009" 
d="M193 948l114 10l4 -198q88 99 187 160t194 61q69 0 112 -25t59 -69t18.5 -104.5t-9.5 -131.5l-86 -651h-135l80 608q7 50 9.5 78t2.5 64.5t-7 56t-23.5 35t-42.5 18.5q-83 -4 -179 -67t-186 -162l-84 -631h-135l72 559q12 86 35 389zM373 1356q-12 -86 -65 -157
t-134 -116l-43 62q97 77 117 203q8 52 8 118l121 11q6 -56 -4 -121z" />
    <glyph glyph-name="Eng" unicode="&#x14a;" horiz-adv-x="1288" 
d="M1206 1372l-188 -1423q-7 -52 -14 -92.5t-20 -91.5t-29.5 -89t-42.5 -76.5t-58.5 -62.5t-77.5 -39.5t-100 -15.5q-124 0 -227 63l36 99q105 -41 179 -41q77 0 122 37q71 79 103 315l4 29l-39 16l-405 1026l-60 170h-4l-18 -217l-127 -979h-131l180 1372h155l412 -1026
l59 -178h3l157 1204h131z" />
    <glyph glyph-name="eng" unicode="&#x14b;" horiz-adv-x="1011" 
d="M193 948l114 10l4 -198q88 99 187 160t194 61q91 0 137.5 -43.5t51.5 -116.5t-7 -170l-92 -678q-12 -89 -28 -156.5t-44.5 -133t-67.5 -108t-98 -68t-134 -25.5q-123 0 -238 67l43 103q1 -1 15.5 -6.5t18.5 -7t18 -7t21.5 -7.5t21.5 -6.5t24 -6t23 -4t25.5 -3.5t25.5 -1
q66 0 116 30q87 78 123 340l86 635q9 59 11.5 96t-1.5 74.5t-21.5 57.5t-49.5 24q-83 -4 -180.5 -67t-186.5 -162l-84 -631h-135l72 559q12 86 35 389z" />
    <glyph glyph-name="Omacron" unicode="&#x14c;" horiz-adv-x="1269" 
d="M113 514q0 158 46.5 316t127.5 285t202 206.5t259 79.5q210 0 323 -150.5t113 -396.5q0 -128 -28.5 -256t-84 -240t-130.5 -199t-175.5 -137.5t-212.5 -50.5q-142 0 -242.5 71t-149 192t-48.5 280zM1040 848q0 198 -79.5 313t-229.5 115q-104 0 -225 -84
q-117 -104 -184.5 -291.5t-67.5 -380.5q0 -200 80.5 -312t236.5 -112q111 0 222 84q114 102 180.5 290t66.5 378zM535 1661h499l-14 -107h-500z" />
    <glyph glyph-name="omacron" unicode="&#x14d;" horiz-adv-x="989" 
d="M84 365q0 106 33 214t92 198t150.5 147t197.5 57q162 0 245 -110.5t81 -286.5q-1 -107 -34.5 -215t-93 -197t-150.5 -145t-197 -56q-157 0 -241.5 108.5t-82.5 285.5zM743 580q2 129 -48.5 204.5t-157.5 75.5q-80 3 -146 -49q-77 -68 -122.5 -187.5t-47.5 -254.5
q0 -125 53 -201t154 -76q84 0 147 47q76 72 122 190t46 251zM348 1260h486l-17 -111h-483z" />
    <glyph glyph-name="Obreve" unicode="&#x14e;" horiz-adv-x="1269" 
d="M113 514q0 158 46.5 316t127.5 285t202 206.5t259 79.5q210 0 323 -150.5t113 -396.5q0 -128 -28.5 -256t-84 -240t-130.5 -199t-175.5 -137.5t-212.5 -50.5q-142 0 -242.5 71t-149 192t-48.5 280zM1040 848q0 198 -79.5 313t-229.5 115q-104 0 -225 -84
q-117 -104 -184.5 -291.5t-67.5 -380.5q0 -200 80.5 -312t236.5 -112q111 0 222 84q114 102 180.5 290t66.5 378zM1067 1745l-82 41q-55 -96 -121 -133q-35 -17 -82 -17q-61 0 -97.5 35.5t-61.5 116.5l-95 -29q18 -112 80.5 -170.5t153.5 -58.5q213 0 305 215z" />
    <glyph glyph-name="obreve" unicode="&#x14f;" horiz-adv-x="989" 
d="M84 365q0 106 33 214t92 198t150.5 147t197.5 57q162 0 245 -110.5t81 -286.5q-1 -107 -34.5 -215t-93 -197t-150.5 -145t-197 -56q-157 0 -241.5 108.5t-82.5 285.5zM743 580q2 129 -48.5 204.5t-157.5 75.5q-80 3 -146 -49q-77 -68 -122.5 -187.5t-47.5 -254.5
q0 -125 53 -201t154 -76q84 0 147 47q76 72 122 190t46 251zM879 1380l-91 31q-48 -120 -114 -164q-44 -24 -90 -24q-132 0 -148 188l-96 -14q5 -139 62.5 -214t168.5 -75q210 0 308 272z" />
    <glyph glyph-name="Ohungarumlaut" unicode="&#x150;" horiz-adv-x="1269" 
d="M113 514q0 158 46.5 316t127.5 285t202 206.5t259 79.5q210 0 323 -150.5t113 -396.5q0 -128 -28.5 -256t-84 -240t-130.5 -199t-175.5 -137.5t-212.5 -50.5q-142 0 -242.5 71t-149 192t-48.5 280zM1040 848q0 198 -79.5 313t-229.5 115q-104 0 -225 -84
q-117 -104 -184.5 -291.5t-67.5 -380.5q0 -200 80.5 -312t236.5 -112q111 0 222 84q114 102 180.5 290t66.5 378zM1210 1778l-90 82l-260 -279l68 -61l282 249v9zM883 1778l-88 82l-263 -279l68 -61l283 249v9z" />
    <glyph glyph-name="ohungarumlaut" unicode="&#x151;" horiz-adv-x="989" 
d="M84 365q0 106 33 214t92 198t150.5 147t197.5 57q162 0 245 -110.5t81 -286.5q-1 -107 -34.5 -215t-93 -197t-150.5 -145t-197 -56q-157 0 -241.5 108.5t-82.5 285.5zM743 580q2 129 -48.5 204.5t-157.5 75.5q-80 3 -146 -49q-77 -68 -122.5 -187.5t-47.5 -254.5
q0 -125 53 -201t154 -76q84 0 147 47q76 72 122 190t46 251zM948 1397l-98 65l-205 -321l74 -49l229 294v11zM659 1397l-98 65l-205 -321l74 -49l229 294v11z" />
    <glyph glyph-name="OE" unicode="&#x152;" horiz-adv-x="1652" 
d="M113 541q0 65 10 137.5t34.5 156t60.5 161.5t92.5 150.5t126 126.5t165 86t205.5 32q91 0 178 -19h666l-19 -121h-573l-64 -489h463l-14 -119h-465l-68 -522h568l-4 -121h-670q-95 -18 -203 -18q-158 0 -270.5 74t-165.5 198.5t-53 286.5zM635 104q58 0 133 11l152 1140
q-63 13 -125 13q-76 0 -147.5 -23t-119.5 -53q-73 -55 -128.5 -136.5t-85 -171t-44 -173.5t-14.5 -162q0 -208 95.5 -326.5t283.5 -118.5z" />
    <glyph glyph-name="oe" unicode="&#x153;" horiz-adv-x="1552" 
d="M84 365q1 84 21 171t61 166.5t95.5 142t130.5 99.5t161 37q113 0 185.5 -59.5t103.5 -163.5q67 105 161 164t209 59q119 0 188.5 -61t69.5 -168q0 -57 -20.5 -105.5t-55 -83t-84 -61.5t-102.5 -44t-115.5 -28.5t-118.5 -17t-116 -6.5q-2 -14 -2 -44q0 -111 37 -181.5
t108 -82.5q157 3 338 119l50 -90q-93 -70 -194 -110t-194 -40q-96 0 -159 55.5t-90 151.5q-133 -213 -346 -213q-157 0 -240.5 108t-81.5 286zM741 580q2 129 -48 204.5t-156 75.5q-79 3 -142 -43q-79 -67 -125.5 -189t-48.5 -259q0 -125 53 -201t152 -76q84 0 147 47
q76 72 122 190t46 251zM1022 809q-116 -113 -152 -301q467 14 467 227q0 64 -40.5 97.5t-104.5 33.5q-93 0 -170 -57z" />
    <glyph glyph-name="Racute" unicode="&#x154;" horiz-adv-x="1081" 
d="M475 694q138 0 232 47q84 47 128 124.5t44 172.5q0 119 -74.5 176.5t-226.5 57.5q-60 0 -164 -17l-72 -550q68 -11 133 -11zM289 1362q157 33 303 33q204 0 316 -89t112 -253q0 -150 -85.5 -269t-232.5 -174l170 -485q29 -81 37 -125h-143l-193 578q-47 -9 -94 -9
q-80 0 -153 15l-76 -584h-139zM928 1673l-2 -8l-424 -139l-31 90l410 170z" />
    <glyph glyph-name="racute" unicode="&#x155;" horiz-adv-x="708" 
d="M193 948l114 10l4 -233q141 250 303 250q60 0 107 -31l-43 -123q-30 15 -76 15q-139 0 -307 -281l-74 -555h-135l74 563q17 141 33 385zM764 1372l-2 -8l-359 -277l-59 70l340 311z" />
    <glyph glyph-name="uni0156" unicode="&#x156;" horiz-adv-x="1081" 
d="M475 694q138 0 232 47q84 47 128 124.5t44 172.5q0 119 -74.5 176.5t-226.5 57.5q-60 0 -164 -17l-72 -550q68 -11 133 -11zM289 1362q157 33 303 33q204 0 316 -89t112 -253q0 -150 -85.5 -269t-232.5 -174l170 -485q29 -81 37 -125h-143l-193 578q-47 -9 -94 -9
q-80 0 -153 15l-76 -584h-139zM414 -528l-76 49q88 126 88 284v50l121 10q2 -18 2 -58q0 -191 -135 -335z" />
    <glyph glyph-name="uni0157" unicode="&#x157;" horiz-adv-x="708" 
d="M193 948l114 10l4 -233q141 250 303 250q60 0 107 -31l-43 -123q-30 15 -76 15q-139 0 -307 -281l-74 -555h-135l74 563q17 141 33 385zM63 -528l-75 49q88 126 88 284v50l121 10q2 -18 2 -58q0 -190 -136 -335z" />
    <glyph glyph-name="Rcaron" unicode="&#x158;" horiz-adv-x="1081" 
d="M475 694q138 0 232 47q84 47 128 124.5t44 172.5q0 119 -74.5 176.5t-226.5 57.5q-60 0 -164 -17l-72 -550q68 -11 133 -11zM289 1362q157 33 303 33q204 0 316 -89t112 -253q0 -150 -85.5 -269t-232.5 -174l170 -485q29 -81 37 -125h-143l-193 578q-47 -9 -94 -9
q-80 0 -153 15l-76 -584h-139zM682 1524l-98 -8l-203 235l76 64l188 -181l256 178l57 -71z" />
    <glyph glyph-name="rcaron" unicode="&#x159;" horiz-adv-x="708" 
d="M193 948l114 10l4 -233q141 250 303 250q60 0 107 -31l-43 -123q-30 15 -76 15q-139 0 -307 -281l-74 -555h-135l74 563q17 141 33 385zM506 1110l-96 -6l-179 307l80 51l158 -237l244 237l65 -63z" />
    <glyph glyph-name="Sacute" unicode="&#x15a;" horiz-adv-x="1009" 
d="M186 1030q0 173 127 272t326 99q94 0 183.5 -23t146.5 -57l-54 -109q-124 62 -286 62q-170 0 -260 -107q-41 -58 -41 -129q0 -50 19 -92t59.5 -78.5t76.5 -61t95 -58.5q65 -36 109 -66t94 -77t76 -106.5t26 -129.5q0 -182 -125 -290t-326 -108q-115 0 -221 34.5
t-180 94.5l63 107q69 -51 160 -80t180 -29q93 0 167 35.5t112 95.5q32 59 32 125q-1 52 -20.5 95t-62.5 81t-84 64t-111 65q-62 35 -107 69t-87.5 79.5t-64.5 101.5t-22 121zM934 1673l-47 113l-410 -170l31 -90l424 139z" />
    <glyph glyph-name="sacute" unicode="&#x15b;" horiz-adv-x="792" 
d="M137 715q0 120 90 190t230 70q155 0 258 -90l-62 -97q-101 70 -207 70q-86 0 -133 -37q-41 -38 -41 -94q0 -12 2.5 -24t6 -21t11.5 -20.5t12.5 -18.5t17.5 -18t18.5 -16t21.5 -17t21 -15.5t24 -16t23 -15.5q46 -29 73 -47.5t61 -47.5t52 -55t30 -62.5t11 -76.5
q-3 -127 -98.5 -203t-239.5 -76q-169 0 -290 111l65 96q115 -92 236 -92q84 0 143 45q47 41 47 107q1 25 -9 48.5t-22 40t-41.5 40.5t-48.5 37.5t-63 42.5q-45 29 -73 51t-61 55.5t-49 72t-16 83.5zM776 1372l-80 96l-340 -311l60 -70l358 277z" />
    <glyph glyph-name="Scircumflex" unicode="&#x15c;" horiz-adv-x="1009" 
d="M186 1030q0 173 127 272t326 99q94 0 183.5 -23t146.5 -57l-54 -109q-124 62 -286 62q-170 0 -260 -107q-41 -58 -41 -129q0 -50 19 -92t59.5 -78.5t76.5 -61t95 -58.5q65 -36 109 -66t94 -77t76 -106.5t26 -129.5q0 -182 -125 -290t-326 -108q-115 0 -221 34.5
t-180 94.5l63 107q69 -51 160 -80t180 -29q93 0 167 35.5t112 95.5q32 59 32 125q-1 52 -20.5 95t-62.5 81t-84 64t-111 65q-62 35 -107 69t-87.5 79.5t-64.5 101.5t-22 121zM618 1796l99 8l192 -235l-75 -62l-177 181l-245 -179l-58 70z" />
    <glyph glyph-name="scircumflex" unicode="&#x15d;" horiz-adv-x="792" 
d="M137 715q0 120 90 190t230 70q155 0 258 -90l-62 -97q-101 70 -207 70q-86 0 -133 -37q-41 -38 -41 -94q0 -12 2.5 -24t6 -21t11.5 -20.5t12.5 -18.5t17.5 -18t18.5 -16t21.5 -17t21 -15.5t24 -16t23 -15.5q46 -29 73 -47.5t61 -47.5t52 -55t30 -62.5t11 -76.5
q-3 -127 -98.5 -203t-239.5 -76q-169 0 -290 111l65 96q115 -92 236 -92q84 0 143 45q47 41 47 107q1 25 -9 48.5t-22 40t-41.5 40.5t-48.5 37.5t-63 42.5q-45 29 -73 51t-61 55.5t-49 72t-16 83.5zM465 1446l96 6l176 -307l-80 -51l-155 237l-244 -239l-65 65z" />
    <glyph glyph-name="uni015E" unicode="&#x15e;" horiz-adv-x="1009" 
d="M186 1030q0 173 127 272t326 99q94 0 183.5 -23t146.5 -57l-54 -109q-124 62 -286 62q-170 0 -260 -107q-41 -58 -41 -129q0 -50 19 -92t59.5 -78.5t76.5 -61t95 -58.5q65 -36 109 -66t94 -77t76 -106.5t26 -129.5q0 -171 -111.5 -277.5t-294.5 -118.5l-51 -92q14 2 39 2
q75 0 121.5 -36.5t46.5 -102.5q0 -97 -100.5 -170.5t-284.5 -97.5l-25 86q277 59 283 184q-8 53 -100 53q-36 0 -72 -8l-35 53l66 131q-96 7 -183 40t-151 85l63 107q69 -51 160 -80t180 -29q93 0 167 35.5t112 95.5q32 59 32 125q-1 52 -20.5 95t-62.5 81t-84 64t-111 65
q-62 35 -107 69t-87.5 79.5t-64.5 101.5t-22 121z" />
    <glyph glyph-name="uni015F" unicode="&#x15f;" horiz-adv-x="792" 
d="M137 715q0 120 90 190t230 70q155 0 258 -90l-62 -97q-101 70 -207 70q-86 0 -133 -37q-41 -38 -41 -94q0 -12 2.5 -24t6 -21t11.5 -20.5t12.5 -18.5t17.5 -18t18.5 -16t21.5 -17t21 -15.5t24 -16t23 -15.5q46 -29 73 -47.5t61 -47.5t52 -55t30 -62.5t11 -76.5
q-3 -114 -81 -187t-201 -87l-56 -101q12 2 37 2q76 0 123 -36.5t47 -102.5q0 -97 -101.5 -170.5t-285.5 -97.5l-22 86q272 58 282 184q-11 53 -102 53q-36 0 -72 -8l-35 53l70 138q-136 18 -231 106l65 96q115 -92 236 -92q84 0 143 45q47 41 47 107q1 25 -9 48.5t-22 40
t-41.5 40.5t-48.5 37.5t-63 42.5q-45 29 -73 51t-61 55.5t-49 72t-16 83.5z" />
    <glyph glyph-name="Scaron" unicode="&#x160;" horiz-adv-x="1009" 
d="M186 1030q0 173 127 272t326 99q94 0 183.5 -23t146.5 -57l-54 -109q-124 62 -286 62q-170 0 -260 -107q-41 -58 -41 -129q0 -50 19 -92t59.5 -78.5t76.5 -61t95 -58.5q65 -36 109 -66t94 -77t76 -106.5t26 -129.5q0 -182 -125 -290t-326 -108q-115 0 -221 34.5
t-180 94.5l63 107q69 -51 160 -80t180 -29q93 0 167 35.5t112 95.5q32 59 32 125q-1 52 -20.5 95t-62.5 81t-84 64t-111 65q-62 35 -107 69t-87.5 79.5t-64.5 101.5t-22 121zM688 1524l-98 -8l-203 235l76 64l188 -181l256 178l58 -71z" />
    <glyph glyph-name="scaron" unicode="&#x161;" horiz-adv-x="792" 
d="M137 715q0 120 90 190t230 70q155 0 258 -90l-62 -97q-101 70 -207 70q-86 0 -133 -37q-41 -38 -41 -94q0 -12 2.5 -24t6 -21t11.5 -20.5t12.5 -18.5t17.5 -18t18.5 -16t21.5 -17t21 -15.5t24 -16t23 -15.5q46 -29 73 -47.5t61 -47.5t52 -55t30 -62.5t11 -76.5
q-3 -127 -98.5 -203t-239.5 -76q-169 0 -290 111l65 96q115 -92 236 -92q84 0 143 45q47 41 47 107q1 25 -9 48.5t-22 40t-41.5 40.5t-48.5 37.5t-63 42.5q-45 29 -73 51t-61 55.5t-49 72t-16 83.5zM518 1110l-96 -6l-178 307l80 51l157 -237l244 237l66 -63z" />
    <glyph glyph-name="uni0162" unicode="&#x162;" horiz-adv-x="1040" 
d="M141 1372h944l-16 -121h-395l-164 -1251h-10l-68 -119q14 2 39 2q75 0 121.5 -36.5t46.5 -102.5q0 -97 -100.5 -170.5t-284.5 -97.5l-25 86q277 59 283 184q-8 53 -100 53q-36 0 -72 -8l-35 53l78 156h-14l166 1251h-396z" />
    <glyph glyph-name="uni0163" unicode="&#x163;" horiz-adv-x="688" 
d="M90 846l12 98l152 8l70 281l100 2l-37 -283h287l-12 -106h-289l-82 -623q-8 -62 3.5 -92.5t47.5 -30.5q42 0 100.5 22t106.5 52l37 -90q-94 -71 -209 -96l-58 -107q12 2 37 2q76 0 123 -36.5t47 -102.5q0 -97 -101.5 -170.5t-285.5 -97.5l-22 86q272 58 282 184
q-11 53 -102 53q-36 0 -72 -8l-35 53l70 138q-131 24 -106 229l84 635h-148z" />
    <glyph glyph-name="Tcaron" unicode="&#x164;" horiz-adv-x="1040" 
d="M141 1372h944l-16 -121h-395l-164 -1251h-141l166 1251h-396zM692 1524l-98 -8l-203 235l76 64l188 -181l256 178l58 -71z" />
    <glyph glyph-name="tcaron" unicode="&#x165;" horiz-adv-x="688" 
d="M90 846l12 98l152 8l70 281l100 2l-37 -283h287l-12 -106h-289l-82 -623q-8 -62 3.5 -92.5t47.5 -30.5q42 0 100.5 22t106.5 52l37 -90q-58 -43 -136 -75t-153 -32q-85 0 -121 61t-22 173l84 635h-148zM526 1120l66 420l127 6l4 -8l-100 -418h-97z" />
    <glyph glyph-name="Tbar" unicode="&#x166;" horiz-adv-x="1073" 
d="M158 1372h944l-17 -121h-395l-67 -503h254l-15 -115h-254l-84 -633h-139l84 633h-254l16 115h252l68 503h-395z" />
    <glyph glyph-name="tbar" unicode="&#x167;" horiz-adv-x="696" 
d="M82 610h129l31 236h-148l12 98l152 8l70 281l100 2l-37 -283h287l-12 -106h-289l-31 -236h279l-13 -98h-278l-39 -289q-8 -62 3.5 -92.5t47.5 -30.5q42 0 100.5 22t106.5 52l37 -90q-58 -43 -136 -75t-153 -32q-85 0 -121 61t-22 173l39 301h-127z" />
    <glyph glyph-name="Utilde" unicode="&#x168;" horiz-adv-x="1214" 
d="M1006 1372h141l-119 -880q-15 -118 -48.5 -209t-91.5 -163.5t-149 -110.5t-211 -38q-61 0 -113.5 12t-90.5 34.5t-68.5 52.5t-50.5 67t-32.5 77t-17.5 83.5t-5 85.5t6 84l120 905h140l-117 -880q-58 -396 246 -396q132 0 217 74q48 46 80 122.5t43 164.5zM410 1569
q29 48 51 79t51 62.5t61.5 46.5t69.5 15q35 0 66.5 -21.5t50.5 -48t42 -49.5t42 -25q31 3 63.5 40.5t71.5 103.5l82 -48q-59 -106 -107 -156t-116 -50q-38 0 -71 21.5t-52 47.5t-41 49.5t-41 26.5q-33 -3 -68 -40.5t-78 -102.5z" />
    <glyph glyph-name="utilde" unicode="&#x169;" horiz-adv-x="995" 
d="M778 6l-114 -12l-5 194q-84 -96 -180 -156.5t-190 -60.5q-83 0 -128 40.5t-53 111t3 164.5l88 663l135 6l-82 -634q-18 -100 -6 -163.5t69 -66.5q77 4 172 68.5t179 158.5l84 633h137l-74 -557q-21 -196 -35 -389zM260 1163q51 99 101.5 151t119.5 52q35 0 66 -19.5
t50 -44t43 -49t46 -30.5q57 8 133 143l80 -43q-48 -99 -100 -153t-121 -54q-36 0 -66.5 20t-48.5 44.5t-42.5 49t-47.5 30.5q-54 -9 -133 -144z" />
    <glyph glyph-name="Umacron" unicode="&#x16a;" horiz-adv-x="1214" 
d="M1006 1372h141l-119 -880q-15 -118 -48.5 -209t-91.5 -163.5t-149 -110.5t-211 -38q-61 0 -113.5 12t-90.5 34.5t-68.5 52.5t-50.5 67t-32.5 77t-17.5 83.5t-5 85.5t6 84l120 905h140l-117 -880q-58 -396 246 -396q132 0 217 74q48 46 80 122.5t43 164.5zM485 1661h500
l-14 -107h-500z" />
    <glyph glyph-name="umacron" unicode="&#x16b;" horiz-adv-x="995" 
d="M778 6l-114 -12l-5 194q-84 -96 -180 -156.5t-190 -60.5q-83 0 -128 40.5t-53 111t3 164.5l88 663l135 6l-82 -634q-18 -100 -6 -163.5t69 -66.5q77 4 172 68.5t179 158.5l84 633h137l-74 -557q-21 -196 -35 -389zM332 1260h485l-16 -111h-484z" />
    <glyph glyph-name="Ubreve" unicode="&#x16c;" horiz-adv-x="1214" 
d="M1006 1372h141l-119 -880q-15 -118 -48.5 -209t-91.5 -163.5t-149 -110.5t-211 -38q-61 0 -113.5 12t-90.5 34.5t-68.5 52.5t-50.5 67t-32.5 77t-17.5 83.5t-5 85.5t6 84l120 905h140l-117 -880q-58 -396 246 -396q132 0 217 74q48 46 80 122.5t43 164.5zM1018 1745
l-82 41q-55 -96 -121 -133q-35 -17 -82 -17q-61 0 -98 36t-62 116l-94 -29q18 -112 80.5 -170.5t153.5 -58.5q213 0 305 215z" />
    <glyph glyph-name="ubreve" unicode="&#x16d;" horiz-adv-x="995" 
d="M778 6l-114 -12l-5 194q-84 -96 -180 -156.5t-190 -60.5q-83 0 -128 40.5t-53 111t3 164.5l88 663l135 6l-82 -634q-18 -100 -6 -163.5t69 -66.5q77 4 172 68.5t179 158.5l84 633h137l-74 -557q-21 -196 -35 -389zM862 1380q-98 -272 -307 -272q-111 0 -168.5 75
t-62.5 214l96 14q8 -91 42.5 -139.5t104.5 -48.5q47 0 90 24q68 45 115 164z" />
    <glyph glyph-name="Uring" unicode="&#x16e;" horiz-adv-x="1214" 
d="M1006 1372h141l-119 -880q-15 -118 -48.5 -209t-91.5 -163.5t-149 -110.5t-211 -38q-61 0 -113.5 12t-90.5 34.5t-68.5 52.5t-50.5 67t-32.5 77t-17.5 83.5t-5 85.5t6 84l120 905h140l-117 -880q-58 -396 246 -396q132 0 217 74q48 46 80 122.5t43 164.5zM530 1653
q0 93 68 161t178 68q83 0 130.5 -43t47.5 -117q0 -96 -65.5 -165.5t-177.5 -69.5q-83 0 -132 46t-49 120zM854 1712q0 84 -88 84q-50 0 -86 -22q-24 -18 -37.5 -49.5t-13.5 -63.5q0 -88 92 -88q56 0 92 31q41 38 41 108z" />
    <glyph glyph-name="uring" unicode="&#x16f;" horiz-adv-x="995" 
d="M778 6l-114 -12l-5 194q-84 -96 -180 -156.5t-190 -60.5q-83 0 -128 40.5t-53 111t3 164.5l88 663l135 6l-82 -634q-18 -100 -6 -163.5t69 -66.5q77 4 172 68.5t179 158.5l84 633h137l-74 -557q-21 -196 -35 -389zM365 1239q0 99 67 172.5t184 73.5q79 0 124.5 -46
t43.5 -116q0 -100 -63.5 -175t-181.5 -75q-80 0 -127 48t-47 118zM686 1311q0 38 -22 61t-62 23q-50 0 -84 -21q-53 -44 -53 -123q0 -90 90 -90q50 0 84 27q47 44 47 123z" />
    <glyph glyph-name="Uhungarumlaut" unicode="&#x170;" horiz-adv-x="1214" 
d="M1006 1372h141l-119 -880q-15 -118 -48.5 -209t-91.5 -163.5t-149 -110.5t-211 -38q-61 0 -113.5 12t-90.5 34.5t-68.5 52.5t-50.5 67t-32.5 77t-17.5 83.5t-5 85.5t6 84l120 905h140l-117 -880q-58 -396 246 -396q132 0 217 74q48 46 80 122.5t43 164.5zM1161 1778
l-90 82l-260 -279l68 -61l282 249v9zM834 1778l-89 82l-262 -279l68 -61l283 249v9z" />
    <glyph glyph-name="uhungarumlaut" unicode="&#x171;" horiz-adv-x="995" 
d="M778 6l-114 -12l-5 194q-84 -96 -180 -156.5t-190 -60.5q-83 0 -128 40.5t-53 111t3 164.5l88 663l135 6l-82 -634q-18 -100 -6 -163.5t69 -66.5q77 4 172 68.5t179 158.5l84 633h137l-74 -557q-21 -196 -35 -389zM932 1397v-11l-230 -294l-73 49l205 321zM643 1397v-11
l-229 -294l-74 49l205 321z" />
    <glyph glyph-name="Uogonek" unicode="&#x172;" horiz-adv-x="1214" 
d="M1028 492q-20 -158 -70 -259.5t-143 -177.5q-112 -92 -185 -188t-73 -168q0 -35 19.5 -56t54.5 -24q85 -3 166 37l34 -84q-107 -66 -221 -66q-83 0 -134.5 45.5t-51.5 120.5q0 142 184 303v2q-38 -6 -80 -6q-61 0 -113.5 12t-90.5 34.5t-68.5 52.5t-50.5 67t-32.5 77
t-17.5 83.5t-5 85.5t6 84l120 905h140l-117 -880q-58 -398 246 -398q132 0 219 76q48 46 79 122.5t42 164.5l121 915h141z" />
    <glyph glyph-name="uogonek" unicode="&#x173;" horiz-adv-x="995" 
d="M780 -33q-130 -67 -193 -126t-63 -117q0 -32 18.5 -52t47.5 -22q75 -5 174 41l33 -80q-109 -72 -219 -72q-83 0 -134 42.5t-51 117.5q0 84 71 157.5t200 143.5l-5 186q-84 -95 -180.5 -155t-189.5 -60q-83 0 -128 40.5t-53 111t3 164.5l88 665h137l-84 -630
q-7 -68 -9 -118t15.5 -80t56.5 -32q79 4 173 68t178 159l84 633h137l-74 -557q-17 -178 -33 -428z" />
    <glyph glyph-name="Wcircumflex" unicode="&#x174;" horiz-adv-x="1710" 
d="M1614 1372h139q-15 -52 -63 -174l-476 -1194l-178 -8l-84 997l-8 203l-6 -2l-440 -1190l-176 -8l-129 1194q-16 143 -19 182h137l101 -989l18 -207h6l441 1196h178l78 -989l12 -207h8zM969 1796l98 8l193 -235l-76 -62l-176 181l-246 -179l-57 70z" />
    <glyph glyph-name="wcircumflex" unicode="&#x175;" horiz-adv-x="1363" 
d="M119 868q-9 44 -6 84h133l92 -641l22 -155h7q186 260 288 567q-31 174 -28 229h133l94 -651l20 -145h7q282 407 305 796h129q0 -2 0.5 -21.5t-0.5 -19.5q-2 -78 -26 -176t-71 -215.5t-129.5 -253.5t-189.5 -264l-123 -4l-80 530h-6q-126 -306 -305 -526l-125 -4z
M733 1446l96 6l177 -307l-80 -51l-156 237l-244 -239l-65 65z" />
    <glyph glyph-name="Ycircumflex" unicode="&#x176;" horiz-adv-x="1001" 
d="M926 1372h143q-17 -39 -80 -137l-426 -674l-71 -561h-140l74 575l-236 664q-41 114 -45 133h140l172 -495l57 -168zM608 1796l99 8l192 -235l-76 -62l-176 181l-246 -179l-57 70z" />
    <glyph glyph-name="ycircumflex" unicode="&#x177;" horiz-adv-x="903" 
d="M-51 -506q-31 0 -55 4l18 119q110 3 213 92.5t219 284.5h-25l-208 874q-10 49 -5 84h132l141 -643l37 -174h8q277 480 291 817h129v-39q0 -114 -65.5 -310t-196.5 -437q-191 -352 -338.5 -512t-294.5 -160zM483 1446l97 6l176 -307l-80 -51l-156 237l-244 -239l-65 65z
" />
    <glyph glyph-name="Ydieresis" unicode="&#x178;" horiz-adv-x="1001" 
d="M926 1372h143q-17 -39 -80 -137l-426 -674l-71 -561h-140l74 575l-236 664q-41 114 -45 133h140l172 -495l57 -168zM371 1622q0 41 30 72.5t74 31.5q34 0 55 -19t21 -52q0 -42 -29 -73.5t-76 -31.5q-34 0 -54.5 18.5t-20.5 53.5zM707 1622q0 42 29 73t75 31
q33 0 53.5 -19t20.5 -52q0 -42 -29 -73.5t-74 -31.5q-36 0 -55.5 18.5t-19.5 53.5z" />
    <glyph glyph-name="Zacute" unicode="&#x179;" horiz-adv-x="1062" 
d="M219 1372h838l8 -119l-893 -1132h731l-2 -121h-887l-4 121l887 1130h-680zM942 1673l-2 -8l-424 -139l-31 90l410 170z" />
    <glyph glyph-name="zacute" unicode="&#x17a;" horiz-adv-x="827" 
d="M158 952h618q0 -52 -14 -90t-49 -82l-529 -674h490l-12 -106h-646q1 60 15.5 95.5t58.5 90.5l516 662h-463zM774 1372l-2 -8l-358 -277l-60 70l340 311z" />
    <glyph glyph-name="Zdotaccent" unicode="&#x17b;" horiz-adv-x="1062" 
d="M219 1372h838l8 -119l-893 -1132h731l-2 -121h-887l-4 121l887 1130h-680zM569 1626q0 41 28 75t83 34q33 0 54.5 -20.5t21.5 -53.5q0 -45 -28.5 -78t-78.5 -33q-36 0 -58 20.5t-22 55.5z" />
    <glyph glyph-name="zdotaccent" unicode="&#x17c;" horiz-adv-x="827" 
d="M158 952h618q0 -52 -14 -90t-49 -82l-529 -674h490l-12 -106h-646q1 60 15.5 95.5t58.5 90.5l516 662h-463zM385 1208q0 51 34 84t81 33q39 0 59.5 -20.5t20.5 -55.5q0 -52 -33 -84t-80 -32q-39 0 -60.5 21t-21.5 54z" />
    <glyph glyph-name="Zcaron" unicode="&#x17d;" horiz-adv-x="1062" 
d="M219 1372h838l8 -119l-893 -1132h731l-2 -121h-887l-4 121l887 1130h-680zM696 1524l-98 -8l-203 235l76 64l188 -181l256 178l58 -71z" />
    <glyph glyph-name="zcaron" unicode="&#x17e;" horiz-adv-x="827" 
d="M158 952h618q0 -52 -14 -90t-49 -82l-529 -674h490l-12 -106h-646q1 60 15.5 95.5t58.5 90.5l516 662h-463zM516 1110l-96 -6l-178 307l80 51l157 -237l244 237l65 -63z" />
    <glyph glyph-name="longs" unicode="&#x17f;" horiz-adv-x="532" 
d="M113 952h139l33 271q18 148 100.5 242t216.5 94q119 -3 205 -68l-55 -98q-71 45 -150 45q-73 0 -119 -43q-49 -59 -63 -178l-207 -1709h-135l162 1340h-142z" />
    <glyph glyph-name="uni018F" unicode="&#x18f;" horiz-adv-x="1114" 
d="M1018 913q0 -159 -19 -296.5t-61.5 -256.5t-105 -203t-153.5 -132t-204 -48q-102 0 -177 33t-118 93.5t-63.5 135.5t-20.5 167q0 143 47 321h729q9 85 9 176q0 177 -65.5 271t-215.5 94q-67 0 -136 -15.5t-106.5 -30t-86.5 -36.5q-9 -4 -13 -6l-39 104q197 111 406 111
q194 0 293.5 -125.5t99.5 -356.5zM481 100q108 0 189 62q66 59 114.5 176t73.5 270l-602 -2q-25 -92 -25 -200q0 -306 250 -306z" />
    <glyph glyph-name="uni0192" unicode="&#x192;" horiz-adv-x="821" 
d="M141 698h158l47 355q21 164 100 253t220 89q68 0 123 -28t90 -67l-58 -83q-74 59 -159 59q-70 0 -113 -43q-55 -57 -70 -178l-47 -357h230l-13 -112h-231l-82 -619q-19 -149 -92.5 -231t-194.5 -82t-205 84l56 88q68 -53 149 -53q129 0 154 194l82 619h-156z" />
    <glyph glyph-name="Ohorn" unicode="&#x1a0;" horiz-adv-x="1284" 
d="M113 514q0 158 46.5 316t127.5 285t202 206.5t259 79.5q91 0 172 -33q52 -16 100 -16q106 0 119 75q6 60 -25 138l117 12q33 -68 33 -137q0 -177 -185 -199q105 -147 105 -387q0 -128 -28.5 -256t-84 -240t-130.5 -199t-175.5 -137.5t-212.5 -50.5q-142 0 -242.5 71
t-149 192t-48.5 280zM1040 848q0 198 -79.5 313t-229.5 115q-104 0 -225 -84q-117 -104 -184.5 -291.5t-67.5 -380.5q0 -200 80.5 -312t236.5 -112q111 0 222 84q114 102 180.5 290t66.5 378z" />
    <glyph glyph-name="ohorn" unicode="&#x1a1;" horiz-adv-x="999" 
d="M84 365q0 106 33 214t92 198t150.5 147t197.5 57q81 0 152 -33q35 -14 69 -14q48 0 77.5 20t35.5 56q6 57 -25 125l105 12q30 -66 30 -123q0 -168 -174 -193q56 -98 56 -247q-1 -107 -34.5 -215t-93 -197t-150.5 -145t-197 -56q-157 0 -241.5 108.5t-82.5 285.5zM743 580
q2 129 -48.5 204.5t-157.5 75.5q-80 3 -146 -49q-77 -68 -122.5 -187.5t-47.5 -254.5q0 -125 53 -201t154 -76q84 0 147 47q76 72 122 190t46 251z" />
    <glyph glyph-name="Uhorn" unicode="&#x1af;" horiz-adv-x="1232" 
d="M1006 1372h49q126 0 139 76q3 66 -25 137l117 12q33 -68 33 -137q0 -170 -186 -198l-105 -770q-15 -118 -48.5 -209t-91.5 -163.5t-149 -110.5t-211 -38q-61 0 -113.5 12t-90.5 34.5t-68.5 52.5t-50.5 67t-32.5 77t-17.5 83.5t-5 85.5t6 84l120 905h140l-117 -880
q-58 -396 246 -396q132 0 217 74q48 46 80 122.5t43 164.5z" />
    <glyph glyph-name="uhorn" unicode="&#x1b0;" horiz-adv-x="1013" 
d="M778 6l-114 -12l-5 194q-84 -96 -180 -156.5t-190 -60.5q-83 0 -128 40.5t-53 111t3 164.5l88 663l135 6l-82 -634q-18 -100 -6 -163.5t69 -66.5q77 4 172 68.5t179 158.5l84 633h65q124 0 137 78q6 51 -24 125l104 12q31 -64 31 -125q0 -171 -191 -192l-59 -455
q-21 -196 -35 -389z" />
    <glyph glyph-name="uni01FA" unicode="&#x1fa;" horiz-adv-x="1103" 
d="M639 1214l-303 -696h424l-72 438l-43 258h-6zM573 1368l170 8l234 -1331q4 -36 4 -45h-137l-66 399h-495l-174 -399h-138q0 17 15 47zM494 1653q0 93 67.5 161t177.5 68q83 0 131 -43t48 -117q0 -96 -66 -165.5t-178 -69.5q-82 0 -131 46t-49 120zM817 1712q0 84 -88 84
q-50 0 -86 -22q-24 -18 -37.5 -49.5t-13.5 -63.5q0 -88 92 -88q56 0 92 31q41 38 41 108zM1034 2083l-2 -8l-424 -140l-30 90l409 170z" />
    <glyph glyph-name="aringacute" unicode="&#x1fb;" horiz-adv-x="962" 
d="M338 96q125 6 297 174l76 557q-84 33 -158 33q-60 0 -109 -22q-102 -58 -162.5 -193t-60.5 -303q0 -107 29 -174.5t88 -71.5zM82 319q0 180 62.5 331t177.5 241t258 90q132 0 274 -94l-78 -565q-15 -155 -24 -316l-115 -12l-6 156q-173 -177 -330 -177q-76 0 -126.5 50
t-71.5 125t-21 171zM397 1239q0 98 67 172t185 74q79 0 124.5 -46t43.5 -116q0 -100 -64 -175t-182 -75q-80 0 -127 48t-47 118zM719 1311q0 38 -22 61t-62 23q-49 0 -84 -21q-53 -44 -53 -123q0 -90 90 -90q50 0 84 27q47 44 47 123zM942 1692l-2 -9l-424 -139l-31 90
l410 170z" />
    <glyph glyph-name="uni01FC" unicode="&#x1fc;" horiz-adv-x="1634" 
d="M723 983l-277 -438h363l92 706h-14zM817 1372h815l-18 -121h-574l-63 -489h463l-15 -119h-464l-68 -522h567l-4 -121h-719l56 428h-420l-269 -428h-143q0 17 19 47zM1552 1673l-2 -8l-424 -139l-30 90l409 170z" />
    <glyph glyph-name="uni01FD" unicode="&#x1fd;" horiz-adv-x="1425" 
d="M41 186q0 338 580 373l10 103q9 100 -25 148t-127 48q-126 0 -282 -94l-50 88q172 125 365 125q102 0 162.5 -44.5t75.5 -125.5q141 174 337 174q119 0 187.5 -61.5t68.5 -163.5q0 -76 -33.5 -136t-89 -99t-133 -65t-161.5 -37t-178 -11h-17q-2 -16 -2 -50
q0 -112 38 -181t110 -79q77 0 168.5 33.5t166.5 85.5l50 -90q-193 -150 -390 -150q-86 0 -148 45.5t-95 127.5q-165 -175 -369 -175q-97 0 -158 56.5t-61 154.5zM897 811q-115 -112 -154 -301q85 0 162 11t148 35t113.5 69.5t43.5 107.5q0 63 -38.5 98t-104.5 35
q-95 0 -170 -55zM596 336q0 67 8 119q-235 -14 -350 -82q-80 -63 -80 -164q0 -56 32.5 -87.5t88.5 -31.5q73 0 153.5 42t153.5 124q-6 38 -6 80zM1124 1372l-2 -8l-358 -277l-59 70l339 311z" />
    <glyph glyph-name="Oslashacute" unicode="&#x1fe;" horiz-adv-x="1269" 
d="M100 -59l121 186q-108 144 -108 387q0 126 29 253.5t85.5 240.5t132.5 201.5t177.5 140t212.5 51.5q144 0 249 -78l107 162l90 -62l-119 -180q107 -143 107 -389q0 -128 -28.5 -256t-84 -240t-130.5 -199t-175.5 -137.5t-212.5 -50.5q-150 0 -254 80l-111 -168zM256 520
q0 -163 51 -262l617 946q-75 72 -193 72q-106 0 -223 -84q-118 -104 -185 -291t-67 -381zM1040 848q0 158 -49 262l-618 -944q79 -70 198 -70q115 0 222 84q114 102 180.5 290t66.5 378zM1065 1673l-2 -8l-424 -139l-31 90l410 170z" />
    <glyph glyph-name="oslashacute" unicode="&#x1ff;" horiz-adv-x="989" 
d="M98 -78l84 139q-101 107 -98 304q0 106 33 214t92 198t150.5 147t197.5 57q91 0 156 -35l82 135l84 -53l-88 -145q95 -109 92 -299q-1 -107 -34.5 -215t-93 -197t-150.5 -145t-197 -56q-81 0 -148 31l-80 -133zM221 369q0 -111 39 -179l385 641q-47 29 -108 29
q-80 3 -146 -49q-77 -68 -122.5 -187.5t-47.5 -254.5zM743 580q0 113 -30 172l-383 -635q42 -25 98 -25q84 0 147 47q76 72 122 190t46 251zM883 1372l-2 -8l-359 -277l-59 70l340 311z" />
    <glyph glyph-name="uni0218" unicode="&#x218;" horiz-adv-x="1009" 
d="M186 1030q0 173 127 272t326 99q94 0 183.5 -23t146.5 -57l-54 -109q-124 62 -286 62q-170 0 -260 -107q-41 -58 -41 -129q0 -50 19 -92t59.5 -78.5t76.5 -61t95 -58.5q65 -36 109 -66t94 -77t76 -106.5t26 -129.5q0 -182 -125 -290t-326 -108q-115 0 -221 34.5
t-180 94.5l63 107q69 -51 160 -80t180 -29q93 0 167 35.5t112 95.5q32 59 32 125q-1 52 -20.5 95t-62.5 81t-84 64t-111 65q-62 35 -107 69t-87.5 79.5t-64.5 101.5t-22 121zM346 -528l-76 49q88 126 88 284v50l121 10q2 -18 2 -58q0 -191 -135 -335z" />
    <glyph glyph-name="uni0219" unicode="&#x219;" horiz-adv-x="792" 
d="M137 715q0 120 90 190t230 70q155 0 258 -90l-62 -97q-101 70 -207 70q-86 0 -133 -37q-41 -38 -41 -94q0 -12 2.5 -24t6 -21t11.5 -20.5t12.5 -18.5t17.5 -18t18.5 -16t21.5 -17t21 -15.5t24 -16t23 -15.5q46 -29 73 -47.5t61 -47.5t52 -55t30 -62.5t11 -76.5
q-3 -127 -98.5 -203t-239.5 -76q-169 0 -290 111l65 96q115 -92 236 -92q84 0 143 45q47 41 47 107q1 25 -9 48.5t-22 40t-41.5 40.5t-48.5 37.5t-63 42.5q-45 29 -73 51t-61 55.5t-49 72t-16 83.5zM246 -528l-76 49q88 126 88 284v50l121 10q2 -18 2 -58q0 -191 -135 -335z
" />
    <glyph glyph-name="uni021A" unicode="&#x21a;" horiz-adv-x="1040" 
d="M141 1372h944l-16 -121h-395l-164 -1251h-141l166 1251h-396zM350 -528l-76 49q88 126 88 284v50l121 10q2 -18 2 -58q0 -191 -135 -335z" />
    <glyph glyph-name="uni021B" unicode="&#x21b;" horiz-adv-x="688" 
d="M90 846l12 98l152 8l70 281l100 2l-37 -283h287l-12 -106h-289l-82 -623q-8 -62 3.5 -92.5t47.5 -30.5q42 0 100.5 22t106.5 52l37 -90q-58 -43 -136 -75t-153 -32q-85 0 -121 61t-22 173l84 635h-148zM246 -528l-76 49q88 126 88 284v50l121 10q2 -18 2 -58
q0 -191 -135 -335z" />
    <glyph glyph-name="dotlessj" unicode="&#x237;" horiz-adv-x="448" 
d="M205 950l137 6l-123 -946q-23 -174 -100 -290.5t-207 -208.5l-64 77q100 92 159.5 192t78.5 240z" />
    <glyph glyph-name="uni0259" unicode="&#x259;" horiz-adv-x="903" 
d="M145 846q177 135 367 135q137 0 210 -99t73 -264q0 -137 -32 -254t-92 -203.5t-152 -135t-206 -48.5q-121 0 -189.5 62t-68.5 168q0 58 20 107t53.5 83t82.5 60.5t100.5 43t113 27t116 15.5t114.5 6q2 16 2 53q0 112 -37 180.5t-112 77.5q-144 0 -318 -106zM328 92
q91 0 159 41q125 91 158 318q-455 -14 -455 -232q0 -61 38.5 -94t99.5 -33z" />
    <glyph glyph-name="uni02BC" unicode="&#x2bc;" horiz-adv-x="2" 
d="M190 1356q-12 -86 -64.5 -157t-133.5 -116l-43 62q97 77 117 203q8 52 8 118l121 11q6 -52 -5 -121z" />
    <glyph glyph-name="circumflex" unicode="&#x2c6;" horiz-adv-x="817" 
d="M489 1446l97 6l176 -307l-80 -51l-156 237l-243 -239l-66 65z" />
    <glyph glyph-name="caron" unicode="&#x2c7;" horiz-adv-x="817" 
d="M543 1110l-97 -6l-178 307l80 51l158 -237l244 237l65 -63z" />
    <glyph glyph-name="uni02C9" unicode="&#x2c9;" horiz-adv-x="0" 
d="M-139 1260h485l-16 -111h-484z" />
    <glyph glyph-name="uni02CA" unicode="&#x2ca;" horiz-adv-x="0" 
d="M391 1372l-80 96l-340 -311l60 -70l358 277z" />
    <glyph glyph-name="uni02CB" unicode="&#x2cb;" horiz-adv-x="0" 
d="M254 1157l-342 311l-78 -96l2 -8l359 -277z" />
    <glyph glyph-name="breve" unicode="&#x2d8;" horiz-adv-x="817" 
d="M801 1380l-90 31q-47 -119 -115 -164q-44 -24 -90 -24q-132 0 -148 188l-96 -14q5 -138 62.5 -213.5t169.5 -75.5q209 0 307 272z" />
    <glyph glyph-name="dotaccent" unicode="&#x2d9;" horiz-adv-x="819" 
d="M412 1208q0 51 33.5 84t80.5 33q39 0 59.5 -20.5t20.5 -55.5q0 -52 -32.5 -84t-79.5 -32q-39 0 -60.5 21t-21.5 54z" />
    <glyph glyph-name="ring" unicode="&#x2da;" horiz-adv-x="817" 
d="M303 1239q0 98 67 172t185 74q79 0 124.5 -46t43.5 -116q0 -100 -64 -175t-182 -75q-80 0 -127 48t-47 118zM625 1311q0 38 -22 61t-62 23q-49 0 -84 -21q-54 -45 -54 -123q0 -90 91 -90q50 0 84 27q47 44 47 123z" />
    <glyph glyph-name="ogonek" unicode="&#x2db;" horiz-adv-x="817" 
d="M-41 -305q0 106 90.5 197.5t247.5 177.5l53 -68q-262 -145 -262 -281q0 -33 18 -51t50 -20q68 -4 174 39l30 -78q-104 -72 -217 -72q-83 0 -133.5 41t-50.5 115z" />
    <glyph glyph-name="tilde" unicode="&#x2dc;" horiz-adv-x="817" 
d="M199 1163q51 99 101.5 151t119.5 52q35 0 66 -19.5t50 -44t43 -49t46 -30.5q57 8 133 143l80 -43q-47 -99 -100 -153t-122 -54q-36 0 -66.5 20t-48.5 44.5t-42 49t-47 30.5q-54 -9 -133 -144z" />
    <glyph glyph-name="hungarumlaut" unicode="&#x2dd;" horiz-adv-x="817" 
d="M870 1397l-98 65l-205 -321l74 -49l229 294v11zM582 1397l-99 65l-204 -321l73 -49l230 294v11z" />
    <glyph glyph-name="uni0300" unicode="&#x300;" horiz-adv-x="0" 
d="M254 1157l-342 311l-78 -96l2 -8l359 -277z" />
    <glyph glyph-name="uni0301" unicode="&#x301;" horiz-adv-x="0" 
d="M391 1372l-80 96l-340 -311l60 -70l358 277z" />
    <glyph glyph-name="uni0302" unicode="&#x302;" horiz-adv-x="0" 
d="M80 1446l96 6l176 -307l-80 -51l-155 237l-244 -239l-66 65z" />
    <glyph glyph-name="uni0303" unicode="&#x303;" horiz-adv-x="0" 
d="M-211 1163q51 99 101.5 151t119.5 52q35 0 66 -19.5t50 -44t43 -49t46 -30.5q57 8 133 143l80 -43q-48 -99 -100 -153t-121 -54q-36 0 -66.5 20t-48.5 44.5t-42.5 49t-47.5 30.5q-54 -9 -133 -144z" />
    <glyph glyph-name="uni0304" unicode="&#x304;" horiz-adv-x="0" 
d="M-139 1260h485l-16 -111h-484z" />
    <glyph glyph-name="uni0306" unicode="&#x306;" horiz-adv-x="0" 
d="M391 1380l-90 31q-47 -119 -115 -164q-44 -24 -90 -24q-70 0 -104.5 48.5t-42.5 139.5l-96 -14q5 -139 62.5 -214t168.5 -75q209 0 307 272z" />
    <glyph glyph-name="uni0307" unicode="&#x307;" horiz-adv-x="0" 
d="M2 1208q0 51 34 84t81 33q39 0 59.5 -20.5t20.5 -55.5q0 -52 -33 -84t-80 -32q-39 0 -60.5 21t-21.5 54z" />
    <glyph glyph-name="uni0308" unicode="&#x308;" horiz-adv-x="0" 
d="M-156 1208q0 45 30 77t75 32q34 0 52.5 -19t18.5 -51q0 -45 -28.5 -76.5t-73.5 -31.5q-35 0 -54.5 19t-19.5 50zM174 1208q0 45 29 77t73 32q34 0 53 -19t19 -51q0 -45 -28.5 -76.5t-73.5 -31.5q-34 0 -53 18.5t-19 50.5z" />
    <glyph glyph-name="uni0309" unicode="&#x309;" horiz-adv-x="0" 
d="M2 1348l-16 86q58 20 110 20q74 0 119 -37t45 -106q0 -97 -70 -156t-186 -70l-10 86q84 14 121 48q30 26 30 77q0 64 -71 64q-28 0 -72 -12z" />
    <glyph glyph-name="uni030A" unicode="&#x30a;" horiz-adv-x="0" 
d="M-106 1239q0 99 67 172.5t184 73.5q79 0 124.5 -46t43.5 -116q0 -100 -63.5 -175t-181.5 -75q-80 0 -127 48t-47 118zM215 1311q0 38 -22 61t-62 23q-49 0 -84 -21q-53 -44 -53 -123q0 -90 90 -90q50 0 84 27q47 44 47 123z" />
    <glyph glyph-name="uni030B" unicode="&#x30b;" horiz-adv-x="0" 
d="M461 1397l-99 65l-204 -321l73 -49l230 294v11zM172 1397l-98 65l-205 -321l74 -49l229 294v11z" />
    <glyph glyph-name="uni030C" unicode="&#x30c;" horiz-adv-x="0" 
d="M133 1110l-96 -6l-178 307l80 51l157 -237l244 237l66 -63z" />
    <glyph glyph-name="uni031B" unicode="&#x31b;" horiz-adv-x="0" 
d="M80 1155l102 12q33 -68 33 -125q0 -97 -63.5 -146.5t-184.5 -49.5h-33l15 106h16q126 0 139 78q3 57 -24 125z" />
    <glyph glyph-name="uni0323" unicode="&#x323;" horiz-adv-x="0" 
d="M-199 -313q0 50 33.5 82t81.5 32q37 0 56.5 -20t19.5 -53q0 -52 -32 -83.5t-79 -31.5q-39 0 -59.5 20.5t-20.5 53.5z" />
    <glyph glyph-name="uni0326" unicode="&#x326;" horiz-adv-x="0" 
d="M-147 -528l-76 49q88 126 88 284v50l121 10q2 -18 2 -58q0 -191 -135 -335z" />
    <glyph glyph-name="uni0327" unicode="&#x327;" horiz-adv-x="0" 
d="M-203 -156l101 195l98 -31l-70 -127q12 2 37 2q76 0 123 -36.5t47 -102.5q0 -97 -101.5 -170.5t-285.5 -97.5l-22 86q272 58 282 184q-11 53 -102 53q-36 0 -72 -8z" />
    <glyph glyph-name="uni0328" unicode="&#x328;" horiz-adv-x="0" 
d="M-451 -305q0 106 90.5 197.5t247.5 177.5l54 -68q-263 -146 -263 -281q0 -33 18 -51t50 -20q68 -4 174 39l31 -78q-104 -72 -217 -72q-84 0 -134.5 41t-50.5 115z" />
    <glyph glyph-name="uni0335" unicode="&#x335;" horiz-adv-x="0" 
d="M-311 360l14 99h592l-14 -99h-592z" />
    <glyph glyph-name="a.sups" unicode="&#x1d43;" horiz-adv-x="671" 
d="M326 932q37 3 83.5 29t88.5 65l45 320q-41 14 -88 14q-38 0 -70 -14q-58 -35 -90.5 -112t-32.5 -171q0 -125 64 -131zM139 1044q-2 176 92 294t244 118q93 0 193 -57l-45 -338q-11 -80 -15 -207l-98 -12l-10 96q-111 -107 -209 -107q-72 0 -112 61t-40 152z" />
    <glyph glyph-name="b.sups" unicode="&#x1d47;" horiz-adv-x="671" 
d="M262 1784l119 2l-55 -424q98 94 196 94q75 0 113.5 -60t38.5 -155q2 -174 -93.5 -290.5t-244.5 -116.5q-102 0 -195 38zM358 930q58 0 97 28q45 42 71.5 112t26.5 151q0 131 -66 137q-75 -3 -176 -96l-43 -322q48 -10 90 -10z" />
    <glyph glyph-name="d.sups" unicode="&#x1d48;" horiz-adv-x="675" 
d="M324 932q75 6 176 96l43 318q-43 14 -88 14q-37 0 -76 -17q-55 -37 -87 -111.5t-32 -166.5q0 -59 16.5 -94.5t47.5 -38.5zM139 1047q-2 175 91 292t241 117q39 0 84 -10l45 338l119 2l-94 -717q-10 -70 -17 -215l-96 -12l-10 98q-116 -109 -213 -109q-72 0 -111 62
t-39 154z" />
    <glyph glyph-name="e.sups" unicode="&#x1d49;" horiz-adv-x="630" 
d="M139 1065q0 162 92.5 276.5t237.5 114.5q83 0 129.5 -39t46.5 -108q0 -61 -35.5 -106t-95.5 -68.5t-122.5 -34.5t-133.5 -13v-8q0 -132 84 -147q102 -3 215 63l35 -73q-127 -86 -256 -86q-94 0 -145.5 61t-51.5 168zM352 1333q-67 -64 -86 -172q271 13 271 133
q0 37 -23.5 54.5t-62.5 17.5q-54 0 -99 -33z" />
    <glyph glyph-name="g.sups" unicode="&#x1d4d;" horiz-adv-x="669" 
d="M324 932q72 3 176 96l41 318q-41 14 -90 14q-41 0 -66 -14q-57 -35 -91 -111t-34 -168q0 -58 16 -95t48 -40zM139 1049q-2 174 92 290.5t240 116.5q93 0 197 -57l-70 -525q-22 -164 -92.5 -251.5t-212.5 -87.5q-99 0 -189 51l37 88q93 -39 160 -39q56 0 102 27
q55 52 76 206l8 60q-104 -97 -196 -97q-72 0 -112 59.5t-40 158.5z" />
    <glyph glyph-name="k.sups" unicode="&#x1d4f;" horiz-adv-x="634" 
d="M264 1784l119 2l-82 -627l270 279h121q0 -25 -37 -58l-213 -204l166 -265q23 -38 23 -63h-119l-152 254l-73 -60l-27 -194h-119z" />
    <glyph glyph-name="m.sups" unicode="&#x1d50;" horiz-adv-x="1044" 
d="M209 1434l96 10l10 -117q115 129 238 129q111 0 121 -123q116 123 233 123q72 0 100 -52t17 -142l-53 -414h-119l49 385q10 54 4.5 86.5t-35.5 36.5q-91 -5 -204 -125l-48 -383h-120l51 383q9 52 3 87t-38 38q-84 -3 -201 -123l-51 -385h-119l45 338q21 242 21 248z" />
    <glyph glyph-name="o.sups" unicode="&#x1d52;" horiz-adv-x="681" 
d="M139 1075q0 64 21 130t59.5 122.5t101 92.5t138.5 36q111 0 168 -69.5t55 -178.5q0 -64 -21 -129.5t-60 -121t-101.5 -91t-137.5 -35.5q-107 0 -165 68t-58 176zM561 1208q0 156 -119 156q-49 0 -86 -29q-44 -39 -70 -111t-26 -149q0 -70 30.5 -110.5t90.5 -40.5
q47 0 86 28q44 41 69 110t25 146z" />
    <glyph glyph-name="p.sups" unicode="&#x1d56;" horiz-adv-x="677" 
d="M362 928q46 0 78 16q55 36 86 111.5t31 167.5q0 129 -63 135q-77 -3 -179 -94l-41 -324q44 -12 88 -12zM678 1241q2 -172 -92 -291t-238 -119q-35 0 -86 15l-39 -295h-121l88 666q10 77 17 215l98 14l8 -98q113 108 211 108q78 0 116 -60.5t38 -154.5z" />
    <glyph glyph-name="t.sups" unicode="&#x1d57;" horiz-adv-x="520" 
d="M143 1352l9 78l98 8l53 180h86l-22 -180h182l-10 -86h-185l-45 -357q-9 -59 33 -59t123 37l31 -68q-96 -69 -199 -69q-127 0 -109 151l48 365h-93z" />
    <glyph glyph-name="u.sups" unicode="&#x1d58;" horiz-adv-x="696" 
d="M627 854l-99 -12l-10 119q-54 -59 -117 -94.5t-125 -35.5q-139 0 -116 195l53 412h119l-49 -385q-10 -52 -4 -85t34 -36q42 3 100.5 38.5t106.5 86.5l51 381h119l-43 -336q-8 -68 -20 -248z" />
    <glyph glyph-name="v.sups" unicode="&#x1d5b;" horiz-adv-x="624" 
d="M545 1438h112v-27q0 -96 -77.5 -253.5t-214.5 -307.5l-111 -4l-92 532q-7 36 -2 60h114l56 -371l10 -102h4q190 266 201 473z" />
    <glyph glyph-name="i.sinf" unicode="&#x1d62;" horiz-adv-x="339" 
d="M100 487l119 5l-78 -594h-118zM106 666q0 39 27.5 62.5t67.5 23.5q30 0 46.5 -16t16.5 -42q0 -39 -26.5 -62.5t-65.5 -23.5q-31 0 -48.5 16t-17.5 42z" />
    <glyph glyph-name="r.sinf" unicode="&#x1d63;" horiz-adv-x="505" 
d="M90 483l92 11l13 -136q89 144 190 144q42 0 70 -21l-31 -104q-30 10 -51 10q-90 0 -185 -147l-45 -342h-118l45 342q7 53 20 243z" />
    <glyph glyph-name="u.sinf" unicode="&#x1d64;" horiz-adv-x="696" 
d="M510 -96l-98 -13l-11 119q-119 -129 -241 -129q-140 0 -117 195l53 411h119l-49 -385q-10 -52 -4 -84.5t35 -35.5q42 3 100 38.5t106 85.5l52 381h118l-43 -335q-8 -68 -20 -248z" />
    <glyph glyph-name="v.sinf" unicode="&#x1d65;" horiz-adv-x="624" 
d="M426 487h113v-26q0 -96 -77.5 -253.5t-215.5 -307.5l-111 -4l-92 532q-7 36 -2 59h115l55 -370l10 -103h4q190 266 201 473z" />
    <glyph glyph-name="Wgrave" unicode="&#x1e80;" horiz-adv-x="1710" 
d="M1614 1372h139q-15 -52 -63 -174l-476 -1194l-178 -8l-84 997l-8 203l-6 -2l-440 -1190l-176 -8l-129 1194q-16 143 -19 182h137l101 -989l18 -207h6l441 1196h178l78 -989l12 -207h8zM1161 1616l-413 170l-46 -113v-8l424 -139z" />
    <glyph glyph-name="wgrave" unicode="&#x1e81;" horiz-adv-x="1363" 
d="M119 868q-9 44 -6 84h133l92 -641l22 -155h7q186 260 288 567q-31 174 -28 229h133l94 -651l20 -145h7q282 407 305 796h129q0 -2 0.5 -21.5t-0.5 -19.5q-2 -78 -26 -176t-71 -215.5t-129.5 -253.5t-189.5 -264l-123 -4l-80 530h-6q-126 -306 -305 -526l-125 -4z
M907 1157l-342 311l-78 -96l2 -8l359 -277z" />
    <glyph glyph-name="Wacute" unicode="&#x1e82;" horiz-adv-x="1710" 
d="M1614 1372h139q-15 -52 -63 -174l-476 -1194l-178 -8l-84 997l-8 203l-6 -2l-440 -1190l-176 -8l-129 1194q-16 143 -19 182h137l101 -989l18 -207h6l441 1196h178l78 -989l12 -207h8zM1284 1673l-47 113l-410 -170l31 -90l424 139z" />
    <glyph glyph-name="wacute" unicode="&#x1e83;" horiz-adv-x="1363" 
d="M119 868q-9 44 -6 84h133l92 -641l22 -155h7q186 260 288 567q-31 174 -28 229h133l94 -651l20 -145h7q282 407 305 796h129q0 -2 0.5 -21.5t-0.5 -19.5q-2 -78 -26 -176t-71 -215.5t-129.5 -253.5t-189.5 -264l-123 -4l-80 530h-6q-126 -306 -305 -526l-125 -4z
M1044 1372l-79 96l-340 -311l59 -70l358 277z" />
    <glyph glyph-name="Wdieresis" unicode="&#x1e84;" horiz-adv-x="1710" 
d="M1614 1372h139q-15 -52 -63 -174l-476 -1194l-178 -8l-84 997l-8 203l-6 -2l-440 -1190l-176 -8l-129 1194q-16 143 -19 182h137l101 -989l18 -207h6l441 1196h178l78 -989l12 -207h8zM731 1622q0 41 30.5 72.5t74.5 31.5q34 0 54.5 -19t20.5 -52q0 -42 -28.5 -73.5
t-75.5 -31.5q-35 0 -55.5 19t-20.5 53zM1067 1622q0 42 29 73t75 31q33 0 53.5 -19t20.5 -52q0 -42 -28.5 -73.5t-73.5 -31.5q-36 0 -56 18.5t-20 53.5z" />
    <glyph glyph-name="wdieresis" unicode="&#x1e85;" horiz-adv-x="1363" 
d="M119 868q-9 44 -6 84h133l92 -641l22 -155h7q186 260 288 567q-31 174 -28 229h133l94 -651l20 -145h7q282 407 305 796h129q0 -2 0.5 -21.5t-0.5 -19.5q-2 -78 -26 -176t-71 -215.5t-129.5 -253.5t-189.5 -264l-123 -4l-80 530h-6q-126 -306 -305 -526l-125 -4z
M498 1208q0 45 29.5 77t74.5 32q34 0 53 -19t19 -51q0 -45 -29 -76.5t-74 -31.5q-35 0 -54 19t-19 50zM827 1208q0 45 29.5 77t73.5 32q34 0 52.5 -19t18.5 -51q0 -45 -28.5 -76.5t-73.5 -31.5q-35 0 -53.5 18.5t-18.5 50.5z" />
    <glyph glyph-name="uni1E9E" unicode="&#x1e9e;" horiz-adv-x="1267" 
d="M1188 1253l-2 -22l-363 -488q63 -13 119 -40t103.5 -69.5t75.5 -106.5t28 -142q0 -182 -122 -295t-310 -113q-173 0 -283 72l47 109q98 -60 236 -60q123 0 205 66q42 37 66 93.5t24 121.5q0 239 -330 285l-4 81l336 455q-117 76 -299 76q-135 0 -215 -59
q-103 -85 -138 -334l-114 -883h-139l116 895q35 261 155 383.5t341 122.5q140 -1 266.5 -44.5t200.5 -103.5z" />
    <glyph glyph-name="uni1EA2" unicode="&#x1ea2;" horiz-adv-x="1103" 
d="M639 1214l-303 -696h424l-72 438l-43 258h-6zM573 1368l170 8l234 -1331q4 -36 4 -45h-137l-66 399h-495l-174 -399h-138q0 17 15 47zM571 1755l-16 86q61 21 111 21q72 0 114.5 -37t42.5 -103q0 -91 -66.5 -142t-183.5 -62l-12 86q91 18 125 43q25 25 25 61q0 59 -66 59
q-31 0 -74 -12z" />
    <glyph glyph-name="uni1EA3" unicode="&#x1ea3;" horiz-adv-x="962" 
d="M338 96q125 6 297 174l76 557q-84 33 -158 33q-60 0 -109 -22q-102 -58 -162.5 -193t-60.5 -303q0 -107 29 -174.5t88 -71.5zM82 319q0 180 62.5 331t177.5 241t258 90q132 0 274 -94l-78 -565q-15 -155 -24 -316l-115 -12l-6 156q-173 -177 -330 -177q-76 0 -126.5 50
t-71.5 125t-21 171zM508 1350l-16 86q58 20 110 20q74 0 119 -37t45 -106q0 -97 -70 -156t-186 -70l-10 87q85 14 121 47q30 26 30 77q0 64 -71 64q-28 0 -72 -12z" />
    <glyph glyph-name="uni1EA4" unicode="&#x1ea4;" horiz-adv-x="1103" 
d="M639 1214l-303 -696h424l-72 438l-43 258h-6zM573 1368l170 8l234 -1331q4 -36 4 -45h-137l-66 399h-495l-174 -399h-138q0 17 15 47zM651 1774l99 6l192 -232l-76 -61l-176 178l-246 -178l-57 72zM500 1927l403 172l41 -114v-9l-414 -137z" />
    <glyph glyph-name="uni1EA5" unicode="&#x1ea5;" horiz-adv-x="962" 
d="M338 96q125 6 297 174l76 557q-84 33 -158 33q-60 0 -109 -22q-102 -58 -162.5 -193t-60.5 -303q0 -107 29 -174.5t88 -71.5zM82 319q0 180 62.5 331t177.5 241t258 90q132 0 274 -94l-78 -565q-15 -155 -24 -316l-115 -12l-6 156q-173 -177 -330 -177q-76 0 -126.5 50
t-71.5 125t-21 171zM586 1425l96 9l176 -304l-80 -51l-155 234l-244 -236l-66 66zM788 1456l238 324l96 -74v-10l-260 -295z" />
    <glyph glyph-name="uni1EA6" unicode="&#x1ea6;" horiz-adv-x="1103" 
d="M639 1214l-303 -696h424l-72 438l-43 258h-6zM573 1368l170 8l234 -1331q4 -36 4 -45h-137l-66 399h-495l-174 -399h-138q0 17 15 47zM651 1774l99 6l192 -232l-76 -61l-176 178l-246 -178l-57 72zM475 1985l43 114l402 -172l-31 -88l-414 137v9z" />
    <glyph glyph-name="uni1EA7" unicode="&#x1ea7;" horiz-adv-x="962" 
d="M338 96q125 6 297 174l76 557q-84 33 -158 33q-60 0 -109 -22q-102 -58 -162.5 -193t-60.5 -303q0 -107 29 -174.5t88 -71.5zM82 319q0 180 62.5 331t177.5 241t258 90q132 0 274 -94l-78 -565q-15 -155 -24 -316l-115 -12l-6 156q-173 -177 -330 -177q-76 0 -126.5 50
t-71.5 125t-21 171zM586 1425l96 9l176 -304l-80 -51l-155 234l-244 -236l-66 66zM629 1710l94 74l238 -324l-74 -55l-258 295v10z" />
    <glyph glyph-name="uni1EA8" unicode="&#x1ea8;" horiz-adv-x="1103" 
d="M639 1214l-303 -696h424l-72 438l-43 258h-6zM573 1368l170 8l234 -1331q4 -36 4 -45h-137l-66 399h-495l-174 -399h-138q0 17 15 47zM651 1774l99 6l192 -232l-76 -61l-176 178l-246 -178l-57 72zM864 2015l-16 86q58 23 110 23q71 0 112.5 -38t41.5 -104
q0 -91 -65.5 -142t-178.5 -62l-12 86q91 19 119 45q27 23 24 61q0 58 -61 58q-27 0 -74 -13z" />
    <glyph glyph-name="uni1EA9" unicode="&#x1ea9;" horiz-adv-x="962" 
d="M338 96q125 6 297 174l76 557q-84 33 -158 33q-60 0 -109 -22q-102 -58 -162.5 -193t-60.5 -303q0 -107 29 -174.5t88 -71.5zM82 319q0 180 62.5 331t177.5 241t258 90q132 0 274 -94l-78 -565q-15 -155 -24 -316l-115 -12l-6 156q-173 -177 -330 -177q-76 0 -126.5 50
t-71.5 125t-21 171zM586 1425l96 9l176 -304l-80 -51l-155 234l-244 -236l-66 66zM803 1673l-17 84q54 23 111 23q73 0 116.5 -38t43.5 -106q0 -97 -69 -155.5t-185 -69.5l-10 86q89 14 125 47q28 31 28 76q0 32 -20 49t-54 17q-25 0 -69 -13z" />
    <glyph glyph-name="uni1EAA" unicode="&#x1eaa;" horiz-adv-x="1103" 
d="M639 1214l-303 -696h424l-72 438l-43 258h-6zM573 1368l170 8l234 -1331q4 -36 4 -45h-137l-66 399h-495l-174 -399h-138q0 17 15 47zM651 1774l99 6l192 -232l-76 -61l-176 178l-246 -178l-57 72zM381 1911q57 94 107.5 140t119.5 46q37 0 70 -20t53 -44t43 -45.5
t41 -23.5q58 5 137 133l80 -45q-49 -95 -98.5 -142.5t-118.5 -47.5q-39 0 -72.5 19.5t-53 43t-42 45.5t-41.5 25q-35 -3 -69.5 -36.5t-77.5 -94.5z" />
    <glyph glyph-name="uni1EAB" unicode="&#x1eab;" horiz-adv-x="962" 
d="M338 96q125 6 297 174l76 557q-84 33 -158 33q-60 0 -109 -22q-102 -58 -162.5 -193t-60.5 -303q0 -107 29 -174.5t88 -71.5zM82 319q0 180 62.5 331t177.5 241t258 90q132 0 274 -94l-78 -565q-15 -155 -24 -316l-115 -12l-6 156q-173 -177 -330 -177q-76 0 -126.5 50
t-71.5 125t-21 171zM563 1423l96 9l177 -304l-80 -51l-156 234l-244 -236l-65 66zM301 1579q53 99 102.5 149t118.5 50q35 0 66.5 -20.5t50.5 -46t43 -48.5t45 -27q57 5 133 144l80 -43q-47 -100 -98.5 -152.5t-120.5 -52.5q-36 0 -67 20t-50 45t-43 48t-47 28
q-54 -7 -133 -141z" />
    <glyph glyph-name="uni1EAC" unicode="&#x1eac;" horiz-adv-x="1103" 
d="M639 1214l-303 -696h424l-72 438l-43 258h-6zM573 1368l170 8l234 -1331q4 -36 4 -45h-137l-66 399h-495l-174 -399h-138q0 17 15 47zM354 -313q0 50 33.5 82t81.5 32q37 0 56.5 -20t19.5 -53q0 -52 -32 -83.5t-79 -31.5q-39 0 -59.5 20.5t-20.5 53.5zM662 1796l98 8
l192 -235l-75 -62l-177 181l-245 -179l-58 70z" />
    <glyph glyph-name="uni1EAD" unicode="&#x1ead;" horiz-adv-x="962" 
d="M338 96q125 6 297 174l76 557q-84 33 -158 33q-60 0 -109 -22q-102 -58 -162.5 -193t-60.5 -303q0 -107 29 -174.5t88 -71.5zM82 319q0 180 62.5 331t177.5 241t258 90q132 0 274 -94l-78 -565q-15 -155 -24 -316l-115 -12l-6 156q-173 -177 -330 -177q-76 0 -126.5 50
t-71.5 125t-21 171zM291 -313q0 50 33.5 82t81.5 32q37 0 56 -19.5t19 -53.5q0 -53 -31.5 -84t-78.5 -31q-39 0 -59.5 20.5t-20.5 53.5zM584 1446l96 6l176 -307l-80 -51l-155 237l-244 -239l-66 65z" />
    <glyph glyph-name="uni1EAE" unicode="&#x1eae;" horiz-adv-x="1103" 
d="M639 1214l-303 -696h424l-72 438l-43 258h-6zM573 1368l170 8l234 -1331q4 -36 4 -45h-137l-66 399h-495l-174 -399h-138q0 17 15 47zM967 1731q-92 -215 -303 -215q-93 0 -155.5 58.5t-80.5 170.5l94 29q25 -80 62 -116t98 -36q49 0 82 16q67 38 121 134zM532 1927
l404 172l41 -114v-9l-414 -137z" />
    <glyph glyph-name="uni1EAF" unicode="&#x1eaf;" horiz-adv-x="962" 
d="M338 96q125 6 297 174l76 557q-84 33 -158 33q-60 0 -109 -22q-102 -58 -162.5 -193t-60.5 -303q0 -107 29 -174.5t88 -71.5zM82 319q0 180 62.5 331t177.5 241t258 90q132 0 274 -94l-78 -565q-15 -155 -24 -316l-115 -12l-6 156q-173 -177 -330 -177q-76 0 -126.5 50
t-71.5 125t-21 171zM895 1370q-95 -266 -307 -266q-223 0 -232 282l97 15q8 -92 42 -138t105 -46q51 0 90 24q70 46 115 162zM532 1483l238 323l96 -73v-9l-260 -294z" />
    <glyph glyph-name="uni1EB0" unicode="&#x1eb0;" horiz-adv-x="1103" 
d="M639 1214l-303 -696h424l-72 438l-43 258h-6zM573 1368l170 8l234 -1331q4 -36 4 -45h-137l-66 399h-495l-174 -399h-138q0 17 15 47zM967 1731q-92 -215 -303 -215q-93 0 -155.5 58.5t-80.5 170.5l94 29q25 -80 62 -116t98 -36q49 0 82 16q67 38 121 134zM461 1985
l43 114l401 -172l-31 -88l-411 137z" />
    <glyph glyph-name="uni1EB1" unicode="&#x1eb1;" horiz-adv-x="962" 
d="M338 96q125 6 297 174l76 557q-84 33 -158 33q-60 0 -109 -22q-102 -58 -162.5 -193t-60.5 -303q0 -107 29 -174.5t88 -71.5zM82 319q0 180 62.5 331t177.5 241t258 90q132 0 274 -94l-78 -565q-15 -155 -24 -316l-115 -12l-6 156q-173 -177 -330 -177q-76 0 -126.5 50
t-71.5 125t-21 171zM874 1368q-95 -266 -307 -266q-222 0 -231 282l96 15q8 -92 42.5 -138.5t105.5 -46.5q50 0 90 25q69 46 114 162zM387 1731l96 73l238 -323l-74 -54l-260 295v9z" />
    <glyph glyph-name="uni1EB2" unicode="&#x1eb2;" horiz-adv-x="1103" 
d="M639 1214l-303 -696h424l-72 438l-43 258h-6zM573 1368l170 8l234 -1331q4 -36 4 -45h-137l-66 399h-495l-174 -399h-138q0 17 15 47zM969 1731q-92 -215 -303 -215q-93 0 -155.5 58.5t-80.5 170.5l94 29q25 -80 62 -116t98 -36q49 0 82 16q67 38 121 134zM631 2025
l-17 86q61 21 109 21q72 0 114 -37t42 -104q0 -89 -66.5 -140.5t-179.5 -62.5l-12 84q86 17 120 45q25 25 25 61q0 29 -16.5 44.5t-44.5 15.5q-27 0 -74 -13z" />
    <glyph glyph-name="uni1EB3" unicode="&#x1eb3;" horiz-adv-x="962" 
d="M338 96q125 6 297 174l76 557q-84 33 -158 33q-60 0 -109 -22q-102 -58 -162.5 -193t-60.5 -303q0 -107 29 -174.5t88 -71.5zM82 319q0 180 62.5 331t177.5 241t258 90q132 0 274 -94l-78 -565q-15 -155 -24 -316l-115 -12l-6 156q-173 -177 -330 -177q-76 0 -126.5 50
t-71.5 125t-21 171zM897 1370q-95 -266 -307 -266q-223 0 -232 282l97 15q8 -92 42 -138t105 -46q51 0 90 24q70 46 115 162zM561 1696l-16 86q58 20 110 20q74 0 117.5 -37t44.5 -106q0 -97 -69 -155.5t-185 -69.5l-12 86q89 13 127 49q27 30 27 76q0 63 -72 63
q-29 0 -72 -12z" />
    <glyph glyph-name="uni1EB4" unicode="&#x1eb4;" horiz-adv-x="1103" 
d="M639 1214l-303 -696h424l-72 438l-43 258h-6zM573 1368l170 8l234 -1331q4 -36 4 -45h-137l-66 399h-495l-174 -399h-138q0 17 15 47zM969 1731q-92 -215 -303 -215q-93 0 -155.5 58.5t-80.5 170.5l94 29q25 -80 62 -116t98 -36q49 0 82 16q67 38 121 134zM399 1911
q56 93 107.5 139.5t120.5 46.5q37 0 70 -20t53 -44t43 -45.5t41 -23.5q58 5 137 133l80 -45q-47 -94 -97 -143t-118 -49q-33 0 -61 13t-47.5 32t-36 38t-33.5 33.5t-33 16.5q-64 -5 -146 -131z" />
    <glyph glyph-name="uni1EB5" unicode="&#x1eb5;" horiz-adv-x="962" 
d="M338 96q125 6 297 174l76 557q-84 33 -158 33q-60 0 -109 -22q-102 -58 -162.5 -193t-60.5 -303q0 -107 29 -174.5t88 -71.5zM82 319q0 180 62.5 331t177.5 241t258 90q132 0 274 -94l-78 -565q-15 -155 -24 -316l-115 -12l-6 156q-173 -177 -330 -177q-76 0 -126.5 50
t-71.5 125t-21 171zM895 1370q-95 -266 -307 -266q-223 0 -232 282l97 15q8 -92 42 -138t105 -46q51 0 90 24q70 46 115 162zM334 1581q53 99 102.5 149t118.5 50q35 0 66.5 -20.5t50.5 -46t43 -48.5t45 -27q59 5 135 144l78 -43q-47 -100 -98.5 -152.5t-120.5 -52.5
q-36 0 -67 20t-49.5 45t-42.5 48t-46 28q-59 -8 -133 -141z" />
    <glyph glyph-name="uni1EB6" unicode="&#x1eb6;" horiz-adv-x="1103" 
d="M639 1214l-303 -696h424l-72 438l-43 258h-6zM573 1368l170 8l234 -1331q4 -36 4 -45h-137l-66 399h-495l-174 -399h-138q0 17 15 47zM354 -313q0 50 33.5 82t81.5 32q37 0 56.5 -20t19.5 -53q0 -52 -32 -83.5t-79 -31.5q-39 0 -59.5 20.5t-20.5 53.5zM981 1745
q-92 -215 -305 -215q-91 0 -153.5 58.5t-80.5 170.5l95 29q25 -81 61.5 -116.5t97.5 -35.5q47 0 82 17q66 37 121 133z" />
    <glyph glyph-name="uni1EB7" unicode="&#x1eb7;" horiz-adv-x="962" 
d="M338 96q125 6 297 174l76 557q-84 33 -158 33q-60 0 -109 -22q-102 -58 -162.5 -193t-60.5 -303q0 -107 29 -174.5t88 -71.5zM82 319q0 180 62.5 331t177.5 241t258 90q132 0 274 -94l-78 -565q-15 -155 -24 -316l-115 -12l-6 156q-173 -177 -330 -177q-76 0 -126.5 50
t-71.5 125t-21 171zM291 -313q0 50 33.5 82t81.5 32q37 0 56 -19.5t19 -53.5q0 -53 -31.5 -84t-78.5 -31q-39 0 -59.5 20.5t-20.5 53.5zM895 1380q-98 -272 -307 -272q-112 0 -169.5 75.5t-62.5 213.5l97 14q8 -91 42.5 -139.5t104.5 -48.5q46 0 90 24q68 45 115 164z" />
    <glyph glyph-name="uni1EBA" unicode="&#x1eba;" horiz-adv-x="1050" 
d="M289 1372h717l-19 -121h-573l-64 -489h463l-14 -119h-465l-68 -522h570l-7 -121h-720zM594 1755l-16 86q61 21 110 21q73 0 115.5 -37.5t42.5 -102.5q0 -91 -66.5 -142t-183.5 -62l-12 86q91 18 125 43q24 24 24 61q0 59 -65 59q-30 0 -74 -12z" />
    <glyph glyph-name="uni1EBB" unicode="&#x1ebb;" horiz-adv-x="915" 
d="M84 340q0 173 61.5 319t175 234t254.5 88q120 0 189.5 -61t69.5 -168q0 -67 -26.5 -121t-74.5 -90.5t-106.5 -62.5t-130 -41t-137 -22t-136.5 -9q-2 -14 -2 -44q0 -111 36.5 -181.5t107.5 -82.5q156 3 337 119l50 -90q-91 -70 -192 -110t-195 -40q-134 0 -207.5 100
t-73.5 263zM385 809q-113 -110 -149 -301q464 14 464 227q0 64 -39.5 97.5t-105.5 33.5q-93 0 -170 -57zM494 1350l-17 86q58 20 111 20q74 0 119 -37t45 -106q0 -97 -70 -156t-186 -70l-11 87q85 14 121 47q31 27 31 77q0 64 -72 64q-27 0 -71 -12z" />
    <glyph glyph-name="uni1EBC" unicode="&#x1ebc;" horiz-adv-x="1050" 
d="M289 1372h717l-19 -121h-573l-64 -489h463l-14 -119h-465l-68 -522h570l-7 -121h-720zM395 1569q60 100 112.5 151.5t121.5 51.5q35 0 66.5 -21.5t50.5 -48t41.5 -49.5t41.5 -25q54 5 136 144l82 -48q-58 -105 -106.5 -155.5t-117.5 -50.5q-38 0 -71 21.5t-52 47.5
t-41 49.5t-41 26.5q-33 -3 -67.5 -40t-77.5 -103z" />
    <glyph glyph-name="uni1EBD" unicode="&#x1ebd;" horiz-adv-x="915" 
d="M84 340q0 173 61.5 319t175 234t254.5 88q120 0 189.5 -61t69.5 -168q0 -67 -26.5 -121t-74.5 -90.5t-106.5 -62.5t-130 -41t-137 -22t-136.5 -9q-2 -14 -2 -44q0 -111 36.5 -181.5t107.5 -82.5q156 3 337 119l50 -90q-91 -70 -192 -110t-195 -40q-134 0 -207.5 100
t-73.5 263zM385 809q-113 -110 -149 -301q464 14 464 227q0 64 -39.5 97.5t-105.5 33.5q-93 0 -170 -57zM279 1163q51 99 101.5 151t119.5 52q35 0 66 -19.5t50 -44t43 -49t46 -30.5q57 8 133 143l80 -43q-47 -99 -100 -153t-122 -54q-36 0 -66.5 20t-48.5 44.5t-42 49
t-47 30.5q-55 -9 -134 -144z" />
    <glyph glyph-name="uni1EBE" unicode="&#x1ebe;" horiz-adv-x="1050" 
d="M289 1372h717l-19 -121h-573l-64 -489h463l-14 -119h-465l-68 -522h570l-7 -121h-720zM674 1774l98 6l193 -232l-76 -61l-176 178l-246 -178l-57 72zM522 1927l404 172l41 -114v-9l-414 -137z" />
    <glyph glyph-name="uni1EBF" unicode="&#x1ebf;" horiz-adv-x="915" 
d="M84 340q0 173 61.5 319t175 234t254.5 88q120 0 189.5 -61t69.5 -168q0 -67 -26.5 -121t-74.5 -90.5t-106.5 -62.5t-130 -41t-137 -22t-136.5 -9q-2 -14 -2 -44q0 -111 36.5 -181.5t107.5 -82.5q156 3 337 119l50 -90q-91 -70 -192 -110t-195 -40q-134 0 -207.5 100
t-73.5 263zM385 809q-113 -110 -149 -301q464 14 464 227q0 64 -39.5 97.5t-105.5 33.5q-93 0 -170 -57zM571 1425l97 9l176 -304l-80 -51l-156 234l-243 -236l-66 66zM774 1456l238 324l96 -74v-10l-260 -295z" />
    <glyph glyph-name="uni1EC0" unicode="&#x1ec0;" horiz-adv-x="1050" 
d="M289 1372h717l-19 -121h-573l-64 -489h463l-14 -119h-465l-68 -522h570l-7 -121h-720zM674 1774l98 6l193 -232l-76 -61l-176 178l-246 -178l-57 72zM498 1985l43 114l401 -172l-31 -88l-413 137v9z" />
    <glyph glyph-name="uni1EC1" unicode="&#x1ec1;" horiz-adv-x="915" 
d="M84 340q0 173 61.5 319t175 234t254.5 88q120 0 189.5 -61t69.5 -168q0 -67 -26.5 -121t-74.5 -90.5t-106.5 -62.5t-130 -41t-137 -22t-136.5 -9q-2 -14 -2 -44q0 -111 36.5 -181.5t107.5 -82.5q156 3 337 119l50 -90q-91 -70 -192 -110t-195 -40q-134 0 -207.5 100
t-73.5 263zM385 809q-113 -110 -149 -301q464 14 464 227q0 64 -39.5 97.5t-105.5 33.5q-93 0 -170 -57zM571 1425l97 9l176 -304l-80 -51l-156 234l-243 -236l-66 66zM614 1710l95 74l237 -324l-74 -55l-258 295v10z" />
    <glyph glyph-name="uni1EC2" unicode="&#x1ec2;" horiz-adv-x="1050" 
d="M289 1372h717l-19 -121h-573l-64 -489h463l-14 -119h-465l-68 -522h570l-7 -121h-720zM674 1774l98 6l193 -232l-76 -61l-176 178l-246 -178l-57 72zM887 2015l-17 86q58 23 111 23q71 0 112.5 -38t41.5 -104q0 -91 -65.5 -142t-178.5 -62l-12 86q90 19 118 45
q28 24 25 61q0 58 -61 58q-27 0 -74 -13z" />
    <glyph glyph-name="uni1EC3" unicode="&#x1ec3;" horiz-adv-x="964" 
d="M84 340q0 173 61.5 319t175 234t254.5 88q120 0 189.5 -61t69.5 -168q0 -67 -26.5 -121t-74.5 -90.5t-106.5 -62.5t-130 -41t-137 -22t-136.5 -9q-2 -14 -2 -44q0 -111 36.5 -181.5t107.5 -82.5q156 3 337 119l50 -90q-91 -70 -192 -110t-195 -40q-134 0 -207.5 100
t-73.5 263zM385 809q-113 -110 -149 -301q464 14 464 227q0 64 -39.5 97.5t-105.5 33.5q-93 0 -170 -57zM586 1423l96 9l176 -304l-80 -51l-155 234l-244 -236l-66 66zM803 1671l-17 84q54 23 111 23q73 0 116.5 -38t43.5 -106q0 -97 -69 -155.5t-185 -69.5l-10 86
q89 14 125 47q28 31 28 76q0 32 -20 48.5t-54 16.5q-28 0 -69 -12z" />
    <glyph glyph-name="uni1EC4" unicode="&#x1ec4;" horiz-adv-x="1050" 
d="M289 1372h717l-19 -121h-573l-64 -489h463l-14 -119h-465l-68 -522h570l-7 -121h-720zM674 1774l98 6l193 -232l-76 -61l-176 178l-246 -178l-57 72zM403 1911q56 93 107.5 139.5t120.5 46.5q37 0 70 -20t53 -44t43 -45.5t41 -23.5q58 5 137 133l80 -45
q-49 -95 -98.5 -142.5t-118.5 -47.5q-39 0 -72.5 19.5t-53 43t-42 45.5t-41.5 25q-35 -3 -70 -36.5t-78 -94.5z" />
    <glyph glyph-name="uni1EC5" unicode="&#x1ec5;" horiz-adv-x="915" 
d="M84 340q0 173 61.5 319t175 234t254.5 88q120 0 189.5 -61t69.5 -168q0 -67 -26.5 -121t-74.5 -90.5t-106.5 -62.5t-130 -41t-137 -22t-136.5 -9q-2 -14 -2 -44q0 -111 36.5 -181.5t107.5 -82.5q156 3 337 119l50 -90q-91 -70 -192 -110t-195 -40q-134 0 -207.5 100
t-73.5 263zM385 809q-113 -110 -149 -301q464 14 464 227q0 64 -39.5 97.5t-105.5 33.5q-93 0 -170 -57zM571 1425l97 9l176 -304l-80 -51l-156 234l-243 -236l-66 66zM309 1581q53 99 102.5 149t118.5 50q35 0 66.5 -20.5t50.5 -46t43 -48.5t45 -27q57 5 133 144l80 -43
q-47 -100 -98.5 -152.5t-120.5 -52.5q-36 0 -67 20t-50 45t-43 48t-47 28q-54 -7 -133 -141z" />
    <glyph glyph-name="uni1EC6" unicode="&#x1ec6;" horiz-adv-x="1007" 
d="M289 1372h717l-19 -121h-573l-64 -489h463l-14 -119h-465l-68 -522h570l-7 -121h-720zM354 -313q0 50 33.5 82t81.5 32q37 0 56.5 -20t19.5 -53q0 -52 -32 -83.5t-79 -31.5q-39 0 -59.5 20.5t-20.5 53.5zM647 1796l98 8l193 -235l-76 -62l-176 181l-246 -179l-57 70z" />
    <glyph glyph-name="uni1EC7" unicode="&#x1ec7;" horiz-adv-x="915" 
d="M84 340q0 173 61.5 319t175 234t254.5 88q120 0 189.5 -61t69.5 -168q0 -67 -26.5 -121t-74.5 -90.5t-106.5 -62.5t-130 -41t-137 -22t-136.5 -9q-2 -14 -2 -44q0 -111 36.5 -181.5t107.5 -82.5q156 3 337 119l50 -90q-91 -70 -192 -110t-195 -40q-134 0 -207.5 100
t-73.5 263zM385 809q-113 -110 -149 -301q464 14 464 227q0 64 -39.5 97.5t-105.5 33.5q-93 0 -170 -57zM252 -313q0 50 33.5 82t81.5 32q37 0 56 -19.5t19 -53.5q0 -53 -31.5 -84t-78.5 -31q-39 0 -59.5 20.5t-20.5 53.5zM569 1446l97 6l176 -307l-80 -51l-156 237
l-244 -239l-65 65z" />
    <glyph glyph-name="uni1EC8" unicode="&#x1ec8;" horiz-adv-x="526" 
d="M289 1372h141l-180 -1372h-141zM285 1755l-17 86q61 21 111 21q73 0 115.5 -37.5t42.5 -102.5q0 -91 -66.5 -142t-183.5 -62l-13 86q91 18 125 43q25 25 25 61q0 59 -66 59q-30 0 -73 -12z" />
    <glyph glyph-name="uni1EC9" unicode="&#x1ec9;" horiz-adv-x="448" 
d="M207 950l135 6l-125 -956h-135zM215 1350l-16 86q58 20 110 20q74 0 119 -37t45 -106q0 -97 -70 -156t-186 -70l-10 87q85 14 121 47q30 26 30 77q0 64 -71 64q-29 0 -72 -12z" />
    <glyph glyph-name="uni1ECE" unicode="&#x1ece;" horiz-adv-x="1339" 
d="M113 514q0 158 46.5 316t127.5 285t202 206.5t259 79.5q210 0 323 -150.5t113 -396.5q0 -128 -28.5 -256t-84 -240t-130.5 -199t-175.5 -137.5t-212.5 -50.5q-142 0 -242.5 71t-149 192t-48.5 280zM1040 848q0 198 -79.5 313t-229.5 115q-104 0 -225 -84
q-117 -104 -184.5 -291.5t-67.5 -380.5q0 -200 80.5 -312t236.5 -112q111 0 222 84q114 102 180.5 290t66.5 378zM696 1755l-16 86q61 21 111 21q72 0 114.5 -37t42.5 -103q0 -91 -66.5 -142t-183.5 -62l-12 86q91 18 125 43q25 25 25 61q0 59 -66 59q-30 0 -74 -12z" />
    <glyph glyph-name="uni1ECF" unicode="&#x1ecf;" horiz-adv-x="989" 
d="M84 365q0 106 33 214t92 198t150.5 147t197.5 57q162 0 245 -110.5t81 -286.5q-1 -107 -34.5 -215t-93 -197t-150.5 -145t-197 -56q-157 0 -241.5 108.5t-82.5 285.5zM743 580q2 129 -48.5 204.5t-157.5 75.5q-80 3 -146 -49q-77 -68 -122.5 -187.5t-47.5 -254.5
q0 -125 53 -201t154 -76q84 0 147 47q76 72 122 190t46 251zM492 1350l-17 86q58 20 111 20q74 0 119 -37t45 -106q0 -97 -70 -156t-186 -70l-11 87q85 14 121 47q31 27 31 77q0 64 -72 64q-27 0 -71 -12z" />
    <glyph glyph-name="uni1ED0" unicode="&#x1ed0;" horiz-adv-x="1339" 
d="M113 514q0 158 46.5 316t127.5 285t202 206.5t259 79.5q210 0 323 -150.5t113 -396.5q0 -128 -28.5 -256t-84 -240t-130.5 -199t-175.5 -137.5t-212.5 -50.5q-142 0 -242.5 71t-149 192t-48.5 280zM1040 848q0 198 -79.5 313t-229.5 115q-104 0 -225 -84
q-117 -104 -184.5 -291.5t-67.5 -380.5q0 -200 80.5 -312t236.5 -112q111 0 222 84q114 102 180.5 290t66.5 378zM776 1774l98 6l193 -232l-76 -61l-176 178l-246 -178l-57 72zM625 1927l403 172l41 -114v-9l-414 -137z" />
    <glyph glyph-name="uni1ED1" unicode="&#x1ed1;" horiz-adv-x="1034" 
d="M84 365q0 106 33 214t92 198t150.5 147t197.5 57q162 0 245 -110.5t81 -286.5q-1 -107 -34.5 -215t-93 -197t-150.5 -145t-197 -56q-157 0 -241.5 108.5t-82.5 285.5zM743 580q2 129 -48.5 204.5t-157.5 75.5q-80 3 -146 -49q-77 -68 -122.5 -187.5t-47.5 -254.5
q0 -125 53 -201t154 -76q84 0 147 47q76 72 122 190t46 251zM598 1423l96 9l176 -304l-79 -51l-156 234l-244 -236l-65 66zM801 1454l237 324l97 -74v-10l-261 -295z" />
    <glyph glyph-name="uni1ED2" unicode="&#x1ed2;" horiz-adv-x="1339" 
d="M113 514q0 158 46.5 316t127.5 285t202 206.5t259 79.5q210 0 323 -150.5t113 -396.5q0 -128 -28.5 -256t-84 -240t-130.5 -199t-175.5 -137.5t-212.5 -50.5q-142 0 -242.5 71t-149 192t-48.5 280zM1040 848q0 198 -79.5 313t-229.5 115q-104 0 -225 -84
q-117 -104 -184.5 -291.5t-67.5 -380.5q0 -200 80.5 -312t236.5 -112q111 0 222 84q114 102 180.5 290t66.5 378zM776 1774l98 6l193 -232l-76 -61l-176 178l-246 -178l-57 72zM600 1985l43 114l401 -172l-30 -88l-414 137v9z" />
    <glyph glyph-name="uni1ED3" unicode="&#x1ed3;" horiz-adv-x="1034" 
d="M84 365q0 106 33 214t92 198t150.5 147t197.5 57q162 0 245 -110.5t81 -286.5q-1 -107 -34.5 -215t-93 -197t-150.5 -145t-197 -56q-157 0 -241.5 108.5t-82.5 285.5zM743 580q2 129 -48.5 204.5t-157.5 75.5q-80 3 -146 -49q-77 -68 -122.5 -187.5t-47.5 -254.5
q0 -125 53 -201t154 -76q84 0 147 47q76 72 122 190t46 251zM598 1423l96 9l176 -304l-79 -51l-156 234l-244 -236l-65 66zM641 1708l94 74l238 -324l-74 -55l-258 295v10z" />
    <glyph glyph-name="uni1ED4" unicode="&#x1ed4;" horiz-adv-x="1339" 
d="M113 514q0 158 46.5 316t127.5 285t202 206.5t259 79.5q210 0 323 -150.5t113 -396.5q0 -128 -28.5 -256t-84 -240t-130.5 -199t-175.5 -137.5t-212.5 -50.5q-142 0 -242.5 71t-149 192t-48.5 280zM1040 848q0 198 -79.5 313t-229.5 115q-104 0 -225 -84
q-117 -104 -184.5 -291.5t-67.5 -380.5q0 -200 80.5 -312t236.5 -112q111 0 222 84q114 102 180.5 290t66.5 378zM776 1774l98 6l193 -232l-76 -61l-176 178l-246 -178l-57 72zM989 2015l-16 86q57 23 110 23q71 0 112.5 -38t41.5 -104q0 -91 -65.5 -142t-178.5 -62l-12 86
q91 19 119 45q27 23 24 61q0 58 -61 58q-27 0 -74 -13z" />
    <glyph glyph-name="uni1ED5" unicode="&#x1ed5;" horiz-adv-x="1034" 
d="M84 365q0 106 33 214t92 198t150.5 147t197.5 57q162 0 245 -110.5t81 -286.5q-1 -107 -34.5 -215t-93 -197t-150.5 -145t-197 -56q-157 0 -241.5 108.5t-82.5 285.5zM743 580q2 129 -48.5 204.5t-157.5 75.5q-80 3 -146 -49q-77 -68 -122.5 -187.5t-47.5 -254.5
q0 -125 53 -201t154 -76q84 0 147 47q76 72 122 190t46 251zM598 1423l96 9l176 -304l-79 -51l-156 234l-244 -236l-65 66zM815 1671l-16 84q54 23 110 23q73 0 116.5 -38t43.5 -106q0 -97 -69 -155.5t-185 -69.5l-10 86q89 14 125 47q28 31 28 76q0 32 -19.5 48.5
t-53.5 16.5q-29 0 -70 -12z" />
    <glyph glyph-name="uni1ED6" unicode="&#x1ed6;" horiz-adv-x="1339" 
d="M113 514q0 158 46.5 316t127.5 285t202 206.5t259 79.5q210 0 323 -150.5t113 -396.5q0 -128 -28.5 -256t-84 -240t-130.5 -199t-175.5 -137.5t-212.5 -50.5q-142 0 -242.5 71t-149 192t-48.5 280zM1040 848q0 198 -79.5 313t-229.5 115q-104 0 -225 -84
q-117 -104 -184.5 -291.5t-67.5 -380.5q0 -200 80.5 -312t236.5 -112q111 0 222 84q114 102 180.5 290t66.5 378zM776 1774l98 6l193 -232l-76 -61l-176 178l-246 -178l-57 72zM506 1911q57 94 107.5 140t119.5 46q37 0 70 -20t53 -44t43 -45.5t41 -23.5q58 5 137 133
l80 -45q-49 -95 -98.5 -142.5t-118.5 -47.5q-39 0 -72.5 19.5t-53 43t-42 45.5t-41.5 25q-35 -3 -69.5 -36.5t-77.5 -94.5z" />
    <glyph glyph-name="uni1ED7" unicode="&#x1ed7;" horiz-adv-x="1034" 
d="M84 365q0 106 33 214t92 198t150.5 147t197.5 57q162 0 245 -110.5t81 -286.5q-1 -107 -34.5 -215t-93 -197t-150.5 -145t-197 -56q-157 0 -241.5 108.5t-82.5 285.5zM743 580q2 129 -48.5 204.5t-157.5 75.5q-80 3 -146 -49q-77 -68 -122.5 -187.5t-47.5 -254.5
q0 -125 53 -201t154 -76q84 0 147 47q76 72 122 190t46 251zM598 1423l96 9l176 -304l-79 -51l-156 234l-244 -236l-65 66zM336 1579q53 99 102.5 149t118.5 50q35 0 66.5 -20.5t50.5 -46t43 -48.5t45 -27q57 5 133 144l80 -43q-47 -100 -98.5 -152.5t-120.5 -52.5
q-36 0 -67 20t-50 45t-43 48t-47 28q-54 -7 -133 -141z" />
    <glyph glyph-name="uni1ED8" unicode="&#x1ed8;" horiz-adv-x="1269" 
d="M113 514q0 158 46.5 316t127.5 285t202 206.5t259 79.5q210 0 323 -150.5t113 -396.5q0 -128 -28.5 -256t-84 -240t-130.5 -199t-175.5 -137.5t-212.5 -50.5q-142 0 -242.5 71t-149 192t-48.5 280zM1040 848q0 198 -79.5 313t-229.5 115q-104 0 -225 -84
q-117 -104 -184.5 -291.5t-67.5 -380.5q0 -200 80.5 -312t236.5 -112q111 0 222 84q114 102 180.5 290t66.5 378zM436 -313q0 50 33.5 82t81.5 32q37 0 56.5 -20t19.5 -53q0 -52 -32 -83.5t-79 -31.5q-39 0 -59.5 20.5t-20.5 53.5zM748 1796l98 8l192 -235l-75 -62l-177 181
l-245 -179l-58 70z" />
    <glyph glyph-name="uni1ED9" unicode="&#x1ed9;" horiz-adv-x="989" 
d="M84 365q0 106 33 214t92 198t150.5 147t197.5 57q162 0 245 -110.5t81 -286.5q-1 -107 -34.5 -215t-93 -197t-150.5 -145t-197 -56q-157 0 -241.5 108.5t-82.5 285.5zM743 580q2 129 -48.5 204.5t-157.5 75.5q-80 3 -146 -49q-77 -68 -122.5 -187.5t-47.5 -254.5
q0 -125 53 -201t154 -76q84 0 147 47q76 72 122 190t46 251zM279 -313q0 50 33 82t81 32q37 0 56.5 -20t19.5 -53q0 -52 -32 -83.5t-79 -31.5q-38 0 -58.5 20.5t-20.5 53.5zM567 1446l97 6l176 -307l-80 -51l-156 237l-244 -239l-65 65z" />
    <glyph glyph-name="uni1EDA" unicode="&#x1eda;" horiz-adv-x="1271" 
d="M113 514q0 158 46.5 316t127.5 285t202 206.5t259 79.5q91 0 172 -33q52 -16 100 -16q106 0 119 75q6 60 -25 138l117 12q33 -68 33 -137q0 -177 -185 -199q105 -147 105 -387q0 -128 -28.5 -256t-84 -240t-130.5 -199t-175.5 -137.5t-212.5 -50.5q-142 0 -242.5 71
t-149 192t-48.5 280zM1040 848q0 198 -79.5 313t-229.5 115q-104 0 -225 -84q-117 -104 -184.5 -291.5t-67.5 -380.5q0 -200 80.5 -312t236.5 -112q111 0 222 84q114 102 180.5 290t66.5 378zM1059 1673l-2 -8l-424 -139l-31 90l410 170z" />
    <glyph glyph-name="uni1EDB" unicode="&#x1edb;" horiz-adv-x="999" 
d="M84 365q0 106 33 214t92 198t150.5 147t197.5 57q81 0 152 -33q35 -14 69 -14q48 0 77.5 20t35.5 56q6 57 -25 125l105 12q30 -66 30 -123q0 -168 -174 -193q56 -98 56 -247q-1 -107 -34.5 -215t-93 -197t-150.5 -145t-197 -56q-157 0 -241.5 108.5t-82.5 285.5zM743 580
q2 129 -48.5 204.5t-157.5 75.5q-80 3 -146 -49q-77 -68 -122.5 -187.5t-47.5 -254.5q0 -125 53 -201t154 -76q84 0 147 47q76 72 122 190t46 251zM870 1372l-2 -8l-358 -277l-59 70l340 311z" />
    <glyph glyph-name="uni1EDC" unicode="&#x1edc;" horiz-adv-x="1271" 
d="M113 514q0 158 46.5 316t127.5 285t202 206.5t259 79.5q91 0 172 -33q52 -16 100 -16q106 0 119 75q6 60 -25 138l117 12q33 -68 33 -137q0 -177 -185 -199q105 -147 105 -387q0 -128 -28.5 -256t-84 -240t-130.5 -199t-175.5 -137.5t-212.5 -50.5q-142 0 -242.5 71
t-149 192t-48.5 280zM1040 848q0 198 -79.5 313t-229.5 115q-104 0 -225 -84q-117 -104 -184.5 -291.5t-67.5 -380.5q0 -200 80.5 -312t236.5 -112q111 0 222 84q114 102 180.5 290t66.5 378zM940 1616l-35 -90l-424 139v8l45 113z" />
    <glyph glyph-name="uni1EDD" unicode="&#x1edd;" horiz-adv-x="999" 
d="M84 365q0 106 33 214t92 198t150.5 147t197.5 57q81 0 152 -33q35 -14 69 -14q48 0 77.5 20t35.5 56q6 57 -25 125l105 12q30 -66 30 -123q0 -168 -174 -193q56 -98 56 -247q-1 -107 -34.5 -215t-93 -197t-150.5 -145t-197 -56q-157 0 -241.5 108.5t-82.5 285.5zM743 580
q2 129 -48.5 204.5t-157.5 75.5q-80 3 -146 -49q-77 -68 -122.5 -187.5t-47.5 -254.5q0 -125 53 -201t154 -76q84 0 147 47q76 72 122 190t46 251zM733 1157l-59 -70l-359 277l-2 8l78 96z" />
    <glyph glyph-name="uni1EDE" unicode="&#x1ede;" horiz-adv-x="1271" 
d="M113 514q0 158 46.5 316t127.5 285t202 206.5t259 79.5q91 0 172 -33q52 -16 100 -16q106 0 119 75q6 60 -25 138l117 12q33 -68 33 -137q0 -177 -185 -199q105 -147 105 -387q0 -128 -28.5 -256t-84 -240t-130.5 -199t-175.5 -137.5t-212.5 -50.5q-142 0 -242.5 71
t-149 192t-48.5 280zM1040 848q0 198 -79.5 313t-229.5 115q-104 0 -225 -84q-117 -104 -184.5 -291.5t-67.5 -380.5q0 -200 80.5 -312t236.5 -112q111 0 222 84q114 102 180.5 290t66.5 378zM657 1755l-16 86q61 21 111 21q72 0 114.5 -37t42.5 -103q0 -91 -66.5 -142
t-183.5 -62l-12 86q91 18 125 43q25 25 25 61q0 59 -66 59q-31 0 -74 -12z" />
    <glyph glyph-name="uni1EDF" unicode="&#x1edf;" horiz-adv-x="999" 
d="M84 365q0 106 33 214t92 198t150.5 147t197.5 57q81 0 152 -33q35 -14 69 -14q48 0 77.5 20t35.5 56q6 57 -25 125l105 12q30 -66 30 -123q0 -168 -174 -193q56 -98 56 -247q-1 -107 -34.5 -215t-93 -197t-150.5 -145t-197 -56q-157 0 -241.5 108.5t-82.5 285.5zM743 580
q2 129 -48.5 204.5t-157.5 75.5q-80 3 -146 -49q-77 -68 -122.5 -187.5t-47.5 -254.5q0 -125 53 -201t154 -76q84 0 147 47q76 72 122 190t46 251zM483 1350l-16 86q58 20 111 20q74 0 118.5 -37t44.5 -106q0 -97 -70 -156t-186 -70l-10 87q85 14 121 47q31 27 31 77
q0 64 -72 64q-29 0 -72 -12z" />
    <glyph glyph-name="uni1EE0" unicode="&#x1ee0;" horiz-adv-x="1271" 
d="M113 514q0 158 46.5 316t127.5 285t202 206.5t259 79.5q91 0 172 -33q52 -16 100 -16q106 0 119 75q6 60 -25 138l117 12q33 -68 33 -137q0 -177 -185 -199q105 -147 105 -387q0 -128 -28.5 -256t-84 -240t-130.5 -199t-175.5 -137.5t-212.5 -50.5q-142 0 -242.5 71
t-149 192t-48.5 280zM1040 848q0 198 -79.5 313t-229.5 115q-104 0 -225 -84q-117 -104 -184.5 -291.5t-67.5 -380.5q0 -200 80.5 -312t236.5 -112q111 0 222 84q114 102 180.5 290t66.5 378zM436 1569q60 100 112.5 151.5t121.5 51.5q35 0 66.5 -21.5t50.5 -48t41.5 -49.5
t41.5 -25q54 5 136 144l81 -48q-59 -106 -107 -156t-116 -50q-38 0 -71 21.5t-52 47.5t-41 49.5t-41 26.5q-33 -3 -67.5 -40t-77.5 -103z" />
    <glyph glyph-name="uni1EE1" unicode="&#x1ee1;" horiz-adv-x="999" 
d="M84 365q0 106 33 214t92 198t150.5 147t197.5 57q81 0 152 -33q35 -14 69 -14q48 0 77.5 20t35.5 56q6 57 -25 125l105 12q30 -66 30 -123q0 -168 -174 -193q56 -98 56 -247q-1 -107 -34.5 -215t-93 -197t-150.5 -145t-197 -56q-157 0 -241.5 108.5t-82.5 285.5zM743 580
q2 129 -48.5 204.5t-157.5 75.5q-80 3 -146 -49q-77 -68 -122.5 -187.5t-47.5 -254.5q0 -125 53 -201t154 -76q84 0 147 47q76 72 122 190t46 251zM248 1163q52 101 100 152t117 51q29 0 54 -13t42.5 -32t33.5 -39t33.5 -37t35.5 -22q59 8 135 143l78 -43
q-48 -100 -98 -153.5t-117 -53.5q-37 0 -67 19.5t-47 43.5t-40.5 49t-46.5 32q-54 -9 -133 -144z" />
    <glyph glyph-name="uni1EE2" unicode="&#x1ee2;" horiz-adv-x="1271" 
d="M113 514q0 158 46.5 316t127.5 285t202 206.5t259 79.5q91 0 172 -33q52 -16 100 -16q106 0 119 75q6 60 -25 138l117 12q33 -68 33 -137q0 -177 -185 -199q105 -147 105 -387q0 -128 -28.5 -256t-84 -240t-130.5 -199t-175.5 -137.5t-212.5 -50.5q-142 0 -242.5 71
t-149 192t-48.5 280zM1040 848q0 198 -79.5 313t-229.5 115q-104 0 -225 -84q-117 -104 -184.5 -291.5t-67.5 -380.5q0 -200 80.5 -312t236.5 -112q111 0 222 84q114 102 180.5 290t66.5 378zM436 -313q0 50 33.5 82t81.5 32q37 0 56.5 -20t19.5 -53q0 -52 -32 -83.5
t-79 -31.5q-39 0 -59.5 20.5t-20.5 53.5z" />
    <glyph glyph-name="uni1EE3" unicode="&#x1ee3;" horiz-adv-x="999" 
d="M84 365q0 106 33 214t92 198t150.5 147t197.5 57q81 0 152 -33q35 -14 69 -14q48 0 77.5 20t35.5 56q6 57 -25 125l105 12q30 -66 30 -123q0 -168 -174 -193q56 -98 56 -247q-1 -107 -34.5 -215t-93 -197t-150.5 -145t-197 -56q-157 0 -241.5 108.5t-82.5 285.5zM743 580
q2 129 -48.5 204.5t-157.5 75.5q-80 3 -146 -49q-77 -68 -122.5 -187.5t-47.5 -254.5q0 -125 53 -201t154 -76q84 0 147 47q76 72 122 190t46 251zM279 -313q0 50 33 82t81 32q37 0 56.5 -20t19.5 -53q0 -52 -32 -83.5t-79 -31.5q-38 0 -58.5 20.5t-20.5 53.5z" />
    <glyph glyph-name="uni1EE6" unicode="&#x1ee6;" horiz-adv-x="1251" 
d="M1006 1372h141l-119 -880q-15 -118 -48.5 -209t-91.5 -163.5t-149 -110.5t-211 -38q-61 0 -113.5 12t-90.5 34.5t-68.5 52.5t-50.5 67t-32.5 77t-17.5 83.5t-5 85.5t6 84l120 905h140l-117 -880q-58 -396 246 -396q132 0 217 74q48 46 80 122.5t43 164.5zM643 1755
l-16 86q61 21 110 21q73 0 115.5 -37.5t42.5 -102.5q0 -91 -66.5 -142t-183.5 -62l-12 86q91 18 125 43q24 24 24 61q0 59 -65 59q-31 0 -74 -12z" />
    <glyph glyph-name="uni1EE7" unicode="&#x1ee7;" horiz-adv-x="995" 
d="M778 6l-114 -12l-5 194q-84 -96 -180 -156.5t-190 -60.5q-83 0 -128 40.5t-53 111t3 164.5l88 663l135 6l-82 -634q-18 -100 -6 -163.5t69 -66.5q77 4 172 68.5t179 158.5l84 633h137l-74 -557q-21 -196 -35 -389zM475 1350l-16 86q58 20 110 20q74 0 119 -37t45 -106
q0 -97 -70 -156t-186 -70l-10 87q85 14 121 47q30 26 30 77q0 64 -71 64q-29 0 -72 -12z" />
    <glyph glyph-name="uni1EE8" unicode="&#x1ee8;" horiz-adv-x="1218" 
d="M1006 1372h49q126 0 139 76q3 66 -25 137l117 12q33 -68 33 -137q0 -170 -186 -198l-105 -770q-15 -118 -48.5 -209t-91.5 -163.5t-149 -110.5t-211 -38q-61 0 -113.5 12t-90.5 34.5t-68.5 52.5t-50.5 67t-32.5 77t-17.5 83.5t-5 85.5t6 84l120 905h140l-117 -880
q-58 -396 246 -396q132 0 217 74q48 46 80 122.5t43 164.5zM1014 1673l-2 -8l-424 -139l-31 90l410 170z" />
    <glyph glyph-name="uni1EE9" unicode="&#x1ee9;" horiz-adv-x="1013" 
d="M778 6l-114 -12l-5 194q-84 -96 -180 -156.5t-190 -60.5q-83 0 -128 40.5t-53 111t3 164.5l88 663l135 6l-82 -634q-18 -100 -6 -163.5t69 -66.5q77 4 172 68.5t179 158.5l84 633h65q124 0 137 78q6 51 -24 125l104 12q31 -64 31 -125q0 -171 -191 -192l-59 -455
q-21 -196 -35 -389zM848 1372l-2 -8l-359 -277l-59 70l340 311z" />
    <glyph glyph-name="uni1EEA" unicode="&#x1eea;" horiz-adv-x="1218" 
d="M1006 1372h49q126 0 139 76q3 66 -25 137l117 12q33 -68 33 -137q0 -170 -186 -198l-105 -770q-15 -118 -48.5 -209t-91.5 -163.5t-149 -110.5t-211 -38q-61 0 -113.5 12t-90.5 34.5t-68.5 52.5t-50.5 67t-32.5 77t-17.5 83.5t-5 85.5t6 84l120 905h140l-117 -880
q-58 -396 246 -396q132 0 217 74q48 46 80 122.5t43 164.5zM891 1616l-35 -90l-424 139v8l45 113z" />
    <glyph glyph-name="uni1EEB" unicode="&#x1eeb;" horiz-adv-x="1013" 
d="M778 6l-114 -12l-5 194q-84 -96 -180 -156.5t-190 -60.5q-83 0 -128 40.5t-53 111t3 164.5l88 663l135 6l-82 -634q-18 -100 -6 -163.5t69 -66.5q77 4 172 68.5t179 158.5l84 633h65q124 0 137 78q6 51 -24 125l104 12q31 -64 31 -125q0 -171 -191 -192l-59 -455
q-21 -196 -35 -389zM711 1157l-60 -70l-358 277l-2 8l78 96z" />
    <glyph glyph-name="uni1EEC" unicode="&#x1eec;" horiz-adv-x="1218" 
d="M1006 1372h49q126 0 139 76q3 66 -25 137l117 12q33 -68 33 -137q0 -170 -186 -198l-105 -770q-15 -118 -48.5 -209t-91.5 -163.5t-149 -110.5t-211 -38q-61 0 -113.5 12t-90.5 34.5t-68.5 52.5t-50.5 67t-32.5 77t-17.5 83.5t-5 85.5t6 84l120 905h140l-117 -880
q-58 -396 246 -396q132 0 217 74q48 46 80 122.5t43 164.5zM608 1755l-16 86q61 21 110 21q73 0 115.5 -37.5t42.5 -102.5q0 -91 -66.5 -142t-183.5 -62l-12 86q91 18 125 43q25 25 25 61q0 59 -66 59q-30 0 -74 -12z" />
    <glyph glyph-name="uni1EED" unicode="&#x1eed;" horiz-adv-x="1013" 
d="M778 6l-114 -12l-5 194q-84 -96 -180 -156.5t-190 -60.5q-83 0 -128 40.5t-53 111t3 164.5l88 663l135 6l-82 -634q-18 -100 -6 -163.5t69 -66.5q77 4 172 68.5t179 158.5l84 633h65q124 0 137 78q6 51 -24 125l104 12q31 -64 31 -125q0 -171 -191 -192l-59 -455
q-21 -196 -35 -389zM461 1350l-17 86q58 20 111 20q74 0 119 -37t45 -106q0 -97 -70 -156t-186 -70l-10 87q84 14 120 47q31 27 31 77q0 64 -72 64q-28 0 -71 -12z" />
    <glyph glyph-name="uni1EEE" unicode="&#x1eee;" horiz-adv-x="1218" 
d="M1006 1372h49q126 0 139 76q3 66 -25 137l117 12q33 -68 33 -137q0 -170 -186 -198l-105 -770q-15 -118 -48.5 -209t-91.5 -163.5t-149 -110.5t-211 -38q-61 0 -113.5 12t-90.5 34.5t-68.5 52.5t-50.5 67t-32.5 77t-17.5 83.5t-5 85.5t6 84l120 905h140l-117 -880
q-58 -396 246 -396q132 0 217 74q48 46 80 122.5t43 164.5zM410 1569q29 48 51 79t51 62.5t61.5 46.5t69.5 15q35 0 66.5 -21.5t50.5 -48t42 -49.5t42 -25q31 3 63.5 40.5t71.5 103.5l82 -48q-59 -106 -107 -156t-116 -50q-38 0 -71 21.5t-52 47.5t-41 49.5t-41 26.5
q-33 -3 -68 -40.5t-78 -102.5z" />
    <glyph glyph-name="uni1EEF" unicode="&#x1eef;" horiz-adv-x="1013" 
d="M778 6l-114 -12l-5 194q-84 -96 -180 -156.5t-190 -60.5q-83 0 -128 40.5t-53 111t3 164.5l88 663l135 6l-82 -634q-18 -100 -6 -163.5t69 -66.5q77 4 172 68.5t179 158.5l84 633h65q124 0 137 78q6 51 -24 125l104 12q31 -64 31 -125q0 -171 -191 -192l-59 -455
q-21 -196 -35 -389zM246 1163q51 99 101.5 151t119.5 52q35 0 66 -19.5t50 -44t43 -49t46 -30.5q57 8 133 143l80 -43q-48 -99 -100 -153t-121 -54q-36 0 -66.5 20t-48.5 44.5t-42.5 49t-47.5 30.5q-54 -9 -133 -144z" />
    <glyph glyph-name="uni1EF0" unicode="&#x1ef0;" horiz-adv-x="1218" 
d="M1006 1372h49q126 0 139 76q3 66 -25 137l117 12q33 -68 33 -137q0 -170 -186 -198l-105 -770q-15 -118 -48.5 -209t-91.5 -163.5t-149 -110.5t-211 -38q-61 0 -113.5 12t-90.5 34.5t-68.5 52.5t-50.5 67t-32.5 77t-17.5 83.5t-5 85.5t6 84l120 905h140l-117 -880
q-58 -396 246 -396q132 0 217 74q48 46 80 122.5t43 164.5zM410 -313q0 50 33 82t81 32q37 0 56.5 -20t19.5 -53q0 -52 -32 -83.5t-79 -31.5q-39 0 -59 20.5t-20 53.5z" />
    <glyph glyph-name="uni1EF1" unicode="&#x1ef1;" horiz-adv-x="1013" 
d="M778 6l-114 -12l-5 194q-84 -96 -180 -156.5t-190 -60.5q-83 0 -128 40.5t-53 111t3 164.5l88 663l135 6l-82 -634q-18 -100 -6 -163.5t69 -66.5q77 4 172 68.5t179 158.5l84 633h65q124 0 137 78q6 51 -24 125l104 12q31 -64 31 -125q0 -171 -191 -192l-59 -455
q-21 -196 -35 -389zM332 -313q0 50 33 82t81 32q37 0 56.5 -20t19.5 -53q0 -53 -31.5 -84t-78.5 -31q-39 0 -59.5 20.5t-20.5 53.5z" />
    <glyph glyph-name="Ygrave" unicode="&#x1ef2;" horiz-adv-x="1001" 
d="M926 1372h143q-17 -39 -80 -137l-426 -674l-71 -561h-140l74 575l-236 664q-41 114 -45 133h140l172 -495l57 -168zM801 1616l-35 -90l-424 139v8l45 113z" />
    <glyph glyph-name="ygrave" unicode="&#x1ef3;" horiz-adv-x="903" 
d="M-51 -506q-31 0 -55 4l18 119q110 3 213 92.5t219 284.5h-25l-208 874q-10 49 -5 84h132l141 -643l37 -174h8q277 480 291 817h129v-39q0 -114 -65.5 -310t-196.5 -437q-191 -352 -338.5 -512t-294.5 -160zM657 1157l-59 -70l-358 277l-2 8l77 96z" />
    <glyph glyph-name="uni1EF6" unicode="&#x1ef6;" horiz-adv-x="1050" 
d="M926 1372h143q-17 -39 -80 -137l-426 -674l-71 -561h-140l74 575l-236 664q-41 114 -45 133h140l172 -495l57 -168zM551 1755l-16 86q61 21 110 21q73 0 115.5 -37.5t42.5 -102.5q0 -91 -66.5 -142t-183.5 -62l-12 86q91 18 125 43q24 24 24 61q0 59 -65 59
q-31 0 -74 -12z" />
    <glyph glyph-name="uni1EF7" unicode="&#x1ef7;" horiz-adv-x="903" 
d="M-51 -506q-31 0 -55 4l18 119q110 3 213 92.5t219 284.5h-25l-208 874q-10 49 -5 84h132l141 -643l37 -174h8q277 480 291 817h129v-39q0 -114 -65.5 -310t-196.5 -437q-191 -352 -338.5 -512t-294.5 -160zM408 1350l-17 86q58 20 111 20q74 0 119 -37t45 -106
q0 -97 -70 -156t-186 -70l-11 87q85 14 121 47q31 27 31 77q0 64 -72 64q-27 0 -71 -12z" />
    <glyph glyph-name="uni1EF8" unicode="&#x1ef8;" horiz-adv-x="1001" 
d="M926 1372h143q-17 -39 -80 -137l-426 -674l-71 -561h-140l74 575l-236 664q-41 114 -45 133h140l172 -495l57 -168zM319 1569q60 100 112.5 151.5t121.5 51.5q35 0 66.5 -21.5t50.5 -48t42 -49.5t42 -25q31 3 63.5 40.5t71.5 103.5l82 -48q-59 -106 -107 -156t-116 -50
q-38 0 -71 21.5t-52 47.5t-41 49.5t-41 26.5q-33 -3 -68 -40.5t-78 -102.5z" />
    <glyph glyph-name="uni1EF9" unicode="&#x1ef9;" horiz-adv-x="903" 
d="M-51 -506q-31 0 -55 4l18 119q110 3 213 92.5t219 284.5h-25l-208 874q-10 49 -5 84h132l141 -643l37 -174h8q277 480 291 817h129v-39q0 -114 -65.5 -310t-196.5 -437q-191 -352 -338.5 -512t-294.5 -160zM193 1163q51 99 101.5 151t119.5 52q35 0 66 -19.5t49.5 -44
t42.5 -49t46 -30.5q58 8 134 143l79 -43q-48 -99 -100 -153t-121 -54q-36 0 -66.5 20t-48.5 44.5t-42 49t-47 30.5q-55 -9 -134 -144z" />
    <glyph glyph-name="enspace" unicode="&#x2002;" horiz-adv-x="999" 
 />
    <glyph glyph-name="uni2003" unicode="&#x2003;" horiz-adv-x="1878" 
 />
    <glyph glyph-name="uni2009" unicode="&#x2009;" horiz-adv-x="163" 
 />
    <glyph glyph-name="uni2010" unicode="&#x2010;" horiz-adv-x="708" 
d="M139 545h424l-14 -113h-424z" />
    <glyph glyph-name="uni2011" unicode="&#x2011;" horiz-adv-x="708" 
d="M139 545h424l-14 -113h-424z" />
    <glyph glyph-name="endash" unicode="&#x2013;" horiz-adv-x="1097" 
d="M139 545h813l-14 -113h-813z" />
    <glyph glyph-name="emdash" unicode="&#x2014;" horiz-adv-x="1927" 
d="M139 545h1643l-15 -113h-1642z" />
    <glyph glyph-name="quoteleft" unicode="&#x2018;" horiz-adv-x="473" 
d="M193 1169q15 121 84 229.5t182 178.5l47 -61q-159 -138 -184 -338q-7 -72 -7 -134l-125 -10q-6 66 3 135z" />
    <glyph glyph-name="quoteright" unicode="&#x2019;" horiz-adv-x="473" 
d="M469 1427q-15 -121 -84 -229t-182 -180l-47 63q159 138 184 338q6 41 6 131l125 11q8 -58 -2 -134z" />
    <glyph glyph-name="quotesinglbase" unicode="&#x201a;" horiz-adv-x="444" 
d="M240 135q-15 -121 -84.5 -229t-182.5 -180l-47 63q160 139 185 338q6 41 6 131l125 10q8 -58 -2 -133z" />
    <glyph glyph-name="quotedblleft" unicode="&#x201c;" horiz-adv-x="722" 
d="M193 1169q15 121 84 229.5t182 178.5l47 -61q-159 -138 -184 -338q-7 -72 -7 -134l-125 -10q-6 66 3 135zM442 1169q15 121 84.5 229t182.5 179l47 -61q-160 -139 -185 -338q-6 -41 -6 -134l-125 -10q-7 71 2 135z" />
    <glyph glyph-name="quotedblright" unicode="&#x201d;" horiz-adv-x="722" 
d="M469 1427q-15 -121 -84 -229t-182 -180l-47 63q159 138 184 338q6 41 6 131l125 11q8 -58 -2 -134zM719 1427q-15 -121 -84 -229t-182 -180l-47 63q159 138 184 338q6 41 6 131l125 11q7 -70 -2 -134z" />
    <glyph glyph-name="quotedblbase" unicode="&#x201e;" horiz-adv-x="694" 
d="M240 135q-15 -121 -84.5 -229t-182.5 -180l-47 63q160 139 185 338q6 41 6 131l125 10q8 -58 -2 -133zM489 135q-15 -121 -84 -229t-182 -180l-47 63q159 138 184 338q7 48 7 131l125 10q6 -65 -3 -133z" />
    <glyph glyph-name="dagger" unicode="&#x2020;" horiz-adv-x="913" 
d="M614 1247l-41 -295h279l-14 -110h-281l-174 -1260h-125l156 1260h-275l15 110h274l37 295h149z" />
    <glyph glyph-name="daggerdbl" unicode="&#x2021;" horiz-adv-x="913" 
d="M616 1247l-41 -295h279l-14 -110h-279l-55 -396h278l-12 -112h-280l-105 -752h-127l94 752h-280l14 112h279l49 396h-275l15 110h274l37 295h149z" />
    <glyph glyph-name="bullet" unicode="&#x2022;" horiz-adv-x="782" 
d="M621 512q0 -112 -61.5 -171.5t-166.5 -59.5q-104 0 -165.5 60t-61.5 171t61.5 171t165.5 60q105 0 166.5 -59.5t61.5 -171.5z" />
    <glyph glyph-name="ellipsis" unicode="&#x2026;" horiz-adv-x="1521" 
d="M1122 61q0 54 32.5 90.5t88.5 36.5q43 0 66.5 -23.5t23.5 -60.5q0 -56 -34.5 -92.5t-86.5 -36.5q-43 0 -66.5 24.5t-23.5 61.5zM74 61q0 54 32.5 90.5t88.5 36.5q43 0 66.5 -23.5t23.5 -60.5q0 -56 -34.5 -92.5t-86.5 -36.5q-43 0 -66.5 24.5t-23.5 61.5zM598 61
q0 54 32.5 90.5t88.5 36.5q43 0 66.5 -23.5t23.5 -60.5q0 -56 -34.5 -92.5t-86.5 -36.5q-43 0 -66.5 24.5t-23.5 61.5z" />
    <glyph glyph-name="perthousand" unicode="&#x2030;" horiz-adv-x="1988" 
d="M666 1116q0 -92 -21.5 -178t-61 -154t-101.5 -109.5t-136 -41.5q-100 0 -151.5 79t-51.5 206q0 200 89.5 341.5t232.5 141.5q68 0 115 -41t66.5 -103t19.5 -141zM262 918q0 -187 98 -187q49 0 89 37q44 51 71 148.5t27 201.5q0 185 -98 185q-43 0 -80 -29
q-46 -47 -76.5 -148t-30.5 -208zM129 29l1092 1382l84 -68l-1092 -1380zM1284 453q0 -123 -36.5 -231t-111.5 -179.5t-173 -71.5q-99 0 -151 79.5t-52 205.5q0 200 89 341.5t232 141.5q101 0 152 -81t51 -205zM879 256q0 -186 98 -186q49 0 88 36q44 50 71 148.5t27 202.5
q0 86 -21.5 135t-76.5 49q-40 0 -80 -29q-46 -47 -76 -148t-30 -208zM1888 453q0 -123 -36 -231t-110.5 -179.5t-172.5 -71.5q-100 0 -151.5 79t-51.5 206q0 130 38.5 239.5t112.5 176.5t169 67q102 0 152 -81t50 -205zM1485 256q0 -186 98 -186q49 0 88 36
q43 51 70.5 149.5t27.5 201.5q0 184 -98 184q-42 0 -82 -29q-46 -47 -75 -147.5t-29 -208.5z" />
    <glyph glyph-name="uni2032" unicode="&#x2032;" horiz-adv-x="419" 
d="M420 1454l-146 -455h-90l97 455h139z" />
    <glyph glyph-name="uni2033" unicode="&#x2033;" horiz-adv-x="647" 
d="M420 1454l-146 -455h-90l97 455h139zM649 1454l-145 -455h-90l96 455h139z" />
    <glyph glyph-name="guilsinglleft" unicode="&#x2039;" horiz-adv-x="622" 
d="M80 518l393 404l80 -74l-330 -359l236 -372l-97 -62l-286 422z" />
    <glyph glyph-name="guilsinglright" unicode="&#x203a;" horiz-adv-x="622" 
d="M522 457l-391 -402l-82 72l330 360l-234 373l95 62l288 -422z" />
    <glyph glyph-name="fraction" unicode="&#x2044;" horiz-adv-x="165" 
d="M676 1348l-1075 -1387l-84 66l1075 1386z" />
    <glyph glyph-name="zerosuperior" unicode="&#x2070;" horiz-adv-x="684" 
d="M686 1313q0 -91 -22 -177t-62.5 -154t-103 -109.5t-136.5 -41.5q-101 0 -154.5 77.5t-53.5 205.5q0 199 91.5 342t233.5 143q72 0 120 -41t67.5 -103t19.5 -142zM274 1114q0 -184 103 -184q50 0 88 35q44 45 73 143.5t29 206.5q0 186 -102 186q-43 0 -82 -31
q-47 -41 -78 -140.5t-31 -215.5z" />
    <glyph glyph-name="i.sups" unicode="&#x2071;" horiz-adv-x="339" 
d="M219 1438l119 4l-78 -594h-119zM225 1616q0 39 27 62.5t67 23.5q30 0 47 -16t17 -41q0 -39 -26.5 -62.5t-65.5 -23.5q-31 0 -48.5 15.5t-17.5 41.5z" />
    <glyph glyph-name="foursuperior" unicode="&#x2074;" horiz-adv-x="651" 
d="M119 1110l379 475l118 -2l-63 -477h96l-4 -94h-104l-21 -164h-117l23 164h-305zM422 1352l-193 -246h209l43 324h-2z" />
    <glyph glyph-name="fivesuperior" unicode="&#x2075;" horiz-adv-x="591" 
d="M289 831q-84 0 -172 41l30 89q85 -29 140 -29q64 0 106 26q68 48 68 150q0 49 -33.5 77.5t-99.5 28.5q-58 0 -129 -22l-21 12l51 379h381l-16 -100h-270l-25 -187q65 9 84 9q95 0 147 -50t52 -135q0 -130 -82.5 -209.5t-210.5 -79.5z" />
    <glyph glyph-name="sixsuperior" unicode="&#x2076;" horiz-adv-x="630" 
d="M524 1595q73 0 113 -22l-29 -92q-42 14 -82 14q-52 0 -104 -27q-98 -60 -137 -221h4q73 45 151 45q86 0 135.5 -49t49.5 -127q0 -122 -75.5 -203.5t-191.5 -81.5q-101 0 -154.5 69.5t-53.5 178.5q0 133 44.5 249.5t132 191.5t197.5 75zM371 932q45 0 82 24q57 47 57 142
q0 47 -26.5 76.5t-80.5 29.5q-65 0 -133 -45q-4 -46 -4 -72q0 -73 26.5 -114t78.5 -41z" />
    <glyph glyph-name="sevensuperior" unicode="&#x2077;" horiz-adv-x="557" 
d="M242 825l-103 60l357 596h-322l4 102h436l4 -102z" />
    <glyph glyph-name="eightsuperior" unicode="&#x2078;" horiz-adv-x="657" 
d="M213 1393q0 91 70 147.5t178 56.5q89 0 141.5 -42t52.5 -113q0 -124 -133 -213q113 -74 113 -168q0 -106 -80.5 -168t-194.5 -62q-104 0 -165.5 44t-61.5 122q0 138 170 240q-90 65 -90 156zM328 1403q0 -38 29.5 -67.5t93.5 -65.5q92 77 92 151q0 38 -26 60t-73 22
q-41 0 -73 -16q-43 -25 -43 -84zM371 926q55 0 102 26q47 37 47 97q0 24 -8.5 42.5t-33 37.5t-42 29.5t-61.5 35.5q-129 -84 -129 -174q0 -45 34 -69.5t91 -24.5z" />
    <glyph glyph-name="ninesuperior" unicode="&#x2079;" horiz-adv-x="630" 
d="M385 1223q65 0 133 45q4 46 4 71q0 74 -26.5 116t-79.5 42q-41 0 -80 -27q-57 -44 -57 -141q0 -48 26 -77t80 -29zM262 831q-66 0 -112 23l28 92q42 -14 84 -14q51 0 105 26q94 57 137 222h-4q-76 -45 -152 -45q-87 0 -135.5 48.5t-48.5 127.5q0 123 74 203.5t190 80.5
q103 0 156 -69t53 -178q0 -133 -44.5 -250t-132 -192t-198.5 -75z" />
    <glyph glyph-name="n.sups" unicode="&#x207f;" horiz-adv-x="704" 
d="M209 1434l96 10l10 -117q122 129 246 129q77 0 105.5 -55t15.5 -146l-53 -407h-119l49 377q11 54 4.5 90.5t-39.5 40.5q-95 -6 -211 -125l-51 -383h-119l45 338q21 242 21 248z" />
    <glyph glyph-name="zeroinferior" unicode="&#x2080;" horiz-adv-x="684" 
d="M569 362q0 -123 -37 -231t-112.5 -179t-173.5 -71q-101 0 -155 77.5t-54 205.5q0 199 91.5 342t233.5 143q72 0 120 -41t67.5 -103.5t19.5 -142.5zM158 164q0 -184 102 -184q51 0 88 34q44 45 73.5 144t29.5 207q0 186 -103 186q-43 0 -82 -31q-46 -40 -77 -139.5
t-31 -216.5z" />
    <glyph glyph-name="oneinferior" unicode="&#x2081;" horiz-adv-x="532" 
d="M66 563l204 74l99 -4l-84 -639h121l-3 -96h-399l8 96h154l70 522l-150 -39z" />
    <glyph glyph-name="twoinferior" unicode="&#x2082;" horiz-adv-x="595" 
d="M70 557q51 42 104 66t127 24q91 0 142 -53.5t51 -138.5q0 -59 -23 -116.5t-68 -111t-88.5 -94t-107.5 -92.5l-62 -47h291l-2 -96h-434v96l115 92q59 49 97.5 85t79 82.5t61 93t20.5 91.5q0 107 -97 107q-31 0 -61.5 -10t-50 -21t-47.5 -31z" />
    <glyph glyph-name="threeinferior" unicode="&#x2083;" horiz-adv-x="593" 
d="M76 580q90 65 215 65q88 0 137 -43t49 -115q0 -66 -35 -117.5t-94 -82.5q109 -41 109 -156q0 -112 -77 -181t-200 -69q-111 0 -190 53l37 84q83 -36 157 -36q58 0 92 22q58 41 58 119q0 50 -37 78t-109 28h-49l6 90h50q66 0 113.5 40t47.5 102q0 38 -25 62t-73 24
q-69 0 -145 -41z" />
    <glyph glyph-name="fourinferior" unicode="&#x2084;" horiz-adv-x="651" 
d="M2 160l379 475l119 -2l-64 -477h96l-4 -95h-104l-21 -163h-116l22 163h-305zM305 401l-192 -245h209l43 323h-3z" />
    <glyph glyph-name="fiveinferior" unicode="&#x2085;" horiz-adv-x="591" 
d="M172 -119q-84 0 -172 41l31 88q82 -28 139 -28q64 0 106 26q68 48 68 150q0 49 -33.5 77.5t-99.5 28.5q-58 0 -129 -22l-21 12l52 379h381l-17 -101h-270l-25 -186q58 8 84 8q95 0 147 -49.5t52 -134.5q0 -130 -82.5 -209.5t-210.5 -79.5z" />
    <glyph glyph-name="sixinferior" unicode="&#x2086;" horiz-adv-x="630" 
d="M408 645q72 0 112 -22l-28 -93q-45 15 -82 15q-53 0 -105 -27q-98 -60 -137 -221h4q73 45 152 45q86 0 135 -49t49 -127q0 -122 -75 -203.5t-191 -81.5q-101 0 -155 70t-54 178q0 133 45 249.5t132.5 191.5t197.5 75zM254 -18q44 0 82 24q57 47 57 141q0 48 -26 77.5
t-80 29.5q-65 0 -133 -45q-4 -46 -4 -72q0 -74 26.5 -114.5t77.5 -40.5z" />
    <glyph glyph-name="seveninferior" unicode="&#x2087;" horiz-adv-x="557" 
d="M125 -125l-102 59l356 596h-322l4 103h437l4 -103z" />
    <glyph glyph-name="eightinferior" unicode="&#x2088;" horiz-adv-x="657" 
d="M96 442q0 91 70 148t178 57q89 0 142 -42t53 -113q0 -124 -133 -213q112 -73 112 -168q0 -106 -80 -168t-194 -62q-104 0 -166 44t-62 122q0 138 170 240q-90 65 -90 155zM211 453q0 -39 30 -68.5t93 -65.5q92 77 92 152q0 39 -25.5 60.5t-72.5 21.5q-42 0 -74 -16
q-43 -25 -43 -84zM254 -25q53 0 102 27q47 37 47 96q0 24 -8.5 42.5t-32.5 37.5t-42.5 30.5t-61.5 35.5q-129 -84 -129 -174q0 -45 34 -70t91 -25z" />
    <glyph glyph-name="nineinferior" unicode="&#x2089;" horiz-adv-x="630" 
d="M268 272q65 0 133 45q5 58 5 72q0 74 -27 116t-80 42q-41 0 -80 -27q-57 -44 -57 -141q0 -48 26 -77.5t80 -29.5zM145 -119q-66 0 -112 23l28 92q42 -14 84 -14q51 0 105 26q46 28 81.5 85.5t55.5 135.5h-4q-76 -45 -152 -45q-87 0 -135.5 48.5t-48.5 127.5q0 123 74 204
t190 81q102 0 155.5 -69.5t53.5 -178.5q0 -133 -44.5 -249.5t-132 -191.5t-198.5 -75z" />
    <glyph glyph-name="a.sinf" unicode="&#x2090;" horiz-adv-x="671" 
d="M207 -18q37 3 83.5 29t88.5 65l45 319q-43 15 -88 15q-36 0 -70 -15q-58 -35 -90.5 -111.5t-32.5 -170.5q0 -125 64 -131zM20 94q-2 176 92 294t244 118q93 0 193 -57l-45 -338q-11 -80 -15 -207l-98 -13l-10 97q-111 -107 -209 -107q-72 0 -112 61t-40 152z" />
    <glyph glyph-name="e.sinf" unicode="&#x2091;" horiz-adv-x="630" 
d="M23 115q0 162 92.5 276.5t236.5 114.5q83 0 129.5 -39.5t46.5 -108.5q0 -61 -35.5 -106t-95.5 -68t-122.5 -34t-133.5 -13v-8q0 -132 84 -147q102 -3 215 63l35 -74q-127 -86 -256 -86q-94 0 -145 61.5t-51 168.5zM236 383q-67 -64 -86 -172q270 13 270 133
q0 37 -23.5 54.5t-62.5 17.5q-53 0 -98 -33z" />
    <glyph glyph-name="o.sinf" unicode="&#x2092;" horiz-adv-x="681" 
d="M23 125q0 64 21 130t59 122.5t100.5 92.5t138.5 36q111 0 168 -69.5t55 -178.5q0 -87 -35 -171.5t-110 -145t-174 -60.5q-107 0 -165 68t-58 176zM444 258q0 156 -118 156q-49 0 -86 -29q-44 -39 -70.5 -111t-26.5 -149q0 -70 30.5 -111t90.5 -41q46 0 86 29
q44 41 69 110t25 146z" />
    <glyph glyph-name="x.sinf" unicode="&#x2093;" horiz-adv-x="616" 
d="M55 487h117l68 -153l32 -80h2q68 78 103 132.5t41 100.5h114q-6 -64 -57.5 -135t-140.5 -157l121 -226q18 -39 18 -71h-117l-75 165l-33 80h-2q-101 -121 -150 -245h-114q14 64 71 149t127 160l-106 213q-19 46 -19 67z" />
    <glyph glyph-name="uni20AB" unicode="&#x20ab;" horiz-adv-x="944" 
d="M47 96h725l-12 -96h-725zM319 301q131 8 299 176l58 381q-81 45 -178 45q-69 0 -125 -33q-74 -53 -117 -159.5t-43 -214.5q0 -82 26.5 -136.5t79.5 -58.5zM84 487q-1 97 28.5 190.5t82.5 168t134 120.5t175 46q89 0 188 -45l27 188h-367l13 94h368l21 142l127 4l-23 -146
h135l-12 -94h-137l-90 -606q-13 -109 -25 -328l-104 -12l-7 158q-173 -177 -323 -177q-106 0 -158.5 86t-52.5 211z" />
    <glyph glyph-name="Euro" unicode="&#x20ac;" horiz-adv-x="1224" 
d="M903 784h-500q-20 -89 -30 -190h504l-15 -107h-491q8 -179 93 -281t253 -102q84 0 153 17.5t150 52.5l39 -104q-94 -48 -178 -70.5t-189 -22.5q-115 0 -204 38t-145 107t-86 161t-32 204h-137l14 107h127q6 91 31 190h-131l12 107h150q37 106 92 194.5t129 159t171 110.5
t208 40q168 0 313 -101l-61 -102q-125 76 -262 76q-142 0 -258 -88q-116 -101 -187 -289h482z" />
    <glyph glyph-name="uni20B9" unicode="&#x20b9;" horiz-adv-x="1095" 
d="M125 528l29 115h73q248 0 381 88q90 67 113 172h-559l14 107h551q-20 256 -418 256h-100l14 106h885l-14 -106h-381q144 -84 153 -256h195l-17 -107h-186q-16 -89 -65.5 -158.5t-125.5 -114.5t-171 -70t-207 -30l348 -376q113 -119 115 -154h-150z" />
    <glyph glyph-name="uni20BA" unicode="&#x20ba;" horiz-adv-x="1003" 
d="M313 1372h140l-45 -342l387 129l30 -102l-432 -144l-24 -186l387 129l30 -102l-434 -144l-63 -491q111 1 196.5 26t157 80.5t123.5 147t88 223.5l127 -25q-73 -299 -248.5 -435t-460.5 -136h-139l74 561l-131 -43l-31 103l178 59l23 184l-129 -43l-31 103l176 59z" />
    <glyph glyph-name="uni20BD" unicode="&#x20bd;" horiz-adv-x="1054" 
d="M588 1276q-64 0 -162 -16l-78 -590h94q158 0 254 45q93 41 143 124.5t50 194.5q0 131 -78 186.5t-223 55.5zM768 287h-471l-37 -287h-139l39 287h-140l15 106h137l23 168h-138l15 109h137l92 692q153 33 303 33q196 0 312 -85.5t116 -258.5q0 -221 -152.5 -355.5
t-441.5 -134.5h-104l-23 -168h469z" />
    <glyph glyph-name="uni2113" unicode="&#x2113;" horiz-adv-x="739" 
d="M322 -23q-111 0 -166.5 72t-36.5 217l20 164h-94l12 107h97l65 497q24 183 88.5 272t192.5 89q106 0 163.5 -75t57.5 -206q0 -181 -51.5 -324t-154 -235.5t-245.5 -116.5l-20 -149q-15 -107 9.5 -151t94.5 -44q53 0 127 27l29 -101q-95 -43 -188 -43zM414 1249
q-47 -47 -66 -211l-63 -487q111 27 182 104q129 154 129 459q0 77 -26.5 119.5t-77.5 42.5q-44 0 -78 -27z" />
    <glyph glyph-name="trademark" unicode="&#x2122;" horiz-adv-x="1648" 
d="M1329 1372h125l94 -686h-96l-59 428l-13 129h-2l-184 -557h-107l-141 428l-33 129h-4l-71 -557h-97l95 686h125l147 -444l31 -117h4zM164 1372h577l-2 -82h-235v-604h-105v604h-231z" />
    <glyph glyph-name="estimated" unicode="&#x212e;" horiz-adv-x="1656" 
d="M1395 162l26 -60q-114 -67 -245.5 -100t-323.5 -33q-165 0 -301 55t-225.5 150.5t-138 223t-48.5 272.5q0 104 24.5 205.5t80 197.5t135.5 169t200.5 117t266.5 44q165 0 294.5 -55t211 -151t124 -222t42.5 -273v-51h-1135v-424q170 -188 467 -188q314 0 545 123z
M850 1333q-297 0 -467 -184v-430h913v426q-154 188 -446 188z" />
    <glyph glyph-name="uni2150" unicode="&#x2150;" horiz-adv-x="1646" 
d="M231 1268l238 73l100 -4l-86 -639h142l-4 -96h-455l8 96h191l69 525l-180 -41zM1415 1348l-1075 -1387l-84 66l1075 1386zM1135 6l-103 60l357 596h-322l4 102h436l4 -102z" />
    <glyph glyph-name="uni2151" unicode="&#x2151;" horiz-adv-x="1646" 
d="M231 1268l238 73l100 -4l-86 -639h142l-4 -96h-455l8 96h191l69 525l-180 -41zM1415 1348l-1075 -1387l-84 66l1075 1386zM1241 403q63 0 133 46q4 46 4 71q0 74 -26.5 116t-79.5 42q-41 0 -80 -27q-57 -47 -57 -141q0 -48 26 -77.5t80 -29.5zM1118 12q-66 0 -112 23
l30 92q37 -14 82 -14q57 0 105 26q46 28 81.5 85.5t55.5 135.5h-4q-73 -45 -152 -45q-87 0 -135.5 49t-48.5 128q0 123 74.5 203.5t191.5 80.5q101 0 154 -69.5t53 -178.5q0 -133 -44.5 -249.5t-132 -191.5t-198.5 -75z" />
    <glyph glyph-name="uni2153" unicode="&#x2153;" horiz-adv-x="1646" 
d="M231 1268l238 73l100 -4l-86 -639h142l-4 -96h-455l8 96h191l69 525l-180 -41zM1415 1348l-1075 -1387l-84 66l1075 1386zM1067 711q90 65 213 65q89 0 138.5 -43t49.5 -115q0 -66 -35.5 -117.5t-95.5 -82.5q111 -41 111 -156q0 -112 -77.5 -181t-199.5 -69
q-108 0 -192 54l39 84q86 -37 158 -37q58 0 92 22q57 41 57 119q0 51 -36.5 78.5t-108.5 27.5h-50l7 91h49q66 0 114 40t48 101q0 38 -25.5 62t-73.5 24q-67 0 -147 -41z" />
    <glyph glyph-name="uni2154" unicode="&#x2154;" horiz-adv-x="1646" 
d="M229 1262q106 90 230 90q92 0 142 -54t50 -139q0 -60 -22.5 -117t-66.5 -110t-88 -94.5t-107 -92.5l-62 -47h291l-2 -96h-436v96l116 93q59 49 97.5 85t79 82.5t61 93t20.5 91.5q0 106 -98 106q-44 0 -79.5 -15.5t-78.5 -45.5zM1415 1348l-1075 -1387l-84 66l1075 1386z
M1067 711q90 65 213 65q89 0 138.5 -43t49.5 -115q0 -66 -35.5 -117.5t-95.5 -82.5q111 -41 111 -156q0 -112 -77.5 -181t-199.5 -69q-108 0 -192 54l39 84q86 -37 158 -37q58 0 92 22q57 41 57 119q0 51 -36.5 78.5t-108.5 27.5h-50l7 91h49q66 0 114 40t48 101
q0 38 -25.5 62t-73.5 24q-67 0 -147 -41z" />
    <glyph glyph-name="uni2155" unicode="&#x2155;" horiz-adv-x="1646" 
d="M231 1268l238 73l100 -4l-86 -639h142l-4 -96h-455l8 96h191l69 525l-180 -41zM1415 1348l-1075 -1387l-84 66l1075 1386zM1165 12q-86 0 -174 41l33 88q77 -28 139 -28t107 26q67 50 67 150q0 49 -34.5 77.5t-98.5 28.5q-61 0 -129 -22l-20 12l49 379h381l-17 -100h-270
l-24 -187q58 8 86 8q94 0 145 -49.5t51 -134.5q0 -130 -81.5 -209.5t-209.5 -79.5z" />
    <glyph glyph-name="uni2156" unicode="&#x2156;" horiz-adv-x="1646" 
d="M229 1262q106 90 230 90q92 0 142 -54t50 -139q0 -60 -22.5 -117t-66.5 -110t-88 -94.5t-107 -92.5l-62 -47h291l-2 -96h-436v96l116 93q59 49 97.5 85t79 82.5t61 93t20.5 91.5q0 106 -98 106q-44 0 -79.5 -15.5t-78.5 -45.5zM1415 1348l-1075 -1387l-84 66l1075 1386z
M1165 12q-86 0 -174 41l33 88q77 -28 139 -28t107 26q67 50 67 150q0 49 -34.5 77.5t-98.5 28.5q-61 0 -129 -22l-20 12l49 379h381l-17 -100h-270l-24 -187q58 8 86 8q94 0 145 -49.5t51 -134.5q0 -130 -81.5 -209.5t-209.5 -79.5z" />
    <glyph glyph-name="uni2157" unicode="&#x2157;" horiz-adv-x="1646" 
d="M236 1284q91 66 213 66q89 0 138.5 -43t49.5 -115q0 -66 -35.5 -118t-95.5 -83q110 -40 110 -155q0 -112 -77 -181t-199 -69q-111 0 -193 53l39 84q86 -37 158 -37q56 0 92 23q58 41 58 118q0 51 -37 79t-109 28h-49l6 90h49q66 0 114 40t48 101q0 38 -25 62t-73 24
q-68 0 -148 -41zM1415 1348l-1075 -1387l-84 66l1075 1386zM1165 12q-86 0 -174 41l33 88q77 -28 139 -28t107 26q67 50 67 150q0 49 -34.5 77.5t-98.5 28.5q-61 0 -129 -22l-20 12l49 379h381l-17 -100h-270l-24 -187q58 8 86 8q94 0 145 -49.5t51 -134.5
q0 -130 -81.5 -209.5t-209.5 -79.5z" />
    <glyph glyph-name="uni2158" unicode="&#x2158;" horiz-adv-x="1646" 
d="M133 864l379 475l119 -2l-64 -477h97l-7 -94h-102l-23 -164h-114l22 164h-305zM436 1106l-192 -246h209l43 324h-2zM1415 1348l-1075 -1387l-84 66l1075 1386zM1165 12q-86 0 -174 41l33 88q77 -28 139 -28t107 26q67 50 67 150q0 49 -34.5 77.5t-98.5 28.5
q-61 0 -129 -22l-20 12l49 379h381l-17 -100h-270l-24 -187q58 8 86 8q94 0 145 -49.5t51 -134.5q0 -130 -81.5 -209.5t-209.5 -79.5z" />
    <glyph glyph-name="uni2159" unicode="&#x2159;" horiz-adv-x="1646" 
d="M231 1268l238 73l100 -4l-86 -639h142l-4 -96h-455l8 96h191l69 525l-180 -41zM1415 1348l-1075 -1387l-84 66l1075 1386zM1380 776q73 0 113 -22l-29 -92q-42 14 -82 14q-52 0 -104 -27q-98 -60 -137 -221h4q73 45 151 45q86 0 135.5 -49t49.5 -127q0 -122 -75.5 -203.5
t-191.5 -81.5q-101 0 -154.5 69.5t-53.5 178.5q0 133 44.5 249.5t132 191.5t197.5 75zM1229 113q43 0 80 24q57 47 57 142q0 48 -26 77t-80 29q-66 0 -134 -45q-4 -46 -4 -72q0 -74 27 -114.5t80 -40.5z" />
    <glyph glyph-name="uni215A" unicode="&#x215a;" horiz-adv-x="1646" 
d="M334 586q-86 0 -174 41l33 88q80 -29 139 -29q60 0 106 27q68 51 68 149q0 49 -34.5 78t-98.5 29q-58 0 -129 -23l-21 12l49 379h381l-16 -100h-270l-25 -186q58 8 86 8q94 0 145.5 -50t51.5 -135q0 -130 -81.5 -209t-209.5 -79zM1415 1348l-1075 -1387l-84 66l1075 1386
zM1380 776q73 0 113 -22l-29 -92q-42 14 -82 14q-52 0 -104 -27q-98 -60 -137 -221h4q73 45 151 45q86 0 135.5 -49t49.5 -127q0 -122 -75.5 -203.5t-191.5 -81.5q-101 0 -154.5 69.5t-53.5 178.5q0 133 44.5 249.5t132 191.5t197.5 75zM1229 113q43 0 80 24q57 47 57 142
q0 48 -26 77t-80 29q-66 0 -134 -45q-4 -46 -4 -72q0 -74 27 -114.5t80 -40.5z" />
    <glyph glyph-name="uni215B" unicode="&#x215b;" horiz-adv-x="1646" 
d="M231 1268l238 73l100 -4l-86 -639h142l-4 -96h-455l8 96h191l69 525l-180 -41zM1415 1348l-1075 -1387l-84 66l1075 1386zM1055 573q0 91 70.5 148t177.5 57q89 0 141.5 -42t52.5 -113q0 -123 -131 -213q113 -74 113 -168q0 -106 -80.5 -168t-196.5 -62q-104 0 -165.5 44
t-61.5 122q0 138 170 240q-90 65 -90 155zM1169 584q0 -38 29.5 -67.5t93.5 -65.5q92 77 92 151q0 38 -25 60t-71 22q-45 0 -74 -16q-45 -27 -45 -84zM1212 106q57 0 103 27q49 39 49 96q0 16 -3.5 29.5t-16 27.5t-19.5 22t-31 23t-33 20t-42 24q-129 -82 -129 -174
q0 -45 33 -70t89 -25z" />
    <glyph glyph-name="uni215C" unicode="&#x215c;" horiz-adv-x="1646" 
d="M236 1284q91 66 213 66q89 0 138.5 -43t49.5 -115q0 -66 -35.5 -118t-95.5 -83q110 -40 110 -155q0 -112 -77 -181t-199 -69q-111 0 -193 53l39 84q86 -37 158 -37q56 0 92 23q58 41 58 118q0 51 -37 79t-109 28h-49l6 90h49q66 0 114 40t48 101q0 38 -25 62t-73 24
q-68 0 -148 -41zM1415 1348l-1075 -1387l-84 66l1075 1386zM1055 573q0 91 70.5 148t177.5 57q89 0 141.5 -42t52.5 -113q0 -123 -131 -213q113 -74 113 -168q0 -106 -80.5 -168t-196.5 -62q-104 0 -165.5 44t-61.5 122q0 138 170 240q-90 65 -90 155zM1169 584
q0 -38 29.5 -67.5t93.5 -65.5q92 77 92 151q0 38 -25 60t-71 22q-45 0 -74 -16q-45 -27 -45 -84zM1212 106q57 0 103 27q49 39 49 96q0 16 -3.5 29.5t-16 27.5t-19.5 22t-31 23t-33 20t-42 24q-129 -82 -129 -174q0 -45 33 -70t89 -25z" />
    <glyph glyph-name="uni215D" unicode="&#x215d;" horiz-adv-x="1646" 
d="M334 586q-86 0 -174 41l33 88q80 -29 139 -29q60 0 106 27q68 51 68 149q0 49 -34.5 78t-98.5 29q-58 0 -129 -23l-21 12l49 379h381l-16 -100h-270l-25 -186q58 8 86 8q94 0 145.5 -50t51.5 -135q0 -130 -81.5 -209t-209.5 -79zM1415 1348l-1075 -1387l-84 66l1075 1386
zM1055 573q0 91 70.5 148t177.5 57q89 0 141.5 -42t52.5 -113q0 -123 -131 -213q113 -74 113 -168q0 -106 -80.5 -168t-196.5 -62q-104 0 -165.5 44t-61.5 122q0 138 170 240q-90 65 -90 155zM1169 584q0 -38 29.5 -67.5t93.5 -65.5q92 77 92 151q0 38 -25 60t-71 22
q-45 0 -74 -16q-45 -27 -45 -84zM1212 106q57 0 103 27q49 39 49 96q0 16 -3.5 29.5t-16 27.5t-19.5 22t-31 23t-33 20t-42 24q-129 -82 -129 -174q0 -45 33 -70t89 -25z" />
    <glyph glyph-name="uni215E" unicode="&#x215e;" horiz-adv-x="1646" 
d="M303 580l-102 59l356 596h-321l4 102h436l4 -102zM1415 1348l-1075 -1387l-84 66l1075 1386zM1055 573q0 91 70.5 148t177.5 57q89 0 141.5 -42t52.5 -113q0 -123 -131 -213q113 -74 113 -168q0 -106 -80.5 -168t-196.5 -62q-104 0 -165.5 44t-61.5 122q0 138 170 240
q-90 65 -90 155zM1169 584q0 -38 29.5 -67.5t93.5 -65.5q92 77 92 151q0 38 -25 60t-71 22q-45 0 -74 -16q-45 -27 -45 -84zM1212 106q57 0 103 27q49 39 49 96q0 16 -3.5 29.5t-16 27.5t-19.5 22t-31 23t-33 20t-42 24q-129 -82 -129 -174q0 -45 33 -70t89 -25z" />
    <glyph glyph-name="uni2190" unicode="&#x2190;" horiz-adv-x="1691" 
d="M662 12l-609 477v27l611 479l71 -90l-284 -227l-179 -121h1377v-111h-1373l175 -120l282 -224z" />
    <glyph glyph-name="uni2191" unicode="&#x2191;" horiz-adv-x="1083" 
d="M598 -156h-113v1432l-120 -176l-224 -281l-90 72l477 608h29l477 -610l-90 -72l-225 285l-121 174v-1432z" />
    <glyph glyph-name="uni2192" unicode="&#x2192;" horiz-adv-x="1691" 
d="M45 446v111h1376l-178 121l-285 227l72 90l610 -479v-27l-608 -477l-71 90l280 224l176 120h-1372z" />
    <glyph glyph-name="uni2193" unicode="&#x2193;" horiz-adv-x="1083" 
d="M528 -156l-477 609l90 73l224 -282l120 -176v1431h113v-1431l121 174l225 286l90 -73l-477 -611h-29z" />
    <glyph glyph-name="uni2194" unicode="&#x2194;" horiz-adv-x="2588" 
d="M1933 12l-71 90l278 224l176 120h-2042l179 -120l276 -224l-72 -90l-604 477v27l606 479l72 -90l-280 -225l-179 -123h2046l-178 123l-280 225l71 90l609 -479v-27z" />
    <glyph glyph-name="uni2195" unicode="&#x2195;" horiz-adv-x="1083" 
d="M528 -532l-477 610l90 72l224 -283l120 -176v1575l-120 -176l-224 -283l-90 72l477 610h29l477 -612l-90 -72l-227 287l-119 174v-1575l119 176l227 285l90 -72l-477 -612h-29z" />
    <glyph glyph-name="uni2196" unicode="&#x2196;" horiz-adv-x="1202" 
d="M1151 -12l-90 -68l-836 1131l11 -205l-11 -363l-114 4l16 770l20 17l732 -197l-29 -110l-340 92l-199 65z" />
    <glyph glyph-name="uni2197" unicode="&#x2197;" horiz-adv-x="1202" 
d="M143 -80l-90 68l840 1136l-201 -65l-338 -92l-28 110l731 197l20 -17l17 -770l-115 -4l-10 363l10 205z" />
    <glyph glyph-name="uni2198" unicode="&#x2198;" horiz-adv-x="1202" 
d="M1057 -39l-731 197l28 110l338 -92l201 -63l-840 1134l90 68l836 -1131l-10 205l10 363l115 -4l-17 -771z" />
    <glyph glyph-name="uni2199" unicode="&#x2199;" horiz-adv-x="1202" 
d="M1061 1315l90 -68l-840 -1134l199 63l340 92l29 -110l-732 -197l-20 16l-16 771l114 4l11 -363l-11 -205z" />
    <glyph glyph-name="uni219E" unicode="&#x219e;" horiz-adv-x="2015" 
d="M1972 557v-111h-1171l176 -120l285 -226l-72 -90l-612 479v27l610 477l72 -90l-283 -225l-178 -121h1173zM221 502l498 -432l-76 -88l-590 507v27l590 508l76 -88z" />
    <glyph glyph-name="uni219F" unicode="&#x219f;" horiz-adv-x="1140" 
d="M627 -440h-111v1192l-123 -179l-221 -282l-92 74l479 608h27l477 -611l-90 -73l-225 286l-121 177v-1192zM51 911l508 588h27l508 -590l-88 -78l-435 498l-432 -495z" />
    <glyph glyph-name="uni21A0" unicode="&#x21a0;" horiz-adv-x="2015" 
d="M827 10l-71 90l284 226l177 120h-1172v111h1174l-179 121l-282 225l69 90l613 -477v-27zM1374 1024l590 -508v-27l-590 -507l-76 88l498 432l-498 434z" />
    <glyph glyph-name="uni21A1" unicode="&#x21a1;" horiz-adv-x="1140" 
d="M516 1499h111v-1192l121 176l225 287l90 -74l-477 -610h-27l-479 608l92 74l221 -283l123 -178v1192zM571 -270l435 497l88 -77l-508 -590h-27l-508 587l88 78z" />
    <glyph glyph-name="uni21B0" unicode="&#x21b0;" horiz-adv-x="1519" 
d="M1237 -430v876h-961l175 -120l282 -224l-71 -90l-609 477v27l611 479l71 -90l-284 -227l-179 -121h1076v-987h-111z" />
    <glyph glyph-name="uni21B1" unicode="&#x21b1;" horiz-adv-x="1519" 
d="M285 446v-876h-113v987h1077l-178 121l-285 227l72 90l610 -479v-27l-608 -477l-72 90l281 224l176 120h-960z" />
    <glyph glyph-name="uni21B2" unicode="&#x21b2;" horiz-adv-x="1519" 
d="M1237 557v879h111v-990h-1072l175 -120l284 -226l-71 -90l-611 477v27l609 479l71 -92l-282 -221l-179 -123h965z" />
    </font>
</defs>
</svg>
