<?xml version="1.0" standalone="no"?>
<!DOCTYPE svg PUBLIC "-//W3C//DTD SVG 1.1//EN" "http://www.w3.org/Graphics/SVG/1.1/DTD/svg11.dtd" >
<svg xmlns="http://www.w3.org/2000/svg" xmlns:xlink="http://www.w3.org/1999/xlink" version="1.1">
<metadata>
Created by FontForge 20170731 at Fri Aug 27 18:28:13 2021
 By Aleksey,,,
Copyright (c) 2014-16 by David Brezina. All rights reserved.
</metadata>
<defs>
<font id="SkolarSansLatn-Rg" horiz-adv-x="1128" >
  <font-face 
    font-family="Skolar Sans Latn"
    font-weight="400"
    font-stretch="normal"
    units-per-em="2048"
    panose-1="2 13 0 0 0 4 0 0 0 0"
    ascent="1536"
    descent="-512"
    x-height="956"
    cap-height="1372"
    bbox="-416 -535 2605 2249"
    underline-thickness="51"
    underline-position="-316"
    unicode-range="U+000D-FC01"
  />
<missing-glyph horiz-adv-x="1357" 
d="M195 1358h966v-1358h-966v1358zM1008 98l-330 494l-330 -494h660zM618 678l-327 493v-989zM1065 182v989l-330 -493zM678 766l330 494h-660z" />
    <glyph glyph-name="f_b" unicode="fb" horiz-adv-x="1718" 
d="M221 1184q0 171 84.5 273t259.5 102q135 0 260 -41l136 18v-688q124 137 276 137q118 0 203.5 -65.5t127.5 -175.5t42 -250q0 -101 -27.5 -191.5t-81.5 -164.5t-144.5 -117.5t-205.5 -43.5q-169 0 -352 56v1351q-98 33 -224 33q-105 0 -148.5 -56.5t-43.5 -170.5v-234
h235v-133h-235v-823h-162v823h-147v133h147v228zM1161 115q60 0 108 16.5t74 40.5q56 58 78.5 130t22.5 177q0 170 -60.5 268.5t-171.5 98.5q-124 0 -251 -127v-580q91 -24 200 -24z" />
    <glyph glyph-name="f_f" unicode="ff" horiz-adv-x="1257" 
d="M221 1130q0 167 89 273t253 106q147 0 293 -96q83 146 262 146q132 0 248 -95l-63 -108q-86 61 -177 61q-159 0 -159 -219v-242h235v-133h-235v-823h-162l-2 823h-420v-823h-162v823h-147v133h147v174zM803 1184q0 62 12 114q-127 72 -240 72q-101 0 -146.5 -57.5
t-45.5 -167.5v-189h420v228z" />
    <glyph glyph-name="f_h" unicode="fh" horiz-adv-x="1724" 
d="M221 1184q0 170 84 272.5t258 102.5q60 0 135 -11t127 -30l136 18v-668q151 117 327 117q149 0 216 -84.5t67 -249.5l-2 -651h-160l-2 592q0 134 -34.5 193t-125.5 59q-140 0 -286 -99v-745h-162v1384q-100 33 -226 33q-102 0 -146 -56t-44 -171v-234h235v-133h-235v-823
h-162v823h-147v133h147v228z" />
    <glyph glyph-name="f_i" unicode="fi" horiz-adv-x="1122" 
d="M221 1186q0 167 85.5 270t248.5 103q109 0 208.5 -40t168.5 -106l-74 -98q-66 47 -146 74.5t-149 27.5q-95 0 -137.5 -57.5t-42.5 -167.5v-236h575v-956h-159v823h-416v-823h-162v823h-147v133h147v230z" />
    <glyph glyph-name="f_iacute" unicode="f&#xed;" horiz-adv-x="1122" 
d="M221 1182q0 170 77 273.5t232 103.5q125 0 228 -86l-62 -107q-82 51 -153 51q-160 0 -160 -221v-240h575v-956h-159v823h-416v-823h-162v823h-147v133h147v226zM745 1167l308 314l96 -101v-10l-332 -278z" />
    <glyph glyph-name="f_j" unicode="fj" horiz-adv-x="1122" 
d="M221 1184q0 169 85.5 272t248.5 103q214 0 377 -146l-74 -98q-61 47 -142 74.5t-153 27.5q-95 0 -137.5 -57t-42.5 -168v-236h575v-905q0 -191 -66.5 -316.5t-195.5 -226.5l-88 89q93 98 142 207t49 259v760h-416v-823h-162v823h-147v133h147v228z" />
    <glyph glyph-name="f_k" unicode="fk" horiz-adv-x="1646" 
d="M221 1184q0 166 82.5 270.5t253.5 104.5q59 0 136 -11.5t132 -29.5l136 18v-1081l446 501h164q-5 -34 -45 -77l-314 -353l340 -438q33 -42 47 -88h-176l-313 416l-149 -154v-262h-162v1384q-103 33 -226 33q-104 0 -147 -56t-43 -171v-234h235v-133h-235v-823h-162v823
h-147v133h147v228z" />
    <glyph glyph-name="f_l" unicode="fl" horiz-adv-x="1165" 
d="M221 1184q0 166 82.5 270.5t253.5 104.5q150 0 268 -41l136 18v-1327q0 -50 13.5 -71t45.5 -21q33 0 76 14l32 -121q-73 -33 -155 -33q-86 0 -130 48t-44 141v1218q-106 33 -226 33q-103 0 -146.5 -55.5t-43.5 -171.5v-234h235v-133h-235v-823h-162v823h-147v133h147v228
z" />
    <glyph glyph-name="f_lcaron" unicode="f&#x13e;" horiz-adv-x="1171" 
d="M221 1184q0 166 82.5 270.5t253.5 104.5q150 0 268 -41l136 18v-1327q0 -50 13.5 -71t45.5 -21q33 0 76 14l32 -121q-73 -33 -155 -33q-86 0 -130 48t-44 141v1218q-106 33 -226 33q-103 0 -146.5 -55.5t-43.5 -171.5v-234h235v-133h-235v-823h-162v823h-147v133h147v228
zM1085 1542l148 4l6 -6l-37 -422h-117v424z" />
    <glyph glyph-name="f_t" unicode="ft" horiz-adv-x="1306" 
d="M811 1241h131v-285h295v-133h-295v-501q0 -118 25 -159.5t96 -41.5q63 0 156 22l32 -120q-122 -46 -247 -46q-117 0 -169.5 68t-52.5 236v542h-399v-823h-162v823h-147v133h147v222q0 171 79 276t239 105q122 0 243 -95l-63 -106q-100 59 -176 59q-160 0 -160 -213v-248
h389z" />
    <glyph glyph-name="f_f_i" unicode="ffi" horiz-adv-x="1705" 
d="M803 1178q0 64 12 122q-127 70 -244 70q-188 0 -188 -223v-191h420v222zM74 956h147v174q0 167 89 273t253 106q151 0 297 -96q86 146 279 146q212 0 374 -146l-71 -98q-144 102 -295 102q-95 0 -137.5 -57t-42.5 -168v-236h575v-956h-160v823h-415v-823h-162l-2 823
h-420v-823h-162v823h-147v133z" />
    <glyph glyph-name="f_f_b" unicode="ffb" horiz-adv-x="2301" 
d="M803 1178q0 64 12 120q-122 72 -244 72q-188 0 -188 -223v-191h420v222zM1745 115q61 0 108.5 16.5t71.5 40.5q58 58 80.5 130t22.5 177q0 170 -60.5 268.5t-171.5 98.5q-125 0 -252 -127v-580q91 -24 201 -24zM74 956h147v174q0 167 89 273t253 106q149 0 295 -96
q86 146 291 146q142 0 260 -41l135 18v-688q124 137 277 137q118 0 203.5 -65.5t127 -175.5t41.5 -250q0 -101 -27.5 -191.5t-81 -164.5t-144.5 -117.5t-207 -43.5q-168 0 -351 56v1351q-106 33 -225 33q-104 0 -147 -55t-43 -170v-236h235v-133h-235v-823h-162l-2 823h-420
v-823h-162v823h-147v133z" />
    <glyph glyph-name="f_f_h" unicode="ffh" horiz-adv-x="2306" 
d="M803 1184q0 54 10 112q-125 74 -244 74q-99 0 -142.5 -57t-43.5 -168v-189h420v228zM74 956h147v174q0 168 87 273.5t251 105.5q145 0 297 -96q85 146 287 146q61 0 136 -11.5t126 -29.5l135 18v-668q151 117 326 117q150 0 217 -84t67 -250l-2 -651h-159v592
q0 134 -34.5 193t-125.5 59q-143 0 -289 -99v-745h-160v1384q-109 33 -223 33q-104 0 -147 -55t-43 -172v-234h235v-133h-235v-823h-162l-2 823h-420v-823h-162v823h-147v133z" />
    <glyph glyph-name="f_f_j" unicode="ffj" horiz-adv-x="1705" 
d="M803 1178q0 64 12 120q-131 72 -244 72q-188 0 -188 -223v-191h420v222zM74 956h147v174q0 167 89 273t253 106q149 0 295 -96q86 146 281 146q212 0 374 -146l-71 -98q-144 102 -295 102q-95 0 -137.5 -57t-42.5 -168v-236h575v-905q0 -191 -66.5 -316.5t-195.5 -226.5
l-88 89q93 98 141.5 207t48.5 259v760h-415v-823h-162l-2 823h-420v-823h-162v823h-147v133z" />
    <glyph glyph-name="f_f_k" unicode="ffk" horiz-adv-x="2226" 
d="M803 1184q0 58 12 114q-134 72 -248 72q-97 0 -140.5 -58t-43.5 -167v-189h420v228zM74 956h147v174q0 168 87 273.5t251 105.5q149 0 297 -96q88 146 285 146q149 0 264 -41l135 18v-1081l447 501h163q-5 -34 -45 -77l-313 -353l340 -438q33 -42 47 -88h-176l-311 416
l-152 -156v-260h-160v1384q-112 33 -223 33q-103 0 -146.5 -54.5t-43.5 -172.5v-234h235v-133h-235v-823h-162l-2 823h-420v-823h-162v823h-147v133z" />
    <glyph glyph-name="f_f_l" unicode="ffl" horiz-adv-x="1748" 
d="M803 1184q0 60 12 112q-128 74 -242 74q-190 0 -190 -225v-189h420v228zM74 956h147v174q0 167 88.5 273t251.5 106q147 0 299 -96q88 146 283 146q148 0 266 -41l135 18v-1327q0 -49 14 -70.5t46 -21.5t75 14l33 -121q-73 -33 -156 -33q-86 0 -130 48t-44 141v1218
q-118 33 -223 33t-148.5 -53.5t-43.5 -173.5v-234h235v-133h-235v-823h-162l-2 823h-420v-823h-162v823h-147v133z" />
    <glyph glyph-name="f_f_t" unicode="fft" horiz-adv-x="1890" 
d="M221 1130q0 167 89 273t253 106q147 0 293 -96q83 146 258 146q73 0 131.5 -23.5t120.5 -71.5l-63 -106q-95 59 -181 59q-155 0 -155 -221v-240h389l39 285h131v-285h295v-133h-295v-501q0 -118 25 -159.5t96 -41.5q62 0 155 22l33 -120q-122 -46 -248 -46
q-117 0 -169 68t-52 236v542h-399v-823h-162l-2 823h-420v-823h-162v823h-147v133h147v174zM803 1184q0 58 12 114q-125 72 -244 72q-188 0 -188 -225v-189h420v228z" />
    <glyph glyph-name="T_h" unicode="Th" horiz-adv-x="2070" 
d="M37 1372h1108v162l162 4v-670q151 117 325 117q149 0 216 -84.5t67 -249.5v-651h-162v592q0 134 -34.5 193t-125.5 59q-143 0 -286 -99v-745h-162v1229h-508v-1229h-164v1229h-434z" />
    <glyph glyph-name="uni021A_h" unicode="&#x21a;h" horiz-adv-x="2070" 
d="M37 1372h1108v162l162 4v-670q151 117 325 117q149 0 216 -84.5t67 -249.5v-651h-162v592q0 134 -34.5 193t-125.5 59q-143 0 -286 -99v-745h-162v1229h-508v-1229h-164v1229h-434zM489 -147l140 14q10 -58 10 -109q0 -88 -29 -163.5t-75 -126.5l-95 53q54 103 54 223
q0 12 -5 109z" />
    <glyph glyph-name="uni0162_h" unicode="&#x162;h" horiz-adv-x="2070" 
d="M37 1372h1108v162l162 4v-670q151 117 325 117q149 0 216 -84.5t67 -249.5v-651h-162v592q0 134 -34.5 193t-125.5 59q-143 0 -286 -99v-745h-162v1229h-508v-1229h-16l-52 -117h17q84 0 143 -37t59 -118q0 -98 -95 -164.5t-265 -93.5l-22 102q225 45 225 147
q0 37 -30 54.5t-77 17.5q-21 0 -63 -6l-39 51l72 164h-21v1229h-434z" />
    <glyph glyph-name="jacute" unicode="&#xfc00;" horiz-adv-x="489" arabic-form="isolated" 
d="M164 954l162 4v-907q0 -131 -35 -235t-89.5 -172.5t-138.5 -135.5l-90 89q94 97 142.5 206t48.5 260v891zM98 1174l312 313l98 -107v-10l-332 -278z" />
    <glyph glyph-name="Jacute" unicode="&#xfc01;" horiz-adv-x="561" arabic-form="isolated" 
d="M207 1372h164v-1292q0 -263 -95.5 -396.5t-316.5 -148.5l-27 131q72 13 119.5 36t79 56t48 88.5t22.5 121t6 165.5v1239zM106 1632l426 174l50 -139l-2 -8l-437 -137z" />
    <glyph glyph-name=".notdef" horiz-adv-x="1357" 
d="M195 1358h966v-1358h-966v1358zM1008 98l-330 494l-330 -494h660zM618 678l-327 493v-989zM1065 182v989l-330 -493zM678 766l330 494h-660z" />
    <glyph glyph-name=".null" horiz-adv-x="0" 
 />
    <glyph glyph-name="uni000D" unicode="&#xd;" horiz-adv-x="0" 
 />
    <glyph glyph-name="NULL" horiz-adv-x="0" 
 />
    <glyph glyph-name="NULL" horiz-adv-x="0" 
 />
    <glyph glyph-name="space" unicode=" " horiz-adv-x="442" 
 />
    <glyph glyph-name="exclam" unicode="!" horiz-adv-x="550" 
d="M193 1372h165l-14 -1016h-137zM164 88q0 51 32 84t83 33q49 0 78.5 -29.5t29.5 -77.5q0 -55 -31 -88t-84 -33q-48 0 -78 30.5t-30 80.5z" />
    <glyph glyph-name="quotedbl" unicode="&#x22;" horiz-adv-x="692" 
d="M399 1569h148l-12 -541h-121zM143 1569h148l-12 -541h-121z" />
    <glyph glyph-name="numbersign" unicode="#" horiz-adv-x="1296" 
d="M293 2l39 217h-223v125h245l49 281h-223v125h246l43 235l115 -20l-39 -215h299l41 235l116 -20l-38 -215h225v-125h-248l-49 -281h225v-125h-248l-43 -237l-114 20l39 217h-299l-43 -237zM772 344l49 281h-299l-49 -281h299z" />
    <glyph glyph-name="dollar" unicode="$" horiz-adv-x="1114" 
d="M301 1018q0 -78 55.5 -130.5t157.5 -96.5v428q-213 -30 -213 -201zM856 350q0 74 -54 126t-151 95v-413q205 29 205 192zM137 1016q0 82 29.5 147t82.5 107t119.5 66t145.5 32v170h137v-168q186 -12 316 -84l-56 -129q-126 54 -260 64v-484q63 -24 110 -47t98.5 -57
t84.5 -71t54.5 -89t21.5 -111q0 -160 -100.5 -248t-268.5 -108v-172h-137v166q-122 4 -234 40t-186 91l68 125q159 -95 352 -106v475q-65 25 -111.5 47t-100.5 57t-87 73t-55.5 93.5t-22.5 120.5z" />
    <glyph glyph-name="percent" unicode="%" horiz-adv-x="1499" 
d="M244 37l903 1378l108 -76l-903 -1378zM92 999q0 79 18 150t52 128t89.5 90.5t125.5 33.5q86 0 147 -52.5t89 -134t28 -182.5q0 -108 -30 -197.5t-96.5 -147.5t-158.5 -58q-86 0 -147.5 53t-89 134.5t-27.5 182.5zM498 1026q0 115 -31.5 186.5t-95.5 71.5q-41 0 -72 -31
q-63 -63 -63 -243q0 -76 12 -133.5t41 -94.5t71 -37q46 0 76 35q62 71 62 246zM858 342q0 107 30 196t96.5 147t158.5 58q86 0 147 -52t89 -133.5t28 -182.5q0 -108 -30 -197.5t-96.5 -148t-158.5 -58.5q-86 0 -147.5 53t-89 135t-27.5 183zM1264 369q0 115 -31.5 186.5
t-95.5 71.5q-41 0 -72 -31q-64 -64 -64 -244q0 -74 12.5 -132t41.5 -95t71 -37q41 0 76 35q62 71 62 246z" />
    <glyph glyph-name="ampersand" unicode="&#x26;" horiz-adv-x="1488" 
d="M229 1069q0 142 90 235t254 93q138 0 226 -81.5t88 -209.5q-1 -55 -17.5 -107t-42.5 -93t-66 -82t-78 -71.5t-87 -64.5q171 -208 338 -375q171 181 233 508h156q-12 -152 -88.5 -314.5t-198.5 -289.5q62 -54 109.5 -77t109.5 -23q63 0 131 30l48 -110
q-30 -25 -81.5 -43.5t-109.5 -18.5q-89 0 -155 33t-160 111q-188 -144 -402 -144q-119 0 -209.5 36t-145.5 114t-56 190q0 212 278 396q-74 96 -119 182t-45 176zM383 1073q0 -112 133 -285q102 71 158.5 141.5t56.5 162.5q0 74 -47 123t-117 49q-88 0 -135 -47
q-49 -49 -49 -144zM539 117q147 0 284 100q-175 170 -354 395q-85 -60 -136.5 -127t-51.5 -153q0 -101 67.5 -158t190.5 -57z" />
    <glyph glyph-name="quotesingle" unicode="'" horiz-adv-x="434" 
d="M143 1569h148l-12 -541h-121z" />
    <glyph glyph-name="parenleft" unicode="(" horiz-adv-x="647" 
d="M111 649q0 282 92 568t264 532l121 -80q-149 -224 -228 -483.5t-84 -536.5q9 -563 312 -1018l-121 -80q-172 246 -264 531t-92 567z" />
    <glyph glyph-name="parenright" unicode=")" horiz-adv-x="647" 
d="M61 1669l121 80q172 -246 264.5 -532.5t92.5 -567.5t-92.5 -566.5t-264.5 -531.5l-121 80q301 457 310 1018q-9 563 -310 1020z" />
    <glyph glyph-name="asterisk" unicode="*" horiz-adv-x="944" 
d="M334 1542l104 29l66 -268l184 200l76 -73l-201 -189l271 -61l-27 -107l-266 80l84 -264l-105 -29l-65 268l-185 -200l-75 73l200 189l-270 61l27 107l266 -80z" />
    <glyph glyph-name="plus" unicode="+" 
d="M496 934h139v-338h334v-129h-334v-340h-139v340h-336v129h336v338z" />
    <glyph glyph-name="comma" unicode="," horiz-adv-x="481" 
d="M158 281l151 10q17 -77 17 -146q0 -133 -61.5 -249t-178.5 -193l-68 57q150 150 150 377q0 66 -10 144z" />
    <glyph glyph-name="hyphen" unicode="-" horiz-adv-x="727" 
d="M147 557h433v-131h-433v131z" />
    <glyph glyph-name="period" unicode="." horiz-adv-x="501" 
d="M135 88q0 54 32.5 87.5t86.5 33.5q51 0 81 -30.5t30 -80.5q0 -56 -31.5 -90.5t-85.5 -34.5q-51 0 -82 32t-31 83z" />
    <glyph glyph-name="slash" unicode="/" horiz-adv-x="827" 
d="M61 -150l568 1612l137 -51l-567 -1610z" />
    <glyph glyph-name="zero" unicode="0" horiz-adv-x="1181" 
d="M121 657q0 144 32 276.5t92 237.5t154 167.5t209 62.5q109 0 196.5 -56t142.5 -152t84.5 -218t29.5 -258q0 -116 -20 -225t-61 -203.5t-98.5 -165.5t-137 -111.5t-171.5 -40.5q-87 0 -161.5 37t-127 101t-90 151t-55.5 187.5t-18 209.5zM889 711q0 149 -32 270t-98 196.5
t-157 75.5q-77 0 -135 -49q-64 -48 -105 -148t-55 -195.5t-14 -192.5q0 -151 32 -273.5t98 -199t157 -76.5q76 0 137 49q49 39 84.5 104.5t53.5 143t26 150t8 145.5z" />
    <glyph glyph-name="one" unicode="1" horiz-adv-x="880" 
d="M115 1268l342 106l133 -4v-1229h219l6 -141h-694v141h307v1071l-278 -67z" />
    <glyph glyph-name="two" unicode="2" horiz-adv-x="1021" 
d="M113 1255q146 140 360 140q102 0 182.5 -33t129.5 -90t74.5 -128.5t25.5 -152.5q0 -92 -31.5 -183t-95 -182t-134 -170.5t-173.5 -179.5l-138 -135h592l6 -141h-784l-16 152l188 184q104 104 172 180t127 159t87 159t28 151q0 117 -65.5 189.5t-188.5 72.5
q-145 0 -269 -94z" />
    <glyph glyph-name="three" unicode="3" horiz-adv-x="1021" 
d="M117 1257q157 138 360 138q172 0 276.5 -90t104.5 -242q0 -107 -53.5 -196t-147.5 -142q115 -36 180.5 -122t65.5 -210q0 -188 -132 -303t-345 -115q-186 0 -317 76l49 123q108 -51 258 -51q131 0 209 55q108 69 108 211q0 118 -86 184t-227 66h-96l-2 139h96
q118 0 194 73.5t76 186.5q0 98 -64.5 153.5t-170.5 55.5q-128 0 -260 -92z" />
    <glyph glyph-name="four" unicode="4" horiz-adv-x="1138" 
d="M74 479l598 895l170 -4v-901h205l8 -139h-213v-330h-162v330h-588zM575 979l-342 -510h447v672h-4z" />
    <glyph glyph-name="five" unicode="5" horiz-adv-x="999" 
d="M158 1372h673l-6 -145h-512l2 -402q87 23 168 23q180 -2 296 -106.5t116 -284.5q0 -228 -135.5 -355t-353.5 -127q-154 0 -287 54l39 131q129 -39 235 -39q136 0 215 57q117 83 117 268q0 121 -76.5 193t-208.5 72q-119 0 -264 -49l-18 20v690z" />
    <glyph glyph-name="six" unicode="6" horiz-adv-x="1081" 
d="M121 580q0 162 40.5 307t115.5 258.5t193 180.5t263 67q78 0 137 -19l-20 -137q-47 8 -94 8q-104 0 -187 -38.5t-138 -108.5t-88 -161t-46 -202h4q139 92 301 92q178 0 281.5 -113.5t103.5 -283.5q0 -125 -51.5 -228.5t-152 -167t-232.5 -63.5q-92 0 -166 34t-122.5 91
t-81 136t-46.5 165t-14 183zM559 119q105 0 174 69q84 84 84 228q0 125 -66 198.5t-184 73.5q-145 0 -276 -100q2 -138 27 -238.5t86 -165.5t155 -65z" />
    <glyph glyph-name="seven" unicode="7" horiz-adv-x="952" 
d="M76 1372h807l12 -139l-545 -1264l-149 60l520 1198h-637z" />
    <glyph glyph-name="eight" unicode="8" horiz-adv-x="1118" 
d="M176 1055q0 153 111 249.5t282 96.5q167 0 273 -89.5t106 -236.5q0 -191 -205 -360q121 -68 189.5 -151t68.5 -204q0 -124 -63 -213.5t-164.5 -132.5t-228.5 -43q-191 0 -310.5 95.5t-119.5 263.5q1 66 22 125t61 108.5t84.5 88.5t104.5 79q-95 57 -153 141.5t-58 182.5z
M346 1059q0 -90 65.5 -150.5t213.5 -134.5q157 131 157 287q1 87 -58.5 143t-152.5 56q-96 0 -161 -52q-64 -57 -64 -149zM555 113q114 0 193 57q86 70 86 180q0 55 -21 99t-69.5 83t-98.5 67.5t-137 70.5q-106 -71 -166.5 -149.5t-60.5 -180.5q0 -106 77.5 -166.5
t196.5 -60.5z" />
    <glyph glyph-name="nine" unicode="9" horiz-adv-x="1079" 
d="M512 684q140 0 276 98q-1 102 -15.5 184.5t-45 148.5t-82.5 102t-123 36q-107 0 -176 -69q-82 -82 -82 -228q0 -125 65 -198.5t183 -73.5zM94 942q0 125 51.5 228.5t152 167t232.5 63.5q114 0 200 -50.5t135 -138t72.5 -192.5t23.5 -227q0 -162 -40.5 -307t-115.5 -258.5
t-193.5 -180.5t-263.5 -67q-84 0 -137 18l20 137q47 -8 93 -8q104 0 186.5 38.5t137.5 108.5t88 161t46 202h-4q-136 -92 -299 -92q-178 0 -281.5 113.5t-103.5 283.5z" />
    <glyph glyph-name="colon" unicode=":" horiz-adv-x="526" 
d="M152 782q0 53 31 85t83 32q49 0 78 -29t29 -75q0 -56 -30.5 -89.5t-82.5 -33.5q-49 0 -78.5 30t-29.5 80zM154 100q0 52 31 84.5t83 32.5q49 0 79 -29.5t30 -76.5q0 -55 -31 -88t-84 -33q-50 0 -79 29.5t-29 80.5z" />
    <glyph glyph-name="semicolon" unicode=";" horiz-adv-x="524" 
d="M201 281l149 10q17 -77 17 -146q0 -133 -61 -249.5t-177 -192.5l-70 57q152 152 152 377q0 26 -10 144zM147 782q0 53 31.5 85t83.5 32q49 0 79 -29t30 -75q0 -56 -31.5 -89.5t-83.5 -33.5q-49 0 -79 30t-30 80z" />
    <glyph glyph-name="less" unicode="&#x3c;" 
d="M156 596l727 356l63 -123l-596 -301l596 -301l-63 -123l-727 357v135z" />
    <glyph glyph-name="equal" unicode="=" 
d="M178 729h774v-127h-774v127zM178 453h774v-127h-774v127z" />
    <glyph glyph-name="greater" unicode="&#x3e;" 
d="M184 829l64 123l725 -356v-135l-725 -357l-64 123l596 301z" />
    <glyph glyph-name="question" unicode="?" horiz-adv-x="819" 
d="M74 1313q145 88 323 88q152 0 246 -76t94 -221q0 -98 -42 -173.5t-117 -156.5q-78 -82 -120.5 -158t-41.5 -174q0 -59 2 -82l-137 -6q-21 72 -21 123q0 60 13.5 111t42.5 95.5t53 72.5t65 69q137 141 137 267q0 81 -54.5 125.5t-151.5 42.5q-122 0 -238 -58zM242 88
q0 52 31 84.5t83 32.5q49 0 79 -29.5t30 -77.5q0 -55 -31 -88t-84 -33q-50 0 -79 30t-29 81z" />
    <glyph glyph-name="at" unicode="@" horiz-adv-x="1615" 
d="M115 453q0 335 197 540.5t538 204.5q147 -1 268.5 -45.5t203 -123t126.5 -187t45 -236.5q0 -120 -31 -211.5t-79 -144.5t-114 -86t-127.5 -43.5t-129.5 -9.5l-27 102q-107 -113 -233 -113q-133 0 -213 106.5t-80 285.5q0 73 20.5 142.5t59 127t103 92.5t144.5 35
q113 0 207 -58l19 50l106 -15l-6 -102q-6 -79 -6 -172v-191q0 -62 8 -172q238 30 238 371q0 212 -136 344t-374 133q-279 0 -432.5 -167t-153.5 -451q0 -136 43 -245t115.5 -177t164 -104t193.5 -37q158 0 311 65l45 -98q-61 -37 -157.5 -62.5t-206.5 -25.5
q-130 1 -247 47.5t-206.5 131t-142.5 214t-53 285.5zM780 219q92 0 189 94v418q-76 43 -160 43q-83 0 -133 -53q-39 -44 -57.5 -93t-18.5 -128q0 -132 46.5 -206.5t133.5 -74.5z" />
    <glyph glyph-name="A" unicode="A" horiz-adv-x="1196" 
d="M600 1169l-217 -645h426l-117 353l-86 292h-6zM510 1368l184 8l408 -1233q30 -93 41 -143h-162l-127 383h-520l-129 -383h-164q19 78 43 143z" />
    <glyph glyph-name="B" unicode="B" horiz-adv-x="1191" 
d="M193 1362q198 31 342 31q225 0 349 -84t124 -252q0 -105 -50.5 -191t-150.5 -135q134 -28 207 -114t73 -224q0 -191 -137 -303.5t-397 -112.5q-141 0 -360 31v1354zM545 784q121 0 188 39q54 30 79.5 84t25.5 117q0 227 -306 227q-69 0 -176 -14v-451q39 0 101.5 -1
t87.5 -1zM565 121q166 0 246 59q104 77 104 213q0 254 -368 254q-26 0 -90.5 -1t-100.5 -1v-512q114 -12 209 -12z" />
    <glyph glyph-name="C" unicode="C" horiz-adv-x="1181" 
d="M115 659q0 113 23 219t72.5 200.5t120.5 164.5t174 111t226 41q212 0 365 -105l-64 -127q-150 84 -303 84q-177 0 -287 -110q-155 -163 -155 -463q0 -88 14 -165.5t47.5 -149t83.5 -122.5t127 -81.5t174 -30.5q158 0 324 76l49 -127q-189 -97 -393 -97q-146 0 -261.5 53
t-188.5 146.5t-110.5 216t-37.5 266.5z" />
    <glyph glyph-name="D" unicode="D" horiz-adv-x="1347" 
d="M193 1362q226 33 399 33q296 0 469.5 -187t173.5 -497q0 -213 -83 -379.5t-236 -260.5t-351 -94q-203 0 -372 31v1354zM565 125q156 0 256 68q119 78 181.5 211.5t60.5 293.5q-2 252 -128 400.5t-351 148.5q-112 0 -230 -16v-1094q88 -12 211 -12z" />
    <glyph glyph-name="E" unicode="E" horiz-adv-x="1085" 
d="M193 1372h782l-6 -141h-615v-457h500v-143h-500v-490h621l4 -141h-786v1372z" />
    <glyph glyph-name="F" unicode="F" horiz-adv-x="1052" 
d="M193 1372h782l-6 -141h-615v-504h500v-143h-500v-584h-161v1372z" />
    <glyph glyph-name="G" unicode="G" horiz-adv-x="1259" 
d="M115 653q0 146 39.5 277t115 236t199 167t279.5 62q198 0 362 -105l-63 -129q-157 88 -310 88q-175 0 -288 -116q-162 -156 -162 -461q0 -87 14 -164.5t48 -148.5t84.5 -122t129 -81.5t176.5 -30.5q118 0 228 35v385h-318v141h477v-610q-196 -99 -399 -99
q-124 0 -225.5 34.5t-172.5 96t-119.5 146.5t-71.5 185t-23 214z" />
    <glyph glyph-name="H" unicode="H" horiz-adv-x="1361" 
d="M1008 1372h163v-1372h-163v629h-654v-629h-161v1372h161v-602h654v602z" />
    <glyph glyph-name="I" unicode="I" horiz-adv-x="546" 
d="M193 1372h161v-1372h-161v1372z" />
    <glyph glyph-name="J" unicode="J" horiz-adv-x="561" 
d="M207 1372h164v-1292q0 -263 -95.5 -396.5t-316.5 -148.5l-27 131q72 13 119.5 36t79 56t48 88.5t22.5 121t6 165.5v1239z" />
    <glyph glyph-name="K" unicode="K" horiz-adv-x="1179" 
d="M950 1372h178q-7 -27 -49 -76l-458 -499l428 -660q58 -86 79 -137h-178l-440 678l-156 -170v-508h-161v1372h161v-661h4z" />
    <glyph glyph-name="L" unicode="L" horiz-adv-x="995" 
d="M193 1372h161v-1231h586l6 -141h-753v1372z" />
    <glyph glyph-name="M" unicode="M" horiz-adv-x="1679" 
d="M1169 1372h224l155 -1235q17 -131 17 -137h-156l-117 901l-24 248h-6l-332 -1149h-193l-264 903l-61 248h-6l-138 -1151h-151q1 26 16 147l154 1225h221l270 -919l58 -240h6z" />
    <glyph glyph-name="N" unicode="N" horiz-adv-x="1388" 
d="M193 1372h186l577 -969l95 -194h2l-9 221v942h154v-1372h-190l-580 975l-90 180h-4l8 -190v-965h-149v1372z" />
    <glyph glyph-name="O" unicode="O" horiz-adv-x="1400" 
d="M113 668q0 110 22 214t69.5 198.5t115.5 165.5t167 113t218 42q137 0 248.5 -54.5t184 -150t111.5 -221.5t39 -270q0 -110 -21.5 -214t-69 -199t-115 -166t-167 -113t-217.5 -42q-137 0 -249 55t-184.5 150t-112 221.5t-39.5 270.5zM1116 688q0 118 -27.5 220t-79 179
t-131 121.5t-178.5 44.5q-135 0 -229 -79q-95 -80 -140.5 -212t-45.5 -278q0 -158 47 -284.5t143 -203.5t227 -77q135 0 230 80q96 79 140 210t44 279z" />
    <glyph glyph-name="P" unicode="P" horiz-adv-x="1146" 
d="M489 641q153 0 242 45q75 34 116.5 104t41.5 168q0 289 -357 289q-86 0 -178 -12v-586q63 -8 135 -8zM193 1362q177 30 327 33q268 1 404.5 -107.5t136.5 -310.5q0 -222 -146.5 -350.5t-410.5 -128.5q-82 0 -150 8v-506h-161v1362z" />
    <glyph glyph-name="Q" unicode="Q" horiz-adv-x="1400" 
d="M113 668q0 110 22 214t69.5 198.5t115.5 165.5t167 113t218 42q137 0 248.5 -54.5t184 -150t111.5 -221.5t39 -270q0 -126 -29.5 -243.5t-87 -219t-152.5 -171.5t-216 -91q115 -183 323 -183q59 0 129 17l25 -133q-95 -31 -199 -31q-276 0 -440 323q-164 15 -285.5 113
t-182 248.5t-60.5 333.5zM1116 688q0 118 -27.5 220t-79 179t-131 121.5t-178.5 44.5q-135 0 -229 -79q-95 -80 -140.5 -212t-45.5 -278q0 -158 47 -284.5t143 -203.5t227 -77q135 0 230 80q96 79 140 210t44 279z" />
    <glyph glyph-name="R" unicode="R" horiz-adv-x="1187" 
d="M496 694q137 0 235 43q72 33 114 95t42 153q0 132 -91 197t-264 65q-68 0 -178 -14v-533q74 -6 142 -6zM193 1362q190 33 337 33q250 0 389.5 -102t139.5 -294q0 -138 -73.5 -242.5t-209.5 -158.5l260 -469q44 -80 62 -129h-174l-306 561q-49 -8 -118 -8q-70 0 -146 6
v-559h-161v1362z" />
    <glyph glyph-name="S" unicode="S" horiz-adv-x="1101" 
d="M133 1016q0 97 41 173t111 121t154 68t177 23q187 0 347 -80l-50 -127q-151 57 -305 57q-44 0 -84.5 -6.5t-81.5 -22t-71 -40t-49 -63.5t-19 -89q0 -37 10 -68t32 -56t45 -43.5t62 -37t68.5 -30.5t77.5 -29q162 -63 223 -98q153 -89 179 -232q6 -32 6 -69
q0 -97 -39.5 -174t-108 -125t-156 -72.5t-186.5 -24.5q-119 0 -236.5 35t-193.5 92l64 127q172 -104 370 -104q60 0 114.5 13t100.5 39t73.5 72.5t27.5 106.5q0 33 -10 62.5t-22.5 50.5t-41.5 43.5t-47 34.5t-61.5 31t-63 26t-70.5 26q-5 2 -8 3q-52 20 -80.5 32t-75 34.5
t-73 41.5t-59 49t-50 62t-29.5 75t-12 93z" />
    <glyph glyph-name="T" unicode="T" horiz-adv-x="1140" 
d="M51 1372h1039l-5 -143h-432v-1229h-164v1229h-434z" />
    <glyph glyph-name="U" unicode="U" horiz-adv-x="1302" 
d="M963 1372h163v-833q0 -129 -26.5 -229.5t-82.5 -178t-152 -119t-228 -41.5q-223 0 -341 129t-118 387v885h164v-848q0 -79 8.5 -139.5t30 -112.5t57 -85t90.5 -51.5t129 -18.5q63 0 117 21t86 52q103 97 103 306v876z" />
    <glyph glyph-name="V" unicode="V" horiz-adv-x="1214" 
d="M1001 1372h166q-10 -61 -59 -201l-412 -1167l-186 -8l-399 1175q-55 158 -62 201h170l289 -864l92 -311h8z" />
    <glyph glyph-name="W" unicode="W" horiz-adv-x="1849" 
d="M1638 1372h166q-6 -30 -57 -190l-348 -1178l-203 -8l-225 989l-35 191h-6l-299 -1172l-203 -8l-317 1190q-44 168 -48 186h168l244 -928l53 -251h9l292 1179h215l213 -930l46 -249h8z" />
    <glyph glyph-name="X" unicode="X" horiz-adv-x="1183" 
d="M84 1372h182l328 -541h6l348 541h168q-7 -38 -53 -104l-363 -559l365 -586q51 -86 61 -123h-180l-354 580h-6l-373 -580h-170q13 41 66 123l376 579l-348 566q-42 64 -53 104z" />
    <glyph glyph-name="Y" unicode="Y" horiz-adv-x="1105" 
d="M901 1372h168q-3 -13 -9 -27.5t-15 -33t-16 -30.5t-20 -35.5t-18 -33.5l-358 -649v-563h-164v563l-348 649q-64 106 -78 160h176l244 -457l94 -182h2z" />
    <glyph glyph-name="Z" unicode="Z" horiz-adv-x="1159" 
d="M121 1372h919l27 -143l-803 -1088h791l4 -141h-961l-16 147l792 1084h-749z" />
    <glyph glyph-name="bracketleft" unicode="[" horiz-adv-x="735" 
d="M195 -422v2146h462v-129l-301 -6v-1876l301 -6v-129h-462z" />
    <glyph glyph-name="backslash" unicode="\" horiz-adv-x="827" 
d="M61 1411l138 51l569 -1612l-137 -49z" />
    <glyph glyph-name="bracketright" unicode="]" horiz-adv-x="735" 
d="M76 -293l301 6v1876l-301 6v129h465v-2146h-465v129z" />
    <glyph glyph-name="asciicircum" unicode="^" horiz-adv-x="972" 
d="M446 1366l80 6l330 -459l-119 -94l-250 350l-251 -348l-117 88z" />
    <glyph glyph-name="underscore" unicode="_" horiz-adv-x="972" 
d="M0 -74h973v-131h-973v131z" />
    <glyph glyph-name="grave" unicode="`" horiz-adv-x="819" 
d="M174 1380l100 107l312 -313l-78 -82l-334 278v10z" />
    <glyph glyph-name="a" unicode="a" horiz-adv-x="972" 
d="M127 823q180 156 393 156q154 0 224.5 -87t70.5 -276v-245q0 -129 16 -361l-135 -20l-26 131q-163 -144 -334 -144q-115 0 -182.5 65t-67.5 175q0 72 35 132.5t96 99.5q117 76 438 102v14q0 152 -36.5 212.5t-126.5 60.5q-142 0 -306 -115zM369 106q134 0 286 134v192
q-269 -21 -350 -72q-61 -46 -61 -124q0 -62 33 -96t92 -34z" />
    <glyph glyph-name="b" unicode="b" horiz-adv-x="1077" 
d="M160 1534l162 4v-688q125 135 276 135q117 0 202.5 -65.5t128 -175.5t42.5 -250q0 -101 -27.5 -191.5t-81.5 -164.5t-145 -117.5t-207 -43.5q-167 0 -350 56v1501zM522 115q61 0 108.5 16.5t71.5 40.5q58 58 80.5 130t22.5 177q0 170 -61.5 268.5t-172.5 98.5
q-122 0 -249 -127v-580q92 -24 200 -24z" />
    <glyph glyph-name="c" unicode="c" horiz-adv-x="913" 
d="M109 455q0 234 120 379t316 145q176 0 291 -143l-80 -95q-111 99 -224 99q-83 0 -149 -52q-111 -90 -111 -313q0 -179 73 -267.5t208 -88.5q105 0 238 51l36 -123q-156 -70 -297 -70q-195 0 -308 128.5t-113 349.5z" />
    <glyph glyph-name="d" unicode="d" horiz-adv-x="1087" 
d="M502 111q116 0 258 135v545q-99 55 -211 55q-116 0 -178 -62q-97 -97 -97 -305q0 -165 59.5 -266.5t168.5 -101.5zM109 446q-1 80 15.5 156.5t52.5 146t86.5 122t123 83.5t158.5 31q112 0 215 -67v616l162 4v-1190q0 -123 16 -338l-135 -18l-27 131q-145 -152 -301 -152
q-159 0 -262.5 135.5t-103.5 339.5z" />
    <glyph glyph-name="e" unicode="e" horiz-adv-x="997" 
d="M109 459q0 147 52 265.5t151.5 188.5t230.5 70q167 0 256.5 -108t89.5 -279q0 -84 -15 -158h-604q9 -160 83.5 -239.5t199.5 -79.5q145 0 272 51l41 -115q-166 -78 -342 -78q-184 0 -299.5 126.5t-115.5 355.5zM530 848q-109 0 -175 -77.5t-81 -215.5h451q2 23 2 70
q0 100 -51 161.5t-146 61.5z" />
    <glyph glyph-name="f" unicode="f" horiz-adv-x="675" 
d="M221 1176q0 173 80 278t234 105q130 0 247 -95l-63 -106q-93 59 -176 59q-160 0 -160 -219v-242h235v-133h-235v-823h-162v823h-147v133h147v220z" />
    <glyph glyph-name="g" unicode="g" horiz-adv-x="1013" 
d="M201 152q0 92 86 178q-86 40 -132 117.5t-46 173.5q0 69 23.5 132t69 114t120 81.5t167.5 30.5q116 0 203 -49q111 106 258 114l6 -139q-87 -9 -182 -43q80 -89 80 -219q0 -151 -102.5 -250.5t-282.5 -99.5q-45 0 -82 6q-37 -43 -37 -92q0 -25 9.5 -42.5t24.5 -27.5
t43.5 -16t55 -7.5t70.5 -2.5q383 -6 383 -271q0 -165 -135 -262.5t-344 -97.5q-178 0 -289.5 78t-110.5 213q0 161 174 282q-30 42 -30 99zM481 -387q162 0 238 65q67 58 67 142q0 38 -14.5 66t-38 44t-62 26t-78 13t-95.5 4q-106 0 -170 21q-121 -88 -121 -205
q0 -87 73.5 -131.5t200.5 -44.5zM698 631q0 104 -55.5 162.5t-163.5 58.5q-99 0 -158 -57t-59 -156q0 -104 54.5 -162.5t164.5 -58.5q99 0 158 55.5t59 157.5z" />
    <glyph glyph-name="h" unicode="h" horiz-adv-x="1089" 
d="M164 1534l160 4v-670q151 117 327 117q149 0 216 -84.5t67 -249.5v-651h-162v592q0 134 -35 193t-127 59q-140 0 -286 -99v-745h-160v1534z" />
    <glyph glyph-name="i" unicode="i" horiz-adv-x="487" 
d="M164 954l160 4v-958h-160v954zM135 1247q0 53 32.5 85t84.5 32q47 0 75.5 -28.5t28.5 -75.5q0 -51 -31 -82t-83 -31q-48 0 -77.5 27.5t-29.5 72.5z" />
    <glyph glyph-name="j" unicode="j" horiz-adv-x="489" 
d="M164 954l162 4v-907q0 -131 -35 -235t-89.5 -172.5t-138.5 -135.5l-90 89q94 97 142.5 206t48.5 260v891zM131 1247q0 53 32.5 85t84.5 32q47 0 75.5 -28.5t28.5 -75.5q0 -51 -31 -82t-83 -31q-48 0 -77.5 27.5t-29.5 72.5z" />
    <glyph glyph-name="k" unicode="k" horiz-adv-x="1009" 
d="M772 956h164q-6 -36 -47 -77l-311 -353l337 -438q38 -48 50 -88h-177l-313 416l-149 -160v-256h-162v1534l162 4v-1081z" />
    <glyph glyph-name="l" unicode="l" horiz-adv-x="528" 
d="M162 1534l160 4v-1329q0 -49 14 -70.5t45 -21.5q35 0 76 14l35 -121q-76 -33 -162 -33q-82 0 -125 48.5t-43 140.5v1368z" />
    <glyph glyph-name="m" unicode="m" horiz-adv-x="1638" 
d="M150 952l135 19l26 -137q154 151 330 151q183 0 240 -160q79 80 159 120t177 40q138 0 202 -86.5t64 -257.5v-641h-162v580q0 144 -32.5 205t-114.5 61q-122 0 -273 -125q4 -50 4 -80v-641h-160v580q0 144 -32.5 205t-114.5 61q-122 0 -270 -123v-723h-162v582
q0 159 -16 370z" />
    <glyph glyph-name="n" unicode="n" horiz-adv-x="1091" 
d="M150 952l135 19l26 -133q153 147 340 147q153 0 219 -83.5t66 -250.5v-651h-162v590q0 135 -34 195.5t-126 60.5q-140 0 -286 -123v-723h-162v582q0 138 -16 370z" />
    <glyph glyph-name="o" unicode="o" horiz-adv-x="1067" 
d="M109 461q0 77 17 152t52.5 142.5t86.5 118.5t123.5 81t158.5 30q190 0 302 -137.5t112 -353.5q0 -99 -28 -191t-80.5 -167t-138 -120t-192.5 -45q-189 0 -301 136.5t-112 353.5zM795 469q0 170 -69 273.5t-196 103.5q-97 0 -165 -64q-93 -103 -93 -299
q0 -169 69.5 -270.5t197.5 -101.5q105 0 166 65q90 96 90 293z" />
    <glyph glyph-name="p" unicode="p" horiz-adv-x="1087" 
d="M539 109q112 0 178 63q96 91 96 305q0 165 -60 267t-173 102q-114 0 -252 -119v-561q97 -57 211 -57zM150 952l135 19l24 -129q143 143 295 143q165 0 270 -136t107 -341q0 -101 -28.5 -195.5t-81 -171.5t-137 -123.5t-187.5 -46.5q-110 0 -219 66v-529h-162v1072
q0 135 -16 372z" />
    <glyph glyph-name="q" unicode="q" horiz-adv-x="1079" 
d="M109 461q0 101 27 191t81.5 164.5t148 118.5t214.5 44q157 0 340 -57v-1414h-162v555q-126 -92 -273 -92q-117 0 -204 66.5t-129.5 176t-42.5 247.5zM518 111q105 0 240 71l2 635q-100 23 -197 23q-123 0 -186 -56q-103 -98 -103 -307q0 -169 64.5 -267.5t179.5 -98.5z
" />
    <glyph glyph-name="r" unicode="r" horiz-adv-x="747" 
d="M150 952l135 19l32 -180q106 188 265 188q72 0 133 -37l-33 -147q-52 14 -111 14q-148 0 -243 -168v-641h-162v582q0 133 -16 370z" />
    <glyph glyph-name="s" unicode="s" horiz-adv-x="882" 
d="M127 700q-3 126 95.5 202.5t242.5 76.5q163 0 291 -102l-70 -105q-112 72 -223 72q-78 0 -125 -33.5t-47 -89.5q0 -26 12 -48.5t27 -37.5t47 -32t54 -26t65 -26q55 -20 90 -35.5t77.5 -41t66 -52.5t40 -67t16.5 -89q0 -130 -99.5 -209.5t-262.5 -79.5q-187 0 -338 115
l68 109q136 -88 266 -88q88 0 143 36t55 101q0 44 -34 79t-67 50.5t-109 45.5q-18 7 -27 11q-59 22 -99.5 43.5t-78 52.5t-56.5 73t-20 95z" />
    <glyph glyph-name="t" unicode="t" horiz-adv-x="735" 
d="M240 1241h133v-285h293v-133h-293v-501q0 -119 24.5 -160t96.5 -41q62 0 155 22l31 -120q-122 -46 -246 -46q-118 0 -170.5 68t-52.5 236v542h-143v133h135z" />
    <glyph glyph-name="u" unicode="u" horiz-adv-x="1075" 
d="M156 954l159 4v-596q0 -132 39 -191.5t125 -59.5q122 0 269 131v714h161v-577q0 -103 17 -369l-133 -18l-29 129q-150 -150 -324 -150q-284 0 -284 334v649z" />
    <glyph glyph-name="v" unicode="v" horiz-adv-x="980" 
d="M762 956h158q0 -35 -19 -90l-328 -864l-172 -4l-315 868q-18 56 -18 90h161l207 -598q31 -89 51 -182h9z" />
    <glyph glyph-name="w" unicode="w" horiz-adv-x="1533" 
d="M694 954l160 4l182 -639l35 -143h8l232 780h155q0 -38 -18 -90l-289 -864l-178 -4l-180 600l-33 129h-4l-213 -725l-176 -4l-289 868q-16 62 -16 90h161l193 -637l39 -143h8z" />
    <glyph glyph-name="x" unicode="x" horiz-adv-x="962" 
d="M96 956h172l215 -348h4l226 348h153q-5 -41 -39 -90l-245 -364l280 -414q34 -46 37 -88h-164l-260 395h-4l-256 -395h-152q2 32 37 88l277 416l-244 362q-35 54 -37 90z" />
    <glyph glyph-name="y" unicode="y" horiz-adv-x="980" 
d="M764 956h154q0 -44 -19 -90l-346 -938q-92 -229 -194 -331.5t-228 -102.5q-51 0 -86 6v129q132 0 222 87t169 284h-33l-315 866q-18 46 -18 90h163l205 -598q33 -94 49 -182h9z" />
    <glyph glyph-name="z" unicode="z" horiz-adv-x="937" 
d="M121 956h696l23 -122l-553 -703h542l5 -131h-728l-18 121l555 704h-518z" />
    <glyph glyph-name="braceleft" unicode="{" horiz-adv-x="743" 
d="M53 600v105q54 8 91.5 26.5t57.5 40.5t30.5 60t13 69t2.5 82q0 68 -7.5 182.5t-7.5 167.5q0 102 33.5 179.5t93 124.5t134 71t163.5 27l17 -119q-69 -14 -116.5 -33.5t-86 -52.5t-57.5 -85t-19 -124q0 -65 7.5 -173t7.5 -165q0 -55 -2.5 -90.5t-12.5 -78.5t-28.5 -71
t-52.5 -53t-83 -39q49 -14 83 -39t52.5 -53t28.5 -71t12.5 -78.5t2.5 -90.5q0 -56 -7.5 -165.5t-7.5 -173.5q0 -71 19 -122.5t57.5 -85t86.5 -53.5t116 -34l-17 -119q-90 5 -163.5 29t-133.5 70t-93.5 123t-33.5 179q0 53 7.5 168.5t7.5 183.5q0 51 -2.5 82t-13 69
t-30.5 60.5t-57.5 42t-91.5 27.5z" />
    <glyph glyph-name="bar" unicode="|" horiz-adv-x="524" 
d="M195 1741h133v-2183h-133v2183z" />
    <glyph glyph-name="braceright" unicode="}" horiz-adv-x="743" 
d="M70 1616l16 119q89 -3 163.5 -27t134 -71t93 -124.5t33.5 -179.5q0 -53 -7 -167.5t-7 -182.5q0 -43 1.5 -69t7.5 -59.5t18.5 -54.5t33.5 -42t54.5 -33.5t78.5 -19.5v-105q-45 -7 -78.5 -20t-54.5 -34.5t-33.5 -42.5t-18.5 -54.5t-7.5 -60t-1.5 -69.5q0 -68 7 -183.5
t7 -168.5q0 -102 -33.5 -179t-93.5 -123t-133.5 -70t-163.5 -29l-16 119q68 14 116 34t86 53.5t57 85t19 122.5q0 64 -7 173.5t-7 165.5q0 55 2.5 90.5t12 78.5t28 71t52.5 53t83 39q-49 14 -83 39t-52.5 53t-28 71t-12 78.5t-2.5 90.5q0 57 7 165t7 173q0 72 -18.5 124
t-57.5 85t-86 52.5t-116 33.5z" />
    <glyph glyph-name="asciitilde" unicode="~" horiz-adv-x="1071" 
d="M690 532q26 0 47.5 10t39.5 30.5t29.5 37.5t27.5 45l94 -47q-27 -89 -91 -147.5t-147 -59.5q-46 0 -90 18.5t-73 41t-64.5 41t-67.5 18.5q-51 0 -87 -30.5t-70 -81.5l-95 49q37 85 102.5 140.5t149.5 55.5q47 0 91.5 -19t73 -41.5t64 -41.5t66.5 -19z" />
    <glyph glyph-name="uni00A0" unicode="&#xa0;" horiz-adv-x="442" 
 />
    <glyph glyph-name="exclamdown" unicode="&#xa1;" horiz-adv-x="524" 
d="M195 600h137l14 -1016h-166zM150 868q0 50 30 80.5t78 30.5q54 0 84.5 -32.5t30.5 -88.5q0 -47 -30 -76.5t-77 -29.5q-52 0 -84 32.5t-32 83.5z" />
    <glyph glyph-name="cent" unicode="&#xa2;" horiz-adv-x="1087" 
d="M113 463q0 209 112 348t301 164v170h138v-166q105 -10 183 -54t126 -108l-82 -96q-112 101 -227 113v-709q130 9 254 70l49 -111q-49 -35 -128 -64.5t-175 -37.5v-170h-138v170q-186 21 -299.5 148.5t-113.5 332.5zM276 473q0 -143 66.5 -230.5t183.5 -111.5v698
q-60 -11 -110 -45q-66 -44 -103 -125.5t-37 -185.5z" />
    <glyph glyph-name="sterling" unicode="&#xa3;" horiz-adv-x="1032" 
d="M129 760h147q12 641 386 641q151 0 253 -66l-53 -121q-93 41 -180 41q-99 0 -150 -63q-48 -53 -68 -158.5t-22 -273.5h285v-142h-287q-17 -306 -141 -477h616l5 -141h-814l-12 129q35 35 59.5 67.5t52.5 88.5t45 139.5t23 193.5h-145v142z" />
    <glyph glyph-name="currency" unicode="&#xa4;" horiz-adv-x="1069" 
d="M201 565q0 112 61 201l-133 131l92 84l129 -129q79 53 182 53q108 0 185 -55l137 131l88 -84l-139 -135q59 -86 59 -197q0 -108 -57 -196l137 -148l-88 -84l-133 146q-83 -60 -189 -60q-104 0 -186 56l-125 -142l-92 84l131 144q-59 86 -59 200zM733 565q0 89 -55.5 152
t-145.5 63q-93 0 -147.5 -63t-54.5 -152t54.5 -152t147.5 -63q90 0 145.5 63t55.5 152z" />
    <glyph glyph-name="yen" unicode="&#xa5;" horiz-adv-x="1198" 
d="M944 1372h170q-35 -87 -82 -160l-327 -542h319v-123h-350v-156h350v-123h-350v-268h-162v268h-340v123h340v156h-340v123h309l-317 542q-52 83 -80 160h176l217 -399l119 -215h4z" />
    <glyph glyph-name="brokenbar" unicode="&#xa6;" horiz-adv-x="520" 
d="M195 1741h133v-2183h-133v2183zM328 489v320h-133v-320h133z" />
    <glyph glyph-name="section" unicode="&#xa7;" horiz-adv-x="950" 
d="M442 346q32 -16 101 -51q151 112 151 244q0 74 -46 127t-138 96q-29 12 -100 51q-154 -115 -154 -244q0 -73 46 -125.5t140 -97.5zM180 1102q-1 144 100.5 221.5t251.5 77.5q148 0 277 -68l-51 -125q-114 54 -223 54q-85 0 -139 -39.5t-54 -112.5q0 -23 6 -43t22 -39
t27.5 -31t41.5 -30t43 -25.5t52 -27t50 -25.5q129 -65 198.5 -142.5t69.5 -193.5q0 -96 -57.5 -179.5t-149.5 -146.5q124 -98 127 -221q0 -144 -102 -221.5t-252 -77.5q-148 0 -277 68l54 125q119 -54 221 -54q85 0 138.5 39.5t53.5 112.5q0 37 -16 67t-50 55.5t-65.5 43
t-82.5 42.5q-18 8 -27 13q-61 31 -105.5 61.5t-83 71t-58.5 91.5t-20 112q0 182 205 326q-125 99 -125 221z" />
    <glyph glyph-name="dieresis" unicode="&#xa8;" horiz-adv-x="819" 
d="M494 1243q0 45 29.5 75t76.5 30q42 0 69 -25t27 -70q0 -46 -28.5 -76t-75.5 -30q-44 0 -71 25.5t-27 70.5zM129 1243q0 45 30 75t79 30q42 0 68 -25t26 -70q0 -47 -28 -76.5t-77 -29.5q-43 0 -70.5 25.5t-27.5 70.5z" />
    <glyph glyph-name="copyright" unicode="&#xa9;" horiz-adv-x="1566" 
d="M115 686q0 183 90.5 335.5t244.5 239.5t334 87q179 0 332.5 -87t244.5 -239.5t91 -335.5q0 -137 -54 -260t-144 -210.5t-213 -139t-257 -51.5q-135 0 -258 51.5t-213.5 139t-144 210.5t-53.5 260zM446 674q0 61 13.5 118t42.5 108t70.5 89t101 60t131.5 22
q151 0 231 -102l-65 -72q-81 57 -158 57q-95 0 -147 -55q-78 -75 -78 -211q0 -120 56.5 -193t176.5 -73q15 0 29 1.5t25 3t24.5 5.5t21 6t21 7.5t17.5 7.5t18 8.5t16 7.5l43 -88q-33 -27 -96.5 -50.5t-142.5 -23.5q-166 0 -258.5 103.5t-92.5 263.5zM1331 686
q0 114 -43.5 216.5t-117 176t-174.5 117t-212 43.5q-149 0 -275 -73t-199.5 -200.5t-73.5 -279.5t73.5 -280t199.5 -201.5t275 -73.5q111 0 212 43.5t174.5 117.5t117 177t43.5 217z" />
    <glyph glyph-name="ordfeminine" unicode="&#xaa;" horiz-adv-x="784" 
d="M152 1249q123 94 266 94q109 0 159 -54.5t50 -170.5v-139q0 -74 12 -234l-109 -16l-26 86q-96 -90 -209 -90q-77 0 -122.5 40.5t-45.5 111.5q0 87 80 141q77 49 285 67v2q0 83 -22 115.5t-79 32.5q-83 0 -192 -64zM334 823q72 0 158 70v111q-154 -13 -199 -43
q-37 -26 -37 -66q0 -35 20.5 -53.5t57.5 -18.5z" />
    <glyph glyph-name="guillemotleft" unicode="&#xab;" horiz-adv-x="1024" 
d="M94 516l342 410l103 -68l-277 -364l279 -371l-105 -70l-340 414zM467 516l342 410l102 -68l-276 -364l278 -371l-104 -70l-340 414z" />
    <glyph glyph-name="logicalnot" unicode="&#xac;" 
d="M188 594h752v-547h-143v416h-609v131z" />
    <glyph glyph-name="uni00AD" unicode="&#xad;" horiz-adv-x="727" 
d="M147 557h433v-131h-433v131z" />
    <glyph glyph-name="registered" unicode="&#xae;" horiz-adv-x="1144" 
d="M106 1069q0 124 61.5 229t169 166.5t236.5 61.5q194 0 329.5 -133.5t135.5 -323.5q0 -191 -135.5 -326t-329.5 -135q-196 0 -331.5 135t-135.5 326zM940 1069q0 153 -108 260t-259 107q-153 0 -259.5 -107t-106.5 -260q0 -156 106.5 -263.5t259.5 -107.5
q152 0 259.5 107.5t107.5 263.5zM539 1087q45 0 77 11q52 25 52 69q0 76 -121 76q-33 0 -53 -2v-154h45zM410 1305q56 10 141 10q97 0 151 -34.5t54 -104.5q0 -45 -25.5 -81.5t-73.5 -56.5l93 -153q13 -19 20 -45h-94l-96 178q-12 -2 -37 -2h-49v-176h-84v465z" />
    <glyph glyph-name="macron" unicode="&#xaf;" horiz-adv-x="819" 
d="M154 1276h512v-125h-512v125z" />
    <glyph glyph-name="degree" unicode="&#xb0;" horiz-adv-x="798" 
d="M115 1157q0 129 81.5 210t204.5 81q121 0 203 -81.5t82 -209.5q0 -129 -82.5 -212t-202.5 -83q-123 0 -204.5 83t-81.5 212zM549 1157q0 83 -40.5 129.5t-107.5 46.5q-69 0 -110 -45t-41 -131q0 -85 40.5 -131.5t110.5 -46.5q68 0 108 46t40 132z" />
    <glyph glyph-name="plusminus" unicode="&#xb1;" 
d="M496 1014h139v-332h321v-131h-321v-311h-139v311h-324v131h324v332zM172 131h784v-131h-784v131z" />
    <glyph glyph-name="twosuperior" unicode="&#xb2;" horiz-adv-x="628" 
d="M82 1526q92 73 223 73q111 0 169 -59t58 -154q0 -99 -61.5 -187t-177.5 -195l-47 -43h293l4 -113h-457l-8 113l108 102q55 54 81.5 82t61.5 71t49.5 79t14.5 73q0 113 -114 113q-81 0 -150 -43z" />
    <glyph glyph-name="threesuperior" unicode="&#xb3;" horiz-adv-x="626" 
d="M82 1534q91 65 217 65q100 0 157.5 -48t57.5 -134q0 -55 -26 -100.5t-72 -73.5q60 -22 92.5 -68t32.5 -110q0 -106 -69.5 -170t-192.5 -64q-122 0 -209 50l39 100q80 -33 159 -33q55 0 88 23q43 29 43 92q0 55 -40.5 83t-114.5 28h-51l-5 104h54q62 0 97.5 32t35.5 85
q0 42 -27.5 66t-77.5 24q-69 0 -145 -39z" />
    <glyph glyph-name="acute" unicode="&#xb4;" horiz-adv-x="819" 
d="M266 1174l312 313l98 -107v-10l-332 -278z" />
    <glyph glyph-name="uni00B5" unicode="&#xb5;" horiz-adv-x="1220" 
d="M788 956h162v-688q0 -84 24.5 -117.5t74.5 -33.5q35 0 75 12l29 -119q-64 -33 -145 -33q-85 0 -133.5 44t-61.5 137q-33 -83 -102 -132t-174 -49q-128 0 -197 86l8 -550h-160v1441l160 4v-616q0 -95 51.5 -160t143.5 -65q75 0 132.5 44t85 106.5t27.5 127.5v561z" />
    <glyph glyph-name="paragraph" unicode="&#xb6;" horiz-adv-x="1124" 
d="M63 981q0 137 69 231.5t186.5 138.5t275.5 44q43 0 68 -2v-1842h-136v967q-118 11 -209 53t-145.5 106t-81.5 140.5t-27 163.5zM784 -449v1833q125 -16 136 -18v-1815h-136z" />
    <glyph glyph-name="periodcentered" unicode="&#xb7;" horiz-adv-x="448" 
d="M121 524q0 49 28 81t76 32q45 0 73 -30t28 -75q0 -52 -27 -84t-76 -32q-48 0 -75 31t-27 77z" />
    <glyph glyph-name="cedilla" unicode="&#xb8;" horiz-adv-x="819" 
d="M276 -164l91 207l106 -35l-53 -125h20q53 0 96.5 -13.5t75 -50t31.5 -91.5q0 -98 -95 -164.5t-265 -93.5l-23 102q225 45 225 147q0 37 -29.5 54.5t-76.5 17.5q-22 0 -64 -6z" />
    <glyph glyph-name="onesuperior" unicode="&#xb9;" horiz-adv-x="559" 
d="M76 1511l194 80l113 -2v-628h113l4 -113h-412v113h156v493l-133 -41z" />
    <glyph glyph-name="ordmasculine" unicode="&#xba;" horiz-adv-x="819" 
d="M119 1026q0 132 79 227t220 95q131 0 207.5 -87t76.5 -219q0 -86 -31 -157t-100 -117.5t-165 -46.5q-134 0 -210.5 86t-76.5 219zM563 1032q0 94 -39 152.5t-112 58.5q-49 0 -86 -29q-66 -54 -66 -178q0 -96 39.5 -153.5t114.5 -57.5q52 0 90 33q59 53 59 174z" />
    <glyph glyph-name="guillemotright" unicode="&#xbb;" horiz-adv-x="1024" 
d="M111 858l102 68l344 -410l-4 -49l-340 -414l-104 70l278 371zM483 858l103 68l344 -410l-4 -49l-340 -414l-105 70l279 371z" />
    <glyph glyph-name="onequarter" unicode="&#xbc;" horiz-adv-x="1656" 
d="M139 1266l228 80l112 -3v-628h142l4 -113h-475v113h190v495l-168 -45zM324 31l903 1384l102 -72l-905 -1382zM995 299l328 473l139 -4v-473h99l4 -109h-103v-157h-135v157h-317zM1276 516l-148 -221h199v303h-2z" />
    <glyph glyph-name="onehalf" unicode="&#xbd;" horiz-adv-x="1656" 
d="M139 1266l228 80l112 -3v-628h142l4 -113h-475v113h190v495l-168 -45zM324 31l903 1384l102 -72l-905 -1382zM1053 707q89 73 223 73q111 0 169 -59t58 -154q0 -99 -61.5 -187.5t-177.5 -195.5l-47 -43h292l4 -112h-456l-8 112l108 103q55 54 81.5 82t61.5 71t49.5 79
t14.5 73q0 53 -28.5 83t-86.5 30q-78 0 -149 -44z" />
    <glyph glyph-name="threequarters" unicode="&#xbe;" horiz-adv-x="1656" 
d="M137 1288q96 66 219 66q99 0 157 -48.5t58 -134.5q0 -55 -26.5 -100.5t-73.5 -73.5q127 -45 127 -178q0 -106 -70.5 -169.5t-193.5 -63.5q-124 0 -209 49l41 100q76 -33 160 -33q53 0 86 23q43 29 43 92q0 111 -154 111h-53l-2 104h53q61 0 96 32t35 85q0 42 -26.5 66
t-75.5 24q-75 0 -146 -39zM324 31l903 1384l102 -72l-905 -1382zM995 299l328 473l139 -4v-473h99l4 -109h-103v-157h-135v157h-317zM1276 516l-148 -221h199v303h-2z" />
    <glyph glyph-name="questiondown" unicode="&#xbf;" horiz-adv-x="804" 
d="M393 602l139 6q19 -65 19 -123q0 -60 -13.5 -111t-42.5 -95.5t-52 -72t-64 -69.5q-137 -141 -137 -268q0 -79 54.5 -123.5t149.5 -42.5q121 0 240 55l53 -108q-143 -88 -325 -88q-150 0 -244 75.5t-94 221.5q0 98 42 174t118 155q77 83 119 157.5t42 172.5q0 38 -4 84z
M348 862q0 57 31 90t84 33q47 0 77.5 -31t30.5 -80q0 -52 -31.5 -84t-84.5 -32q-47 0 -77 29t-30 75z" />
    <glyph glyph-name="Agrave" unicode="&#xc0;" horiz-adv-x="1196" 
d="M600 1169l-217 -645h426l-117 353l-86 292h-6zM510 1368l184 8l408 -1233q30 -93 41 -143h-162l-127 383h-520l-129 -383h-164q19 78 43 143zM305 1667l49 139l426 -174l-37 -110l-438 137v8z" />
    <glyph glyph-name="Aacute" unicode="&#xc1;" horiz-adv-x="1196" 
d="M600 1169l-217 -645h426l-117 353l-86 292h-6zM510 1368l184 8l408 -1233q30 -93 41 -143h-162l-127 383h-520l-129 -383h-164q19 78 43 143zM418 1632l426 174l49 -139l-2 -8l-436 -137z" />
    <glyph glyph-name="Acircumflex" unicode="&#xc2;" horiz-adv-x="1196" 
d="M600 1169l-217 -645h426l-117 353l-86 292h-6zM510 1368l184 8l408 -1233q30 -93 41 -143h-162l-127 383h-520l-129 -383h-164q19 78 43 143zM539 1808l114 9l260 -220l-71 -92l-246 178l-244 -176l-69 95z" />
    <glyph glyph-name="Atilde" unicode="&#xc3;" horiz-adv-x="1196" 
d="M600 1169l-217 -645h426l-117 353l-86 292h-6zM510 1368l184 8l408 -1233q30 -93 41 -143h-162l-127 383h-520l-129 -383h-164q19 78 43 143zM717 1651q61 0 127 139l100 -49q-90 -221 -229 -221q-42 0 -78 21t-57.5 45.5t-48 45.5t-50.5 21q-60 0 -131 -133l-96 51
q90 215 231 215q41 0 76.5 -21t56.5 -46.5t47.5 -46.5t51.5 -21z" />
    <glyph glyph-name="Adieresis" unicode="&#xc4;" horiz-adv-x="1196" 
d="M600 1169l-217 -645h426l-117 353l-86 292h-6zM510 1368l184 8l408 -1233q30 -93 41 -143h-162l-127 383h-520l-129 -383h-164q19 78 43 143zM686 1640q0 46 31 76.5t78 30.5q42 0 70 -25.5t28 -68.5q0 -47 -30 -77t-77 -30q-44 0 -72 25.5t-28 68.5zM303 1640
q0 46 31 76.5t78 30.5q42 0 70 -25.5t28 -68.5q0 -47 -30 -77t-77 -30q-44 0 -72 25.5t-28 68.5z" />
    <glyph glyph-name="Aring" unicode="&#xc5;" horiz-adv-x="1196" 
d="M600 1169l-217 -645h426l-117 353l-86 292h-6zM510 1368l184 8l408 -1233q30 -93 41 -143h-162l-127 383h-520l-129 -383h-164q19 78 43 143zM375 1681q0 97 64.5 156t168.5 59q95 0 155 -54t60 -142q0 -97 -65 -155t-166 -58q-96 0 -156.5 53t-60.5 141zM709 1694
q0 44 -29.5 74t-75.5 30q-52 0 -83.5 -30.5t-31.5 -81.5q0 -45 29 -73t76 -28q52 0 83.5 29.5t31.5 79.5z" />
    <glyph glyph-name="AE" unicode="&#xc6;" horiz-adv-x="1769" 
d="M750 1020l-254 -465h378l3 676h-13zM774 1372h885l-6 -141h-615v-457h498v-143h-498v-490h619l6 -141h-789v410h-456l-223 -410h-175q2 18 25 59z" />
    <glyph glyph-name="Ccedilla" unicode="&#xc7;" horiz-adv-x="1181" 
d="M115 659q0 113 23 219t72.5 200.5t120.5 164.5t174 111t226 41q212 0 365 -105l-64 -127q-150 84 -303 84q-177 0 -287 -110q-155 -163 -155 -463q0 -88 14 -165.5t47.5 -149t83.5 -122.5t127 -81.5t174 -30.5q158 0 324 76l49 -127q-175 -91 -373 -97l-41 -94h17
q84 0 143 -37t59 -118q0 -98 -95 -164.5t-265 -93.5l-23 102q226 45 226 147q0 37 -30 54.5t-77 17.5q-21 0 -63 -6l-39 51l65 150q-122 17 -217 76t-155.5 149.5t-91.5 203.5t-31 244z" />
    <glyph glyph-name="Egrave" unicode="&#xc8;" horiz-adv-x="1085" 
d="M193 1372h782l-6 -141h-615v-457h500v-143h-500v-490h621l4 -141h-786v1372zM297 1667l49 139l426 -174l-37 -110l-438 137v8z" />
    <glyph glyph-name="Eacute" unicode="&#xc9;" horiz-adv-x="1085" 
d="M193 1372h782l-6 -141h-615v-457h500v-143h-500v-490h621l4 -141h-786v1372zM410 1632l426 174l49 -139l-2 -8l-437 -137z" />
    <glyph glyph-name="Ecircumflex" unicode="&#xca;" horiz-adv-x="1085" 
d="M193 1372h782l-6 -141h-615v-457h500v-143h-500v-490h621l4 -141h-786v1372zM530 1808l115 9l260 -220l-71 -92l-246 178l-244 -176l-70 95z" />
    <glyph glyph-name="Edieresis" unicode="&#xcb;" horiz-adv-x="1085" 
d="M193 1372h782l-6 -141h-615v-457h500v-143h-500v-490h621l4 -141h-786v1372zM678 1640q0 46 30.5 76.5t77.5 30.5q43 0 71 -25.5t28 -68.5q0 -47 -30 -77t-77 -30q-44 0 -72 25.5t-28 68.5zM295 1640q0 46 30.5 76.5t77.5 30.5q43 0 71 -25.5t28 -68.5q0 -47 -30 -77
t-77 -30q-44 0 -72 25.5t-28 68.5z" />
    <glyph glyph-name="Igrave" unicode="&#xcc;" horiz-adv-x="546" 
d="M193 1372h161v-1372h-161v1372zM-18 1667l49 139l426 -174l-37 -110l-438 137v8z" />
    <glyph glyph-name="Iacute" unicode="&#xcd;" horiz-adv-x="546" 
d="M193 1372h161v-1372h-161v1372zM94 1632l426 174l49 -139l-2 -8l-436 -137z" />
    <glyph glyph-name="Icircumflex" unicode="&#xce;" horiz-adv-x="546" 
d="M193 1372h161v-1372h-161v1372zM215 1808l115 9l260 -220l-72 -92l-246 178l-243 -176l-70 95z" />
    <glyph glyph-name="Idieresis" unicode="&#xcf;" horiz-adv-x="546" 
d="M193 1372h161v-1372h-161v1372zM362 1640q0 46 31 76.5t78 30.5q42 0 70 -25.5t28 -68.5q0 -47 -29.5 -77t-76.5 -30q-44 0 -72.5 25.5t-28.5 68.5zM-20 1640q0 46 30.5 76.5t77.5 30.5q42 0 70 -25.5t28 -68.5q0 -47 -29.5 -77t-76.5 -30q-44 0 -72 25.5t-28 68.5z" />
    <glyph glyph-name="Eth" unicode="&#xd0;" horiz-adv-x="1361" 
d="M205 1362q229 33 399 33q297 0 470 -187t173 -497q0 -213 -82 -379.5t-234.5 -260.5t-350.5 -94q-203 0 -375 31v629h-152v131h152v594zM578 125q154 0 258 68q118 78 179.5 211t61.5 294q-2 252 -128 400.5t-353 148.5q-109 0 -227 -16v-463h329v-131h-329v-500
q88 -12 209 -12z" />
    <glyph glyph-name="Ntilde" unicode="&#xd1;" horiz-adv-x="1388" 
d="M193 1372h186l577 -969l95 -194h2l-9 221v942h154v-1372h-190l-580 975l-90 180h-4l8 -190v-965h-149v1372zM834 1651q61 0 127 139l100 -49q-90 -221 -230 -221q-42 0 -78 21t-57 45.5t-47.5 45.5t-50.5 21q-60 0 -131 -133l-96 51q90 215 231 215q41 0 76.5 -21
t56.5 -46.5t47.5 -46.5t51.5 -21z" />
    <glyph glyph-name="Ograve" unicode="&#xd2;" horiz-adv-x="1400" 
d="M113 668q0 110 22 214t69.5 198.5t115.5 165.5t167 113t218 42q137 0 248.5 -54.5t184 -150t111.5 -221.5t39 -270q0 -110 -21.5 -214t-69 -199t-115 -166t-167 -113t-217.5 -42q-137 0 -249 55t-184.5 150t-112 221.5t-39.5 270.5zM1116 688q0 118 -27.5 220t-79 179
t-131 121.5t-178.5 44.5q-135 0 -229 -79q-95 -80 -140.5 -212t-45.5 -278q0 -158 47 -284.5t143 -203.5t227 -77q135 0 230 80q96 79 140 210t44 279zM408 1667l49 139l426 -174l-37 -110l-438 137v8z" />
    <glyph glyph-name="Oacute" unicode="&#xd3;" horiz-adv-x="1400" 
d="M113 668q0 110 22 214t69.5 198.5t115.5 165.5t167 113t218 42q137 0 248.5 -54.5t184 -150t111.5 -221.5t39 -270q0 -110 -21.5 -214t-69 -199t-115 -166t-167 -113t-217.5 -42q-137 0 -249 55t-184.5 150t-112 221.5t-39.5 270.5zM1116 688q0 118 -27.5 220t-79 179
t-131 121.5t-178.5 44.5q-135 0 -229 -79q-95 -80 -140.5 -212t-45.5 -278q0 -158 47 -284.5t143 -203.5t227 -77q135 0 230 80q96 79 140 210t44 279zM520 1632l426 174l49 -139l-2 -8l-436 -137z" />
    <glyph glyph-name="Ocircumflex" unicode="&#xd4;" horiz-adv-x="1400" 
d="M113 668q0 110 22 214t69.5 198.5t115.5 165.5t167 113t218 42q137 0 248.5 -54.5t184 -150t111.5 -221.5t39 -270q0 -110 -21.5 -214t-69 -199t-115 -166t-167 -113t-217.5 -42q-137 0 -249 55t-184.5 150t-112 221.5t-39.5 270.5zM1116 688q0 118 -27.5 220t-79 179
t-131 121.5t-178.5 44.5q-135 0 -229 -79q-95 -80 -140.5 -212t-45.5 -278q0 -158 47 -284.5t143 -203.5t227 -77q135 0 230 80q96 79 140 210t44 279zM641 1808l115 9l260 -220l-72 -92l-246 178l-243 -176l-70 95z" />
    <glyph glyph-name="Otilde" unicode="&#xd5;" horiz-adv-x="1400" 
d="M113 668q0 110 22 214t69.5 198.5t115.5 165.5t167 113t218 42q137 0 248.5 -54.5t184 -150t111.5 -221.5t39 -270q0 -110 -21.5 -214t-69 -199t-115 -166t-167 -113t-217.5 -42q-137 0 -249 55t-184.5 150t-112 221.5t-39.5 270.5zM1116 688q0 118 -27.5 220t-79 179
t-131 121.5t-178.5 44.5q-135 0 -229 -79q-95 -80 -140.5 -212t-45.5 -278q0 -158 47 -284.5t143 -203.5t227 -77q135 0 230 80q96 79 140 210t44 279zM819 1651q61 0 127 139l101 -49q-90 -221 -230 -221q-42 0 -78 21t-57 45.5t-47.5 45.5t-50.5 21q-60 0 -131 -133
l-97 51q43 102 102 158.5t130 56.5q34 0 63 -14t49.5 -34t39 -39.5t38.5 -33.5t41 -14z" />
    <glyph glyph-name="Odieresis" unicode="&#xd6;" horiz-adv-x="1400" 
d="M113 668q0 110 22 214t69.5 198.5t115.5 165.5t167 113t218 42q137 0 248.5 -54.5t184 -150t111.5 -221.5t39 -270q0 -110 -21.5 -214t-69 -199t-115 -166t-167 -113t-217.5 -42q-137 0 -249 55t-184.5 150t-112 221.5t-39.5 270.5zM1116 688q0 118 -27.5 220t-79 179
t-131 121.5t-178.5 44.5q-135 0 -229 -79q-95 -80 -140.5 -212t-45.5 -278q0 -158 47 -284.5t143 -203.5t227 -77q135 0 230 80q96 79 140 210t44 279zM788 1640q0 46 31 76.5t78 30.5q42 0 70 -25.5t28 -68.5q0 -47 -29.5 -77t-76.5 -30q-44 0 -72.5 25.5t-28.5 68.5z
M406 1640q0 46 30.5 76.5t77.5 30.5q42 0 70 -25.5t28 -68.5q0 -47 -29.5 -77t-76.5 -30q-44 0 -72 25.5t-28 68.5z" />
    <glyph glyph-name="multiply" unicode="&#xd7;" 
d="M827 170l-262 268l-262 -268l-94 84l268 274l-268 273l94 86l262 -269l262 269l93 -86l-267 -273l269 -276z" />
    <glyph glyph-name="Oslash" unicode="&#xd8;" horiz-adv-x="1390" 
d="M115 668q0 110 21.5 214t68 198.5t113.5 165.5t165 113t215 42q149 0 269 -66l77 148l117 -68l-86 -160q98 -96 150.5 -239t52.5 -311q0 -110 -22 -214t-69 -199t-114.5 -166t-165.5 -113t-215 -42q-147 0 -270 68l-78 -145l-115 63l86 162q-97 94 -148.5 237t-51.5 312z
M287 684q0 -256 112 -410l494 924q-88 57 -199 57q-133 0 -225 -77q-94 -79 -138 -212.5t-44 -281.5zM1104 688q0 253 -113 412l-495 -924q91 -59 200 -59q133 0 226 78q94 79 138 212t44 281z" />
    <glyph glyph-name="Ugrave" unicode="&#xd9;" horiz-adv-x="1302" 
d="M963 1372h163v-833q0 -129 -26.5 -229.5t-82.5 -178t-152 -119t-228 -41.5q-223 0 -341 129t-118 387v885h164v-848q0 -79 8.5 -139.5t30 -112.5t57 -85t90.5 -51.5t129 -18.5q63 0 117 21t86 52q103 97 103 306v876zM356 1667l50 139l425 -174l-36 -110l-439 137v8z" />
    <glyph glyph-name="Uacute" unicode="&#xda;" horiz-adv-x="1302" 
d="M963 1372h163v-833q0 -129 -26.5 -229.5t-82.5 -178t-152 -119t-228 -41.5q-223 0 -341 129t-118 387v885h164v-848q0 -79 8.5 -139.5t30 -112.5t57 -85t90.5 -51.5t129 -18.5q63 0 117 21t86 52q103 97 103 306v876zM469 1632l426 174l49 -139l-2 -8l-436 -137z" />
    <glyph glyph-name="Ucircumflex" unicode="&#xdb;" horiz-adv-x="1302" 
d="M963 1372h163v-833q0 -129 -26.5 -229.5t-82.5 -178t-152 -119t-228 -41.5q-223 0 -341 129t-118 387v885h164v-848q0 -79 8.5 -139.5t30 -112.5t57 -85t90.5 -51.5t129 -18.5q63 0 117 21t86 52q103 97 103 306v876zM590 1808l115 9l260 -220l-72 -92l-246 178
l-244 -176l-69 95z" />
    <glyph glyph-name="Udieresis" unicode="&#xdc;" horiz-adv-x="1302" 
d="M963 1372h163v-833q0 -129 -26.5 -229.5t-82.5 -178t-152 -119t-228 -41.5q-223 0 -341 129t-118 387v885h164v-848q0 -79 8.5 -139.5t30 -112.5t57 -85t90.5 -51.5t129 -18.5q63 0 117 21t86 52q103 97 103 306v876zM737 1640q0 46 31 76.5t78 30.5q42 0 70 -25.5
t28 -68.5q0 -47 -29.5 -77t-76.5 -30q-44 0 -72.5 25.5t-28.5 68.5zM354 1640q0 46 31 76.5t78 30.5q42 0 70 -25.5t28 -68.5q0 -47 -29.5 -77t-76.5 -30q-44 0 -72.5 25.5t-28.5 68.5z" />
    <glyph glyph-name="Yacute" unicode="&#xdd;" horiz-adv-x="1105" 
d="M901 1372h168q-3 -13 -9 -27.5t-15 -33t-16 -30.5t-20 -35.5t-18 -33.5l-358 -649v-563h-164v563l-348 649q-64 106 -78 160h176l244 -457l94 -182h2zM377 1632l426 174l49 -139l-2 -8l-436 -137z" />
    <glyph glyph-name="Thorn" unicode="&#xde;" horiz-adv-x="1146" 
d="M494 408q152 0 245 49q150 77 150 274q0 144 -93.5 213.5t-258.5 69.5q-67 0 -181 -15v-583q71 -8 138 -8zM193 1372h163v-225q114 12 183 12q243 0 381.5 -103t138.5 -308q0 -218 -143 -351t-416 -133q-79 0 -144 8v-272h-163v1372z" />
    <glyph glyph-name="germandbls" unicode="&#xdf;" horiz-adv-x="1155" 
d="M221 1171q0 174 91 281t249 107q148 -1 229.5 -86t81.5 -226q0 -70 -24.5 -141.5t-54 -120t-54 -107t-24.5 -104.5q0 -65 33.5 -108t107.5 -93q46 -31 72.5 -50t59.5 -49.5t50 -58t29 -67t12 -84.5q0 -129 -86 -208t-237 -79q-158 0 -281 74l47 117q117 -57 236 -57
q78 0 121 36t43 105q0 57 -35.5 98t-124.5 99q-68 47 -108 85t-66.5 93.5t-26.5 124.5q0 54 16 106t38.5 94.5t45 85.5t38.5 96.5t16 110.5q-2 84 -41 131t-115 47q-178 0 -178 -233v-1190h-160v823h-147v133h147v215z" />
    <glyph glyph-name="agrave" unicode="&#xe0;" horiz-adv-x="972" 
d="M127 823q180 156 393 156q154 0 224.5 -87t70.5 -276v-245q0 -129 16 -361l-135 -20l-26 131q-163 -144 -334 -144q-115 0 -182.5 65t-67.5 175q0 72 35 132.5t96 99.5q117 76 438 102v14q0 152 -36.5 212.5t-126.5 60.5q-142 0 -306 -115zM369 106q134 0 286 134v192
q-269 -21 -350 -72q-61 -46 -61 -124q0 -62 33 -96t92 -34zM242 1380l100 107l311 -313l-78 -82l-333 278v10z" />
    <glyph glyph-name="aacute" unicode="&#xe1;" horiz-adv-x="972" 
d="M127 823q180 156 393 156q154 0 224.5 -87t70.5 -276v-245q0 -129 16 -361l-135 -20l-26 131q-163 -144 -334 -144q-115 0 -182.5 65t-67.5 175q0 72 35 132.5t96 99.5q117 76 438 102v14q0 152 -36.5 212.5t-126.5 60.5q-142 0 -306 -115zM369 106q134 0 286 134v192
q-269 -21 -350 -72q-61 -46 -61 -124q0 -62 33 -96t92 -34zM334 1174l311 313l98 -107v-10l-331 -278z" />
    <glyph glyph-name="acircumflex" unicode="&#xe2;" horiz-adv-x="972" 
d="M127 823q180 156 393 156q154 0 224.5 -87t70.5 -276v-245q0 -129 16 -361l-135 -20l-26 131q-163 -144 -334 -144q-115 0 -182.5 65t-67.5 175q0 72 35 132.5t96 99.5q117 76 438 102v14q0 152 -36.5 212.5t-126.5 60.5q-142 0 -306 -115zM369 106q134 0 286 134v192
q-269 -21 -350 -72q-61 -46 -61 -124q0 -62 33 -96t92 -34zM418 1464l119 6l245 -296l-86 -78l-219 233l-223 -233l-82 78z" />
    <glyph glyph-name="atilde" unicode="&#xe3;" horiz-adv-x="972" 
d="M127 823q180 156 393 156q154 0 224.5 -87t70.5 -276v-245q0 -129 16 -361l-135 -20l-26 131q-163 -144 -334 -144q-115 0 -182.5 65t-67.5 175q0 72 35 132.5t96 99.5q117 76 438 102v14q0 152 -36.5 212.5t-126.5 60.5q-142 0 -306 -115zM369 106q134 0 286 134v192
q-269 -21 -350 -72q-61 -46 -61 -124q0 -62 33 -96t92 -34zM596 1247q66 0 125 133l98 -47q-37 -106 -95.5 -163.5t-129.5 -57.5q-42 0 -78 21t-57.5 45.5t-48 45.5t-50.5 21q-18 0 -34 -9.5t-33.5 -31.5t-29 -39.5t-32.5 -52.5l-96 51q39 102 98.5 158.5t131.5 56.5
q41 0 76.5 -20.5t56.5 -45t47.5 -45t50.5 -20.5z" />
    <glyph glyph-name="adieresis" unicode="&#xe4;" horiz-adv-x="972" 
d="M127 823q180 156 393 156q154 0 224.5 -87t70.5 -276v-245q0 -129 16 -361l-135 -20l-26 131q-163 -144 -334 -144q-115 0 -182.5 65t-67.5 175q0 72 35 132.5t96 99.5q117 76 438 102v14q0 152 -36.5 212.5t-126.5 60.5q-142 0 -306 -115zM369 106q134 0 286 134v192
q-269 -21 -350 -72q-61 -46 -61 -124q0 -62 33 -96t92 -34zM561 1243q0 45 30 75t77 30q42 0 69 -25t27 -70q0 -46 -29 -76t-76 -30q-44 0 -71 25.5t-27 70.5zM197 1243q0 45 29.5 75t78.5 30q42 0 68 -25t26 -70q0 -47 -28 -76.5t-76 -29.5q-43 0 -70.5 25.5t-27.5 70.5z
" />
    <glyph glyph-name="aring" unicode="&#xe5;" horiz-adv-x="972" 
d="M127 823q180 156 393 156q154 0 224.5 -87t70.5 -276v-245q0 -129 16 -361l-135 -20l-26 131q-163 -144 -334 -144q-115 0 -182.5 65t-67.5 175q0 72 35 132.5t96 99.5q117 76 438 102v14q0 152 -36.5 212.5t-126.5 60.5q-142 0 -306 -115zM369 106q134 0 286 134v192
q-269 -21 -350 -72q-61 -46 -61 -124q0 -62 33 -96t92 -34zM252 1278q0 102 65 162.5t170 60.5q95 0 155 -55t60 -148q0 -101 -65 -162t-168 -61q-95 0 -156 56t-61 147zM586 1292q0 51 -27 80t-76 29q-54 0 -84 -31.5t-30 -87.5q0 -50 27.5 -78t76.5 -28q54 0 83.5 30.5
t29.5 85.5z" />
    <glyph glyph-name="ae" unicode="&#xe6;" horiz-adv-x="1542" 
d="M1075 848q-108 0 -174.5 -77t-81.5 -216h453q2 23 2 70q0 100 -52 161.5t-147 61.5zM217 449q119 78 436 104v12q0 152 -36 212.5t-125 60.5q-140 0 -306 -113l-57 98q180 156 391 156q100 0 160 -38t88 -120q120 162 319 162q168 0 258.5 -108t90.5 -279q0 -75 -17 -158
h-604q9 -159 84 -239t199 -80q145 0 272 51l41 -115q-166 -78 -340 -78q-104 0 -190.5 45t-141.5 130q-168 -175 -381 -175q-128 0 -200 62.5t-72 177.5q0 72 35.5 132.5t95.5 99.5zM381 106q160 0 309 146q-28 83 -31 184q-159 -14 -237 -32.5t-115 -45.5q-65 -43 -65 -120
q0 -64 35.5 -98t103.5 -34z" />
    <glyph glyph-name="ccedilla" unicode="&#xe7;" horiz-adv-x="913" 
d="M109 455q0 234 120 379t316 145q176 0 291 -143l-80 -95q-111 99 -224 99q-83 0 -149 -52q-111 -90 -111 -313q0 -179 73 -267.5t208 -88.5q105 0 238 51l36 -123q-140 -64 -270 -70l-41 -94h21q84 0 143 -37t59 -118q0 -98 -95 -164.5t-265 -93.5l-23 102
q226 45 226 147q0 37 -30 54.5t-77 17.5q-21 0 -63 -6l-39 51l65 150q-154 29 -241.5 152.5t-87.5 316.5z" />
    <glyph glyph-name="egrave" unicode="&#xe8;" horiz-adv-x="997" 
d="M109 459q0 147 52 265.5t151.5 188.5t230.5 70q167 0 256.5 -108t89.5 -279q0 -84 -15 -158h-604q9 -160 83.5 -239.5t199.5 -79.5q145 0 272 51l41 -115q-166 -78 -342 -78q-184 0 -299.5 126.5t-115.5 355.5zM530 848q-109 0 -175 -77.5t-81 -215.5h451q2 23 2 70
q0 100 -51 161.5t-146 61.5zM283 1380l100 107l311 -313l-78 -82l-333 278v10z" />
    <glyph glyph-name="eacute" unicode="&#xe9;" horiz-adv-x="997" 
d="M109 459q0 147 52 265.5t151.5 188.5t230.5 70q167 0 256.5 -108t89.5 -279q0 -84 -15 -158h-604q9 -160 83.5 -239.5t199.5 -79.5q145 0 272 51l41 -115q-166 -78 -342 -78q-184 0 -299.5 126.5t-115.5 355.5zM530 848q-109 0 -175 -77.5t-81 -215.5h451q2 23 2 70
q0 100 -51 161.5t-146 61.5zM375 1174l311 313l98 -107v-10l-331 -278z" />
    <glyph glyph-name="ecircumflex" unicode="&#xea;" horiz-adv-x="997" 
d="M109 459q0 147 52 265.5t151.5 188.5t230.5 70q167 0 256.5 -108t89.5 -279q0 -84 -15 -158h-604q9 -160 83.5 -239.5t199.5 -79.5q145 0 272 51l41 -115q-166 -78 -342 -78q-184 0 -299.5 126.5t-115.5 355.5zM530 848q-109 0 -175 -77.5t-81 -215.5h451q2 23 2 70
q0 100 -51 161.5t-146 61.5zM459 1464l119 6l245 -296l-86 -78l-219 233l-223 -233l-82 78z" />
    <glyph glyph-name="edieresis" unicode="&#xeb;" horiz-adv-x="997" 
d="M109 459q0 147 52 265.5t151.5 188.5t230.5 70q167 0 256.5 -108t89.5 -279q0 -84 -15 -158h-604q9 -160 83.5 -239.5t199.5 -79.5q145 0 272 51l41 -115q-166 -78 -342 -78q-184 0 -299.5 126.5t-115.5 355.5zM530 848q-109 0 -175 -77.5t-81 -215.5h451q2 23 2 70
q0 100 -51 161.5t-146 61.5zM602 1243q0 45 30 75t77 30q42 0 69 -25t27 -70q0 -46 -29 -76t-76 -30q-44 0 -71 25.5t-27 70.5zM238 1243q0 45 29.5 75t78.5 30q42 0 68 -25t26 -70q0 -47 -28 -76.5t-76 -29.5q-43 0 -70.5 25.5t-27.5 70.5z" />
    <glyph glyph-name="igrave" unicode="&#xec;" horiz-adv-x="487" 
d="M164 954l160 4v-958h-160v954zM10 1380l101 107l311 -313l-78 -82l-334 278v10z" />
    <glyph glyph-name="iacute" unicode="&#xed;" horiz-adv-x="487" 
d="M164 954l160 4v-958h-160v954zM102 1174l312 313l98 -107v-10l-332 -278z" />
    <glyph glyph-name="icircumflex" unicode="&#xee;" horiz-adv-x="487" 
d="M164 954l160 4v-958h-160v954zM188 1462l119 8l213 -299l-88 -71l-186 227l-189 -227l-84 71z" />
    <glyph glyph-name="idieresis" unicode="&#xef;" horiz-adv-x="487" 
d="M164 954l160 4v-958h-160v954zM293 1243q0 45 29.5 75t76.5 30q43 0 70 -25t27 -70q0 -47 -29 -76.5t-78 -29.5q-42 0 -69 25.5t-27 70.5zM-8 1243q0 45 29 75t77 30q43 0 70 -25t27 -70q0 -47 -29 -76.5t-78 -29.5q-42 0 -69 25.5t-27 70.5z" />
    <glyph glyph-name="eth" unicode="&#xf0;" horiz-adv-x="1091" 
d="M305 1458l62 105q139 -61 262 -166l215 127l61 -103l-190 -112q129 -149 190.5 -339t61.5 -399q0 -291 -119 -445.5t-316 -154.5q-192 0 -307.5 132t-115.5 341q0 96 26.5 185t78 163.5t137.5 119t194 44.5q72 0 122.5 -22.5t100.5 -69.5h4q-55 216 -186 367l-283 -166
l-59 104l254 150q-78 72 -193 139zM543 111q132 0 198 112t66 307v23q-11 129 -88 199.5t-184 70.5q-101 0 -164 -63q-47 -46 -73 -123.5t-26 -171.5q0 -158 69.5 -256t201.5 -98z" />
    <glyph glyph-name="ntilde" unicode="&#xf1;" horiz-adv-x="1091" 
d="M150 952l135 19l26 -133q153 147 340 147q153 0 219 -83.5t66 -250.5v-651h-162v590q0 135 -34 195.5t-126 60.5q-140 0 -286 -123v-723h-162v582q0 138 -16 370zM670 1247q66 0 125 133l98 -47q-37 -106 -95.5 -163.5t-129.5 -57.5q-42 0 -78 21t-57.5 45.5t-48 45.5
t-50.5 21q-18 0 -34 -9.5t-33.5 -31.5t-29 -39.5t-32.5 -52.5l-96 51q39 102 98 158.5t131 56.5q34 0 63 -13.5t50 -33t39.5 -38.5t39 -32.5t40.5 -13.5z" />
    <glyph glyph-name="ograve" unicode="&#xf2;" horiz-adv-x="1067" 
d="M109 461q0 77 17 152t52.5 142.5t86.5 118.5t123.5 81t158.5 30q190 0 302 -137.5t112 -353.5q0 -99 -28 -191t-80.5 -167t-138 -120t-192.5 -45q-189 0 -301 136.5t-112 353.5zM795 469q0 170 -69 273.5t-196 103.5q-97 0 -165 -64q-93 -103 -93 -299
q0 -169 69.5 -270.5t197.5 -101.5q105 0 166 65q90 96 90 293zM301 1380l100 107l312 -313l-78 -82l-334 278v10z" />
    <glyph glyph-name="oacute" unicode="&#xf3;" horiz-adv-x="1067" 
d="M109 461q0 77 17 152t52.5 142.5t86.5 118.5t123.5 81t158.5 30q190 0 302 -137.5t112 -353.5q0 -99 -28 -191t-80.5 -167t-138 -120t-192.5 -45q-189 0 -301 136.5t-112 353.5zM795 469q0 170 -69 273.5t-196 103.5q-97 0 -165 -64q-93 -103 -93 -299
q0 -169 69.5 -270.5t197.5 -101.5q105 0 166 65q90 96 90 293zM393 1174l312 313l98 -107v-10l-332 -278z" />
    <glyph glyph-name="ocircumflex" unicode="&#xf4;" horiz-adv-x="1067" 
d="M109 461q0 77 17 152t52.5 142.5t86.5 118.5t123.5 81t158.5 30q190 0 302 -137.5t112 -353.5q0 -99 -28 -191t-80.5 -167t-138 -120t-192.5 -45q-189 0 -301 136.5t-112 353.5zM795 469q0 170 -69 273.5t-196 103.5q-97 0 -165 -64q-93 -103 -93 -299
q0 -169 69.5 -270.5t197.5 -101.5q105 0 166 65q90 96 90 293zM477 1464l119 6l246 -296l-86 -78l-219 233l-224 -233l-82 78z" />
    <glyph glyph-name="otilde" unicode="&#xf5;" horiz-adv-x="1067" 
d="M109 461q0 77 17 152t52.5 142.5t86.5 118.5t123.5 81t158.5 30q190 0 302 -137.5t112 -353.5q0 -99 -28 -191t-80.5 -167t-138 -120t-192.5 -45q-189 0 -301 136.5t-112 353.5zM795 469q0 170 -69 273.5t-196 103.5q-97 0 -165 -64q-93 -103 -93 -299
q0 -169 69.5 -270.5t197.5 -101.5q105 0 166 65q90 96 90 293zM655 1247q66 0 125 133l99 -47q-37 -105 -96 -163t-130 -58q-42 0 -78 21t-57 45.5t-47.5 45.5t-50.5 21q-18 0 -34 -9.5t-33.5 -31.5t-29 -39.5t-32.5 -52.5l-96 51q39 102 98 158.5t131 56.5q41 0 76.5 -20.5
t56.5 -45t47.5 -45t50.5 -20.5z" />
    <glyph glyph-name="odieresis" unicode="&#xf6;" horiz-adv-x="1067" 
d="M109 461q0 77 17 152t52.5 142.5t86.5 118.5t123.5 81t158.5 30q190 0 302 -137.5t112 -353.5q0 -99 -28 -191t-80.5 -167t-138 -120t-192.5 -45q-189 0 -301 136.5t-112 353.5zM795 469q0 170 -69 273.5t-196 103.5q-97 0 -165 -64q-93 -103 -93 -299
q0 -169 69.5 -270.5t197.5 -101.5q105 0 166 65q90 96 90 293zM621 1243q0 45 29.5 75t76.5 30q42 0 69 -25t27 -70q0 -46 -28.5 -76t-75.5 -30q-44 0 -71 25.5t-27 70.5zM256 1243q0 45 30 75t79 30q42 0 68 -25t26 -70q0 -47 -28 -76.5t-77 -29.5q-43 0 -70.5 25.5
t-27.5 70.5z" />
    <glyph glyph-name="divide" unicode="&#xf7;" 
d="M172 594h784v-131h-784v131zM465 201q0 45 28.5 73.5t73.5 28.5q42 0 69.5 -25t27.5 -67q0 -47 -28.5 -78t-72.5 -31q-41 0 -69.5 28t-28.5 71zM465 848q0 46 29 75t73 29q42 0 70.5 -26t28.5 -68q0 -47 -29.5 -76.5t-75.5 -29.5q-42 0 -69 27t-27 69z" />
    <glyph glyph-name="oslash" unicode="&#xf8;" horiz-adv-x="1067" 
d="M109 461q0 77 17 152t52.5 142.5t86.5 118.5t123.5 81t158.5 30q73 0 149 -27l62 132l104 -54l-65 -137q78 -65 121 -170t43 -235q0 -99 -28 -191t-80.5 -167t-138 -120t-192.5 -45q-77 0 -153 29l-62 -131l-102 49l65 139q-77 65 -119 169.5t-42 234.5zM272 483
q0 -169 70 -272l291 612q-51 23 -103 23q-97 0 -165 -64q-93 -103 -93 -299zM795 469q0 172 -72 276l-291 -612q49 -22 107 -22q105 0 166 65q90 96 90 293z" />
    <glyph glyph-name="ugrave" unicode="&#xf9;" horiz-adv-x="1075" 
d="M156 954l159 4v-596q0 -132 39 -191.5t125 -59.5q122 0 269 131v714h161v-577q0 -103 17 -369l-133 -18l-29 129q-150 -150 -324 -150q-284 0 -284 334v649zM293 1380l100 107l312 -313l-78 -82l-334 278v10z" />
    <glyph glyph-name="uacute" unicode="&#xfa;" horiz-adv-x="1075" 
d="M156 954l159 4v-596q0 -132 39 -191.5t125 -59.5q122 0 269 131v714h161v-577q0 -103 17 -369l-133 -18l-29 129q-150 -150 -324 -150q-284 0 -284 334v649zM385 1174l311 313l99 -107v-10l-332 -278z" />
    <glyph glyph-name="ucircumflex" unicode="&#xfb;" horiz-adv-x="1075" 
d="M156 954l159 4v-596q0 -132 39 -191.5t125 -59.5q122 0 269 131v714h161v-577q0 -103 17 -369l-133 -18l-29 129q-150 -150 -324 -150q-284 0 -284 334v649zM469 1464l119 6l246 -296l-86 -78l-220 233l-223 -233l-82 78z" />
    <glyph glyph-name="udieresis" unicode="&#xfc;" horiz-adv-x="1075" 
d="M156 954l159 4v-596q0 -132 39 -191.5t125 -59.5q122 0 269 131v714h161v-577q0 -103 17 -369l-133 -18l-29 129q-150 -150 -324 -150q-284 0 -284 334v649zM612 1243q0 45 30 75t77 30q42 0 69 -25t27 -70q0 -46 -28.5 -76t-75.5 -30q-44 0 -71.5 25.5t-27.5 70.5z
M248 1243q0 45 29.5 75t78.5 30q42 0 68.5 -25t26.5 -70q0 -47 -28 -76.5t-77 -29.5q-43 0 -70.5 25.5t-27.5 70.5z" />
    <glyph glyph-name="yacute" unicode="&#xfd;" horiz-adv-x="980" 
d="M764 956h154q0 -44 -19 -90l-346 -938q-92 -229 -194 -331.5t-228 -102.5q-51 0 -86 6v129q132 0 222 87t169 284h-33l-315 866q-18 46 -18 90h163l205 -598q33 -94 49 -182h9zM356 1174l312 313l98 -107v-10l-332 -278z" />
    <glyph glyph-name="thorn" unicode="&#xfe;" horiz-adv-x="1085" 
d="M535 109q114 0 180 63q96 93 96 305q0 165 -60 267t-173 102q-117 0 -254 -121v-559q99 -57 211 -57zM164 1534l160 4v-680q134 127 278 127q165 0 270 -136t105 -341q0 -101 -28 -195.5t-80.5 -171.5t-136.5 -123.5t-187 -46.5q-112 0 -221 66v-529h-160v2026z" />
    <glyph glyph-name="ydieresis" unicode="&#xff;" horiz-adv-x="980" 
d="M764 956h154q0 -44 -19 -90l-346 -938q-92 -229 -194 -331.5t-228 -102.5q-51 0 -86 6v129q132 0 222 87t169 284h-33l-315 866q-18 46 -18 90h163l205 -598q33 -94 49 -182h9zM584 1243q0 45 29.5 75t76.5 30q42 0 69 -25t27 -70q0 -46 -28.5 -76t-75.5 -30
q-44 0 -71 25.5t-27 70.5zM219 1243q0 45 30 75t79 30q42 0 68 -25t26 -70q0 -47 -28 -76.5t-77 -29.5q-43 0 -70.5 25.5t-27.5 70.5z" />
    <glyph glyph-name="Amacron" unicode="&#x100;" horiz-adv-x="1196" 
d="M600 1169l-217 -645h426l-117 353l-86 292h-6zM510 1368l184 8l408 -1233q30 -93 41 -143h-162l-127 383h-520l-129 -383h-164q19 78 43 143zM348 1679h500v-127h-500v127z" />
    <glyph glyph-name="amacron" unicode="&#x101;" horiz-adv-x="972" 
d="M127 823q180 156 393 156q154 0 224.5 -87t70.5 -276v-245q0 -129 16 -361l-135 -20l-26 131q-163 -144 -334 -144q-115 0 -182.5 65t-67.5 175q0 72 35 132.5t96 99.5q117 76 438 102v14q0 152 -36.5 212.5t-126.5 60.5q-142 0 -306 -115zM369 106q134 0 286 134v192
q-269 -21 -350 -72q-61 -46 -61 -124q0 -62 33 -96t92 -34zM221 1276h512v-125h-512v125z" />
    <glyph glyph-name="Abreve" unicode="&#x102;" horiz-adv-x="1196" 
d="M600 1169l-217 -645h426l-117 353l-86 292h-6zM510 1368l184 8l408 -1233q30 -93 41 -143h-162l-127 383h-520l-129 -383h-164q19 78 43 143zM885 1763q-33 -115 -109.5 -175t-179.5 -60q-219 0 -285 233l103 45q29 -74 73.5 -107.5t110.5 -33.5q133 0 188 141z" />
    <glyph glyph-name="abreve" unicode="&#x103;" horiz-adv-x="972" 
d="M127 823q180 156 393 156q154 0 224.5 -87t70.5 -276v-245q0 -129 16 -361l-135 -20l-26 131q-163 -144 -334 -144q-115 0 -182.5 65t-67.5 175q0 72 35 132.5t96 99.5q117 76 438 102v14q0 152 -36.5 212.5t-126.5 60.5q-142 0 -306 -115zM369 106q134 0 286 134v192
q-269 -21 -350 -72q-61 -46 -61 -124q0 -62 33 -96t92 -34zM481 1243q70 0 117.5 46t60.5 141l109 -13q-12 -150 -88.5 -228.5t-206.5 -78.5q-127 0 -194.5 76.5t-85.5 230.5l112 13q29 -187 176 -187z" />
    <glyph glyph-name="Aogonek" unicode="&#x104;" horiz-adv-x="1196" 
d="M510 1368l184 8l408 -1233q30 -93 41 -143q-112 -63 -168.5 -124.5t-56.5 -131.5q0 -47 28 -75.5t84 -28.5q49 0 123 26l35 -112q-102 -48 -203 -48q-105 0 -165 56t-60 151q0 156 176 283l37 27l-119 360h-520l-129 -383h-164q19 78 43 143zM600 1169l-217 -645h426
l-117 353l-86 292h-6z" />
    <glyph glyph-name="aogonek" unicode="&#x105;" horiz-adv-x="972" 
d="M127 823q180 156 393 156q154 0 224.5 -87t70.5 -276v-245q0 -144 16 -408q-99 -45 -151.5 -97.5t-52.5 -103.5q0 -44 26.5 -69t77.5 -25q53 0 125 29l37 -113q-101 -49 -205 -49q-101 0 -160 51.5t-59 139.5q0 145 219 274l-20 121q-163 -144 -332 -144
q-115 0 -182.5 65t-67.5 175q0 72 35 132.5t96 99.5q117 76 438 102v14q0 152 -36.5 212.5t-126.5 60.5q-142 0 -306 -115zM369 106q134 0 286 134v192q-269 -21 -350 -72q-61 -46 -61 -124q0 -62 33 -96t92 -34z" />
    <glyph glyph-name="Cacute" unicode="&#x106;" horiz-adv-x="1181" 
d="M115 659q0 113 23 219t72.5 200.5t120.5 164.5t174 111t226 41q212 0 365 -105l-64 -127q-150 84 -303 84q-177 0 -287 -110q-155 -163 -155 -463q0 -88 14 -165.5t47.5 -149t83.5 -122.5t127 -81.5t174 -30.5q158 0 324 76l49 -127q-189 -97 -393 -97q-146 0 -261.5 53
t-188.5 146.5t-110.5 216t-37.5 266.5zM520 1632l426 174l49 -139l-2 -8l-436 -137z" />
    <glyph glyph-name="cacute" unicode="&#x107;" horiz-adv-x="913" 
d="M109 455q0 234 120 379t316 145q176 0 291 -143l-80 -95q-111 99 -224 99q-83 0 -149 -52q-111 -90 -111 -313q0 -179 73 -267.5t208 -88.5q105 0 238 51l36 -123q-156 -70 -297 -70q-195 0 -308 128.5t-113 349.5zM381 1174l311 313l99 -107v-10l-332 -278z" />
    <glyph glyph-name="Ccircumflex" unicode="&#x108;" horiz-adv-x="1181" 
d="M115 659q0 113 23 219t72.5 200.5t120.5 164.5t174 111t226 41q212 0 365 -105l-64 -127q-150 84 -303 84q-177 0 -287 -110q-155 -163 -155 -463q0 -88 14 -165.5t47.5 -149t83.5 -122.5t127 -81.5t174 -30.5q158 0 324 76l49 -127q-189 -97 -393 -97q-146 0 -261.5 53
t-188.5 146.5t-110.5 216t-37.5 266.5zM641 1808l115 9l260 -220l-72 -92l-246 178l-243 -176l-70 95z" />
    <glyph glyph-name="ccircumflex" unicode="&#x109;" horiz-adv-x="913" 
d="M109 455q0 234 120 379t316 145q176 0 291 -143l-80 -95q-111 99 -224 99q-83 0 -149 -52q-111 -90 -111 -313q0 -179 73 -267.5t208 -88.5q105 0 238 51l36 -123q-156 -70 -297 -70q-195 0 -308 128.5t-113 349.5zM465 1464l119 6l245 -296l-86 -78l-219 233l-223 -233
l-82 78z" />
    <glyph glyph-name="Cdotaccent" unicode="&#x10a;" horiz-adv-x="1181" 
d="M115 659q0 113 23 219t72.5 200.5t120.5 164.5t174 111t226 41q212 0 365 -105l-64 -127q-150 84 -303 84q-177 0 -287 -110q-155 -163 -155 -463q0 -88 14 -165.5t47.5 -149t83.5 -122.5t127 -81.5t174 -30.5q158 0 324 76l49 -127q-189 -97 -393 -97q-146 0 -261.5 53
t-188.5 146.5t-110.5 216t-37.5 266.5zM594 1645q0 51 31 82.5t82 31.5q46 0 73 -28t27 -74q0 -50 -30 -80.5t-81 -30.5q-46 0 -74 27.5t-28 71.5z" />
    <glyph glyph-name="cdotaccent" unicode="&#x10b;" horiz-adv-x="913" 
d="M109 455q0 234 120 379t316 145q176 0 291 -143l-80 -95q-111 99 -224 99q-83 0 -149 -52q-111 -90 -111 -313q0 -179 73 -267.5t208 -88.5q105 0 238 51l36 -123q-156 -70 -297 -70q-195 0 -308 128.5t-113 349.5zM414 1247q0 53 32 85t84 32q47 0 76 -28.5t29 -75.5
q0 -51 -31.5 -82t-83.5 -31q-48 0 -77 27.5t-29 72.5z" />
    <glyph glyph-name="Ccaron" unicode="&#x10c;" horiz-adv-x="1181" 
d="M115 659q0 113 23 219t72.5 200.5t120.5 164.5t174 111t226 41q212 0 365 -105l-64 -127q-150 84 -303 84q-177 0 -287 -110q-155 -163 -155 -463q0 -88 14 -165.5t47.5 -149t83.5 -122.5t127 -81.5t174 -30.5q158 0 324 76l49 -127q-189 -97 -393 -97q-146 0 -261.5 53
t-188.5 146.5t-110.5 216t-37.5 266.5zM385 1735l72 92l245 -178l244 176l70 -94l-256 -207l-115 -8z" />
    <glyph glyph-name="ccaron" unicode="&#x10d;" horiz-adv-x="913" 
d="M109 455q0 234 120 379t316 145q176 0 291 -143l-80 -95q-111 99 -224 99q-83 0 -149 -52q-111 -90 -111 -313q0 -179 73 -267.5t208 -88.5q105 0 238 51l36 -123q-156 -70 -297 -70q-195 0 -308 128.5t-113 349.5zM467 1106l-244 297l84 80l219 -234l224 234l81 -80
l-245 -289z" />
    <glyph glyph-name="Dcaron" unicode="&#x10e;" horiz-adv-x="1347" 
d="M193 1362q226 33 399 33q296 0 469.5 -187t173.5 -497q0 -213 -83 -379.5t-236 -260.5t-351 -94q-203 0 -372 31v1354zM565 125q156 0 256 68q119 78 181.5 211.5t60.5 293.5q-2 252 -128 400.5t-351 148.5q-112 0 -230 -16v-1094q88 -12 211 -12zM315 1735l72 92
l246 -178l244 176l69 -94l-256 -207l-115 -8z" />
    <glyph glyph-name="dcaron" unicode="&#x10f;" horiz-adv-x="1093" 
d="M502 111q116 0 258 135v545q-99 55 -211 55q-116 0 -178 -62q-97 -97 -97 -305q0 -165 59.5 -266.5t168.5 -101.5zM109 446q-1 80 15.5 156.5t52.5 146t86.5 122t123 83.5t158.5 31q112 0 215 -67v616l162 4v-1190q0 -123 16 -338l-135 -18l-27 131q-145 -152 -301 -152
q-159 0 -262.5 135.5t-103.5 339.5zM1044 1542l148 4l6 -6l-37 -422h-117v424z" />
    <glyph glyph-name="Dcroat" unicode="&#x110;" horiz-adv-x="1361" 
d="M205 1362q229 33 399 33q297 0 470 -187t173 -497q0 -213 -82 -379.5t-234.5 -260.5t-350.5 -94q-203 0 -375 31v629h-152v131h152v594zM578 125q154 0 258 68q118 78 179.5 211t61.5 294q-2 252 -128 400.5t-353 148.5q-109 0 -227 -16v-463h329v-131h-329v-500
q88 -12 209 -12z" />
    <glyph glyph-name="dcroat" unicode="&#x111;" horiz-adv-x="1091" 
d="M500 111q113 0 264 137v514q-97 57 -219 57q-113 0 -176 -63q-95 -95 -95 -285q0 -164 59 -262t167 -98zM109 438q-1 97 26.5 187.5t79.5 165.5t137 120t191 45q115 0 221 -67v287h-406v127h406v231l160 4v-235h176v-127h-176v-828q0 -94 18 -338l-135 -18l-29 135
q-153 -156 -307 -156q-157 0 -259.5 132.5t-102.5 334.5z" />
    <glyph glyph-name="Emacron" unicode="&#x112;" horiz-adv-x="1085" 
d="M193 1372h782l-6 -141h-615v-457h500v-143h-500v-490h621l4 -141h-786v1372zM340 1679h500v-127h-500v127z" />
    <glyph glyph-name="emacron" unicode="&#x113;" horiz-adv-x="997" 
d="M109 459q0 147 52 265.5t151.5 188.5t230.5 70q167 0 256.5 -108t89.5 -279q0 -84 -15 -158h-604q9 -160 83.5 -239.5t199.5 -79.5q145 0 272 51l41 -115q-166 -78 -342 -78q-184 0 -299.5 126.5t-115.5 355.5zM530 848q-109 0 -175 -77.5t-81 -215.5h451q2 23 2 70
q0 100 -51 161.5t-146 61.5zM262 1276h512v-125h-512v125z" />
    <glyph glyph-name="Ebreve" unicode="&#x114;" horiz-adv-x="1085" 
d="M193 1372h782l-6 -141h-615v-457h500v-143h-500v-490h621l4 -141h-786v1372zM877 1763q-33 -115 -109.5 -175t-179.5 -60q-219 0 -285 233l103 45q29 -74 73.5 -107.5t110.5 -33.5q133 0 188 141z" />
    <glyph glyph-name="ebreve" unicode="&#x115;" horiz-adv-x="997" 
d="M109 459q0 147 52 265.5t151.5 188.5t230.5 70q167 0 256.5 -108t89.5 -279q0 -84 -15 -158h-604q9 -160 83.5 -239.5t199.5 -79.5q145 0 272 51l41 -115q-166 -78 -342 -78q-184 0 -299.5 126.5t-115.5 355.5zM530 848q-109 0 -175 -77.5t-81 -215.5h451q2 23 2 70
q0 100 -51 161.5t-146 61.5zM522 1243q70 0 117.5 46t60.5 141l109 -13q-12 -150 -88.5 -228.5t-206.5 -78.5q-127 0 -195 77t-86 230l113 13q29 -187 176 -187z" />
    <glyph glyph-name="Edotaccent" unicode="&#x116;" horiz-adv-x="1085" 
d="M193 1372h782l-6 -141h-615v-457h500v-143h-500v-490h621l4 -141h-786v1372zM483 1645q0 51 31 82.5t82 31.5q46 0 73 -28t27 -74q0 -50 -29.5 -80.5t-80.5 -30.5q-46 0 -74.5 27.5t-28.5 71.5z" />
    <glyph glyph-name="edotaccent" unicode="&#x117;" horiz-adv-x="997" 
d="M109 459q0 147 52 265.5t151.5 188.5t230.5 70q167 0 256.5 -108t89.5 -279q0 -84 -15 -158h-604q9 -160 83.5 -239.5t199.5 -79.5q145 0 272 51l41 -115q-166 -78 -342 -78q-184 0 -299.5 126.5t-115.5 355.5zM530 848q-109 0 -175 -77.5t-81 -215.5h451q2 23 2 70
q0 100 -51 161.5t-146 61.5zM408 1247q0 53 32 85t84 32q47 0 76 -28.5t29 -75.5q0 -51 -31.5 -82t-83.5 -31q-48 0 -77 27.5t-29 72.5z" />
    <glyph glyph-name="Eogonek" unicode="&#x118;" horiz-adv-x="1085" 
d="M193 1372h782l-6 -141h-615v-457h500v-143h-500v-490h621l4 -141q-113 -65 -168 -125t-55 -129q0 -48 27 -77t83 -29q49 0 123 26l35 -112q-102 -48 -203 -48q-105 0 -165 56t-60 149q0 88 54.5 155.5t162.5 129.5v4h-620v1372z" />
    <glyph glyph-name="eogonek" unicode="&#x119;" horiz-adv-x="997" 
d="M109 459q0 147 52 265.5t151.5 188.5t230.5 70q167 0 256.5 -108t89.5 -279q0 -84 -15 -158h-604q9 -160 83.5 -239.5t199.5 -79.5q145 0 272 51l41 -115q-135 -74 -202.5 -141t-67.5 -143q0 -103 113 -103q46 0 125 29l38 -113q-112 -49 -208 -49q-105 0 -164.5 53.5
t-59.5 143.5q0 136 164 248v2q-68 -5 -80 -5q-184 0 -299.5 126.5t-115.5 355.5zM530 848q-109 0 -175.5 -77t-80.5 -216h451q2 23 2 70q0 100 -51 161.5t-146 61.5z" />
    <glyph glyph-name="Ecaron" unicode="&#x11a;" horiz-adv-x="1085" 
d="M193 1372h782l-6 -141h-615v-457h500v-143h-500v-490h621l4 -141h-786v1372zM274 1735l72 92l246 -178l244 176l69 -94l-256 -207l-114 -8z" />
    <glyph glyph-name="ecaron" unicode="&#x11b;" horiz-adv-x="997" 
d="M109 459q0 147 52 265.5t151.5 188.5t230.5 70q167 0 256.5 -108t89.5 -279q0 -84 -15 -158h-604q9 -160 83.5 -239.5t199.5 -79.5q145 0 272 51l41 -115q-166 -78 -342 -78q-184 0 -299.5 126.5t-115.5 355.5zM530 848q-109 0 -175 -77.5t-81 -215.5h451q2 23 2 70
q0 100 -51 161.5t-146 61.5zM461 1106l-244 297l84 80l219 -234l223 234l82 -80l-245 -289z" />
    <glyph glyph-name="Gcircumflex" unicode="&#x11c;" horiz-adv-x="1259" 
d="M115 653q0 146 39.5 277t115 236t199 167t279.5 62q198 0 362 -105l-63 -129q-157 88 -310 88q-175 0 -288 -116q-162 -156 -162 -461q0 -87 14 -164.5t48 -148.5t84.5 -122t129 -81.5t176.5 -30.5q118 0 228 35v385h-318v141h477v-610q-196 -99 -399 -99
q-124 0 -225.5 34.5t-172.5 96t-119.5 146.5t-71.5 185t-23 214zM639 1808l115 9l260 -220l-72 -92l-246 178l-243 -176l-70 95z" />
    <glyph glyph-name="gcircumflex" unicode="&#x11d;" horiz-adv-x="1013" 
d="M201 152q0 92 86 178q-86 40 -132 117.5t-46 173.5q0 69 23.5 132t69 114t120 81.5t167.5 30.5q116 0 203 -49q111 106 258 114l6 -139q-87 -9 -182 -43q80 -89 80 -219q0 -151 -102.5 -250.5t-282.5 -99.5q-45 0 -82 6q-37 -43 -37 -92q0 -25 9.5 -42.5t24.5 -27.5
t43.5 -16t55 -7.5t70.5 -2.5q383 -6 383 -271q0 -165 -135 -262.5t-344 -97.5q-178 0 -289.5 78t-110.5 213q0 161 174 282q-30 42 -30 99zM481 -387q162 0 238 65q67 58 67 142q0 38 -14.5 66t-38 44t-62 26t-78 13t-95.5 4q-106 0 -170 21q-121 -88 -121 -205
q0 -87 73.5 -131.5t200.5 -44.5zM698 631q0 104 -55.5 162.5t-163.5 58.5q-99 0 -158 -57t-59 -156q0 -104 54.5 -162.5t164.5 -58.5q99 0 158 55.5t59 157.5zM420 1464l119 6l245 -296l-86 -78l-219 233l-223 -233l-82 78z" />
    <glyph glyph-name="Gbreve" unicode="&#x11e;" horiz-adv-x="1259" 
d="M115 653q0 146 39.5 277t115 236t199 167t279.5 62q198 0 362 -105l-63 -129q-157 88 -310 88q-175 0 -288 -116q-162 -156 -162 -461q0 -87 14 -164.5t48 -148.5t84.5 -122t129 -81.5t176.5 -30.5q118 0 228 35v385h-318v141h477v-610q-196 -99 -399 -99
q-124 0 -225.5 34.5t-172.5 96t-119.5 146.5t-71.5 185t-23 214zM985 1763q-33 -115 -109.5 -175t-179.5 -60q-218 0 -284 233l102 45q29 -74 73.5 -107.5t110.5 -33.5q134 0 189 141z" />
    <glyph glyph-name="gbreve" unicode="&#x11f;" horiz-adv-x="1013" 
d="M201 152q0 92 86 178q-86 40 -132 117.5t-46 173.5q0 69 23.5 132t69 114t120 81.5t167.5 30.5q116 0 203 -49q111 106 258 114l6 -139q-87 -9 -182 -43q80 -89 80 -219q0 -151 -102.5 -250.5t-282.5 -99.5q-45 0 -82 6q-37 -43 -37 -92q0 -25 9.5 -42.5t24.5 -27.5
t43.5 -16t55 -7.5t70.5 -2.5q383 -6 383 -271q0 -165 -135 -262.5t-344 -97.5q-178 0 -289.5 78t-110.5 213q0 161 174 282q-30 42 -30 99zM481 -387q162 0 238 65q67 58 67 142q0 38 -14.5 66t-38 44t-62 26t-78 13t-95.5 4q-106 0 -170 21q-121 -88 -121 -205
q0 -87 73.5 -131.5t200.5 -44.5zM698 631q0 104 -55.5 162.5t-163.5 58.5q-99 0 -158 -57t-59 -156q0 -104 54.5 -162.5t164.5 -58.5q99 0 158 55.5t59 157.5zM483 1243q70 0 118 46t61 141l108 -13q-12 -150 -88.5 -228.5t-206.5 -78.5q-127 0 -194.5 76.5t-85.5 230.5
l112 13q29 -187 176 -187z" />
    <glyph glyph-name="Gdotaccent" unicode="&#x120;" horiz-adv-x="1259" 
d="M115 653q0 146 39.5 277t115 236t199 167t279.5 62q198 0 362 -105l-63 -129q-157 88 -310 88q-175 0 -288 -116q-162 -156 -162 -461q0 -87 14 -164.5t48 -148.5t84.5 -122t129 -81.5t176.5 -30.5q118 0 228 35v385h-318v141h477v-610q-196 -99 -399 -99
q-124 0 -225.5 34.5t-172.5 96t-119.5 146.5t-71.5 185t-23 214zM592 1645q0 51 31 82.5t82 31.5q46 0 73 -28t27 -74q0 -50 -30 -80.5t-81 -30.5q-46 0 -74 27.5t-28 71.5z" />
    <glyph glyph-name="gdotaccent" unicode="&#x121;" horiz-adv-x="1013" 
d="M201 152q0 92 86 178q-86 40 -132 117.5t-46 173.5q0 69 23.5 132t69 114t120 81.5t167.5 30.5q116 0 203 -49q111 106 258 114l6 -139q-87 -9 -182 -43q80 -89 80 -219q0 -151 -102.5 -250.5t-282.5 -99.5q-45 0 -82 6q-37 -43 -37 -92q0 -25 9.5 -42.5t24.5 -27.5
t43.5 -16t55 -7.5t70.5 -2.5q383 -6 383 -271q0 -165 -135 -262.5t-344 -97.5q-178 0 -289.5 78t-110.5 213q0 161 174 282q-30 42 -30 99zM481 -387q162 0 238 65q67 58 67 142q0 38 -14.5 66t-38 44t-62 26t-78 13t-95.5 4q-106 0 -170 21q-121 -88 -121 -205
q0 -87 73.5 -131.5t200.5 -44.5zM698 631q0 104 -55.5 162.5t-163.5 58.5q-99 0 -158 -57t-59 -156q0 -104 54.5 -162.5t164.5 -58.5q99 0 158 55.5t59 157.5zM369 1247q0 53 32 85t84 32q47 0 76 -28.5t29 -75.5q0 -51 -31.5 -82t-83.5 -31q-48 0 -77 27.5t-29 72.5z" />
    <glyph glyph-name="uni0122" unicode="&#x122;" horiz-adv-x="1259" 
d="M115 653q0 146 39.5 277t115 236t199 167t279.5 62q198 0 362 -105l-63 -129q-157 88 -310 88q-175 0 -288 -116q-162 -156 -162 -461q0 -87 14 -164.5t48 -148.5t84.5 -122t129 -81.5t176.5 -30.5q118 0 228 35v385h-318v141h477v-610q-196 -99 -399 -99
q-124 0 -225.5 34.5t-172.5 96t-119.5 146.5t-71.5 185t-23 214zM657 -147l140 14q10 -58 10 -109q0 -87 -29.5 -163t-75.5 -127l-94 53q54 103 54 223q0 12 -5 109z" />
    <glyph glyph-name="uni0123" unicode="&#x123;" horiz-adv-x="1013" 
d="M201 152q0 92 86 178q-86 40 -132 117.5t-46 173.5q0 69 23.5 132t69 114t120 81.5t167.5 30.5q116 0 203 -49q111 106 258 114l6 -139q-87 -9 -182 -43q80 -89 80 -219q0 -151 -102.5 -250.5t-282.5 -99.5q-45 0 -82 6q-37 -43 -37 -92q0 -25 9.5 -42.5t24.5 -27.5
t43.5 -16t55 -7.5t70.5 -2.5q383 -6 383 -271q0 -165 -135 -262.5t-344 -97.5q-178 0 -289.5 78t-110.5 213q0 161 174 282q-30 42 -30 99zM481 -387q162 0 238 65q67 58 67 142q0 38 -14.5 66t-38 44t-62 26t-78 13t-95.5 4q-106 0 -170 21q-121 -88 -121 -205
q0 -87 73.5 -131.5t200.5 -44.5zM698 631q0 104 -55.5 162.5t-163.5 58.5q-99 0 -158 -57t-59 -156q0 -104 54.5 -162.5t164.5 -58.5q99 0 158 55.5t59 157.5zM412 1231q0 84 27.5 161.5t76.5 131.5l94 -54q-53 -106 -53 -221q0 -51 6 -112l-141 -15q-10 58 -10 109z" />
    <glyph glyph-name="Hcircumflex" unicode="&#x124;" horiz-adv-x="1361" 
d="M1008 1372h163v-1372h-163v629h-654v-629h-161v1372h161v-602h654v602zM623 1808l114 9l260 -220l-71 -92l-246 178l-244 -176l-69 95z" />
    <glyph glyph-name="hcircumflex" unicode="&#x125;" horiz-adv-x="1089" 
d="M164 1534l160 4v-670q151 117 327 117q149 0 216 -84.5t67 -249.5v-651h-162v592q0 134 -35 193t-127 59q-140 0 -286 -99v-745h-160v1534zM215 1972l115 8l260 -219l-72 -92l-246 178l-243 -176l-70 94z" />
    <glyph glyph-name="Hbar" unicode="&#x126;" horiz-adv-x="1390" 
d="M1020 1372h164v-242h147v-133h-147v-997h-164v598h-651v-598h-164v997h-148v133h148v242h164v-242h651v242zM1020 743v254h-651v-254h651z" />
    <glyph glyph-name="hbar" unicode="&#x127;" horiz-adv-x="1103" 
d="M164 1534l160 4v-235h415v-127h-415v-349q157 129 342 129q149 0 215.5 -84t66.5 -249l-2 -623h-160v563q0 135 -34 193.5t-125 58.5q-157 0 -303 -108v-707h-160v1176h-176v127h176v231z" />
    <glyph glyph-name="Itilde" unicode="&#x128;" horiz-adv-x="546" 
d="M193 1372h161v-1372h-161v1372zM393 1651q61 0 127 139l101 -49q-90 -221 -230 -221q-42 0 -78 21t-57 45.5t-47.5 45.5t-50.5 21q-60 0 -131 -133l-97 51q43 102 102 158.5t130 56.5q34 0 63 -14t49.5 -34t39 -39.5t38.5 -33.5t41 -14z" />
    <glyph glyph-name="itilde" unicode="&#x129;" horiz-adv-x="487" 
d="M164 954l160 4v-958h-160v954zM338 1245q46 0 98 135l96 -41q-65 -225 -196 -225q-32 0 -61 20.5t-46.5 45t-37.5 45t-37 20.5q-25 0 -48.5 -33.5t-52.5 -99.5l-92 43q31 105 82 163t115 58q32 0 60.5 -20.5t45.5 -45t37 -45t37 -20.5z" />
    <glyph glyph-name="Imacron" unicode="&#x12a;" horiz-adv-x="546" 
d="M193 1372h161v-1372h-161v1372zM25 1679h499v-127h-499v127z" />
    <glyph glyph-name="imacron" unicode="&#x12b;" horiz-adv-x="487" 
d="M164 954l160 4v-958h-160v954zM35 1280h422v-129h-422v129z" />
    <glyph glyph-name="Ibreve" unicode="&#x12c;" horiz-adv-x="546" 
d="M193 1372h161v-1372h-161v1372zM561 1763q-33 -115 -109.5 -175t-179.5 -60q-218 0 -284 233l102 45q29 -74 73.5 -107.5t110.5 -33.5q134 0 189 141z" />
    <glyph glyph-name="ibreve" unicode="&#x12d;" horiz-adv-x="487" 
d="M164 954l160 4v-958h-160v954zM248 1245q63 0 99 49t56 148l103 -19q-9 -148 -79 -230.5t-187 -82.5q-109 0 -172.5 81.5t-77.5 231.5l112 19q32 -197 146 -197z" />
    <glyph glyph-name="Iogonek" unicode="&#x12e;" horiz-adv-x="546" 
d="M193 1372h161v-1372q-78 -67 -115.5 -123t-37.5 -113q0 -122 123 -122q58 0 145 32l39 -108q-120 -60 -223 -60q-107 0 -175.5 59.5t-68.5 160.5q0 146 152 278v1368z" />
    <glyph glyph-name="iogonek" unicode="&#x12f;" horiz-adv-x="487" 
d="M164 954l160 4v-960q-79 -57 -115.5 -109t-36.5 -112q0 -109 111 -109q53 0 129 29l37 -113q-104 -49 -209 -49q-103 0 -165.5 55t-62.5 148q0 140 152 268v948zM135 1247q0 53 32.5 85t84.5 32q47 0 75.5 -28.5t28.5 -75.5q0 -51 -31 -82t-83 -31q-48 0 -77.5 27.5
t-29.5 72.5z" />
    <glyph glyph-name="Idotaccent" unicode="&#x130;" horiz-adv-x="546" 
d="M193 1372h161v-1372h-161v1372zM168 1645q0 51 31 82.5t82 31.5q46 0 73 -28t27 -74q0 -50 -30 -80.5t-81 -30.5q-46 0 -74 27.5t-28 71.5z" />
    <glyph glyph-name="dotlessi" unicode="&#x131;" horiz-adv-x="487" 
d="M164 954l160 4v-958h-160v954z" />
    <glyph glyph-name="IJ" unicode="&#x132;" horiz-adv-x="1105" 
d="M193 1372h161v-1372h-161v1372zM752 1372h163v-1292q0 -263 -95 -396.5t-316 -148.5l-27 131q72 13 119.5 36t79 56t48 88.5t22.5 121t6 165.5v1239z" />
    <glyph glyph-name="ij" unicode="&#x133;" horiz-adv-x="976" 
d="M164 954l160 4v-958h-160v954zM135 1247q0 53 32.5 85t84.5 32q47 0 75.5 -28.5t28.5 -75.5q0 -51 -31 -82t-83 -31q-48 0 -77.5 27.5t-29.5 72.5zM651 954l162 4v-907q0 -191 -66.5 -316.5t-195.5 -226.5l-90 89q94 97 142 206t48 260v891zM618 1247q0 53 32 85t85 32
q47 0 76 -28.5t29 -75.5q0 -51 -31.5 -82t-83.5 -31q-48 0 -77.5 27.5t-29.5 72.5z" />
    <glyph glyph-name="Jcircumflex" unicode="&#x134;" horiz-adv-x="561" 
d="M207 1372h164v-1292q0 -263 -95.5 -396.5t-316.5 -148.5l-27 131q72 13 119.5 36t79 56t48 88.5t22.5 121t6 165.5v1239zM227 1808l115 9l260 -220l-72 -92l-245 178l-244 -176l-70 95z" />
    <glyph glyph-name="jcircumflex" unicode="&#x135;" horiz-adv-x="489" 
d="M164 954l162 4v-907q0 -131 -35 -235t-89.5 -172.5t-138.5 -135.5l-90 89q94 97 142.5 206t48.5 260v891zM184 1462l119 8l213 -299l-88 -71l-186 227l-189 -227l-84 71z" />
    <glyph glyph-name="uni0136" unicode="&#x136;" horiz-adv-x="1179" 
d="M950 1372h178q-7 -27 -49 -76l-458 -499l428 -660q58 -86 79 -137h-178l-440 678l-156 -170v-508h-161v1372h161v-661h4zM592 -147l139 14q10 -58 10 -109q0 -88 -29 -163.5t-75 -126.5l-94 53q53 101 53 223q0 31 -4 109z" />
    <glyph glyph-name="uni0137" unicode="&#x137;" horiz-adv-x="1009" 
d="M772 956h164q-6 -36 -47 -77l-311 -353l337 -438q38 -48 50 -88h-177l-313 416l-149 -160v-256h-162v1534l162 4v-1081zM504 -147l139 14q10 -58 10 -109q0 -87 -28.5 -163t-73.5 -127l-94 53q53 101 53 223q0 22 -3 62t-3 47z" />
    <glyph glyph-name="kgreenlandic" unicode="&#x138;" horiz-adv-x="1009" 
d="M772 956h164q-6 -36 -47 -77l-311 -353l337 -438q38 -48 50 -88h-177l-313 416l-151 -156v-260h-160v954l160 4v-503l125 141z" />
    <glyph glyph-name="Lacute" unicode="&#x139;" horiz-adv-x="995" 
d="M193 1372h161v-1231h586l6 -141h-753v1372zM84 1632l426 174l49 -139l-2 -8l-436 -137z" />
    <glyph glyph-name="lacute" unicode="&#x13a;" horiz-adv-x="528" 
d="M162 1534l160 4v-1329q0 -49 14 -70.5t45 -21.5q35 0 76 14l35 -121q-76 -33 -162 -33q-82 0 -125 48.5t-43 140.5v1368zM63 1796l426 174l50 -139l-2 -8l-437 -137z" />
    <glyph glyph-name="uni013B" unicode="&#x13b;" horiz-adv-x="995" 
d="M193 1372h161v-1231h586l6 -141h-753v1372zM526 -147l140 14q10 -58 10 -109q0 -87 -29.5 -163t-75.5 -127l-94 53q53 101 53 223q0 31 -4 109z" />
    <glyph glyph-name="uni013C" unicode="&#x13c;" horiz-adv-x="528" 
d="M162 1534l160 4v-1329q0 -49 14 -70.5t45 -21.5q35 0 76 14l35 -121q-76 -33 -162 -33q-82 0 -125 48.5t-43 140.5v1368zM276 -147l140 14q10 -58 10 -109q0 -87 -28.5 -163t-73.5 -127l-95 53q54 103 54 223q0 21 -3 58.5t-4 50.5z" />
    <glyph glyph-name="Lcaron" unicode="&#x13d;" horiz-adv-x="983" 
d="M193 1372h161v-1231h586l6 -141h-753v1372zM545 1425l147 5l6 -7l-36 -422h-117v424z" />
    <glyph glyph-name="lcaron" unicode="&#x13e;" horiz-adv-x="532" 
d="M162 1534l160 4v-1329q0 -49 14 -70.5t45 -21.5q35 0 76 14l35 -121q-76 -33 -162 -33q-82 0 -125 48.5t-43 140.5v1368zM446 1542l148 4l6 -6l-37 -422h-117v424z" />
    <glyph glyph-name="Ldot" unicode="&#x13f;" horiz-adv-x="1091" 
d="M193 1372h161v-1231h586l6 -141h-753v1372zM762 739q0 49 29 81t77 32q45 0 73 -29.5t28 -74.5q0 -52 -28 -84.5t-77 -32.5q-48 0 -75 31t-27 77z" />
    <glyph glyph-name="ldot" unicode="&#x140;" horiz-adv-x="716" 
d="M162 1534l160 4v-1329q0 -49 14 -70.5t45 -21.5q35 0 76 14l35 -121q-76 -33 -162 -33q-82 0 -125 48.5t-43 140.5v1368zM494 727q0 49 28 81t76 32q45 0 72.5 -30t27.5 -75q0 -52 -27.5 -84.5t-76.5 -32.5q-47 0 -73.5 31t-26.5 78z" />
    <glyph glyph-name="Lslash" unicode="&#x141;" horiz-adv-x="1048" 
d="M29 557l215 117v698h164v-608l346 188l63 -118l-409 -222v-471h583l6 -141h-753v522l-156 -84z" />
    <glyph glyph-name="lslash" unicode="&#x142;" horiz-adv-x="636" 
d="M236 1534l161 4v-610l176 110l64 -100v-8l-240 -150v-571q0 -49 13.5 -70.5t44.5 -21.5q34 0 77 14l33 -121q-76 -33 -159 -33q-82 0 -126 48.5t-44 140.5v512l-138 -86l-63 102v8l201 125v707z" />
    <glyph glyph-name="Nacute" unicode="&#x143;" horiz-adv-x="1388" 
d="M193 1372h186l577 -969l95 -194h2l-9 221v942h154v-1372h-190l-580 975l-90 180h-4l8 -190v-965h-149v1372zM535 1632l426 174l49 -139l-2 -8l-437 -137z" />
    <glyph glyph-name="nacute" unicode="&#x144;" horiz-adv-x="1091" 
d="M150 952l135 19l26 -133q153 147 340 147q153 0 219 -83.5t66 -250.5v-651h-162v590q0 135 -34 195.5t-126 60.5q-140 0 -286 -123v-723h-162v582q0 138 -16 370zM408 1174l311 313l98 -107v-10l-332 -278z" />
    <glyph glyph-name="uni0145" unicode="&#x145;" horiz-adv-x="1388" 
d="M193 1372h186l577 -969l95 -194h2l-9 221v942h154v-1372h-190l-580 975l-90 180h-4l8 -190v-965h-149v1372zM625 -147l139 14q10 -58 10 -109q0 -88 -29 -163.5t-75 -126.5l-95 53q54 103 54 223q0 31 -4 109z" />
    <glyph glyph-name="uni0146" unicode="&#x146;" horiz-adv-x="1091" 
d="M150 952l135 19l26 -133q153 147 340 147q153 0 219 -83.5t66 -250.5v-651h-162v590q0 135 -34 195.5t-126 60.5q-140 0 -286 -123v-723h-162v582q0 138 -16 370zM500 -147l139 14q10 -58 10 -109q0 -87 -28.5 -163t-73.5 -127l-94 53q53 101 53 223q0 22 -3 62t-3 47z
" />
    <glyph glyph-name="Ncaron" unicode="&#x147;" horiz-adv-x="1388" 
d="M193 1372h186l577 -969l95 -194h2l-9 221v942h154v-1372h-190l-580 975l-90 180h-4l8 -190v-965h-149v1372zM399 1735l72 92l246 -178l244 176l69 -94l-256 -207l-115 -8z" />
    <glyph glyph-name="ncaron" unicode="&#x148;" horiz-adv-x="1091" 
d="M150 952l135 19l26 -133q153 147 340 147q153 0 219 -83.5t66 -250.5v-651h-162v590q0 135 -34 195.5t-126 60.5q-140 0 -286 -123v-723h-162v582q0 138 -16 370zM494 1106l-244 297l84 80l219 -234l223 234l82 -80l-246 -289z" />
    <glyph glyph-name="napostrophe" unicode="&#x149;" horiz-adv-x="1091" 
d="M150 952l135 19l26 -133q153 147 340 147q153 0 219 -83.5t66 -250.5v-651h-162v590q0 135 -34 195.5t-126 60.5q-140 0 -286 -123v-723h-162v582q0 138 -16 370zM190 1475l148 12q18 -70 18 -123q0 -90 -50.5 -162t-135.5 -117l-59 72q90 78 90 199q0 48 -11 119z" />
    <glyph glyph-name="Eng" unicode="&#x14a;" horiz-adv-x="1388" 
d="M193 1372h186l569 -969l94 -192h2v1161h154v-1429q0 -68 -7.5 -128t-30 -123.5t-58 -108.5t-95.5 -74t-139 -29q-139 0 -245 61l51 117q100 -35 178 -35q49 0 85 18t56 47t31.5 73.5t15 87t2.5 98.5l2 43l-53 10l-563 975l-90 180h-4l8 -190v-965h-149v1372z" />
    <glyph glyph-name="eng" unicode="&#x14b;" horiz-adv-x="1091" 
d="M150 952l135 19l26 -133q153 147 340 147q153 0 219 -83.5t66 -250.5v-704q0 -68 -7 -127.5t-28.5 -124t-56 -110t-95 -75.5t-139.5 -30q-135 0 -248 61l48 115q98 -37 182 -37q35 0 63 9t47 23t32.5 38t21 48.5t12 60t5.5 66t1 73.5v653q0 135 -34 195.5t-126 60.5
q-140 0 -286 -123v-723h-162v582q0 135 -8 231z" />
    <glyph glyph-name="Omacron" unicode="&#x14c;" horiz-adv-x="1400" 
d="M113 668q0 110 22 214t69.5 198.5t115.5 165.5t167 113t218 42q137 0 248.5 -54.5t184 -150t111.5 -221.5t39 -270q0 -110 -21.5 -214t-69 -199t-115 -166t-167 -113t-217.5 -42q-137 0 -249 55t-184.5 150t-112 221.5t-39.5 270.5zM1116 688q0 118 -27.5 220t-79 179
t-131 121.5t-178.5 44.5q-135 0 -229 -79q-95 -80 -140.5 -212t-45.5 -278q0 -158 47 -284.5t143 -203.5t227 -77q135 0 230 80q96 79 140 210t44 279zM451 1679h499v-127h-499v127z" />
    <glyph glyph-name="omacron" unicode="&#x14d;" horiz-adv-x="1067" 
d="M109 461q0 77 17 152t52.5 142.5t86.5 118.5t123.5 81t158.5 30q190 0 302 -137.5t112 -353.5q0 -99 -28 -191t-80.5 -167t-138 -120t-192.5 -45q-189 0 -301 136.5t-112 353.5zM795 469q0 170 -69 273.5t-196 103.5q-97 0 -165 -64q-93 -103 -93 -299
q0 -169 69.5 -270.5t197.5 -101.5q105 0 166 65q90 96 90 293zM281 1276h512v-125h-512v125z" />
    <glyph glyph-name="Obreve" unicode="&#x14e;" horiz-adv-x="1400" 
d="M113 668q0 110 22 214t69.5 198.5t115.5 165.5t167 113t218 42q137 0 248.5 -54.5t184 -150t111.5 -221.5t39 -270q0 -110 -21.5 -214t-69 -199t-115 -166t-167 -113t-217.5 -42q-137 0 -249 55t-184.5 150t-112 221.5t-39.5 270.5zM1116 688q0 118 -27.5 220t-79 179
t-131 121.5t-178.5 44.5q-135 0 -229 -79q-95 -80 -140.5 -212t-45.5 -278q0 -158 47 -284.5t143 -203.5t227 -77q135 0 230 80q96 79 140 210t44 279zM987 1763q-33 -115 -109.5 -175t-179.5 -60q-218 0 -284 233l102 45q29 -74 73.5 -107.5t110.5 -33.5q134 0 189 141z
" />
    <glyph glyph-name="obreve" unicode="&#x14f;" horiz-adv-x="1067" 
d="M109 461q0 77 17 152t52.5 142.5t86.5 118.5t123.5 81t158.5 30q190 0 302 -137.5t112 -353.5q0 -99 -28 -191t-80.5 -167t-138 -120t-192.5 -45q-189 0 -301 136.5t-112 353.5zM795 469q0 170 -69 273.5t-196 103.5q-97 0 -165 -64q-93 -103 -93 -299
q0 -169 69.5 -270.5t197.5 -101.5q105 0 166 65q90 96 90 293zM541 1243q70 0 117.5 46t60.5 141l108 -13q-12 -150 -88.5 -228.5t-206.5 -78.5q-127 0 -194.5 76.5t-85.5 230.5l113 13q29 -187 176 -187z" />
    <glyph glyph-name="Ohungarumlaut" unicode="&#x150;" horiz-adv-x="1400" 
d="M113 668q0 110 22 214t69.5 198.5t115.5 165.5t167 113t218 42q137 0 248.5 -54.5t184 -150t111.5 -221.5t39 -270q0 -110 -21.5 -214t-69 -199t-115 -166t-167 -113t-217.5 -42q-137 0 -249 55t-184.5 150t-112 221.5t-39.5 270.5zM1116 688q0 118 -27.5 220t-79 179
t-131 121.5t-178.5 44.5q-135 0 -229 -79q-95 -80 -140.5 -212t-45.5 -278q0 -158 47 -284.5t143 -203.5t227 -77q135 0 230 80q96 79 140 210t44 279zM440 1581l222 303l116 -86l2 -8l-252 -277zM772 1581l221 303l117 -86v-8l-250 -277z" />
    <glyph glyph-name="ohungarumlaut" unicode="&#x151;" horiz-adv-x="1067" 
d="M109 461q0 77 17 152t52.5 142.5t86.5 118.5t123.5 81t158.5 30q190 0 302 -137.5t112 -353.5q0 -99 -28 -191t-80.5 -167t-138 -120t-192.5 -45q-189 0 -301 136.5t-112 353.5zM795 469q0 170 -69 273.5t-196 103.5q-97 0 -165 -64q-93 -103 -93 -299
q0 -169 69.5 -270.5t197.5 -101.5q105 0 166 65q90 96 90 293zM297 1145l174 342l125 -72v-10l-205 -311zM602 1145l174 342l125 -72v-10l-205 -311z" />
    <glyph glyph-name="OE" unicode="&#x152;" horiz-adv-x="1847" 
d="M115 670q0 106 20.5 206.5t67 195.5t115 166t173 114t232.5 43q131 0 252 -23h762l-6 -141h-615v-457h498v-143h-498v-490h619l6 -141h-774q-131 -23 -250 -23q-149 0 -266 54.5t-189.5 150.5t-109.5 219.5t-37 268.5zM731 121q112 0 221 20l2 1090q-105 18 -243 18
q-151 0 -242 -78q-93 -79 -136.5 -218.5t-43.5 -280.5q0 -114 25 -211t76.5 -174.5t138.5 -121.5t202 -44z" />
    <glyph glyph-name="oe" unicode="&#x153;" horiz-adv-x="1648" 
d="M109 461q0 98 28 190t79.5 167.5t135.5 121t187 45.5q117 0 200 -57.5t129 -161.5q53 103 138 161t196 58q164 0 252 -106.5t88 -276.5q0 -86 -16 -164h-586q9 -161 80 -240t192 -79q144 0 265 51l43 -115q-166 -78 -336 -78q-115 0 -200 52.5t-132 154.5
q-48 -99 -133.5 -156t-204.5 -57q-186 0 -295.5 137t-109.5 353zM776 471q0 170 -65.5 272.5t-188.5 102.5q-104 0 -160 -68q-90 -103 -90 -295q0 -169 67 -270.5t191 -101.5q98 0 156 63q90 107 90 297zM1190 848q-106 0 -169 -76t-77 -217h432q4 46 4 70q0 101 -49 162
t-141 61z" />
    <glyph glyph-name="Racute" unicode="&#x154;" horiz-adv-x="1187" 
d="M496 694q137 0 235 43q72 33 114 95t42 153q0 132 -91 197t-264 65q-68 0 -178 -14v-533q74 -6 142 -6zM193 1362q190 33 337 33q250 0 389.5 -102t139.5 -294q0 -138 -73.5 -242.5t-209.5 -158.5l260 -469q44 -80 62 -129h-174l-306 561q-49 -8 -118 -8q-70 0 -146 6
v-559h-161v1362zM406 1632l425 174l50 -139l-2 -8l-437 -137z" />
    <glyph glyph-name="racute" unicode="&#x155;" horiz-adv-x="747" 
d="M150 952l135 19l32 -180q106 188 265 188q72 0 133 -37l-33 -147q-52 14 -111 14q-148 0 -243 -168v-641h-162v582q0 133 -16 370zM307 1174l311 313l99 -107v-10l-332 -278z" />
    <glyph glyph-name="uni0156" unicode="&#x156;" horiz-adv-x="1187" 
d="M496 694q137 0 235 43q72 33 114 95t42 153q0 132 -91 197t-264 65q-68 0 -178 -14v-533q74 -6 142 -6zM193 1362q190 33 337 33q250 0 389.5 -102t139.5 -294q0 -138 -73.5 -242.5t-209.5 -158.5l260 -469q44 -80 62 -129h-174l-306 561q-49 -8 -118 -8q-70 0 -146 6
v-559h-161v1362zM559 -147l139 14q11 -64 11 -109q0 -87 -29.5 -163t-75.5 -127l-94 53q53 101 53 223q0 31 -4 109z" />
    <glyph glyph-name="uni0157" unicode="&#x157;" horiz-adv-x="747" 
d="M150 952l135 19l32 -180q106 188 265 188q72 0 133 -37l-33 -147q-52 14 -111 14q-148 0 -243 -168v-641h-162v582q0 133 -16 370zM201 -147l139 14q10 -58 10 -109q0 -87 -28.5 -163t-73.5 -127l-94 53q53 101 53 223q0 22 -3 62t-3 47z" />
    <glyph glyph-name="Rcaron" unicode="&#x158;" horiz-adv-x="1187" 
d="M496 694q137 0 235 43q72 33 114 95t42 153q0 132 -91 197t-264 65q-68 0 -178 -14v-533q74 -6 142 -6zM193 1362q190 33 337 33q250 0 389.5 -102t139.5 -294q0 -138 -73.5 -242.5t-209.5 -158.5l260 -469q44 -80 62 -129h-174l-306 561q-49 -8 -118 -8q-70 0 -146 6
v-559h-161v1362zM270 1735l72 92l246 -178l243 176l70 -94l-256 -207l-115 -8z" />
    <glyph glyph-name="rcaron" unicode="&#x159;" horiz-adv-x="747" 
d="M150 952l135 19l32 -180q106 188 265 188q72 0 133 -37l-33 -147q-52 14 -111 14q-148 0 -243 -168v-641h-162v582q0 133 -16 370zM393 1106l-243 297l83 80l220 -234l223 234l82 -80l-246 -289z" />
    <glyph glyph-name="Sacute" unicode="&#x15a;" horiz-adv-x="1101" 
d="M133 1016q0 97 41 173t111 121t154 68t177 23q187 0 347 -80l-50 -127q-151 57 -305 57q-44 0 -84.5 -6.5t-81.5 -22t-71 -40t-49 -63.5t-19 -89q0 -37 10 -68t32 -56t45 -43.5t62 -37t68.5 -30.5t77.5 -29q162 -63 223 -98q153 -89 179 -232q6 -32 6 -69
q0 -97 -39.5 -174t-108 -125t-156 -72.5t-186.5 -24.5q-119 0 -236.5 35t-193.5 92l64 127q172 -104 370 -104q60 0 114.5 13t100.5 39t73.5 72.5t27.5 106.5q0 33 -10 62.5t-22.5 50.5t-41.5 43.5t-47 34.5t-61.5 31t-63 26t-70.5 26q-5 2 -8 3q-52 20 -80.5 32t-75 34.5
t-73 41.5t-59 49t-50 62t-29.5 75t-12 93zM389 1632l426 174l49 -139l-2 -8l-436 -137z" />
    <glyph glyph-name="sacute" unicode="&#x15b;" horiz-adv-x="882" 
d="M127 700q-3 126 95.5 202.5t242.5 76.5q163 0 291 -102l-70 -105q-112 72 -223 72q-78 0 -125 -33.5t-47 -89.5q0 -26 12 -48.5t27 -37.5t47 -32t54 -26t65 -26q55 -20 90 -35.5t77.5 -41t66 -52.5t40 -67t16.5 -89q0 -130 -99.5 -209.5t-262.5 -79.5q-187 0 -338 115
l68 109q136 -88 266 -88q88 0 143 36t55 101q0 44 -34 79t-67 50.5t-109 45.5q-18 7 -27 11q-59 22 -99.5 43.5t-78 52.5t-56.5 73t-20 95zM309 1174l312 313l98 -107v-10l-332 -278z" />
    <glyph glyph-name="Scircumflex" unicode="&#x15c;" horiz-adv-x="1101" 
d="M133 1016q0 97 41 173t111 121t154 68t177 23q187 0 347 -80l-50 -127q-151 57 -305 57q-44 0 -84.5 -6.5t-81.5 -22t-71 -40t-49 -63.5t-19 -89q0 -37 10 -68t32 -56t45 -43.5t62 -37t68.5 -30.5t77.5 -29q162 -63 223 -98q153 -89 179 -232q6 -32 6 -69
q0 -97 -39.5 -174t-108 -125t-156 -72.5t-186.5 -24.5q-119 0 -236.5 35t-193.5 92l64 127q172 -104 370 -104q60 0 114.5 13t100.5 39t73.5 72.5t27.5 106.5q0 33 -10 62.5t-22.5 50.5t-41.5 43.5t-47 34.5t-61.5 31t-63 26t-70.5 26q-5 2 -8 3q-52 20 -80.5 32t-75 34.5
t-73 41.5t-59 49t-50 62t-29.5 75t-12 93zM510 1808l115 9l260 -220l-72 -92l-246 178l-243 -176l-70 95z" />
    <glyph glyph-name="scircumflex" unicode="&#x15d;" horiz-adv-x="882" 
d="M127 700q-3 126 95.5 202.5t242.5 76.5q163 0 291 -102l-70 -105q-112 72 -223 72q-78 0 -125 -33.5t-47 -89.5q0 -26 12 -48.5t27 -37.5t47 -32t54 -26t65 -26q55 -20 90 -35.5t77.5 -41t66 -52.5t40 -67t16.5 -89q0 -130 -99.5 -209.5t-262.5 -79.5q-187 0 -338 115
l68 109q136 -88 266 -88q88 0 143 36t55 101q0 44 -34 79t-67 50.5t-109 45.5q-18 7 -27 11q-59 22 -99.5 43.5t-78 52.5t-56.5 73t-20 95zM393 1464l119 6l246 -296l-86 -78l-219 233l-224 -233l-82 78z" />
    <glyph glyph-name="uni015E" unicode="&#x15e;" horiz-adv-x="1101" 
d="M133 1016q0 97 41 173t111 121t154 68t177 23q187 0 347 -80l-50 -127q-151 57 -305 57q-44 0 -84.5 -6.5t-81.5 -22t-71 -40t-49 -63.5t-19 -89q0 -37 10 -68t32 -56t45 -43.5t62 -37t68.5 -30.5t77.5 -29q162 -63 223 -98q153 -89 179 -232q6 -32 6 -69q0 -89 -33 -161
t-90.5 -119.5t-132 -75.5t-162.5 -36l-39 -92h16q53 0 96.5 -13.5t75 -50t31.5 -91.5q0 -98 -95 -164.5t-265 -93.5l-23 102q225 45 225 147q0 37 -29.5 54.5t-76.5 17.5q-22 0 -64 -6l-39 51l60 137q-107 7 -208 41t-167 84l64 127q172 -104 370 -104q60 0 114.5 13
t100.5 39t73.5 72.5t27.5 106.5q0 33 -10 62.5t-22.5 50.5t-41.5 43.5t-47 34.5t-61.5 31t-63 26t-70.5 26q-5 2 -8 3q-52 20 -80.5 32t-75 34.5t-73 41.5t-59 49t-50 62t-29.5 75t-12 93z" />
    <glyph glyph-name="uni015F" unicode="&#x15f;" horiz-adv-x="882" 
d="M127 700q-3 126 95.5 202.5t242.5 76.5q163 0 291 -102l-70 -105q-112 72 -223 72q-78 0 -125 -33.5t-47 -89.5q0 -26 12 -48.5t27 -37.5t47 -32t54 -26t65 -26q55 -20 90 -35.5t77.5 -41t66 -52.5t40 -67t16.5 -89q0 -119 -83.5 -195.5t-225.5 -90.5l-41 -97h21
q84 0 143 -37t59 -118q0 -98 -95 -164.5t-265 -93.5l-23 102q226 45 226 147q0 37 -30 54.5t-77 17.5q-21 0 -63 -6l-39 51l63 146q-146 17 -270 110l68 109q136 -88 266 -88q88 0 143 36t55 101q0 44 -34 79t-67 50.5t-109 45.5q-18 7 -27 11q-59 22 -99.5 43.5t-78 52.5
t-56.5 73t-20 95z" />
    <glyph glyph-name="Scaron" unicode="&#x160;" horiz-adv-x="1101" 
d="M133 1016q0 97 41 173t111 121t154 68t177 23q187 0 347 -80l-50 -127q-151 57 -305 57q-44 0 -84.5 -6.5t-81.5 -22t-71 -40t-49 -63.5t-19 -89q0 -37 10 -68t32 -56t45 -43.5t62 -37t68.5 -30.5t77.5 -29q162 -63 223 -98q153 -89 179 -232q6 -32 6 -69
q0 -97 -39.5 -174t-108 -125t-156 -72.5t-186.5 -24.5q-119 0 -236.5 35t-193.5 92l64 127q172 -104 370 -104q60 0 114.5 13t100.5 39t73.5 72.5t27.5 106.5q0 33 -10 62.5t-22.5 50.5t-41.5 43.5t-47 34.5t-61.5 31t-63 26t-70.5 26q-5 2 -8 3q-52 20 -80.5 32t-75 34.5
t-73 41.5t-59 49t-50 62t-29.5 75t-12 93zM254 1735l72 92l245 -178l244 176l70 -94l-256 -207l-115 -8z" />
    <glyph glyph-name="scaron" unicode="&#x161;" horiz-adv-x="882" 
d="M127 700q-3 126 95.5 202.5t242.5 76.5q163 0 291 -102l-70 -105q-112 72 -223 72q-78 0 -125 -33.5t-47 -89.5q0 -26 12 -48.5t27 -37.5t47 -32t54 -26t65 -26q55 -20 90 -35.5t77.5 -41t66 -52.5t40 -67t16.5 -89q0 -130 -99.5 -209.5t-262.5 -79.5q-187 0 -338 115
l68 109q136 -88 266 -88q88 0 143 36t55 101q0 44 -34 79t-67 50.5t-109 45.5q-18 7 -27 11q-59 22 -99.5 43.5t-78 52.5t-56.5 73t-20 95zM395 1106l-243 297l84 80l219 -234l223 234l82 -80l-246 -289z" />
    <glyph glyph-name="uni0162" unicode="&#x162;" horiz-adv-x="1140" 
d="M51 1372h1039l-5 -143h-432v-1229h-16l-51 -117h16q53 0 96.5 -13.5t75 -50t31.5 -91.5q0 -98 -95.5 -164.5t-265.5 -93.5l-22 102q225 45 225 147q0 37 -29.5 54.5t-76.5 17.5q-22 0 -64 -6l-39 51l72 164h-21v1229h-434z" />
    <glyph glyph-name="uni0163" unicode="&#x163;" horiz-adv-x="735" 
d="M240 1241h133v-285h293v-133h-293v-501q0 -119 24.5 -160t96.5 -41q62 0 155 22l31 -120q-109 -43 -223 -46l-41 -94h20q53 0 96.5 -13.5t75 -50t31.5 -91.5q0 -98 -95 -164.5t-265 -93.5l-23 102q225 45 225 147q0 37 -29.5 54.5t-76.5 17.5q-22 0 -64 -6l-39 51l68 154
q-67 24 -98 92.5t-31 198.5v542h-143v133h135z" />
    <glyph glyph-name="Tcaron" unicode="&#x164;" horiz-adv-x="1140" 
d="M51 1372h1039l-5 -143h-432v-1229h-164v1229h-434zM256 1735l72 92l245 -178l244 176l70 -94l-256 -207l-115 -8z" />
    <glyph glyph-name="tcaron" unicode="&#x165;" horiz-adv-x="735" 
d="M240 1241h133v-285h293v-133h-293v-501q0 -119 24.5 -160t96.5 -41q62 0 155 22l31 -120q-122 -46 -246 -46q-118 0 -170.5 68t-52.5 236v542h-143v133h135zM498 1542l147 4l6 -6l-37 -422h-116v424z" />
    <glyph glyph-name="Tbar" unicode="&#x166;" horiz-adv-x="1165" 
d="M254 764h248v465h-434l-5 143h1039l-4 -143h-432v-465h245v-135h-245v-629h-164v629h-248v135z" />
    <glyph glyph-name="tbar" unicode="&#x167;" horiz-adv-x="745" 
d="M248 1241h131v-285h295v-133h-295v-213h293v-114h-293v-174q0 -118 25 -159.5t96 -41.5q62 0 155 22l33 -120q-122 -46 -248 -46q-117 0 -169 68t-52 236v215h-145v114h145v213h-145v133h135z" />
    <glyph glyph-name="Utilde" unicode="&#x168;" horiz-adv-x="1302" 
d="M963 1372h163v-833q0 -129 -26.5 -229.5t-82.5 -178t-152 -119t-228 -41.5q-223 0 -341 129t-118 387v885h164v-848q0 -79 8.5 -139.5t30 -112.5t57 -85t90.5 -51.5t129 -18.5q63 0 117 21t86 52q103 97 103 306v876zM768 1651q61 0 127 139l100 -49q-90 -221 -229 -221
q-42 0 -78 21t-57.5 45.5t-48 45.5t-50.5 21q-60 0 -131 -133l-96 51q43 102 102 158.5t130 56.5q33 0 62.5 -14t50 -34t39 -39.5t38.5 -33.5t41 -14z" />
    <glyph glyph-name="utilde" unicode="&#x169;" horiz-adv-x="1075" 
d="M156 954l159 4v-596q0 -132 39 -191.5t125 -59.5q122 0 269 131v714h161v-577q0 -103 17 -369l-133 -18l-29 129q-150 -150 -324 -150q-284 0 -284 334v649zM647 1247q66 0 125 133l98 -47q-37 -106 -95.5 -163.5t-129.5 -57.5q-42 0 -78 21t-57 45.5t-47.5 45.5
t-50.5 21q-18 0 -34 -9.5t-33.5 -31.5t-29 -39.5t-32.5 -52.5l-97 51q39 102 98.5 158.5t131.5 56.5q41 0 76.5 -20.5t56.5 -45t47.5 -45t50.5 -20.5z" />
    <glyph glyph-name="Umacron" unicode="&#x16a;" horiz-adv-x="1302" 
d="M963 1372h163v-833q0 -129 -26.5 -229.5t-82.5 -178t-152 -119t-228 -41.5q-223 0 -341 129t-118 387v885h164v-848q0 -79 8.5 -139.5t30 -112.5t57 -85t90.5 -51.5t129 -18.5q63 0 117 21t86 52q103 97 103 306v876zM399 1679h500v-127h-500v127z" />
    <glyph glyph-name="umacron" unicode="&#x16b;" horiz-adv-x="1075" 
d="M156 954l159 4v-596q0 -132 39 -191.5t125 -59.5q122 0 269 131v714h161v-577q0 -103 17 -369l-133 -18l-29 129q-150 -150 -324 -150q-284 0 -284 334v649zM272 1276h512v-125h-512v125z" />
    <glyph glyph-name="Ubreve" unicode="&#x16c;" horiz-adv-x="1302" 
d="M963 1372h163v-833q0 -129 -26.5 -229.5t-82.5 -178t-152 -119t-228 -41.5q-223 0 -341 129t-118 387v885h164v-848q0 -79 8.5 -139.5t30 -112.5t57 -85t90.5 -51.5t129 -18.5q63 0 117 21t86 52q103 97 103 306v876zM936 1763q-33 -115 -109.5 -175t-179.5 -60
q-219 0 -285 233l103 45q29 -74 73.5 -107.5t110.5 -33.5q134 0 189 141z" />
    <glyph glyph-name="ubreve" unicode="&#x16d;" horiz-adv-x="1075" 
d="M156 954l159 4v-596q0 -132 39 -191.5t125 -59.5q122 0 269 131v714h161v-577q0 -103 17 -369l-133 -18l-29 129q-150 -150 -324 -150q-284 0 -284 334v649zM532 1243q70 0 118 46t61 141l108 -13q-12 -150 -88.5 -228.5t-206.5 -78.5q-127 0 -194.5 76.5t-85.5 230.5
l112 13q29 -187 176 -187z" />
    <glyph glyph-name="Uring" unicode="&#x16e;" horiz-adv-x="1302" 
d="M963 1372h163v-833q0 -129 -26.5 -229.5t-82.5 -178t-152 -119t-228 -41.5q-223 0 -341 129t-118 387v885h164v-848q0 -79 8.5 -139.5t30 -112.5t57 -85t90.5 -51.5t129 -18.5q63 0 117 21t86 52q103 97 103 306v876zM426 1681q0 97 64.5 156t168.5 59q95 0 155 -54
t60 -142q0 -97 -65 -155t-166 -58q-96 0 -156.5 53t-60.5 141zM760 1694q0 44 -29.5 74t-75.5 30q-52 0 -83 -30.5t-31 -81.5q0 -45 28.5 -73t75.5 -28q52 0 83.5 29.5t31.5 79.5z" />
    <glyph glyph-name="uring" unicode="&#x16f;" horiz-adv-x="1075" 
d="M156 954l159 4v-596q0 -132 39 -191.5t125 -59.5q122 0 269 131v714h161v-577q0 -103 17 -369l-133 -18l-29 129q-150 -150 -324 -150q-284 0 -284 334v649zM303 1278q0 102 65.5 162.5t170.5 60.5q95 0 155 -55t60 -148q0 -100 -65 -161.5t-169 -61.5q-95 0 -156 56
t-61 147zM637 1292q0 51 -26.5 80t-75.5 29q-54 0 -84.5 -31.5t-30.5 -87.5q0 -50 27.5 -78t76.5 -28q54 0 83.5 30.5t29.5 85.5z" />
    <glyph glyph-name="Uhungarumlaut" unicode="&#x170;" horiz-adv-x="1302" 
d="M963 1372h163v-833q0 -129 -26.5 -229.5t-82.5 -178t-152 -119t-228 -41.5q-223 0 -341 129t-118 387v885h164v-848q0 -79 8.5 -139.5t30 -112.5t57 -85t90.5 -51.5t129 -18.5q63 0 117 21t86 52q103 97 103 306v876zM389 1581l221 303l117 -86l2 -8l-252 -277zM721 1581
l221 303l117 -86v-8l-250 -277z" />
    <glyph glyph-name="uhungarumlaut" unicode="&#x171;" horiz-adv-x="1075" 
d="M156 954l159 4v-596q0 -132 39 -191.5t125 -59.5q122 0 269 131v714h161v-577q0 -103 17 -369l-133 -18l-29 129q-150 -150 -324 -150q-284 0 -284 334v649zM289 1145l174 342l125 -72v-10l-205 -311zM594 1145l174 342l125 -72v-10l-205 -311z" />
    <glyph glyph-name="Uogonek" unicode="&#x172;" horiz-adv-x="1302" 
d="M1126 539q0 -179 -45 -290t-153 -202q-98 -87 -146.5 -157.5t-48.5 -139.5q0 -110 111 -110q53 0 121 26l36 -112q-105 -48 -200 -48q-103 0 -165.5 54.5t-62.5 152.5q0 135 146 262v2q-37 -6 -82 -6q-223 0 -341 129t-118 387v885h164v-848q0 -79 8.5 -139.5t30 -112.5
t57 -85t90.5 -51.5t129 -18.5q63 0 117 21t86 52q103 97 103 306v876h163v-833z" />
    <glyph glyph-name="uogonek" unicode="&#x173;" horiz-adv-x="1075" 
d="M156 956h159v-589q0 -133 39.5 -194.5t128.5 -61.5q119 0 265 131v714h161v-577q0 -177 17 -416q-99 -45 -151 -97t-52 -104q0 -94 104 -94q51 0 123 29l37 -113q-101 -49 -205 -49q-100 0 -159.5 51.5t-59.5 139.5q0 146 217 274l-20 119q-148 -148 -316 -148
q-151 0 -219.5 85t-68.5 249v651z" />
    <glyph glyph-name="Wcircumflex" unicode="&#x174;" horiz-adv-x="1849" 
d="M1638 1372h166q-6 -30 -57 -190l-348 -1178l-203 -8l-225 989l-35 191h-6l-299 -1172l-203 -8l-317 1190q-44 168 -48 186h168l244 -928l53 -251h9l292 1179h215l213 -930l46 -249h8zM879 1808l114 9l260 -220l-71 -92l-246 178l-244 -176l-69 95z" />
    <glyph glyph-name="wcircumflex" unicode="&#x175;" horiz-adv-x="1533" 
d="M694 954l160 4l182 -639l35 -143h8l232 780h155q0 -38 -18 -90l-289 -864l-178 -4l-180 600l-33 129h-4l-213 -725l-176 -4l-289 868q-16 62 -16 90h161l193 -637l39 -143h8zM717 1464l119 6l245 -296l-86 -78l-219 233l-223 -233l-82 78z" />
    <glyph glyph-name="Ycircumflex" unicode="&#x176;" horiz-adv-x="1105" 
d="M901 1372h168q-3 -13 -9 -27.5t-15 -33t-16 -30.5t-20 -35.5t-18 -33.5l-358 -649v-563h-164v563l-348 649q-64 106 -78 160h176l244 -457l94 -182h2zM498 1808l114 9l260 -220l-71 -92l-246 178l-244 -176l-69 95z" />
    <glyph glyph-name="ycircumflex" unicode="&#x177;" horiz-adv-x="980" 
d="M764 956h154q0 -44 -19 -90l-346 -938q-92 -229 -194 -331.5t-228 -102.5q-51 0 -86 6v129q132 0 222 87t169 284h-33l-315 866q-18 46 -18 90h163l205 -598q33 -94 49 -182h9zM440 1464l119 6l246 -296l-86 -78l-219 233l-224 -233l-81 78z" />
    <glyph glyph-name="Ydieresis" unicode="&#x178;" horiz-adv-x="1105" 
d="M901 1372h168q-3 -13 -9 -27.5t-15 -33t-16 -30.5t-20 -35.5t-18 -33.5l-358 -649v-563h-164v563l-348 649q-64 106 -78 160h176l244 -457l94 -182h2zM645 1640q0 46 31 76.5t78 30.5q42 0 70 -25.5t28 -68.5q0 -47 -30 -77t-77 -30q-44 0 -72 25.5t-28 68.5zM262 1640
q0 46 31 76.5t78 30.5q42 0 70 -25.5t28 -68.5q0 -47 -30 -77t-77 -30q-44 0 -72 25.5t-28 68.5z" />
    <glyph glyph-name="Zacute" unicode="&#x179;" horiz-adv-x="1159" 
d="M121 1372h919l27 -143l-803 -1088h791l4 -141h-961l-16 147l792 1084h-749zM410 1632l426 174l49 -139l-2 -8l-437 -137z" />
    <glyph glyph-name="zacute" unicode="&#x17a;" horiz-adv-x="937" 
d="M121 956h696l23 -122l-553 -703h542l5 -131h-728l-18 121l555 704h-518zM334 1174l311 313l98 -107v-10l-331 -278z" />
    <glyph glyph-name="Zdotaccent" unicode="&#x17b;" horiz-adv-x="1159" 
d="M121 1372h919l27 -143l-803 -1088h791l4 -141h-961l-16 147l792 1084h-749zM483 1645q0 51 31 82.5t82 31.5q46 0 73 -28t27 -74q0 -50 -29.5 -80.5t-80.5 -30.5q-46 0 -74.5 27.5t-28.5 71.5z" />
    <glyph glyph-name="zdotaccent" unicode="&#x17c;" horiz-adv-x="937" 
d="M121 956h696l23 -122l-553 -703h542l5 -131h-728l-18 121l555 704h-518zM367 1247q0 53 32 85t84 32q47 0 76 -28.5t29 -75.5q0 -51 -31.5 -82t-83.5 -31q-48 0 -77 27.5t-29 72.5z" />
    <glyph glyph-name="Zcaron" unicode="&#x17d;" horiz-adv-x="1159" 
d="M121 1372h919l27 -143l-803 -1088h791l4 -141h-961l-16 147l792 1084h-749zM274 1735l72 92l246 -178l244 176l69 -94l-256 -207l-114 -8z" />
    <glyph glyph-name="zcaron" unicode="&#x17e;" horiz-adv-x="937" 
d="M121 956h696l23 -122l-553 -703h542l5 -131h-728l-18 121l555 704h-518zM420 1106l-244 297l84 80l219 -234l223 234l82 -80l-245 -289z" />
    <glyph glyph-name="longs" unicode="&#x17f;" horiz-adv-x="583" 
d="M221 1169q0 169 86 279.5t240 110.5q68 0 124.5 -25t116.5 -74l-69 -100q-89 59 -176 59q-80 0 -113 -45q-47 -59 -47 -178v-1196h-162v823h-147v133h147v213z" />
    <glyph glyph-name="uni018F" unicode="&#x18f;" horiz-adv-x="1241" 
d="M1118 709q0 -131 -17.5 -239.5t-56.5 -201t-99 -156t-149 -99.5t-202 -36q-243 0 -361 144t-118 401q0 107 18 209h821q-2 129 -20.5 219.5t-61 160t-116 103t-181.5 33.5q-185 0 -382 -96l-52 123q219 121 449 121q278 0 403 -172t125 -514zM598 125q171 0 254.5 118.5
t97.5 344.5h-667q-1 -9 -3 -26.5t-3 -33.5t-1 -32q0 -179 81.5 -275t240.5 -96z" />
    <glyph glyph-name="uni0192" unicode="&#x192;" horiz-adv-x="1007" 
d="M414 1040q23 166 108 260.5t232 94.5q133 0 221 -92l-66 -101q-73 53 -155 53q-70 0 -111 -41q-52 -52 -68 -172l-43 -331h224l-13 -136h-229l-80 -600q-21 -154 -100.5 -243.5t-210.5 -89.5q-120 0 -213 84l63 104q70 -47 148 -47q64 0 102.5 48.5t50.5 139.5l78 604
h-155l14 136h160z" />
    <glyph glyph-name="Ohorn" unicode="&#x1a0;" horiz-adv-x="1413" 
d="M113 668q0 110 22 214t69.5 198.5t115.5 165.5t167 113t218 42q107 0 200 -35q52 -14 111 -14q106 0 106 92q0 56 -41 127l146 8q47 -73 47 -158q0 -160 -158 -200q84 -94 128 -227.5t44 -288.5q0 -110 -21.5 -214t-69 -199t-115 -166t-167 -113t-217.5 -42
q-137 0 -249 55t-184.5 150t-112 221.5t-39.5 270.5zM1116 688q0 118 -27.5 220t-79 179t-131 121.5t-178.5 44.5q-135 0 -229 -79q-95 -80 -140.5 -212t-45.5 -278q0 -158 47 -284.5t143 -203.5t227 -77q135 0 230 80q96 79 140 210t44 279z" />
    <glyph glyph-name="ohorn" unicode="&#x1a1;" horiz-adv-x="1087" 
d="M109 461q0 77 17 152t52.5 142.5t86.5 118.5t123.5 81t158.5 30q85 0 166 -33q40 -16 73 -16q95 0 95 84q0 54 -41 125l131 8q47 -73 47 -156q0 -141 -148 -178q91 -134 91 -325q0 -99 -28 -191t-80.5 -167t-138 -120t-192.5 -45q-189 0 -301 136.5t-112 353.5zM795 469
q0 170 -69 273.5t-196 103.5q-97 0 -165 -64q-93 -103 -93 -299q0 -169 69.5 -270.5t197.5 -101.5q105 0 166 65q90 96 90 293z" />
    <glyph glyph-name="Uhorn" unicode="&#x1af;" horiz-adv-x="1314" 
d="M963 1372h94q64 0 90.5 23t26.5 67q0 58 -41 129l145 8q47 -73 47 -159q0 -183 -199 -205v-696q0 -129 -26.5 -229.5t-82.5 -178t-152 -119t-228 -41.5q-223 0 -341 129t-118 387v885h164v-848q0 -79 8.5 -139.5t30 -112.5t57 -85t90.5 -51.5t129 -18.5q63 0 117 21
t86 52q103 97 103 306v876z" />
    <glyph glyph-name="uhorn" unicode="&#x1b0;" horiz-adv-x="1101" 
d="M932 1165l131 9q47 -68 47 -156q0 -83 -52 -130.5t-149 -56.5v-452q0 -103 17 -369l-133 -18l-29 129q-150 -150 -324 -150q-284 0 -284 334v649l159 4v-596q0 -132 39 -191.5t125 -59.5q122 0 269 131v714h110q65 0 90 20.5t25 63.5q0 54 -41 125z" />
    <glyph glyph-name="uni01FA" unicode="&#x1fa;" horiz-adv-x="1196" 
d="M600 1169l-217 -645h426l-117 353l-86 292h-6zM510 1368l184 8l408 -1233q30 -93 41 -143h-162l-127 383h-520l-129 -383h-164q19 78 43 143zM375 1681q0 97 64.5 156t168.5 59q95 0 155 -54t60 -142q0 -97 -65 -155t-166 -58q-96 0 -156.5 53t-60.5 141zM709 1694
q0 44 -29.5 74t-75.5 30q-52 0 -83.5 -30.5t-31.5 -81.5q0 -45 29 -73t76 -28q52 0 83.5 29.5t31.5 79.5zM420 2075l426 174l49 -140l-2 -8l-436 -137z" />
    <glyph glyph-name="aringacute" unicode="&#x1fb;" horiz-adv-x="972" 
d="M127 823q180 156 393 156q154 0 224.5 -87t70.5 -276v-245q0 -129 16 -361l-135 -20l-26 131q-163 -144 -334 -144q-115 0 -182.5 65t-67.5 175q0 72 35 132.5t96 99.5q117 76 438 102v14q0 152 -36.5 212.5t-126.5 60.5q-142 0 -306 -115zM369 106q134 0 286 134v192
q-269 -21 -350 -72q-61 -46 -61 -124q0 -62 33 -96t92 -34zM252 1278q0 102 65 162.5t170 60.5q95 0 155 -55t60 -148q0 -101 -65 -162t-168 -61q-95 0 -156 56t-61 147zM586 1292q0 51 -27 80t-76 29q-54 0 -84 -31.5t-30 -87.5q0 -50 27.5 -78t76.5 -28q54 0 83.5 30.5
t29.5 85.5zM299 1669l426 174l49 -139l-2 -8l-436 -137z" />
    <glyph glyph-name="uni01FC" unicode="&#x1fc;" horiz-adv-x="1769" 
d="M750 1020l-254 -465h378l3 676h-13zM774 1372h885l-6 -141h-615v-457h498v-143h-498v-490h619l6 -141h-789v410h-456l-223 -410h-175q2 18 25 59zM1036 1632l426 174l49 -139l-2 -8l-436 -137z" />
    <glyph glyph-name="uni01FD" unicode="&#x1fd;" horiz-adv-x="1542" 
d="M1075 848q-108 0 -174.5 -77t-81.5 -216h453q2 23 2 70q0 100 -52 161.5t-147 61.5zM217 449q119 78 436 104v12q0 152 -36 212.5t-125 60.5q-140 0 -306 -113l-57 98q180 156 391 156q100 0 160 -38t88 -120q120 162 319 162q168 0 258.5 -108t90.5 -279q0 -75 -17 -158
h-604q9 -159 84 -239t199 -80q145 0 272 51l41 -115q-166 -78 -340 -78q-104 0 -190.5 45t-141.5 130q-168 -175 -381 -175q-128 0 -200 62.5t-72 177.5q0 72 35.5 132.5t95.5 99.5zM381 106q160 0 309 146q-28 83 -31 184q-159 -14 -237 -32.5t-115 -45.5q-65 -43 -65 -120
q0 -64 35.5 -98t103.5 -34zM686 1174l311 313l99 -107v-10l-332 -278z" />
    <glyph glyph-name="Oslashacute" unicode="&#x1fe;" horiz-adv-x="1390" 
d="M115 668q0 110 21.5 214t68 198.5t113.5 165.5t165 113t215 42q149 0 269 -66l77 148l117 -68l-86 -160q98 -96 150.5 -239t52.5 -311q0 -110 -22 -214t-69 -199t-114.5 -166t-165.5 -113t-215 -42q-147 0 -270 68l-78 -145l-115 63l86 162q-97 94 -148.5 237t-51.5 312z
M287 684q0 -256 112 -410l494 924q-88 57 -199 57q-133 0 -225 -77q-94 -79 -138 -212.5t-44 -281.5zM1104 688q0 253 -113 412l-495 -924q91 -59 200 -59q133 0 226 78q94 79 138 212t44 281zM516 1632l426 174l49 -139l-2 -8l-436 -137z" />
    <glyph glyph-name="oslashacute" unicode="&#x1ff;" horiz-adv-x="1067" 
d="M109 461q0 77 17 152t52.5 142.5t86.5 118.5t123.5 81t158.5 30q73 0 149 -27l62 132l104 -54l-65 -137q78 -65 121 -170t43 -235q0 -99 -28 -191t-80.5 -167t-138 -120t-192.5 -45q-77 0 -153 29l-62 -131l-102 49l65 139q-77 65 -119 169.5t-42 234.5zM272 483
q0 -169 70 -272l291 612q-51 23 -103 23q-97 0 -165 -64q-93 -103 -93 -299zM795 469q0 172 -72 276l-291 -612q49 -22 107 -22q105 0 166 65q90 96 90 293zM383 1174l311 313l99 -107v-10l-332 -278z" />
    <glyph glyph-name="uni0218" unicode="&#x218;" horiz-adv-x="1101" 
d="M133 1016q0 97 41 173t111 121t154 68t177 23q187 0 347 -80l-50 -127q-151 57 -305 57q-44 0 -84.5 -6.5t-81.5 -22t-71 -40t-49 -63.5t-19 -89q0 -37 10 -68t32 -56t45 -43.5t62 -37t68.5 -30.5t77.5 -29q162 -63 223 -98q153 -89 179 -232q6 -32 6 -69
q0 -97 -39.5 -174t-108 -125t-156 -72.5t-186.5 -24.5q-119 0 -236.5 35t-193.5 92l64 127q172 -104 370 -104q60 0 114.5 13t100.5 39t73.5 72.5t27.5 106.5q0 33 -10 62.5t-22.5 50.5t-41.5 43.5t-47 34.5t-61.5 31t-63 26t-70.5 26q-5 2 -8 3q-52 20 -80.5 32t-75 34.5
t-73 41.5t-59 49t-50 62t-29.5 75t-12 93zM469 -147l139 14q10 -58 10 -109q0 -88 -29 -163.5t-75 -126.5l-94 53q53 101 53 223q0 31 -4 109z" />
    <glyph glyph-name="uni0219" unicode="&#x219;" horiz-adv-x="882" 
d="M127 700q-3 126 95.5 202.5t242.5 76.5q163 0 291 -102l-70 -105q-112 72 -223 72q-78 0 -125 -33.5t-47 -89.5q0 -26 12 -48.5t27 -37.5t47 -32t54 -26t65 -26q55 -20 90 -35.5t77.5 -41t66 -52.5t40 -67t16.5 -89q0 -130 -99.5 -209.5t-262.5 -79.5q-187 0 -338 115
l68 109q136 -88 266 -88q88 0 143 36t55 101q0 44 -34 79t-67 50.5t-109 45.5q-18 7 -27 11q-59 22 -99.5 43.5t-78 52.5t-56.5 73t-20 95zM379 -147l139 14q10 -58 10 -109q0 -87 -28.5 -163t-73.5 -127l-94 53q53 101 53 223q0 22 -3 62t-3 47z" />
    <glyph glyph-name="uni021A" unicode="&#x21a;" horiz-adv-x="1140" 
d="M51 1372h1039l-5 -143h-432v-1229h-164v1229h-434zM506 -147l139 14q10 -58 10 -109q0 -88 -29 -163.5t-75 -126.5l-94 53q53 101 53 223q0 31 -4 109z" />
    <glyph glyph-name="uni021B" unicode="&#x21b;" horiz-adv-x="735" 
d="M240 1241h133v-285h293v-133h-293v-501q0 -119 24.5 -160t96.5 -41q62 0 155 22l31 -120q-122 -46 -246 -46q-118 0 -170.5 68t-52.5 236v542h-143v133h135zM358 -147l140 14q10 -58 10 -109q0 -87 -28.5 -163t-73.5 -127l-95 53q54 103 54 223q0 21 -3 58.5t-4 50.5z
" />
    <glyph glyph-name="dotlessj" unicode="&#x237;" horiz-adv-x="489" 
d="M164 954l162 4v-907q0 -131 -35 -235t-89.5 -172.5t-138.5 -135.5l-90 89q94 97 142.5 206t48.5 260v891z" />
    <glyph glyph-name="uni0259" unicode="&#x259;" horiz-adv-x="960" 
d="M848 498q0 -117 -21.5 -210t-67 -163.5t-121 -109t-177.5 -38.5q-171 0 -260.5 106.5t-89.5 289.5q0 85 12 159h571q-6 165 -64.5 238.5t-199.5 73.5q-54 0 -114 -12.5t-80.5 -19.5t-67.5 -24l-43 113q159 78 321 78q209 0 305.5 -121t96.5 -360zM463 113q116 0 168.5 76
t60.5 221h-430q-2 -20 -2 -62q0 -111 51 -173t152 -62z" />
    <glyph glyph-name="uni02BC" unicode="&#x2bc;" horiz-adv-x="0" 
d="M43 1475l147 12q19 -74 19 -123q0 -90 -50.5 -162t-135.5 -117l-60 72q90 78 90 199q0 54 -10 119z" />
    <glyph glyph-name="circumflex" unicode="&#x2c6;" horiz-adv-x="819" 
d="M350 1464l119 6l246 -296l-86 -78l-219 233l-224 -233l-82 78z" />
    <glyph glyph-name="caron" unicode="&#x2c7;" horiz-adv-x="819" 
d="M352 1106l-243 297l84 80l219 -234l223 234l82 -80l-246 -289z" />
    <glyph glyph-name="uni02C9" unicode="&#x2c9;" horiz-adv-x="0" 
d="M-256 1276h512v-125h-512v125z" />
    <glyph glyph-name="uni02CA" unicode="&#x2ca;" horiz-adv-x="0" 
d="M-143 1174l311 313l98 -107v-10l-332 -278z" />
    <glyph glyph-name="uni02CB" unicode="&#x2cb;" horiz-adv-x="0" 
d="M-236 1380l101 107l311 -313l-78 -82l-334 278v10z" />
    <glyph glyph-name="breve" unicode="&#x2d8;" horiz-adv-x="819" 
d="M414 1243q70 0 117.5 46t60.5 141l108 -13q-12 -150 -88 -228.5t-206 -78.5q-127 0 -195 77t-86 230l113 13q29 -187 176 -187z" />
    <glyph glyph-name="dotaccent" unicode="&#x2d9;" horiz-adv-x="819" 
d="M299 1247q0 53 32.5 85t84.5 32q47 0 75.5 -28.5t28.5 -75.5q0 -51 -31 -82t-83 -31q-48 0 -77.5 27.5t-29.5 72.5z" />
    <glyph glyph-name="ring" unicode="&#x2da;" horiz-adv-x="819" 
d="M184 1278q0 102 65.5 162.5t170.5 60.5q95 0 155 -55t60 -148q0 -100 -65 -161.5t-169 -61.5q-95 0 -156 56t-61 147zM518 1292q0 51 -26.5 80t-75.5 29q-54 0 -84.5 -31.5t-30.5 -87.5q0 -50 28 -78t77 -28q54 0 83 30t29 86z" />
    <glyph glyph-name="ogonek" unicode="&#x2db;" horiz-adv-x="819" 
d="M121 -266q0 100 82.5 186.5t230.5 167.5l58 -78q-109 -64 -160 -120.5t-51 -118.5q0 -48 27.5 -75.5t82.5 -27.5q50 0 129 29l37 -113q-104 -49 -209 -49q-104 0 -165.5 54t-61.5 145z" />
    <glyph glyph-name="tilde" unicode="&#x2dc;" horiz-adv-x="819" 
d="M528 1247q66 0 125 133l99 -47q-37 -105 -96 -163t-130 -58q-42 0 -78 21t-57 45.5t-47.5 45.5t-50.5 21q-18 0 -34 -9.5t-33.5 -31.5t-29 -39.5t-32.5 -52.5l-96 51q39 102 98 158.5t131 56.5q41 0 76.5 -20.5t56.5 -45t47.5 -45t50.5 -20.5z" />
    <glyph glyph-name="hungarumlaut" unicode="&#x2dd;" horiz-adv-x="819" 
d="M170 1145l174 342l125 -72v-10l-205 -311zM475 1145l174 342l125 -72v-10l-205 -311z" />
    <glyph glyph-name="uni0300" unicode="&#x300;" horiz-adv-x="0" 
d="M-236 1380l101 107l311 -313l-78 -82l-334 278v10z" />
    <glyph glyph-name="uni0301" unicode="&#x301;" horiz-adv-x="0" 
d="M-143 1174l311 313l98 -107v-10l-332 -278z" />
    <glyph glyph-name="uni0302" unicode="&#x302;" horiz-adv-x="0" 
d="M-59 1464l118 6l246 -296l-86 -78l-219 233l-223 -233l-82 78z" />
    <glyph glyph-name="uni0303" unicode="&#x303;" horiz-adv-x="0" 
d="M119 1247q66 0 125 133l98 -47q-37 -106 -95.5 -163.5t-129.5 -57.5q-42 0 -78 21t-57.5 45.5t-48 45.5t-50.5 21q-18 0 -34 -9.5t-33.5 -31.5t-29 -39.5t-32.5 -52.5l-96 51q39 102 98 158.5t131 56.5q34 0 63 -13.5t50 -33t39.5 -38.5t39 -32.5t40.5 -13.5z" />
    <glyph glyph-name="uni0304" unicode="&#x304;" horiz-adv-x="0" 
d="M-256 1276h512v-125h-512v125z" />
    <glyph glyph-name="uni0306" unicode="&#x306;" horiz-adv-x="0" 
d="M4 1243q70 0 117.5 46t60.5 141l109 -13q-12 -150 -88.5 -228.5t-206.5 -78.5q-127 0 -195 77t-86 230l113 13q29 -187 176 -187z" />
    <glyph glyph-name="uni0307" unicode="&#x307;" horiz-adv-x="0" 
d="M-111 1247q0 53 32.5 85t84.5 32q47 0 76 -28.5t29 -75.5q0 -51 -31.5 -82t-83.5 -31q-48 0 -77.5 27.5t-29.5 72.5z" />
    <glyph glyph-name="uni0308" unicode="&#x308;" horiz-adv-x="0" 
d="M84 1243q0 45 29.5 75t76.5 30q43 0 70 -25t27 -70q0 -46 -29 -76t-76 -30q-44 0 -71 25.5t-27 70.5zM-281 1243q0 45 30 75t79 30q42 0 68 -25t26 -70q0 -47 -28 -76.5t-76 -29.5q-43 0 -71 26t-28 70z" />
    <glyph glyph-name="uni0309" unicode="&#x309;" horiz-adv-x="0" 
d="M-117 1352l-22 100q67 23 119 23q88 0 141 -44.5t53 -125.5q0 -97 -72 -151.5t-192 -63.5l-14 98q72 13 108.5 37t36.5 71q0 68 -80 68q-37 0 -78 -12z" />
    <glyph glyph-name="uni030A" unicode="&#x30a;" horiz-adv-x="0" 
d="M-225 1278q0 102 65 162.5t170 60.5q95 0 155 -55t60 -148q0 -101 -65 -162t-168 -61q-95 0 -156 56t-61 147zM109 1292q0 51 -27 80t-76 29q-54 0 -84.5 -31.5t-30.5 -87.5q0 -50 28 -78t77 -28q54 0 83.5 30.5t29.5 85.5z" />
    <glyph glyph-name="uni030B" unicode="&#x30b;" horiz-adv-x="0" 
d="M-240 1145l174 342l125 -72v-10l-204 -311zM66 1145l174 342l125 -72v-10l-205 -311z" />
    <glyph glyph-name="uni030C" unicode="&#x30c;" horiz-adv-x="0" 
d="M-57 1106l-244 297l84 80l219 -234l223 234l82 -80l-246 -289z" />
    <glyph glyph-name="uni031B" unicode="&#x31b;" horiz-adv-x="0" 
d="M-6 1165l129 9q47 -68 47 -156q0 -93 -64.5 -141t-181.5 -48h-37v127h31q65 0 90 20.5t25 63.5q0 49 -39 125z" />
    <glyph glyph-name="uni0323" unicode="&#x323;" horiz-adv-x="0" 
d="M-106 -301q0 50 30.5 81.5t81.5 31.5q45 0 72.5 -28.5t27.5 -74.5q0 -50 -29.5 -80t-80.5 -30q-46 0 -74 27t-28 73z" />
    <glyph glyph-name="uni0326" unicode="&#x326;" horiz-adv-x="0" 
d="M-47 -147l139 14q10 -58 10 -109q0 -87 -28.5 -163t-73.5 -127l-94 53q53 101 53 223q0 22 -3 62t-3 47z" />
    <glyph glyph-name="uni0327" unicode="&#x327;" horiz-adv-x="0" 
d="M-133 -164l90 207l106 -35l-53 -125h21q84 0 143 -37t59 -118q0 -98 -95 -164.5t-265 -93.5l-23 102q226 45 226 147q0 37 -30 54.5t-77 17.5q-21 0 -63 -6z" />
    <glyph glyph-name="uni0328" unicode="&#x328;" horiz-adv-x="0" 
d="M-289 -266q0 100 83 186.5t231 167.5l57 -78q-109 -64 -160 -120.5t-51 -118.5q0 -48 28 -75.5t83 -27.5q50 0 129 29l36 -113q-104 -49 -208 -49t-166 54t-62 145z" />
    <glyph glyph-name="uni0335" unicode="&#x335;" horiz-adv-x="0" 
d="M-307 467h614v-115h-614v115z" />
    <glyph glyph-name="a.sups" unicode="&#x1d43;" horiz-adv-x="686" 
d="M96 1360q123 94 266 94q109 0 159 -54.5t50 -170.5v-139q0 -61 13 -234l-109 -16l-26 86q-96 -90 -209 -90q-77 0 -122.5 40t-45.5 111q0 87 80 141q79 50 284 68v2q0 84 -21.5 116t-78.5 32q-84 0 -193 -64zM279 934q71 0 157 70v110q-152 -13 -198 -43q-37 -26 -37 -65
q0 -35 20.5 -53.5t57.5 -18.5z" />
    <glyph glyph-name="b.sups" unicode="&#x1d47;" horiz-adv-x="751" 
d="M115 1784l137 2v-408q80 80 174 80q119 0 182.5 -85t63.5 -220q0 -137 -80 -227t-234 -90q-131 0 -243 34v914zM365 942q61 0 100 31q65 48 65 172q0 96 -34 151.5t-99 55.5q-62 0 -145 -68v-330q53 -12 113 -12z" />
    <glyph glyph-name="d.sups" unicode="&#x1d48;" horiz-adv-x="759" 
d="M352 938q66 0 150 74v305q-68 35 -121 35q-65 0 -105 -37q-55 -49 -55 -170q0 -94 34 -150.5t97 -56.5zM80 1130q0 86 31 159t97.5 121t156.5 48q72 0 137 -43v369l139 2v-705q0 -66 10 -225l-108 -14l-27 82q-86 -93 -192 -93q-107 0 -175.5 83t-68.5 216z" />
    <glyph glyph-name="e.sups" unicode="&#x1d49;" horiz-adv-x="692" 
d="M80 1133q0 141 79 233t214 92q117 0 179 -69.5t62 -180.5q0 -48 -10 -96h-385q6 -87 51 -128.5t121 -41.5q81 0 176 29l31 -88q-108 -47 -229 -47q-131 0 -210 77t-79 220zM369 1356q-64 0 -102.5 -43t-47.5 -119h262q2 12 2 37q0 56 -29.5 90.5t-84.5 34.5z" />
    <glyph glyph-name="g.sups" unicode="&#x1d4d;" horiz-adv-x="714" 
d="M133 940q0 62 62 115q-58 26 -88.5 72t-30.5 104q0 93 69 158t195 65q72 0 131 -27q84 69 182 72l2 -104q-50 -3 -114 -21q49 -55 49 -131q0 -94 -69 -154.5t-191 -60.5q-24 0 -56 4q-22 -25 -22 -51q0 -34 31 -43.5t102 -9.5q258 0 258 -170q0 -105 -93 -166.5
t-239 -61.5q-120 0 -194 46t-74 129q3 103 113 169q-23 26 -23 66zM336 631q81 0 129 26q55 25 55 86q0 47 -44 63.5t-132 16.5q-65 0 -113 11q-67 -45 -67 -107q0 -96 172 -96zM459 1239q0 57 -32 90t-93 33q-57 0 -92 -31t-35 -88t31.5 -90t95.5 -33q56 0 90.5 31t34.5 88
z" />
    <glyph glyph-name="k.sups" unicode="&#x1d4f;" horiz-adv-x="706" 
d="M514 1442h135q-2 -20 -33 -60l-188 -206l205 -265q26 -37 31 -63h-142l-192 250l-76 -45v-205h-137v936l137 2v-608l65 49z" />
    <glyph glyph-name="m.sups" unicode="&#x1d50;" horiz-adv-x="1124" 
d="M109 1436l108 16l27 -88q91 94 211 94q122 0 161 -98q95 98 215 98q183 0 183 -213v-397h-140v366q0 73 -18.5 105.5t-64.5 32.5q-63 0 -158 -68q2 -12 2 -39v-397h-137v366q0 73 -19 105.5t-67 32.5q-68 0 -154 -68v-436h-139v348q0 103 -10 240z" />
    <glyph glyph-name="o.sups" unicode="&#x1d52;" horiz-adv-x="743" 
d="M80 1137q0 132 79 226.5t220 94.5q131 0 208 -86.5t77 -218.5q0 -86 -31.5 -157.5t-100.5 -118t-165 -46.5q-134 0 -210.5 86.5t-76.5 219.5zM524 1143q0 94 -39 152.5t-112 58.5q-49 0 -86 -29q-66 -54 -66 -178q0 -96 39.5 -153.5t114.5 -57.5q52 0 90 33q59 53 59 174
z" />
    <glyph glyph-name="p.sups" unicode="&#x1d56;" horiz-adv-x="757" 
d="M379 938q53 0 94 33q64 49 64 178q0 92 -35 147.5t-101 55.5q-64 0 -143 -62v-321q60 -31 121 -31zM106 1436l111 16l25 -84q87 90 190 90q112 0 179 -84.5t67 -214.5q0 -135 -77 -231.5t-204 -96.5q-78 0 -139 39v-319h-139v643q0 56 -13 242z" />
    <glyph glyph-name="t.sups" unicode="&#x1d57;" horiz-adv-x="555" 
d="M178 1622h109v-182h188v-103h-188v-274q0 -68 16.5 -92.5t61.5 -24.5q39 0 94 12l24 -92q-85 -30 -161 -30q-86 0 -129 45.5t-43 148.5v307h-93v103h88z" />
    <glyph glyph-name="u.sups" unicode="&#x1d58;" horiz-adv-x="753" 
d="M111 1442h139v-371q0 -70 22 -101.5t72 -31.5q65 0 152 74v430h139v-346q0 -76 12 -240l-108 -14l-27 84q-95 -95 -207 -95q-194 0 -194 209v402z" />
    <glyph glyph-name="v.sups" unicode="&#x1d5b;" horiz-adv-x="671" 
d="M500 1442h131q0 -34 -13 -66l-208 -526l-154 -4l-201 530q-12 40 -12 66h139l117 -340q24 -78 35 -123h4z" />
    <glyph glyph-name="i.sinf" unicode="&#x1d62;" horiz-adv-x="370" 
d="M117 489l137 3v-594h-137v591zM100 670q0 38 25.5 61t67.5 23q36 0 58.5 -20.5t22.5 -53.5q0 -37 -25 -60.5t-65 -23.5q-37 0 -60.5 21t-23.5 53z" />
    <glyph glyph-name="r.sinf" unicode="&#x1d63;" horiz-adv-x="542" 
d="M104 485l111 17l31 -111q64 113 168 113q49 0 90 -23l-27 -123q-42 11 -69 11q-88 0 -152 -82v-389h-139v354q0 60 -13 233z" />
    <glyph glyph-name="u.sinf" unicode="&#x1d64;" horiz-adv-x="753" 
d="M109 492h139v-371q0 -70 22 -101.5t72 -31.5q66 0 152 73v431h139v-347q0 -75 12 -239l-108 -15l-27 84q-94 -94 -207 -94q-194 0 -194 209v402z" />
    <glyph glyph-name="v.sinf" unicode="&#x1d65;" horiz-adv-x="671" 
d="M500 492h131q0 -34 -13 -66l-208 -526l-154 -4l-201 530q-12 40 -12 66h139l117 -340q24 -78 35 -123h4z" />
    <glyph glyph-name="Wgrave" unicode="&#x1e80;" horiz-adv-x="1849" 
d="M1638 1372h166q-6 -30 -57 -190l-348 -1178l-203 -8l-225 989l-35 191h-6l-299 -1172l-203 -8l-317 1190q-44 168 -48 186h168l244 -928l53 -251h9l292 1179h215l213 -930l46 -249h8zM645 1667l49 139l426 -174l-37 -110l-438 137v8z" />
    <glyph glyph-name="wgrave" unicode="&#x1e81;" horiz-adv-x="1533" 
d="M694 954l160 4l182 -639l35 -143h8l232 780h155q0 -38 -18 -90l-289 -864l-178 -4l-180 600l-33 129h-4l-213 -725l-176 -4l-289 868q-16 62 -16 90h161l193 -637l39 -143h8zM541 1380l100 107l311 -313l-78 -82l-333 278v10z" />
    <glyph glyph-name="Wacute" unicode="&#x1e82;" horiz-adv-x="1849" 
d="M1638 1372h166q-6 -30 -57 -190l-348 -1178l-203 -8l-225 989l-35 191h-6l-299 -1172l-203 -8l-317 1190q-44 168 -48 186h168l244 -928l53 -251h9l292 1179h215l213 -930l46 -249h8zM758 1632l426 174l49 -139l-2 -8l-436 -137z" />
    <glyph glyph-name="wacute" unicode="&#x1e83;" horiz-adv-x="1533" 
d="M694 954l160 4l182 -639l35 -143h8l232 780h155q0 -38 -18 -90l-289 -864l-178 -4l-180 600l-33 129h-4l-213 -725l-176 -4l-289 868q-16 62 -16 90h161l193 -637l39 -143h8zM633 1174l311 313l98 -107v-10l-331 -278z" />
    <glyph glyph-name="Wdieresis" unicode="&#x1e84;" horiz-adv-x="1849" 
d="M1638 1372h166q-6 -30 -57 -190l-348 -1178l-203 -8l-225 989l-35 191h-6l-299 -1172l-203 -8l-317 1190q-44 168 -48 186h168l244 -928l53 -251h9l292 1179h215l213 -930l46 -249h8zM1026 1640q0 46 31 76.5t78 30.5q42 0 70 -25.5t28 -68.5q0 -47 -30 -77t-77 -30
q-44 0 -72 25.5t-28 68.5zM643 1640q0 46 31 76.5t78 30.5q42 0 70 -25.5t28 -68.5q0 -47 -30 -77t-77 -30q-44 0 -72 25.5t-28 68.5z" />
    <glyph glyph-name="wdieresis" unicode="&#x1e85;" horiz-adv-x="1533" 
d="M694 954l160 4l182 -639l35 -143h8l232 780h155q0 -38 -18 -90l-289 -864l-178 -4l-180 600l-33 129h-4l-213 -725l-176 -4l-289 868q-16 62 -16 90h161l193 -637l39 -143h8zM860 1243q0 45 30 75t77 30q42 0 69 -25t27 -70q0 -46 -29 -76t-76 -30q-44 0 -71 25.5
t-27 70.5zM496 1243q0 45 29.5 75t78.5 30q42 0 68 -25t26 -70q0 -47 -28 -76.5t-76 -29.5q-43 0 -70.5 25.5t-27.5 70.5z" />
    <glyph glyph-name="uni1E9E" unicode="&#x1e9e;" horiz-adv-x="1312" 
d="M1155 1253v-26l-297 -473q53 -11 101 -28.5t99 -49.5t87.5 -73t60 -102.5t23.5 -135.5q0 -169 -113.5 -278.5t-288.5 -109.5q-173 0 -295 72l54 123q98 -55 235 -55q108 0 177 66.5t69 178.5q0 57 -20.5 103t-53 76.5t-81.5 53.5t-97.5 36.5t-109.5 23.5l-15 93l266 436
q-127 71 -290 71q-162 0 -237 -91.5t-75 -295.5v-868h-161v881q0 520 477 520q140 -1 269.5 -44t215.5 -104z" />
    <glyph glyph-name="uni1EA2" unicode="&#x1ea2;" horiz-adv-x="1196" 
d="M600 1169l-217 -645h426l-117 353l-86 292h-6zM510 1368l184 8l408 -1233q30 -93 41 -143h-162l-127 383h-520l-129 -383h-164q19 78 43 143zM477 1745l-22 100q57 23 120 23q87 0 137 -38.5t50 -117.5q0 -180 -258 -201l-15 99q69 10 104.5 30.5t35.5 61.5q0 57 -74 57
q-27 0 -78 -14z" />
    <glyph glyph-name="uni1EA3" unicode="&#x1ea3;" horiz-adv-x="972" 
d="M127 823q180 156 393 156q154 0 224.5 -87t70.5 -276v-245q0 -129 16 -361l-135 -20l-26 131q-163 -144 -334 -144q-115 0 -182.5 65t-67.5 175q0 72 35 132.5t96 99.5q117 76 438 102v14q0 152 -36.5 212.5t-126.5 60.5q-142 0 -306 -115zM369 106q134 0 286 134v192
q-269 -21 -350 -72q-61 -46 -61 -124q0 -62 33 -96t92 -34zM371 1352l-23 100q67 23 119 23q89 0 142 -44.5t53 -125.5q0 -97 -72.5 -151.5t-192.5 -63.5l-14 98q72 13 108.5 37t36.5 71q0 68 -79 68q-37 0 -78 -12z" />
    <glyph glyph-name="uni1EA4" unicode="&#x1ea4;" horiz-adv-x="1196" 
d="M600 1169l-217 -645h426l-117 353l-86 292h-6zM510 1368l184 8l408 -1233q30 -93 41 -143h-162l-127 383h-520l-129 -383h-164q19 78 43 143zM539 1782l114 8l260 -213l-71 -92l-246 174l-244 -172l-69 94zM381 1950l428 176l47 -137v-9l-438 -137z" />
    <glyph glyph-name="uni1EA5" unicode="&#x1ea5;" horiz-adv-x="972" 
d="M127 823q180 156 393 156q154 0 224.5 -87t70.5 -276v-245q0 -129 16 -361l-135 -20l-26 131q-163 -144 -334 -144q-115 0 -182.5 65t-67.5 175q0 72 35 132.5t96 99.5q117 76 438 102v14q0 152 -36.5 212.5t-126.5 60.5q-142 0 -306 -115zM369 106q134 0 286 134v192
q-269 -21 -350 -72q-61 -46 -61 -124q0 -62 33 -96t92 -34zM428 1442l119 8l246 -291l-86 -78l-220 228l-223 -228l-82 78zM672 1481l243 331l111 -86v-10l-270 -299z" />
    <glyph glyph-name="uni1EA6" unicode="&#x1ea6;" horiz-adv-x="1196" 
d="M600 1169l-217 -645h426l-117 353l-86 292h-6zM510 1368l184 8l408 -1233q30 -93 41 -143h-162l-127 383h-520l-129 -383h-164q19 78 43 143zM539 1782l114 8l260 -213l-71 -92l-246 174l-244 -172l-69 94zM354 1989l47 137l428 -176l-36 -107l-439 137v9z" />
    <glyph glyph-name="uni1EA7" unicode="&#x1ea7;" horiz-adv-x="972" 
d="M127 823q180 156 393 156q154 0 224.5 -87t70.5 -276v-245q0 -129 16 -361l-135 -20l-26 131q-163 -144 -334 -144q-115 0 -182.5 65t-67.5 175q0 72 35 132.5t96 99.5q117 76 438 102v14q0 152 -36.5 212.5t-126.5 60.5q-142 0 -306 -115zM369 106q134 0 286 134v192
q-269 -21 -350 -72q-61 -46 -61 -124q0 -62 33 -96t92 -34zM428 1442l119 8l246 -291l-86 -78l-220 228l-223 -228l-82 78zM512 1726l113 86l241 -329l-84 -66l-270 299v10z" />
    <glyph glyph-name="uni1EA8" unicode="&#x1ea8;" horiz-adv-x="1196" 
d="M600 1169l-217 -645h426l-117 353l-86 292h-6zM510 1368l184 8l408 -1233q30 -93 41 -143h-162l-127 383h-520l-129 -383h-164q19 78 43 143zM539 1782l114 8l260 -213l-71 -92l-246 174l-244 -172l-69 94zM739 2011l-22 100q67 23 121 23q85 0 135.5 -39.5t50.5 -118.5
q0 -93 -70.5 -141.5t-187.5 -56.5l-14 96q68 12 103.5 32.5t35.5 61.5q0 55 -74 55q-37 0 -78 -12z" />
    <glyph glyph-name="uni1EA9" unicode="&#x1ea9;" horiz-adv-x="972" 
d="M127 823q180 156 393 156q154 0 224.5 -87t70.5 -276v-245q0 -129 16 -361l-135 -20l-26 131q-163 -144 -334 -144q-115 0 -182.5 65t-67.5 175q0 72 35 132.5t96 99.5q117 76 438 102v14q0 152 -36.5 212.5t-126.5 60.5q-142 0 -306 -115zM369 106q134 0 286 134v192
q-269 -21 -350 -72q-61 -46 -61 -124q0 -62 33 -96t92 -34zM428 1442l119 8l246 -291l-86 -78l-220 228l-223 -228l-82 78zM647 1688l-22 100q55 22 118 22q90 0 143.5 -44t53.5 -124q0 -98 -72.5 -152t-193.5 -65l-15 101q72 12 110 35.5t38 70.5q0 70 -80 70
q-29 0 -80 -14z" />
    <glyph glyph-name="uni1EAA" unicode="&#x1eaa;" horiz-adv-x="1196" 
d="M600 1169l-217 -645h426l-117 353l-86 292h-6zM510 1368l184 8l408 -1233q30 -93 41 -143h-162l-127 383h-520l-129 -383h-164q19 78 43 143zM729 1987q62 0 125 129l98 -50q-81 -204 -227 -204q-41 0 -77.5 20t-58.5 43.5t-49 43.5t-53 20q-58 0 -127 -125l-98 51
q92 196 234 196q40 0 75.5 -19.5t56.5 -42.5t48 -42.5t53 -19.5zM539 1782l114 8l260 -213l-71 -92l-246 174l-244 -172l-69 94z" />
    <glyph glyph-name="uni1EAB" unicode="&#x1eab;" horiz-adv-x="972" 
d="M127 823q180 156 393 156q154 0 224.5 -87t70.5 -276v-245q0 -129 16 -361l-135 -20l-26 131q-163 -144 -334 -144q-115 0 -182.5 65t-67.5 175q0 72 35 132.5t96 99.5q117 76 438 102v14q0 152 -36.5 212.5t-126.5 60.5q-142 0 -306 -115zM369 106q134 0 286 134v192
q-269 -21 -350 -72q-61 -46 -61 -124q0 -62 33 -96t92 -34zM428 1438l119 6l246 -291l-86 -78l-220 228l-223 -228l-82 78zM635 1673q59 0 121 133l96 -45q-36 -100 -92.5 -157.5t-124.5 -57.5q-43 0 -80.5 20.5t-59.5 45t-50 45t-54 20.5q-32 0 -61.5 -34t-63.5 -97l-96 51
q87 209 223 209q41 0 78 -21t59.5 -45.5t50.5 -45.5t54 -21z" />
    <glyph glyph-name="uni1EAC" unicode="&#x1eac;" horiz-adv-x="1196" 
d="M600 1169l-217 -645h426l-117 353l-86 292h-6zM510 1368l184 8l408 -1233q30 -93 41 -143h-162l-127 383h-520l-129 -383h-164q19 78 43 143zM492 -301q0 50 30.5 81.5t81.5 31.5q46 0 73.5 -28.5t27.5 -74.5q0 -50 -30 -80t-81 -30q-46 0 -74 27t-28 73zM539 1808l114 9
l260 -220l-71 -92l-246 178l-244 -176l-69 95z" />
    <glyph glyph-name="uni1EAD" unicode="&#x1ead;" horiz-adv-x="972" 
d="M127 823q180 156 393 156q154 0 224.5 -87t70.5 -276v-245q0 -129 16 -361l-135 -20l-26 131q-163 -144 -334 -144q-115 0 -182.5 65t-67.5 175q0 72 35 132.5t96 99.5q117 76 438 102v14q0 152 -36.5 212.5t-126.5 60.5q-142 0 -306 -115zM369 106q134 0 286 134v192
q-269 -21 -350 -72q-61 -46 -61 -124q0 -62 33 -96t92 -34zM365 -301q0 50 30.5 81.5t81.5 31.5q46 0 73.5 -28.5t27.5 -74.5q0 -50 -30 -80t-81 -30q-46 0 -74 27t-28 73zM428 1464l119 6l246 -296l-86 -78l-220 233l-223 -233l-82 78z" />
    <glyph glyph-name="uni1EAE" unicode="&#x1eae;" horiz-adv-x="1196" 
d="M600 1169l-217 -645h426l-117 353l-86 292h-6zM510 1368l184 8l408 -1233q30 -93 41 -143h-162l-127 383h-520l-129 -383h-164q19 78 43 143zM885 1741q-33 -114 -109.5 -172t-179.5 -58q-220 0 -285 228l103 45q29 -74 73.5 -106.5t110.5 -32.5q134 0 188 139zM395 1950
l426 176l49 -137l-2 -9l-436 -137z" />
    <glyph glyph-name="uni1EAF" unicode="&#x1eaf;" horiz-adv-x="972" 
d="M127 823q180 156 393 156q154 0 224.5 -87t70.5 -276v-245q0 -129 16 -361l-135 -20l-26 131q-163 -144 -334 -144q-115 0 -182.5 65t-67.5 175q0 72 35 132.5t96 99.5q117 76 438 102v14q0 152 -36.5 212.5t-126.5 60.5q-142 0 -306 -115zM369 106q134 0 286 134v192
q-269 -21 -350 -72q-61 -46 -61 -124q0 -62 33 -96t92 -34zM492 1231q71 0 118 45t60 141l108 -14q-12 -147 -88.5 -225t-206.5 -78q-126 0 -194 76.5t-86 226.5l112 14q28 -186 177 -186zM397 1505l246 332l111 -86v-10l-271 -299z" />
    <glyph glyph-name="uni1EB0" unicode="&#x1eb0;" horiz-adv-x="1196" 
d="M600 1169l-217 -645h426l-117 353l-86 292h-6zM510 1368l184 8l408 -1233q30 -93 41 -143h-162l-127 383h-520l-129 -383h-164q19 78 43 143zM885 1741q-33 -114 -109.5 -172t-179.5 -58q-220 0 -285 228l103 45q29 -74 73.5 -106.5t110.5 -32.5q134 0 188 139zM317 1989
l48 137l428 -176l-37 -107l-439 137v9z" />
    <glyph glyph-name="uni1EB1" unicode="&#x1eb1;" horiz-adv-x="972" 
d="M127 823q180 156 393 156q154 0 224.5 -87t70.5 -276v-245q0 -129 16 -361l-135 -20l-26 131q-163 -144 -334 -144q-115 0 -182.5 65t-67.5 175q0 72 35 132.5t96 99.5q117 76 438 102v14q0 152 -36.5 212.5t-126.5 60.5q-142 0 -306 -115zM369 106q134 0 286 134v192
q-269 -21 -350 -72q-61 -46 -61 -124q0 -62 33 -96t92 -34zM492 1231q71 0 118 45t60 141l108 -14q-12 -147 -88.5 -225t-206.5 -78q-126 0 -194 76.5t-86 226.5l112 14q28 -186 177 -186zM240 1751l110 86l244 -330l-84 -65l-270 299v10z" />
    <glyph glyph-name="uni1EB2" unicode="&#x1eb2;" horiz-adv-x="1196" 
d="M600 1169l-217 -645h426l-117 353l-86 292h-6zM510 1368l184 8l408 -1233q30 -93 41 -143h-162l-127 383h-520l-129 -383h-164q19 78 43 143zM885 1741q-33 -114 -109.5 -172t-179.5 -58q-220 0 -285 228l103 45q29 -74 73.5 -106.5t110.5 -32.5q134 0 188 139zM487 2030
l-22 102q64 22 121 22q87 0 136.5 -39t49.5 -118q0 -94 -70 -142.5t-188 -58.5l-14 98q139 21 139 93q0 57 -74 57q-40 0 -78 -14z" />
    <glyph glyph-name="uni1EB3" unicode="&#x1eb3;" horiz-adv-x="972" 
d="M127 823q180 156 393 156q154 0 224.5 -87t70.5 -276v-245q0 -129 16 -361l-135 -20l-26 131q-163 -144 -334 -144q-115 0 -182.5 65t-67.5 175q0 72 35 132.5t96 99.5q117 76 438 102v14q0 152 -36.5 212.5t-126.5 60.5q-142 0 -306 -115zM369 106q134 0 286 134v192
q-269 -21 -350 -72q-61 -46 -61 -124q0 -62 33 -96t92 -34zM492 1231q71 0 118 45t60 141l108 -14q-12 -147 -88.5 -225t-206.5 -78q-126 0 -194 76.5t-86 226.5l112 14q28 -186 177 -186zM381 1708l-21 100q63 23 117 23q90 0 143.5 -44.5t53.5 -125.5q0 -97 -73 -151
t-193 -64l-15 98q73 13 110.5 37.5t37.5 71.5q0 67 -80 67q-37 0 -80 -12z" />
    <glyph glyph-name="uni1EB4" unicode="&#x1eb4;" horiz-adv-x="1196" 
d="M600 1169l-217 -645h426l-117 353l-86 292h-6zM510 1368l184 8l408 -1233q30 -93 41 -143h-162l-127 383h-520l-129 -383h-164q19 78 43 143zM885 1741q-33 -114 -109.5 -172t-179.5 -58q-220 0 -285 228l103 45q29 -74 73.5 -106.5t110.5 -32.5q134 0 188 139zM719 1985
q63 0 125 131l98 -50q-84 -204 -229 -204q-41 0 -77 19.5t-57.5 43t-48.5 43t-53 19.5q-32 0 -62 -31t-65 -92l-98 51q92 196 231 196q33 0 62.5 -13t50.5 -31.5t40.5 -37t40.5 -31.5t42 -13z" />
    <glyph glyph-name="uni1EB5" unicode="&#x1eb5;" horiz-adv-x="972" 
d="M127 823q180 156 393 156q154 0 224.5 -87t70.5 -276v-245q0 -129 16 -361l-135 -20l-26 131q-163 -144 -334 -144q-115 0 -182.5 65t-67.5 175q0 72 35 132.5t96 99.5q117 76 438 102v14q0 152 -36.5 212.5t-126.5 60.5q-142 0 -306 -115zM369 106q134 0 286 134v192
q-269 -21 -350 -72q-61 -46 -61 -124q0 -62 33 -96t92 -34zM492 1231q71 0 118 45t60 141l108 -14q-12 -147 -88.5 -225t-206.5 -78q-126 0 -194 76.5t-86 226.5l112 14q28 -186 177 -186zM631 1673q59 0 121 133l96 -45q-36 -100 -92.5 -157.5t-124.5 -57.5
q-43 0 -80.5 20.5t-59.5 45t-50 45t-54 20.5q-32 0 -61.5 -34t-63.5 -97l-96 51q87 209 223 209q41 0 78 -21t59.5 -45.5t50.5 -45.5t54 -21z" />
    <glyph glyph-name="uni1EB6" unicode="&#x1eb6;" horiz-adv-x="1196" 
d="M600 1169l-217 -645h426l-117 353l-86 292h-6zM510 1368l184 8l408 -1233q30 -93 41 -143h-162l-127 383h-520l-129 -383h-164q19 78 43 143zM492 -301q0 50 30.5 81.5t81.5 31.5q46 0 73.5 -28.5t27.5 -74.5q0 -50 -30 -80t-81 -30q-46 0 -74 27t-28 73zM885 1763
q-33 -115 -109.5 -175t-179.5 -60q-219 0 -285 233l103 45q29 -74 73.5 -107.5t110.5 -33.5q133 0 188 141z" />
    <glyph glyph-name="uni1EB7" unicode="&#x1eb7;" horiz-adv-x="972" 
d="M127 823q180 156 393 156q154 0 224.5 -87t70.5 -276v-245q0 -129 16 -361l-135 -20l-26 131q-163 -144 -334 -144q-115 0 -182.5 65t-67.5 175q0 72 35 132.5t96 99.5q117 76 438 102v14q0 152 -36.5 212.5t-126.5 60.5q-142 0 -306 -115zM369 106q134 0 286 134v192
q-269 -21 -350 -72q-61 -46 -61 -124q0 -62 33 -96t92 -34zM365 -301q0 50 30.5 81.5t81.5 31.5q46 0 73.5 -28.5t27.5 -74.5q0 -50 -30 -80t-81 -30q-46 0 -74 27t-28 73zM492 1243q70 0 117.5 46t60.5 141l108 -13q-12 -150 -88.5 -228.5t-206.5 -78.5q-127 0 -194.5 76.5
t-85.5 230.5l112 13q29 -187 177 -187z" />
    <glyph glyph-name="uni1EBA" unicode="&#x1eba;" horiz-adv-x="1085" 
d="M193 1372h782l-6 -141h-615v-457h500v-143h-500v-490h621l4 -141h-786v1372zM469 1745l-23 100q58 23 121 23q87 0 137 -38.5t50 -117.5q0 -180 -258 -201l-15 99q69 10 104.5 30.5t35.5 61.5q0 57 -74 57q-27 0 -78 -14z" />
    <glyph glyph-name="uni1EBB" unicode="&#x1ebb;" horiz-adv-x="997" 
d="M109 459q0 147 52 265.5t151.5 188.5t230.5 70q167 0 256.5 -108t89.5 -279q0 -84 -15 -158h-604q9 -160 83.5 -239.5t199.5 -79.5q145 0 272 51l41 -115q-166 -78 -342 -78q-184 0 -299.5 126.5t-115.5 355.5zM530 848q-109 0 -175 -77.5t-81 -215.5h451q2 23 2 70
q0 100 -51 161.5t-146 61.5zM401 1352l-22 100q67 23 119 23q88 0 141 -44.5t53 -125.5q0 -97 -72 -151.5t-192 -63.5l-14 98q72 13 108.5 37t36.5 71q0 68 -80 68q-37 0 -78 -12z" />
    <glyph glyph-name="uni1EBC" unicode="&#x1ebc;" horiz-adv-x="1085" 
d="M193 1372h782l-6 -141h-615v-457h500v-143h-500v-490h621l4 -141h-786v1372zM709 1651q61 0 127 139l100 -49q-90 -221 -229 -221q-42 0 -78 21t-57.5 45.5t-48 45.5t-50.5 21q-60 0 -131 -133l-96 51q90 215 231 215q41 0 76.5 -21t56.5 -46.5t47.5 -46.5t51.5 -21z" />
    <glyph glyph-name="uni1EBD" unicode="&#x1ebd;" horiz-adv-x="997" 
d="M109 459q0 147 52 265.5t151.5 188.5t230.5 70q167 0 256.5 -108t89.5 -279q0 -84 -15 -158h-604q9 -160 83.5 -239.5t199.5 -79.5q145 0 272 51l41 -115q-166 -78 -342 -78q-184 0 -299.5 126.5t-115.5 355.5zM530 848q-109 0 -175 -77.5t-81 -215.5h451q2 23 2 70
q0 100 -51 161.5t-146 61.5zM637 1247q66 0 125 133l98 -47q-37 -106 -95.5 -163.5t-129.5 -57.5q-42 0 -78 21t-57.5 45.5t-48 45.5t-50.5 21q-18 0 -34 -9.5t-33.5 -31.5t-29 -39.5t-32.5 -52.5l-96 51q39 102 98.5 158.5t131.5 56.5q41 0 76.5 -20.5t56.5 -45t47.5 -45
t50.5 -20.5z" />
    <glyph glyph-name="uni1EBE" unicode="&#x1ebe;" horiz-adv-x="1085" 
d="M193 1372h782l-6 -141h-615v-457h500v-143h-500v-490h621l4 -141h-786v1372zM530 1782l115 8l260 -213l-71 -92l-246 174l-244 -172l-70 94zM373 1950l428 176l47 -137v-9l-438 -137z" />
    <glyph glyph-name="uni1EBF" unicode="&#x1ebf;" horiz-adv-x="997" 
d="M109 459q0 147 52 265.5t151.5 188.5t230.5 70q167 0 256.5 -108t89.5 -279q0 -84 -15 -158h-604q9 -160 83.5 -239.5t199.5 -79.5q145 0 272 51l41 -115q-166 -78 -342 -78q-184 0 -299.5 126.5t-115.5 355.5zM530 848q-109 0 -175 -77.5t-81 -215.5h451q2 23 2 70
q0 100 -51 161.5t-146 61.5zM459 1442l119 8l245 -291l-86 -78l-219 228l-223 -228l-82 78zM702 1481l244 331l111 -86v-10l-271 -299z" />
    <glyph glyph-name="uni1EC0" unicode="&#x1ec0;" horiz-adv-x="1085" 
d="M193 1372h782l-6 -141h-615v-457h500v-143h-500v-490h621l4 -141h-786v1372zM530 1782l115 8l260 -213l-71 -92l-246 174l-244 -172l-70 94zM346 1989l47 137l428 -176l-37 -107l-438 137v9z" />
    <glyph glyph-name="uni1EC1" unicode="&#x1ec1;" horiz-adv-x="997" 
d="M109 459q0 147 52 265.5t151.5 188.5t230.5 70q167 0 256.5 -108t89.5 -279q0 -84 -15 -158h-604q9 -160 83.5 -239.5t199.5 -79.5q145 0 272 51l41 -115q-166 -78 -342 -78q-184 0 -299.5 126.5t-115.5 355.5zM530 848q-109 0 -175 -77.5t-81 -215.5h451q2 23 2 70
q0 100 -51 161.5t-146 61.5zM459 1442l119 8l245 -291l-86 -78l-219 228l-223 -228l-82 78zM543 1726l112 86l242 -329l-84 -66l-270 299v10z" />
    <glyph glyph-name="uni1EC2" unicode="&#x1ec2;" horiz-adv-x="1085" 
d="M193 1372h782l-6 -141h-615v-457h500v-143h-500v-490h621l4 -141h-786v1372zM530 1782l115 8l260 -213l-71 -92l-246 174l-244 -172l-70 94zM731 2011l-22 100q67 23 120 23q86 0 136.5 -39.5t50.5 -118.5q0 -93 -70.5 -141.5t-187.5 -56.5l-15 96q68 12 104 32.5
t36 61.5q0 55 -74 55q-37 0 -78 -12z" />
    <glyph glyph-name="uni1EC3" unicode="&#x1ec3;" horiz-adv-x="997" 
d="M109 459q0 147 52 265.5t151.5 188.5t230.5 70q167 0 256.5 -108t89.5 -279q0 -84 -15 -158h-604q9 -160 83.5 -239.5t199.5 -79.5q145 0 272 51l41 -115q-166 -78 -342 -78q-184 0 -299.5 126.5t-115.5 355.5zM530 848q-109 0 -175 -77.5t-81 -215.5h451q2 23 2 70
q0 100 -51 161.5t-146 61.5zM459 1442l119 8l245 -291l-86 -78l-219 228l-223 -228l-82 78zM678 1688l-23 100q55 22 119 22q90 0 143.5 -44t53.5 -124q0 -98 -72.5 -152t-193.5 -65l-15 101q72 12 110 35.5t38 70.5q0 70 -80 70q-29 0 -80 -14z" />
    <glyph glyph-name="uni1EC4" unicode="&#x1ec4;" horiz-adv-x="1085" 
d="M193 1372h782l-6 -141h-615v-457h500v-143h-500v-490h621l4 -141h-786v1372zM721 1987q62 0 125 129l98 -50q-81 -204 -227 -204q-41 0 -77.5 20t-58.5 43.5t-49 43.5t-53 20q-58 0 -127 -125l-98 51q92 196 233 196q40 0 75.5 -19.5t57 -42.5t48.5 -42.5t53 -19.5z
M530 1782l115 8l260 -213l-71 -92l-246 174l-244 -172l-70 94z" />
    <glyph glyph-name="uni1EC5" unicode="&#x1ec5;" horiz-adv-x="997" 
d="M109 459q0 147 52 265.5t151.5 188.5t230.5 70q167 0 256.5 -108t89.5 -279q0 -84 -15 -158h-604q9 -160 83.5 -239.5t199.5 -79.5q145 0 272 51l41 -115q-166 -78 -342 -78q-184 0 -299.5 126.5t-115.5 355.5zM530 848q-109 0 -175 -77.5t-81 -215.5h451q2 23 2 70
q0 100 -51 161.5t-146 61.5zM459 1438l119 6l245 -291l-86 -78l-219 228l-223 -228l-82 78zM666 1673q58 0 120 133l97 -45q-36 -100 -92.5 -157.5t-124.5 -57.5q-43 0 -80.5 20.5t-59.5 45t-50 45t-54 20.5q-32 0 -61.5 -34t-63.5 -97l-96 51q87 209 223 209q41 0 78 -21
t59.5 -45.5t50.5 -45.5t54 -21z" />
    <glyph glyph-name="uni1EC6" unicode="&#x1ec6;" horiz-adv-x="1085" 
d="M193 1372h782l-6 -141h-615v-457h500v-143h-500v-490h621l4 -141h-786v1372zM489 -301q0 50 31 81.5t82 31.5q45 0 72.5 -28.5t27.5 -74.5q0 -50 -29.5 -80t-80.5 -30q-46 0 -74.5 27.5t-28.5 72.5zM530 1808l115 9l260 -220l-71 -92l-246 178l-244 -176l-70 95z" />
    <glyph glyph-name="uni1EC7" unicode="&#x1ec7;" horiz-adv-x="997" 
d="M109 459q0 147 52 265.5t151.5 188.5t230.5 70q167 0 256.5 -108t89.5 -279q0 -84 -15 -158h-604q9 -160 83.5 -239.5t199.5 -79.5q145 0 272 51l41 -115q-166 -78 -342 -78q-184 0 -299.5 126.5t-115.5 355.5zM530 848q-109 0 -175 -77.5t-81 -215.5h451q2 23 2 70
q0 100 -51 161.5t-146 61.5zM416 -301q0 50 30.5 81.5t81.5 31.5q46 0 73.5 -28.5t27.5 -74.5q0 -50 -30 -80t-81 -30q-46 0 -74 27t-28 73zM459 1464l119 6l245 -296l-86 -78l-219 233l-223 -233l-82 78z" />
    <glyph glyph-name="uni1EC8" unicode="&#x1ec8;" horiz-adv-x="546" 
d="M193 1372h161v-1372h-161v1372zM154 1745l-23 100q58 23 121 23q87 0 136.5 -38.5t49.5 -117.5q0 -180 -258 -201l-14 99q68 10 103.5 30.5t35.5 61.5q0 57 -74 57q-26 0 -77 -14z" />
    <glyph glyph-name="uni1EC9" unicode="&#x1ec9;" horiz-adv-x="487" 
d="M164 954l160 4v-958h-160v954zM129 1352l-23 100q67 23 119 23q89 0 142 -44.5t53 -125.5q0 -97 -72 -151.5t-192 -63.5l-15 98q72 13 109 37t37 71q0 68 -80 68q-37 0 -78 -12z" />
    <glyph glyph-name="uni1ECE" unicode="&#x1ece;" horiz-adv-x="1400" 
d="M113 668q0 110 22 214t69.5 198.5t115.5 165.5t167 113t218 42q137 0 248.5 -54.5t184 -150t111.5 -221.5t39 -270q0 -110 -21.5 -214t-69 -199t-115 -166t-167 -113t-217.5 -42q-137 0 -249 55t-184.5 150t-112 221.5t-39.5 270.5zM1116 688q0 118 -27.5 220t-79 179
t-131 121.5t-178.5 44.5q-135 0 -229 -79q-95 -80 -140.5 -212t-45.5 -278q0 -158 47 -284.5t143 -203.5t227 -77q135 0 230 80q96 79 140 210t44 279zM580 1745l-23 100q57 23 121 23q87 0 136.5 -38.5t49.5 -117.5q0 -180 -258 -201l-14 99q68 10 103.5 30.5t35.5 61.5
q0 57 -74 57q-26 0 -77 -14z" />
    <glyph glyph-name="uni1ECF" unicode="&#x1ecf;" horiz-adv-x="1067" 
d="M109 461q0 77 17 152t52.5 142.5t86.5 118.5t123.5 81t158.5 30q190 0 302 -137.5t112 -353.5q0 -99 -28 -191t-80.5 -167t-138 -120t-192.5 -45q-189 0 -301 136.5t-112 353.5zM795 469q0 170 -69 273.5t-196 103.5q-97 0 -165 -64q-93 -103 -93 -299
q0 -169 69.5 -270.5t197.5 -101.5q105 0 166 65q90 96 90 293zM420 1352l-23 100q67 23 119 23q89 0 142 -44.5t53 -125.5q0 -97 -72.5 -151.5t-192.5 -63.5l-14 98q72 13 109 37t37 71q0 68 -80 68q-37 0 -78 -12z" />
    <glyph glyph-name="uni1ED0" unicode="&#x1ed0;" horiz-adv-x="1400" 
d="M113 668q0 110 22 214t69.5 198.5t115.5 165.5t167 113t218 42q137 0 248.5 -54.5t184 -150t111.5 -221.5t39 -270q0 -110 -21.5 -214t-69 -199t-115 -166t-167 -113t-217.5 -42q-137 0 -249 55t-184.5 150t-112 221.5t-39.5 270.5zM1116 688q0 118 -27.5 220t-79 179
t-131 121.5t-178.5 44.5q-135 0 -229 -79q-95 -80 -140.5 -212t-45.5 -278q0 -158 47 -284.5t143 -203.5t227 -77q135 0 230 80q96 79 140 210t44 279zM641 1782l115 8l260 -213l-72 -92l-246 174l-243 -172l-70 94zM483 1950l428 176l47 -137v-9l-438 -137z" />
    <glyph glyph-name="uni1ED1" unicode="&#x1ed1;" horiz-adv-x="1067" 
d="M109 461q0 77 17 152t52.5 142.5t86.5 118.5t123.5 81t158.5 30q190 0 302 -137.5t112 -353.5q0 -99 -28 -191t-80.5 -167t-138 -120t-192.5 -45q-189 0 -301 136.5t-112 353.5zM795 469q0 170 -69 273.5t-196 103.5q-97 0 -165 -64q-93 -103 -93 -299
q0 -169 69.5 -270.5t197.5 -101.5q105 0 166 65q90 96 90 293zM477 1442l119 8l246 -291l-86 -78l-219 228l-224 -228l-82 78zM721 1481l244 331l110 -86v-10l-270 -299z" />
    <glyph glyph-name="uni1ED2" unicode="&#x1ed2;" horiz-adv-x="1400" 
d="M113 668q0 110 22 214t69.5 198.5t115.5 165.5t167 113t218 42q137 0 248.5 -54.5t184 -150t111.5 -221.5t39 -270q0 -110 -21.5 -214t-69 -199t-115 -166t-167 -113t-217.5 -42q-137 0 -249 55t-184.5 150t-112 221.5t-39.5 270.5zM1116 688q0 118 -27.5 220t-79 179
t-131 121.5t-178.5 44.5q-135 0 -229 -79q-95 -80 -140.5 -212t-45.5 -278q0 -158 47 -284.5t143 -203.5t227 -77q135 0 230 80q96 79 140 210t44 279zM641 1782l115 8l260 -213l-72 -92l-246 174l-243 -172l-70 94zM457 1989l47 137l428 -176l-37 -107l-438 137v9z" />
    <glyph glyph-name="uni1ED3" unicode="&#x1ed3;" horiz-adv-x="1067" 
d="M109 461q0 77 17 152t52.5 142.5t86.5 118.5t123.5 81t158.5 30q190 0 302 -137.5t112 -353.5q0 -99 -28 -191t-80.5 -167t-138 -120t-192.5 -45q-189 0 -301 136.5t-112 353.5zM795 469q0 170 -69 273.5t-196 103.5q-97 0 -165 -64q-93 -103 -93 -299
q0 -169 69.5 -270.5t197.5 -101.5q105 0 166 65q90 96 90 293zM477 1442l119 8l246 -291l-86 -78l-219 228l-224 -228l-82 78zM561 1726l113 86l241 -329l-84 -66l-270 299v10z" />
    <glyph glyph-name="uni1ED4" unicode="&#x1ed4;" horiz-adv-x="1400" 
d="M113 668q0 110 22 214t69.5 198.5t115.5 165.5t167 113t218 42q137 0 248.5 -54.5t184 -150t111.5 -221.5t39 -270q0 -110 -21.5 -214t-69 -199t-115 -166t-167 -113t-217.5 -42q-137 0 -249 55t-184.5 150t-112 221.5t-39.5 270.5zM1116 688q0 118 -27.5 220t-79 179
t-131 121.5t-178.5 44.5q-135 0 -229 -79q-95 -80 -140.5 -212t-45.5 -278q0 -158 47 -284.5t143 -203.5t227 -77q135 0 230 80q96 79 140 210t44 279zM641 1782l115 8l260 -213l-72 -92l-246 174l-243 -172l-70 94zM842 2011l-23 100q67 23 121 23q85 0 135.5 -39.5
t50.5 -118.5q0 -93 -70.5 -141.5t-187.5 -56.5l-14 96q68 12 103.5 32.5t35.5 61.5q0 55 -73 55q-38 0 -78 -12z" />
    <glyph glyph-name="uni1ED5" unicode="&#x1ed5;" horiz-adv-x="1067" 
d="M109 461q0 77 17 152t52.5 142.5t86.5 118.5t123.5 81t158.5 30q190 0 302 -137.5t112 -353.5q0 -99 -28 -191t-80.5 -167t-138 -120t-192.5 -45q-189 0 -301 136.5t-112 353.5zM795 469q0 170 -69 273.5t-196 103.5q-97 0 -165 -64q-93 -103 -93 -299
q0 -169 69.5 -270.5t197.5 -101.5q105 0 166 65q90 96 90 293zM477 1442l119 8l246 -291l-86 -78l-219 228l-224 -228l-82 78zM696 1688l-22 100q55 22 119 22q90 0 143 -44t53 -124q0 -98 -72.5 -152t-193.5 -65l-14 101q72 12 109.5 35.5t37.5 70.5q0 70 -80 70
q-29 0 -80 -14z" />
    <glyph glyph-name="uni1ED6" unicode="&#x1ed6;" horiz-adv-x="1400" 
d="M113 668q0 110 22 214t69.5 198.5t115.5 165.5t167 113t218 42q137 0 248.5 -54.5t184 -150t111.5 -221.5t39 -270q0 -110 -21.5 -214t-69 -199t-115 -166t-167 -113t-217.5 -42q-137 0 -249 55t-184.5 150t-112 221.5t-39.5 270.5zM1116 688q0 118 -27.5 220t-79 179
t-131 121.5t-178.5 44.5q-135 0 -229 -79q-95 -80 -140.5 -212t-45.5 -278q0 -158 47 -284.5t143 -203.5t227 -77q135 0 230 80q96 79 140 210t44 279zM831 1987q62 0 125 129l99 -50q-81 -204 -228 -204q-41 0 -77.5 20t-58 43.5t-48.5 43.5t-53 20q-58 0 -127 -125l-98 51
q92 196 233 196q40 0 75.5 -19.5t56.5 -42.5t48 -42.5t53 -19.5zM641 1782l115 8l260 -213l-72 -92l-246 174l-243 -172l-70 94z" />
    <glyph glyph-name="uni1ED7" unicode="&#x1ed7;" horiz-adv-x="1067" 
d="M109 461q0 77 17 152t52.5 142.5t86.5 118.5t123.5 81t158.5 30q190 0 302 -137.5t112 -353.5q0 -99 -28 -191t-80.5 -167t-138 -120t-192.5 -45q-189 0 -301 136.5t-112 353.5zM795 469q0 170 -69 273.5t-196 103.5q-97 0 -165 -64q-93 -103 -93 -299
q0 -169 69.5 -270.5t197.5 -101.5q105 0 166 65q90 96 90 293zM477 1438l119 6l246 -291l-86 -78l-219 228l-224 -228l-82 78zM684 1673q59 0 121 133l96 -45q-36 -100 -92.5 -157.5t-124.5 -57.5q-43 0 -80.5 20.5t-59.5 45t-50 45t-54 20.5q-32 0 -61.5 -34t-63.5 -97
l-96 51q87 209 223 209q41 0 78 -21t59.5 -45.5t50.5 -45.5t54 -21z" />
    <glyph glyph-name="uni1ED8" unicode="&#x1ed8;" horiz-adv-x="1400" 
d="M113 668q0 110 22 214t69.5 198.5t115.5 165.5t167 113t218 42q137 0 248.5 -54.5t184 -150t111.5 -221.5t39 -270q0 -110 -21.5 -214t-69 -199t-115 -166t-167 -113t-217.5 -42q-137 0 -249 55t-184.5 150t-112 221.5t-39.5 270.5zM1116 688q0 118 -27.5 220t-79 179
t-131 121.5t-178.5 44.5q-135 0 -229 -79q-95 -80 -140.5 -212t-45.5 -278q0 -158 47 -284.5t143 -203.5t227 -77q135 0 230 80q96 79 140 210t44 279zM596 -301q0 50 31 81.5t82 31.5q45 0 72.5 -28.5t27.5 -74.5q0 -50 -30 -80t-81 -30q-46 0 -74 27t-28 73zM641 1808
l115 9l260 -220l-72 -92l-246 178l-243 -176l-70 95z" />
    <glyph glyph-name="uni1ED9" unicode="&#x1ed9;" horiz-adv-x="1067" 
d="M109 461q0 77 17 152t52.5 142.5t86.5 118.5t123.5 81t158.5 30q190 0 302 -137.5t112 -353.5q0 -99 -28 -191t-80.5 -167t-138 -120t-192.5 -45q-189 0 -301 136.5t-112 353.5zM795 469q0 170 -69 273.5t-196 103.5q-97 0 -165 -64q-93 -103 -93 -299
q0 -169 69.5 -270.5t197.5 -101.5q105 0 166 65q90 96 90 293zM424 -301q0 50 31 81.5t82 31.5q45 0 72.5 -28.5t27.5 -74.5q0 -50 -30 -80t-81 -30q-46 0 -74 27t-28 73zM477 1464l119 6l246 -296l-86 -78l-219 233l-224 -233l-82 78z" />
    <glyph glyph-name="uni1EDA" unicode="&#x1eda;" horiz-adv-x="1400" 
d="M113 668q0 110 22 214t69.5 198.5t115.5 165.5t167 113t218 42q107 0 200 -35q52 -14 111 -14q106 0 106 92q0 56 -41 127l146 8q47 -73 47 -158q0 -160 -158 -200q84 -94 128 -227.5t44 -288.5q0 -110 -21.5 -214t-69 -199t-115 -166t-167 -113t-217.5 -42
q-137 0 -249 55t-184.5 150t-112 221.5t-39.5 270.5zM1116 688q0 118 -27.5 220t-79 179t-131 121.5t-178.5 44.5q-135 0 -229 -79q-95 -80 -140.5 -212t-45.5 -278q0 -158 47 -284.5t143 -203.5t227 -77q135 0 230 80q96 79 140 210t44 279zM520 1632l426 174l49 -139
l-2 -8l-436 -137z" />
    <glyph glyph-name="uni1EDB" unicode="&#x1edb;" horiz-adv-x="1071" 
d="M109 461q0 77 17 152t52.5 142.5t86.5 118.5t123.5 81t158.5 30q85 0 166 -33q40 -16 73 -16q95 0 95 84q0 54 -41 125l131 8q47 -73 47 -156q0 -141 -148 -178q91 -134 91 -325q0 -99 -28 -191t-80.5 -167t-138 -120t-192.5 -45q-189 0 -301 136.5t-112 353.5zM795 469
q0 170 -69 273.5t-196 103.5q-97 0 -165 -64q-93 -103 -93 -299q0 -169 69.5 -270.5t197.5 -101.5q105 0 166 65q90 96 90 293zM393 1174l312 313l98 -107v-10l-332 -278z" />
    <glyph glyph-name="uni1EDC" unicode="&#x1edc;" horiz-adv-x="1400" 
d="M113 668q0 110 22 214t69.5 198.5t115.5 165.5t167 113t218 42q107 0 200 -35q52 -14 111 -14q106 0 106 92q0 56 -41 127l146 8q47 -73 47 -158q0 -160 -158 -200q84 -94 128 -227.5t44 -288.5q0 -110 -21.5 -214t-69 -199t-115 -166t-167 -113t-217.5 -42
q-137 0 -249 55t-184.5 150t-112 221.5t-39.5 270.5zM1116 688q0 118 -27.5 220t-79 179t-131 121.5t-178.5 44.5q-135 0 -229 -79q-95 -80 -140.5 -212t-45.5 -278q0 -158 47 -284.5t143 -203.5t227 -77q135 0 230 80q96 79 140 210t44 279zM408 1667l49 139l426 -174
l-37 -110l-438 137v8z" />
    <glyph glyph-name="uni1EDD" unicode="&#x1edd;" horiz-adv-x="1071" 
d="M109 461q0 77 17 152t52.5 142.5t86.5 118.5t123.5 81t158.5 30q85 0 166 -33q40 -16 73 -16q95 0 95 84q0 54 -41 125l131 8q47 -73 47 -156q0 -141 -148 -178q91 -134 91 -325q0 -99 -28 -191t-80.5 -167t-138 -120t-192.5 -45q-189 0 -301 136.5t-112 353.5zM795 469
q0 170 -69 273.5t-196 103.5q-97 0 -165 -64q-93 -103 -93 -299q0 -169 69.5 -270.5t197.5 -101.5q105 0 166 65q90 96 90 293zM301 1380l100 107l312 -313l-78 -82l-334 278v10z" />
    <glyph glyph-name="uni1EDE" unicode="&#x1ede;" horiz-adv-x="1400" 
d="M113 668q0 110 22 214t69.5 198.5t115.5 165.5t167 113t218 42q107 0 200 -35q52 -14 111 -14q106 0 106 92q0 56 -41 127l146 8q47 -73 47 -158q0 -160 -158 -200q84 -94 128 -227.5t44 -288.5q0 -110 -21.5 -214t-69 -199t-115 -166t-167 -113t-217.5 -42
q-137 0 -249 55t-184.5 150t-112 221.5t-39.5 270.5zM1116 688q0 118 -27.5 220t-79 179t-131 121.5t-178.5 44.5q-135 0 -229 -79q-95 -80 -140.5 -212t-45.5 -278q0 -158 47 -284.5t143 -203.5t227 -77q135 0 230 80q96 79 140 210t44 279zM580 1745l-23 100q57 23 121 23
q87 0 136.5 -38.5t49.5 -117.5q0 -180 -258 -201l-14 99q68 10 103.5 30.5t35.5 61.5q0 57 -74 57q-26 0 -77 -14z" />
    <glyph glyph-name="uni1EDF" unicode="&#x1edf;" horiz-adv-x="1071" 
d="M109 461q0 77 17 152t52.5 142.5t86.5 118.5t123.5 81t158.5 30q85 0 166 -33q40 -16 73 -16q95 0 95 84q0 54 -41 125l131 8q47 -73 47 -156q0 -141 -148 -178q91 -134 91 -325q0 -99 -28 -191t-80.5 -167t-138 -120t-192.5 -45q-189 0 -301 136.5t-112 353.5zM795 469
q0 170 -69 273.5t-196 103.5q-97 0 -165 -64q-93 -103 -93 -299q0 -169 69.5 -270.5t197.5 -101.5q105 0 166 65q90 96 90 293zM420 1352l-23 100q67 23 119 23q89 0 142 -44.5t53 -125.5q0 -97 -72.5 -151.5t-192.5 -63.5l-14 98q72 13 109 37t37 71q0 68 -80 68
q-37 0 -78 -12z" />
    <glyph glyph-name="uni1EE0" unicode="&#x1ee0;" horiz-adv-x="1400" 
d="M113 668q0 110 22 214t69.5 198.5t115.5 165.5t167 113t218 42q107 0 200 -35q52 -14 111 -14q106 0 106 92q0 56 -41 127l146 8q47 -73 47 -158q0 -160 -158 -200q84 -94 128 -227.5t44 -288.5q0 -110 -21.5 -214t-69 -199t-115 -166t-167 -113t-217.5 -42
q-137 0 -249 55t-184.5 150t-112 221.5t-39.5 270.5zM1116 688q0 118 -27.5 220t-79 179t-131 121.5t-178.5 44.5q-135 0 -229 -79q-95 -80 -140.5 -212t-45.5 -278q0 -158 47 -284.5t143 -203.5t227 -77q135 0 230 80q96 79 140 210t44 279zM809 1651q61 0 127 139l100 -49
q-90 -221 -229 -221q-42 0 -78 21t-57.5 45.5t-48 45.5t-50.5 21q-60 0 -131 -133l-96 51q43 102 102 158.5t130 56.5q34 0 63 -14t49.5 -34t39 -39.5t38.5 -33.5t41 -14z" />
    <glyph glyph-name="uni1EE1" unicode="&#x1ee1;" horiz-adv-x="1071" 
d="M109 461q0 77 17 152t52.5 142.5t86.5 118.5t123.5 81t158.5 30q85 0 166 -33q40 -16 73 -16q95 0 95 84q0 54 -41 125l131 8q47 -73 47 -156q0 -141 -148 -178q91 -134 91 -325q0 -99 -28 -191t-80.5 -167t-138 -120t-192.5 -45q-189 0 -301 136.5t-112 353.5zM795 469
q0 170 -69 273.5t-196 103.5q-97 0 -165 -64q-93 -103 -93 -299q0 -169 69.5 -270.5t197.5 -101.5q105 0 166 65q90 96 90 293zM633 1247q59 0 115 133l96 -43q-31 -106 -85.5 -165.5t-123.5 -59.5q-42 0 -78.5 21t-57.5 45.5t-47.5 45.5t-50.5 21q-32 0 -59.5 -35
t-56.5 -98l-97 43q33 103 89 163t126 60q34 0 63 -13.5t50 -33t39.5 -38.5t38 -32.5t39.5 -13.5z" />
    <glyph glyph-name="uni1EE2" unicode="&#x1ee2;" horiz-adv-x="1400" 
d="M113 668q0 110 22 214t69.5 198.5t115.5 165.5t167 113t218 42q107 0 200 -35q52 -14 111 -14q106 0 106 92q0 56 -41 127l146 8q47 -73 47 -158q0 -160 -158 -200q84 -94 128 -227.5t44 -288.5q0 -110 -21.5 -214t-69 -199t-115 -166t-167 -113t-217.5 -42
q-137 0 -249 55t-184.5 150t-112 221.5t-39.5 270.5zM1116 688q0 118 -27.5 220t-79 179t-131 121.5t-178.5 44.5q-135 0 -229 -79q-95 -80 -140.5 -212t-45.5 -278q0 -158 47 -284.5t143 -203.5t227 -77q135 0 230 80q96 79 140 210t44 279zM596 -301q0 50 31 81.5t82 31.5
q45 0 72.5 -28.5t27.5 -74.5q0 -50 -30 -80t-81 -30q-46 0 -74 27t-28 73z" />
    <glyph glyph-name="uni1EE3" unicode="&#x1ee3;" horiz-adv-x="1071" 
d="M109 461q0 77 17 152t52.5 142.5t86.5 118.5t123.5 81t158.5 30q85 0 166 -33q40 -16 73 -16q95 0 95 84q0 54 -41 125l131 8q47 -73 47 -156q0 -141 -148 -178q91 -134 91 -325q0 -99 -28 -191t-80.5 -167t-138 -120t-192.5 -45q-189 0 -301 136.5t-112 353.5zM795 469
q0 170 -69 273.5t-196 103.5q-97 0 -165 -64q-93 -103 -93 -299q0 -169 69.5 -270.5t197.5 -101.5q105 0 166 65q90 96 90 293zM424 -301q0 50 31 81.5t82 31.5q45 0 72.5 -28.5t27.5 -74.5q0 -50 -30 -80t-81 -30q-46 0 -74 27t-28 73z" />
    <glyph glyph-name="uni1EE6" unicode="&#x1ee6;" horiz-adv-x="1302" 
d="M963 1372h163v-833q0 -129 -26.5 -229.5t-82.5 -178t-152 -119t-228 -41.5q-223 0 -341 129t-118 387v885h164v-848q0 -79 8.5 -139.5t30 -112.5t57 -85t90.5 -51.5t129 -18.5q63 0 117 21t86 52q103 97 103 306v876zM528 1745l-22 100q58 23 121 23q87 0 136.5 -38.5
t49.5 -117.5q0 -180 -258 -201l-14 99q68 10 103.5 30.5t35.5 61.5q0 57 -74 57q-27 0 -78 -14z" />
    <glyph glyph-name="uni1EE7" unicode="&#x1ee7;" horiz-adv-x="1075" 
d="M156 954l159 4v-596q0 -132 39 -191.5t125 -59.5q122 0 269 131v714h161v-577q0 -103 17 -369l-133 -18l-29 129q-150 -150 -324 -150q-284 0 -284 334v649zM412 1352l-23 100q67 23 119 23q88 0 141 -44.5t53 -125.5q0 -97 -72 -151.5t-192 -63.5l-14 98q72 13 108.5 37
t36.5 71q0 68 -80 68q-36 0 -77 -12z" />
    <glyph glyph-name="uni1EE8" unicode="&#x1ee8;" horiz-adv-x="1294" 
d="M963 1372h94q64 0 90.5 23t26.5 67q0 58 -41 129l145 8q47 -73 47 -159q0 -183 -199 -205v-696q0 -129 -26.5 -229.5t-82.5 -178t-152 -119t-228 -41.5q-223 0 -341 129t-118 387v885h164v-848q0 -79 8.5 -139.5t30 -112.5t57 -85t90.5 -51.5t129 -18.5q63 0 117 21
t86 52q103 97 103 306v876zM469 1632l426 174l49 -139l-2 -8l-436 -137z" />
    <glyph glyph-name="uni1EE9" unicode="&#x1ee9;" horiz-adv-x="1085" 
d="M932 1165l131 9q47 -68 47 -156q0 -83 -52 -130.5t-149 -56.5v-452q0 -103 17 -369l-133 -18l-29 129q-150 -150 -324 -150q-284 0 -284 334v649l159 4v-596q0 -132 39 -191.5t125 -59.5q122 0 269 131v714h110q65 0 90 20.5t25 63.5q0 54 -41 125zM385 1174l311 313
l99 -107v-10l-332 -278z" />
    <glyph glyph-name="uni1EEA" unicode="&#x1eea;" horiz-adv-x="1294" 
d="M963 1372h94q64 0 90.5 23t26.5 67q0 58 -41 129l145 8q47 -73 47 -159q0 -183 -199 -205v-696q0 -129 -26.5 -229.5t-82.5 -178t-152 -119t-228 -41.5q-223 0 -341 129t-118 387v885h164v-848q0 -79 8.5 -139.5t30 -112.5t57 -85t90.5 -51.5t129 -18.5q63 0 117 21
t86 52q103 97 103 306v876zM356 1667l50 139l425 -174l-36 -110l-439 137v8z" />
    <glyph glyph-name="uni1EEB" unicode="&#x1eeb;" horiz-adv-x="1085" 
d="M932 1165l131 9q47 -68 47 -156q0 -83 -52 -130.5t-149 -56.5v-452q0 -103 17 -369l-133 -18l-29 129q-150 -150 -324 -150q-284 0 -284 334v649l159 4v-596q0 -132 39 -191.5t125 -59.5q122 0 269 131v714h110q65 0 90 20.5t25 63.5q0 54 -41 125zM293 1380l100 107
l312 -313l-78 -82l-334 278v10z" />
    <glyph glyph-name="uni1EEC" unicode="&#x1eec;" horiz-adv-x="1294" 
d="M963 1372h94q64 0 90.5 23t26.5 67q0 58 -41 129l145 8q47 -73 47 -159q0 -183 -199 -205v-696q0 -129 -26.5 -229.5t-82.5 -178t-152 -119t-228 -41.5q-223 0 -341 129t-118 387v885h164v-848q0 -79 8.5 -139.5t30 -112.5t57 -85t90.5 -51.5t129 -18.5q63 0 117 21
t86 52q103 97 103 306v876zM528 1745l-22 100q58 23 121 23q87 0 136.5 -38.5t49.5 -117.5q0 -180 -258 -201l-14 99q68 10 103.5 30.5t35.5 61.5q0 57 -74 57q-27 0 -78 -14z" />
    <glyph glyph-name="uni1EED" unicode="&#x1eed;" horiz-adv-x="1085" 
d="M932 1165l131 9q47 -68 47 -156q0 -83 -52 -130.5t-149 -56.5v-452q0 -103 17 -369l-133 -18l-29 129q-150 -150 -324 -150q-284 0 -284 334v649l159 4v-596q0 -132 39 -191.5t125 -59.5q122 0 269 131v714h110q65 0 90 20.5t25 63.5q0 54 -41 125zM412 1352l-23 100
q67 23 119 23q88 0 141 -44.5t53 -125.5q0 -97 -72 -151.5t-192 -63.5l-14 98q72 13 108.5 37t36.5 71q0 68 -80 68q-36 0 -77 -12z" />
    <glyph glyph-name="uni1EEE" unicode="&#x1eee;" horiz-adv-x="1294" 
d="M963 1372h94q64 0 90.5 23t26.5 67q0 58 -41 129l145 8q47 -73 47 -159q0 -183 -199 -205v-696q0 -129 -26.5 -229.5t-82.5 -178t-152 -119t-228 -41.5q-223 0 -341 129t-118 387v885h164v-848q0 -79 8.5 -139.5t30 -112.5t57 -85t90.5 -51.5t129 -18.5q63 0 117 21
t86 52q103 97 103 306v876zM784 1651q61 0 127 139l101 -49q-90 -221 -230 -221q-42 0 -78 21t-57 45.5t-47.5 45.5t-50.5 21q-60 0 -131 -133l-96 51q90 215 231 215q33 0 62.5 -14t50 -34t39 -39.5t38.5 -33.5t41 -14z" />
    <glyph glyph-name="uni1EEF" unicode="&#x1eef;" horiz-adv-x="1085" 
d="M932 1165l131 9q47 -68 47 -156q0 -83 -52 -130.5t-149 -56.5v-452q0 -103 17 -369l-133 -18l-29 129q-150 -150 -324 -150q-284 0 -284 334v649l159 4v-596q0 -132 39 -191.5t125 -59.5q122 0 269 131v714h110q65 0 90 20.5t25 63.5q0 54 -41 125zM682 1247
q66 0 125 133l98 -47q-37 -106 -95.5 -163.5t-129.5 -57.5q-42 0 -78 21t-57.5 45.5t-48 45.5t-50.5 21q-18 0 -34 -9.5t-33.5 -31.5t-29 -39.5t-32.5 -52.5l-96 51q39 102 98.5 158.5t131.5 56.5q41 0 76.5 -20.5t56.5 -45t47.5 -45t50.5 -20.5z" />
    <glyph glyph-name="uni1EF0" unicode="&#x1ef0;" horiz-adv-x="1294" 
d="M963 1372h94q64 0 90.5 23t26.5 67q0 58 -41 129l145 8q47 -73 47 -159q0 -183 -199 -205v-696q0 -129 -26.5 -229.5t-82.5 -178t-152 -119t-228 -41.5q-223 0 -341 129t-118 387v885h164v-848q0 -79 8.5 -139.5t30 -112.5t57 -85t90.5 -51.5t129 -18.5q63 0 117 21
t86 52q103 97 103 306v876zM545 -301q0 50 30.5 81.5t81.5 31.5q46 0 73.5 -28.5t27.5 -74.5q0 -50 -30 -80t-81 -30q-46 0 -74 27t-28 73z" />
    <glyph glyph-name="uni1EF1" unicode="&#x1ef1;" horiz-adv-x="1085" 
d="M932 1165l131 9q47 -68 47 -156q0 -83 -52 -130.5t-149 -56.5v-452q0 -103 17 -369l-133 -18l-29 129q-150 -150 -324 -150q-284 0 -284 334v649l159 4v-596q0 -132 39 -191.5t125 -59.5q122 0 269 131v714h110q65 0 90 20.5t25 63.5q0 54 -41 125zM434 -301
q0 50 31 81.5t82 31.5q45 0 72.5 -28.5t27.5 -74.5q0 -50 -29.5 -80t-80.5 -30q-46 0 -74.5 27.5t-28.5 72.5z" />
    <glyph glyph-name="Ygrave" unicode="&#x1ef2;" horiz-adv-x="1105" 
d="M901 1372h168q-3 -13 -9 -27.5t-15 -33t-16 -30.5t-20 -35.5t-18 -33.5l-358 -649v-563h-164v563l-348 649q-64 106 -78 160h176l244 -457l94 -182h2zM264 1667l49 139l426 -174l-37 -110l-438 137v8z" />
    <glyph glyph-name="ygrave" unicode="&#x1ef3;" horiz-adv-x="980" 
d="M764 956h154q0 -44 -19 -90l-346 -938q-92 -229 -194 -331.5t-228 -102.5q-51 0 -86 6v129q132 0 222 87t169 284h-33l-315 866q-18 46 -18 90h163l205 -598q33 -94 49 -182h9zM264 1380l101 107l311 -313l-78 -82l-334 278v10z" />
    <glyph glyph-name="uni1EF6" unicode="&#x1ef6;" horiz-adv-x="1105" 
d="M901 1372h168q-3 -13 -9 -27.5t-15 -33t-16 -30.5t-20 -35.5t-18 -33.5l-358 -649v-563h-164v563l-348 649q-64 106 -78 160h176l244 -457l94 -182h2zM436 1745l-22 100q57 23 121 23q87 0 136.5 -38.5t49.5 -117.5q0 -180 -258 -201l-14 99q68 10 103.5 30.5t35.5 61.5
q0 57 -74 57q-27 0 -78 -14z" />
    <glyph glyph-name="uni1EF7" unicode="&#x1ef7;" horiz-adv-x="980" 
d="M764 956h154q0 -44 -19 -90l-346 -938q-92 -229 -194 -331.5t-228 -102.5q-51 0 -86 6v129q132 0 222 87t169 284h-33l-315 866q-18 46 -18 90h163l205 -598q33 -94 49 -182h9zM383 1352l-23 100q67 23 119 23q89 0 142 -44.5t53 -125.5q0 -97 -72 -151.5t-192 -63.5
l-15 98q72 13 109 37t37 71q0 68 -80 68q-37 0 -78 -12z" />
    <glyph glyph-name="uni1EF8" unicode="&#x1ef8;" horiz-adv-x="1105" 
d="M901 1372h168q-3 -13 -9 -27.5t-15 -33t-16 -30.5t-20 -35.5t-18 -33.5l-358 -649v-563h-164v563l-348 649q-64 106 -78 160h176l244 -457l94 -182h2zM676 1651q61 0 127 139l100 -49q-90 -221 -229 -221q-42 0 -78 21t-57.5 45.5t-48 45.5t-50.5 21q-60 0 -131 -133
l-96 51q90 215 231 215q41 0 76.5 -21t56.5 -46.5t47.5 -46.5t51.5 -21z" />
    <glyph glyph-name="uni1EF9" unicode="&#x1ef9;" horiz-adv-x="980" 
d="M764 956h154q0 -44 -19 -90l-346 -938q-92 -229 -194 -331.5t-228 -102.5q-51 0 -86 6v129q132 0 222 87t169 284h-33l-315 866q-18 46 -18 90h163l205 -598q33 -94 49 -182h9zM618 1247q66 0 125 133l99 -47q-37 -105 -96 -163t-130 -58q-42 0 -78 21t-57 45.5
t-47.5 45.5t-50.5 21q-18 0 -34 -9.5t-33.5 -31.5t-29 -39.5t-32.5 -52.5l-96 51q39 102 98 158.5t131 56.5q41 0 76.5 -20.5t56.5 -45t47.5 -45t50.5 -20.5z" />
    <glyph glyph-name="enspace" unicode="&#x2002;" horiz-adv-x="997" 
 />
    <glyph glyph-name="uni2003" unicode="&#x2003;" horiz-adv-x="1871" 
 />
    <glyph glyph-name="uni2009" unicode="&#x2009;" horiz-adv-x="163" 
 />
    <glyph glyph-name="uni2010" unicode="&#x2010;" horiz-adv-x="727" 
d="M147 557h433v-131h-433v131z" />
    <glyph glyph-name="uni2011" unicode="&#x2011;" horiz-adv-x="727" 
d="M147 557h433v-131h-433v131z" />
    <glyph glyph-name="endash" unicode="&#x2013;" horiz-adv-x="1099" 
d="M147 557h805v-131h-805v131z" />
    <glyph glyph-name="emdash" unicode="&#x2014;" horiz-adv-x="1943" 
d="M147 557h1649v-131h-1649v131z" />
    <glyph glyph-name="quoteleft" unicode="&#x2018;" horiz-adv-x="493" 
d="M125 1171q0 126 57.5 235.5t165.5 180.5l66 -53q-142 -139 -142 -354q0 -58 11 -133l-144 -11q-14 75 -14 135z" />
    <glyph glyph-name="quoteright" unicode="&#x2019;" horiz-adv-x="493" 
d="M225 1559l144 10q14 -75 14 -135q0 -126 -57.5 -235.5t-165.5 -180.5l-66 53q142 139 142 354q0 59 -11 134z" />
    <glyph glyph-name="quotesinglbase" unicode="&#x201a;" horiz-adv-x="471" 
d="M158 262l143 10q14 -75 14 -135q0 -126 -57.5 -235.5t-165.5 -180.5l-65 54q141 138 141 354q0 65 -10 133z" />
    <glyph glyph-name="quotedblleft" unicode="&#x201c;" horiz-adv-x="765" 
d="M395 1171q0 125 58.5 235t167.5 181l63 -53q-141 -141 -141 -354q0 -30 10 -133l-141 -11q-17 73 -17 135zM125 1171q0 126 57.5 235.5t165.5 180.5l66 -53q-142 -139 -142 -354q0 -58 11 -133l-144 -11q-14 75 -14 135z" />
    <glyph glyph-name="quotedblright" unicode="&#x201d;" horiz-adv-x="765" 
d="M498 1559l141 10q16 -69 16 -135q0 -126 -57.5 -235.5t-165.5 -180.5l-65 53q141 141 141 354q0 66 -10 134zM225 1559l144 10q14 -75 14 -135q0 -126 -57.5 -235.5t-165.5 -180.5l-66 53q142 139 142 354q0 59 -11 134z" />
    <glyph glyph-name="quotedblbase" unicode="&#x201e;" horiz-adv-x="743" 
d="M430 262l141 10q17 -73 17 -135q0 -126 -57.5 -235.5t-165.5 -180.5l-66 54q141 141 141 354q0 65 -10 133zM158 262l143 10q14 -75 14 -135q0 -126 -57.5 -235.5t-165.5 -180.5l-65 54q141 138 141 354q0 65 -10 133z" />
    <glyph glyph-name="dagger" unicode="&#x2020;" horiz-adv-x="892" 
d="M367 1239h163l-2 -283h252v-135h-254l-8 -1239h-137l-10 1239h-258v135h256z" />
    <glyph glyph-name="daggerdbl" unicode="&#x2021;" horiz-adv-x="892" 
d="M367 1239h163l-2 -283h252v-135h-254l-2 -383h256v-135h-256l-6 -721h-139l-6 721h-260v135h260l-2 383h-258v135h256z" />
    <glyph glyph-name="bullet" unicode="&#x2022;" horiz-adv-x="782" 
d="M618 512q0 -112 -61 -171.5t-166 -59.5q-104 0 -165.5 60t-61.5 171t61.5 171t165.5 60q105 0 166 -59.5t61 -171.5z" />
    <glyph glyph-name="ellipsis" unicode="&#x2026;" horiz-adv-x="1576" 
d="M1212 88q0 54 32.5 87.5t86.5 33.5q51 0 81 -30.5t30 -80.5q0 -56 -31.5 -90.5t-85.5 -34.5q-51 0 -82 32t-31 83zM135 88q0 54 32.5 87.5t86.5 33.5q51 0 81 -30.5t30 -80.5q0 -56 -31.5 -90.5t-85.5 -34.5q-51 0 -82 32t-31 83zM674 88q0 54 32.5 87.5t86.5 33.5
q51 0 80.5 -30.5t29.5 -80.5q0 -56 -31.5 -90.5t-85.5 -34.5q-51 0 -81.5 32t-30.5 83z" />
    <glyph glyph-name="perthousand" unicode="&#x2030;" horiz-adv-x="2119" 
d="M244 31l903 1384l100 -72l-903 -1382zM92 999q0 79 18 150t52 128t89.5 90.5t125.5 33.5q86 0 147 -52.5t89 -134t28 -182.5q0 -108 -30 -197.5t-96.5 -147.5t-158.5 -58q-86 0 -147.5 53t-89 134.5t-27.5 182.5zM498 1026q0 115 -31.5 186.5t-95.5 71.5q-41 0 -72 -31
q-63 -63 -63 -243q0 -76 12 -133.5t41 -94.5t71 -37q46 0 76 35q62 71 62 246zM850 342q0 106 30 195t96.5 147.5t158.5 58.5q86 0 147.5 -52t89 -133.5t27.5 -182.5q0 -109 -29.5 -198t-96 -147.5t-159.5 -58.5q-85 0 -146.5 53t-89.5 135t-28 183zM1255 369
q0 115 -31.5 186.5t-95.5 71.5q-37 0 -71 -31q-64 -67 -64 -244q0 -116 32 -190t95 -74q47 0 74 35q61 70 61 246zM1489 342q0 107 29.5 195.5t96 147t159.5 58.5q86 0 146.5 -52t88 -133.5t27.5 -182.5q0 -109 -29.5 -198t-95.5 -147.5t-158 -58.5q-86 0 -147.5 53t-89 135
t-27.5 183zM1892 369q0 115 -31 186.5t-94 71.5q-40 0 -71 -31q-64 -64 -64 -244q0 -117 31 -190.5t94 -73.5q46 0 76 35q59 71 59 246z" />
    <glyph glyph-name="uni2032" unicode="&#x2032;" horiz-adv-x="448" 
d="M178 1452h162l-92 -461l-109 -2z" />
    <glyph glyph-name="uni2033" unicode="&#x2033;" horiz-adv-x="681" 
d="M414 1452h159l-92 -461l-106 -2zM178 1452h162l-92 -461l-109 -2z" />
    <glyph glyph-name="guilsinglleft" unicode="&#x2039;" horiz-adv-x="649" 
d="M94 516l342 410l103 -68l-277 -364l279 -371l-105 -70l-340 414z" />
    <glyph glyph-name="guilsinglright" unicode="&#x203a;" horiz-adv-x="649" 
d="M111 858l102 68l344 -410l-4 -49l-340 -414l-104 70l278 371z" />
    <glyph glyph-name="fraction" unicode="&#x2044;" horiz-adv-x="176" 
d="M-416 31l903 1384l103 -72l-905 -1382z" />
    <glyph glyph-name="zerosuperior" unicode="&#x2070;" horiz-adv-x="733" 
d="M86 1202q0 106 31.5 195.5t99.5 148t160 58.5q87 0 149.5 -52.5t91.5 -134.5t29 -182q0 -108 -31 -197.5t-99 -148t-161 -58.5q-86 0 -148.5 52.5t-92 135t-29.5 183.5zM504 1227q0 114 -33.5 186t-97.5 72q-45 0 -72 -27q-35 -32 -53.5 -99t-18.5 -147q0 -114 35 -189
t98 -75q41 0 74 33q34 35 51 102t17 144z" />
    <glyph glyph-name="i.sups" unicode="&#x2071;" horiz-adv-x="370" 
d="M117 1440l137 2v-594h-137v592zM100 1620q0 38 25.5 61t67.5 23q36 0 58.5 -20.5t22.5 -53.5q0 -37 -25 -60.5t-65 -23.5q-37 0 -60.5 21t-23.5 53z" />
    <glyph glyph-name="foursuperior" unicode="&#x2074;" horiz-adv-x="698" 
d="M57 1118l328 473l139 -4v-473h99l4 -108h-103v-158h-133v158h-319zM338 1335l-148 -221h201v303h-2z" />
    <glyph glyph-name="fivesuperior" unicode="&#x2075;" horiz-adv-x="624" 
d="M109 1589h399l-6 -119h-269v-167q36 8 78 8q108 0 172 -58t64 -163q0 -119 -74.5 -189t-200.5 -70q-99 0 -190 37l33 105q92 -25 143 -25q56 0 94 27q54 35 54 112q0 58 -36 89.5t-106 31.5q-58 0 -121 -18l-34 12v387z" />
    <glyph glyph-name="sixsuperior" unicode="&#x2076;" horiz-adv-x="665" 
d="M86 1161q0 89 24 168t68 139.5t112 95.5t150 35q64 0 99 -14l-23 -110q-28 8 -59 8q-97 0 -154.5 -60t-73.5 -163q65 38 146 38q101 0 160 -59t59 -158q0 -106 -68.5 -178t-183.5 -72q-127 0 -191.5 94t-64.5 236zM346 948q49 0 76 27q39 36 39 100q0 59 -29 90t-84 31
q-65 0 -125 -37q4 -211 123 -211z" />
    <glyph glyph-name="sevensuperior" unicode="&#x2077;" horiz-adv-x="587" 
d="M63 1589h457l15 -119l-293 -647l-127 60l276 587h-323z" />
    <glyph glyph-name="eightsuperior" unicode="&#x2078;" horiz-adv-x="696" 
d="M115 1409q0 88 68 141.5t171 53.5q99 0 163.5 -51t64.5 -134q0 -101 -105 -186q135 -76 135 -189q0 -100 -75 -156.5t-191 -56.5q-120 0 -191 51t-71 144q0 118 139 207q-108 70 -108 176zM248 1407q0 -40 32.5 -66t106.5 -61q64 61 64 127q0 38 -27.5 61t-71.5 23
q-45 0 -69 -16q-35 -25 -35 -68zM348 942q48 0 86 23q43 25 43 79q0 42 -34 69t-113 65q-11 5 -17 8q-96 -67 -96 -144q0 -49 37 -74.5t94 -25.5z" />
    <glyph glyph-name="ninesuperior" unicode="&#x2079;" horiz-adv-x="665" 
d="M319 1235q62 0 125 39q-4 211 -125 211q-43 0 -77 -31q-35 -38 -35 -98q0 -58 28.5 -89.5t83.5 -31.5zM72 1352q0 105 69.5 176t184.5 71q128 0 191 -93t63 -234q0 -190 -97 -315.5t-258 -125.5q-59 0 -96 15l21 110q36 -8 61 -8q95 0 152 59.5t75 163.5
q-74 -38 -145 -38q-103 0 -162 60.5t-59 158.5z" />
    <glyph glyph-name="n.sups" unicode="&#x207f;" horiz-adv-x="763" 
d="M106 1436l111 16l27 -86q95 92 217 92q100 0 145 -53t45 -156v-401h-137v371q0 69 -20.5 101t-73.5 32q-68 0 -162 -68v-436h-139v348q0 67 -13 240z" />
    <glyph glyph-name="zeroinferior" unicode="&#x2080;" horiz-adv-x="733" 
d="M86 252q0 106 31.5 195t99.5 147.5t160 58.5q87 0 149.5 -52t91.5 -134t29 -182q0 -108 -31 -197.5t-99 -148t-161 -58.5q-86 0 -148.5 52.5t-92 135t-29.5 183.5zM504 276q0 114 -34 186.5t-97 72.5q-45 0 -72 -27q-35 -32 -53.5 -99t-18.5 -147q0 -114 35 -189t98 -75
q41 0 74 33q34 35 51 101.5t17 143.5z" />
    <glyph glyph-name="oneinferior" unicode="&#x2081;" horiz-adv-x="559" 
d="M76 561l194 80l113 -2v-629h113l4 -112h-412v112h156v494l-133 -41z" />
    <glyph glyph-name="twoinferior" unicode="&#x2082;" horiz-adv-x="628" 
d="M82 575q94 74 223 74q111 0 169 -59t58 -154q0 -99 -61.5 -187.5t-177.5 -195.5l-47 -43h293l4 -112h-457l-8 112l108 103q55 54 81.5 82t61.5 71t49.5 79t14.5 73q0 112 -114 112q-81 0 -150 -43z" />
    <glyph glyph-name="threeinferior" unicode="&#x2083;" horiz-adv-x="626" 
d="M82 584q91 65 217 65q100 0 157.5 -48t57.5 -134q0 -55 -26 -100.5t-72 -73.5q60 -22 92.5 -68t32.5 -110q0 -106 -69.5 -170t-192.5 -64q-124 0 -209 49l39 101q80 -33 159 -33q56 0 88 22q43 29 43 93q0 110 -155 110h-51l-5 105h54q62 0 97.5 31.5t35.5 84.5
q0 42 -27.5 66.5t-77.5 24.5q-69 0 -145 -39z" />
    <glyph glyph-name="fourinferior" unicode="&#x2084;" horiz-adv-x="698" 
d="M57 168l328 473l139 -4v-473h99l4 -109h-103v-157h-133v157h-319zM338 385l-148 -221h201v303h-2z" />
    <glyph glyph-name="fiveinferior" unicode="&#x2085;" horiz-adv-x="624" 
d="M109 639h399l-6 -119h-269v-168q36 8 78 8q108 0 172 -58t64 -163q0 -118 -74.5 -188t-200.5 -70q-99 0 -190 37l33 105q93 -25 143 -25q56 0 94 27q54 35 54 112q0 58 -36 89.5t-106 31.5q-58 0 -121 -18l-34 12v387z" />
    <glyph glyph-name="sixinferior" unicode="&#x2086;" horiz-adv-x="665" 
d="M86 211q0 89 24 168t68 139.5t112 95.5t150 35q64 0 99 -14l-23 -111q-28 8 -59 8q-97 0 -154.5 -60t-73.5 -163q67 39 146 39q101 0 160 -59t59 -158q0 -106 -68.5 -178t-183.5 -72q-127 0 -191.5 94t-64.5 236zM346 -2q49 0 76 27q39 36 39 100q0 59 -29 90t-84 31
q-65 0 -125 -37q4 -211 123 -211z" />
    <glyph glyph-name="seveninferior" unicode="&#x2087;" horiz-adv-x="587" 
d="M63 639h457l15 -119l-293 -647l-127 59l276 588h-323z" />
    <glyph glyph-name="eightinferior" unicode="&#x2088;" horiz-adv-x="696" 
d="M115 459q0 88 68 141t171 53q99 0 163.5 -50.5t64.5 -133.5q0 -101 -105 -186q135 -76 135 -189q0 -100 -75 -156.5t-191 -56.5q-120 0 -191 51t-71 144q0 118 139 207q-108 70 -108 176zM248 457q0 -40 32.5 -66t106.5 -61q64 61 64 127q0 38 -27.5 61t-71.5 23t-69 -17
q-35 -24 -35 -67zM348 -8q50 0 86 22q43 25 43 80q0 42 -34 69t-113 65q-11 5 -17 8q-96 -67 -96 -144q0 -49 37 -74.5t94 -25.5z" />
    <glyph glyph-name="nineinferior" unicode="&#x2089;" horiz-adv-x="665" 
d="M319 285q62 0 125 39q-4 211 -125 211q-43 0 -77 -31q-35 -38 -35 -98q0 -58 28.5 -89.5t83.5 -31.5zM72 401q0 105 69.5 176.5t184.5 71.5q128 0 191 -93t63 -234q0 -190 -97 -315.5t-258 -125.5q-59 0 -96 15l21 110q36 -8 61 -8q95 0 152 59.5t75 163.5
q-76 -39 -145 -39q-103 0 -162 60.5t-59 158.5z" />
    <glyph glyph-name="a.sinf" unicode="&#x2090;" horiz-adv-x="686" 
d="M94 410q123 94 266 94q109 0 159 -54.5t50 -170.5v-140q0 -60 13 -233l-109 -17l-27 86q-96 -90 -208 -90q-77 0 -122.5 40.5t-45.5 111.5q0 87 80 141q79 50 284 68v2q0 83 -21.5 115t-78.5 32q-86 0 -193 -63zM276 -16q74 0 158 69v111q-152 -13 -198 -43
q-37 -26 -37 -66q0 -71 77 -71z" />
    <glyph glyph-name="e.sinf" unicode="&#x2091;" horiz-adv-x="692" 
d="M80 182q0 141 79.5 233.5t213.5 92.5q117 0 179 -69.5t62 -180.5q0 -48 -10 -96h-385q6 -87 51 -128.5t121 -41.5q84 0 176 28l31 -88q-108 -47 -229 -47q-131 0 -210 77t-79 220zM369 406q-64 0 -102.5 -43t-47.5 -119h262q2 12 2 37q0 56 -29.5 90.5t-84.5 34.5z" />
    <glyph glyph-name="o.sinf" unicode="&#x2092;" horiz-adv-x="743" 
d="M80 186q0 132 79 227t220 95q131 0 208 -86.5t77 -218.5q0 -86 -31.5 -157.5t-100.5 -118t-165 -46.5q-134 0 -210.5 86t-76.5 219zM524 193q0 94 -39 152t-112 58q-50 0 -86 -28q-66 -54 -66 -178q0 -96 39.5 -153.5t114.5 -57.5q53 0 90 32q59 53 59 175z" />
    <glyph glyph-name="x.sinf" unicode="&#x2093;" horiz-adv-x="679" 
d="M70 492h141l131 -218h2l133 218h133q-2 -23 -28 -66l-152 -217l170 -246q27 -44 29 -65h-137l-156 237h-4l-148 -237h-131q2 25 29 63l168 244l-152 221q-24 39 -28 66z" />
    <glyph glyph-name="uni20AB" unicode="&#x20ab;" horiz-adv-x="1044" 
d="M459 330q109 0 252 133v366q-102 60 -217 60q-104 0 -162 -49q-86 -74 -86 -232q0 -125 55.5 -201.5t157.5 -76.5zM86 586q0 186 110 308t289 122q114 0 226 -66v199h-346v108h346v136h153v-136h164v-108h-164v-576q0 -79 19 -337l-129 -19l-27 131q-149 -149 -299 -149
q-143 0 -242 109.5t-100 277.5zM106 111h799v-111h-799v111z" />
    <glyph glyph-name="Euro" unicode="&#x20ac;" horiz-adv-x="1331" 
d="M233 659q0 51 7 119h-131l-3 123h156q26 105 75 192.5t120.5 156t172 107t220.5 38.5q207 0 364 -105l-63 -127q-150 84 -305 84q-137 0 -244 -76q-122 -88 -170 -270h529v-123h-549q-6 -50 -6 -104q0 -49 2 -74h553v-125h-533q36 -159 140.5 -254.5t283.5 -95.5
q158 0 324 76l49 -127q-189 -97 -394 -97q-241 0 -389.5 135.5t-191.5 362.5h-144l3 125h127q-3 30 -3 59z" />
    <glyph glyph-name="uni20B9" unicode="&#x20b9;" horiz-adv-x="1177" 
d="M145 514l33 135h64q409 0 454 242h-559v123h559q-22 114 -126 174.5t-279 60.5h-154v123h924v-123h-346q135 -86 155 -235h191v-123h-191q-24 -164 -160.5 -259t-355.5 -114l400 -354q51 -46 91.5 -92.5t47.5 -71.5h-188z" />
    <glyph glyph-name="uni20BA" unicode="&#x20ba;" horiz-adv-x="1112" 
d="M233 1372h164v-328l410 130l39 -117l-449 -142v-178l410 129l39 -116l-449 -142v-467q224 2 353 114.5t168 352.5l157 -30q-39 -285 -213 -431.5t-465 -146.5h-164v555l-139 -43l-39 117l178 55v178l-139 -43l-39 117l178 55v381z" />
    <glyph glyph-name="uni20BD" unicode="&#x20bd;" horiz-adv-x="1150" 
d="M197 1372h327q270 2 404.5 -96t134.5 -299q0 -210 -153 -320t-433 -110h-119v-156h465v-123h-465v-268h-161v268h-154v123h154v156h-154v127h154v698zM537 1237h-179v-563h113q202 0 312 73t110 222q0 144 -89 206t-267 62z" />
    <glyph glyph-name="uni2113" unicode="&#x2113;" horiz-adv-x="784" 
d="M428 -23q-115 0 -186.5 68.5t-71.5 216.5v168h-96v123h96v473q0 178 69 273.5t207 95.5q139 0 208 -99.5t69 -269.5q0 -258 -95 -406.5t-300 -181.5v-133q0 -105 33 -146.5t100 -41.5q57 0 127 28l37 -122q-98 -46 -197 -46zM449 1253q-66 0 -93.5 -54.5t-27.5 -166.5
v-465q130 32 185.5 139.5t55.5 313.5q0 233 -120 233z" />
    <glyph glyph-name="trademark" unicode="&#x2122;" horiz-adv-x="1638" 
d="M1264 1372h143l94 -686h-108l-58 412l-12 131h-2l-176 -543h-123l-133 412l-33 131h-4l-70 -543h-106l94 686h141l142 -430l30 -117h4zM92 1372h584l-4 -92h-230v-594h-118v594h-230z" />
    <glyph glyph-name="estimated" unicode="&#x212e;" horiz-adv-x="1656" 
d="M1395 162l26 -60q-114 -67 -245.5 -100t-323.5 -33q-165 0 -301 55t-225.5 150.5t-138 223t-48.5 272.5q0 104 24.5 205.5t80 197.5t135.5 169t200.5 117t266.5 44q165 0 294.5 -55t211 -151t124 -222t42.5 -273v-51h-1135v-424q170 -188 467 -188q314 0 545 123z
M850 1333q-297 0 -467 -184v-430h913v426q-154 188 -446 188z" />
    <glyph glyph-name="uni2150" unicode="&#x2150;" horiz-adv-x="1656" 
d="M139 1266l228 80l112 -3v-628h142l4 -113h-475v113h190v495l-168 -45zM324 31l903 1384l102 -72l-905 -1382zM1044 770h478l16 -119l-315 -647l-125 59l295 588h-344z" />
    <glyph glyph-name="uni2151" unicode="&#x2151;" horiz-adv-x="1656" 
d="M139 1266l228 80l112 -3v-628h142l4 -113h-475v113h190v495l-168 -45zM324 31l903 1384l102 -72l-905 -1382zM1270 416q61 0 127 39q-2 94 -32 152.5t-93 58.5q-47 0 -78 -31q-35 -38 -35 -98q0 -57 28.5 -89t82.5 -32zM1024 532q0 105 69 176.5t183 71.5q88 0 147.5 -47
t84 -118t24.5 -162q0 -190 -96.5 -315.5t-257.5 -125.5q-56 0 -99 15l23 110q36 -8 59 -8q97 0 154.5 60t75.5 165q-71 -41 -146 -41q-103 0 -162 60.5t-59 158.5z" />
    <glyph glyph-name="uni2153" unicode="&#x2153;" horiz-adv-x="1656" 
d="M139 1266l228 80l112 -3v-628h142l4 -113h-475v113h190v495l-168 -45zM324 31l903 1384l102 -72l-905 -1382zM1053 715q95 65 219 65q99 0 157 -48t58 -134q0 -54 -27 -100t-74 -74q127 -45 127 -178q0 -106 -70.5 -170t-193.5 -64q-124 0 -209 49l41 101q76 -33 160 -33
q53 0 86 23q43 29 43 92q0 110 -153 110h-54l-2 105h53q61 0 96.5 31.5t35.5 84.5q0 42 -27 66.5t-76 24.5q-74 0 -145 -39z" />
    <glyph glyph-name="uni2154" unicode="&#x2154;" horiz-adv-x="1656" 
d="M137 1280q90 74 223 74q111 0 169.5 -59t58.5 -154q0 -99 -62 -187.5t-178 -195.5l-47 -43h293l4 -113h-457l-8 113l109 102q55 54 81.5 82t61.5 71t49.5 79t14.5 73q0 53 -28.5 83t-86.5 30q-81 0 -150 -43zM324 31l903 1384l102 -72l-905 -1382zM1053 715q95 65 219 65
q99 0 157 -48t58 -134q0 -54 -27 -100t-74 -74q127 -45 127 -178q0 -106 -70.5 -170t-193.5 -64q-124 0 -209 49l41 101q76 -33 160 -33q53 0 86 23q43 29 43 92q0 110 -153 110h-54l-2 105h53q61 0 96.5 31.5t35.5 84.5q0 42 -27 66.5t-76 24.5q-74 0 -145 -39z" />
    <glyph glyph-name="uni2155" unicode="&#x2155;" horiz-adv-x="1656" 
d="M139 1266l228 80l112 -3v-628h142l4 -113h-475v113h190v495l-168 -45zM324 31l903 1384l102 -72l-905 -1382zM1081 770h400l-6 -119h-269v-168q40 9 78 9q108 0 172 -58.5t64 -163.5q0 -119 -75 -188.5t-202 -69.5q-101 0 -188 37l32 105q93 -25 144 -25q57 0 94 27
q53 35 53 112q0 58 -36.5 89.5t-104.5 31.5q-58 0 -121 -18l-35 12v387z" />
    <glyph glyph-name="uni2156" unicode="&#x2156;" horiz-adv-x="1656" 
d="M137 1280q90 74 223 74q111 0 169.5 -59t58.5 -154q0 -99 -62 -187.5t-178 -195.5l-47 -43h293l4 -113h-457l-8 113l109 102q55 54 81.5 82t61.5 71t49.5 79t14.5 73q0 53 -28.5 83t-86.5 30q-81 0 -150 -43zM324 31l903 1384l102 -72l-905 -1382zM1081 770h400l-6 -119
h-269v-168q40 9 78 9q108 0 172 -58.5t64 -163.5q0 -119 -75 -188.5t-202 -69.5q-101 0 -188 37l32 105q93 -25 144 -25q57 0 94 27q53 35 53 112q0 58 -36.5 89.5t-104.5 31.5q-58 0 -121 -18l-35 12v387z" />
    <glyph glyph-name="uni2157" unicode="&#x2157;" horiz-adv-x="1656" 
d="M137 1288q96 66 219 66q99 0 157 -48.5t58 -134.5q0 -55 -26.5 -100.5t-73.5 -73.5q127 -45 127 -178q0 -106 -70.5 -169.5t-193.5 -63.5q-124 0 -209 49l41 100q76 -33 160 -33q53 0 86 23q43 29 43 92q0 111 -154 111h-53l-2 104h53q61 0 96 32t35 85q0 42 -26.5 66
t-75.5 24q-75 0 -146 -39zM324 31l903 1384l102 -72l-905 -1382zM1081 770h400l-6 -119h-269v-168q40 9 78 9q108 0 172 -58.5t64 -163.5q0 -119 -75 -188.5t-202 -69.5q-101 0 -188 37l32 105q93 -25 144 -25q57 0 94 27q53 35 53 112q0 58 -36.5 89.5t-104.5 31.5
q-58 0 -121 -18l-35 12v387z" />
    <glyph glyph-name="uni2158" unicode="&#x2158;" horiz-adv-x="1656" 
d="M80 872l328 474l139 -5v-473h98l4 -108h-102v-158h-135v158h-318zM360 1090l-147 -222h199v303h-2zM324 31l903 1384l102 -72l-905 -1382zM1081 770h400l-6 -119h-269v-168q40 9 78 9q108 0 172 -58.5t64 -163.5q0 -119 -75 -188.5t-202 -69.5q-101 0 -188 37l32 105
q93 -25 144 -25q57 0 94 27q53 35 53 112q0 58 -36.5 89.5t-104.5 31.5q-58 0 -121 -18l-35 12v387z" />
    <glyph glyph-name="uni2159" unicode="&#x2159;" horiz-adv-x="1656" 
d="M139 1266l228 80l112 -3v-628h142l4 -113h-475v113h190v495l-168 -45zM324 31l903 1384l102 -72l-905 -1382zM1038 342q0 119 41 218t122.5 159.5t189.5 60.5q60 0 100 -14l-23 -111q-32 9 -61 9q-95 0 -153 -61t-74 -165q65 41 145 41q102 0 161.5 -59t59.5 -158
q0 -106 -69.5 -178t-184.5 -72q-127 0 -190.5 94t-63.5 236zM1298 129q49 0 76 27q39 36 39 100q0 59 -29 90t-84 31q-60 0 -126 -39q7 -209 124 -209z" />
    <glyph glyph-name="uni215A" unicode="&#x215a;" horiz-adv-x="1656" 
d="M166 1343h399l-6 -118h-268v-168q36 8 78 8q108 0 171.5 -58t63.5 -163q0 -119 -74.5 -188.5t-201.5 -69.5q-102 0 -189 37l33 104q92 -25 143 -25q57 0 95 27q53 35 53 113q0 58 -36.5 89.5t-104.5 31.5q-54 0 -121 -19l-35 12v387zM324 31l903 1384l102 -72l-905 -1382
zM1038 342q0 119 41 218t122.5 159.5t189.5 60.5q60 0 100 -14l-23 -111q-32 9 -61 9q-95 0 -153 -61t-74 -165q65 41 145 41q102 0 161.5 -59t59.5 -158q0 -106 -69.5 -178t-184.5 -72q-127 0 -190.5 94t-63.5 236zM1298 129q49 0 76 27q39 36 39 100q0 59 -29 90t-84 31
q-60 0 -126 -39q7 -209 124 -209z" />
    <glyph glyph-name="uni215B" unicode="&#x215b;" horiz-adv-x="1656" 
d="M139 1266l228 80l112 -3v-628h142l4 -113h-475v113h190v495l-168 -45zM324 31l903 1384l102 -72l-905 -1382zM1053 590q0 88 68 141t171 53q99 0 163.5 -50.5t64.5 -133.5q0 -99 -107 -186q137 -76 137 -189q0 -100 -75 -156.5t-191 -56.5q-121 0 -191.5 50.5
t-70.5 144.5q0 66 36.5 115.5t102.5 91.5q-108 70 -108 176zM1186 588q0 -40 32.5 -66t106.5 -61q61 61 61 127q0 38 -26 61t-70 23t-69 -17q-35 -25 -35 -67zM1286 123q47 0 86 22q43 25 43 80q0 22 -9 39.5t-33 34.5t-41.5 27t-58.5 30q-15 7 -22 11q-96 -67 -96 -144
q0 -49 37 -74.5t94 -25.5z" />
    <glyph glyph-name="uni215C" unicode="&#x215c;" horiz-adv-x="1656" 
d="M137 1288q96 66 219 66q99 0 157 -48.5t58 -134.5q0 -55 -26.5 -100.5t-73.5 -73.5q127 -45 127 -178q0 -106 -70.5 -169.5t-193.5 -63.5q-124 0 -209 49l41 100q76 -33 160 -33q53 0 86 23q43 29 43 92q0 111 -154 111h-53l-2 104h53q61 0 96 32t35 85q0 42 -26.5 66
t-75.5 24q-75 0 -146 -39zM324 31l903 1384l102 -72l-905 -1382zM1053 590q0 88 68 141t171 53q99 0 163.5 -50.5t64.5 -133.5q0 -99 -107 -186q137 -76 137 -189q0 -100 -75 -156.5t-191 -56.5q-121 0 -191.5 50.5t-70.5 144.5q0 66 36.5 115.5t102.5 91.5
q-108 70 -108 176zM1186 588q0 -40 32.5 -66t106.5 -61q61 61 61 127q0 38 -26 61t-70 23t-69 -17q-35 -25 -35 -67zM1286 123q47 0 86 22q43 25 43 80q0 22 -9 39.5t-33 34.5t-41.5 27t-58.5 30q-15 7 -22 11q-96 -67 -96 -144q0 -49 37 -74.5t94 -25.5z" />
    <glyph glyph-name="uni215D" unicode="&#x215d;" horiz-adv-x="1656" 
d="M166 1343h399l-6 -118h-268v-168q36 8 78 8q108 0 171.5 -58t63.5 -163q0 -119 -74.5 -188.5t-201.5 -69.5q-102 0 -189 37l33 104q92 -25 143 -25q57 0 95 27q53 35 53 113q0 58 -36.5 89.5t-104.5 31.5q-54 0 -121 -19l-35 12v387zM324 31l903 1384l102 -72l-905 -1382
zM1053 590q0 88 68 141t171 53q99 0 163.5 -50.5t64.5 -133.5q0 -99 -107 -186q137 -76 137 -189q0 -100 -75 -156.5t-191 -56.5q-121 0 -191.5 50.5t-70.5 144.5q0 66 36.5 115.5t102.5 91.5q-108 70 -108 176zM1186 588q0 -40 32.5 -66t106.5 -61q61 61 61 127
q0 38 -26 61t-70 23t-69 -17q-35 -25 -35 -67zM1286 123q47 0 86 22q43 25 43 80q0 22 -9 39.5t-33 34.5t-41.5 27t-58.5 30q-15 7 -22 11q-96 -67 -96 -144q0 -49 37 -74.5t94 -25.5z" />
    <glyph glyph-name="uni215E" unicode="&#x215e;" horiz-adv-x="1656" 
d="M129 1343h477l17 -118l-316 -647l-125 59l295 588h-344zM324 31l903 1384l102 -72l-905 -1382zM1053 590q0 88 68 141t171 53q99 0 163.5 -50.5t64.5 -133.5q0 -99 -107 -186q137 -76 137 -189q0 -100 -75 -156.5t-191 -56.5q-121 0 -191.5 50.5t-70.5 144.5
q0 66 36.5 115.5t102.5 91.5q-108 70 -108 176zM1186 588q0 -40 32.5 -66t106.5 -61q61 61 61 127q0 38 -26 61t-70 23t-69 -17q-35 -25 -35 -67zM1286 123q47 0 86 22q43 25 43 80q0 22 -9 39.5t-33 34.5t-41.5 27t-58.5 30q-15 7 -22 11q-96 -67 -96 -144q0 -49 37 -74.5
t94 -25.5z" />
    <glyph glyph-name="uni2190" unicode="&#x2190;" horiz-adv-x="1691" 
d="M51 520l621 484l84 -107l-269 -211l-174 -117h1338v-129h-1338l174 -116l267 -209l-84 -109l-619 486v28z" />
    <glyph glyph-name="uni2191" unicode="&#x2191;" horiz-adv-x="1091" 
d="M532 1501h29l483 -620l-106 -84l-211 268l-115 172v-1393h-133v1393l-114 -172l-209 -266l-109 84z" />
    <glyph glyph-name="uni2192" unicode="&#x2192;" horiz-adv-x="1691" 
d="M936 897l86 107l618 -484v-28l-616 -486l-86 109l266 209l176 116h-1337v129h1337l-176 117z" />
    <glyph glyph-name="uni2193" unicode="&#x2193;" horiz-adv-x="1091" 
d="M479 1501h133v-1395l115 173l211 268l106 -84l-483 -619h-29l-485 617l109 84l209 -264l114 -175v1395z" />
    <glyph glyph-name="uni2194" unicode="&#x2194;" horiz-adv-x="2654" 
d="M1903 897l86 107l614 -484v-28l-612 -486l-86 109l260 209l176 116h-2028l174 -116l261 -209l-84 -109l-613 486v28l615 484l84 -107l-263 -211l-174 -117h2030l-176 117z" />
    <glyph glyph-name="uni2195" unicode="&#x2195;" horiz-adv-x="1091" 
d="M532 1491h29l483 -621l-106 -84l-213 269l-113 170v-1491l113 170l213 268l106 -84l-483 -620h-29l-485 618l109 84l209 -266l114 -172v1497l-114 -176l-209 -265l-109 84z" />
    <glyph glyph-name="uni2196" unicode="&#x2196;" horiz-adv-x="1210" 
d="M125 1255l22 19l742 -201l-35 -129l-317 88l-195 64l817 -1106l-104 -78l-813 1100l12 -199l-10 -340l-135 2z" />
    <glyph glyph-name="uni2197" unicode="&#x2197;" horiz-adv-x="1210" 
d="M322 1073l741 201l22 -19l15 -780l-133 -2l-13 340l15 199l-813 -1100l-105 78l817 1106l-194 -64l-318 -88z" />
    <glyph glyph-name="uni2198" unicode="&#x2198;" horiz-adv-x="1210" 
d="M51 1243l105 78l813 -1100l-15 201l13 338l133 -2l-15 -781l-22 -16l-741 199l34 131l318 -90l194 -64z" />
    <glyph glyph-name="uni2199" unicode="&#x2199;" horiz-adv-x="1210" 
d="M147 -39l-22 16l-16 781l135 2l10 -338l-12 -201l813 1100l104 -78l-817 -1106l195 64l317 90l35 -131z" />
    <glyph glyph-name="uni219E" unicode="&#x219e;" horiz-adv-x="2029" 
d="M590 520l618 484l86 -109l-268 -211l-174 -115h1137v-129h-1137l174 -116l268 -211l-84 -107l-620 483v31zM51 520l598 516l90 -104l-489 -428l489 -428l-90 -103l-598 516v31z" />
    <glyph glyph-name="uni219F" unicode="&#x219f;" horiz-adv-x="1157" 
d="M565 961h29l483 -619l-106 -86l-211 268l-115 172v-1138h-133v1138l-115 -172l-209 -266l-108 86zM565 1501h29l516 -600l-102 -90l-428 489l-428 -487l-105 90z" />
    <glyph glyph-name="uni21A0" unicode="&#x21a0;" horiz-adv-x="2029" 
d="M737 895l84 109l619 -484v-31l-619 -483l-84 107l267 211l174 116h-1135v129h1135l-174 115zM1290 932l90 104l598 -516v-31l-598 -516l-90 103l490 428z" />
    <glyph glyph-name="uni21A1" unicode="&#x21a1;" horiz-adv-x="1157" 
d="M512 1501h133v-1139l115 173l211 268l106 -86l-483 -619h-29l-485 617l108 86l209 -266l115 -173v1139zM47 156l105 90l428 -488l428 490l102 -90l-516 -600h-29z" />
    <glyph glyph-name="uni21B0" unicode="&#x21b0;" horiz-adv-x="1536" 
d="M51 520l621 484l84 -107l-269 -211l-174 -117h1059v-999h-131v870h-928l174 -116l267 -209l-84 -109l-619 486v28z" />
    <glyph glyph-name="uni21B1" unicode="&#x21b1;" horiz-adv-x="1536" 
d="M780 897l84 107l621 -484v-28l-619 -486l-84 109l267 209l174 116h-928v-870h-131v999h1059l-174 117z" />
    <glyph glyph-name="uni21B2" unicode="&#x21b2;" horiz-adv-x="1536" 
d="M1241 1440h131v-1000h-1059l174 -116l269 -211l-84 -107l-621 483v29l619 486l84 -109l-267 -209l-174 -117h928v871z" />
    <glyph glyph-name="uni21B3" unicode="&#x21b3;" horiz-adv-x="1536" 
d="M164 1440h131v-871h928l-174 117l-267 209l84 109l619 -486v-29l-621 -483l-84 107l269 211l174 116h-1059v1000z" />
    <glyph glyph-name="uni21B4" unicode="&#x21b4;" horiz-adv-x="1597" 
d="M43 569h1073v-800l117 174l211 268l106 -84l-483 -621h-29l-483 619l107 84l208 -264l117 -176v671h-944v129z" />
    <glyph glyph-name="uni21BC" unicode="&#x21bc;" horiz-adv-x="1703" 
d="M29 469l651 535l84 -109l-262 -209l-156 -117h1315v-129h-1632v29z" />
    <glyph glyph-name="uni21BD" unicode="&#x21bd;" horiz-adv-x="1703" 
d="M29 569h1632v-129h-1315l156 -116l262 -209l-84 -109l-651 535v28z" />
    <glyph glyph-name="uni21BE" unicode="&#x21be;" horiz-adv-x="804" 
d="M193 1530h30l535 -649l-109 -86l-211 260l-110 153v-1368h-135v1690z" />
    <glyph glyph-name="uni21BF" unicode="&#x21bf;" horiz-adv-x="804" 
d="M582 1530h30v-1690h-133v1370l-112 -155l-211 -260l-109 86z" />
    <glyph glyph-name="uni21C0" unicode="&#x21c0;" horiz-adv-x="1703" 
d="M940 895l84 109l651 -535v-29h-1632v129h1317l-158 117z" />
    <glyph glyph-name="uni21C1" unicode="&#x21c1;" horiz-adv-x="1703" 
d="M43 569h1632v-28l-651 -535l-84 109l262 209l158 116h-1317v129z" />
    <glyph glyph-name="uni21C2" unicode="&#x21c2;" horiz-adv-x="804" 
d="M193 1530h135v-1368l110 153l211 260l109 -83l-535 -652h-30v1690z" />
    <glyph glyph-name="uni21C3" unicode="&#x21c3;" horiz-adv-x="804" 
d="M479 1530h133v-1690h-30l-535 652l109 83l211 -260l112 -155v1370z" />
    <glyph glyph-name="uni21C4" unicode="&#x21c4;" horiz-adv-x="1732" 
d="M991 1391l86 108l604 -479v-29l-600 -483l-86 106l248 205l176 121h-1364v131h1362l-172 117zM51 55l600 484l86 -107l-250 -205l-172 -121h1362v-131h-1364l174 -118l254 -203l-88 -107l-602 480v28z" />
    <glyph glyph-name="uni21C5" unicode="&#x21c5;" horiz-adv-x="2076" 
d="M1470 1497h132v-1395l116 172l205 256l107 -88l-480 -604h-28l-480 602l109 88l201 -252l118 -178v1399zM526 1501h29l479 -604l-106 -88l-205 256l-117 172v-1395h-131v1399l-119 -178l-200 -252l-109 88z" />
    <glyph glyph-name="uni21C6" unicode="&#x21c6;" horiz-adv-x="1732" 
d="M51 1020l604 479l86 -108l-254 -203l-172 -117h1362v-131h-1364l174 -121l250 -205l-88 -106l-598 483v29zM993 432l88 107l600 -484v-28l-604 -480l-86 107l254 203l174 118h-1364v131h1362l-172 121z" />
    <glyph glyph-name="uni21C7" unicode="&#x21c7;" horiz-adv-x="1691" 
d="M51 1020l582 457l84 -107l-230 -180l-172 -119h1336v-131h-1338l174 -115l228 -172l-82 -106l-582 444v29zM51 55l582 445l84 -107l-230 -172l-172 -115h1336v-131h-1338l174 -120l228 -179l-82 -106l-582 457v28z" />
    <glyph glyph-name="uni21C8" unicode="&#x21c8;" horiz-adv-x="2076" 
d="M1522 1501h28l480 -606l-109 -86l-203 256l-116 172v-1395h-132v1397l-116 -176l-199 -252l-106 84zM526 1501h29l473 -606l-106 -86l-201 256l-115 172v-1395h-131v1399l-119 -178l-200 -252l-109 84z" />
    <glyph glyph-name="uni21C9" unicode="&#x21c9;" horiz-adv-x="1691" 
d="M975 1370l84 107l581 -457v-29l-579 -444l-84 106l227 172l176 115h-1337v131h1335l-174 119zM975 393l84 107l581 -445v-28l-579 -457l-84 106l227 179l176 120h-1337v131h1333l-172 115z" />
    <glyph glyph-name="uni21CA" unicode="&#x21ca;" horiz-adv-x="2076" 
d="M1470 1501h132v-1395l116 173l203 253l109 -83l-480 -607h-28l-473 607l106 83l199 -251l116 -177v1397zM475 1501h131v-1395l115 173l201 253l106 -83l-473 -607h-29l-479 607l109 83l200 -251l119 -179v1399z" />
    <glyph glyph-name="uni21CB" unicode="&#x21cb;" horiz-adv-x="1689" 
d="M29 680l534 407l86 -108l-135 -100l-162 -103h1309v-127h-1632v31zM29 360h1632v-30l-535 -408l-84 109l136 98l157 102l-1306 2v127z" />
    <glyph glyph-name="uni21CC" unicode="&#x21cc;" horiz-adv-x="1689" 
d="M1042 979l84 108l535 -407v-31h-1632v127h1308l-159 103zM29 360h1632v-127l-1307 -2l160 -102l135 -98l-86 -109l-534 408v30z" />
    <glyph glyph-name="uni21CD" unicode="&#x21cd;" horiz-adv-x="1937" 
d="M406 360h677l138 289h-815l-166 -143zM51 520l641 567l92 -108l-125 -102l-129 -101h750l135 287l113 -53l-111 -234h469v-127h-528l-135 -289h663v-127h-723l-135 -286l-113 55l109 231h-494l134 -104l118 -98l-92 -109l-639 567v31z" />
    </font>
</defs>
</svg>
