<?xml version="1.0" standalone="no"?>
<!DOCTYPE svg PUBLIC "-//W3C//DTD SVG 1.1//EN" "http://www.w3.org/Graphics/SVG/1.1/DTD/svg11.dtd" >
<svg xmlns="http://www.w3.org/2000/svg" xmlns:xlink="http://www.w3.org/1999/xlink" version="1.1">
<metadata>
Created by FontForge 20170731 at Fri Aug 27 18:28:12 2021
 By Aleksey,,,
Copyright (c) 2014-16 by David Brezina. All rights reserved.
</metadata>
<defs>
<font id="SkolarSansLatn-Bl" horiz-adv-x="1243" >
  <font-face 
    font-family="Skolar Sans Latn Bl"
    font-weight="900"
    font-stretch="normal"
    units-per-em="2048"
    panose-1="2 13 0 0 0 4 0 0 0 0"
    ascent="1536"
    descent="-512"
    x-height="1030"
    cap-height="1372"
    bbox="-461 -705 3109 2546"
    underline-thickness="51"
    underline-position="-316"
    unicode-range="U+000D-FC01"
  />
<missing-glyph horiz-adv-x="1214" 
d="M123 1358h967v-1358h-967v1358zM936 98l-330 494l-330 -494h660zM547 678l-328 493v-989zM993 182v989l-329 -493zM606 766l330 494h-660z" />
    <glyph glyph-name="f_b" unicode="fb" horiz-adv-x="1988" 
d="M1382 287q44 0 62 26q29 42 29 203q0 115 -18 175.5t-64 60.5q-26 0 -66 -21v-440q40 -4 57 -4zM41 1030h143q2 244 126.5 386.5t365.5 142.5q174 0 336 -48l313 29v-569q89 86 203 86q189 0 304.5 -144.5t115.5 -369.5q0 -170 -64.5 -296t-199.5 -198t-328 -72
q-256 0 -486 68v1188q-55 10 -114 10q-68 0 -93.5 -33t-25.5 -110v-70h123v-307h-123v-723h-453v723h-143v307z" />
    <glyph glyph-name="f_f" unicode="ff" horiz-adv-x="1556" 
d="M637 1063v-33h233q3 88 29 182q-76 17 -135 17q-81 0 -104 -36.5t-23 -129.5zM41 1030h143q10 235 147 370.5t363 135.5q184 0 359 -84q129 107 323 107q176 0 318 -78l-92 -283q-86 27 -164 27q-69 0 -92 -39t-23 -137v-19h217v-307h-217v-723h-453v723h-233v-723h-453
v723h-143v307z" />
    <glyph glyph-name="f_h" unicode="fh" horiz-adv-x="2002" 
d="M41 1030h143q2 120 32.5 216t91 166.5t156 108.5t220.5 38q175 0 328 -48l313 29v-565q104 82 258 82q164 0 256 -89.5t92 -265.5l-2 -702h-467v635q0 49 -14 69.5t-47 20.5q-35 0 -76 -12v-713h-455v1233q-52 10 -116 10q-66 0 -91.5 -34t-25.5 -111v-68h125v-307h-125
v-723h-453v723h-143v307z" />
    <glyph glyph-name="f_i" unicode="fi" horiz-adv-x="1402" 
d="M41 1030h145q12 247 156.5 388t421.5 141q153 0 288 -32t214 -71l-103 -280q-63 17 -166.5 33t-171.5 16q-109 0 -148.5 -38.5t-39.5 -142.5v-14h688v-1030h-453v723h-235v-723h-453v723h-143v307z" />
    <glyph glyph-name="f_iacute" unicode="f&#xed;" horiz-adv-x="1402" 
d="M41 1030h143q5 244 131.5 386.5t360.5 142.5q152 0 258 -62l-92 -287q-57 15 -92 15q-60 0 -86.5 -34t-26.5 -101v-60h688v-1030h-453v723h-235v-723h-453v723h-143v307zM934 1253l309 461l221 -180l9 -33l-383 -371z" />
    <glyph glyph-name="f_j" unicode="fj" horiz-adv-x="1406" 
d="M41 1030h145q12 246 156 387.5t414 141.5q151 0 291 -32t219 -71l-103 -278q-62 17 -167.5 32t-184.5 15q-91 0 -132.5 -38t-41.5 -124v-33h692v-887q0 -237 -106 -407.5t-293 -255.5l-207 233q151 174 151 428v582h-235l2 -723h-457v723h-143v307z" />
    <glyph glyph-name="f_l" unicode="fl" horiz-adv-x="1452" 
d="M41 1030h143q3 121 33.5 216.5t90 166.5t155 108.5t221.5 37.5q172 0 326 -48l313 29v-1120q0 -48 13 -67t46 -19h27l31 -305q-67 -24 -148.5 -38t-144.5 -14q-131 0 -200.5 69t-76.5 218v969q-55 10 -116 10q-68 0 -92.5 -34t-24.5 -113v-66h125v-307h-125v-723h-453
v723h-143v307z" />
    <glyph glyph-name="f_lcaron" unicode="f&#x13e;" horiz-adv-x="1478" 
d="M41 1030h143q3 121 33.5 216.5t90 166.5t155 108.5t221.5 37.5q172 0 326 -48l313 29v-1120q0 -48 13 -67t46 -19h27l31 -305q-67 -24 -148.5 -38t-144.5 -14q-131 0 -200.5 69t-76.5 218v969q-55 10 -116 10q-68 0 -92.5 -34t-24.5 -113v-66h125v-307h-125v-723h-453
v723h-143v307zM1399 1638l319 9l13 -15l-84 -497h-248v503z" />
    <glyph glyph-name="f_t" unicode="ft" horiz-adv-x="1644" 
d="M952 1364h371v-334h279v-307h-279v-260q0 -87 24 -120.5t85 -33.5q65 0 139 19l65 -262q-174 -89 -397 -89q-369 0 -369 365v381h-233v-723h-453v723h-143v307h143v25q0 112 22.5 201t70.5 158.5t131.5 107t197.5 37.5q150 0 281 -58l-72 -270q-40 12 -94 12
q-84 0 -84 -92v-121h213z" />
    <glyph glyph-name="f_f_i" unicode="ffi" horiz-adv-x="2076" 
d="M41 1030h143q10 235 147 370.5t363 135.5q196 0 365 -88q139 111 387 111q129 0 261.5 -28t227.5 -75l-102 -280q-60 18 -163.5 33.5t-178.5 15.5q-102 0 -135 -35.5t-33 -120.5v-39h674v-1030h-453v723h-221v-723h-451v723h-235v-723h-453v723h-143v307zM637 1063v-33
h237q3 90 29 180q-85 19 -137 19q-44 0 -70 -8.5t-39 -31.5t-16.5 -49.5t-3.5 -76.5z" />
    <glyph glyph-name="f_f_b" unicode="ffb" horiz-adv-x="2660" 
d="M2054 287q44 0 62 26q28 40 28 203q0 74 -7 124t-26 81t-51 31q-24 0 -65 -23v-438q40 -4 59 -4zM41 1030h143q11 233 146 369.5t366 136.5q85 0 180.5 -23t172.5 -61q123 107 294 107q198 0 340 -48l312 29v-569q89 86 205 86q188 0 303.5 -145t115.5 -369
q-2 -260 -153 -413t-438 -153q-256 0 -486 68v1188q-58 10 -119 10q-59 0 -79.5 -31.5t-20.5 -103.5v-78h109v-307h-109v-723h-453v723h-233v-723h-453v723h-143v307zM637 1063v-33h233q0 86 27 182q-73 17 -131 17q-80 0 -104.5 -34.5t-24.5 -131.5z" />
    <glyph glyph-name="f_f_h" unicode="ffh" horiz-adv-x="2672" 
d="M41 1030h143q11 233 146 369.5t366 136.5q176 0 342 -78q122 101 316 101q166 0 327 -48l314 29v-565q104 82 258 82q164 0 256 -89.5t92 -265.5v-702h-469v635q0 49 -14 69.5t-47 20.5q-35 0 -76 -12v-713h-453v1233q-52 10 -121 10q-56 0 -77 -33t-21 -104v-76h98v-307
h-98v-723h-453v723h-233v-723h-453v723h-143v307zM637 1063v-33h233q3 95 25 182q-73 17 -129 17q-80 0 -104.5 -34.5t-24.5 -131.5z" />
    <glyph glyph-name="f_f_j" unicode="ffj" horiz-adv-x="2076" 
d="M41 1030h143q10 235 147 370.5t363 135.5q192 0 365 -88q139 111 387 111q129 0 261.5 -28t227.5 -75l-102 -280q-60 18 -163.5 33.5t-178.5 15.5q-96 0 -132 -36.5t-36 -119.5v-39h674v-887q0 -234 -102 -405.5t-275 -257.5l-227 233q151 174 151 428v582h-221v-723
h-453v723h-233v-723h-453v723h-143v307zM637 1063v-33h235q3 90 29 180q-82 19 -135 19q-44 0 -70 -8.5t-39 -31.5t-16.5 -49.5t-3.5 -76.5z" />
    <glyph glyph-name="f_f_l" unicode="ffl" horiz-adv-x="2123" 
d="M41 1030h143q8 229 143.5 367.5t364.5 138.5q192 0 357 -84q129 107 327 107q75 0 164 -14.5t141 -33.5l314 29v-1120q0 -48 13 -67t46 -19h29l28 -305q-67 -24 -148.5 -38t-143.5 -14q-277 0 -277 287v969q-62 10 -104 10q-63 0 -89 -26t-26 -101v-86h109v-307h-109
v-723h-453v723h-233v-723h-453v723h-143v307zM637 1063v-33h233q3 96 27 182q-73 17 -129 17q-83 0 -107 -34.5t-24 -131.5z" />
    <glyph glyph-name="f_f_t" unicode="fft" horiz-adv-x="2314" 
d="M637 1063v-33h233q3 93 25 180q-82 19 -133 19q-43 0 -68.5 -8.5t-38 -32t-15.5 -50t-3 -75.5zM41 1030h143q10 234 147 370t359 136q171 0 340 -76q107 99 264 99q128 0 246 -58l-72 -268q-30 10 -77 10q-38 0 -53 -24t-15 -70v-119h197l104 334h371v-334h276v-307h-276
v-260q0 -88 23 -121t85 -33t140 19l65 -262q-178 -89 -397 -89q-185 0 -277 89.5t-92 275.5v381h-219v-723h-453v723h-233v-723h-453v723h-143v307z" />
    <glyph glyph-name="T_h" unicode="Th" horiz-adv-x="2256" 
d="M8 1372h1104v160l467 8v-565q107 82 260 82q164 0 255 -89.5t91 -265.5v-702h-467v635q0 49 -15 69.5t-48 20.5q-39 0 -76 -12v-713h-467v1044h-278v-1044h-469v1044h-338z" />
    <glyph glyph-name="uni021A_h" unicode="&#x21a;h" horiz-adv-x="2256" 
d="M8 1372h1104v160l467 8v-565q107 82 260 82q164 0 255 -89.5t91 -265.5v-702h-467v635q0 49 -15 69.5t-48 20.5q-39 0 -76 -12v-713h-467v1044h-278v-1044h-469v1044h-338zM438 -147l346 14q13 -54 13 -109q0 -124 -56.5 -224t-130.5 -152l-215 100q47 109 47 264
q0 24 -2 60.5t-2 46.5z" />
    <glyph glyph-name="uni0162_h" unicode="&#x162;h" horiz-adv-x="2256" 
d="M8 1372h1104v160l467 8v-565q107 82 260 82q164 0 255 -89.5t91 -265.5v-702h-467v635q0 49 -15 69.5t-48 20.5q-39 0 -76 -12v-713h-467v1044h-278v-1044h-105l-41 -88h27q108 0 177 -51t69 -148q0 -129 -143.5 -212t-371.5 -101l-34 190q109 29 167 58t58 63
q0 22 -19.5 29.5t-58.5 7.5q-48 0 -88 -8l-72 96l78 164h-112v1044h-338z" />
    <glyph glyph-name="f_f_k.alt" unicode="ffk" horiz-adv-x="2691" 
d="M41 1030h143q11 233 146 369.5t366 136.5q176 0 342 -78q122 101 316 101q159 0 327 -48l314 29v-872h45l182 362h442q0 -38 -14.5 -71t-54.5 -95l-187 -317l222 -381q49 -85 49 -166h-481l-158 350h-45v-350h-453v1233q-52 10 -121 10q-56 0 -77 -33t-21 -104v-76h98
v-307h-98v-723h-453v723h-233v-723h-453v723h-143v307zM637 1063v-33h233q3 95 25 182q-73 17 -129 17q-80 0 -104.5 -34.5t-24.5 -131.5z" />
    <glyph glyph-name="f_k.alt" unicode="fk" horiz-adv-x="2019" 
d="M41 1030h143q3 248 127.5 388.5t364.5 140.5q188 0 334 -48l313 29v-872h45l182 362h443q0 -36 -14.5 -68t-55.5 -98l-186 -317l219 -381q51 -83 51 -166h-481l-158 350h-45v-350h-453v1233q-58 10 -116 10q-63 0 -90 -29t-27 -96v-88h125v-307h-125v-723h-453v723h-143
v307z" />
    <glyph glyph-name="jacute" unicode="&#xfc00;" horiz-adv-x="626" arabic-form="isolated" 
d="M82 1026l467 8v-891q0 -234 -102 -405.5t-275 -257.5l-242 233q152 179 152 428v885zM82 1315l424 368l182 -231v-37l-452 -282z" />
    <glyph glyph-name="Jacute" unicode="&#xfc01;" horiz-adv-x="669" arabic-form="isolated" 
d="M111 1372h467v-1290q0 -146 -47 -254.5t-133.5 -172.5t-198.5 -94.5t-252 -31.5l-76 307q72 19 113.5 38t72.5 52t42.5 82.5t11.5 126.5v1237zM78 1708l532 250l111 -268l-4 -37l-551 -162z" />
    <glyph glyph-name=".notdef" horiz-adv-x="1214" 
d="M123 1358h967v-1358h-967v1358zM936 98l-330 494l-330 -494h660zM547 678l-328 493v-989zM993 182v989l-329 -493zM606 766l330 494h-660z" />
    <glyph glyph-name=".null" horiz-adv-x="0" 
 />
    <glyph glyph-name="uni000D" unicode="&#xd;" horiz-adv-x="0" 
 />
    <glyph glyph-name="NULL" horiz-adv-x="0" 
 />
    <glyph glyph-name="NULL" horiz-adv-x="0" 
 />
    <glyph glyph-name="space" unicode=" " horiz-adv-x="354" 
 />
    <glyph glyph-name="exclam" unicode="!" horiz-adv-x="632" 
d="M88 1372h455l-31 -860h-389zM96 188q0 92 59.5 146.5t159.5 54.5t161 -54.5t61 -144.5q0 -97 -61.5 -155t-162.5 -58q-98 0 -157.5 58t-59.5 153z" />
    <glyph glyph-name="quotedbl" unicode="&#x22;" horiz-adv-x="993" 
d="M528 1663h400l-27 -629h-344zM63 1663h400l-27 -629h-344z" />
    <glyph glyph-name="numbersign" unicode="#" horiz-adv-x="1241" 
d="M154 -8l24 135h-121v274h170l35 201h-133v277h184l33 186l289 -53l-25 -133h166l33 184l291 -51l-25 -133h115v-277h-164l-35 -201h129v-274h-178l-35 -190l-289 53l25 137h-166l-35 -188zM692 401l35 201h-166l-35 -201h166z" />
    <glyph glyph-name="dollar.alt" unicode="$" horiz-adv-x="1196" 
d="M375 1542h461v-184q159 -28 274 -94l-117 -289q-177 57 -309 57q-70 0 -100.5 -13.5t-30.5 -45.5q0 -35 48 -61q22 -11 99 -42q52 -22 80.5 -34t74 -33.5t71 -37t61.5 -39t56 -44.5t43 -50t35 -59.5t20 -67.5t8 -79q0 -147 -81.5 -245.5t-231.5 -143.5v-207h-461v184
q-184 25 -330 92l117 308q225 -74 373 -74q68 0 96 14t28 47q0 31 -28.5 49.5t-112.5 51.5q-89 35 -135 55t-116.5 62t-105.5 84t-63 108t-28 147q0 144 80 239.5t225 139.5v205z" />
    <glyph glyph-name="percent" unicode="%" horiz-adv-x="1894" 
d="M410 72l878 1360l203 -132l-879 -1359zM43 971q0 87 25.5 162.5t75 136.5t131 96t186.5 35q187 0 291 -110.5t104 -276.5q0 -84 -23.5 -159t-71.5 -138t-130.5 -100t-190.5 -37q-98 0 -175 31t-124.5 85.5t-72.5 124t-25 150.5zM516 995q0 91 -12 137t-51 46
q-34 0 -47 -29q-23 -38 -23 -156q1 -47 3.5 -77.5t9.5 -58.5t20.5 -41t34.5 -13q31 0 45 28q24 41 20 164zM1038 362q0 87 25.5 163t74.5 136.5t131 96t187 35.5q187 0 291 -110.5t104 -276.5q0 -67 -14 -128t-46 -117.5t-79.5 -98.5t-118 -66.5t-157.5 -24.5
q-128 0 -220 54.5t-135 141.5t-43 195zM1511 387q0 44 -2 72.5t-8 56t-19 40.5t-34 13q-35 0 -47 -28q-23 -38 -23 -156q1 -46 4 -77.5t10 -58.5t20.5 -40.5t33.5 -13.5q31 0 45 28q24 41 20 164z" />
    <glyph glyph-name="ampersand" unicode="&#x26;" horiz-adv-x="1562" 
d="M158 1016q1 121 64 208.5t172 131.5t251 43q192 0 314.5 -89t121.5 -243q0 -119 -71.5 -217.5t-186.5 -165.5q29 -24 91 -74t90 -73q62 102 88 294l381 -2q6 -262 -177 -487q43 -14 90 -14q44 0 91 14l88 -285q-48 -37 -116.5 -61.5t-141.5 -24.5q-82 0 -157 31t-159 90
q-224 -121 -467 -121q-98 0 -182.5 21t-152 63.5t-105 114.5t-35.5 166q3 228 248 369q-73 88 -106.5 153.5t-32.5 157.5zM545 1020q0 -76 82 -158q92 66 92 152q0 39 -25.5 61.5t-64.5 22.5t-64 -19q-20 -20 -20 -59zM610 293q54 0 103 12q-136 111 -230 201
q-39 -42 -39 -94q3 -119 166 -119z" />
    <glyph glyph-name="quotesingle" unicode="'" horiz-adv-x="526" 
d="M63 1663h400l-27 -629h-344z" />
    <glyph glyph-name="parenleft" unicode="(" horiz-adv-x="802" 
d="M45 694q-1 294 105 589t294 548l353 -201q-129 -241 -200.5 -470.5t-72.5 -465.5q0 -438 273 -944l-353 -211q-185 249 -292 554t-107 601z" />
    <glyph glyph-name="parenright" unicode=")" horiz-adv-x="802" 
d="M4 1630l354 201q187 -254 294 -549t106 -588q0 -294 -107.5 -599t-292.5 -556l-354 211q272 499 275 944q-5 439 -275 936z" />
    <glyph glyph-name="asterisk" unicode="*" horiz-adv-x="839" 
d="M215 1526l229 61l29 -186l113 149l168 -168l-148 -114l189 -27l-62 -229l-176 71l74 -178l-230 -61l-28 186l-113 -149l-168 168l148 116l-189 25l62 229l176 -69z" />
    <glyph glyph-name="plus" unicode="+" 
d="M449 989h346v-274h258v-299h-258v-277h-346v277h-259v299h259v274z" />
    <glyph glyph-name="comma" unicode="," horiz-adv-x="567" 
d="M82 305l399 12q15 -81 15 -155q0 -171 -93.5 -303.5t-267.5 -216.5l-168 112q121 168 121 396q0 8 -6 155z" />
    <glyph glyph-name="hyphen" unicode="-" horiz-adv-x="688" 
d="M82 670h524v-301h-524v301z" />
    <glyph glyph-name="period" unicode="." horiz-adv-x="540" 
d="M49 193q0 94 60.5 151t158.5 57q100 0 160.5 -56.5t60.5 -151.5q0 -100 -60.5 -161t-160.5 -61q-98 0 -158.5 61t-60.5 161z" />
    <glyph glyph-name="slash" unicode="/" horiz-adv-x="1056" 
d="M33 -100l594 1665l395 -146l-594 -1665z" />
    <glyph glyph-name="zero" unicode="0" horiz-adv-x="1341" 
d="M57 651q0 118 25 227.5t77 204.5t126.5 166t180 111.5t230.5 40.5q113 0 209 -35.5t165.5 -98.5t118.5 -148.5t73 -186.5t24 -211q0 -116 -23 -223.5t-73 -204t-122.5 -168t-178 -113t-232.5 -41.5q-145 0 -260.5 54.5t-189 149t-112 216t-38.5 260.5zM795 688
q-3 373 -123 373q-28 0 -49 -21q-80 -60 -76 -354q2 -167 32 -271t93 -104q29 0 57 25q70 67 66 352z" />
    <glyph glyph-name="one" unicode="1" horiz-adv-x="1017" 
d="M43 1221l428 151h340v-1044h166l10 -328h-909v328h264v651l-221 -37z" />
    <glyph glyph-name="two" unicode="2" horiz-adv-x="1085" 
d="M47 1282q104 55 218 85.5t276 29.5q121 0 214.5 -33t151 -90.5t86.5 -131.5t29 -161q0 -85 -30.5 -168.5t-88 -160.5t-120 -141t-146.5 -136l-55 -47h417l21 -328h-942l-21 328l209 196q66 63 105 103.5t80.5 93t61 99.5t19.5 93q0 68 -39 106t-108 38q-117 0 -244 -49z
" />
    <glyph glyph-name="three" unicode="3" horiz-adv-x="1077" 
d="M59 1284q204 113 457 113q206 0 328.5 -88t122.5 -248q0 -91 -46.5 -171t-132.5 -134q116 -43 176 -130t60 -198q0 -207 -156 -332t-417 -125q-226 0 -422 70l88 295q117 -31 223 -31q96 0 147 35q48 36 48 96q0 109 -150 109h-152l-12 278h115q162 0 162 131
q0 53 -38 82t-112 29q-106 0 -205 -45z" />
    <glyph glyph-name="four" unicode="4" horiz-adv-x="1263" 
d="M23 545l544 827h480v-835h172l10 -310h-182v-227h-439v227h-553zM479 717l-119 -180h248v391h-8z" />
    <glyph glyph-name="five" unicode="5" horiz-adv-x="1091" 
d="M106 1372h869l-23 -340h-448v-192q54 4 84 4q71 0 136.5 -12.5t126 -41.5t105 -72t71 -108.5t26.5 -146.5q0 -232 -157 -362t-417 -130q-269 0 -436 68l78 295q145 -29 248 -29q113 0 157 33q50 40 47 117q-3 135 -204 135q-103 0 -234 -23l-29 35v770z" />
    <glyph glyph-name="six" unicode="6" horiz-adv-x="1208" 
d="M57 573q0 175 52.5 324t152 260.5t254.5 174.5t350 63q92 0 166 -17l-28 -340q-87 6 -91 6q-322 0 -389 -260q109 47 244 47q179 -3 294.5 -108t115.5 -283q0 -214 -150 -341.5t-412 -127.5q-144 0 -253.5 46.5t-175 129.5t-98 190t-32.5 236zM629 293q43 0 73 24
q39 31 39 123q0 140 -118 140q-47 0 -113 -25q5 -132 31.5 -197t87.5 -65z" />
    <glyph glyph-name="seven" unicode="7" horiz-adv-x="1007" 
d="M39 1372h922l28 -328l-473 -1095l-422 157l447 926h-492z" />
    <glyph glyph-name="eight" unicode="8" 
d="M104 999q0 120 70.5 212.5t190 141t268.5 48.5q227 0 363.5 -97t136.5 -253q0 -200 -187 -314q246 -139 246 -354q0 -129 -78 -223.5t-211.5 -141.5t-304.5 -47q-256 0 -402.5 101.5t-146.5 269.5q0 108 69 193.5t187 144.5q-95 61 -148 143.5t-53 175.5zM516 1016
q0 -50 41 -84t133 -78q60 76 60 141q0 54 -32.5 82.5t-88.5 28.5t-86 -27q-27 -24 -27 -63zM608 264q69 0 109 31q35 26 35 72q0 49 -43 83.5t-166 100.5q-82 -85 -82 -166q0 -56 40.5 -88.5t106.5 -32.5z" />
    <glyph glyph-name="nine" unicode="9" horiz-adv-x="1208" 
d="M586 793q49 0 112 24q-5 131 -31.5 196.5t-86.5 65.5q-47 0 -74 -24q-39 -31 -39 -123q0 -139 119 -139zM29 932q0 214 149.5 341.5t411.5 127.5q145 0 254.5 -46.5t175.5 -129.5t98.5 -190t32.5 -236q0 -140 -33 -263.5t-100 -226t-162.5 -176.5t-227.5 -115t-288 -41
q-94 0 -164 17l29 340q87 -6 90 -6q320 0 387 260q-109 -47 -242 -47q-180 3 -295.5 108t-115.5 283z" />
    <glyph glyph-name="colon" unicode=":" horiz-adv-x="544" 
d="M72 840q0 84 55 135t145 51q92 0 147.5 -50.5t55.5 -135.5q0 -88 -56 -142.5t-147 -54.5q-89 0 -144.5 54.5t-55.5 142.5zM72 186q0 84 55 135.5t145 51.5q91 0 147 -51.5t56 -135.5q0 -88 -56 -142t-147 -54q-89 0 -144.5 54t-55.5 142z" />
    <glyph glyph-name="semicolon" unicode=";" horiz-adv-x="569" 
d="M98 287l381 14q15 -81 15 -149q0 -165 -88.5 -291t-255.5 -207l-160 106q114 152 114 379q0 81 -6 148zM74 840q0 84 55 135t145 51q91 0 146 -50.5t55 -135.5q0 -88 -55.5 -142.5t-145.5 -54.5q-89 0 -144.5 54.5t-55.5 142.5z" />
    <glyph glyph-name="less" unicode="&#x3c;" 
d="M190 737l711 359l148 -279l-439 -233l439 -234l-148 -278l-711 358v307z" />
    <glyph glyph-name="equal" unicode="=" 
d="M193 922h860v-299h-860v299zM190 504h861v-299h-861v299z" />
    <glyph glyph-name="greater" unicode="&#x3e;" 
d="M195 817l145 279l713 -359v-307l-713 -358l-145 278l438 234z" />
    <glyph glyph-name="question" unicode="?" horiz-adv-x="991" 
d="M39 1313q190 88 457 88q74 0 138.5 -11t122.5 -36.5t99.5 -64t65.5 -97t24 -131.5q0 -98 -43 -167.5t-119 -129.5q-46 -37 -73.5 -62t-51.5 -63t-24 -74v-53h-373q-31 56 -31 113t26 100t79 94q61 61 88 97.5t27 72.5q0 76 -138 76q-88 0 -194 -27zM238 188
q0 92 60 146.5t159 54.5q101 0 161 -54t60 -145q0 -97 -60 -155t-161 -58q-98 0 -158.5 58t-60.5 153z" />
    <glyph glyph-name="at" unicode="@" horiz-adv-x="1742" 
d="M51 463q0 141 34.5 264t105 224t172.5 173.5t242.5 112t309.5 39.5q152 0 280 -36t216.5 -98.5t151 -145.5t91.5 -176.5t29 -192.5q0 -100 -22.5 -182.5t-60 -138.5t-91 -98.5t-110.5 -66.5t-124 -38t-125 -17.5t-120 -1.5l-63 115q-91 -121 -219 -121q-152 0 -241 111.5
t-89 308.5q0 115 43 214t127.5 161t193.5 61q121 0 213 -70l35 62l252 -37l-2 -135q-4 -136 -4 -217v-68q0 -83 6 -172q166 50 166 321q0 89 -32.5 167.5t-96.5 142.5t-171 101.5t-245 37.5q-162 0 -282.5 -43t-193 -123t-107.5 -187t-35 -243q0 -126 41.5 -227.5
t112.5 -167t165 -100.5t201 -35q112 0 189 13.5t159 45.5l72 -176q-175 -92 -426 -92q-117 0 -226.5 29.5t-204 90.5t-165.5 146.5t-111.5 205t-40.5 259.5zM860 319q23 0 51 17v348q-30 10 -51 10q-34 0 -47 -30q-22 -40 -22 -150q0 -99 14.5 -147t54.5 -48z" />
    <glyph glyph-name="A" unicode="A" horiz-adv-x="1388" 
d="M692 969l-112 -441h211l-27 101l-59 340h-13zM432 1368l543 8l371 -1171q36 -112 36 -205h-456l-56 213h-372l-56 -213h-448q0 103 37 203z" />
    <glyph glyph-name="B" unicode="B" horiz-adv-x="1292" 
d="M92 1362q280 33 500 33q289 0 445.5 -86.5t156.5 -259.5q0 -96 -46 -175.5t-142 -128.5q251 -83 251 -335q0 -433 -722 -433q-180 0 -443 29v1356zM612 825q65 0 101 25q45 31 45 102q0 127 -146 127q-17 0 -71 -4v-250h71zM627 291q81 0 118 26q48 33 48 109
q0 67 -40.5 100t-138.5 33q-46 0 -73 -2v-262q66 -4 86 -4z" />
    <glyph glyph-name="C" unicode="C" horiz-adv-x="1175" 
d="M43 666q0 148 49 280t138.5 232t225.5 158.5t300 58.5q250 0 422 -103l-142 -295q-116 39 -215 39q-128 0 -200 -75q-86 -92 -86 -269q0 -73 15.5 -134t48.5 -112.5t93 -80.5t142 -29q102 0 231 35l94 -303q-198 -91 -452 -91q-302 0 -483 186t-181 503z" />
    <glyph glyph-name="D" unicode="D" horiz-adv-x="1423" 
d="M92 1362q303 33 537 33q189 0 335 -53t236.5 -148.5t136 -220.5t45.5 -275q0 -158 -51.5 -290t-149 -228t-247 -149.5t-336.5 -53.5q-263 0 -506 31v1354zM649 317q82 0 144 58q48 45 73 127.5t25 185.5q0 172 -62 269.5t-188 97.5q-51 0 -80 -2v-734q29 -2 88 -2z" />
    <glyph glyph-name="E" unicode="E" horiz-adv-x="1130" 
d="M92 1372h993l-18 -328h-506v-196h373v-320h-373v-200h506l18 -328h-993v1372z" />
    <glyph glyph-name="F" unicode="F" horiz-adv-x="1112" 
d="M92 1372h985l-18 -328h-498v-280h367v-320h-367v-444h-469v1372z" />
    <glyph glyph-name="G.alt" unicode="G" horiz-adv-x="1318" 
d="M41 641q0 119 29.5 228t92 205.5t152 167.5t218.5 112t284 41q258 0 438 -109l-143 -285q-144 39 -278 39t-209 -75q-93 -88 -93 -287q0 -161 66.5 -261t198.5 -100q33 0 51 2v363h405v-614q-200 -91 -505 -91q-319 0 -513 183.5t-194 480.5z" />
    <glyph glyph-name="H" unicode="H" horiz-adv-x="1462" 
d="M901 1372h469v-1372h-469v522h-340v-522h-469v1372h469v-506h340v506z" />
    <glyph glyph-name="I" unicode="I" horiz-adv-x="653" 
d="M92 1372h469v-1372h-469v1372z" />
    <glyph glyph-name="J" unicode="J" horiz-adv-x="669" 
d="M111 1372h467v-1290q0 -146 -47 -254.5t-133.5 -172.5t-198.5 -94.5t-252 -31.5l-76 307q72 19 113.5 38t72.5 52t42.5 82.5t11.5 126.5v1237z" />
    <glyph glyph-name="K" unicode="K" horiz-adv-x="1370" 
d="M881 1372h475q0 -78 -64 -153l-346 -408l352 -594q48 -79 67.5 -123.5t20.5 -93.5h-493l-242 465l-90 -105v-360h-469v1372h469v-487h4z" />
    <glyph glyph-name="L" unicode="L" horiz-adv-x="1003" 
d="M92 1372h469v-1026h402l18 -346h-889v1372z" />
    <glyph glyph-name="M" unicode="M" horiz-adv-x="1914" 
d="M1126 1372h600l127 -1159q17 -153 17 -213h-418l-53 582l-17 346h-8l-162 -928l-522 -2l-108 586l-52 344h-8l-67 -928h-414q0 63 22 248l138 1124h598l131 -602l43 -270h10z" />
    <glyph glyph-name="N" unicode="N" horiz-adv-x="1480" 
d="M92 1372h469l328 -538l121 -238h6l-19 258v518h392v-1372h-457l-338 559l-121 236h-8l18 -267v-528h-391v1372z" />
    <glyph glyph-name="O" unicode="O" horiz-adv-x="1441" 
d="M43 674q0 327 190 527t506 200q133 0 243 -36.5t186.5 -100.5t129 -153.5t77 -193.5t24.5 -221q0 -326 -190.5 -525.5t-506.5 -199.5q-133 0 -243 36.5t-186 100.5t-128.5 153t-77 192.5t-24.5 220.5zM909 698q0 103 -16.5 181t-59.5 130t-108 52q-72 0 -119 -70
q-71 -103 -71 -307q0 -97 16.5 -177t60.5 -138t111 -58q72 0 117 62q69 96 69 325z" />
    <glyph glyph-name="P" unicode="P" horiz-adv-x="1308" 
d="M610 676q75 0 113 33q68 53 68 176q0 94 -40.5 132t-125.5 38q-39 0 -64 -2v-375q20 -2 49 -2zM92 1362q258 33 483 33q695 0 695 -498q0 -114 -41.5 -212.5t-118.5 -171.5t-195.5 -115t-263.5 -42q-28 0 -90 4v-360h-469v1362z" />
    <glyph glyph-name="Q" unicode="Q" horiz-adv-x="1441" 
d="M43 674q0 327 190 527t506 200q133 0 243 -36.5t186.5 -100.5t129 -153.5t77 -193.5t24.5 -221q0 -257 -121.5 -439.5t-335.5 -250.5q90 -92 246 -96q24 0 117 6l51 -285q-74 -30 -142.5 -45.5t-164.5 -15.5q-151 0 -264 108.5t-179 296.5q-114 13 -207 55.5t-158.5 107
t-110.5 150t-66 182t-21 204.5zM909 698q0 103 -16.5 181t-59.5 130t-108 52q-72 0 -119 -70q-71 -103 -71 -307q0 -97 16.5 -177t60.5 -138t111 -58q72 0 117 62q69 96 69 325z" />
    <glyph glyph-name="R" unicode="R" horiz-adv-x="1333" 
d="M608 729q80 0 125 29q58 43 58 141q0 79 -39.5 117.5t-124.5 38.5q-39 0 -66 -2v-322q18 -2 47 -2zM92 1362q247 33 463 33q715 0 715 -457q0 -130 -55.5 -234.5t-155.5 -173.5l201 -378q51 -91 53 -152h-477l-185 414h-4q-55 0 -86 2v-416h-469v1362z" />
    <glyph glyph-name="S" unicode="S" horiz-adv-x="1171" 
d="M57 948q0 216 156.5 334.5t425.5 118.5q138 0 257 -30.5t202 -78.5l-117 -288q-177 57 -307 57q-133 0 -133 -68q0 -32 33 -55t114 -57q61 -25 102.5 -43.5t92.5 -46t85 -52.5t68.5 -60t55 -73t33 -86.5t12.5 -103.5q0 -209 -160.5 -327t-433.5 -118q-140 0 -280 29.5
t-232 69.5l116 307q205 -66 365 -66q133 0 133 70q0 32 -30 53.5t-109 50.5q-57 23 -93 38t-88.5 41.5t-85.5 50.5t-71.5 60t-60 74t-36 89.5t-14.5 109.5z" />
    <glyph glyph-name="T" unicode="T" horiz-adv-x="1226" 
d="M23 1372h1181l-18 -346h-338v-1026h-467v1026h-338z" />
    <glyph glyph-name="U" unicode="U" horiz-adv-x="1376" 
d="M829 1372h469v-774q0 -297 -158 -462t-474 -165q-286 0 -436 150.5t-150 417.5v833h467v-811q0 -127 32 -188.5t111 -61.5q68 0 98 47q41 49 41 172v842z" />
    <glyph glyph-name="V" unicode="V" horiz-adv-x="1388" 
d="M922 1372h460q0 -102 -45 -242l-370 -1126l-553 -8l-365 1132q-47 142 -47 244h490l147 -596l55 -301h13z" />
    <glyph glyph-name="W" unicode="W" horiz-adv-x="2084" 
d="M1634 1372h451q0 -66 -45 -215l-340 -1153l-533 -8l-106 645l-23 248h-10l-133 -885l-535 -8l-305 1161q-3 10 -11.5 44.5t-12 48.5t-8.5 39.5t-7 44.5t-2 38h484l112 -598l35 -299h12l146 897h528l101 -598l32 -299h13z" />
    <glyph glyph-name="X" unicode="X" horiz-adv-x="1411" 
d="M51 1372h490l170 -471h10l174 471h469q0 -13 -1 -25t-3.5 -24.5t-4.5 -21t-8 -23t-8.5 -21t-11.5 -24t-12 -23.5t-15 -28t-16 -29l-235 -442l274 -490q35 -63 47 -85.5t23.5 -60t11.5 -75.5h-490l-219 463h-10l-197 -463h-479q0 38 12 76.5t24 61.5t46 83l264 477
l-227 455q-6 12 -25 49t-23.5 47.5t-14.5 35.5t-12.5 44.5t-2.5 42.5z" />
    <glyph glyph-name="Y" unicode="Y" horiz-adv-x="1318" 
d="M862 1372h465q-3 -90 -72 -223l-362 -698v-451h-467v449l-365 700q-67 131 -67 223h487l131 -346l60 -192h10z" />
    <glyph glyph-name="Z" unicode="Z" horiz-adv-x="1214" 
d="M66 1372h1044l61 -350l-593 -682h573l16 -340h-1101l-21 346l588 686h-553z" />
    <glyph glyph-name="bracketleft" unicode="[" horiz-adv-x="897" 
d="M123 -416v2190h735v-308l-266 -8v-1556l266 -8v-310h-735z" />
    <glyph glyph-name="backslash" unicode="\" horiz-adv-x="1056" 
d="M35 1419l395 146l594 -1665l-397 -146z" />
    <glyph glyph-name="bracketright" unicode="]" horiz-adv-x="897" 
d="M37 -106l268 8v1556l-268 8v308h737v-2190h-737v310z" />
    <glyph glyph-name="asciicircum" unicode="^" horiz-adv-x="1191" 
d="M481 1368l232 4l438 -563l-258 -236l-301 369l-291 -369l-258 230z" />
    <glyph glyph-name="underscore" unicode="_" horiz-adv-x="993" 
d="M0 -80h993v-301h-993v301z" />
    <glyph glyph-name="grave" unicode="`" horiz-adv-x="819" 
d="M55 1452l183 231l421 -368l-151 -182l-453 282v37z" />
    <glyph glyph-name="a" unicode="a" horiz-adv-x="1126" 
d="M72 926q90 57 229.5 91t276.5 34q477 0 477 -400v-176q0 -85 20 -442l-334 -49l-88 147q-64 -72 -144.5 -113t-168.5 -41q-140 0 -223.5 72.5t-83.5 210.5q0 142 102 225q134 109 457 138q-4 63 -33.5 87.5t-97.5 24.5q-132 0 -299 -59zM514 254q36 0 78 22v154
q-101 -6 -127 -29q-23 -18 -23 -61q0 -86 72 -86z" />
    <glyph glyph-name="b" unicode="b" horiz-adv-x="1212" 
d="M78 1532l469 8v-569q89 86 203 86q189 0 305 -145t116 -369q-2 -260 -153 -413t-438 -153q-266 0 -502 68v1487zM606 287q44 0 60 26q30 40 30 203q0 74 -7 124t-26 81t-51 31q-21 0 -65 -21v-440q40 -4 59 -4z" />
    <glyph glyph-name="c" unicode="c" horiz-adv-x="972" 
d="M41 483q0 263 144.5 415.5t416.5 152.5q111 0 205.5 -23.5t140.5 -56.5l-104 -295q-105 31 -197 31q-65 0 -94 -33q-41 -54 -41 -158q0 -215 164 -215q90 0 184 27l84 -271q-155 -80 -373 -80q-257 0 -393.5 128t-136.5 378z" />
    <glyph glyph-name="d" unicode="d" horiz-adv-x="1218" 
d="M602 283q29 0 68 20v440q-42 11 -64 11q-47 0 -61 -33q-29 -59 -29 -197q0 -123 19 -182t67 -59zM41 496q0 112 39 217.5t100.5 179.5t140 119t156.5 45q115 0 193 -60v535l467 8v-1030q0 -94 20 -477l-338 -47l-82 139q-120 -152 -278 -152q-182 0 -300 148t-118 375z
" />
    <glyph glyph-name="e" unicode="e" horiz-adv-x="1095" 
d="M39 487q0 118 39 222t109.5 181t177 122t233.5 45q117 0 205 -35.5t141.5 -100.5t80 -151.5t26.5 -194.5q0 -91 -15 -167h-528q34 -134 176 -134q117 0 260 33l78 -241q-218 -89 -436 -89q-253 0 -400 137.5t-147 372.5zM590 770q-47 0 -67 -39t-25 -121h170q2 16 2 49
q0 50 -20 80.5t-60 30.5z" />
    <glyph glyph-name="f" unicode="f" horiz-adv-x="886" 
d="M41 1030h143q2 119 32.5 214.5t89.5 166.5t153 109.5t217 38.5q97 0 190 -21.5t158 -56.5l-92 -283q-95 27 -168 27q-61 0 -87 -36.5t-26 -115.5v-43h217v-307h-217v-723h-467v723h-143v307z" />
    <glyph glyph-name="g.ss03" unicode="g" horiz-adv-x="1212" 
d="M600 307q28 0 68 21v415q-42 11 -64 11q-44 0 -61 -33q-29 -59 -29 -197q0 -217 86 -217zM41 496q0 102 33 201t91 179.5t148.5 130.5t196.5 50q141 0 262 -90l47 84l322 -47q-3 -137 -7 -262t-4 -175v-399q0 -129 -18 -232.5t-60.5 -190t-108.5 -144t-164.5 -89.5
t-227.5 -32q-246 0 -442 86l98 293q130 -45 266 -45q113 0 154 54t41 185v23q-94 -78 -211 -78q-119 0 -215 68t-148.5 182t-52.5 248z" />
    <glyph glyph-name="h" unicode="h" horiz-adv-x="1224" 
d="M78 1532l469 8v-565q107 82 258 82q165 0 256.5 -89.5t91.5 -265.5v-702h-469v635q0 49 -14 69.5t-47 20.5q-39 0 -76 -12v-713h-469v1532z" />
    <glyph glyph-name="i" unicode="i" horiz-adv-x="624" 
d="M78 1026l469 8v-1034h-469v1026zM100 1339q0 94 63.5 150.5t170.5 56.5q94 0 149.5 -51t55.5 -131q0 -92 -62.5 -149.5t-167.5 -57.5q-95 0 -152 51t-57 131z" />
    <glyph glyph-name="j" unicode="j" horiz-adv-x="626" 
d="M82 1026l467 8v-891q0 -234 -102 -405.5t-275 -257.5l-242 233q152 179 152 428v885zM102 1339q0 94 63.5 150.5t170.5 56.5q94 0 149.5 -51t55.5 -131q0 -92 -62.5 -149.5t-167.5 -57.5q-95 0 -152 51t-57 131z" />
    <glyph glyph-name="k.alt" unicode="k" 
d="M774 1030h443q0 -36 -14.5 -68t-55.5 -98l-186 -317l219 -381q48 -78 51 -166h-481l-158 350h-45v-350h-469v1532l469 8v-872h45z" />
    <glyph glyph-name="l" unicode="l" horiz-adv-x="669" 
d="M74 1532l467 8v-1120q0 -47 13.5 -66.5t45.5 -19.5h29l28 -305q-142 -52 -305 -52q-126 0 -202 71t-76 216v1268z" />
    <glyph glyph-name="m" unicode="m" horiz-adv-x="1812" 
d="M61 1001l338 50l84 -142q129 148 324 148q203 0 287 -133q121 133 307 133q164 0 252 -89t88 -268v-700h-467v653q0 53 -14.5 72.5t-45.5 19.5q-30 0 -67 -16v-29v-700h-469v653q0 53 -13 72.5t-44 19.5q-32 0 -70 -18v-727h-469v520q0 127 -21 481z" />
    <glyph glyph-name="n" unicode="n" horiz-adv-x="1228" 
d="M61 1001l338 50l84 -144q132 150 326 150q168 0 258 -89t90 -266v-702h-469v653q0 53 -14 72.5t-47 19.5q-35 0 -76 -18v-727h-469v520q0 127 -21 481z" />
    <glyph glyph-name="o" unicode="o" horiz-adv-x="1193" 
d="M39 485q0 123 41 228t115 181t184.5 119.5t243.5 43.5q105 0 193 -29t150 -79t105 -118t63.5 -146t20.5 -163q0 -249 -156 -400t-426 -151q-130 0 -233.5 41t-168 112.5t-98.5 163.5t-34 197zM688 487q0 114 -24.5 195.5t-69.5 81.5q-39 0 -55 -37q-13 -29 -22 -88.5
t-9 -118.5q0 -112 24.5 -183t71.5 -71q35 0 55 35q29 66 29 186z" />
    <glyph glyph-name="p" unicode="p" horiz-adv-x="1218" 
d="M614 279q45 0 62 32q29 59 29 199q0 238 -80 238q-31 0 -74 -21v-438q38 -10 63 -10zM61 1001l338 50l86 -144q124 150 295 150q174 0 287 -147t113 -373q0 -112 -39 -217.5t-101 -180t-140.5 -119.5t-156.5 -45q-114 0 -192 60v-508h-469v993q0 76 -21 481z" />
    <glyph glyph-name="q" unicode="q" horiz-adv-x="1212" 
d="M41 487q2 260 153 412t439 152q267 0 500 -68v-1456h-467v520q-90 -76 -203 -76q-189 0 -305.5 146t-116.5 370zM600 279q28 0 66 12v448q-40 4 -60 4q-41 0 -61 -26q-29 -42 -29 -203q0 -74 7 -123.5t26 -80.5t51 -31z" />
    <glyph glyph-name="r" unicode="r" horiz-adv-x="901" 
d="M61 1001l338 50l101 -191q43 92 100.5 141.5t140.5 49.5q90 0 160 -37l-63 -402q-48 11 -115 11q-100 0 -172 -43v-580h-469v520q0 76 -21 481z" />
    <glyph glyph-name="s" unicode="s" horiz-adv-x="983" 
d="M53 707q0 155 137.5 249.5t366.5 94.5q204 0 361 -74l-99 -260q-125 41 -225 41q-76 0 -76 -41q0 -24 33 -42t106 -44q143 -53 216 -122.5t73 -186.5q0 -158 -128 -251.5t-367 -93.5q-242 0 -420 91l102 256q139 -48 246 -48q102 0 102 41q0 24 -34 42.5t-117 50.5
q-60 23 -102 45t-85.5 56.5t-66.5 84t-23 111.5z" />
    <glyph glyph-name="t" unicode="t" horiz-adv-x="956" 
d="M250 1364h385v-334h276v-307h-276v-260q0 -88 23 -121t85 -33q66 0 140 19l65 -262q-174 -89 -397 -89q-383 0 -383 365v381h-141v307h118z" />
    <glyph glyph-name="u" unicode="u" horiz-adv-x="1218" 
d="M74 1026l467 8v-649q0 -55 14.5 -78.5t44.5 -23.5t68 18v729h469v-520q0 -136 18 -475l-336 -49l-82 137q-131 -152 -323 -152q-163 0 -252.5 90t-89.5 267z" />
    <glyph glyph-name="v" unicode="v" horiz-adv-x="1183" 
d="M737 1030h441q0 -79 -29 -168l-297 -858l-535 -8l-270 866q-29 92 -29 168h478l59 -391q24 -137 33 -277h12z" />
    <glyph glyph-name="w" unicode="w" horiz-adv-x="1857" 
d="M705 1026l499 8l96 -454l19 -218h14l111 668h405q0 -72 -30 -168l-263 -858l-522 -8l-96 477l-16 182h-11l-129 -651l-493 -8l-244 866q-29 96 -29 168h453l76 -450l8 -218h14z" />
    <glyph glyph-name="x" unicode="x" horiz-adv-x="1175" 
d="M37 1030h461l100 -350h10l97 350h436q-3 -78 -49 -166l-187 -342l191 -356q49 -93 49 -166h-459l-108 356h-11l-116 -356h-418q0 73 49 166l188 346l-184 352q-49 90 -49 166z" />
    <glyph glyph-name="y" unicode="y" horiz-adv-x="1185" 
d="M739 1030h441q0 -79 -29 -168l-229 -694q-119 -347 -292 -513.5t-431 -166.5q-95 0 -185 12v314q150 0 277.5 54t197.5 161h-178l-262 833q-29 92 -29 168h478l59 -391q24 -137 33 -277h12z" />
    <glyph glyph-name="z" unicode="z" horiz-adv-x="1101" 
d="M76 1030h944l39 -321l-481 -408h442l18 -301h-964l-37 313l493 416h-440z" />
    <glyph glyph-name="braceleft" unicode="{" horiz-adv-x="884" 
d="M0 578v213q49 22 75.5 36t54 35t39.5 44.5t20 57t8 80.5q0 65 -6.5 168.5t-6.5 137.5q0 106 39 188t102 131.5t149.5 80t174 40t182.5 4.5l21 -319q-58 -14 -89 -25.5t-60 -31.5t-40.5 -51.5t-11.5 -78.5q1 -35 8 -115.5t7 -138.5q0 -159 -62.5 -238t-222.5 -108v-8
q160 -30 222.5 -109.5t62.5 -238.5q0 -58 -7 -142t-8 -118q0 -47 11.5 -78.5t40.5 -51.5t60 -31.5t89 -25.5l-21 -321q-95 -4 -182.5 5.5t-174 40t-149.5 80.5t-102 132t-39 188q0 34 6.5 141.5t6.5 170.5q0 47 -8 81t-20 57t-39.5 44.5t-54 36t-75.5 37.5z" />
    <glyph glyph-name="bar" unicode="|" horiz-adv-x="589" 
d="M123 1741h344v-2183h-344v2183z" />
    <glyph glyph-name="braceright" unicode="}" horiz-adv-x="884" 
d="M33 1475l20 319q95 5 182.5 -4.5t174 -40t149.5 -80t102 -131.5t39 -188q0 -34 -6 -137.5t-6 -168.5q0 -47 8 -80.5t20 -57t39 -44.5t53.5 -35t74.5 -36v-213q-49 -23 -74.5 -37.5t-53 -36t-39.5 -44.5t-20 -57t-8 -81q0 -63 6 -170.5t6 -141.5q0 -106 -39 -188
t-102 -132t-149.5 -80.5t-174 -40t-182.5 -5.5l-20 321q46 11 72.5 19.5t54.5 23t41.5 32.5t22.5 46t9 66q-1 31 -7.5 116.5t-6.5 143.5q0 159 62.5 238.5t220.5 109.5v8q-158 29 -220.5 108t-62.5 238q0 58 6.5 140t7.5 114q0 38 -9 66t-22.5 46t-41.5 32.5t-54.5 23
t-72.5 19.5z" />
    <glyph glyph-name="asciitilde" unicode="~" horiz-adv-x="1083" 
d="M678 664q27 0 53.5 19t41 37.5t32.5 47.5l227 -92q-28 -147 -110.5 -232.5t-204.5 -85.5q-48 0 -95.5 16.5t-78.5 36t-66.5 36t-62.5 16.5q-12 0 -23 -2.5t-21 -7.5t-18 -10t-17 -14l-14 -14t-13 -16.5t-10.5 -14.5t-9.5 -14l-7 -12l-230 101q29 143 110 226t208 83
q48 0 96.5 -16t80.5 -36t68.5 -36t63.5 -16z" />
    <glyph glyph-name="uni00A0" unicode="&#xa0;" horiz-adv-x="354" 
 />
    <glyph glyph-name="exclamdown" unicode="&#xa1;" horiz-adv-x="608" 
d="M111 518h389l30 -860h-454zM82 840q0 95 60.5 154t158.5 59q101 0 162 -58.5t61 -154.5q0 -91 -60.5 -146t-160.5 -55t-160.5 55t-60.5 146z" />
    <glyph glyph-name="cent.alt" unicode="&#xa2;" horiz-adv-x="1083" 
d="M49 492q0 194 90.5 331.5t259.5 194.5v182h406v-162q135 -26 223 -88l-119 -288q-113 40 -221 40q-68 0 -106 -32q-54 -44 -54 -158q0 -193 185 -193q121 0 239 31l80 -270q-91 -57 -227 -82v-182h-406v188q-163 46 -256.5 173.5t-93.5 314.5z" />
    <glyph glyph-name="sterling" unicode="&#xa3;" horiz-adv-x="1124" 
d="M82 840h133q21 289 152.5 425t371.5 136q180 0 340 -82l-100 -295q-84 23 -152 23q-71 0 -100 -39q-35 -40 -41 -168h209v-324h-231q-24 -101 -74 -188h448l19 -328h-989l-17 272q108 77 142 244h-111v324z" />
    <glyph glyph-name="currency" unicode="&#xa4;" horiz-adv-x="1044" 
d="M145 594q0 86 35 164l-127 125l185 176l120 -121q72 35 166 35q92 0 164 -35l125 121l178 -176l-127 -121q37 -75 37 -168t-37 -168l127 -135l-178 -172l-121 131q-79 -37 -168 -37q-96 0 -172 39l-114 -133l-185 172l127 139q-35 75 -35 164zM637 594q0 48 -30 82.5
t-83 34.5q-55 0 -84.5 -34.5t-29.5 -82.5q0 -51 29 -85t85 -34q53 0 83 34.5t30 84.5z" />
    <glyph glyph-name="yen" unicode="&#xa5;" horiz-adv-x="1409" 
d="M907 1372h461q0 -106 -76 -223l-278 -436h203v-203h-279v-113h279v-200h-279v-197h-469v197h-287v200h287v113h-287v203h205l-274 436q-69 112 -72 223h483l105 -270l90 -238h10z" />
    <glyph glyph-name="brokenbar" unicode="&#xa6;" horiz-adv-x="587" 
d="M121 1741h344v-2183h-344v2183zM465 489v320h-344v-320h344z" />
    <glyph glyph-name="section" unicode="&#xa7;" horiz-adv-x="1138" 
d="M563 354q9 -4 29 -13t29 -13q71 48 71 108q0 45 -31.5 75.5t-87.5 59.5q-7 3 -26.5 13t-30.5 14q-70 -50 -70 -109q0 -43 32 -74.5t85 -60.5zM139 1030q0 174 135.5 273.5t354.5 99.5q224 0 385 -84l-109 -270q-151 43 -229 43q-88 0 -88 -43q0 -9 3.5 -17t12 -16.5
t17.5 -15t25 -15.5t28 -15l34 -17t37 -19q62 -31 109.5 -58.5t95 -66.5t78 -79.5t49 -94t17.5 -113.5q-1 -110 -62 -197.5t-170 -146.5q135 -118 135 -282q0 -174 -134.5 -272.5t-352.5 -98.5q-230 0 -387 84l110 268q151 -43 228 -43q90 0 90 43q0 13 -6.5 24t-25 23
t-31 19.5t-47 24t-50.5 24.5q-80 40 -135 76t-107.5 86t-78.5 112.5t-25 136.5q1 108 61.5 196.5t167.5 148.5q-135 118 -135 282z" />
    <glyph glyph-name="dieresis" unicode="&#xa8;" horiz-adv-x="819" 
d="M459 1333q0 88 54 141.5t144 53.5q82 0 131.5 -46.5t49.5 -123.5q0 -88 -55.5 -142.5t-145.5 -54.5q-80 0 -129 47t-49 125zM-16 1333q0 88 54 141.5t144 53.5q82 0 131 -46.5t49 -123.5q0 -88 -55 -142.5t-145 -54.5q-80 0 -129 47t-49 125z" />
    <glyph glyph-name="copyright" unicode="&#xa9;" horiz-adv-x="1540" 
d="M53 686q0 149 56 281.5t151.5 227.5t228.5 150.5t281 55.5q149 0 282 -55.5t229 -150.5t152 -227.5t56 -281.5t-56 -281.5t-152 -227.5t-229 -150.5t-282 -55.5q-148 0 -281 55.5t-228.5 150.5t-151.5 227.5t-56 281.5zM416 672q0 176 100 289.5t281 113.5
q88 0 157 -28.5t105 -69.5l-86 -168q-80 29 -133 27q-60 0 -88 -31q-31 -39 -31 -107q0 -24 2.5 -43t11 -40.5t23.5 -36t42 -24t64 -9.5q33 0 119 16l59 -180q-35 -27 -102 -49.5t-154 -22.5q-164 0 -267 98t-103 265zM1278 686q0 223 -145 368.5t-363 145.5
q-215 0 -360.5 -148t-145.5 -366t145.5 -366t360.5 -148q218 0 363 145.5t145 368.5z" />
    <glyph glyph-name="ordfeminine" unicode="&#xaa;" horiz-adv-x="860" 
d="M78 1255q176 88 354 88q350 0 350 -247v-99q0 -42 15 -282l-250 -37l-53 92q-102 -92 -226 -92q-219 0 -219 176q0 46 22.5 87t63.5 65q104 60 314 73q-2 27 -17.5 39t-60.5 12q-96 0 -228 -36zM391 862q18 0 58 12v84q-67 -3 -87 -18q-16 -11 -16 -37q0 -41 45 -41z" />
    <glyph glyph-name="guillemotleft" unicode="&#xab;" horiz-adv-x="1372" 
d="M39 584l362 428l295 -170l-213 -326l213 -328l-295 -172l-354 430zM664 584l362 428l295 -170l-213 -326l213 -328l-295 -172l-354 430z" />
    <glyph glyph-name="logicalnot" unicode="&#xac;" 
d="M193 713h837v-299l-2 -367h-391l2 367h-446v299z" />
    <glyph glyph-name="uni00AD" unicode="&#xad;" horiz-adv-x="688" 
d="M82 670h524v-301h-524v301z" />
    <glyph glyph-name="registered" unicode="&#xae;" horiz-adv-x="1220" 
d="M55 1067q0 148 72 270.5t199.5 193.5t283.5 71t284 -71t200.5 -193.5t72.5 -270.5q0 -149 -72.5 -272t-200.5 -194t-284 -71t-283.5 71t-199.5 194t-72 272zM991 1067q0 157 -110 265t-271 108q-160 0 -270.5 -108t-110.5 -265q0 -158 110.5 -266.5t270.5 -108.5
q161 0 271 108.5t110 266.5zM594 1100q23 0 31 4q22 13 22 41q0 45 -51 45h-23v-90h21zM387 1303q91 12 217 12q115 0 179.5 -36.5t64.5 -125.5q0 -87 -78 -137l84 -119q20 -23 20 -57h-202l-70 131h-8h-21v-131h-186v463z" />
    <glyph glyph-name="macron" unicode="&#xaf;" horiz-adv-x="819" 
d="M61 1434h697v-256h-697v256z" />
    <glyph glyph-name="degree" unicode="&#xb0;" horiz-adv-x="761" 
d="M39 1114q0 143 98 234.5t244 91.5q147 0 243.5 -90.5t96.5 -235.5q0 -147 -96.5 -237.5t-243.5 -90.5t-244.5 90.5t-97.5 237.5zM461 1114q0 56 -20.5 90.5t-59.5 34.5t-59.5 -34.5t-20.5 -90.5q0 -58 20 -91.5t60 -33.5t60 33.5t20 91.5z" />
    <glyph glyph-name="plusminus" unicode="&#xb1;" 
d="M449 1161h346v-272h258v-299h-258v-244h-346v244h-259v299h259v272zM190 270h863v-270h-863v270z" />
    <glyph glyph-name="twosuperior" unicode="&#xb2;" horiz-adv-x="794" 
d="M53 1575q157 75 355 72q156 0 238.5 -62.5t82.5 -169.5q0 -56 -21 -103.5t-71 -92t-81 -67t-101 -66.5q-5 -4 -9 -6.5t-8 -4.5l-6 -4h287l8 -223h-651l-15 223l144 98q184 129 184 187q0 53 -78 53q-19 0 -40 -2t-44 -6.5t-38.5 -8t-38.5 -9.5t-29 -7z" />
    <glyph glyph-name="threesuperior" unicode="&#xb3;" horiz-adv-x="784" 
d="M61 1591q143 56 320 56q143 0 226 -50t83 -145q0 -50 -27 -95t-79 -75q74 -27 111.5 -76t37.5 -108q0 -129 -101 -198t-280 -69q-96 0 -181.5 14.5t-131.5 33.5l61 196q118 -22 170 -22q58 0 86 12q29 11 29 39q0 45 -98 45h-99l-12 176h78q100 0 100 49q0 45 -90 45
q-70 0 -149 -18z" />
    <glyph glyph-name="acute" unicode="&#xb4;" horiz-adv-x="819" 
d="M176 1315l424 368l182 -231v-37l-452 -282z" />
    <glyph glyph-name="uni00B5" unicode="&#xb5;" horiz-adv-x="1374" 
d="M721 1028l467 2v-608q0 -45 15 -66.5t50 -21.5q31 0 47 2l29 -309q-41 -17 -66.5 -25t-71.5 -15t-104 -7q-104 0 -179.5 44t-100.5 130q-21 -82 -85 -129.5t-163 -47.5h-10l24 -448h-454v1497l469 8v-581q0 -62 14.5 -90.5t50.5 -28.5q38 0 53 38.5t15 129.5v526z" />
    <glyph glyph-name="paragraph" unicode="&#xb6;" horiz-adv-x="1320" 
d="M39 926q0 105 36.5 187.5t96 134.5t142 86t167.5 47.5t178 13.5h95v-1844h-320v869q-191 48 -293 184t-102 322zM858 -449v1842q193 -10 320 -31v-1811h-320z" />
    <glyph glyph-name="periodcentered" unicode="&#xb7;" horiz-adv-x="536" 
d="M78 561q0 94 51 150.5t141 56.5q92 0 141.5 -53.5t49.5 -145.5q0 -98 -50.5 -155.5t-144.5 -57.5q-91 0 -139.5 54t-48.5 151z" />
    <glyph glyph-name="cedilla" unicode="&#xb8;" horiz-adv-x="819" 
d="M211 -164l115 242l221 -66l-47 -100h26q108 0 177 -51t69 -148q0 -87 -68 -154.5t-183 -107t-263 -51.5l-35 190q226 60 226 121q0 22 -19.5 29.5t-58.5 7.5q-48 0 -88 -8z" />
    <glyph glyph-name="onesuperior" unicode="&#xb9;" horiz-adv-x="739" 
d="M45 1522l258 112h275v-563h112l8 -223h-622v223h164v283l-125 -31z" />
    <glyph glyph-name="ordmasculine" unicode="&#xba;" horiz-adv-x="905" 
d="M41 1006q0 154 109 248t307 94q194 0 300.5 -94t106.5 -238q0 -162 -112.5 -252t-315.5 -90q-194 0 -294.5 91.5t-100.5 240.5zM522 1012q0 133 -69 133q-24 0 -45 -21q-27 -34 -27 -110q0 -59 18 -98t54 -39q32 0 49 24q20 34 20 111z" />
    <glyph glyph-name="guillemotright" unicode="&#xbb;" horiz-adv-x="1372" 
d="M49 842l297 170l363 -428l-9 -138l-354 -430l-297 172l215 328zM674 842l297 170l362 -428l-8 -138l-354 -430l-297 172l215 328z" />
    <glyph glyph-name="onequarter" unicode="&#xbc;" horiz-adv-x="2123" 
d="M123 1276l280 113h273v-564h135l8 -223h-684v223h205v285l-156 -33zM528 55l879 1377l184 -115l-878 -1376zM1245 362l379 453h332v-465h98l8 -213h-106v-108h-316v108h-370zM1577 461l-88 -111h151v187h-6z" />
    <glyph glyph-name="onehalf" unicode="&#xbd;" horiz-adv-x="2123" 
d="M123 1276l280 113h273v-564h135l8 -223h-684v223h205v285l-156 -33zM528 55l879 1377l184 -115l-878 -1376zM1319 756q155 74 354 71q156 0 239 -62t83 -169q0 -56 -21 -103.5t-71 -92t-81 -67t-101 -66.5q-5 -4 -9 -6.5t-8 -4.5l-6 -4h289l6 -223h-652l-14 223l143 98
q187 131 187 187q0 53 -80 53q-53 0 -188 -33z" />
    <glyph glyph-name="threequarters" unicode="&#xbe;" horiz-adv-x="2123" 
d="M129 1346q144 55 322 55q143 0 225 -50t82 -145q0 -109 -107 -170q74 -27 112 -76t38 -108q0 -129 -100 -197.5t-279 -68.5q-98 0 -184.5 14t-131.5 33l62 196q118 -22 172 -22q56 0 84 12q31 10 31 39q0 45 -99 45h-100l-10 176h78q51 0 74.5 11.5t23.5 37.5
q0 46 -88 46q-67 0 -150 -19zM528 55l879 1377l184 -115l-878 -1376zM1245 362l379 453h332v-465h98l8 -213h-106v-108h-316v108h-370zM1577 461l-88 -111h151v187h-6z" />
    <glyph glyph-name="questiondown" unicode="&#xbf;" horiz-adv-x="983" 
d="M352 522h373q31 -56 31 -112q0 -57 -26 -100.5t-79 -94.5q-59 -59 -85.5 -96t-26.5 -74q0 -76 135 -76q88 0 194 27l80 -275q-190 -88 -456 -88q-74 0 -138.5 11t-122.5 37t-99.5 64.5t-66 96.5t-24.5 131q0 173 162 297q48 38 74.5 63t50.5 62.5t24 73.5v53zM309 844
q0 97 60.5 155t160.5 58q99 0 159.5 -58t60.5 -153q0 -92 -60.5 -146.5t-159.5 -54.5q-100 0 -160.5 54t-60.5 145z" />
    <glyph glyph-name="Agrave" unicode="&#xc0;" horiz-adv-x="1388" 
d="M692 969l-112 -441h211l-27 101l-59 340h-13zM432 1368l543 8l371 -1171q36 -112 36 -205h-456l-56 213h-372l-56 -213h-448q0 103 37 203zM309 1690l117 268l518 -250l-90 -217l-543 162z" />
    <glyph glyph-name="Aacute" unicode="&#xc1;" horiz-adv-x="1388" 
d="M692 969l-112 -441h211l-27 101l-59 340h-13zM432 1368l543 8l371 -1171q36 -112 36 -205h-456l-56 213h-372l-56 -213h-448q0 103 37 203zM440 1708l533 250l110 -268l-4 -37l-551 -162z" />
    <glyph glyph-name="Acircumflex" unicode="&#xc2;" horiz-adv-x="1388" 
d="M692 969l-112 -441h211l-27 101l-59 340h-13zM432 1368l543 8l371 -1171q36 -112 36 -205h-456l-56 213h-372l-56 -213h-448q0 103 37 203zM563 1911l273 8l280 -252l-160 -182l-264 174l-278 -176l-142 178z" />
    <glyph glyph-name="Atilde" unicode="&#xc3;" horiz-adv-x="1388" 
d="M692 969l-112 -441h211l-27 101l-59 340h-13zM432 1368l543 8l371 -1171q36 -112 36 -205h-456l-56 213h-372l-56 -213h-448q0 103 37 203zM838 1800q17 0 35.5 13t37.5 39t27 38.5t23 38.5l194 -92q-40 -153 -124.5 -240.5t-194.5 -87.5q-54 0 -100.5 19.5t-72.5 43
t-55 43t-51 19.5q-31 0 -58.5 -31t-70.5 -102l-195 94q44 151 130.5 239.5t201.5 88.5q43 0 81.5 -12.5t64.5 -30.5t48 -36.5t42 -31t37 -12.5z" />
    <glyph glyph-name="Adieresis" unicode="&#xc4;" horiz-adv-x="1388" 
d="M692 969l-112 -441h211l-27 101l-59 340h-13zM432 1368l543 8l371 -1171q36 -112 36 -205h-456l-56 213h-372l-56 -213h-448q0 103 37 203zM756 1690q0 89 57 141.5t150 52.5q81 0 132.5 -45.5t51.5 -120.5q0 -88 -57.5 -141t-149.5 -53q-82 0 -133 45.5t-51 120.5z
M242 1690q0 89 56.5 141.5t147.5 52.5q83 0 135 -45t52 -121q0 -88 -58 -141t-151 -53q-79 0 -130.5 46t-51.5 120z" />
    <glyph glyph-name="Aring" unicode="&#xc5;" horiz-adv-x="1388" 
d="M692 969l-112 -441h211l-27 101l-59 340h-13zM432 1368l543 8l371 -1171q36 -112 36 -205h-456l-56 213h-372l-56 -213h-448q0 103 37 203zM348 1737q0 131 101 206.5t258 75.5q144 0 238.5 -68.5t94.5 -191.5q0 -136 -99.5 -212.5t-256.5 -76.5q-150 0 -243 71t-93 196z
M797 1749q0 42 -27.5 64t-73.5 22q-49 0 -77.5 -23.5t-28.5 -68.5q0 -41 26.5 -64.5t71.5 -23.5q48 0 78.5 25.5t30.5 68.5z" />
    <glyph glyph-name="AE" unicode="&#xc6;" horiz-adv-x="1925" 
d="M639 1372h1241l-18 -328h-506v-196h373v-320h-373v-200h506l18 -328h-993v276h-322l-114 -276l-467 2q9 81 82 227zM784 803l-92 -221h195v450h-8z" />
    <glyph glyph-name="Ccedilla" unicode="&#xc7;" horiz-adv-x="1175" 
d="M43 666q0 148 49 280t138.5 232t225.5 158.5t300 58.5q250 0 422 -103l-142 -295q-116 39 -215 39q-128 0 -200 -75q-86 -92 -86 -269q0 -73 15.5 -134t48.5 -112.5t93 -80.5t142 -29q102 0 231 35l94 -303q-156 -73 -352 -86l-33 -70h27q108 0 177 -51t69 -148
q0 -129 -143.5 -212t-371.5 -101l-34 190q109 29 167 58t58 63q0 22 -19.5 29.5t-58.5 7.5q-48 0 -88 -8l-72 96l74 154q-240 45 -378 223.5t-138 452.5z" />
    <glyph glyph-name="Egrave" unicode="&#xc8;" horiz-adv-x="1130" 
d="M92 1372h993l-18 -328h-506v-196h373v-320h-373v-200h506l18 -328h-993v1372zM217 1690l117 268l518 -250l-90 -217l-543 162z" />
    <glyph glyph-name="Eacute" unicode="&#xc9;" horiz-adv-x="1130" 
d="M92 1372h993l-18 -328h-506v-196h373v-320h-373v-200h506l18 -328h-993v1372zM348 1708l533 250l110 -268l-4 -37l-551 -162z" />
    <glyph glyph-name="Ecircumflex" unicode="&#xca;" horiz-adv-x="1130" 
d="M92 1372h993l-18 -328h-506v-196h373v-320h-373v-200h506l18 -328h-993v1372zM471 1911l272 8l281 -252l-160 -182l-264 174l-278 -176l-142 178z" />
    <glyph glyph-name="Edieresis" unicode="&#xcb;" horiz-adv-x="1130" 
d="M92 1372h993l-18 -328h-506v-196h373v-320h-373v-200h506l18 -328h-993v1372zM664 1690q0 89 56.5 141.5t149.5 52.5q81 0 133 -45.5t52 -120.5q0 -88 -57.5 -141t-149.5 -53q-82 0 -133 45.5t-51 120.5zM150 1690q0 89 56.5 141.5t147.5 52.5q83 0 135 -45t52 -121
q0 -88 -58 -141t-151 -53q-79 0 -130.5 46t-51.5 120z" />
    <glyph glyph-name="Igrave" unicode="&#xcc;" horiz-adv-x="653" 
d="M92 1372h469v-1372h-469v1372zM-59 1690l116 268l518 -250l-90 -217l-542 162z" />
    <glyph glyph-name="Iacute" unicode="&#xcd;" horiz-adv-x="653" 
d="M92 1372h469v-1372h-469v1372zM72 1708l532 250l111 -268l-4 -37l-551 -162z" />
    <glyph glyph-name="Icircumflex" unicode="&#xce;" horiz-adv-x="653" 
d="M92 1372h469v-1372h-469v1372zM195 1911l272 8l281 -252l-160 -182l-264 174l-279 -176l-141 178z" />
    <glyph glyph-name="Idieresis" unicode="&#xcf;" horiz-adv-x="653" 
d="M92 1372h469v-1372h-469v1372zM387 1690q0 89 57 141.5t150 52.5q81 0 132.5 -45.5t51.5 -120.5q0 -88 -57.5 -141t-149.5 -53q-82 0 -133 45.5t-51 120.5zM-127 1690q0 88 56.5 141t148.5 53q83 0 134.5 -45t51.5 -121q0 -88 -58 -141t-151 -53q-79 0 -130.5 46
t-51.5 120z" />
    <glyph glyph-name="Eth" unicode="&#xd0;" horiz-adv-x="1452" 
d="M123 1362q326 33 553 33q178 0 318.5 -53.5t230.5 -148t137 -220.5t47 -275q0 -117 -30 -223.5t-92.5 -197.5t-152 -157.5t-215 -104.5t-274.5 -38q-234 0 -522 31v567h-109v250h109v537zM696 317q86 0 142 52q52 44 77 128.5t25 190.5q0 73 -14 136.5t-43 116
t-78.5 82.5t-114.5 30q-33 0 -115 -4v-224h216v-250h-216v-253q51 -5 121 -5z" />
    <glyph glyph-name="Ntilde" unicode="&#xd1;" horiz-adv-x="1480" 
d="M92 1372h469l328 -538l121 -238h6l-19 258v518h392v-1372h-457l-338 559l-121 236h-8l18 -267v-528h-391v1372zM903 1800q17 0 35.5 13t37.5 39t27 38.5t23 38.5l195 -92q-40 -153 -125 -240.5t-195 -87.5q-54 0 -100 19.5t-72 43t-55 43t-51 19.5q-31 0 -58.5 -31
t-70.5 -102l-195 94q44 151 130.5 239.5t201.5 88.5q53 0 99 -19t72 -42.5t53.5 -42.5t47.5 -19z" />
    <glyph glyph-name="Ograve" unicode="&#xd2;" horiz-adv-x="1441" 
d="M43 674q0 327 190 527t506 200q133 0 243 -36.5t186.5 -100.5t129 -153.5t77 -193.5t24.5 -221q0 -326 -190.5 -525.5t-506.5 -199.5q-133 0 -243 36.5t-186 100.5t-128.5 153t-77 192.5t-24.5 220.5zM909 698q0 103 -16.5 181t-59.5 130t-108 52q-72 0 -119 -70
q-71 -103 -71 -307q0 -97 16.5 -177t60.5 -138t111 -58q72 0 117 62q69 96 69 325zM336 1690l117 268l518 -250l-90 -217l-543 162z" />
    <glyph glyph-name="Oacute" unicode="&#xd3;" horiz-adv-x="1441" 
d="M43 674q0 327 190 527t506 200q133 0 243 -36.5t186.5 -100.5t129 -153.5t77 -193.5t24.5 -221q0 -326 -190.5 -525.5t-506.5 -199.5q-133 0 -243 36.5t-186 100.5t-128.5 153t-77 192.5t-24.5 220.5zM909 698q0 103 -16.5 181t-59.5 130t-108 52q-72 0 -119 -70
q-71 -103 -71 -307q0 -97 16.5 -177t60.5 -138t111 -58q72 0 117 62q69 96 69 325zM467 1708l532 250l111 -268l-4 -37l-551 -162z" />
    <glyph glyph-name="Ocircumflex" unicode="&#xd4;" horiz-adv-x="1441" 
d="M43 674q0 327 190 527t506 200q133 0 243 -36.5t186.5 -100.5t129 -153.5t77 -193.5t24.5 -221q0 -326 -190.5 -525.5t-506.5 -199.5q-133 0 -243 36.5t-186 100.5t-128.5 153t-77 192.5t-24.5 220.5zM909 698q0 103 -16.5 181t-59.5 130t-108 52q-72 0 -119 -70
q-71 -103 -71 -307q0 -97 16.5 -177t60.5 -138t111 -58q72 0 117 62q69 96 69 325zM590 1911l272 8l281 -252l-160 -182l-264 174l-279 -176l-141 178z" />
    <glyph glyph-name="Otilde" unicode="&#xd5;" horiz-adv-x="1441" 
d="M43 674q0 327 190 527t506 200q133 0 243 -36.5t186.5 -100.5t129 -153.5t77 -193.5t24.5 -221q0 -326 -190.5 -525.5t-506.5 -199.5q-133 0 -243 36.5t-186 100.5t-128.5 153t-77 192.5t-24.5 220.5zM909 698q0 103 -16.5 181t-59.5 130t-108 52q-72 0 -119 -70
q-71 -103 -71 -307q0 -97 16.5 -177t60.5 -138t111 -58q72 0 117 62q69 96 69 325zM864 1800q17 0 35.5 13t37.5 39t27 38.5t23 38.5l195 -92q-40 -153 -125 -240.5t-195 -87.5q-54 0 -100 19.5t-72 43t-55 43t-51 19.5q-31 0 -58.5 -31t-70.5 -102l-195 94
q44 151 130.5 239.5t201.5 88.5q53 0 99 -19t72 -42.5t53.5 -42.5t47.5 -19z" />
    <glyph glyph-name="Odieresis" unicode="&#xd6;" horiz-adv-x="1441" 
d="M43 674q0 327 190 527t506 200q133 0 243 -36.5t186.5 -100.5t129 -153.5t77 -193.5t24.5 -221q0 -326 -190.5 -525.5t-506.5 -199.5q-133 0 -243 36.5t-186 100.5t-128.5 153t-77 192.5t-24.5 220.5zM909 698q0 103 -16.5 181t-59.5 130t-108 52q-72 0 -119 -70
q-71 -103 -71 -307q0 -97 16.5 -177t60.5 -138t111 -58q72 0 117 62q69 96 69 325zM782 1690q0 89 57 141.5t150 52.5q81 0 133 -45.5t52 -120.5q0 -88 -57.5 -141t-149.5 -53q-82 0 -133.5 45.5t-51.5 120.5zM268 1690q0 88 56.5 141t148.5 53q83 0 134.5 -45t51.5 -121
q0 -88 -57.5 -141t-150.5 -53q-79 0 -131 46t-52 120z" />
    <glyph glyph-name="multiply" unicode="&#xd7;" 
d="M836 129l-213 217l-215 -217l-224 211l222 223l-222 225l224 209l215 -215l213 215l223 -209l-221 -225l221 -223z" />
    <glyph glyph-name="Oslash.alt" unicode="&#xd8;" horiz-adv-x="1419" 
d="M45 674q0 327 187.5 526t498.5 199q115 0 227 -33l93 147l241 -139l-96 -155q180 -189 180 -523q0 -214 -84 -378.5t-240.5 -255.5t-361.5 -91q-127 0 -225 33l-88 -145l-238 145l88 146q-90 95 -136 230t-46 294zM932 688q0 99 -26.5 187t-80.5 146t-123 58
q-101 0 -139 -55q-74 -102 -74 -340q0 -100 26 -188.5t79.5 -146.5t122.5 -58q100 0 139 57q76 102 76 340z" />
    <glyph glyph-name="Ugrave" unicode="&#xd9;" horiz-adv-x="1376" 
d="M829 1372h469v-774q0 -297 -158 -462t-474 -165q-286 0 -436 150.5t-150 417.5v833h467v-811q0 -127 32 -188.5t111 -61.5q68 0 98 47q41 49 41 172v842zM305 1690l117 268l518 -250l-90 -217l-543 162z" />
    <glyph glyph-name="Uacute" unicode="&#xda;" horiz-adv-x="1376" 
d="M829 1372h469v-774q0 -297 -158 -462t-474 -165q-286 0 -436 150.5t-150 417.5v833h467v-811q0 -127 32 -188.5t111 -61.5q68 0 98 47q41 49 41 172v842zM436 1708l533 250l110 -268l-4 -37l-551 -162z" />
    <glyph glyph-name="Ucircumflex" unicode="&#xdb;" horiz-adv-x="1376" 
d="M829 1372h469v-774q0 -297 -158 -462t-474 -165q-286 0 -436 150.5t-150 417.5v833h467v-811q0 -127 32 -188.5t111 -61.5q68 0 98 47q41 49 41 172v842zM559 1911l272 8l281 -252l-160 -182l-264 174l-278 -176l-142 178z" />
    <glyph glyph-name="Udieresis" unicode="&#xdc;" horiz-adv-x="1376" 
d="M829 1372h469v-774q0 -297 -158 -462t-474 -165q-286 0 -436 150.5t-150 417.5v833h467v-811q0 -127 32 -188.5t111 -61.5q68 0 98 47q41 49 41 172v842zM752 1690q0 89 56.5 141.5t149.5 52.5q81 0 133 -45.5t52 -120.5q0 -88 -57.5 -141t-149.5 -53q-82 0 -133 45.5
t-51 120.5zM238 1690q0 89 56.5 141.5t147.5 52.5q83 0 135 -45t52 -121q0 -88 -58 -141t-151 -53q-79 0 -130.5 46t-51.5 120z" />
    <glyph glyph-name="Yacute" unicode="&#xdd;" horiz-adv-x="1318" 
d="M862 1372h465q-3 -90 -72 -223l-362 -698v-451h-467v449l-365 700q-67 131 -67 223h487l131 -346l60 -192h10zM408 1708l532 250l111 -268l-4 -37l-551 -162z" />
    <glyph glyph-name="Thorn" unicode="&#xde;" horiz-adv-x="1280" 
d="M616 506q69 0 105 31q70 56 70 170q0 95 -43.5 135.5t-133.5 40.5q-35 0 -53 -2v-375h55zM92 1372h469v-166h33q82 0 156 -9t150.5 -28.5t137.5 -56t109.5 -88t75 -127.5t26.5 -170q0 -112 -41.5 -208.5t-117 -167.5t-187 -111.5t-244.5 -40.5q-40 0 -98 4v-203h-469
v1372z" />
    <glyph glyph-name="germandbls" unicode="&#xdf;" horiz-adv-x="1538" 
d="M39 1030h151q8 235 157.5 382.5t412.5 146.5q245 -1 373.5 -113t130.5 -307q2 -75 -16 -144.5t-37.5 -126t-20.5 -96.5q0 -26 15 -49.5t33.5 -38.5t57.5 -41q114 -76 168 -147t54 -177q0 -158 -103.5 -251t-329.5 -93t-372 82l82 262q112 -38 223 -38q69 0 69 34
q0 23 -90 78q-130 67 -184.5 139t-54.5 173q0 81 35.5 208t35.5 215q0 119 -77 119q-31 0 -51 -13t-29 -40.5t-12 -56t-3 -74.5v-1063h-467v723h-151v307z" />
    <glyph glyph-name="agrave" unicode="&#xe0;" horiz-adv-x="1126" 
d="M72 926q90 57 229.5 91t276.5 34q477 0 477 -400v-176q0 -85 20 -442l-334 -49l-88 147q-64 -72 -144.5 -113t-168.5 -41q-140 0 -223.5 72.5t-83.5 210.5q0 142 102 225q134 109 457 138q-4 63 -33.5 87.5t-97.5 24.5q-132 0 -299 -59zM514 254q36 0 78 22v154
q-101 -6 -127 -29q-23 -18 -23 -61q0 -86 72 -86zM211 1452l182 231l422 -368l-151 -182l-453 282v37z" />
    <glyph glyph-name="aacute" unicode="&#xe1;" horiz-adv-x="1126" 
d="M72 926q90 57 229.5 91t276.5 34q477 0 477 -400v-176q0 -85 20 -442l-334 -49l-88 147q-64 -72 -144.5 -113t-168.5 -41q-140 0 -223.5 72.5t-83.5 210.5q0 142 102 225q134 109 457 138q-4 63 -33.5 87.5t-97.5 24.5q-132 0 -299 -59zM514 254q36 0 78 22v154
q-101 -6 -127 -29q-23 -18 -23 -61q0 -86 72 -86zM332 1315l424 368l182 -231v-37l-453 -282z" />
    <glyph glyph-name="acircumflex" unicode="&#xe2;" horiz-adv-x="1126" 
d="M72 926q90 57 229.5 91t276.5 34q477 0 477 -400v-176q0 -85 20 -442l-334 -49l-88 147q-64 -72 -144.5 -113t-168.5 -41q-140 0 -223.5 72.5t-83.5 210.5q0 142 102 225q134 109 457 138q-4 63 -33.5 87.5t-97.5 24.5q-132 0 -299 -59zM514 254q36 0 78 22v154
q-101 -6 -127 -29q-23 -18 -23 -61q0 -86 72 -86zM430 1620l264 8l291 -348l-166 -150l-260 216l-254 -216l-162 150z" />
    <glyph glyph-name="atilde" unicode="&#xe3;" horiz-adv-x="1126" 
d="M72 926q90 57 229.5 91t276.5 34q477 0 477 -400v-176q0 -85 20 -442l-334 -49l-88 147q-64 -72 -144.5 -113t-168.5 -41q-140 0 -223.5 72.5t-83.5 210.5q0 142 102 225q134 109 457 138q-4 63 -33.5 87.5t-97.5 24.5q-132 0 -299 -59zM514 254q36 0 78 22v154
q-101 -6 -127 -29q-23 -18 -23 -61q0 -86 72 -86zM711 1442q44 0 108 128q2 2 2.5 3.5t1.5 3.5l2 4l205 -80q-28 -156 -114.5 -252t-208.5 -96q-55 0 -103 21t-74.5 45.5t-54.5 45.5t-47 21q-21 0 -43 -21.5t-35.5 -44t-36.5 -65.5l-204 80q39 164 122 252t207 88
q54 0 101.5 -21t73.5 -45.5t52.5 -45.5t45.5 -21z" />
    <glyph glyph-name="adieresis" unicode="&#xe4;" horiz-adv-x="1126" 
d="M72 926q90 57 229.5 91t276.5 34q477 0 477 -400v-176q0 -85 20 -442l-334 -49l-88 147q-64 -72 -144.5 -113t-168.5 -41q-140 0 -223.5 72.5t-83.5 210.5q0 142 102 225q134 109 457 138q-4 63 -33.5 87.5t-97.5 24.5q-132 0 -299 -59zM514 254q36 0 78 22v154
q-101 -6 -127 -29q-23 -18 -23 -61q0 -86 72 -86zM614 1333q0 88 54.5 141.5t144.5 53.5q82 0 131 -46.5t49 -123.5q0 -88 -55 -142.5t-145 -54.5q-80 0 -129.5 47t-49.5 125zM139 1333q0 88 54.5 141.5t144.5 53.5q82 0 131 -46.5t49 -123.5q0 -88 -55.5 -142.5
t-145.5 -54.5q-80 0 -129 47t-49 125z" />
    <glyph glyph-name="aring" unicode="&#xe5;" horiz-adv-x="1126" 
d="M72 926q90 57 229.5 91t276.5 34q477 0 477 -400v-176q0 -85 20 -442l-334 -49l-88 147q-64 -72 -144.5 -113t-168.5 -41q-140 0 -223.5 72.5t-83.5 210.5q0 142 102 225q134 109 457 138q-4 63 -33.5 87.5t-97.5 24.5q-132 0 -299 -59zM514 254q36 0 78 22v154
q-101 -6 -127 -29q-23 -18 -23 -61q0 -86 72 -86zM233 1389q0 128 98.5 204t248.5 76q137 0 228 -70t91 -186q0 -129 -99.5 -207t-252.5 -78q-135 0 -224.5 71.5t-89.5 189.5zM659 1401q0 37 -25 60t-67 22q-45 2 -72.5 -20.5t-27.5 -63.5q0 -38 24.5 -61t67.5 -23
q45 0 72.5 23.5t27.5 62.5z" />
    <glyph glyph-name="ae" unicode="&#xe6;" horiz-adv-x="1646" 
d="M1141 770q-54 0 -78.5 -39.5t-30.5 -120.5h187q2 16 2 49q0 50 -19.5 80.5t-60.5 30.5zM135 485q139 109 471 138q-4 63 -35 87.5t-102 24.5q-133 0 -301 -59l-90 250q96 59 233.5 92t268.5 33q176 0 274 -76q132 82 297 82q117 0 205 -35.5t141.5 -100.5t80 -151.5
t26.5 -194.5q0 -91 -15 -167h-547q39 -134 195 -134q117 0 260 33l78 -241q-218 -89 -436 -89q-247 0 -387 140q-69 -62 -170 -101t-224 -39q-148 0 -237.5 72.5t-89.5 210.5q0 143 104 225zM512 254q57 0 127 51q-20 63 -25 125q-125 -6 -151 -29q-23 -20 -23 -61
q0 -86 72 -86z" />
    <glyph glyph-name="ccedilla" unicode="&#xe7;" horiz-adv-x="972" 
d="M41 483q0 263 144.5 415.5t416.5 152.5q111 0 205.5 -23.5t140.5 -56.5l-104 -295q-105 31 -197 31q-65 0 -94 -33q-41 -54 -41 -158q0 -215 164 -215q90 0 184 27l84 -271q-118 -64 -299 -77l-33 -68h27q108 0 177 -51t69 -148q0 -87 -68 -154.5t-183 -107t-263 -51.5
l-35 190q109 29 167 58t58 63q0 22 -19.5 29.5t-58.5 7.5q-48 0 -88 -8l-71 96l75 158q-175 39 -266.5 162t-91.5 327z" />
    <glyph glyph-name="egrave" unicode="&#xe8;" horiz-adv-x="1095" 
d="M39 487q0 118 39 222t109.5 181t177 122t233.5 45q117 0 205 -35.5t141.5 -100.5t80 -151.5t26.5 -194.5q0 -91 -15 -167h-528q34 -134 176 -134q117 0 260 33l78 -241q-218 -89 -436 -89q-253 0 -400 137.5t-147 372.5zM590 770q-47 0 -67 -39t-25 -121h170q2 16 2 49
q0 50 -20 80.5t-60 30.5zM213 1452l182 231l422 -368l-151 -182l-453 282v37z" />
    <glyph glyph-name="eacute" unicode="&#xe9;" horiz-adv-x="1095" 
d="M39 487q0 118 39 222t109.5 181t177 122t233.5 45q117 0 205 -35.5t141.5 -100.5t80 -151.5t26.5 -194.5q0 -91 -15 -167h-528q34 -134 176 -134q117 0 260 33l78 -241q-218 -89 -436 -89q-253 0 -400 137.5t-147 372.5zM590 770q-47 0 -67 -39t-25 -121h170q2 16 2 49
q0 50 -20 80.5t-60 30.5zM334 1315l424 368l182 -231v-37l-453 -282z" />
    <glyph glyph-name="ecircumflex" unicode="&#xea;" horiz-adv-x="1095" 
d="M39 487q0 118 39 222t109.5 181t177 122t233.5 45q117 0 205 -35.5t141.5 -100.5t80 -151.5t26.5 -194.5q0 -91 -15 -167h-528q34 -134 176 -134q117 0 260 33l78 -241q-218 -89 -436 -89q-253 0 -400 137.5t-147 372.5zM590 770q-47 0 -67 -39t-25 -121h170q2 16 2 49
q0 50 -20 80.5t-60 30.5zM432 1620l264 8l291 -348l-166 -150l-260 216l-254 -216l-162 150z" />
    <glyph glyph-name="edieresis" unicode="&#xeb;" horiz-adv-x="1095" 
d="M39 487q0 118 39 222t109.5 181t177 122t233.5 45q117 0 205 -35.5t141.5 -100.5t80 -151.5t26.5 -194.5q0 -91 -15 -167h-528q34 -134 176 -134q117 0 260 33l78 -241q-218 -89 -436 -89q-253 0 -400 137.5t-147 372.5zM590 770q-47 0 -67 -39t-25 -121h170q2 16 2 49
q0 50 -20 80.5t-60 30.5zM616 1333q0 88 54.5 141.5t144.5 53.5q82 0 131 -46.5t49 -123.5q0 -88 -55 -142.5t-145 -54.5q-80 0 -129.5 47t-49.5 125zM141 1333q0 88 54.5 141.5t144.5 53.5q82 0 131 -46.5t49 -123.5q0 -88 -55.5 -142.5t-145.5 -54.5q-80 0 -129 47
t-49 125z" />
    <glyph glyph-name="igrave" unicode="&#xec;" horiz-adv-x="624" 
d="M78 1026l469 8v-1034h-469v1026zM-41 1452l182 231l422 -368l-151 -182l-453 282v37z" />
    <glyph glyph-name="iacute" unicode="&#xed;" horiz-adv-x="624" 
d="M78 1026l469 8v-1034h-469v1026zM80 1315l424 368l182 -231v-37l-453 -282z" />
    <glyph glyph-name="icircumflex" unicode="&#xee;" horiz-adv-x="624" 
d="M78 1026l469 8v-1034h-469v1026zM182 1620l264 8l256 -352l-167 -143l-224 213l-217 -213l-166 145z" />
    <glyph glyph-name="idieresis" unicode="&#xef;" horiz-adv-x="624" 
d="M78 1026l469 8v-1034h-469v1026zM346 1333q0 87 54 141t143 54q82 0 131 -46.5t49 -123.5q0 -88 -55 -142.5t-144 -54.5q-79 0 -128.5 47.5t-49.5 124.5zM-96 1333q0 87 53.5 141t142.5 54q80 0 130.5 -47t50.5 -123q0 -88 -55 -142.5t-144 -54.5q-81 0 -129.5 47.5
t-48.5 124.5z" />
    <glyph glyph-name="eth" unicode="&#xf0;" horiz-adv-x="1181" 
d="M254 1343l108 246q219 -42 390 -164l241 129l107 -213l-174 -86q103 -133 156 -299.5t53 -347.5q0 -304 -153 -469.5t-411 -165.5q-242 0 -388 132.5t-146 338.5q0 144 75 254t207.5 169t301.5 59h30q-29 93 -73 155l-293 -145l-90 190l223 119q-68 51 -164 98zM594 266
q48 0 74 60.5t26 177.5q0 106 -4 153q-41 9 -74 9q-58 0 -81 -29q-25 -42 -25 -168q0 -203 84 -203z" />
    <glyph glyph-name="ntilde" unicode="&#xf1;" horiz-adv-x="1228" 
d="M61 1001l338 50l84 -144q132 150 326 150q168 0 258 -89t90 -266v-702h-469v653q0 53 -14 72.5t-47 19.5q-35 0 -76 -18v-727h-469v520q0 127 -21 481zM766 1442q29 0 56 37t55 93q1 3 2 5l2 4l204 -80q-28 -156 -114.5 -252t-208.5 -96q-55 0 -103 21t-74.5 45.5
t-54.5 45.5t-47 21q-13 0 -26 -8t-23 -18t-23.5 -31t-20.5 -34t-21 -40l-205 80q39 164 122.5 252t207.5 88q54 0 101 -21t73 -45.5t52.5 -45.5t45.5 -21z" />
    <glyph glyph-name="ograve" unicode="&#xf2;" horiz-adv-x="1193" 
d="M39 485q0 123 41 228t115 181t184.5 119.5t243.5 43.5q105 0 193 -29t150 -79t105 -118t63.5 -146t20.5 -163q0 -249 -156 -400t-426 -151q-130 0 -233.5 41t-168 112.5t-98.5 163.5t-34 197zM688 487q0 114 -24.5 195.5t-69.5 81.5q-39 0 -55 -37q-13 -29 -22 -88.5
t-9 -118.5q0 -112 24.5 -183t71.5 -71q35 0 55 35q29 66 29 186zM242 1452l182 231l422 -368l-152 -182l-452 282v37z" />
    <glyph glyph-name="oacute" unicode="&#xf3;" horiz-adv-x="1193" 
d="M39 485q0 123 41 228t115 181t184.5 119.5t243.5 43.5q105 0 193 -29t150 -79t105 -118t63.5 -146t20.5 -163q0 -249 -156 -400t-426 -151q-130 0 -233.5 41t-168 112.5t-98.5 163.5t-34 197zM688 487q0 114 -24.5 195.5t-69.5 81.5q-39 0 -55 -37q-13 -29 -22 -88.5
t-9 -118.5q0 -112 24.5 -183t71.5 -71q35 0 55 35q29 66 29 186zM362 1315l424 368l183 -231v-37l-453 -282z" />
    <glyph glyph-name="ocircumflex" unicode="&#xf4;" horiz-adv-x="1193" 
d="M39 485q0 123 41 228t115 181t184.5 119.5t243.5 43.5q105 0 193 -29t150 -79t105 -118t63.5 -146t20.5 -163q0 -249 -156 -400t-426 -151q-130 0 -233.5 41t-168 112.5t-98.5 163.5t-34 197zM688 487q0 114 -24.5 195.5t-69.5 81.5q-39 0 -55 -37q-13 -29 -22 -88.5
t-9 -118.5q0 -112 24.5 -183t71.5 -71q35 0 55 35q29 66 29 186zM461 1620l264 8l291 -348l-166 -150l-260 216l-254 -216l-162 150z" />
    <glyph glyph-name="otilde" unicode="&#xf5;" horiz-adv-x="1193" 
d="M39 485q0 123 41 228t115 181t184.5 119.5t243.5 43.5q105 0 193 -29t150 -79t105 -118t63.5 -146t20.5 -163q0 -249 -156 -400t-426 -151q-130 0 -233.5 41t-168 112.5t-98.5 163.5t-34 197zM688 487q0 114 -24.5 195.5t-69.5 81.5q-39 0 -55 -37q-13 -29 -22 -88.5
t-9 -118.5q0 -112 24.5 -183t71.5 -71q35 0 55 35q29 66 29 186zM741 1442q29 0 56 37t55 93q1 3 2 5l2 4l205 -80q-28 -156 -115 -252t-209 -96q-55 0 -103 21t-74.5 45.5t-54 45.5t-46.5 21q-21 0 -43 -21.5t-35.5 -44t-36.5 -65.5l-205 80q39 164 122.5 252t207.5 88
q54 0 101 -21t73 -45.5t52.5 -45.5t45.5 -21z" />
    <glyph glyph-name="odieresis" unicode="&#xf6;" horiz-adv-x="1193" 
d="M39 485q0 123 41 228t115 181t184.5 119.5t243.5 43.5q105 0 193 -29t150 -79t105 -118t63.5 -146t20.5 -163q0 -249 -156 -400t-426 -151q-130 0 -233.5 41t-168 112.5t-98.5 163.5t-34 197zM688 487q0 114 -24.5 195.5t-69.5 81.5q-39 0 -55 -37q-13 -29 -22 -88.5
t-9 -118.5q0 -112 24.5 -183t71.5 -71q35 0 55 35q29 66 29 186zM645 1333q0 88 54.5 141.5t144.5 53.5q82 0 131 -46.5t49 -123.5q0 -88 -55.5 -142.5t-145.5 -54.5q-80 0 -129 47t-49 125zM170 1333q0 88 54.5 141.5t144.5 53.5q82 0 131 -46.5t49 -123.5
q0 -88 -55.5 -142.5t-145.5 -54.5q-80 0 -129 47t-49 125z" />
    <glyph glyph-name="divide" unicode="&#xf7;" 
d="M190 707h863v-291h-863v291zM434 178q0 74 55 124t132 50q80 0 134 -49.5t54 -124.5q0 -78 -54.5 -133t-133.5 -55q-77 0 -132 55t-55 133zM434 958q0 76 54.5 126.5t132.5 50.5q80 0 134 -49.5t54 -124.5q0 -79 -54 -133t-134 -54q-77 0 -132 53.5t-55 130.5z" />
    <glyph glyph-name="oslash.alt" unicode="&#xf8;" horiz-adv-x="1193" 
d="M39 485q0 123 41 228t115 181t184.5 119.5t243.5 43.5q49 0 96 -6l92 182l231 -113l-81 -168q96 -71 145 -184.5t49 -245.5q0 -249 -156 -400t-426 -151q-51 0 -94 6l-94 -184l-229 111l80 164q-97 71 -147 180t-50 237zM688 487q0 114 -24.5 195.5t-69.5 81.5
q-39 0 -55 -37q-13 -29 -22 -88.5t-9 -118.5q0 -112 24.5 -183t71.5 -71q35 0 55 35q29 66 29 186z" />
    <glyph glyph-name="ugrave" unicode="&#xf9;" horiz-adv-x="1218" 
d="M74 1026l467 8v-649q0 -55 14.5 -78.5t44.5 -23.5t68 18v729h469v-520q0 -136 18 -475l-336 -49l-82 137q-131 -152 -323 -152q-163 0 -252.5 90t-89.5 267zM246 1452l182 231l422 -368l-152 -182l-452 282v37z" />
    <glyph glyph-name="uacute" unicode="&#xfa;" horiz-adv-x="1218" 
d="M74 1026l467 8v-649q0 -55 14.5 -78.5t44.5 -23.5t68 18v729h469v-520q0 -136 18 -475l-336 -49l-82 137q-131 -152 -323 -152q-163 0 -252.5 90t-89.5 267zM367 1315l424 368l182 -231v-37l-453 -282z" />
    <glyph glyph-name="ucircumflex" unicode="&#xfb;" horiz-adv-x="1218" 
d="M74 1026l467 8v-649q0 -55 14.5 -78.5t44.5 -23.5t68 18v729h469v-520q0 -136 18 -475l-336 -49l-82 137q-131 -152 -323 -152q-163 0 -252.5 90t-89.5 267zM465 1620l264 8l291 -348l-166 -150l-260 216l-254 -216l-162 150z" />
    <glyph glyph-name="udieresis" unicode="&#xfc;" horiz-adv-x="1218" 
d="M74 1026l467 8v-649q0 -55 14.5 -78.5t44.5 -23.5t68 18v729h469v-520q0 -136 18 -475l-336 -49l-82 137q-131 -152 -323 -152q-163 0 -252.5 90t-89.5 267zM649 1333q0 88 54.5 141.5t144.5 53.5q82 0 131 -46.5t49 -123.5q0 -88 -55.5 -142.5t-145.5 -54.5
q-80 0 -129 47t-49 125zM174 1333q0 88 54.5 141.5t144.5 53.5q82 0 131 -46.5t49 -123.5q0 -88 -55.5 -142.5t-145.5 -54.5q-80 0 -129 47t-49 125z" />
    <glyph glyph-name="yacute" unicode="&#xfd;" horiz-adv-x="1185" 
d="M739 1030h441q0 -79 -29 -168l-229 -694q-119 -347 -292 -513.5t-431 -166.5q-95 0 -185 12v314q150 0 277.5 54t197.5 161h-178l-262 833q-29 92 -29 168h478l59 -391q24 -137 33 -277h12zM365 1315l423 368l183 -231v-37l-453 -282z" />
    <glyph glyph-name="thorn" unicode="&#xfe;" horiz-adv-x="1214" 
d="M610 279q45 0 62 32q28 57 28 199q0 238 -79 238q-31 0 -74 -21v-438q38 -10 63 -10zM78 1532l469 8v-565q101 82 229 82q174 0 287 -147t113 -373q0 -112 -39 -217.5t-101 -180t-140.5 -119.5t-156.5 -45q-114 0 -192 60v-508h-469v2005z" />
    <glyph glyph-name="ydieresis" unicode="&#xff;" horiz-adv-x="1185" 
d="M739 1030h441q0 -79 -29 -168l-229 -694q-119 -347 -292 -513.5t-431 -166.5q-95 0 -185 12v314q150 0 277.5 54t197.5 161h-178l-262 833q-29 92 -29 168h478l59 -391q24 -137 33 -277h12zM647 1333q0 88 54.5 141.5t144.5 53.5q82 0 131 -46.5t49 -123.5
q0 -88 -55.5 -142.5t-145.5 -54.5q-80 0 -129 47t-49 125zM172 1333q0 88 54.5 141.5t144.5 53.5q82 0 131 -46.5t49 -123.5q0 -88 -55.5 -142.5t-145.5 -54.5q-80 0 -129 47t-49 125z" />
    <glyph glyph-name="Amacron" unicode="&#x100;" horiz-adv-x="1388" 
d="M692 969l-112 -441h211l-27 101l-59 340h-13zM432 1368l543 8l371 -1171q36 -112 36 -205h-456l-56 213h-372l-56 -213h-448q0 103 37 203zM362 1796h664v-260h-664v260z" />
    <glyph glyph-name="amacron" unicode="&#x101;" horiz-adv-x="1126" 
d="M72 926q90 57 229.5 91t276.5 34q477 0 477 -400v-176q0 -85 20 -442l-334 -49l-88 147q-64 -72 -144.5 -113t-168.5 -41q-140 0 -223.5 72.5t-83.5 210.5q0 142 102 225q134 109 457 138q-4 63 -33.5 87.5t-97.5 24.5q-132 0 -299 -59zM514 254q36 0 78 22v154
q-101 -6 -127 -29q-23 -18 -23 -61q0 -86 72 -86zM217 1434h696v-256h-696v256z" />
    <glyph glyph-name="Abreve" unicode="&#x102;" horiz-adv-x="1388" 
d="M692 969l-112 -441h211l-27 101l-59 340h-13zM432 1368l543 8l371 -1171q36 -112 36 -205h-456l-56 213h-372l-56 -213h-448q0 103 37 203zM1108 1819q-56 -158 -163.5 -237t-250.5 -79q-304 0 -413 314l215 100q37 -75 85.5 -110t116.5 -35q132 0 213 145z" />
    <glyph glyph-name="abreve" unicode="&#x103;" horiz-adv-x="1126" 
d="M72 926q90 57 229.5 91t276.5 34q477 0 477 -400v-176q0 -85 20 -442l-334 -49l-88 147q-64 -72 -144.5 -113t-168.5 -41q-140 0 -223.5 72.5t-83.5 210.5q0 142 102 225q134 109 457 138q-4 63 -33.5 87.5t-97.5 24.5q-132 0 -299 -59zM514 254q36 0 78 22v154
q-101 -6 -127 -29q-23 -18 -23 -61q0 -86 72 -86zM569 1419q72 0 114 49.5t48 133.5l240 -39q-21 -197 -131.5 -303.5t-278.5 -106.5t-275 106.5t-124 299.5l248 43q20 -183 159 -183z" />
    <glyph glyph-name="Aogonek" unicode="&#x104;" horiz-adv-x="1388" 
d="M432 1368l543 8l371 -1171q36 -112 36 -205q-91 -29 -135.5 -62t-44.5 -79q0 -78 96 -78q41 0 80 8l60 -233q-143 -68 -301 -68q-146 0 -228 68.5t-82 179.5q0 151 191 256v8h-92l-56 213h-372l-56 -213h-448q0 103 37 203zM692 969l-112 -441h211l-27 101l-59 340h-13z
" />
    <glyph glyph-name="aogonek" unicode="&#x105;" horiz-adv-x="1130" 
d="M72 926q90 57 229.5 91t276.5 34q477 0 477 -400v-176q0 -86 20 -446q-188 -71 -188 -158q0 -72 94 -72q32 0 90 8l64 -233q-158 -68 -304 -68q-132 0 -211 65t-79 177q0 145 178 268l-66 113q-63 -71 -144 -111.5t-169 -40.5q-140 0 -223.5 72.5t-83.5 210.5
q0 142 102 225q134 109 457 138q-4 63 -33.5 87.5t-97.5 24.5q-132 0 -299 -59zM514 254q36 0 78 22v154q-101 -6 -127 -29q-23 -18 -23 -61q0 -86 72 -86z" />
    <glyph glyph-name="Cacute" unicode="&#x106;" horiz-adv-x="1175" 
d="M43 666q0 148 49 280t138.5 232t225.5 158.5t300 58.5q250 0 422 -103l-142 -295q-116 39 -215 39q-128 0 -200 -75q-86 -92 -86 -269q0 -73 15.5 -134t48.5 -112.5t93 -80.5t142 -29q102 0 231 35l94 -303q-198 -91 -452 -91q-302 0 -483 186t-181 503zM449 1708
l532 250l111 -268l-5 -37l-550 -162z" />
    <glyph glyph-name="cacute" unicode="&#x107;" horiz-adv-x="972" 
d="M41 483q0 263 144.5 415.5t416.5 152.5q111 0 205.5 -23.5t140.5 -56.5l-104 -295q-105 31 -197 31q-65 0 -94 -33q-41 -54 -41 -158q0 -215 164 -215q90 0 184 27l84 -271q-155 -80 -373 -80q-257 0 -393.5 128t-136.5 378zM342 1315l424 368l182 -231v-37l-452 -282z
" />
    <glyph glyph-name="Ccircumflex" unicode="&#x108;" horiz-adv-x="1175" 
d="M43 666q0 148 49 280t138.5 232t225.5 158.5t300 58.5q250 0 422 -103l-142 -295q-116 39 -215 39q-128 0 -200 -75q-86 -92 -86 -269q0 -73 15.5 -134t48.5 -112.5t93 -80.5t142 -29q102 0 231 35l94 -303q-198 -91 -452 -91q-302 0 -483 186t-181 503zM571 1911l273 8
l280 -252l-159 -182l-265 174l-278 -176l-141 178z" />
    <glyph glyph-name="ccircumflex" unicode="&#x109;" horiz-adv-x="972" 
d="M41 483q0 263 144.5 415.5t416.5 152.5q111 0 205.5 -23.5t140.5 -56.5l-104 -295q-105 31 -197 31q-65 0 -94 -33q-41 -54 -41 -158q0 -215 164 -215q90 0 184 27l84 -271q-155 -80 -373 -80q-257 0 -393.5 128t-136.5 378zM440 1620l265 8l290 -348l-166 -150l-260 216
l-254 -216l-161 150z" />
    <glyph glyph-name="Cdotaccent" unicode="&#x10a;" horiz-adv-x="1175" 
d="M43 666q0 148 49 280t138.5 232t225.5 158.5t300 58.5q250 0 422 -103l-142 -295q-116 39 -215 39q-128 0 -200 -75q-86 -92 -86 -269q0 -73 15.5 -134t48.5 -112.5t93 -80.5t142 -29q102 0 231 35l94 -303q-198 -91 -452 -91q-302 0 -483 186t-181 503zM504 1700
q0 88 60 144.5t155 56.5q85 0 138.5 -49.5t53.5 -125.5q0 -88 -59.5 -143t-155.5 -55q-86 0 -139 48t-53 124z" />
    <glyph glyph-name="cdotaccent" unicode="&#x10b;" horiz-adv-x="972" 
d="M41 483q0 263 144.5 415.5t416.5 152.5q111 0 205.5 -23.5t140.5 -56.5l-104 -295q-105 31 -197 31q-65 0 -94 -33q-41 -54 -41 -158q0 -215 164 -215q90 0 184 27l84 -271q-155 -80 -373 -80q-257 0 -393.5 128t-136.5 378zM362 1339q0 94 63.5 150.5t170.5 56.5
q94 0 149.5 -51t55.5 -131q0 -92 -62.5 -149.5t-167.5 -57.5q-95 0 -152 51t-57 131z" />
    <glyph glyph-name="Ccaron" unicode="&#x10c;" horiz-adv-x="1175" 
d="M43 666q0 148 49 280t138.5 232t225.5 158.5t300 58.5q250 0 422 -103l-142 -295q-116 39 -215 39q-128 0 -200 -75q-86 -92 -86 -269q0 -73 15.5 -134t48.5 -112.5t93 -80.5t142 -29q102 0 231 35l94 -303q-198 -91 -452 -91q-302 0 -483 186t-181 503zM281 1761
l157 185l264 -177l279 179l143 -179l-293 -251l-272 -7z" />
    <glyph glyph-name="ccaron" unicode="&#x10d;" horiz-adv-x="972" 
d="M41 483q0 263 144.5 415.5t416.5 152.5q111 0 205.5 -23.5t140.5 -56.5l-104 -295q-105 31 -197 31q-65 0 -94 -33q-41 -54 -41 -158q0 -215 164 -215q90 0 184 27l84 -271q-155 -80 -373 -80q-257 0 -393.5 128t-136.5 378zM440 1155l-288 348l165 150l261 -215l251 215
l162 -150l-284 -340z" />
    <glyph glyph-name="Dcaron" unicode="&#x10e;" horiz-adv-x="1423" 
d="M92 1362q303 33 537 33q189 0 335 -53t236.5 -148.5t136 -220.5t45.5 -275q0 -158 -51.5 -290t-149 -228t-247 -149.5t-336.5 -53.5q-263 0 -506 31v1354zM649 317q82 0 144 58q48 45 73 127.5t25 185.5q0 172 -62 269.5t-188 97.5q-51 0 -80 -2v-734q29 -2 88 -2z
M242 1761l157 185l265 -177l278 179l143 -179l-292 -251l-273 -7z" />
    <glyph glyph-name="dcaron" unicode="&#x10f;" horiz-adv-x="1245" 
d="M602 283q29 0 68 20v440q-42 11 -64 11q-47 0 -61 -33q-29 -59 -29 -197q0 -123 19 -182t67 -59zM41 496q0 112 39 217.5t100.5 179.5t140 119t156.5 45q115 0 193 -60v535l467 8v-1030q0 -94 20 -477l-338 -47l-82 139q-120 -152 -278 -152q-182 0 -300 148t-118 375z
M1212 1638l320 9l12 -15l-84 -497h-248v503z" />
    <glyph glyph-name="Dcroat" unicode="&#x110;" horiz-adv-x="1452" 
d="M123 1362q326 33 553 33q178 0 318.5 -53.5t230.5 -148t137 -220.5t47 -275q0 -117 -30 -223.5t-92.5 -197.5t-152 -157.5t-215 -104.5t-274.5 -38q-234 0 -522 31v567h-109v250h109v537zM696 317q86 0 142 52q52 44 77 128.5t25 190.5q0 73 -14 136.5t-43 116
t-78.5 82.5t-114.5 30q-33 0 -115 -4v-224h216v-250h-216v-253q51 -5 121 -5z" />
    <glyph glyph-name="dcroat" unicode="&#x111;" horiz-adv-x="1218" 
d="M600 283q29 0 68 20v393q-42 11 -64 11q-47 0 -61 -33q-29 -77 -29 -176q0 -110 20 -162.5t66 -52.5zM41 469q-1 109 37.5 210.5t100.5 173t141 114.5t157 43q111 0 191 -58v170h-387v234h387v176l469 8v-184h180v-234h-180v-612q0 -142 20 -477l-338 -47l-84 139
q-116 -152 -278 -152q-183 0 -299.5 139t-116.5 357z" />
    <glyph glyph-name="Emacron" unicode="&#x112;" horiz-adv-x="1130" 
d="M92 1372h993l-18 -328h-506v-196h373v-320h-373v-200h506l18 -328h-993v1372zM270 1796h664v-260h-664v260z" />
    <glyph glyph-name="emacron" unicode="&#x113;" horiz-adv-x="1095" 
d="M39 487q0 118 39 222t109.5 181t177 122t233.5 45q117 0 205 -35.5t141.5 -100.5t80 -151.5t26.5 -194.5q0 -91 -15 -167h-528q34 -134 176 -134q117 0 260 33l78 -241q-218 -89 -436 -89q-253 0 -400 137.5t-147 372.5zM590 770q-47 0 -67 -39t-25 -121h170q2 16 2 49
q0 50 -20 80.5t-60 30.5zM219 1434h696v-256h-696v256z" />
    <glyph glyph-name="Ebreve" unicode="&#x114;" horiz-adv-x="1130" 
d="M92 1372h993l-18 -328h-506v-196h373v-320h-373v-200h506l18 -328h-993v1372zM1016 1819q-56 -158 -163.5 -237t-250.5 -79q-146 0 -252.5 77t-161.5 237l215 100q71 -145 203 -145t213 145z" />
    <glyph glyph-name="ebreve" unicode="&#x115;" horiz-adv-x="1095" 
d="M39 487q0 118 39 222t109.5 181t177 122t233.5 45q117 0 205 -35.5t141.5 -100.5t80 -151.5t26.5 -194.5q0 -91 -15 -167h-528q34 -134 176 -134q117 0 260 33l78 -241q-218 -89 -436 -89q-253 0 -400 137.5t-147 372.5zM590 770q-47 0 -67 -39t-25 -121h170q2 16 2 49
q0 50 -20 80.5t-60 30.5zM571 1419q72 0 114 49.5t48 133.5l240 -39q-21 -197 -131.5 -303.5t-278.5 -106.5t-275 106.5t-124 299.5l248 43q20 -183 159 -183z" />
    <glyph glyph-name="Edotaccent" unicode="&#x116;" horiz-adv-x="1130" 
d="M92 1372h993l-18 -328h-506v-196h373v-320h-373v-200h506l18 -328h-993v1372zM403 1700q0 88 60 144.5t155 56.5q85 0 139 -49.5t54 -125.5q0 -88 -59.5 -143t-155.5 -55q-86 0 -139.5 48.5t-53.5 123.5z" />
    <glyph glyph-name="edotaccent" unicode="&#x117;" horiz-adv-x="1095" 
d="M39 487q0 118 39 222t109.5 181t177 122t233.5 45q117 0 205 -35.5t141.5 -100.5t80 -151.5t26.5 -194.5q0 -91 -15 -167h-528q34 -134 176 -134q117 0 260 33l78 -241q-218 -89 -436 -89q-253 0 -400 137.5t-147 372.5zM590 770q-47 0 -67 -39t-25 -121h170q2 16 2 49
q0 50 -20 80.5t-60 30.5zM354 1339q0 94 63.5 150.5t170.5 56.5q94 0 149.5 -51t55.5 -131q0 -92 -62.5 -149.5t-167.5 -57.5q-95 0 -152 51t-57 131z" />
    <glyph glyph-name="Eogonek" unicode="&#x118;" horiz-adv-x="1130" 
d="M92 1372h993l-18 -328h-506v-196h373v-320h-373v-200h506l18 -328q-91 -29 -135.5 -62t-44.5 -79q0 -39 22 -58.5t72 -19.5q44 0 80 8l66 -233q-66 -31 -149.5 -49.5t-155.5 -18.5q-146 0 -229 68t-83 178q0 80 53 142.5t152 115.5v8h-641v1372z" />
    <glyph glyph-name="eogonek" unicode="&#x119;" horiz-adv-x="1095" 
d="M39 487q0 118 39 222t109.5 181t177 122t233.5 45q117 0 205 -35.5t141.5 -100.5t80 -151.5t26.5 -194.5q0 -91 -15 -167h-528q34 -134 176 -134q117 0 260 33l78 -241q-120 -52 -175.5 -98t-55.5 -97q0 -70 96 -70q37 0 80 9l61 -234q-146 -68 -299 -68
q-123 0 -188.5 63t-65.5 169q0 70 32 124t99 107v6h-20q-253 0 -400 137.5t-147 372.5zM590 770q-47 0 -67 -39t-25 -121h170q2 16 2 49q0 50 -20 80.5t-60 30.5z" />
    <glyph glyph-name="Ecaron" unicode="&#x11a;" horiz-adv-x="1130" 
d="M92 1372h993l-18 -328h-506v-196h373v-320h-373v-200h506l18 -328h-993v1372zM180 1761l158 185l264 -177l279 179l143 -179l-293 -251l-272 -7z" />
    <glyph glyph-name="ecaron" unicode="&#x11b;" horiz-adv-x="1095" 
d="M39 487q0 118 39 222t109.5 181t177 122t233.5 45q117 0 205 -35.5t141.5 -100.5t80 -151.5t26.5 -194.5q0 -91 -15 -167h-528q34 -134 176 -134q117 0 260 33l78 -241q-218 -89 -436 -89q-253 0 -400 137.5t-147 372.5zM590 770q-47 0 -67 -39t-25 -121h170q2 16 2 49
q0 50 -20 80.5t-60 30.5zM432 1155l-289 348l166 150l260 -215l252 215l162 -150l-285 -340z" />
    <glyph glyph-name="Gcircumflex.alt" unicode="&#x11c;" horiz-adv-x="1318" 
d="M41 641q0 119 29.5 228t92 205.5t152 167.5t218.5 112t284 41q258 0 438 -109l-143 -285q-144 39 -278 39t-209 -75q-93 -88 -93 -287q0 -161 66.5 -261t198.5 -100q33 0 51 2v363h405v-614q-200 -91 -505 -91q-319 0 -513 183.5t-194 480.5zM618 1911l273 8l280 -252
l-159 -182l-264 174l-279 -176l-141 178z" />
    <glyph glyph-name="gcircumflex.ss03" unicode="&#x11d;" horiz-adv-x="1212" 
d="M600 307q28 0 68 21v415q-42 11 -64 11q-44 0 -61 -33q-29 -59 -29 -197q0 -217 86 -217zM41 496q0 102 33 201t91 179.5t148.5 130.5t196.5 50q141 0 262 -90l47 84l322 -47q-3 -137 -7 -262t-4 -175v-399q0 -129 -18 -232.5t-60.5 -190t-108.5 -144t-164.5 -89.5
t-227.5 -32q-246 0 -442 86l98 293q130 -45 266 -45q113 0 154 54t41 185v23q-94 -78 -211 -78q-119 0 -215 68t-148.5 182t-52.5 248zM485 1620l265 8l290 -348l-166 -150l-260 216l-254 -216l-161 150z" />
    <glyph glyph-name="Gbreve.alt" unicode="&#x11e;" horiz-adv-x="1318" 
d="M41 641q0 119 29.5 228t92 205.5t152 167.5t218.5 112t284 41q258 0 438 -109l-143 -285q-144 39 -278 39t-209 -75q-93 -88 -93 -287q0 -161 66.5 -261t198.5 -100q33 0 51 2v363h405v-614q-200 -91 -505 -91q-319 0 -513 183.5t-194 480.5zM1163 1819
q-56 -158 -163 -237t-250 -79q-146 0 -252.5 77t-161.5 237l215 100q71 -145 203 -145t213 145z" />
    <glyph glyph-name="gbreve.ss03" unicode="&#x11f;" horiz-adv-x="1212" 
d="M600 307q28 0 68 21v415q-42 11 -64 11q-44 0 -61 -33q-29 -59 -29 -197q0 -217 86 -217zM41 496q0 102 33 201t91 179.5t148.5 130.5t196.5 50q141 0 262 -90l47 84l322 -47q-3 -137 -7 -262t-4 -175v-399q0 -129 -18 -232.5t-60.5 -190t-108.5 -144t-164.5 -89.5
t-227.5 -32q-246 0 -442 86l98 293q130 -45 266 -45q113 0 154 54t41 185v23q-94 -78 -211 -78q-119 0 -215 68t-148.5 182t-52.5 248zM625 1419q72 0 113.5 49.5t47.5 133.5l240 -39q-21 -197 -131.5 -303.5t-278.5 -106.5t-275 106.5t-124 299.5l248 43q20 -183 160 -183z
" />
    <glyph glyph-name="Gdotaccent.alt" unicode="&#x120;" horiz-adv-x="1318" 
d="M41 641q0 119 29.5 228t92 205.5t152 167.5t218.5 112t284 41q258 0 438 -109l-143 -285q-144 39 -278 39t-209 -75q-93 -88 -93 -287q0 -161 66.5 -261t198.5 -100q33 0 51 2v363h405v-614q-200 -91 -505 -91q-319 0 -513 183.5t-194 480.5zM551 1700q0 88 60 144.5
t155 56.5q85 0 138.5 -49.5t53.5 -125.5q0 -88 -59.5 -143t-155.5 -55q-86 0 -139 48t-53 124z" />
    <glyph glyph-name="gdotaccent.ss03" unicode="&#x121;" horiz-adv-x="1212" 
d="M600 307q28 0 68 21v415q-42 11 -64 11q-44 0 -61 -33q-29 -59 -29 -197q0 -217 86 -217zM41 496q0 102 33 201t91 179.5t148.5 130.5t196.5 50q141 0 262 -90l47 84l322 -47q-3 -137 -7 -262t-4 -175v-399q0 -129 -18 -232.5t-60.5 -190t-108.5 -144t-164.5 -89.5
t-227.5 -32q-246 0 -442 86l98 293q130 -45 266 -45q113 0 154 54t41 185v23q-94 -78 -211 -78q-119 0 -215 68t-148.5 182t-52.5 248zM408 1339q0 94 63 150.5t170 56.5q94 0 149.5 -51t55.5 -131q0 -92 -62.5 -149.5t-167.5 -57.5q-95 0 -151.5 51t-56.5 131z" />
    <glyph glyph-name="uni0122.alt" unicode="&#x122;" horiz-adv-x="1318" 
d="M41 641q0 119 29.5 228t92 205.5t152 167.5t218.5 112t284 41q258 0 438 -109l-143 -285q-144 39 -278 39t-209 -75q-93 -88 -93 -287q0 -161 66.5 -261t198.5 -100q33 0 51 2v363h405v-614q-200 -91 -505 -91q-319 0 -513 183.5t-194 480.5zM596 -147l346 14
q12 -50 12 -109q0 -124 -56.5 -224t-129.5 -152l-215 100q47 109 47 264q0 24 -2 60.5t-2 46.5z" />
    <glyph glyph-name="uni0123.ss03" unicode="&#x123;" horiz-adv-x="1212" 
d="M600 307q28 0 68 21v415q-42 11 -64 11q-44 0 -61 -33q-29 -59 -29 -197q0 -217 86 -217zM41 496q0 102 33 201t91 179.5t148.5 130.5t196.5 50q141 0 262 -90l47 84l322 -47q-3 -137 -7 -262t-4 -175v-399q0 -129 -18 -232.5t-60.5 -190t-108.5 -144t-164.5 -89.5
t-227.5 -32q-246 0 -442 86l98 293q130 -45 266 -45q113 0 154 54t41 185v23q-94 -78 -211 -78q-119 0 -215 68t-148.5 182t-52.5 248zM442 1280q0 109 48 209t137 168l217 -98q-47 -112 -47 -254q0 -74 4 -119l-348 -15q-11 68 -11 109z" />
    <glyph glyph-name="Hcircumflex" unicode="&#x124;" horiz-adv-x="1462" 
d="M901 1372h469v-1372h-469v522h-340v-522h-469v1372h469v-506h340v506zM600 1911l272 8l281 -252l-160 -182l-264 174l-278 -176l-142 178z" />
    <glyph glyph-name="hcircumflex" unicode="&#x125;" horiz-adv-x="1224" 
d="M78 1532l469 8v-565q107 82 258 82q165 0 256.5 -89.5t91.5 -265.5v-702h-469v635q0 49 -14 69.5t-47 20.5q-39 0 -76 -12v-713h-469v1532zM193 2075l272 8l280 -252l-159 -182l-264 174l-279 -176l-141 178z" />
    <glyph glyph-name="Hbar" unicode="&#x126;" horiz-adv-x="1519" 
d="M932 1372h467v-194h104v-250h-104v-928h-467v453h-342v-453h-469v928h-105v250h105v194h469v-194h342v194zM932 760v168h-342v-168h342z" />
    <glyph glyph-name="hbar" unicode="&#x127;" horiz-adv-x="1222" 
d="M78 1532l459 8v-184h413v-234h-413v-200q110 88 266 88q165 0 256.5 -89.5t91.5 -265.5v-655h-469v588q0 49 -13.5 69.5t-45.5 20.5q-45 0 -86 -14v-664h-459v1122h-178v234h178v176z" />
    <glyph glyph-name="Itilde" unicode="&#x128;" horiz-adv-x="653" 
d="M92 1372h469v-1372h-469v1372zM469 1800q17 0 35.5 13t37.5 39t27 38.5t23 38.5l194 -92q-40 -153 -124.5 -240.5t-194.5 -87.5q-54 0 -100.5 19.5t-72.5 43t-55 43t-51 19.5q-31 0 -58.5 -31t-70.5 -102l-194 94q44 151 130.5 239.5t201.5 88.5q53 0 99 -19t72 -42.5
t53.5 -42.5t47.5 -19z" />
    <glyph glyph-name="itilde" unicode="&#x129;" horiz-adv-x="624" 
d="M78 1026l469 8v-1034h-469v1026zM438 1440q12 0 23.5 8.5t24 28.5t19 31.5t19.5 40.5t15 34l198 -70q-28 -160 -107.5 -258t-185.5 -98q-48 0 -91.5 21t-68 45.5t-51.5 45.5t-47 21q-13 0 -25.5 -7.5t-21 -17t-19 -27.5t-15.5 -28t-14 -30.5t-11 -24.5l-205 68
q35 165 116.5 256.5t194.5 91.5q49 0 92 -20.5t68 -45t50 -45t42 -20.5z" />
    <glyph glyph-name="Imacron" unicode="&#x12a;" horiz-adv-x="653" 
d="M92 1372h469v-1372h-469v1372zM-6 1796h663v-260h-663v260z" />
    <glyph glyph-name="imacron" unicode="&#x12b;" horiz-adv-x="624" 
d="M78 1026l469 8v-1034h-469v1026zM-33 1446h690v-268h-690v268z" />
    <glyph glyph-name="Ibreve" unicode="&#x12c;" horiz-adv-x="653" 
d="M92 1372h469v-1372h-469v1372zM739 1819q-56 -158 -163 -237t-250 -79q-146 0 -252.5 77t-161.5 237l215 100q71 -145 203 -145t213 145z" />
    <glyph glyph-name="ibreve" unicode="&#x12d;" horiz-adv-x="624" 
d="M78 1026l469 8v-1034h-469v1026zM317 1419q107 0 129 201l240 -49q-12 -196 -115 -307t-260 -111q-164 0 -261.5 109t-106.5 303l247 55q28 -201 127 -201z" />
    <glyph glyph-name="Iogonek" unicode="&#x12e;" horiz-adv-x="653" 
d="M92 1372h469v-1372q-91 -31 -133.5 -62t-42.5 -73q0 -40 31 -62t82 -22q50 0 108 10l64 -233q-69 -31 -157.5 -50.5t-168.5 -19.5q-150 0 -243 70t-93 184q0 77 47.5 136t143.5 114v8h-107v1372z" />
    <glyph glyph-name="iogonek" unicode="&#x12f;" horiz-adv-x="624" 
d="M78 1026l469 8v-1034q-87 -25 -131.5 -56.5t-44.5 -76.5q0 -66 114 -66q23 0 93 9l63 -234q-153 -68 -309 -68q-138 0 -222.5 64t-84.5 170q0 142 182 250v8h-129v1026zM100 1339q0 94 63.5 150.5t170.5 56.5q94 0 149.5 -51t55.5 -131q0 -92 -62.5 -149.5t-167.5 -57.5
q-95 0 -152 51t-57 131z" />
    <glyph glyph-name="Idotaccent" unicode="&#x130;" horiz-adv-x="653" 
d="M92 1372h469v-1372h-469v1372zM129 1700q0 88 60 144.5t155 56.5q85 0 139 -49.5t54 -125.5q0 -88 -59.5 -143t-155.5 -55q-86 0 -139.5 48.5t-53.5 123.5z" />
    <glyph glyph-name="dotlessi" unicode="&#x131;" horiz-adv-x="624" 
d="M78 1026l469 8v-1034h-469v1026z" />
    <glyph glyph-name="IJ" unicode="&#x132;" horiz-adv-x="1323" 
d="M92 1372h469v-1372h-469v1372zM764 1372h467v-1290q0 -146 -47 -254.5t-133.5 -172.5t-198.5 -94.5t-252 -31.5l-76 307q72 19 113.5 38t72.5 52t42.5 82.5t11.5 126.5v1237z" />
    <glyph glyph-name="ij" unicode="&#x133;" horiz-adv-x="1253" 
d="M78 1026l469 8v-1034h-469v1026zM100 1339q0 94 63.5 150.5t170.5 56.5q94 0 149.5 -51t55.5 -131q0 -92 -62.5 -149.5t-167.5 -57.5q-95 0 -152 51t-57 131zM707 1026l467 8v-891q0 -234 -102 -405.5t-275 -257.5l-242 233q152 179 152 428v885zM727 1339
q0 94 63.5 150.5t170.5 56.5q93 0 148.5 -51t55.5 -131q0 -92 -62.5 -149.5t-166.5 -57.5q-95 0 -152 51t-57 131z" />
    <glyph glyph-name="Jcircumflex" unicode="&#x134;" horiz-adv-x="669" 
d="M111 1372h467v-1290q0 -146 -47 -254.5t-133.5 -172.5t-198.5 -94.5t-252 -31.5l-76 307q72 19 113.5 38t72.5 52t42.5 82.5t11.5 126.5v1237zM201 1911l272 8l281 -252l-160 -182l-264 174l-279 -176l-141 178z" />
    <glyph glyph-name="jcircumflex" unicode="&#x135;" horiz-adv-x="626" 
d="M82 1026l467 8v-891q0 -234 -102 -405.5t-275 -257.5l-242 233q152 179 152 428v885zM184 1620l265 8l256 -352l-168 -143l-224 213l-217 -213l-166 145z" />
    <glyph glyph-name="uni0136" unicode="&#x136;" horiz-adv-x="1370" 
d="M881 1372h475q0 -78 -64 -153l-346 -408l352 -594q48 -79 67.5 -123.5t20.5 -93.5h-493l-242 465l-90 -105v-360h-469v1372h469v-487h4zM545 -147l346 14q12 -50 12 -109q0 -124 -56.5 -224t-129.5 -152l-215 100q47 109 47 264q0 24 -2 60.5t-2 46.5z" />
    <glyph glyph-name="uni0137.alt" unicode="&#x137;" 
d="M774 1030h443q0 -36 -14.5 -68t-55.5 -98l-186 -317l219 -381q48 -78 51 -166h-481l-158 350h-45v-350h-469v1532l469 8v-872h45zM510 -147l346 14q12 -50 12 -109q0 -124 -56.5 -224t-129.5 -152l-215 100q47 109 47 264q0 24 -2 60.5t-2 46.5z" />
    <glyph glyph-name="kgreenlandic" unicode="&#x138;" 
d="M776 1030h441q0 -37 -14.5 -69.5t-53.5 -96.5l-188 -317l221 -381q49 -80 49 -166h-479l-156 346l-49 -4v-342h-469v1026l469 8v-370l45 4z" />
    <glyph glyph-name="Lacute" unicode="&#x139;" horiz-adv-x="1003" 
d="M92 1372h469v-1026h402l18 -346h-889v1372zM72 1708l532 250l111 -268l-4 -37l-551 -162z" />
    <glyph glyph-name="lacute" unicode="&#x13a;" horiz-adv-x="669" 
d="M74 1532l467 8v-1120q0 -47 13.5 -66.5t45.5 -19.5h29l28 -305q-142 -52 -305 -52q-126 0 -202 71t-76 216v1268zM53 1872l533 250l110 -269l-4 -36l-551 -162z" />
    <glyph glyph-name="uni013B" unicode="&#x13b;" horiz-adv-x="1003" 
d="M92 1372h469v-1026h402l18 -346h-889v1372zM393 -147l346 14q13 -54 13 -109q0 -124 -56.5 -224t-130.5 -152l-215 100q47 109 47 264q0 24 -2 60.5t-2 46.5z" />
    <glyph glyph-name="uni013C" unicode="&#x13c;" horiz-adv-x="669" 
d="M74 1532l467 8v-1120q0 -47 13.5 -66.5t45.5 -19.5h29l28 -305q-142 -52 -305 -52q-126 0 -202 71t-76 216v1268zM219 -147l346 14q13 -54 13 -109q0 -124 -56.5 -224t-130.5 -152l-215 100q47 109 47 264q0 24 -2 60.5t-2 46.5z" />
    <glyph glyph-name="Lcaron" unicode="&#x13d;" horiz-adv-x="1032" 
d="M92 1372h469v-1026h402l18 -346h-889v1372zM672 1479l319 8l13 -14l-84 -498h-248v504z" />
    <glyph glyph-name="lcaron" unicode="&#x13e;" horiz-adv-x="698" 
d="M74 1532l467 8v-1120q0 -47 13.5 -66.5t45.5 -19.5h29l28 -305q-142 -52 -305 -52q-126 0 -202 71t-76 216v1268zM616 1638l320 9l12 -15l-84 -497h-248v503z" />
    <glyph glyph-name="Ldot" unicode="&#x13f;" horiz-adv-x="1210" 
d="M92 1372h469v-1026h402l18 -346h-889v1372zM786 778q0 93 51.5 150t141.5 57q93 0 141.5 -53t48.5 -146q0 -97 -49.5 -155t-142.5 -58q-91 0 -141 55t-50 150z" />
    <glyph glyph-name="ldot" unicode="&#x140;" horiz-adv-x="1030" 
d="M74 1532l467 8v-1120q0 -47 13.5 -66.5t45.5 -19.5h29l28 -305q-142 -52 -305 -52q-126 0 -202 71t-76 216v1268zM631 729q0 92 52 149.5t140 57.5q94 0 143.5 -53.5t49.5 -147.5q0 -96 -50.5 -153.5t-144.5 -57.5q-91 0 -140.5 54.5t-49.5 150.5z" />
    <glyph glyph-name="Lslash" unicode="&#x141;" horiz-adv-x="1118" 
d="M4 639l201 84v649h467v-457l250 105l94 -227l-344 -144v-303h401l21 -346h-889v457l-109 -45z" />
    <glyph glyph-name="lslash" unicode="&#x142;" horiz-adv-x="849" 
d="M180 1532l469 8v-483l139 71l93 -186v-35l-232 -119v-368q0 -48 13 -67t47 -19h26l31 -305q-145 -52 -307 -52q-125 0 -202 71t-77 216v283l-98 -51l-92 184v41l190 96v715z" />
    <glyph glyph-name="Nacute" unicode="&#x143;" horiz-adv-x="1480" 
d="M92 1372h469l328 -538l121 -238h6l-19 258v518h392v-1372h-457l-338 559l-121 236h-8l18 -267v-528h-391v1372zM506 1708l532 250l111 -268l-4 -37l-551 -162z" />
    <glyph glyph-name="nacute" unicode="&#x144;" horiz-adv-x="1228" 
d="M61 1001l338 50l84 -144q132 150 326 150q168 0 258 -89t90 -266v-702h-469v653q0 53 -14 72.5t-47 19.5q-35 0 -76 -18v-727h-469v520q0 127 -21 481zM387 1315l424 368l182 -231v-37l-452 -282z" />
    <glyph glyph-name="uni0145" unicode="&#x145;" horiz-adv-x="1480" 
d="M92 1372h469l328 -538l121 -238h6l-19 258v518h392v-1372h-457l-338 559l-121 236h-8l18 -267v-528h-391v1372zM580 -147l346 14q12 -50 12 -109q0 -124 -56.5 -224t-129.5 -152l-215 100q47 109 47 264q0 24 -2 60.5t-2 46.5z" />
    <glyph glyph-name="uni0146" unicode="&#x146;" horiz-adv-x="1228" 
d="M61 1001l338 50l84 -144q132 150 326 150q168 0 258 -89t90 -266v-702h-469v653q0 53 -14 72.5t-47 19.5q-35 0 -76 -18v-727h-469v520q0 127 -21 481zM467 -147l346 14q12 -50 12 -109q0 -124 -56.5 -224t-129.5 -152l-215 100q47 109 47 264q0 24 -2 60.5t-2 46.5z" />
    <glyph glyph-name="Ncaron" unicode="&#x147;" horiz-adv-x="1480" 
d="M92 1372h469l328 -538l121 -238h6l-19 258v518h392v-1372h-457l-338 559l-121 236h-8l18 -267v-528h-391v1372zM338 1761l158 185l264 -177l278 179l144 -179l-293 -251l-273 -7z" />
    <glyph glyph-name="ncaron" unicode="&#x148;" horiz-adv-x="1228" 
d="M61 1001l338 50l84 -144q132 150 326 150q168 0 258 -89t90 -266v-702h-469v653q0 53 -14 72.5t-47 19.5q-35 0 -76 -18v-727h-469v520q0 127 -21 481zM485 1155l-288 348l165 150l261 -215l251 215l162 -150l-284 -340z" />
    <glyph glyph-name="napostrophe" unicode="&#x149;" horiz-adv-x="1228" 
d="M61 1001l338 50l84 -144q132 150 326 150q168 0 258 -89t90 -266v-702h-469v653q0 53 -14 72.5t-47 19.5q-35 0 -76 -18v-727h-469v520q0 127 -21 481zM92 1622l373 16q16 -56 16 -129q0 -127 -81.5 -229t-219.5 -164l-164 119q82 108 82 264q0 67 -6 123z" />
    <glyph glyph-name="Eng" unicode="&#x14a;" horiz-adv-x="1480" 
d="M92 1372h469l340 -571l92 -205h4v776h392v-1376q0 -140 -57 -256t-169.5 -188t-261.5 -72q-195 0 -342 82l68 286q110 -18 176 -18q160 0 160 170h-68l-301 559l-121 236h-8l18 -267v-528h-391v1372z" />
    <glyph glyph-name="eng" unicode="&#x14b;" horiz-adv-x="1228" 
d="M61 1001l338 50l84 -144q132 150 326 150q168 0 258 -89t90 -266v-718q0 -105 -27.5 -193.5t-84 -159.5t-153.5 -111t-226 -40q-196 0 -351 71l66 285q149 -18 203 -18q56 0 80 38.5t24 120.5v676q0 53 -14 72.5t-47 19.5q-35 0 -76 -18v-727h-469v520q0 45 -2 97
t-5.5 117.5t-4.5 96.5z" />
    <glyph glyph-name="Omacron" unicode="&#x14c;" horiz-adv-x="1441" 
d="M43 674q0 327 190 527t506 200q133 0 243 -36.5t186.5 -100.5t129 -153.5t77 -193.5t24.5 -221q0 -326 -190.5 -525.5t-506.5 -199.5q-133 0 -243 36.5t-186 100.5t-128.5 153t-77 192.5t-24.5 220.5zM909 698q0 103 -16.5 181t-59.5 130t-108 52q-72 0 -119 -70
q-71 -103 -71 -307q0 -97 16.5 -177t60.5 -138t111 -58q72 0 117 62q69 96 69 325zM389 1796h664v-260h-664v260z" />
    <glyph glyph-name="omacron" unicode="&#x14d;" horiz-adv-x="1193" 
d="M39 485q0 123 41 228t115 181t184.5 119.5t243.5 43.5q105 0 193 -29t150 -79t105 -118t63.5 -146t20.5 -163q0 -249 -156 -400t-426 -151q-130 0 -233.5 41t-168 112.5t-98.5 163.5t-34 197zM688 487q0 114 -24.5 195.5t-69.5 81.5q-39 0 -55 -37q-13 -29 -22 -88.5
t-9 -118.5q0 -112 24.5 -183t71.5 -71q35 0 55 35q29 66 29 186zM248 1434h696v-256h-696v256z" />
    <glyph glyph-name="Obreve" unicode="&#x14e;" horiz-adv-x="1441" 
d="M43 674q0 327 190 527t506 200q133 0 243 -36.5t186.5 -100.5t129 -153.5t77 -193.5t24.5 -221q0 -326 -190.5 -525.5t-506.5 -199.5q-133 0 -243 36.5t-186 100.5t-128.5 153t-77 192.5t-24.5 220.5zM909 698q0 103 -16.5 181t-59.5 130t-108 52q-72 0 -119 -70
q-71 -103 -71 -307q0 -97 16.5 -177t60.5 -138t111 -58q72 0 117 62q69 96 69 325zM1135 1819q-56 -158 -163.5 -237t-250.5 -79q-146 0 -252.5 77t-161.5 237l215 100q71 -145 203 -145t213 145z" />
    <glyph glyph-name="obreve" unicode="&#x14f;" horiz-adv-x="1193" 
d="M39 485q0 123 41 228t115 181t184.5 119.5t243.5 43.5q105 0 193 -29t150 -79t105 -118t63.5 -146t20.5 -163q0 -249 -156 -400t-426 -151q-130 0 -233.5 41t-168 112.5t-98.5 163.5t-34 197zM688 487q0 114 -24.5 195.5t-69.5 81.5q-39 0 -55 -37q-13 -29 -22 -88.5
t-9 -118.5q0 -112 24.5 -183t71.5 -71q35 0 55 35q29 66 29 186zM600 1419q72 0 114 49.5t48 133.5l239 -39q-21 -197 -131 -303.5t-278 -106.5t-275 106.5t-124 299.5l247 43q20 -183 160 -183z" />
    <glyph glyph-name="Ohungarumlaut" unicode="&#x150;" horiz-adv-x="1441" 
d="M43 674q0 327 190 527t506 200q133 0 243 -36.5t186.5 -100.5t129 -153.5t77 -193.5t24.5 -221q0 -326 -190.5 -525.5t-506.5 -199.5q-133 0 -243 36.5t-186 100.5t-128.5 153t-77 192.5t-24.5 220.5zM909 698q0 103 -16.5 181t-59.5 130t-108 52q-72 0 -119 -70
q-71 -103 -71 -307q0 -97 16.5 -177t60.5 -138t111 -58q72 0 117 62q69 96 69 325zM322 1612l215 407l251 -151v-33l-280 -342zM791 1612l215 407l251 -151v-33l-280 -342z" />
    <glyph glyph-name="ohungarumlaut" unicode="&#x151;" horiz-adv-x="1193" 
d="M39 485q0 123 41 228t115 181t184.5 119.5t243.5 43.5q105 0 193 -29t150 -79t105 -118t63.5 -146t20.5 -163q0 -249 -156 -400t-426 -151q-130 0 -233.5 41t-168 112.5t-98.5 163.5t-34 197zM688 487q0 114 -24.5 195.5t-69.5 81.5q-39 0 -55 -37q-13 -29 -22 -88.5
t-9 -118.5q0 -112 24.5 -183t71.5 -71q35 0 55 35q29 66 29 186zM217 1237l184 428l279 -129l4 -33l-258 -373zM653 1237l189 428l278 -129l2 -33l-256 -373z" />
    <glyph glyph-name="OE" unicode="&#x152;" horiz-adv-x="1900" 
d="M43 653q0 151 45 283.5t131 235t224.5 162t312.5 59.5q112 0 217 -21h882l-18 -328h-506v-196h373v-320h-373v-200h506l18 -328h-931q-122 -23 -236 -23q-156 0 -280.5 54.5t-203 148.5t-120 215t-41.5 258zM774 313q26 0 88 4v727q-62 9 -129 9q-90 0 -131 -56
q-67 -87 -67 -311q0 -183 55.5 -278t183.5 -95z" />
    <glyph glyph-name="oe" unicode="&#x153;" horiz-adv-x="1763" 
d="M39 492q0 160 71.5 288.5t200.5 202.5t291 74q218 0 340 -135q135 135 342 135q213 0 324.5 -131.5t111.5 -350.5q0 -96 -14 -167h-547q39 -134 195 -134q119 0 258 33l80 -241q-94 -39 -211 -64t-213 -25q-216 0 -344 125q-134 -131 -361 -131q-166 0 -286.5 71.5
t-179 188t-58.5 261.5zM688 492q0 113 -25 192.5t-75 79.5q-33 0 -49 -39q-31 -67 -31 -207q0 -111 25 -181.5t75 -70.5q32 0 49 35q31 64 31 191zM1253 770q-51 0 -74 -41t-30 -119h186q2 16 2 49q0 111 -84 111z" />
    <glyph glyph-name="Racute" unicode="&#x154;" horiz-adv-x="1333" 
d="M608 729q80 0 125 29q58 43 58 141q0 79 -39.5 117.5t-124.5 38.5q-39 0 -66 -2v-322q18 -2 47 -2zM92 1362q247 33 463 33q715 0 715 -457q0 -130 -55.5 -234.5t-155.5 -173.5l201 -378q51 -91 53 -152h-477l-185 414h-4q-55 0 -86 2v-416h-469v1362zM383 1708l532 250
l111 -268l-4 -37l-551 -162z" />
    <glyph glyph-name="racute" unicode="&#x155;" horiz-adv-x="901" 
d="M61 1001l338 50l101 -191q43 92 100.5 141.5t140.5 49.5q90 0 160 -37l-63 -402q-48 11 -115 11q-100 0 -172 -43v-580h-469v520q0 76 -21 481zM283 1315l424 368l182 -231v-37l-453 -282z" />
    <glyph glyph-name="uni0156" unicode="&#x156;" horiz-adv-x="1333" 
d="M608 729q80 0 125 29q58 43 58 141q0 79 -39.5 117.5t-124.5 38.5q-39 0 -66 -2v-322q18 -2 47 -2zM92 1362q247 33 463 33q715 0 715 -457q0 -130 -55.5 -234.5t-155.5 -173.5l201 -378q51 -91 53 -152h-477l-185 414h-4q-55 0 -86 2v-416h-469v1362zM516 -147l346 14
q12 -50 12 -109q0 -124 -56.5 -224t-129.5 -152l-215 100q47 109 47 264q0 24 -2 60.5t-2 46.5z" />
    <glyph glyph-name="uni0157" unicode="&#x157;" horiz-adv-x="901" 
d="M61 1001l338 50l101 -191q43 92 100.5 141.5t140.5 49.5q90 0 160 -37l-63 -402q-48 11 -115 11q-100 0 -172 -43v-580h-469v520q0 76 -21 481zM170 -147l346 14q12 -50 12 -109q0 -124 -56.5 -224t-129.5 -152l-215 100q47 109 47 264q0 24 -2 60.5t-2 46.5z" />
    <glyph glyph-name="Rcaron" unicode="&#x158;" horiz-adv-x="1333" 
d="M608 729q80 0 125 29q58 43 58 141q0 79 -39.5 117.5t-124.5 38.5q-39 0 -66 -2v-322q18 -2 47 -2zM92 1362q247 33 463 33q715 0 715 -457q0 -130 -55.5 -234.5t-155.5 -173.5l201 -378q51 -91 53 -152h-477l-185 414h-4q-55 0 -86 2v-416h-469v1362zM215 1761l158 185
l264 -177l278 179l144 -179l-293 -251l-272 -7z" />
    <glyph glyph-name="rcaron" unicode="&#x159;" horiz-adv-x="901" 
d="M61 1001l338 50l101 -191q43 92 100.5 141.5t140.5 49.5q90 0 160 -37l-63 -402q-48 11 -115 11q-100 0 -172 -43v-580h-469v520q0 76 -21 481zM381 1155l-289 348l166 150l260 -215l252 215l162 -150l-285 -340z" />
    <glyph glyph-name="Sacute" unicode="&#x15a;" horiz-adv-x="1171" 
d="M57 948q0 216 156.5 334.5t425.5 118.5q138 0 257 -30.5t202 -78.5l-117 -288q-177 57 -307 57q-133 0 -133 -68q0 -32 33 -55t114 -57q61 -25 102.5 -43.5t92.5 -46t85 -52.5t68.5 -60t55 -73t33 -86.5t12.5 -103.5q0 -209 -160.5 -327t-433.5 -118q-140 0 -280 29.5
t-232 69.5l116 307q205 -66 365 -66q133 0 133 70q0 32 -30 53.5t-109 50.5q-57 23 -93 38t-88.5 41.5t-85.5 50.5t-71.5 60t-60 74t-36 89.5t-14.5 109.5zM352 1708l533 250l110 -268l-4 -37l-551 -162z" />
    <glyph glyph-name="sacute" unicode="&#x15b;" horiz-adv-x="983" 
d="M53 707q0 155 137.5 249.5t366.5 94.5q204 0 361 -74l-99 -260q-125 41 -225 41q-76 0 -76 -41q0 -24 33 -42t106 -44q143 -53 216 -122.5t73 -186.5q0 -158 -128 -251.5t-367 -93.5q-242 0 -420 91l102 256q139 -48 246 -48q102 0 102 41q0 24 -34 42.5t-117 50.5
q-60 23 -102 45t-85.5 56.5t-66.5 84t-23 111.5zM270 1315l424 368l183 -231v-37l-453 -282z" />
    <glyph glyph-name="Scircumflex" unicode="&#x15c;" horiz-adv-x="1171" 
d="M57 948q0 216 156.5 334.5t425.5 118.5q138 0 257 -30.5t202 -78.5l-117 -288q-177 57 -307 57q-133 0 -133 -68q0 -32 33 -55t114 -57q61 -25 102.5 -43.5t92.5 -46t85 -52.5t68.5 -60t55 -73t33 -86.5t12.5 -103.5q0 -209 -160.5 -327t-433.5 -118q-140 0 -280 29.5
t-232 69.5l116 307q205 -66 365 -66q133 0 133 70q0 32 -30 53.5t-109 50.5q-57 23 -93 38t-88.5 41.5t-85.5 50.5t-71.5 60t-60 74t-36 89.5t-14.5 109.5zM475 1911l273 8l280 -252l-160 -182l-264 174l-278 -176l-142 178z" />
    <glyph glyph-name="scircumflex" unicode="&#x15d;" horiz-adv-x="983" 
d="M53 707q0 155 137.5 249.5t366.5 94.5q204 0 361 -74l-99 -260q-125 41 -225 41q-76 0 -76 -41q0 -24 33 -42t106 -44q143 -53 216 -122.5t73 -186.5q0 -158 -128 -251.5t-367 -93.5q-242 0 -420 91l102 256q139 -48 246 -48q102 0 102 41q0 24 -34 42.5t-117 50.5
q-60 23 -102 45t-85.5 56.5t-66.5 84t-23 111.5zM369 1620l264 8l291 -348l-166 -150l-260 216l-254 -216l-162 150z" />
    <glyph glyph-name="uni015E" unicode="&#x15e;" horiz-adv-x="1171" 
d="M57 948q0 216 156.5 334.5t425.5 118.5q138 0 257 -30.5t202 -78.5l-117 -288q-177 57 -307 57q-133 0 -133 -68q0 -32 33 -55t114 -57q61 -25 102.5 -43.5t92.5 -46t85 -52.5t68.5 -60t55 -73t33 -86.5t12.5 -103.5q0 -178 -119.5 -291t-327.5 -143l-33 -70h27
q108 0 177 -51t69 -148q0 -87 -68 -154.5t-183 -107t-263 -51.5l-35 190q109 29 167 58t58 63q0 22 -19.5 29.5t-58.5 7.5q-48 0 -88 -8l-71 96l65 139q-115 10 -223.5 36.5t-179.5 58.5l116 307q205 -66 365 -66q133 0 133 70q0 32 -30 53.5t-109 50.5q-57 23 -93 38
t-88.5 41.5t-85.5 50.5t-71.5 60t-60 74t-36 89.5t-14.5 109.5z" />
    <glyph glyph-name="uni015F" unicode="&#x15f;" horiz-adv-x="983" 
d="M53 707q0 155 137.5 249.5t366.5 94.5q204 0 361 -74l-99 -260q-125 41 -225 41q-76 0 -76 -41q0 -24 33 -42t106 -44q143 -53 216 -122.5t73 -186.5q0 -131 -89.5 -219t-258.5 -115l-37 -76h27q108 0 177 -51t69 -148q0 -129 -143.5 -212t-371.5 -101l-34 190
q109 29 167 58t58 63q0 22 -19.5 29.5t-58.5 7.5q-48 0 -88 -8l-72 96l70 146q-174 16 -311 86l102 256q139 -48 246 -48q102 0 102 41q0 24 -34 42.5t-117 50.5q-60 23 -102 45t-85.5 56.5t-66.5 84t-23 111.5z" />
    <glyph glyph-name="Scaron" unicode="&#x160;" horiz-adv-x="1171" 
d="M57 948q0 216 156.5 334.5t425.5 118.5q138 0 257 -30.5t202 -78.5l-117 -288q-177 57 -307 57q-133 0 -133 -68q0 -32 33 -55t114 -57q61 -25 102.5 -43.5t92.5 -46t85 -52.5t68.5 -60t55 -73t33 -86.5t12.5 -103.5q0 -209 -160.5 -327t-433.5 -118q-140 0 -280 29.5
t-232 69.5l116 307q205 -66 365 -66q133 0 133 70q0 32 -30 53.5t-109 50.5q-57 23 -93 38t-88.5 41.5t-85.5 50.5t-71.5 60t-60 74t-36 89.5t-14.5 109.5zM184 1761l158 185l264 -177l279 179l143 -179l-293 -251l-272 -7z" />
    <glyph glyph-name="scaron" unicode="&#x161;" horiz-adv-x="983" 
d="M53 707q0 155 137.5 249.5t366.5 94.5q204 0 361 -74l-99 -260q-125 41 -225 41q-76 0 -76 -41q0 -24 33 -42t106 -44q143 -53 216 -122.5t73 -186.5q0 -158 -128 -251.5t-367 -93.5q-242 0 -420 91l102 256q139 -48 246 -48q102 0 102 41q0 24 -34 42.5t-117 50.5
q-60 23 -102 45t-85.5 56.5t-66.5 84t-23 111.5zM369 1155l-289 348l166 150l260 -215l252 215l162 -150l-285 -340z" />
    <glyph glyph-name="uni0162" unicode="&#x162;" horiz-adv-x="1226" 
d="M23 1372h1181l-18 -346h-338v-1026h-103l-40 -88h26q108 0 177 -51t69 -148q0 -87 -68 -154.5t-183 -107t-263 -51.5l-35 190q109 29 167 58t58 63q0 22 -19.5 29.5t-58.5 7.5q-48 0 -88 -8l-71 96l78 164h-113v1026h-338z" />
    <glyph glyph-name="uni0163" unicode="&#x163;" horiz-adv-x="956" 
d="M250 1364h385v-334h276v-307h-276v-260q0 -88 23 -121t85 -33q66 0 140 19l65 -262q-141 -70 -297 -84l-33 -70h27q108 0 177 -51t69 -148q0 -87 -68 -154.5t-183 -107t-263 -51.5l-35 190q109 29 167 58t58 63q0 22 -19.5 29.5t-58.5 7.5q-48 0 -88 -8l-71 96l76 158
q-238 63 -238 348v381h-141v307h118z" />
    <glyph glyph-name="Tcaron" unicode="&#x164;" horiz-adv-x="1226" 
d="M23 1372h1181l-18 -346h-338v-1026h-467v1026h-338zM193 1761l157 185l264 -177l279 179l143 -179l-293 -251l-272 -7z" />
    <glyph glyph-name="tcaron" unicode="&#x165;" horiz-adv-x="956" 
d="M250 1364h385v-334h276v-307h-276v-260q0 -88 23 -121t85 -33q66 0 140 19l65 -262q-174 -89 -397 -89q-383 0 -383 365v381h-141v307h118zM711 1638l319 9l12 -15l-84 -497h-247v503z" />
    <glyph glyph-name="Tbar" unicode="&#x166;" horiz-adv-x="1249" 
d="M182 733h209v293h-338l-18 346h1179l-18 -346h-336v-293h209v-250h-209v-483h-469v483h-209v250z" />
    <glyph glyph-name="tbar" unicode="&#x167;" horiz-adv-x="985" 
d="M252 1364h385v-334h301v-276h-301v-109h301v-229h-301q4 -67 28.5 -93t79.5 -26q65 0 156 18l80 -249q-205 -89 -440 -89q-188 0 -279.5 86.5t-91.5 270.5v82h-137v229h137v109h-141v276h118z" />
    <glyph glyph-name="Utilde" unicode="&#x168;" horiz-adv-x="1376" 
d="M829 1372h469v-774q0 -297 -158 -462t-474 -165q-286 0 -436 150.5t-150 417.5v833h467v-811q0 -127 32 -188.5t111 -61.5q68 0 98 47q41 49 41 172v842zM834 1800q17 0 35 12.5t37.5 40t26 38t23.5 38.5l195 -92q-40 -153 -125 -240.5t-195 -87.5q-54 0 -100 19.5
t-72 43t-55 43t-51 19.5q-31 0 -58.5 -31t-70.5 -102l-195 94q44 151 130.5 239.5t201.5 88.5q43 0 81.5 -12.5t64.5 -30.5t48 -36.5t42 -31t37 -12.5z" />
    <glyph glyph-name="utilde" unicode="&#x169;" horiz-adv-x="1218" 
d="M74 1026l467 8v-649q0 -55 14.5 -78.5t44.5 -23.5t68 18v729h469v-520q0 -136 18 -475l-336 -49l-82 137q-131 -152 -323 -152q-163 0 -252.5 90t-89.5 267zM745 1442q29 0 56 37t55 93q1 3 2 5l2 4l205 -80q-28 -156 -115 -252t-209 -96q-55 0 -103 21t-74.5 45.5
t-54 45.5t-46.5 21q-21 0 -43 -21.5t-35.5 -44t-36.5 -65.5l-205 80q39 164 122.5 252t207.5 88q54 0 101 -21t73 -45.5t52.5 -45.5t45.5 -21z" />
    <glyph glyph-name="Umacron" unicode="&#x16a;" horiz-adv-x="1376" 
d="M829 1372h469v-774q0 -297 -158 -462t-474 -165q-286 0 -436 150.5t-150 417.5v833h467v-811q0 -127 32 -188.5t111 -61.5q68 0 98 47q41 49 41 172v842zM358 1796h664v-260h-664v260z" />
    <glyph glyph-name="umacron" unicode="&#x16b;" horiz-adv-x="1218" 
d="M74 1026l467 8v-649q0 -55 14.5 -78.5t44.5 -23.5t68 18v729h469v-520q0 -136 18 -475l-336 -49l-82 137q-131 -152 -323 -152q-163 0 -252.5 90t-89.5 267zM252 1434h696v-256h-696v256z" />
    <glyph glyph-name="Ubreve" unicode="&#x16c;" horiz-adv-x="1376" 
d="M829 1372h469v-774q0 -297 -158 -462t-474 -165q-286 0 -436 150.5t-150 417.5v833h467v-811q0 -127 32 -188.5t111 -61.5q68 0 98 47q41 49 41 172v842zM1104 1819q-56 -158 -163.5 -237t-250.5 -79q-146 0 -252.5 77t-161.5 237l216 100q37 -75 85.5 -110t116.5 -35
q132 0 213 145z" />
    <glyph glyph-name="ubreve" unicode="&#x16d;" horiz-adv-x="1218" 
d="M74 1026l467 8v-649q0 -55 14.5 -78.5t44.5 -23.5t68 18v729h469v-520q0 -136 18 -475l-336 -49l-82 137q-131 -152 -323 -152q-163 0 -252.5 90t-89.5 267zM604 1419q72 0 114 49.5t48 133.5l240 -39q-21 -197 -131.5 -303.5t-278.5 -106.5t-275 106.5t-124 299.5
l247 43q20 -183 160 -183z" />
    <glyph glyph-name="Uring" unicode="&#x16e;" horiz-adv-x="1376" 
d="M829 1372h469v-774q0 -297 -158 -462t-474 -165q-286 0 -436 150.5t-150 417.5v833h467v-811q0 -127 32 -188.5t111 -61.5q68 0 98 47q41 49 41 172v842zM344 1737q0 131 100.5 206.5t257.5 75.5q144 0 239 -68.5t95 -191.5q0 -136 -99.5 -212.5t-256.5 -76.5
q-150 0 -243 71t-93 196zM793 1749q0 42 -27.5 64t-73.5 22q-49 0 -77.5 -23.5t-28.5 -68.5q0 -41 26.5 -64.5t71.5 -23.5q48 0 78.5 25.5t30.5 68.5z" />
    <glyph glyph-name="uring" unicode="&#x16f;" horiz-adv-x="1218" 
d="M74 1026l467 8v-649q0 -55 14.5 -78.5t44.5 -23.5t68 18v729h469v-520q0 -136 18 -475l-336 -49l-82 137q-131 -152 -323 -152q-163 0 -252.5 90t-89.5 267zM268 1389q0 128 98 204t248 76q137 0 228.5 -70t91.5 -186q0 -129 -99.5 -207t-252.5 -78q-135 0 -224.5 71.5
t-89.5 189.5zM694 1401q0 37 -25 60t-67 22q-45 2 -72.5 -20.5t-27.5 -63.5q0 -38 24.5 -61t67.5 -23q45 0 72.5 23.5t27.5 62.5z" />
    <glyph glyph-name="Uhungarumlaut" unicode="&#x170;" horiz-adv-x="1376" 
d="M829 1372h469v-774q0 -297 -158 -462t-474 -165q-286 0 -436 150.5t-150 417.5v833h467v-811q0 -127 32 -188.5t111 -61.5q68 0 98 47q41 49 41 172v842zM291 1612l215 407l252 -151v-33l-281 -342zM760 1612l215 407l252 -151v-33l-281 -342z" />
    <glyph glyph-name="uhungarumlaut" unicode="&#x171;" horiz-adv-x="1218" 
d="M74 1026l467 8v-649q0 -55 14.5 -78.5t44.5 -23.5t68 18v729h469v-520q0 -136 18 -475l-336 -49l-82 137q-131 -152 -323 -152q-163 0 -252.5 90t-89.5 267zM221 1237l185 428l278 -129l4 -33l-258 -373zM657 1237l189 428l278 -129l2 -33l-256 -373z" />
    <glyph glyph-name="Uogonek" unicode="&#x172;" horiz-adv-x="1376" 
d="M1298 598q0 -140 -31 -240t-85 -166t-150 -141q-123 -99 -123 -186q0 -41 26 -62.5t69 -21.5q48 0 96 10l61 -235q-64 -31 -148.5 -49.5t-156.5 -18.5q-146 0 -233.5 68.5t-87.5 175.5q0 134 153 233v6h-22q-286 0 -436 150.5t-150 417.5v833h467v-811q0 -127 32 -188.5
t111 -61.5q68 0 98 47q41 49 41 172v842h469v-774z" />
    <glyph glyph-name="uogonek" unicode="&#x173;" horiz-adv-x="1218" 
d="M74 1030h467v-645q0 -55 14.5 -78.5t44.5 -23.5t68 18v729h469v-520q0 -140 18 -479q-188 -71 -188 -160q0 -33 24 -52.5t72 -19.5q34 0 88 8l66 -233q-158 -68 -306 -68q-131 0 -209.5 65t-78.5 177q0 145 176 266l-64 107q-129 -150 -321 -150q-164 0 -253 90t-89 267z
" />
    <glyph glyph-name="Wcircumflex" unicode="&#x174;" horiz-adv-x="2084" 
d="M1634 1372h451q0 -66 -45 -215l-340 -1153l-533 -8l-106 645l-23 248h-10l-133 -885l-535 -8l-305 1161q-3 10 -11.5 44.5t-12 48.5t-8.5 39.5t-7 44.5t-2 38h484l112 -598l35 -299h12l146 897h528l101 -598l32 -299h13zM915 1911l273 8l280 -252l-159 -182l-265 174
l-278 -176l-141 178z" />
    <glyph glyph-name="wcircumflex" unicode="&#x175;" horiz-adv-x="1857" 
d="M705 1026l499 8l96 -454l19 -218h14l111 668h405q0 -72 -30 -168l-263 -858l-522 -8l-96 477l-16 182h-11l-129 -651l-493 -8l-244 866q-29 96 -29 168h453l76 -450l8 -218h14zM799 1620l264 8l291 -348l-166 -150l-260 216l-254 -216l-162 150z" />
    <glyph glyph-name="Ycircumflex" unicode="&#x176;" horiz-adv-x="1318" 
d="M862 1372h465q-3 -90 -72 -223l-362 -698v-451h-467v449l-365 700q-67 131 -67 223h487l131 -346l60 -192h10zM530 1911l273 8l280 -252l-159 -182l-265 174l-278 -176l-141 178z" />
    <glyph glyph-name="ycircumflex" unicode="&#x177;" horiz-adv-x="1185" 
d="M739 1030h441q0 -79 -29 -168l-229 -694q-119 -347 -292 -513.5t-431 -166.5q-95 0 -185 12v314q150 0 277.5 54t197.5 161h-178l-262 833q-29 92 -29 168h478l59 -391q24 -137 33 -277h12zM463 1620l264 8l291 -348l-166 -150l-260 216l-254 -216l-162 150z" />
    <glyph glyph-name="Ydieresis" unicode="&#x178;" horiz-adv-x="1318" 
d="M862 1372h465q-3 -90 -72 -223l-362 -698v-451h-467v449l-365 700q-67 131 -67 223h487l131 -346l60 -192h10zM723 1690q0 89 57 141.5t150 52.5q81 0 132.5 -45.5t51.5 -120.5q0 -88 -57.5 -141t-149.5 -53q-82 0 -133 45.5t-51 120.5zM209 1690q0 88 56.5 141t148.5 53
q83 0 134.5 -45t51.5 -121q0 -88 -58 -141t-151 -53q-79 0 -130.5 46t-51.5 120z" />
    <glyph glyph-name="Zacute" unicode="&#x179;" horiz-adv-x="1214" 
d="M66 1372h1044l61 -350l-593 -682h573l16 -340h-1101l-21 346l588 686h-553zM352 1708l533 250l110 -268l-4 -37l-551 -162z" />
    <glyph glyph-name="zacute" unicode="&#x17a;" horiz-adv-x="1101" 
d="M76 1030h944l39 -321l-481 -408h442l18 -301h-964l-37 313l493 416h-440zM309 1315l424 368l182 -231v-37l-452 -282z" />
    <glyph glyph-name="Zdotaccent" unicode="&#x17b;" horiz-adv-x="1214" 
d="M66 1372h1044l61 -350l-593 -682h573l16 -340h-1101l-21 346l588 686h-553zM408 1700q0 88 60 144.5t155 56.5q85 0 138.5 -49.5t53.5 -125.5q0 -88 -59.5 -143t-155.5 -55q-86 0 -139 48t-53 124z" />
    <glyph glyph-name="zdotaccent" unicode="&#x17c;" horiz-adv-x="1101" 
d="M76 1030h944l39 -321l-481 -408h442l18 -301h-964l-37 313l493 416h-440zM330 1339q0 94 63 150.5t170 56.5q94 0 149.5 -51t55.5 -131q0 -92 -62.5 -149.5t-166.5 -57.5q-95 0 -152 51t-57 131z" />
    <glyph glyph-name="Zcaron" unicode="&#x17d;" horiz-adv-x="1214" 
d="M66 1372h1044l61 -350l-593 -682h573l16 -340h-1101l-21 346l588 686h-553zM184 1761l158 185l264 -177l279 179l143 -179l-293 -251l-272 -7z" />
    <glyph glyph-name="zcaron" unicode="&#x17e;" horiz-adv-x="1101" 
d="M76 1030h944l39 -321l-481 -408h442l18 -301h-964l-37 313l493 416h-440zM408 1155l-289 348l166 150l260 -215l252 215l161 -150l-284 -340z" />
    <glyph glyph-name="longs" unicode="&#x17f;" horiz-adv-x="774" 
d="M39 1030h154q8 153 74 272t186 188t276 69q169 0 301 -78l-92 -264q-95 26 -168 26q-61 0 -82 -24q-31 -31 -31 -154v-1065h-467v723h-151v307z" />
    <glyph glyph-name="uni018F" unicode="&#x18f;" horiz-adv-x="1247" 
d="M1198 727q0 -169 -33 -302.5t-102.5 -236t-187 -157t-277.5 -54.5q-289 0 -420 155t-131 450q0 112 21 231h690q-11 122 -67 180t-187 58q-65 0 -138.5 -11t-102.5 -18.5t-95 -24.5l-80 293q62 29 116.5 48.5t162 38t231.5 18.5q155 0 272 -50t187.5 -141t105.5 -210.5
t35 -266.5zM604 315q74 0 108 44.5t44 156.5h-291q-2 -10 -2 -37q0 -82 33.5 -123t107.5 -41z" />
    <glyph glyph-name="uni0192" unicode="&#x192;" horiz-adv-x="1218" 
d="M346 891q33 243 169 373.5t374 130.5q176 0 301 -70l-98 -285q-82 21 -134 21q-55 0 -94 -31q-35 -35 -51 -127l-25 -186h207l-34 -305h-211l-52 -387q-33 -244 -156 -368t-354 -124q-83 0 -160.5 18.5t-125.5 45.5l86 286q78 -16 114 -16q110 0 129 145l52 400h-152
l37 305h156z" />
    <glyph glyph-name="Ohorn" unicode="&#x1a0;" horiz-adv-x="1499" 
d="M43 674q0 327 190 527t506 200q132 0 242 -35q61 -14 102 -14q101 0 101 96q0 75 -49 160l325 10q66 -112 66 -234q0 -232 -217 -292q90 -170 90 -396q0 -326 -190.5 -525.5t-506.5 -199.5q-133 0 -243 36.5t-186 100.5t-128.5 153t-77 192.5t-24.5 220.5zM909 698
q0 103 -16.5 181t-59.5 130t-108 52q-72 0 -119 -70q-71 -103 -71 -307q0 -97 16.5 -177t60.5 -138t111 -58q72 0 117 62q69 96 69 325z" />
    <glyph glyph-name="ohorn" unicode="&#x1a1;" horiz-adv-x="1282" 
d="M39 485q0 123 41 228t115 181t184.5 119.5t243.5 43.5q102 0 194 -29q61 -18 86 -18q43 0 62.5 21t19.5 67q0 73 -47 155l301 11q64 -103 64 -232q0 -206 -197 -266q49 -113 49 -244q0 -249 -156 -400t-426 -151q-130 0 -233.5 41t-168 112.5t-98.5 163.5t-34 197z
M688 487q0 114 -24.5 195.5t-69.5 81.5q-39 0 -55 -37q-13 -29 -22 -88.5t-9 -118.5q0 -112 24.5 -183t71.5 -71q35 0 55 35q29 66 29 186z" />
    <glyph glyph-name="Uhorn" unicode="&#x1af;" horiz-adv-x="1466" 
d="M829 1372h218q61 0 89.5 23t28.5 73q0 78 -47 160l324 10q65 -110 65 -231q0 -230 -209 -293v-516q0 -297 -158 -462t-474 -165q-286 0 -436 150.5t-150 417.5v833h467v-811q0 -127 32 -188.5t111 -61.5q68 0 98 47q41 49 41 172v842z" />
    <glyph glyph-name="uhorn" unicode="&#x1b0;" horiz-adv-x="1327" 
d="M989 1274l301 10q66 -107 66 -231q0 -219 -219 -273v-270q0 -136 18 -475l-336 -49l-82 137q-131 -152 -323 -152q-163 0 -252.5 90t-89.5 267l2 698l467 8v-649q0 -55 14.5 -78.5t44.5 -23.5t68 18v729h250q62 0 91 21t29 67q0 71 -49 156z" />
    <glyph glyph-name="uni01FA" unicode="&#x1fa;" horiz-adv-x="1388" 
d="M692 969l-112 -441h211l-27 101l-59 340h-13zM432 1368l543 8l371 -1171q36 -112 36 -205h-456l-56 213h-372l-56 -213h-448q0 103 37 203zM348 1737q0 131 101 206.5t258 75.5q144 0 238.5 -68.5t94.5 -191.5q0 -136 -99.5 -212.5t-256.5 -76.5q-150 0 -243 71t-93 196z
M797 1749q0 42 -27.5 64t-73.5 22q-49 0 -77.5 -23.5t-28.5 -68.5q0 -41 26.5 -64.5t71.5 -23.5q48 0 78.5 25.5t30.5 68.5zM444 2296l533 250l110 -269l-4 -36l-551 -162z" />
    <glyph glyph-name="aringacute" unicode="&#x1fb;" horiz-adv-x="1126" 
d="M72 926q90 57 229.5 91t276.5 34q477 0 477 -400v-176q0 -85 20 -442l-334 -49l-88 147q-64 -72 -144.5 -113t-168.5 -41q-140 0 -223.5 72.5t-83.5 210.5q0 142 102 225q134 109 457 138q-4 63 -33.5 87.5t-97.5 24.5q-132 0 -299 -59zM514 254q36 0 78 22v154
q-101 -6 -127 -29q-23 -18 -23 -61q0 -86 72 -86zM233 1389q0 128 98.5 204t248.5 76q137 0 228 -70t91 -186q0 -129 -99.5 -207t-252.5 -78q-135 0 -224.5 71.5t-89.5 189.5zM659 1401q0 37 -25 60t-67 22q-45 2 -72.5 -20.5t-27.5 -63.5q0 -38 24.5 -61t67.5 -23
q45 0 72.5 23.5t27.5 62.5zM311 1937l533 250l110 -268l-4 -37l-551 -162z" />
    <glyph glyph-name="uni01FC" unicode="&#x1fc;" horiz-adv-x="1925" 
d="M639 1372h1241l-18 -328h-506v-196h373v-320h-373v-200h506l18 -328h-993v276h-322l-114 -276l-467 2q9 81 82 227zM784 803l-92 -221h195v450h-8zM1063 1708l532 250l111 -268l-4 -37l-551 -162z" />
    <glyph glyph-name="uni01FD" unicode="&#x1fd;" horiz-adv-x="1646" 
d="M1141 770q-54 0 -78.5 -39.5t-30.5 -120.5h187q2 16 2 49q0 50 -19.5 80.5t-60.5 30.5zM135 485q139 109 471 138q-4 63 -35 87.5t-102 24.5q-133 0 -301 -59l-90 250q96 59 233.5 92t268.5 33q176 0 274 -76q132 82 297 82q117 0 205 -35.5t141.5 -100.5t80 -151.5
t26.5 -194.5q0 -91 -15 -167h-547q39 -134 195 -134q117 0 260 33l78 -241q-218 -89 -436 -89q-247 0 -387 140q-69 -62 -170 -101t-224 -39q-148 0 -237.5 72.5t-89.5 210.5q0 143 104 225zM512 254q57 0 127 51q-20 63 -25 125q-125 -6 -151 -29q-23 -20 -23 -61
q0 -86 72 -86zM672 1315l424 368l182 -231v-37l-453 -282z" />
    <glyph glyph-name="Oslashacute.alt" unicode="&#x1fe;" horiz-adv-x="1419" 
d="M45 674q0 327 187.5 526t498.5 199q115 0 227 -33l93 147l241 -139l-96 -155q180 -189 180 -523q0 -214 -84 -378.5t-240.5 -255.5t-361.5 -91q-127 0 -225 33l-88 -145l-238 145l88 146q-90 95 -136 230t-46 294zM932 688q0 99 -26.5 187t-80.5 146t-123 58
q-101 0 -139 -55q-74 -102 -74 -340q0 -100 26 -188.5t79.5 -146.5t122.5 -58q100 0 139 57q76 102 76 340zM451 1708l532 250l111 -268l-4 -37l-551 -162z" />
    <glyph glyph-name="oslashacute.alt" unicode="&#x1ff;" horiz-adv-x="1193" 
d="M39 485q0 123 41 228t115 181t184.5 119.5t243.5 43.5q49 0 96 -6l92 182l231 -113l-81 -168q96 -71 145 -184.5t49 -245.5q0 -249 -156 -400t-426 -151q-51 0 -94 6l-94 -184l-229 111l80 164q-97 71 -147 180t-50 237zM688 487q0 114 -24.5 195.5t-69.5 81.5
q-39 0 -55 -37q-13 -29 -22 -88.5t-9 -118.5q0 -112 24.5 -183t71.5 -71q35 0 55 35q29 66 29 186zM338 1315l424 368l182 -231v-37l-452 -282z" />
    <glyph glyph-name="uni0218" unicode="&#x218;" horiz-adv-x="1171" 
d="M57 948q0 216 156.5 334.5t425.5 118.5q138 0 257 -30.5t202 -78.5l-117 -288q-177 57 -307 57q-133 0 -133 -68q0 -32 33 -55t114 -57q61 -25 102.5 -43.5t92.5 -46t85 -52.5t68.5 -60t55 -73t33 -86.5t12.5 -103.5q0 -209 -160.5 -327t-433.5 -118q-140 0 -280 29.5
t-232 69.5l116 307q205 -66 365 -66q133 0 133 70q0 32 -30 53.5t-109 50.5q-57 23 -93 38t-88.5 41.5t-85.5 50.5t-71.5 60t-60 74t-36 89.5t-14.5 109.5zM408 -147l346 14q12 -50 12 -109q0 -124 -56.5 -224t-129.5 -152l-215 100q47 109 47 264q0 24 -2 60.5t-2 46.5z
" />
    <glyph glyph-name="uni0219" unicode="&#x219;" horiz-adv-x="983" 
d="M53 707q0 155 137.5 249.5t366.5 94.5q204 0 361 -74l-99 -260q-125 41 -225 41q-76 0 -76 -41q0 -24 33 -42t106 -44q143 -53 216 -122.5t73 -186.5q0 -158 -128 -251.5t-367 -93.5q-242 0 -420 91l102 256q139 -48 246 -48q102 0 102 41q0 24 -34 42.5t-117 50.5
q-60 23 -102 45t-85.5 56.5t-66.5 84t-23 111.5zM324 -147l346 14q12 -50 12 -109q0 -124 -56.5 -224t-129.5 -152l-215 100q47 109 47 264q0 24 -2 60.5t-2 46.5z" />
    <glyph glyph-name="uni021A" unicode="&#x21a;" horiz-adv-x="1226" 
d="M23 1372h1181l-18 -346h-338v-1026h-467v1026h-338zM455 -147l346 14q12 -50 12 -109q0 -124 -56.5 -224t-129.5 -152l-215 100q47 109 47 264q0 24 -2 60.5t-2 46.5z" />
    <glyph glyph-name="uni021B" unicode="&#x21b;" horiz-adv-x="956" 
d="M250 1364h385v-334h276v-307h-276v-260q0 -88 23 -121t85 -33q66 0 140 19l65 -262q-174 -89 -397 -89q-383 0 -383 365v381h-141v307h118zM381 -147l346 14q12 -50 12 -109q0 -124 -56.5 -224t-129.5 -152l-215 100q47 109 47 264q0 24 -2 60.5t-2 46.5z" />
    <glyph glyph-name="dotlessj" unicode="&#x237;" horiz-adv-x="626" 
d="M82 1026l467 8v-891q0 -234 -102 -405.5t-275 -257.5l-242 233q152 179 152 428v885z" />
    <glyph glyph-name="uni0259" unicode="&#x259;" horiz-adv-x="1030" 
d="M985 543q0 -130 -28.5 -232.5t-87 -178t-154 -115.5t-223.5 -40q-229 0 -339 128t-110 358q0 71 14 164h516q-8 69 -45.5 99t-126.5 30q-123 0 -262 -27l-63 252q148 70 436 70q473 0 473 -508zM492 266q46 0 63.5 36t19.5 110h-169q-3 -15 -3 -33q0 -56 20 -84.5
t69 -28.5z" />
    <glyph glyph-name="uni02BC" unicode="&#x2bc;" horiz-adv-x="0" 
d="M31 1622l372 16q17 -60 17 -129q0 -127 -81.5 -229t-219.5 -164l-164 119q82 108 82 264q0 67 -6 123z" />
    <glyph glyph-name="circumflex" unicode="&#x2c6;" horiz-adv-x="819" 
d="M274 1620l265 8l290 -348l-165 -150l-261 216l-253 -216l-162 150z" />
    <glyph glyph-name="caron" unicode="&#x2c7;" horiz-adv-x="819" 
d="M274 1155l-288 348l166 150l260 -215l252 215l161 -150l-284 -340z" />
    <glyph glyph-name="uni02C9" unicode="&#x2c9;" horiz-adv-x="0" 
d="M-348 1434h696v-256h-696v256z" />
    <glyph glyph-name="uni02CA" unicode="&#x2ca;" horiz-adv-x="0" 
d="M-233 1315l423 368l183 -231v-37l-453 -282z" />
    <glyph glyph-name="uni02CB" unicode="&#x2cb;" horiz-adv-x="0" 
d="M-354 1452l182 231l422 -368l-152 -182l-452 282v37z" />
    <glyph glyph-name="breve" unicode="&#x2d8;" horiz-adv-x="819" 
d="M414 1419q72 0 113.5 49.5t47.5 133.5l240 -39q-21 -197 -131 -303.5t-278 -106.5t-275.5 106.5t-124.5 299.5l248 43q20 -183 160 -183z" />
    <glyph glyph-name="dotaccent" unicode="&#x2d9;" horiz-adv-x="819" 
d="M197 1339q0 94 63 150.5t170 56.5q94 0 149.5 -51t55.5 -131q0 -92 -62.5 -149.5t-166.5 -57.5q-95 0 -152 51t-57 131z" />
    <glyph glyph-name="ring" unicode="&#x2da;" horiz-adv-x="819" 
d="M78 1389q0 128 98 204t248 76q137 0 228 -70t91 -186q0 -129 -99.5 -207t-252.5 -78q-135 0 -224 71.5t-89 189.5zM504 1401q0 37 -25 60t-67 22q-45 2 -73 -20.5t-28 -63.5q0 -38 24.5 -61t67.5 -23q45 0 73 23.5t28 62.5z" />
    <glyph glyph-name="ogonek" unicode="&#x2db;" horiz-adv-x="819" 
d="M98 -250q0 121 111.5 218t325.5 190l90 -123q-181 -73 -181 -162q0 -33 21.5 -52.5t64.5 -19.5q30 0 91 9l65 -234q-158 -68 -305 -68q-127 0 -205 65.5t-78 176.5z" />
    <glyph glyph-name="tilde" unicode="&#x2dc;" horiz-adv-x="819" 
d="M555 1442q29 0 56 37t55 93q1 3 2 5l2 4l204 -80q-28 -156 -114.5 -252t-208.5 -96q-55 0 -103 21t-74.5 45.5t-54.5 45.5t-47 21q-13 0 -26 -8t-23 -18t-23.5 -31t-20.5 -34t-21 -40l-205 80q39 164 122.5 252t207.5 88q54 0 101 -21t73 -45.5t52.5 -45.5t45.5 -21z" />
    <glyph glyph-name="hungarumlaut" unicode="&#x2dd;" horiz-adv-x="819" 
d="M31 1237l184 428l279 -129l4 -33l-258 -373zM467 1237l188 428l279 -129l2 -33l-256 -373z" />
    <glyph glyph-name="uni0300" unicode="&#x300;" horiz-adv-x="0" 
d="M-354 1452l182 231l422 -368l-152 -182l-452 282v37z" />
    <glyph glyph-name="uni0301" unicode="&#x301;" horiz-adv-x="0" 
d="M-233 1315l423 368l183 -231v-37l-453 -282z" />
    <glyph glyph-name="uni0302" unicode="&#x302;" horiz-adv-x="0" 
d="M-135 1620l264 8l291 -348l-166 -150l-260 216l-254 -216l-162 150z" />
    <glyph glyph-name="uni0303" unicode="&#x303;" horiz-adv-x="0" 
d="M145 1442q29 0 56 37t55 93q3 6 4 9l205 -80q-28 -156 -115 -252t-209 -96q-55 0 -103 21t-74.5 45.5t-54 45.5t-46.5 21q-21 0 -43 -21.5t-35.5 -44t-36.5 -65.5l-205 80q39 164 122.5 252t207.5 88q54 0 101 -21t73 -45.5t52.5 -45.5t45.5 -21z" />
    <glyph glyph-name="uni0304" unicode="&#x304;" horiz-adv-x="0" 
d="M-348 1434h696v-256h-696v256z" />
    <glyph glyph-name="uni0306" unicode="&#x306;" horiz-adv-x="0" 
d="M4 1419q72 0 114 49.5t48 133.5l240 -39q-21 -197 -131.5 -303.5t-278.5 -106.5t-275 106.5t-124 299.5l247 43q20 -183 160 -183z" />
    <glyph glyph-name="uni0307" unicode="&#x307;" horiz-adv-x="0" 
d="M-213 1339q0 94 63 150.5t170 56.5q94 0 149.5 -51t55.5 -131q0 -92 -62.5 -149.5t-166.5 -57.5q-95 0 -152 51t-57 131z" />
    <glyph glyph-name="uni0308" unicode="&#x308;" horiz-adv-x="0" 
d="M49 1333q0 88 54.5 141.5t144.5 53.5q82 0 131 -46.5t49 -123.5q0 -88 -55.5 -142.5t-145.5 -54.5q-80 0 -129 47t-49 125zM-426 1333q0 88 54.5 141.5t144.5 53.5q82 0 131 -46.5t49 -123.5q0 -88 -55.5 -142.5t-145.5 -54.5q-80 0 -129 47t-49 125z" />
    <glyph glyph-name="uni0309" unicode="&#x309;" horiz-adv-x="0" 
d="M-164 1436l-37 192q95 31 185 31q128 0 200 -63t72 -179q0 -125 -105.5 -197t-273.5 -85l-27 184q65 11 95 29t30 53q0 51 -57 51q-36 0 -82 -16z" />
    <glyph glyph-name="uni030A" unicode="&#x30a;" horiz-adv-x="0" 
d="M-332 1389q0 128 98 204t248 76q137 0 228.5 -70t91.5 -186q0 -129 -99.5 -207t-252.5 -78q-135 0 -224.5 71.5t-89.5 189.5zM94 1401q0 37 -25 60t-67 22q-45 2 -72.5 -20.5t-27.5 -63.5q0 -38 24.5 -61t67.5 -23q45 0 72.5 23.5t27.5 62.5z" />
    <glyph glyph-name="uni030B" unicode="&#x30b;" horiz-adv-x="0" 
d="M-379 1237l184 428l279 -129l4 -33l-258 -373zM57 1237l189 428l278 -129l2 -33l-256 -373z" />
    <glyph glyph-name="uni030C" unicode="&#x30c;" horiz-adv-x="0" 
d="M-135 1155l-289 348l166 150l260 -215l252 215l162 -150l-285 -340z" />
    <glyph glyph-name="uni031B" unicode="&#x31b;" horiz-adv-x="0" 
d="M-92 1274l301 10q65 -100 65 -231q0 -152 -101 -221.5t-275 -69.5h-117v268h57q119 0 119 88q0 77 -49 156z" />
    <glyph glyph-name="uni0323" unicode="&#x323;" horiz-adv-x="0" 
d="M-221 -332q0 90 63 144.5t170 54.5q93 0 149 -49.5t56 -126.5q0 -90 -62 -145.5t-167 -55.5q-94 0 -151.5 49t-57.5 129z" />
    <glyph glyph-name="uni0326" unicode="&#x326;" horiz-adv-x="0" 
d="M-147 -147l346 14q12 -50 12 -109q0 -124 -56.5 -224t-129.5 -152l-215 100q47 109 47 264q0 24 -2 60.5t-2 46.5z" />
    <glyph glyph-name="uni0327" unicode="&#x327;" horiz-adv-x="0" 
d="M-199 -164l115 242l221 -66l-47 -100h27q108 0 176.5 -51t68.5 -148q0 -87 -68 -154.5t-183 -107t-263 -51.5l-34 190q109 29 167 58t58 63q0 22 -19.5 29.5t-58.5 7.5q-48 0 -88 -8z" />
    <glyph glyph-name="uni0328" unicode="&#x328;" horiz-adv-x="0" 
d="M-311 -250q0 121 111 218t325 190l90 -123q-180 -73 -180 -162q0 -33 21.5 -52.5t64.5 -19.5q29 0 90 9l65 -234q-158 -68 -305 -68q-127 0 -204.5 65.5t-77.5 176.5z" />
    <glyph glyph-name="uni0335" unicode="&#x335;" horiz-adv-x="0" 
d="M-426 524h852v-229h-852v229z" />
    <glyph glyph-name="a.sups" unicode="&#x1d43;" horiz-adv-x="849" 
d="M70 1413q176 88 354 88q350 0 350 -248v-98q0 -59 14 -283l-249 -36l-54 92q-102 -92 -225 -92q-219 0 -219 176q0 46 22.5 86t63.5 65q106 62 313 74q-2 27 -17.5 39t-60.5 12q-91 0 -227 -37zM383 1020q17 0 57 12v84q-66 -3 -86 -18q-16 -11 -16 -37q0 -41 45 -41z
" />
    <glyph glyph-name="b.sups" unicode="&#x1d47;" horiz-adv-x="923" 
d="M86 1782l338 6v-334q67 51 151 51q142 0 222 -88t80 -229q0 -167 -110.5 -259.5t-328.5 -92.5q-181 0 -352 43v903zM467 1053q35 0 49 20q19 24 19 101q0 56 -12.5 84t-45.5 28q-20 0 -53 -10v-221q7 0 22 -1t21 -1z" />
    <glyph glyph-name="d.sups" unicode="&#x1d48;" horiz-adv-x="931" 
d="M455 1053q24 0 51 8v221q-21 6 -41 6q-36 0 -53 -20q-21 -24 -21 -94q0 -65 14 -93t50 -28zM47 1157q0 150 87.5 249t227.5 99q79 0 144 -43v320l336 6v-600q0 -31 16 -316l-244 -34l-59 88q-95 -95 -211 -95q-133 0 -214 91.5t-83 234.5z" />
    <glyph glyph-name="e.sups" unicode="&#x1d49;" horiz-adv-x="849" 
d="M45 1153q0 152 110 252t298 100q173 0 260.5 -82.5t87.5 -222.5q0 -40 -10 -92h-406q14 -37 48 -51.5t93 -14.5q104 0 209 19l43 -170q-153 -55 -321 -55q-190 0 -301 85t-111 232zM457 1319q-37 0 -55.5 -22t-24.5 -66h143q2 8 2 24q0 28 -16.5 46t-48.5 18z" />
    <glyph glyph-name="g.sups" unicode="&#x1d4d;" horiz-adv-x="899" 
d="M96 938q0 76 88 129q-139 54 -139 182q0 112 99.5 182t287.5 70q89 0 160 -22q109 74 272 77l-12 -208h-86q18 -40 18 -82q0 -109 -98.5 -170.5t-288.5 -61.5q-33 0 -47 2q-2 -4 -2 -12q0 -34 137 -33h21q157 0 244.5 -49.5t87.5 -148.5q0 -124 -131.5 -193.5
t-350.5 -69.5q-350 0 -350 168q0 48 33.5 88.5t89.5 67.5q-33 38 -33 84zM420 723q79 0 110 10q37 10 37 27q0 18 -29.5 22t-105.5 4h-10q-78 0 -143 9q-19 -19 -19 -35q0 -21 36 -29t124 -8zM477 1270q0 69 -61 69q-64 0 -64 -73q0 -31 15.5 -50.5t46.5 -19.5q30 0 46.5 20
t16.5 54z" />
    <glyph glyph-name="k.sups" unicode="&#x1d4f;" horiz-adv-x="944" 
d="M575 1489h322q-3 -56 -49 -117l-129 -184l151 -225q37 -53 37 -115h-342l-106 196h-31v-196h-338v934l338 6v-516h31z" />
    <glyph glyph-name="m.sups" unicode="&#x1d50;" horiz-adv-x="1392" 
d="M76 1466l241 37l66 -98q100 100 238 100q150 0 210 -94q94 94 228 94q126 0 189 -62t63 -177v-418h-338v387q0 47 -45 47q-30 0 -60 -12v-2v-420h-338v387q0 47 -43 47q-29 0 -59 -12v-422h-338v307q0 67 -14 311z" />
    <glyph glyph-name="o.sups" unicode="&#x1d52;" horiz-adv-x="915" 
d="M47 1163q0 154 109 248t307 94q195 0 301 -93.5t106 -237.5q0 -162 -112.5 -252.5t-315.5 -90.5q-194 0 -294.5 91.5t-100.5 240.5zM528 1169q0 134 -69 134q-24 0 -45 -21q-27 -34 -27 -111q0 -59 18 -98t54 -39q31 0 49 25q20 34 20 110z" />
    <glyph glyph-name="p.sups" unicode="&#x1d56;" horiz-adv-x="929" 
d="M475 1047q34 0 49 24q19 27 19 100q0 60 -14.5 89.5t-49.5 29.5q-24 0 -51 -12v-225q24 -6 47 -6zM76 1466l241 37l66 -98q84 100 207 100q130 0 211.5 -90.5t81.5 -232.5q0 -153 -92.5 -252t-221.5 -99q-76 0 -141 43v-311h-338v592q0 30 -1.5 65.5t-5.5 106.5t-7 139z
" />
    <glyph glyph-name="t.sups" unicode="&#x1d57;" horiz-adv-x="757" 
d="M215 1700h264v-213h211v-219h-211v-111q0 -46 17.5 -65t56.5 -19q61 0 115 12l45 -190q-120 -59 -289 -59q-283 0 -283 233v199h-104v219h102z" />
    <glyph glyph-name="u.sups" unicode="&#x1d58;" horiz-adv-x="952" 
d="M82 1489h338v-383q0 -26 10 -38.5t35 -12.5q29 0 59 12v422h338v-309q0 -93 15 -308l-242 -36l-66 96q-98 -101 -235 -101q-121 0 -186.5 60.5t-65.5 175.5v422z" />
    <glyph glyph-name="v.sups" unicode="&#x1d5b;" horiz-adv-x="866" 
d="M537 1489h319q0 -36 -27 -115l-208 -524l-390 -4l-188 528q-27 83 -27 115h344l48 -252q4 -22 11.5 -68t10.5 -65h6z" />
    <glyph glyph-name="i.sinf" unicode="&#x1d62;" horiz-adv-x="516" 
d="M86 535l338 6v-643h-338v637zM96 733q0 63 47.5 102t126.5 39q70 0 112 -34.5t42 -89.5q0 -64 -47 -104t-125 -40q-71 0 -113.5 35.5t-42.5 91.5z" />
    <glyph glyph-name="r.sinf" unicode="&#x1d63;" horiz-adv-x="714" 
d="M78 516l241 37l78 -127q66 125 183 125q56 0 114 -23l-43 -292q-36 8 -71 8q-73 0 -150 -25v-321h-338v307q0 62 -14 311z" />
    <glyph glyph-name="u.sinf" unicode="&#x1d64;" horiz-adv-x="952" 
d="M82 539h338v-383q0 -26 10 -39t35 -13q27 0 59 13v422h338v-310q0 -92 15 -307l-242 -37l-66 97q-98 -101 -235 -101q-121 0 -186.5 60.5t-65.5 175.5v422z" />
    <glyph glyph-name="v.sinf" unicode="&#x1d65;" horiz-adv-x="866" 
d="M535 539h319q0 -36 -27 -115l-209 -524l-389 -4l-188 528q-27 83 -27 115h344l48 -252q4 -22 11.5 -68t10.5 -65h6z" />
    <glyph glyph-name="Wgrave" unicode="&#x1e80;" horiz-adv-x="2084" 
d="M1634 1372h451q0 -66 -45 -215l-340 -1153l-533 -8l-106 645l-23 248h-10l-133 -885l-535 -8l-305 1161q-3 10 -11.5 44.5t-12 48.5t-8.5 39.5t-7 44.5t-2 38h484l112 -598l35 -299h12l146 897h528l101 -598l32 -299h13zM662 1690l116 268l518 -250l-90 -217l-542 162z
" />
    <glyph glyph-name="wgrave" unicode="&#x1e81;" horiz-adv-x="1857" 
d="M705 1026l499 8l96 -454l19 -218h14l111 668h405q0 -72 -30 -168l-263 -858l-522 -8l-96 477l-16 182h-11l-129 -651l-493 -8l-244 866q-29 96 -29 168h453l76 -450l8 -218h14zM580 1452l182 231l422 -368l-152 -182l-452 282v37z" />
    <glyph glyph-name="Wacute" unicode="&#x1e82;" horiz-adv-x="2084" 
d="M1634 1372h451q0 -66 -45 -215l-340 -1153l-533 -8l-106 645l-23 248h-10l-133 -885l-535 -8l-305 1161q-3 10 -11.5 44.5t-12 48.5t-8.5 39.5t-7 44.5t-2 38h484l112 -598l35 -299h12l146 897h528l101 -598l32 -299h13zM793 1708l532 250l111 -268l-4 -37l-551 -162z
" />
    <glyph glyph-name="wacute" unicode="&#x1e83;" horiz-adv-x="1857" 
d="M705 1026l499 8l96 -454l19 -218h14l111 668h405q0 -72 -30 -168l-263 -858l-522 -8l-96 477l-16 182h-11l-129 -651l-493 -8l-244 866q-29 96 -29 168h453l76 -450l8 -218h14zM700 1315l424 368l183 -231v-37l-453 -282z" />
    <glyph glyph-name="Wdieresis" unicode="&#x1e84;" horiz-adv-x="2084" 
d="M1634 1372h451q0 -66 -45 -215l-340 -1153l-533 -8l-106 645l-23 248h-10l-133 -885l-535 -8l-305 1161q-3 10 -11.5 44.5t-12 48.5t-8.5 39.5t-7 44.5t-2 38h484l112 -598l35 -299h12l146 897h528l101 -598l32 -299h13zM1108 1690q0 89 57 141.5t150 52.5
q81 0 132.5 -45.5t51.5 -120.5q0 -88 -57.5 -141t-149.5 -53q-82 0 -133 45.5t-51 120.5zM594 1690q0 88 56.5 141t148.5 53q83 0 134.5 -45t51.5 -121q0 -88 -58 -141t-151 -53q-79 0 -130.5 46t-51.5 120z" />
    <glyph glyph-name="wdieresis" unicode="&#x1e85;" horiz-adv-x="1857" 
d="M705 1026l499 8l96 -454l19 -218h14l111 668h405q0 -72 -30 -168l-263 -858l-522 -8l-96 477l-16 182h-11l-129 -651l-493 -8l-244 866q-29 96 -29 168h453l76 -450l8 -218h14zM983 1333q0 88 54.5 141.5t144.5 53.5q82 0 131 -46.5t49 -123.5q0 -88 -55.5 -142.5
t-145.5 -54.5q-80 0 -129 47t-49 125zM508 1333q0 88 54.5 141.5t144.5 53.5q82 0 131 -46.5t49 -123.5q0 -88 -55.5 -142.5t-145.5 -54.5q-80 0 -129 47t-49 125z" />
    <glyph glyph-name="uni1E9E" unicode="&#x1e9e;" horiz-adv-x="1429" 
d="M1335 1257v-38l-219 -482q42 -17 76 -35.5t73.5 -50.5t66.5 -69.5t45 -92.5t18 -120q0 -182 -118.5 -287t-326.5 -105q-185 0 -315 58l59 280q46 -18 113 -18q62 0 97.5 35t35.5 94q0 71 -53 111.5t-164 68.5l-16 111l149 315q-57 23 -143 23q-84 0 -120 -52.5
t-36 -164.5v-838h-465v795q0 311 148 458.5t452 147.5q188 0 361 -44.5t282 -99.5z" />
    <glyph glyph-name="uni1EA2" unicode="&#x1ea2;" horiz-adv-x="1388" 
d="M692 969l-112 -441h211l-27 101l-59 340h-13zM432 1368l543 8l371 -1171q36 -112 36 -205h-456l-56 213h-372l-56 -213h-448q0 103 37 203zM530 1749l-38 184q90 33 186 33q126 0 195 -55.5t69 -169.5q0 -116 -102.5 -178.5t-270.5 -75.5l-24 180q67 10 95 22.5t28 39.5
q0 36 -58 36q-37 0 -80 -16z" />
    <glyph glyph-name="uni1EA3" unicode="&#x1ea3;" horiz-adv-x="1126" 
d="M72 926q90 57 229.5 91t276.5 34q477 0 477 -400v-176q0 -85 20 -442l-334 -49l-88 147q-64 -72 -144.5 -113t-168.5 -41q-140 0 -223.5 72.5t-83.5 210.5q0 142 102 225q134 109 457 138q-4 63 -33.5 87.5t-97.5 24.5q-132 0 -299 -59zM514 254q36 0 78 22v154
q-101 -6 -127 -29q-23 -18 -23 -61q0 -86 72 -86zM406 1436l-37 192q95 31 184 31q128 0 200 -63t72 -179q0 -125 -105.5 -197t-273.5 -85l-26 184q65 11 95 29t30 53q0 51 -58 51q-35 0 -81 -16z" />
    <glyph glyph-name="uni1EA4" unicode="&#x1ea4;" horiz-adv-x="1388" 
d="M692 969l-112 -441h211l-27 101l-59 340h-13zM432 1368l543 8l371 -1171q36 -112 36 -205h-456l-56 213h-372l-56 -213h-448q0 103 37 203zM565 1868l269 6l274 -227l-156 -181l-260 160l-274 -162l-137 176zM399 2114l521 227l92 -244l-4 -35l-537 -141z" />
    <glyph glyph-name="uni1EA5" unicode="&#x1ea5;" horiz-adv-x="1126" 
d="M72 926q90 57 229.5 91t276.5 34q477 0 477 -400v-176q0 -85 20 -442l-334 -49l-88 147q-64 -72 -144.5 -113t-168.5 -41q-140 0 -223.5 72.5t-83.5 210.5q0 142 102 225q134 109 457 138q-4 63 -33.5 87.5t-97.5 24.5q-132 0 -299 -59zM514 254q36 0 78 22v154
q-101 -6 -127 -29q-23 -18 -23 -61q0 -86 72 -86zM436 1567l260 6l285 -324l-162 -145l-256 211l-250 -211l-157 145zM764 1628l256 395l219 -147v-35l-309 -332z" />
    <glyph glyph-name="uni1EA6" unicode="&#x1ea6;" horiz-adv-x="1388" 
d="M692 969l-112 -441h211l-27 101l-59 340h-13zM432 1368l543 8l371 -1171q36 -112 36 -205h-456l-56 213h-372l-56 -213h-448q0 103 37 203zM565 1868l269 6l274 -227l-156 -181l-260 160l-274 -162l-137 176zM399 2097l95 244l518 -227l-72 -193l-537 141z" />
    <glyph glyph-name="uni1EA7" unicode="&#x1ea7;" horiz-adv-x="1126" 
d="M72 926q90 57 229.5 91t276.5 34q477 0 477 -400v-176q0 -85 20 -442l-334 -49l-88 147q-64 -72 -144.5 -113t-168.5 -41q-140 0 -223.5 72.5t-83.5 210.5q0 142 102 225q134 109 457 138q-4 63 -33.5 87.5t-97.5 24.5q-132 0 -299 -59zM514 254q36 0 78 22v154
q-101 -6 -127 -29q-23 -18 -23 -61q0 -86 72 -86zM436 1567l260 6l285 -324l-162 -145l-256 211l-250 -211l-157 145zM612 1876l219 147l256 -395l-165 -119l-310 332v35z" />
    <glyph glyph-name="uni1EA8" unicode="&#x1ea8;" horiz-adv-x="1388" 
d="M692 969l-112 -441h211l-27 101l-59 340h-13zM432 1368l543 8l371 -1171q36 -112 36 -205h-456l-56 213h-372l-56 -213h-448q0 103 37 203zM565 1868l269 6l274 -227l-156 -181l-260 160l-274 -162l-137 176zM870 2128l-39 184q84 31 187 31q250 0 250 -223
q0 -117 -97 -180t-262 -74l-24 180q68 10 95.5 22t27.5 39q0 20 -14.5 27.5t-43.5 7.5q-42 0 -80 -14z" />
    <glyph glyph-name="uni1EA9" unicode="&#x1ea9;" horiz-adv-x="1126" 
d="M72 926q90 57 229.5 91t276.5 34q477 0 477 -400v-176q0 -85 20 -442l-334 -49l-88 147q-64 -72 -144.5 -113t-168.5 -41q-140 0 -223.5 72.5t-83.5 210.5q0 142 102 225q134 109 457 138q-4 63 -33.5 87.5t-97.5 24.5q-132 0 -299 -59zM514 254q36 0 78 22v154
q-101 -6 -127 -29q-23 -18 -23 -61q0 -86 72 -86zM436 1567l260 6l285 -324l-162 -145l-256 211l-250 -211l-157 145zM766 1835l-39 188q95 31 182 31q112 0 178 -62t66 -173q0 -121 -99 -192.5t-249 -82.5l-27 178q63 11 93 29t30 51q0 51 -57 51q-33 0 -78 -18z" />
    <glyph glyph-name="uni1EAA" unicode="&#x1eaa;" horiz-adv-x="1388" 
d="M692 969l-112 -441h211l-27 101l-59 340h-13zM432 1368l543 8l371 -1171q36 -112 36 -205h-456l-56 213h-372l-56 -213h-448q0 103 37 203zM840 2179q46 0 112 123l181 -90q-36 -124 -114.5 -198.5t-178.5 -74.5q-49 0 -92 18.5t-68 40t-52.5 40t-49.5 18.5
q-20 0 -41 -17.5t-36 -39t-44 -68.5l-181 90q42 124 120.5 199.5t183.5 75.5q48 0 91 -18.5t68.5 -40t53 -40t47.5 -18.5zM565 1868l269 6l274 -227l-156 -181l-260 160l-274 -162l-137 176z" />
    <glyph glyph-name="uni1EAB" unicode="&#x1eab;" horiz-adv-x="1126" 
d="M72 926q90 57 229.5 91t276.5 34q477 0 477 -400v-176q0 -85 20 -442l-334 -49l-88 147q-64 -72 -144.5 -113t-168.5 -41q-140 0 -223.5 72.5t-83.5 210.5q0 142 102 225q134 109 457 138q-4 63 -33.5 87.5t-97.5 24.5q-132 0 -299 -59zM514 254q36 0 78 22v154
q-101 -6 -127 -29q-23 -18 -23 -61q0 -86 72 -86zM436 1565l260 8l285 -324l-162 -147l-256 211l-250 -211l-157 147zM717 1888q29 0 53 35.5t49 97.5l189 -75q-31 -135 -100 -214t-177 -79q-47 0 -93 20t-74.5 43.5t-58 43.5t-48.5 20q-29 0 -53.5 -31.5t-51.5 -93.5
l-188 78q41 134 106 209t172 75q47 0 92.5 -20t74.5 -44.5t58.5 -44.5t49.5 -20z" />
    <glyph glyph-name="uni1EAC" unicode="&#x1eac;" horiz-adv-x="1388" 
d="M692 969l-112 -441h211l-27 101l-59 340h-13zM432 1368l543 8l371 -1171q36 -112 36 -205h-456l-56 213h-372l-56 -213h-448q0 103 37 203zM473 -332q0 90 63.5 144.5t170.5 54.5q93 0 148.5 -49.5t55.5 -126.5q0 -90 -62 -145.5t-167 -55.5q-94 0 -151.5 49t-57.5 129z
M563 1911l273 8l280 -252l-160 -182l-264 174l-278 -176l-142 178z" />
    <glyph glyph-name="uni1EAD" unicode="&#x1ead;" horiz-adv-x="1126" 
d="M72 926q90 57 229.5 91t276.5 34q477 0 477 -400v-176q0 -85 20 -442l-334 -49l-88 147q-64 -72 -144.5 -113t-168.5 -41q-140 0 -223.5 72.5t-83.5 210.5q0 142 102 225q134 109 457 138q-4 63 -33.5 87.5t-97.5 24.5q-132 0 -299 -59zM514 254q36 0 78 22v154
q-101 -6 -127 -29q-23 -18 -23 -61q0 -86 72 -86zM348 -332q0 90 63.5 144.5t170.5 54.5q93 0 148.5 -49.5t55.5 -126.5q0 -90 -62 -145.5t-167 -55.5q-94 0 -151.5 49t-57.5 129zM434 1620l264 8l291 -348l-166 -150l-260 216l-254 -216l-162 150z" />
    <glyph glyph-name="uni1EAE" unicode="&#x1eae;" horiz-adv-x="1388" 
d="M692 969l-112 -441h211l-27 101l-59 340h-13zM432 1368l543 8l371 -1171q36 -112 36 -205h-456l-56 213h-372l-56 -213h-448q0 103 37 203zM1098 1784q-54 -147 -159.5 -222t-244.5 -75q-141 0 -245 73t-158 224l211 96q65 -139 196 -139q126 0 207 139zM399 2114
l533 233l96 -250l-4 -37l-551 -143z" />
    <glyph glyph-name="uni1EAF" unicode="&#x1eaf;" horiz-adv-x="1126" 
d="M72 926q90 57 229.5 91t276.5 34q477 0 477 -400v-176q0 -85 20 -442l-334 -49l-88 147q-64 -72 -144.5 -113t-168.5 -41q-140 0 -223.5 72.5t-83.5 210.5q0 142 102 225q134 109 457 138q-4 63 -33.5 87.5t-97.5 24.5q-132 0 -299 -59zM514 254q36 0 78 22v154
q-101 -6 -127 -29q-23 -18 -23 -61q0 -86 72 -86zM573 1380q144 0 156 176l227 -38q-20 -187 -125 -286t-266 -99q-162 0 -264 98.5t-117 281.5l238 43q8 -90 44 -133t107 -43zM434 1665l254 391l217 -147v-33l-307 -328z" />
    <glyph glyph-name="uni1EB0" unicode="&#x1eb0;" horiz-adv-x="1388" 
d="M692 969l-112 -441h211l-27 101l-59 340h-13zM432 1368l543 8l371 -1171q36 -112 36 -205h-456l-56 213h-372l-56 -213h-448q0 103 37 203zM1098 1784q-54 -147 -159.5 -222t-244.5 -75q-141 0 -245 73t-158 224l211 96q65 -139 196 -139q126 0 207 139zM367 2097l96 250
l532 -233l-73 -197l-551 143z" />
    <glyph glyph-name="uni1EB1" unicode="&#x1eb1;" horiz-adv-x="1126" 
d="M72 926q90 57 229.5 91t276.5 34q477 0 477 -400v-176q0 -85 20 -442l-334 -49l-88 147q-64 -72 -144.5 -113t-168.5 -41q-140 0 -223.5 72.5t-83.5 210.5q0 142 102 225q134 109 457 138q-4 63 -33.5 87.5t-97.5 24.5q-132 0 -299 -59zM514 254q36 0 78 22v154
q-101 -6 -127 -29q-23 -18 -23 -61q0 -86 72 -86zM573 1380q144 0 156 176l227 -38q-20 -187 -125 -286t-266 -99q-162 0 -264 98.5t-117 281.5l238 43q8 -90 44 -133t107 -43zM260 1903l213 149l254 -389l-162 -123l-305 330v33z" />
    <glyph glyph-name="uni1EB2" unicode="&#x1eb2;" horiz-adv-x="1388" 
d="M692 969l-112 -441h211l-27 101l-59 340h-13zM432 1368l543 8l371 -1171q36 -112 36 -205h-456l-56 213h-372l-56 -213h-448q0 103 37 203zM1098 1784q-54 -147 -159.5 -222t-244.5 -75q-141 0 -245 73t-158 224l211 96q65 -139 196 -139q126 0 207 139zM549 2144
l-39 185q85 30 186 30q250 0 250 -223q0 -117 -96 -179t-260 -75l-27 180q67 10 96 22.5t29 39.5q0 35 -59 35q-39 0 -80 -15z" />
    <glyph glyph-name="uni1EB3" unicode="&#x1eb3;" horiz-adv-x="1126" 
d="M72 926q90 57 229.5 91t276.5 34q477 0 477 -400v-176q0 -85 20 -442l-334 -49l-88 147q-64 -72 -144.5 -113t-168.5 -41q-140 0 -223.5 72.5t-83.5 210.5q0 142 102 225q134 109 457 138q-4 63 -33.5 87.5t-97.5 24.5q-132 0 -299 -59zM514 254q36 0 78 22v154
q-101 -6 -127 -29q-23 -18 -23 -61q0 -86 72 -86zM573 1374q144 0 156 176l227 -37q-20 -187 -124.5 -283.5t-266.5 -96.5t-264 96.5t-117 279.5l238 41q8 -90 44 -133t107 -43zM444 1858l-36 182q87 31 174 31q110 0 173.5 -60.5t63.5 -169.5q0 -119 -93.5 -187t-244.5 -79
l-24 172q62 11 90 28t28 52q0 49 -55 49q-38 0 -76 -18z" />
    <glyph glyph-name="uni1EB4" unicode="&#x1eb4;" horiz-adv-x="1388" 
d="M692 969l-112 -441h211l-27 101l-59 340h-13zM432 1368l543 8l371 -1171q36 -112 36 -205h-456l-56 213h-372l-56 -213h-448q0 103 37 203zM1098 1784q-54 -147 -159.5 -222t-244.5 -75q-141 0 -245 73t-158 224l211 96q65 -139 196 -139q126 0 207 139zM829 2179
q11 0 23.5 7t21.5 16t21.5 25.5t18.5 25.5t17 27.5t13 21.5l184 -90q-37 -125 -116.5 -199t-182.5 -74q-49 0 -92.5 18.5t-69 40t-53.5 40t-51 18.5q-30 0 -56 -29t-67 -96l-184 90q43 125 123 200t186 75q49 0 93 -18.5t69 -40t53 -40t49 -18.5z" />
    <glyph glyph-name="uni1EB5" unicode="&#x1eb5;" horiz-adv-x="1126" 
d="M72 926q90 57 229.5 91t276.5 34q477 0 477 -400v-176q0 -85 20 -442l-334 -49l-88 147q-64 -72 -144.5 -113t-168.5 -41q-140 0 -223.5 72.5t-83.5 210.5q0 142 102 225q134 109 457 138q-4 63 -33.5 87.5t-97.5 24.5q-132 0 -299 -59zM514 254q36 0 78 22v154
q-101 -6 -127 -29q-23 -18 -23 -61q0 -86 72 -86zM573 1374q69 0 109.5 47.5t46.5 128.5l227 -37q-20 -187 -124.5 -283.5t-266.5 -96.5t-264 96.5t-117 279.5l238 41q17 -176 151 -176zM717 1880q50 0 104 133l191 -76q-29 -133 -99.5 -212.5t-179.5 -79.5q-49 0 -95.5 20
t-75.5 43.5t-59.5 43.5t-49.5 20q-30 0 -53.5 -30.5t-53.5 -94.5l-190 77q39 135 105.5 210t176.5 75q48 0 94.5 -20t75.5 -44.5t59.5 -44.5t49.5 -20z" />
    <glyph glyph-name="uni1EB6" unicode="&#x1eb6;" horiz-adv-x="1388" 
d="M692 969l-112 -441h211l-27 101l-59 340h-13zM432 1368l543 8l371 -1171q36 -112 36 -205h-456l-56 213h-372l-56 -213h-448q0 103 37 203zM473 -332q0 90 63.5 144.5t170.5 54.5q93 0 148.5 -49.5t55.5 -126.5q0 -90 -62 -145.5t-167 -55.5q-94 0 -151.5 49t-57.5 129z
M1108 1819q-56 -158 -163.5 -237t-250.5 -79q-304 0 -413 314l215 100q37 -75 85.5 -110t116.5 -35q132 0 213 145z" />
    <glyph glyph-name="uni1EB7" unicode="&#x1eb7;" horiz-adv-x="1126" 
d="M72 926q90 57 229.5 91t276.5 34q477 0 477 -400v-176q0 -85 20 -442l-334 -49l-88 147q-64 -72 -144.5 -113t-168.5 -41q-140 0 -223.5 72.5t-83.5 210.5q0 142 102 225q134 109 457 138q-4 63 -33.5 87.5t-97.5 24.5q-132 0 -299 -59zM514 254q36 0 78 22v154
q-101 -6 -127 -29q-23 -18 -23 -61q0 -86 72 -86zM348 -332q0 90 63.5 144.5t170.5 54.5q93 0 148.5 -49.5t55.5 -126.5q0 -90 -62 -145.5t-167 -55.5q-94 0 -151.5 49t-57.5 129zM573 1419q72 0 114 49.5t48 133.5l240 -39q-21 -197 -131.5 -303.5t-278.5 -106.5
t-275 106.5t-124 299.5l248 43q20 -183 159 -183z" />
    <glyph glyph-name="uni1EBA" unicode="&#x1eba;" horiz-adv-x="1130" 
d="M92 1372h993l-18 -328h-506v-196h373v-320h-373v-200h506l18 -328h-993v1372zM438 1749l-39 184q90 33 187 33q126 0 195 -55.5t69 -169.5q0 -116 -102.5 -178.5t-270.5 -75.5l-24 180q67 10 94.5 22.5t27.5 39.5q0 36 -57 36q-37 0 -80 -16z" />
    <glyph glyph-name="uni1EBB" unicode="&#x1ebb;" horiz-adv-x="1095" 
d="M39 487q0 118 39 222t109.5 181t177 122t233.5 45q117 0 205 -35.5t141.5 -100.5t80 -151.5t26.5 -194.5q0 -91 -15 -167h-528q34 -134 176 -134q117 0 260 33l78 -241q-218 -89 -436 -89q-253 0 -400 137.5t-147 372.5zM590 770q-47 0 -67 -39t-25 -121h170q2 16 2 49
q0 50 -20 80.5t-60 30.5zM403 1436l-36 192q95 31 184 31q128 0 200 -63t72 -179q0 -125 -105.5 -197t-273.5 -85l-26 184q65 11 95 29t30 53q0 51 -58 51q-36 0 -82 -16z" />
    <glyph glyph-name="uni1EBC" unicode="&#x1ebc;" horiz-adv-x="1130" 
d="M92 1372h993l-18 -328h-506v-196h373v-320h-373v-200h506l18 -328h-993v1372zM745 1800q17 0 35.5 13t37.5 39t27 38.5t23 38.5l195 -92q-40 -153 -125 -240.5t-195 -87.5q-54 0 -100 19.5t-72 43t-55 43t-51 19.5q-31 0 -58.5 -31t-70.5 -102l-195 94
q44 151 130.5 239.5t201.5 88.5q53 0 99 -19t72 -42.5t53.5 -42.5t47.5 -19z" />
    <glyph glyph-name="uni1EBD" unicode="&#x1ebd;" horiz-adv-x="1095" 
d="M39 487q0 118 39 222t109.5 181t177 122t233.5 45q117 0 205 -35.5t141.5 -100.5t80 -151.5t26.5 -194.5q0 -91 -15 -167h-528q34 -134 176 -134q117 0 260 33l78 -241q-218 -89 -436 -89q-253 0 -400 137.5t-147 372.5zM590 770q-47 0 -67 -39t-25 -121h170q2 16 2 49
q0 50 -20 80.5t-60 30.5zM713 1442q44 0 108 128q2 2 2.5 3.5t1.5 3.5l2 4l205 -80q-28 -156 -114.5 -252t-208.5 -96q-55 0 -103 21t-74.5 45.5t-54.5 45.5t-47 21q-21 0 -43 -21.5t-35.5 -44t-36.5 -65.5l-204 80q39 164 122 252t207 88q54 0 101.5 -21t73.5 -45.5
t52.5 -45.5t45.5 -21z" />
    <glyph glyph-name="uni1EBE" unicode="&#x1ebe;" horiz-adv-x="1130" 
d="M92 1372h993l-18 -328h-506v-196h373v-320h-373v-200h506l18 -328h-993v1372zM473 1868l268 6l275 -227l-156 -181l-260 160l-274 -162l-138 176zM307 2114l520 227l93 -244l-5 -35l-536 -141z" />
    <glyph glyph-name="uni1EBF" unicode="&#x1ebf;" horiz-adv-x="1095" 
d="M39 487q0 118 39 222t109.5 181t177 122t233.5 45q117 0 205 -35.5t141.5 -100.5t80 -151.5t26.5 -194.5q0 -91 -15 -167h-528q34 -134 176 -134q117 0 260 33l78 -241q-218 -89 -436 -89q-253 0 -400 137.5t-147 372.5zM590 770q-47 0 -67 -39t-25 -121h170q2 16 2 49
q0 50 -20 80.5t-60 30.5zM434 1567l260 6l285 -324l-162 -145l-256 211l-250 -211l-157 145zM762 1628l256 395l219 -147v-35l-309 -332z" />
    <glyph glyph-name="uni1EC0" unicode="&#x1ec0;" horiz-adv-x="1130" 
d="M92 1372h993l-18 -328h-506v-196h373v-320h-373v-200h506l18 -328h-993v1372zM473 1868l268 6l275 -227l-156 -181l-260 160l-274 -162l-138 176zM307 2097l94 244l519 -227l-72 -193l-537 141z" />
    <glyph glyph-name="uni1EC1" unicode="&#x1ec1;" horiz-adv-x="1095" 
d="M39 487q0 118 39 222t109.5 181t177 122t233.5 45q117 0 205 -35.5t141.5 -100.5t80 -151.5t26.5 -194.5q0 -91 -15 -167h-528q34 -134 176 -134q117 0 260 33l78 -241q-218 -89 -436 -89q-253 0 -400 137.5t-147 372.5zM590 770q-47 0 -67 -39t-25 -121h170q2 16 2 49
q0 50 -20 80.5t-60 30.5zM434 1567l260 6l285 -324l-162 -145l-256 211l-250 -211l-157 145zM610 1876l219 147l256 -395l-165 -119l-310 332v35z" />
    <glyph glyph-name="uni1EC2" unicode="&#x1ec2;" horiz-adv-x="1130" 
d="M92 1372h993l-18 -328h-506v-196h373v-320h-373v-200h506l18 -328h-993v1372zM473 1868l268 6l275 -227l-156 -181l-260 160l-274 -162l-138 176zM778 2128l-39 184q84 31 187 31q250 0 250 -223q0 -117 -97 -180t-262 -74l-24 180q67 10 94.5 22t27.5 39q0 20 -14 27.5
t-43 7.5q-42 0 -80 -14z" />
    <glyph glyph-name="uni1EC3" unicode="&#x1ec3;" horiz-adv-x="1095" 
d="M39 487q0 118 39 222t109.5 181t177 122t233.5 45q117 0 205 -35.5t141.5 -100.5t80 -151.5t26.5 -194.5q0 -91 -15 -167h-528q34 -134 176 -134q117 0 260 33l78 -241q-218 -89 -436 -89q-253 0 -400 137.5t-147 372.5zM590 770q-47 0 -67 -39t-25 -121h170q2 16 2 49
q0 50 -20 80.5t-60 30.5zM434 1567l260 6l285 -324l-162 -145l-256 211l-250 -211l-157 145zM764 1835l-39 188q95 31 182 31q112 0 178 -62t66 -173q0 -121 -99 -192.5t-249 -82.5l-27 178q63 11 93 29t30 51q0 51 -57 51q-33 0 -78 -18z" />
    <glyph glyph-name="uni1EC4" unicode="&#x1ec4;" horiz-adv-x="1130" 
d="M92 1372h993l-18 -328h-506v-196h373v-320h-373v-200h506l18 -328h-993v1372zM748 2179q46 0 112 123l180 -90q-36 -125 -114 -199t-178 -74q-49 0 -92.5 18.5t-68.5 40t-52.5 40t-49.5 18.5q-16 0 -29.5 -7.5t-30 -28t-27 -36.5t-33.5 -53l-181 90q42 124 120 199.5
t183 75.5q48 0 91 -18.5t69 -40t53.5 -40t47.5 -18.5zM473 1868l268 6l275 -227l-156 -181l-260 160l-274 -162l-138 176z" />
    <glyph glyph-name="uni1EC5" unicode="&#x1ec5;" horiz-adv-x="1095" 
d="M39 487q0 118 39 222t109.5 181t177 122t233.5 45q117 0 205 -35.5t141.5 -100.5t80 -151.5t26.5 -194.5q0 -91 -15 -167h-528q34 -134 176 -134q117 0 260 33l78 -241q-218 -89 -436 -89q-253 0 -400 137.5t-147 372.5zM590 770q-47 0 -67 -39t-25 -121h170q2 16 2 49
q0 50 -20 80.5t-60 30.5zM434 1565l260 8l285 -324l-162 -147l-256 211l-250 -211l-157 147zM715 1888q29 0 53 35.5t49 97.5l189 -75q-31 -135 -100 -214t-177 -79q-47 0 -93 20t-74.5 43.5t-58 43.5t-48.5 20q-29 0 -53.5 -31.5t-51.5 -93.5l-188 78q41 134 106 209
t172 75q47 0 92.5 -20t74.5 -44.5t58.5 -44.5t49.5 -20z" />
    <glyph glyph-name="uni1EC6" unicode="&#x1ec6;" horiz-adv-x="1130" 
d="M92 1372h993l-18 -328h-506v-196h373v-320h-373v-200h506l18 -328h-993v1372zM418 -332q0 90 63 144.5t170 54.5q93 0 149 -49.5t56 -126.5q0 -90 -62 -145.5t-167 -55.5q-94 0 -151.5 49t-57.5 129zM471 1911l272 8l281 -252l-160 -182l-264 174l-278 -176l-142 178z
" />
    <glyph glyph-name="uni1EC7" unicode="&#x1ec7;" horiz-adv-x="1095" 
d="M39 487q0 118 39 222t109.5 181t177 122t233.5 45q117 0 205 -35.5t141.5 -100.5t80 -151.5t26.5 -194.5q0 -91 -15 -167h-528q34 -134 176 -134q117 0 260 33l78 -241q-218 -89 -436 -89q-253 0 -400 137.5t-147 372.5zM590 770q-47 0 -67 -39t-25 -121h170q2 16 2 49
q0 50 -20 80.5t-60 30.5zM350 -332q0 90 63.5 144.5t170.5 54.5q93 0 148.5 -49.5t55.5 -126.5q0 -90 -62 -145.5t-167 -55.5q-94 0 -151.5 49t-57.5 129zM432 1620l264 8l291 -348l-166 -150l-260 216l-254 -216l-162 150z" />
    <glyph glyph-name="uni1EC8" unicode="&#x1ec8;" horiz-adv-x="653" 
d="M92 1372h469v-1372h-469v1372zM162 1749l-39 184q90 33 186 33q126 0 195 -55.5t69 -169.5q0 -116 -102 -178.5t-270 -75.5l-25 180q67 10 95 22.5t28 39.5q0 36 -57 36q-37 0 -80 -16z" />
    <glyph glyph-name="uni1EC9" unicode="&#x1ec9;" horiz-adv-x="624" 
d="M78 1026l469 8v-1034h-469v1026zM150 1436l-37 192q95 31 184 31q128 0 200 -63t72 -179q0 -125 -105.5 -197t-273.5 -85l-26 184q65 11 95 29t30 53q0 51 -58 51q-35 0 -81 -16z" />
    <glyph glyph-name="uni1ECE" unicode="&#x1ece;" horiz-adv-x="1441" 
d="M43 674q0 327 190 527t506 200q133 0 243 -36.5t186.5 -100.5t129 -153.5t77 -193.5t24.5 -221q0 -326 -190.5 -525.5t-506.5 -199.5q-133 0 -243 36.5t-186 100.5t-128.5 153t-77 192.5t-24.5 220.5zM909 698q0 103 -16.5 181t-59.5 130t-108 52q-72 0 -119 -70
q-71 -103 -71 -307q0 -97 16.5 -177t60.5 -138t111 -58q72 0 117 62q69 96 69 325zM557 1749l-39 184q90 33 187 33q126 0 195 -55.5t69 -169.5q0 -116 -102.5 -178.5t-270.5 -75.5l-25 180q67 10 95 22.5t28 39.5q0 36 -57 36q-37 0 -80 -16z" />
    <glyph glyph-name="uni1ECF" unicode="&#x1ecf;" horiz-adv-x="1193" 
d="M39 485q0 123 41 228t115 181t184.5 119.5t243.5 43.5q105 0 193 -29t150 -79t105 -118t63.5 -146t20.5 -163q0 -249 -156 -400t-426 -151q-130 0 -233.5 41t-168 112.5t-98.5 163.5t-34 197zM688 487q0 114 -24.5 195.5t-69.5 81.5q-39 0 -55 -37q-13 -29 -22 -88.5
t-9 -118.5q0 -112 24.5 -183t71.5 -71q35 0 55 35q29 66 29 186zM432 1436l-37 192q95 31 185 31q128 0 200 -63t72 -179q0 -125 -105.5 -197t-273.5 -85l-27 184q65 11 95 29t30 53q0 51 -57 51q-36 0 -82 -16z" />
    <glyph glyph-name="uni1ED0" unicode="&#x1ed0;" horiz-adv-x="1441" 
d="M43 674q0 327 190 527t506 200q133 0 243 -36.5t186.5 -100.5t129 -153.5t77 -193.5t24.5 -221q0 -326 -190.5 -525.5t-506.5 -199.5q-133 0 -243 36.5t-186 100.5t-128.5 153t-77 192.5t-24.5 220.5zM909 698q0 103 -16.5 181t-59.5 130t-108 52q-72 0 -119 -70
q-71 -103 -71 -307q0 -97 16.5 -177t60.5 -138t111 -58q72 0 117 62q69 96 69 325zM592 1868l268 6l275 -227l-156 -181l-260 160l-275 -162l-137 176zM426 2114l520 227l92 -244l-4 -35l-536 -141z" />
    <glyph glyph-name="uni1ED1" unicode="&#x1ed1;" horiz-adv-x="1193" 
d="M39 485q0 123 41 228t115 181t184.5 119.5t243.5 43.5q105 0 193 -29t150 -79t105 -118t63.5 -146t20.5 -163q0 -249 -156 -400t-426 -151q-130 0 -233.5 41t-168 112.5t-98.5 163.5t-34 197zM688 487q0 114 -24.5 195.5t-69.5 81.5q-39 0 -55 -37q-13 -29 -22 -88.5
t-9 -118.5q0 -112 24.5 -183t71.5 -71q35 0 55 35q29 66 29 186zM463 1567l260 6l285 -324l-162 -145l-256 211l-250 -211l-158 145zM791 1628l256 395l219 -147v-35l-310 -332z" />
    <glyph glyph-name="uni1ED2" unicode="&#x1ed2;" horiz-adv-x="1441" 
d="M43 674q0 327 190 527t506 200q133 0 243 -36.5t186.5 -100.5t129 -153.5t77 -193.5t24.5 -221q0 -326 -190.5 -525.5t-506.5 -199.5q-133 0 -243 36.5t-186 100.5t-128.5 153t-77 192.5t-24.5 220.5zM909 698q0 103 -16.5 181t-59.5 130t-108 52q-72 0 -119 -70
q-71 -103 -71 -307q0 -97 16.5 -177t60.5 -138t111 -58q72 0 117 62q69 96 69 325zM592 1868l268 6l275 -227l-156 -181l-260 160l-275 -162l-137 176zM426 2097l94 244l518 -227l-71 -193l-537 141z" />
    <glyph glyph-name="uni1ED3" unicode="&#x1ed3;" horiz-adv-x="1193" 
d="M39 485q0 123 41 228t115 181t184.5 119.5t243.5 43.5q105 0 193 -29t150 -79t105 -118t63.5 -146t20.5 -163q0 -249 -156 -400t-426 -151q-130 0 -233.5 41t-168 112.5t-98.5 163.5t-34 197zM688 487q0 114 -24.5 195.5t-69.5 81.5q-39 0 -55 -37q-13 -29 -22 -88.5
t-9 -118.5q0 -112 24.5 -183t71.5 -71q35 0 55 35q29 66 29 186zM463 1567l260 6l285 -324l-162 -145l-256 211l-250 -211l-158 145zM639 1876l219 147l256 -395l-166 -119l-309 332v35z" />
    <glyph glyph-name="uni1ED4" unicode="&#x1ed4;" horiz-adv-x="1441" 
d="M43 674q0 327 190 527t506 200q133 0 243 -36.5t186.5 -100.5t129 -153.5t77 -193.5t24.5 -221q0 -326 -190.5 -525.5t-506.5 -199.5q-133 0 -243 36.5t-186 100.5t-128.5 153t-77 192.5t-24.5 220.5zM909 698q0 103 -16.5 181t-59.5 130t-108 52q-72 0 -119 -70
q-71 -103 -71 -307q0 -97 16.5 -177t60.5 -138t111 -58q72 0 117 62q69 96 69 325zM592 1868l268 6l275 -227l-156 -181l-260 160l-275 -162l-137 176zM897 2128l-39 184q84 31 186 31q250 0 250 -223q0 -79 -47.5 -135t-125.5 -84t-185 -35l-25 180q68 10 95.5 22t27.5 39
q0 20 -14 27.5t-43 7.5q-42 0 -80 -14z" />
    <glyph glyph-name="uni1ED5" unicode="&#x1ed5;" horiz-adv-x="1193" 
d="M39 485q0 123 41 228t115 181t184.5 119.5t243.5 43.5q105 0 193 -29t150 -79t105 -118t63.5 -146t20.5 -163q0 -249 -156 -400t-426 -151q-130 0 -233.5 41t-168 112.5t-98.5 163.5t-34 197zM688 487q0 114 -24.5 195.5t-69.5 81.5q-39 0 -55 -37q-13 -29 -22 -88.5
t-9 -118.5q0 -112 24.5 -183t71.5 -71q35 0 55 35q29 66 29 186zM463 1567l260 6l285 -324l-162 -145l-256 211l-250 -211l-158 145zM793 1835l-39 188q95 31 182 31q112 0 178 -62t66 -173q0 -121 -99 -192.5t-250 -82.5l-26 178q63 11 93 29t30 51q0 25 -16 38t-42 13
q-32 0 -77 -18z" />
    <glyph glyph-name="uni1ED6" unicode="&#x1ed6;" horiz-adv-x="1441" 
d="M43 674q0 327 190 527t506 200q133 0 243 -36.5t186.5 -100.5t129 -153.5t77 -193.5t24.5 -221q0 -326 -190.5 -525.5t-506.5 -199.5q-133 0 -243 36.5t-186 100.5t-128.5 153t-77 192.5t-24.5 220.5zM909 698q0 103 -16.5 181t-59.5 130t-108 52q-72 0 -119 -70
q-71 -103 -71 -307q0 -97 16.5 -177t60.5 -138t111 -58q72 0 117 62q69 96 69 325zM866 2179q47 0 113 123l180 -90q-36 -124 -114.5 -198.5t-178.5 -74.5q-49 0 -92 18.5t-68 40t-52.5 40t-49.5 18.5q-20 0 -41 -17.5t-36 -39t-44 -68.5l-180 90q42 124 120 199.5t183 75.5
q48 0 91 -18.5t68.5 -40t53 -40t47.5 -18.5zM592 1868l268 6l275 -227l-156 -181l-260 160l-275 -162l-137 176z" />
    <glyph glyph-name="uni1ED7" unicode="&#x1ed7;" horiz-adv-x="1193" 
d="M39 485q0 123 41 228t115 181t184.5 119.5t243.5 43.5q105 0 193 -29t150 -79t105 -118t63.5 -146t20.5 -163q0 -249 -156 -400t-426 -151q-130 0 -233.5 41t-168 112.5t-98.5 163.5t-34 197zM688 487q0 114 -24.5 195.5t-69.5 81.5q-39 0 -55 -37q-13 -29 -22 -88.5
t-9 -118.5q0 -112 24.5 -183t71.5 -71q35 0 55 35q29 66 29 186zM463 1565l260 8l285 -324l-162 -147l-256 211l-250 -211l-158 147zM743 1888q49 0 103 133l188 -75q-31 -135 -99.5 -214t-176.5 -79q-47 0 -93 20t-75 43.5t-58.5 43.5t-48.5 20q-29 0 -53 -31t-51 -94
l-189 78q41 134 106.5 209t172.5 75q47 0 92.5 -20t74 -44.5t58 -44.5t49.5 -20z" />
    <glyph glyph-name="uni1ED8" unicode="&#x1ed8;" horiz-adv-x="1441" 
d="M43 674q0 327 190 527t506 200q133 0 243 -36.5t186.5 -100.5t129 -153.5t77 -193.5t24.5 -221q0 -326 -190.5 -525.5t-506.5 -199.5q-133 0 -243 36.5t-186 100.5t-128.5 153t-77 192.5t-24.5 220.5zM909 698q0 103 -16.5 181t-59.5 130t-108 52q-72 0 -119 -70
q-71 -103 -71 -307q0 -97 16.5 -177t60.5 -138t111 -58q72 0 117 62q69 96 69 325zM500 -332q0 90 63 144.5t170 54.5q93 0 149 -49.5t56 -126.5q0 -90 -62 -145.5t-167 -55.5q-94 0 -151.5 49t-57.5 129zM590 1911l272 8l281 -252l-160 -182l-264 174l-279 -176l-141 178z
" />
    <glyph glyph-name="uni1ED9" unicode="&#x1ed9;" horiz-adv-x="1193" 
d="M39 485q0 123 41 228t115 181t184.5 119.5t243.5 43.5q105 0 193 -29t150 -79t105 -118t63.5 -146t20.5 -163q0 -249 -156 -400t-426 -151q-130 0 -233.5 41t-168 112.5t-98.5 163.5t-34 197zM688 487q0 114 -24.5 195.5t-69.5 81.5q-39 0 -55 -37q-13 -29 -22 -88.5
t-9 -118.5q0 -112 24.5 -183t71.5 -71q35 0 55 35q29 66 29 186zM367 -332q0 90 63 144.5t170 54.5q93 0 149 -49.5t56 -126.5q0 -90 -62.5 -145.5t-167.5 -55.5q-94 0 -151 49t-57 129zM461 1620l264 8l291 -348l-166 -150l-260 216l-254 -216l-162 150z" />
    <glyph glyph-name="uni1EDA" unicode="&#x1eda;" horiz-adv-x="1478" 
d="M43 674q0 327 190 527t506 200q132 0 242 -35q61 -14 102 -14q101 0 101 96q0 75 -49 160l325 10q66 -112 66 -234q0 -232 -217 -292q90 -170 90 -396q0 -326 -190.5 -525.5t-506.5 -199.5q-133 0 -243 36.5t-186 100.5t-128.5 153t-77 192.5t-24.5 220.5zM909 698
q0 103 -16.5 181t-59.5 130t-108 52q-72 0 -119 -70q-71 -103 -71 -307q0 -97 16.5 -177t60.5 -138t111 -58q72 0 117 62q69 96 69 325zM467 1708l532 250l111 -268l-4 -37l-551 -162z" />
    <glyph glyph-name="uni1EDB" unicode="&#x1edb;" horiz-adv-x="1263" 
d="M39 485q0 123 41 228t115 181t184.5 119.5t243.5 43.5q102 0 194 -29q61 -18 86 -18q43 0 62.5 21t19.5 67q0 73 -47 155l301 11q64 -103 64 -232q0 -206 -197 -266q49 -113 49 -244q0 -249 -156 -400t-426 -151q-130 0 -233.5 41t-168 112.5t-98.5 163.5t-34 197z
M688 487q0 114 -24.5 195.5t-69.5 81.5q-39 0 -55 -37q-13 -29 -22 -88.5t-9 -118.5q0 -112 24.5 -183t71.5 -71q35 0 55 35q29 66 29 186zM362 1315l424 368l183 -231v-37l-453 -282z" />
    <glyph glyph-name="uni1EDC" unicode="&#x1edc;" horiz-adv-x="1478" 
d="M43 674q0 327 190 527t506 200q132 0 242 -35q61 -14 102 -14q101 0 101 96q0 75 -49 160l325 10q66 -112 66 -234q0 -232 -217 -292q90 -170 90 -396q0 -326 -190.5 -525.5t-506.5 -199.5q-133 0 -243 36.5t-186 100.5t-128.5 153t-77 192.5t-24.5 220.5zM909 698
q0 103 -16.5 181t-59.5 130t-108 52q-72 0 -119 -70q-71 -103 -71 -307q0 -97 16.5 -177t60.5 -138t111 -58q72 0 117 62q69 96 69 325zM336 1690l117 268l518 -250l-90 -217l-543 162z" />
    <glyph glyph-name="uni1EDD" unicode="&#x1edd;" horiz-adv-x="1263" 
d="M39 485q0 123 41 228t115 181t184.5 119.5t243.5 43.5q102 0 194 -29q61 -18 86 -18q43 0 62.5 21t19.5 67q0 73 -47 155l301 11q64 -103 64 -232q0 -206 -197 -266q49 -113 49 -244q0 -249 -156 -400t-426 -151q-130 0 -233.5 41t-168 112.5t-98.5 163.5t-34 197z
M688 487q0 114 -24.5 195.5t-69.5 81.5q-39 0 -55 -37q-13 -29 -22 -88.5t-9 -118.5q0 -112 24.5 -183t71.5 -71q35 0 55 35q29 66 29 186zM242 1452l182 231l422 -368l-152 -182l-452 282v37z" />
    <glyph glyph-name="uni1EDE" unicode="&#x1ede;" horiz-adv-x="1478" 
d="M43 674q0 327 190 527t506 200q132 0 242 -35q61 -14 102 -14q101 0 101 96q0 75 -49 160l325 10q66 -112 66 -234q0 -232 -217 -292q90 -170 90 -396q0 -326 -190.5 -525.5t-506.5 -199.5q-133 0 -243 36.5t-186 100.5t-128.5 153t-77 192.5t-24.5 220.5zM909 698
q0 103 -16.5 181t-59.5 130t-108 52q-72 0 -119 -70q-71 -103 -71 -307q0 -97 16.5 -177t60.5 -138t111 -58q72 0 117 62q69 96 69 325zM557 1749l-39 184q90 33 187 33q126 0 195 -55.5t69 -169.5q0 -116 -102.5 -178.5t-270.5 -75.5l-25 180q67 10 95 22.5t28 39.5
q0 36 -57 36q-37 0 -80 -16z" />
    <glyph glyph-name="uni1EDF" unicode="&#x1edf;" horiz-adv-x="1263" 
d="M39 485q0 123 41 228t115 181t184.5 119.5t243.5 43.5q102 0 194 -29q61 -18 86 -18q43 0 62.5 21t19.5 67q0 73 -47 155l301 11q64 -103 64 -232q0 -206 -197 -266q49 -113 49 -244q0 -249 -156 -400t-426 -151q-130 0 -233.5 41t-168 112.5t-98.5 163.5t-34 197z
M688 487q0 114 -24.5 195.5t-69.5 81.5q-39 0 -55 -37q-13 -29 -22 -88.5t-9 -118.5q0 -112 24.5 -183t71.5 -71q35 0 55 35q29 66 29 186zM432 1436l-37 192q95 31 185 31q128 0 200 -63t72 -179q0 -125 -105.5 -197t-273.5 -85l-27 184q65 11 95 29t30 53q0 51 -57 51
q-36 0 -82 -16z" />
    <glyph glyph-name="uni1EE0" unicode="&#x1ee0;" horiz-adv-x="1478" 
d="M43 674q0 327 190 527t506 200q132 0 242 -35q61 -14 102 -14q101 0 101 96q0 75 -49 160l325 10q66 -112 66 -234q0 -232 -217 -292q90 -170 90 -396q0 -326 -190.5 -525.5t-506.5 -199.5q-133 0 -243 36.5t-186 100.5t-128.5 153t-77 192.5t-24.5 220.5zM909 698
q0 103 -16.5 181t-59.5 130t-108 52q-72 0 -119 -70q-71 -103 -71 -307q0 -97 16.5 -177t60.5 -138t111 -58q72 0 117 62q69 96 69 325zM852 1800q17 0 35.5 13t37.5 39t27 38.5t23 38.5l194 -92q-40 -153 -124.5 -240.5t-194.5 -87.5q-54 0 -100.5 19.5t-72.5 43t-55 43
t-51 19.5q-31 0 -58.5 -31t-70.5 -102l-194 94q44 151 130.5 239.5t201.5 88.5q53 0 99 -19t72 -42.5t53.5 -42.5t47.5 -19z" />
    <glyph glyph-name="uni1EE1" unicode="&#x1ee1;" horiz-adv-x="1263" 
d="M39 485q0 123 41 228t115 181t184.5 119.5t243.5 43.5q102 0 194 -29q61 -18 86 -18q43 0 62.5 21t19.5 67q0 73 -47 155l301 11q64 -103 64 -232q0 -206 -197 -266q49 -113 49 -244q0 -249 -156 -400t-426 -151q-130 0 -233.5 41t-168 112.5t-98.5 163.5t-34 197z
M688 487q0 114 -24.5 195.5t-69.5 81.5q-39 0 -55 -37q-13 -29 -22 -88.5t-9 -118.5q0 -112 24.5 -183t71.5 -71q35 0 55 35q29 66 29 186zM680 1442q49 0 91 131q2 5 3 8l209 -68q-28 -162 -103.5 -261t-193.5 -99q-48 0 -92.5 21t-71 45.5t-56.5 45.5t-54 21
q-9 0 -17.5 -4t-16.5 -13.5t-13 -17t-12 -23.5t-10 -23t-10 -26.5t-9 -23.5l-209 66q31 163 107 258.5t196 95.5q48 0 90.5 -21t67.5 -45.5t53 -45.5t51 -21z" />
    <glyph glyph-name="uni1EE2" unicode="&#x1ee2;" horiz-adv-x="1478" 
d="M43 674q0 327 190 527t506 200q132 0 242 -35q61 -14 102 -14q101 0 101 96q0 75 -49 160l325 10q66 -112 66 -234q0 -232 -217 -292q90 -170 90 -396q0 -326 -190.5 -525.5t-506.5 -199.5q-133 0 -243 36.5t-186 100.5t-128.5 153t-77 192.5t-24.5 220.5zM909 698
q0 103 -16.5 181t-59.5 130t-108 52q-72 0 -119 -70q-71 -103 -71 -307q0 -97 16.5 -177t60.5 -138t111 -58q72 0 117 62q69 96 69 325zM500 -332q0 90 63 144.5t170 54.5q93 0 149 -49.5t56 -126.5q0 -90 -62 -145.5t-167 -55.5q-94 0 -151.5 49t-57.5 129z" />
    <glyph glyph-name="uni1EE3" unicode="&#x1ee3;" horiz-adv-x="1263" 
d="M39 485q0 123 41 228t115 181t184.5 119.5t243.5 43.5q102 0 194 -29q61 -18 86 -18q43 0 62.5 21t19.5 67q0 73 -47 155l301 11q64 -103 64 -232q0 -206 -197 -266q49 -113 49 -244q0 -249 -156 -400t-426 -151q-130 0 -233.5 41t-168 112.5t-98.5 163.5t-34 197z
M688 487q0 114 -24.5 195.5t-69.5 81.5q-39 0 -55 -37q-13 -29 -22 -88.5t-9 -118.5q0 -112 24.5 -183t71.5 -71q35 0 55 35q29 66 29 186zM367 -332q0 90 63 144.5t170 54.5q93 0 149 -49.5t56 -126.5q0 -90 -62.5 -145.5t-167.5 -55.5q-94 0 -151 49t-57 129z" />
    <glyph glyph-name="uni1EE6" unicode="&#x1ee6;" horiz-adv-x="1376" 
d="M829 1372h469v-774q0 -297 -158 -462t-474 -165q-286 0 -436 150.5t-150 417.5v833h467v-811q0 -127 32 -188.5t111 -61.5q68 0 98 47q41 49 41 172v842zM526 1749l-39 184q90 33 187 33q126 0 195 -55.5t69 -169.5q0 -116 -102.5 -178.5t-270.5 -75.5l-24 180
q67 10 95 22.5t28 39.5q0 36 -58 36q-37 0 -80 -16z" />
    <glyph glyph-name="uni1EE7" unicode="&#x1ee7;" horiz-adv-x="1218" 
d="M74 1026l467 8v-649q0 -55 14.5 -78.5t44.5 -23.5t68 18v729h469v-520q0 -136 18 -475l-336 -49l-82 137q-131 -152 -323 -152q-163 0 -252.5 90t-89.5 267zM436 1436l-37 192q95 31 185 31q128 0 200 -63t72 -179q0 -125 -105.5 -197t-273.5 -85l-26 184q65 11 94.5 29
t29.5 53q0 51 -57 51q-36 0 -82 -16z" />
    <glyph glyph-name="uni1EE8" unicode="&#x1ee8;" horiz-adv-x="1456" 
d="M829 1372h218q61 0 89.5 23t28.5 73q0 78 -47 160l324 10q65 -110 65 -231q0 -230 -209 -293v-516q0 -297 -158 -462t-474 -165q-286 0 -436 150.5t-150 417.5v833h467v-811q0 -127 32 -188.5t111 -61.5q68 0 98 47q41 49 41 172v842zM436 1708l533 250l110 -268l-4 -37
l-551 -162z" />
    <glyph glyph-name="uni1EE9" unicode="&#x1ee9;" horiz-adv-x="1308" 
d="M989 1274l301 10q66 -107 66 -231q0 -219 -219 -273v-270q0 -136 18 -475l-336 -49l-82 137q-131 -152 -323 -152q-163 0 -252.5 90t-89.5 267l2 698l467 8v-649q0 -55 14.5 -78.5t44.5 -23.5t68 18v729h250q62 0 91 21t29 67q0 71 -49 156zM367 1315l424 368l182 -231
v-37l-453 -282z" />
    <glyph glyph-name="uni1EEA" unicode="&#x1eea;" horiz-adv-x="1456" 
d="M829 1372h218q61 0 89.5 23t28.5 73q0 78 -47 160l324 10q65 -110 65 -231q0 -230 -209 -293v-516q0 -297 -158 -462t-474 -165q-286 0 -436 150.5t-150 417.5v833h467v-811q0 -127 32 -188.5t111 -61.5q68 0 98 47q41 49 41 172v842zM305 1690l117 268l518 -250
l-90 -217l-543 162z" />
    <glyph glyph-name="uni1EEB" unicode="&#x1eeb;" horiz-adv-x="1308" 
d="M989 1274l301 10q66 -107 66 -231q0 -219 -219 -273v-270q0 -136 18 -475l-336 -49l-82 137q-131 -152 -323 -152q-163 0 -252.5 90t-89.5 267l2 698l467 8v-649q0 -55 14.5 -78.5t44.5 -23.5t68 18v729h250q62 0 91 21t29 67q0 71 -49 156zM246 1452l182 231l422 -368
l-152 -182l-452 282v37z" />
    <glyph glyph-name="uni1EEC" unicode="&#x1eec;" horiz-adv-x="1456" 
d="M829 1372h218q61 0 89.5 23t28.5 73q0 78 -47 160l324 10q65 -110 65 -231q0 -230 -209 -293v-516q0 -297 -158 -462t-474 -165q-286 0 -436 150.5t-150 417.5v833h467v-811q0 -127 32 -188.5t111 -61.5q68 0 98 47q41 49 41 172v842zM526 1749l-39 184q90 33 187 33
q126 0 195 -55.5t69 -169.5q0 -116 -102.5 -178.5t-270.5 -75.5l-24 180q67 10 95 22.5t28 39.5q0 36 -58 36q-37 0 -80 -16z" />
    <glyph glyph-name="uni1EED" unicode="&#x1eed;" horiz-adv-x="1308" 
d="M989 1274l301 10q66 -107 66 -231q0 -219 -219 -273v-270q0 -136 18 -475l-336 -49l-82 137q-131 -152 -323 -152q-163 0 -252.5 90t-89.5 267l2 698l467 8v-649q0 -55 14.5 -78.5t44.5 -23.5t68 18v729h250q62 0 91 21t29 67q0 71 -49 156zM436 1436l-37 192
q95 31 185 31q128 0 200 -63t72 -179q0 -125 -105.5 -197t-273.5 -85l-26 184q65 11 94.5 29t29.5 53q0 51 -57 51q-36 0 -82 -16z" />
    <glyph glyph-name="uni1EEE" unicode="&#x1eee;" horiz-adv-x="1456" 
d="M829 1372h218q61 0 89.5 23t28.5 73q0 78 -47 160l324 10q65 -110 65 -231q0 -230 -209 -293v-516q0 -297 -158 -462t-474 -165q-286 0 -436 150.5t-150 417.5v833h467v-811q0 -127 32 -188.5t111 -61.5q68 0 98 47q41 49 41 172v842zM817 1800q17 0 35.5 13t37.5 39
t27 38.5t23 38.5l195 -92q-40 -153 -125 -240.5t-195 -87.5q-54 0 -100 19.5t-72 43t-55 43t-51 19.5q-31 0 -58.5 -31t-70.5 -102l-195 94q44 151 130.5 239.5t201.5 88.5q53 0 99 -19t72 -42.5t53.5 -42.5t47.5 -19z" />
    <glyph glyph-name="uni1EEF" unicode="&#x1eef;" horiz-adv-x="1308" 
d="M989 1274l301 10q66 -107 66 -231q0 -219 -219 -273v-270q0 -136 18 -475l-336 -49l-82 137q-131 -152 -323 -152q-163 0 -252.5 90t-89.5 267l2 698l467 8v-649q0 -55 14.5 -78.5t44.5 -23.5t68 18v729h250q62 0 91 21t29 67q0 71 -49 156zM707 1442q44 0 108 128
q2 2 2.5 3.5t1.5 3.5l2 4l205 -80q-28 -156 -115 -252t-209 -96q-55 0 -103 21t-74.5 45.5t-54 45.5t-46.5 21q-21 0 -43 -21.5t-35.5 -44t-36.5 -65.5l-205 80q39 164 122.5 252t207.5 88q54 0 101.5 -21t73.5 -45.5t52.5 -45.5t45.5 -21z" />
    <glyph glyph-name="uni1EF0" unicode="&#x1ef0;" horiz-adv-x="1456" 
d="M829 1372h218q61 0 89.5 23t28.5 73q0 78 -47 160l324 10q65 -110 65 -231q0 -230 -209 -293v-516q0 -297 -158 -462t-474 -165q-286 0 -436 150.5t-150 417.5v833h467v-811q0 -127 32 -188.5t111 -61.5q68 0 98 47q41 49 41 172v842zM467 -332q0 90 63 144.5t170 54.5
q93 0 149 -49.5t56 -126.5q0 -90 -62 -145.5t-167 -55.5q-94 0 -151.5 49t-57.5 129z" />
    <glyph glyph-name="uni1EF1" unicode="&#x1ef1;" horiz-adv-x="1308" 
d="M989 1274l301 10q66 -107 66 -231q0 -219 -219 -273v-270q0 -136 18 -475l-336 -49l-82 137q-131 -152 -323 -152q-163 0 -252.5 90t-89.5 267l2 698l467 8v-649q0 -55 14.5 -78.5t44.5 -23.5t68 18v729h250q62 0 91 21t29 67q0 71 -49 156zM399 -332q0 90 63.5 144.5
t170.5 54.5q93 0 149 -49.5t56 -126.5q0 -90 -62.5 -145.5t-167.5 -55.5q-94 0 -151.5 49t-57.5 129z" />
    <glyph glyph-name="Ygrave" unicode="&#x1ef2;" horiz-adv-x="1318" 
d="M862 1372h465q-3 -90 -72 -223l-362 -698v-451h-467v449l-365 700q-67 131 -67 223h487l131 -346l60 -192h10zM276 1690l117 268l518 -250l-90 -217l-542 162z" />
    <glyph glyph-name="ygrave" unicode="&#x1ef3;" horiz-adv-x="1185" 
d="M739 1030h441q0 -79 -29 -168l-229 -694q-119 -347 -292 -513.5t-431 -166.5q-95 0 -185 12v314q150 0 277.5 54t197.5 161h-178l-262 833q-29 92 -29 168h478l59 -391q24 -137 33 -277h12zM244 1452l182 231l422 -368l-152 -182l-452 282v37z" />
    <glyph glyph-name="uni1EF6" unicode="&#x1ef6;" horiz-adv-x="1318" 
d="M862 1372h465q-3 -90 -72 -223l-362 -698v-451h-467v449l-365 700q-67 131 -67 223h487l131 -346l60 -192h10zM498 1749l-39 184q90 33 186 33q126 0 195 -55.5t69 -169.5q0 -116 -102 -178.5t-270 -75.5l-25 180q67 10 95 22.5t28 39.5q0 36 -57 36q-37 0 -80 -16z" />
    <glyph glyph-name="uni1EF7" unicode="&#x1ef7;" horiz-adv-x="1185" 
d="M739 1030h441q0 -79 -29 -168l-229 -694q-119 -347 -292 -513.5t-431 -166.5q-95 0 -185 12v314q150 0 277.5 54t197.5 161h-178l-262 833q-29 92 -29 168h478l59 -391q24 -137 33 -277h12zM434 1436l-37 192q95 31 185 31q128 0 200 -63t72 -179q0 -125 -105.5 -197
t-273.5 -85l-26 184q65 11 94.5 29t29.5 53q0 51 -57 51q-36 0 -82 -16z" />
    <glyph glyph-name="uni1EF8" unicode="&#x1ef8;" horiz-adv-x="1318" 
d="M862 1372h465q-3 -90 -72 -223l-362 -698v-451h-467v449l-365 700q-67 131 -67 223h487l131 -346l60 -192h10zM805 1800q17 0 35.5 13t37.5 39t27 38.5t23 38.5l194 -92q-40 -153 -124.5 -240.5t-194.5 -87.5q-54 0 -100.5 19.5t-72.5 43t-55 43t-51 19.5
q-31 0 -58.5 -31t-70.5 -102l-194 94q44 151 130.5 239.5t200.5 88.5q43 0 81.5 -12.5t64.5 -30.5t48 -36.5t42 -31t37 -12.5z" />
    <glyph glyph-name="uni1EF9" unicode="&#x1ef9;" horiz-adv-x="1185" 
d="M739 1030h441q0 -79 -29 -168l-229 -694q-119 -347 -292 -513.5t-431 -166.5q-95 0 -185 12v314q150 0 277.5 54t197.5 161h-178l-262 833q-29 92 -29 168h478l59 -391q24 -137 33 -277h12zM743 1442q29 0 56 37t55 93q1 3 2 5l2 4l205 -80q-28 -156 -115 -252t-209 -96
q-55 0 -103 21t-74.5 45.5t-54 45.5t-46.5 21q-21 0 -43 -21.5t-35.5 -44t-36.5 -65.5l-205 80q39 164 122.5 252t207.5 88q54 0 101 -21t73 -45.5t52.5 -45.5t45.5 -21z" />
    <glyph glyph-name="enspace" unicode="&#x2002;" horiz-adv-x="985" 
 />
    <glyph glyph-name="uni2003" unicode="&#x2003;" horiz-adv-x="1820" 
 />
    <glyph glyph-name="uni2009" unicode="&#x2009;" horiz-adv-x="163" 
 />
    <glyph glyph-name="uni2010" unicode="&#x2010;" horiz-adv-x="688" 
d="M82 670h524v-301h-524v301z" />
    <glyph glyph-name="uni2011" unicode="&#x2011;" horiz-adv-x="688" 
d="M82 670h524v-301h-524v301z" />
    <glyph glyph-name="endash" unicode="&#x2013;" horiz-adv-x="1024" 
d="M82 670h860v-301h-860v301z" />
    <glyph glyph-name="emdash" unicode="&#x2014;" horiz-adv-x="1804" 
d="M82 670h1638v-301h-1638v301z" />
    <glyph glyph-name="quoteleft" unicode="&#x2018;" horiz-adv-x="579" 
d="M45 1202q0 170 91.5 301t262.5 211l166 -108q-116 -158 -116 -389q0 -105 2 -152l-392 -14q-14 75 -14 151z" />
    <glyph glyph-name="quoteright" unicode="&#x2019;" horiz-adv-x="569" 
d="M129 1649l391 14q15 -81 15 -152q0 -170 -92 -301t-263 -211l-166 109q117 159 117 389q0 105 -2 152z" />
    <glyph glyph-name="quotesinglbase" unicode="&#x201a;" horiz-adv-x="561" 
d="M84 307l391 15q14 -75 14 -152q0 -170 -91.5 -301t-262.5 -211l-166 109q117 159 117 389q0 104 -2 151z" />
    <glyph glyph-name="quotedblleft" unicode="&#x201c;" horiz-adv-x="1093" 
d="M559 1202q0 170 91.5 301t262.5 211l166 -108q-118 -161 -118 -389q0 -58 4 -152l-392 -14q-14 75 -14 151zM45 1202q0 170 91.5 301t262.5 211l166 -108q-116 -158 -116 -389q0 -105 2 -152l-392 -14q-14 75 -14 151z" />
    <glyph glyph-name="quotedblright" unicode="&#x201d;" horiz-adv-x="1083" 
d="M643 1649l391 14q15 -81 15 -152q0 -170 -92 -301t-263 -211l-166 109q117 159 117 389q0 105 -2 152zM129 1649l391 14q15 -81 15 -152q0 -170 -92 -301t-263 -211l-166 109q117 159 117 389q0 105 -2 152z" />
    <glyph glyph-name="quotedblbase" unicode="&#x201e;" horiz-adv-x="1075" 
d="M598 307l391 15q15 -81 15 -152q0 -170 -92 -301t-263 -211l-166 109q117 159 117 389q0 104 -2 151zM84 307l391 15q14 -75 14 -152q0 -170 -91.5 -301t-262.5 -211l-166 109q117 159 117 389q0 104 -2 151z" />
    <glyph glyph-name="dagger" unicode="&#x2020;" horiz-adv-x="993" 
d="M268 1284h455l-4 -254h217v-295h-223l-21 -1151h-389l-24 1151h-222v295h217z" />
    <glyph glyph-name="daggerdbl" unicode="&#x2021;" horiz-adv-x="993" 
d="M268 1284h455l-4 -254h217v-295h-223l-4 -229h227v-293h-231l-13 -629h-389l-12 629h-234v293h228l-6 229h-222v295h217z" />
    <glyph glyph-name="bullet" unicode="&#x2022;" horiz-adv-x="782" 
d="M618 512q0 -112 -61 -171.5t-166 -59.5q-104 0 -165.5 60t-61.5 171t61.5 171t165.5 60q105 0 166 -59.5t61 -171.5z" />
    <glyph glyph-name="ellipsis" unicode="&#x2026;" horiz-adv-x="1923" 
d="M1432 193q0 94 60.5 151t158.5 57q100 0 160.5 -56.5t60.5 -151.5q0 -100 -60.5 -161t-160.5 -61q-98 0 -158.5 61t-60.5 161zM49 193q0 94 60.5 151t158.5 57q100 0 160.5 -56.5t60.5 -151.5q0 -100 -60.5 -161t-160.5 -61q-98 0 -158.5 61t-60.5 161zM739 193
q0 94 60.5 151t158.5 57q100 0 161 -56.5t61 -151.5q0 -100 -61 -161t-161 -61q-98 0 -158.5 61t-60.5 161z" />
    <glyph glyph-name="perthousand" unicode="&#x2030;" horiz-adv-x="2744" 
d="M410 55l878 1377l185 -115l-881 -1376zM43 971q0 87 25.5 162.5t75 136.5t131 96t186.5 35q187 0 291 -110.5t104 -276.5q0 -84 -23.5 -159t-71.5 -138t-130.5 -100t-190.5 -37q-98 0 -175 31t-124.5 85.5t-72.5 124t-25 150.5zM516 995q0 91 -12 137t-51 46
q-34 0 -47 -29q-23 -38 -23 -156q1 -47 3.5 -77.5t9.5 -58.5t20.5 -41t34.5 -13q31 0 45 28q24 41 20 164zM1020 362q0 87 25 163t74.5 136.5t131 96t185.5 35.5q126 0 217.5 -53.5t135.5 -139.5t44 -194q0 -66 -14.5 -127.5t-47 -118t-79.5 -98.5t-118 -66.5t-157 -24.5
q-98 0 -175 31t-124.5 85.5t-72.5 124t-25 150.5zM1493 387q-1 44 -3.5 72.5t-9 56t-19.5 40.5t-34 13q-31 0 -47 -28q-23 -43 -20 -156q0 -94 13.5 -142t51.5 -48q31 0 48 28q20 35 20 164zM1890 362q0 87 25.5 163t74.5 136.5t131 96t187 35.5q186 0 290.5 -110.5
t104.5 -276.5q0 -66 -14.5 -127.5t-46.5 -118t-79 -98.5t-118 -66.5t-157 -24.5q-129 0 -221 54.5t-134.5 141t-42.5 195.5zM2363 387q-1 47 -3 73t-8 55t-19.5 41.5t-34.5 12.5q-31 0 -47 -28q-21 -39 -21 -156q0 -93 14 -141.5t52 -48.5q30 0 47 28q20 35 20 164z" />
    <glyph glyph-name="uni2032" unicode="&#x2032;" horiz-adv-x="522" 
d="M111 1444h391l-158 -547h-285z" />
    <glyph glyph-name="uni2033" unicode="&#x2033;" horiz-adv-x="985" 
d="M573 1444h392l-158 -547h-285zM111 1444h391l-158 -547h-285z" />
    <glyph glyph-name="guilsinglleft" unicode="&#x2039;" horiz-adv-x="747" 
d="M39 584l362 428l295 -170l-213 -326l213 -328l-295 -172l-354 430z" />
    <glyph glyph-name="guilsinglright" unicode="&#x203a;" horiz-adv-x="747" 
d="M49 842l297 170l363 -428l-9 -138l-354 -430l-297 172l215 328z" />
    <glyph glyph-name="fraction" unicode="&#x2044;" horiz-adv-x="280" 
d="M-393 55l878 1377l185 -115l-879 -1376z" />
    <glyph glyph-name="zerosuperior" unicode="&#x2070;" horiz-adv-x="952" 
d="M55 1221q0 86 27 162t79.5 136t138 95t194.5 35q194 0 299.5 -109.5t105.5 -277.5q0 -66 -15 -127t-48.5 -117.5t-82.5 -98t-122.5 -66t-163.5 -24.5q-102 0 -182 31t-129.5 85.5t-75 124.5t-25.5 151zM557 1243q0 180 -78 180q-31 0 -53 -28q-31 -42 -31 -152
q3 -188 82 -188q34 0 53 32q30 47 27 156z" />
    <glyph glyph-name="i.sups" unicode="&#x2071;" horiz-adv-x="516" 
d="M90 1485l338 6v-643h-338v637zM100 1683q0 63 47.5 102.5t126.5 39.5q70 0 112 -35t42 -90q0 -64 -47 -104t-125 -40q-71 0 -113.5 35.5t-42.5 91.5z" />
    <glyph glyph-name="foursuperior" unicode="&#x2074;" horiz-adv-x="897" 
d="M31 1182l379 452h331v-465h99l8 -213h-107v-108h-315v108h-371zM365 1280l-91 -111h152v187h-6z" />
    <glyph glyph-name="fivesuperior" unicode="&#x2075;" horiz-adv-x="798" 
d="M92 1634h608l-14 -231h-319v-70q23 2 67 2q146 0 231 -57.5t85 -171.5q0 -135 -104 -205t-286 -70q-168 0 -309 48l51 202q137 -20 193 -20q49 0 86 12q33 17 33 45q0 58 -135 58q-49 0 -132 -9l-55 19v448z" />
    <glyph glyph-name="sixsuperior" unicode="&#x2076;" horiz-adv-x="872" 
d="M53 1182q0 201 148 333t391 132q109 0 170 -21l-43 -223q-36 8 -96 8q-175 0 -228 -108q74 22 158 22q131 -2 204.5 -59.5t73.5 -167.5q0 -123 -105 -195t-282 -72q-194 0 -292.5 96t-98.5 255zM453 1049q34 0 51 14q18 15 18 43q0 57 -76 57q-27 0 -69 -10
q5 -53 21.5 -78.5t54.5 -25.5z" />
    <glyph glyph-name="sevensuperior" unicode="&#x2077;" horiz-adv-x="739" 
d="M49 1634h639l21 -227l-318 -606l-309 110l293 492h-322z" />
    <glyph glyph-name="eightsuperior" unicode="&#x2078;" horiz-adv-x="905" 
d="M90 1419q0 112 103 171t268 59q164 0 260 -52t96 -149q0 -60 -36.5 -108t-100.5 -78q87 -39 130.5 -82.5t43.5 -110.5q0 -112 -109 -175t-296 -63t-292.5 55t-103.5 150q0 68 47.5 119t126.5 80q-66 34 -101.5 82t-35.5 102zM377 1415q0 -7 3 -13t10 -12t13.5 -10.5
t19.5 -10.5t22.5 -10t27.5 -11.5t29 -12.5q28 36 28 68q0 51 -79 51q-36 0 -56 -10q-18 -11 -18 -29zM453 1028q51 0 73 10q25 14 25 35q0 9 -7 17t-22.5 15.5t-30 13.5t-41 16t-44.5 18q-50 -40 -50 -74q0 -51 97 -51z" />
    <glyph glyph-name="ninesuperior" unicode="&#x2079;" horiz-adv-x="872" 
d="M426 1315q28 0 70 10q-5 53 -21.5 79t-54.5 26q-30 0 -49 -13q-21 -15 -21 -45q0 -57 76 -57zM41 1380q0 122 104.5 194.5t284.5 72.5q195 0 292 -97.5t97 -253.5q0 -204 -151 -334.5t-387 -130.5q-113 0 -170 21l43 223q80 -8 98 -8q172 0 227 109q-94 -23 -160 -23
q-131 2 -204.5 59.5t-73.5 167.5z" />
    <glyph glyph-name="n.sups" unicode="&#x207f;" horiz-adv-x="954" 
d="M76 1466l239 37l68 -98q97 100 235 100q126 0 189 -61.5t63 -177.5v-418h-338v379q0 28 -9.5 41.5t-35.5 13.5q-29 0 -59 -12v-422h-338v328q0 72 -14 290z" />
    <glyph glyph-name="zeroinferior" unicode="&#x2080;" horiz-adv-x="952" 
d="M55 270q0 86 27 162t79.5 136t138 95t194.5 35q194 0 299.5 -109.5t105.5 -277.5q0 -83 -25 -158t-74.5 -137.5t-135.5 -99.5t-197 -37q-102 0 -182 31t-129.5 85t-75 124t-25.5 151zM557 293q0 180 -78 180q-30 0 -53 -29q-31 -42 -31 -151q3 -189 82 -189q33 0 53 33
q30 47 27 156z" />
    <glyph glyph-name="oneinferior" unicode="&#x2081;" horiz-adv-x="739" 
d="M45 571l258 113h275v-563h112l8 -223h-622v223h164v282l-125 -30z" />
    <glyph glyph-name="twoinferior" unicode="&#x2082;" horiz-adv-x="794" 
d="M53 625q155 74 355 71q156 0 238.5 -62t82.5 -169q0 -56 -21 -103.5t-71 -92t-81 -67t-101 -66.5q-5 -4 -9 -6.5t-8 -4.5l-6 -4h287l8 -223h-651l-15 223l144 98q184 129 184 187q0 53 -78 53q-19 0 -40 -2t-44 -6.5t-38.5 -8t-38.5 -9.5t-29 -7z" />
    <glyph glyph-name="threeinferior" unicode="&#x2083;" horiz-adv-x="784" 
d="M61 641q140 55 320 55q143 0 226 -49.5t83 -144.5q0 -50 -27 -95t-79 -75q74 -27 111.5 -76t37.5 -109q0 -129 -101 -197.5t-280 -68.5q-96 0 -182 14t-131 33l61 197q124 -23 170 -23q56 0 86 13q29 11 29 39q0 45 -98 45h-99l-12 176h78q100 0 100 49q0 45 -90 45
q-70 0 -149 -18z" />
    <glyph glyph-name="fourinferior" unicode="&#x2084;" horiz-adv-x="897" 
d="M31 231l379 453h331v-465h99l8 -213h-107v-108h-315v108h-371zM365 330l-91 -111h152v187h-6z" />
    <glyph glyph-name="fiveinferior" unicode="&#x2085;" horiz-adv-x="798" 
d="M92 684h608l-14 -231h-319v-70q23 2 67 2q146 0 231 -57.5t85 -171.5q0 -135 -104 -205t-286 -70q-171 0 -309 47l51 203q137 -20 193 -20q49 0 86 12q33 17 33 45q0 57 -135 57q-58 0 -132 -8l-55 19v448z" />
    <glyph glyph-name="sixinferior" unicode="&#x2086;" horiz-adv-x="872" 
d="M53 231q0 201 148 333t391 132q112 0 170 -20l-43 -223q-36 8 -96 8q-83 0 -142.5 -28t-85.5 -81q77 23 158 23q130 -2 204 -60t74 -168q0 -123 -105 -194.5t-282 -71.5q-194 0 -292.5 95.5t-98.5 254.5zM453 98q33 0 51 15t18 43q0 57 -76 57q-27 0 -69 -10
q5 -53 21.5 -79t54.5 -26z" />
    <glyph glyph-name="seveninferior" unicode="&#x2087;" horiz-adv-x="739" 
d="M49 684h639l21 -227l-318 -607l-309 111l293 492h-322z" />
    <glyph glyph-name="eightinferior" unicode="&#x2088;" horiz-adv-x="905" 
d="M90 469q0 112 103 170.5t268 58.5t260.5 -52t95.5 -148q0 -60 -36.5 -108.5t-100.5 -78.5q87 -39 130.5 -82t43.5 -110q0 -112 -109 -175t-296 -63t-292.5 55t-103.5 150q0 68 47.5 119t126.5 80q-66 34 -101.5 82t-35.5 102zM377 465q0 -7 3 -13t10 -12t13.5 -10.5
t19.5 -10.5t22.5 -10t27.5 -11.5t29 -12.5q28 36 28 68q0 51 -79 51q-36 0 -56 -10q-18 -11 -18 -29zM453 78q51 0 73 10q25 14 25 35q0 9 -7 17t-22.5 15.5t-30 13.5t-41 16t-44.5 18q-50 -40 -50 -74q0 -51 97 -51z" />
    <glyph glyph-name="nineinferior" unicode="&#x2089;" horiz-adv-x="872" 
d="M426 365q28 0 70 10q-5 53 -21.5 78.5t-54.5 25.5q-31 0 -49 -12q-21 -15 -21 -45q0 -57 76 -57zM41 430q0 122 104 194t285 72q196 0 292.5 -97t96.5 -253q0 -204 -151 -334.5t-387 -130.5q-113 0 -170 21l43 223q80 -8 98 -8q173 0 227 108q-90 -22 -160 -22
q-131 2 -204.5 59.5t-73.5 167.5z" />
    <glyph glyph-name="a.sinf" unicode="&#x2090;" horiz-adv-x="849" 
d="M70 463q176 88 354 88q350 0 350 -248v-98q0 -59 14 -283l-249 -37l-54 92q-102 -92 -225 -92q-219 0 -219 176q0 46 22.5 87t63.5 65q106 62 313 74q-2 27 -17.5 39t-60.5 12q-91 0 -227 -37zM383 70q17 0 57 12v84q-65 -3 -86 -19q-16 -11 -16 -36q0 -41 45 -41z" />
    <glyph glyph-name="e.sinf" unicode="&#x2091;" horiz-adv-x="849" 
d="M45 203q0 152 110 252t298 100q173 0 260.5 -82.5t87.5 -222.5q0 -40 -10 -92h-406q14 -37 48 -51.5t93 -14.5q104 0 209 19l43 -170q-156 -56 -321 -56q-190 0 -301 85.5t-111 232.5zM457 369q-37 0 -55.5 -22t-24.5 -66h143q2 8 2 24q0 28 -16.5 46t-48.5 18z" />
    <glyph glyph-name="o.sinf" unicode="&#x2092;" horiz-adv-x="915" 
d="M47 213q0 154 109 248t307 94q194 0 300.5 -94t106.5 -238q0 -162 -112.5 -252t-315.5 -90q-194 0 -294.5 91.5t-100.5 240.5zM528 219q0 133 -69 133q-25 0 -45 -20q-27 -34 -27 -111q0 -59 18 -98t54 -39q31 0 49 25q20 34 20 110z" />
    <glyph glyph-name="x.sinf" unicode="&#x2093;" horiz-adv-x="897" 
d="M45 539h334l72 -211h10l74 211h317q0 -47 -31 -97l-141 -219l141 -221q37 -60 37 -104h-334l-88 206h-6l-82 -206h-309q0 41 35 94l135 221l-123 211q-41 66 -41 115z" />
    <glyph glyph-name="uni20AB" unicode="&#x20ab;" horiz-adv-x="1187" 
d="M545 498q32 0 73 24v260q-46 17 -73 17q-30 0 -53 -23q-25 -32 -25 -135q0 -77 17.5 -110t60.5 -33zM51 614q0 108 48.5 205t133 156t183.5 59q113 0 202 -63v141h-311v176h311v123h422v-123h158v-176h-158v-416q0 -41 2 -77t8 -125.5t11 -194.5l-291 -49l-86 137
q-129 -149 -297 -149q-147 0 -240.5 108t-95.5 268zM72 182h1007v-182h-1007v182z" />
    <glyph glyph-name="Euro" unicode="&#x20ac;" horiz-adv-x="1327" 
d="M145 659q0 15 5 78h-93v197h133q73 209 246.5 335t419.5 126q159 0 254 -29.5t170 -77.5l-137 -276q-116 39 -230 39t-188 -58q-27 -22 -53 -59h313v-197h-369q-2 -14 -2 -47q0 -37 2 -53h369v-195h-309q79 -120 250 -120q112 0 245 36l91 -284q-180 -97 -451 -97
q-241 0 -410.5 123.5t-228.5 341.5h-115v195h88v22z" />
    <glyph glyph-name="uni20B9" unicode="&#x20b9;" horiz-adv-x="1140" 
d="M59 434l41 215h29q253 0 307 168h-375v197h379q-24 86 -101 125t-212 39h-66v196h1033v-196h-285q74 -65 104 -164h183v-197h-174q-24 -135 -124 -223.5t-255 -128.5l295 -283q131 -121 133 -182h-492z" />
    <glyph glyph-name="uni20BA" unicode="&#x20ba;" horiz-adv-x="1370" 
d="M158 1372h467v-147l270 65l49 -190l-319 -78v-102l270 65l49 -190l-319 -78v-381q117 15 188 102.5t113 278.5l420 -68q-52 -314 -233.5 -481.5t-487.5 -167.5h-467v602l-113 -27l-49 191l162 39v102l-113 -26l-49 192l162 39v260z" />
    <glyph glyph-name="uni20BD" unicode="&#x20bd;" horiz-adv-x="1357" 
d="M643 1114h-35v-401h19q211 0 211 211q0 106 -49.5 148t-145.5 42zM139 1372h473q134 0 237 -12.5t189.5 -43t142.5 -79.5t86.5 -123.5t30.5 -173.5q0 -214 -162.5 -326t-463.5 -110h-64v-107h436v-200h-436v-197h-469v197h-127v200h127v107h-127v209h127v659z" />
    <glyph glyph-name="uni2113" unicode="&#x2113;" horiz-adv-x="1173" 
d="M637 -23q-100 0 -180 24.5t-143.5 76t-98.5 141t-35 211.5h-110v201h110v215q0 263 124.5 406t359.5 143q114 0 201 -33t139 -93t78 -137t26 -171q0 -440 -481 -515q4 -78 32 -106.5t95 -28.5q79 0 178 31l67 -289q-97 -39 -173 -57.5t-189 -18.5zM686 1122
q-34 0 -47.5 -35.5t-13.5 -117.5v-289q65 39 94 109.5t29 181.5q0 74 -13 112.5t-49 38.5z" />
    <glyph glyph-name="trademark" unicode="&#x2122;" horiz-adv-x="1816" 
d="M1298 1372h371l78 -686h-262l-25 223l-6 191h-4l-66 -414l-319 -2l-43 227l-18 189h-7l-30 -414h-262l83 686h369l51 -239l17 -140h6zM49 1372h664l-13 -211h-172v-475h-295v475h-172z" />
    <glyph glyph-name="estimated" unicode="&#x212e;" horiz-adv-x="1656" 
d="M1395 162l26 -60q-114 -67 -245.5 -100t-323.5 -33q-165 0 -301 55t-225.5 150.5t-138 223t-48.5 272.5q0 104 24.5 205.5t80 197.5t135.5 169t200.5 117t266.5 44q165 0 294.5 -55t211 -151t124 -222t42.5 -273v-51h-1135v-424q170 -188 467 -188q314 0 545 123z
M850 1333q-297 0 -467 -184v-430h913v426q-154 188 -446 188z" />
    <glyph glyph-name="uni2150" unicode="&#x2150;" horiz-adv-x="2123" 
d="M123 1276l280 113h273v-564h135l8 -223h-684v223h205v285l-156 -33zM528 55l879 1377l184 -115l-878 -1376zM1333 815h660l20 -227l-338 -606l-309 110l309 492h-338z" />
    <glyph glyph-name="uni2151" unicode="&#x2151;" horiz-adv-x="2123" 
d="M123 1276l280 113h273v-564h135l8 -223h-684v223h205v285l-156 -33zM528 55l879 1377l184 -115l-878 -1376zM1651 496q33 0 71 12q-5 51 -22 76.5t-55 25.5q-33 0 -48 -12q-22 -16 -22 -45q0 -57 76 -57zM1268 561q0 122 103.5 194t285.5 72q194 0 290.5 -97t96.5 -253
q0 -204 -151.5 -334.5t-387.5 -130.5q-109 0 -170 21l43 223q92 -8 101 -8q176 0 227 108q-90 -22 -162 -22q-130 2 -203 59.5t-73 167.5z" />
    <glyph glyph-name="uni2153" unicode="&#x2153;" horiz-adv-x="2123" 
d="M123 1276l280 113h273v-564h135l8 -223h-684v223h205v285l-156 -33zM528 55l879 1377l184 -115l-878 -1376zM1331 772q144 55 322 55q143 0 225 -49.5t82 -144.5q0 -109 -107 -170q74 -27 112 -76t38 -108q0 -129 -100 -198t-279 -69q-98 0 -184 14t-131 33l61 197
q124 -23 172 -23q54 0 84 13q31 10 31 39q0 45 -98 45h-101l-10 176h78q51 0 74.5 11.5t23.5 37.5q0 45 -88 45q-71 0 -150 -18z" />
    <glyph glyph-name="uni2154" unicode="&#x2154;" horiz-adv-x="2123" 
d="M117 1329q157 75 354 72q156 0 239 -62.5t83 -169.5q0 -56 -21 -103.5t-71 -92t-81 -67t-101 -66.5q-5 -4 -9 -6.5t-8 -4.5l-6 -4h288l7 -223h-652l-14 223l143 99q187 131 187 186q0 53 -80 53q-54 0 -189 -33zM528 55l879 1377l184 -115l-878 -1376zM1331 772
q144 55 322 55q143 0 225 -49.5t82 -144.5q0 -109 -107 -170q74 -27 112 -76t38 -108q0 -129 -100 -198t-279 -69q-98 0 -184 14t-131 33l61 197q124 -23 172 -23q54 0 84 13q31 10 31 39q0 45 -98 45h-101l-10 176h78q51 0 74.5 11.5t23.5 37.5q0 45 -88 45q-71 0 -150 -18
z" />
    <glyph glyph-name="uni2155" unicode="&#x2155;" horiz-adv-x="2123" 
d="M123 1276l280 113h273v-564h135l8 -223h-684v223h205v285l-156 -33zM528 55l879 1377l184 -115l-878 -1376zM1356 815h608l-14 -231h-320v-70q23 2 66 2q146 0 231.5 -57.5t85.5 -171.5q0 -135 -104.5 -205t-284.5 -70q-171 0 -309 47l51 203q130 -20 193 -20q48 0 83 12
q35 18 35 45q0 57 -135 57q-57 0 -131 -8l-55 19v448z" />
    <glyph glyph-name="uni2156" unicode="&#x2156;" horiz-adv-x="2123" 
d="M117 1329q157 75 354 72q156 0 239 -62.5t83 -169.5q0 -56 -21 -103.5t-71 -92t-81 -67t-101 -66.5q-5 -4 -9 -6.5t-8 -4.5l-6 -4h288l7 -223h-652l-14 223l143 99q187 131 187 186q0 53 -80 53q-54 0 -189 -33zM528 55l879 1377l184 -115l-878 -1376zM1356 815h608
l-14 -231h-320v-70q23 2 66 2q146 0 231.5 -57.5t85.5 -171.5q0 -135 -104.5 -205t-284.5 -70q-171 0 -309 47l51 203q130 -20 193 -20q48 0 83 12q35 18 35 45q0 57 -135 57q-57 0 -131 -8l-55 19v448z" />
    <glyph glyph-name="uni2157" unicode="&#x2157;" horiz-adv-x="2123" 
d="M129 1346q144 55 322 55q143 0 225 -50t82 -145q0 -109 -107 -170q74 -27 112 -76t38 -108q0 -129 -100 -197.5t-279 -68.5q-98 0 -184.5 14t-131.5 33l62 196q118 -22 172 -22q56 0 84 12q31 10 31 39q0 45 -99 45h-100l-10 176h78q51 0 74.5 11.5t23.5 37.5
q0 46 -88 46q-67 0 -150 -19zM528 55l879 1377l184 -115l-878 -1376zM1356 815h608l-14 -231h-320v-70q23 2 66 2q146 0 231.5 -57.5t85.5 -171.5q0 -135 -104.5 -205t-284.5 -70q-171 0 -309 47l51 203q130 -20 193 -20q48 0 83 12q35 18 35 45q0 57 -135 57q-57 0 -131 -8
l-55 19v448z" />
    <glyph glyph-name="uni2158" unicode="&#x2158;" horiz-adv-x="2123" 
d="M43 936l379 453h332v-465h98l8 -213h-106v-109h-316v109h-370zM375 1034l-88 -110h151v186h-6zM528 55l879 1377l184 -115l-878 -1376zM1356 815h608l-14 -231h-320v-70q23 2 66 2q146 0 231.5 -57.5t85.5 -171.5q0 -135 -104.5 -205t-284.5 -70q-171 0 -309 47l51 203
q130 -20 193 -20q48 0 83 12q35 18 35 45q0 57 -135 57q-57 0 -131 -8l-55 19v448z" />
    <glyph glyph-name="uni2159" unicode="&#x2159;" horiz-adv-x="2123" 
d="M123 1276l280 113h273v-564h135l8 -223h-684v223h205v285l-156 -33zM528 55l879 1377l184 -115l-878 -1376zM1280 362q0 201 148 333t391 132q112 0 170 -20l-43 -223q-36 8 -97 8q-174 0 -227 -109q80 23 158 23q131 -2 204.5 -59.5t73.5 -167.5q0 -123 -105 -195
t-282 -72q-194 0 -292.5 95.5t-98.5 254.5zM1679 229q34 0 52 15t18 43q0 57 -76 57q-27 0 -69 -10q3 -53 20 -79t55 -26z" />
    <glyph glyph-name="uni215A" unicode="&#x215a;" horiz-adv-x="2123" 
d="M154 1389h608l-14 -232h-320v-70q34 3 66 3q146 0 231.5 -58t85.5 -172q0 -134 -104.5 -204t-284.5 -70q-171 0 -309 47l51 203q137 -21 192 -21q50 0 84 12q35 17 35 45q0 58 -135 58q-57 0 -131 -8l-55 18v449zM528 55l879 1377l184 -115l-878 -1376zM1280 362
q0 201 148 333t391 132q112 0 170 -20l-43 -223q-36 8 -97 8q-174 0 -227 -109q80 23 158 23q131 -2 204.5 -59.5t73.5 -167.5q0 -123 -105 -195t-282 -72q-194 0 -292.5 95.5t-98.5 254.5zM1679 229q34 0 52 15t18 43q0 57 -76 57q-27 0 -69 -10q3 -53 20 -79t55 -26z" />
    <glyph glyph-name="uni215B" unicode="&#x215b;" horiz-adv-x="2123" 
d="M123 1276l280 113h273v-564h135l8 -223h-684v223h205v285l-156 -33zM528 55l879 1377l184 -115l-878 -1376zM1298 600q0 112 103 170.5t268 58.5t260.5 -52t95.5 -148q0 -60 -36.5 -108.5t-100.5 -78.5q87 -39 130.5 -82t43.5 -110q0 -112 -109.5 -175t-295.5 -63
q-187 0 -292 54.5t-105 150.5q0 67 48 118.5t128 80.5q-66 34 -102 82t-36 102zM1585 596q0 -7 3 -13t10 -12t13.5 -10.5t19.5 -10.5t22.5 -10t27.5 -11.5t29 -12.5q29 32 29 68q0 51 -82 51q-33 0 -53 -10q-19 -11 -19 -29zM1659 209q53 0 76 10q22 13 22 35q0 9 -6.5 16.5
t-22 15.5t-29.5 14t-41 16.5t-44 17.5q-49 -40 -49 -74q0 -51 94 -51z" />
    <glyph glyph-name="uni215C" unicode="&#x215c;" horiz-adv-x="2123" 
d="M129 1346q144 55 322 55q143 0 225 -50t82 -145q0 -109 -107 -170q74 -27 112 -76t38 -108q0 -129 -100 -197.5t-279 -68.5q-98 0 -184.5 14t-131.5 33l62 196q118 -22 172 -22q56 0 84 12q31 10 31 39q0 45 -99 45h-100l-10 176h78q51 0 74.5 11.5t23.5 37.5
q0 46 -88 46q-67 0 -150 -19zM528 55l879 1377l184 -115l-878 -1376zM1298 600q0 112 103 170.5t268 58.5t260.5 -52t95.5 -148q0 -60 -36.5 -108.5t-100.5 -78.5q87 -39 130.5 -82t43.5 -110q0 -112 -109.5 -175t-295.5 -63q-187 0 -292 54.5t-105 150.5q0 67 48 118.5
t128 80.5q-66 34 -102 82t-36 102zM1585 596q0 -7 3 -13t10 -12t13.5 -10.5t19.5 -10.5t22.5 -10t27.5 -11.5t29 -12.5q29 32 29 68q0 51 -82 51q-33 0 -53 -10q-19 -11 -19 -29zM1659 209q53 0 76 10q22 13 22 35q0 9 -6.5 16.5t-22 15.5t-29.5 14t-41 16.5t-44 17.5
q-49 -40 -49 -74q0 -51 94 -51z" />
    <glyph glyph-name="uni215D" unicode="&#x215d;" horiz-adv-x="2123" 
d="M154 1389h608l-14 -232h-320v-70q34 3 66 3q146 0 231.5 -58t85.5 -172q0 -134 -104.5 -204t-284.5 -70q-171 0 -309 47l51 203q137 -21 192 -21q50 0 84 12q35 17 35 45q0 58 -135 58q-57 0 -131 -8l-55 18v449zM528 55l879 1377l184 -115l-878 -1376zM1298 600
q0 112 103 170.5t268 58.5t260.5 -52t95.5 -148q0 -60 -36.5 -108.5t-100.5 -78.5q87 -39 130.5 -82t43.5 -110q0 -112 -109.5 -175t-295.5 -63q-187 0 -292 54.5t-105 150.5q0 67 48 118.5t128 80.5q-66 34 -102 82t-36 102zM1585 596q0 -7 3 -13t10 -12t13.5 -10.5
t19.5 -10.5t22.5 -10t27.5 -11.5t29 -12.5q29 32 29 68q0 51 -82 51q-33 0 -53 -10q-19 -11 -19 -29zM1659 209q53 0 76 10q22 13 22 35q0 9 -6.5 16.5t-22 15.5t-29.5 14t-41 16.5t-44 17.5q-49 -40 -49 -74q0 -51 94 -51z" />
    <glyph glyph-name="uni215E" unicode="&#x215e;" horiz-adv-x="2123" 
d="M131 1389h660l20 -228l-338 -606l-309 111l309 491h-338zM528 55l879 1377l184 -115l-878 -1376zM1298 600q0 112 103 170.5t268 58.5t260.5 -52t95.5 -148q0 -60 -36.5 -108.5t-100.5 -78.5q87 -39 130.5 -82t43.5 -110q0 -112 -109.5 -175t-295.5 -63q-187 0 -292 54.5
t-105 150.5q0 67 48 118.5t128 80.5q-66 34 -102 82t-36 102zM1585 596q0 -7 3 -13t10 -12t13.5 -10.5t19.5 -10.5t22.5 -10t27.5 -11.5t29 -12.5q29 32 29 68q0 51 -82 51q-33 0 -53 -10q-19 -11 -19 -29zM1659 209q53 0 76 10q22 13 22 35q0 9 -6.5 16.5t-22 15.5
t-29.5 14t-41 16.5t-44 17.5q-49 -40 -49 -74q0 -51 94 -51z" />
    <glyph glyph-name="uni2190" unicode="&#x2190;" horiz-adv-x="1787" 
d="M51 553l686 598l193 -229l-205 -164l-147 -80h1161v-303h-1159l147 -84l205 -162l-197 -229l-684 598v55z" />
    <glyph glyph-name="uni2191" unicode="&#x2191;" horiz-adv-x="1302" 
d="M625 1509h53l598 -686l-227 -194l-164 207l-82 145v-1137h-303v1137l-82 -147l-164 -205l-227 194z" />
    <glyph glyph-name="uni2192" unicode="&#x2192;" horiz-adv-x="1787" 
d="M858 922l193 229l686 -598v-55l-684 -598l-197 229l205 162l147 84h-1157v303h1159l-147 80z" />
    <glyph glyph-name="uni2193" unicode="&#x2193;" horiz-adv-x="1302" 
d="M500 1509h303v-1136l82 147l164 205l227 -195l-598 -686h-53l-598 686l227 195l164 -205l82 -147v1136z" />
    <glyph glyph-name="uni2194" unicode="&#x2194;" horiz-adv-x="3158" 
d="M2234 922l193 229l680 -598v-53l-678 -598l-195 227l205 162l148 84h-2012l144 -84l205 -162l-197 -227l-676 598v53l678 598l193 -229l-205 -164l-142 -80h2014l-150 80z" />
    <glyph glyph-name="uni2195" unicode="&#x2195;" horiz-adv-x="1302" 
d="M625 1638h53l598 -686l-229 -192l-164 205l-80 141v-1284l80 147l164 207l229 -192l-598 -689h-53l-598 687l227 196l162 -207l84 -147v1282l-84 -143l-162 -205l-227 196z" />
    <glyph glyph-name="uni2196" unicode="&#x2196;" horiz-adv-x="1280" 
d="M127 1286l41 31l870 -187l-63 -286l-250 63l-152 68l668 -901l-237 -178l-668 897l22 -166l-4 -260l-297 16z" />
    <glyph glyph-name="uni2197" unicode="&#x2197;" horiz-adv-x="1280" 
d="M242 1130l868 187l43 -31l70 -903l-299 -16l-2 260l22 166l-670 -897l-237 178l670 901l-152 -68l-250 -63z" />
    <glyph glyph-name="uni2198" unicode="&#x2198;" horiz-adv-x="1280" 
d="M37 1200l237 180l670 -899l-22 166l2 260l299 -16l-70 -903l-43 -31l-868 186l63 287l250 -63l152 -68z" />
    <glyph glyph-name="uni2199" unicode="&#x2199;" horiz-adv-x="1280" 
d="M168 -43l-41 31l-70 903l297 16l4 -260l-22 -166l668 899l237 -180l-668 -901l152 68l250 63l63 -287z" />
    <glyph glyph-name="uni219E" unicode="&#x219e;" horiz-adv-x="2252" 
d="M723 553l686 598l195 -227l-205 -164l-148 -82h953v-303h-953l148 -82l205 -164l-195 -227l-686 598v53zM51 553l684 631l207 -209l-485 -449l485 -448l-207 -211l-684 633v53z" />
    <glyph glyph-name="uni219F" unicode="&#x219f;" horiz-adv-x="1368" 
d="M657 838h54l598 -688l-230 -193l-161 207l-82 149v-778h-304v774l-83 -147l-162 -207l-228 197zM657 1509h54l630 -686l-208 -202l-447 483l-453 -486l-206 207z" />
    <glyph glyph-name="uni21A0" unicode="&#x21a0;" horiz-adv-x="2252" 
d="M649 924l195 227l686 -598v-53l-686 -598l-195 227l207 164l145 82h-950v303h950l-145 82zM1313 975l205 209l684 -631v-53l-684 -633l-205 211l485 448z" />
    <glyph glyph-name="uni21A1" unicode="&#x21a1;" horiz-adv-x="1368" 
d="M532 1509h304v-778l82 150l161 206l230 -192l-598 -688h-54l-598 686l228 194l162 -204l83 -148v774zM27 219l206 207l453 -485l447 483l208 -203l-630 -686h-54z" />
    <glyph glyph-name="uni21B0" unicode="&#x21b0;" horiz-adv-x="1654" 
d="M51 553l686 598l193 -229l-205 -164l-147 -80h983v-1071h-299v768h-682l147 -84l205 -162l-197 -227l-684 598v53z" />
    <glyph glyph-name="uni21B1" unicode="&#x21b1;" horiz-adv-x="1654" 
d="M723 922l192 229l689 -598v-53l-686 -598l-197 227l207 162l147 84h-682v-768h-301v1071h985l-147 80z" />
    <glyph glyph-name="uni21B2" unicode="&#x21b2;" horiz-adv-x="1654" 
d="M1262 1444h299v-1069h-986l150 -82l205 -164l-193 -227l-686 598v53l684 598l197 -227l-205 -162l-147 -84h682v766z" />
    <glyph glyph-name="uni21B3" unicode="&#x21b3;" horiz-adv-x="1654" 
d="M92 1444h301v-766h682l-147 84l-207 162l197 227l686 -598v-53l-689 -598l-192 227l207 164l149 82h-987v1069z" />
    <glyph glyph-name="uni21B4" unicode="&#x21b4;" horiz-adv-x="1689" 
d="M51 678h1139v-766l80 147l164 205l229 -192l-598 -686h-53l-598 684l227 196l162 -205l84 -147v461h-836v303z" />
    <glyph glyph-name="uni21BC" unicode="&#x21bc;" horiz-adv-x="1792" 
d="M12 430l736 721l200 -223l-164 -146l-139 -104h1096v-303h-1729v55z" />
    <glyph glyph-name="uni21BD" unicode="&#x21bd;" horiz-adv-x="1792" 
d="M12 678h1729v-303h-1096l139 -105l164 -147l-200 -221l-736 719v57z" />
    <glyph glyph-name="uni21BE" unicode="&#x21be;" horiz-adv-x="915" 
d="M113 1559h57l719 -736l-223 -198l-154 172l-96 135v-1088h-303v1715z" />
    <glyph glyph-name="uni21BF" unicode="&#x21bf;" horiz-adv-x="915" 
d="M745 1559h58v-1715h-303v1088l-97 -135l-153 -172l-223 198z" />
    <glyph glyph-name="uni21C0" unicode="&#x21c0;" horiz-adv-x="1792" 
d="M844 928l200 223l734 -721v-55h-1727v303h1094l-137 104z" />
    <glyph glyph-name="uni21C1" unicode="&#x21c1;" horiz-adv-x="1792" 
d="M51 678h1727v-57l-734 -719l-200 221l164 147l137 105h-1094v303z" />
    <glyph glyph-name="uni21C2" unicode="&#x21c2;" horiz-adv-x="915" 
d="M113 1559h303v-1088l96 137l154 172l223 -200l-719 -736h-57v1715z" />
    <glyph glyph-name="uni21C3" unicode="&#x21c3;" horiz-adv-x="915" 
d="M500 1559h303v-1715h-58l-718 736l223 200l153 -172l97 -137v1088z" />
    <glyph glyph-name="uni21C4" unicode="&#x21c4;" horiz-adv-x="1794" 
d="M911 1477l187 229l645 -582v-55l-643 -582l-191 228l189 145l139 86h-1186v301h1186l-137 82zM51 2l645 582l187 -230l-191 -147l-137 -82h1186v-301h-1184l137 -86l189 -144l-189 -229l-643 582v55z" />
    <glyph glyph-name="uni21C5" unicode="&#x21c5;" horiz-adv-x="2295" 
d="M1565 1509h301v-1142l71 135l103 149l229 -170l-528 -637h-53l-551 635l229 174l113 -149l86 -142v1147zM575 1509h54l528 -637l-229 -170l-103 150l-71 135v-1143h-301v1147l-86 -141l-113 -148l-227 172z" />
    <glyph glyph-name="uni21C6" unicode="&#x21c6;" horiz-adv-x="1794" 
d="M51 1124l645 582l187 -229l-191 -148l-137 -82h1186v-301h-1184l137 -86l189 -145l-189 -228l-643 582v55zM911 354l187 230l645 -582v-55l-643 -582l-191 229l189 144l139 86h-1186v301h1186l-137 82z" />
    <glyph glyph-name="uni21C7" unicode="&#x21c7;" horiz-adv-x="1787" 
d="M51 1124l633 547l170 -229l-145 -113l-142 -82h1172v-301h-1164l136 -74l145 -98l-174 -229l-631 526v53zM51 0l633 524l170 -229l-145 -100l-136 -70h1166v-303h-1170l142 -84l145 -111l-174 -227l-631 547v53z" />
    <glyph glyph-name="uni21C8" unicode="&#x21c8;" horiz-adv-x="2316" 
d="M1688 1509h53l551 -637l-232 -170l-112 150l-82 141v-1149h-301v1139l-70 -133l-98 -148l-228 172zM575 1509h54l520 -637l-229 -170l-99 150l-67 133v-1141h-301v1147l-86 -141l-113 -148l-227 172z" />
    <glyph glyph-name="uni21C9" unicode="&#x21c9;" horiz-adv-x="1787" 
d="M934 1442l170 229l633 -547v-53l-631 -526l-174 229l145 98l135 74h-1161v301h1170l-142 82zM934 295l170 229l633 -524v-53l-631 -547l-174 227l145 111l142 84h-1168v303h1163l-135 70z" />
    <glyph glyph-name="uni21CA" unicode="&#x21ca;" horiz-adv-x="2316" 
d="M1565 1509h301v-1147l82 140l112 149l232 -170l-551 -637h-53l-519 635l228 174l98 -149l70 -133v1138zM453 1509h301v-1140l67 133l99 149l229 -170l-520 -637h-54l-548 635l227 174l113 -149l86 -142v1147z" />
    <glyph glyph-name="uni21CB" unicode="&#x21cb;" horiz-adv-x="1753" 
d="M12 676l613 584l198 -222l-116 -102l-127 -78h1161v-240h-1729v58zM12 442h1729v-57l-611 -584l-200 222l117 102l124 78h-1159v239z" />
    <glyph glyph-name="uni21CC" unicode="&#x21cc;" horiz-adv-x="1755" 
d="M930 1038l200 222l611 -584v-58h-1729v240h1162l-127 78zM12 442h1729v-239h-1159l125 -78l116 -102l-198 -222l-613 584v57z" />
    <glyph glyph-name="uni21CD" unicode="&#x21cd;" horiz-adv-x="2373" 
d="M518 442h819l84 179l-903 -3l-106 -88zM51 557l776 700l201 -227l-119 -92l-135 -80h758l178 385l207 -100l-133 -285h538v-237h-649l-84 -181h733v-237h-843l-181 -385l-202 100l131 285h-451l135 -80l117 -92l-201 -228l-776 701v53z" />
    <glyph glyph-name="uni21CE" unicode="&#x21ce;" horiz-adv-x="3160" 
d="M2132 1030l201 227l776 -700v-53l-776 -701l-201 228l119 92l133 80h-832l-180 -385l-203 100l134 285h-527l135 -80l117 -92l-201 -228l-776 701v53l776 700l201 -227l-119 -92l-135 -80h834l178 385l205 -100l-133 -285h528l-135 80zM2748 530l-106 88h-895l-84 -176
h979zM518 442h895l82 176h-977l-106 -88z" />
    <glyph glyph-name="uni21CF" unicode="&#x21cf;" horiz-adv-x="2373" 
d="M1346 1030l200 227l776 -700v-53l-776 -701l-200 228l118 92l135 80h-757l-180 -385l-203 100l131 285h-539v237h649l84 181h-733v237h844l178 385l207 -100l-133 -285h450l-135 80zM1855 618h-819l-84 -178l903 2l107 88z" />
    <glyph glyph-name="uni21D0" unicode="&#x21d0;" horiz-adv-x="1835" 
d="M51 557l776 700l201 -227l-119 -92l-135 -80h1010v-237l-1266 -3l-106 -88l106 -88l1266 -2v-237h-1008l135 -80l117 -92l-201 -228l-776 701v53z" />
    <glyph glyph-name="uni21D1" unicode="&#x21d1;" horiz-adv-x="1505" 
d="M725 1509h53l701 -776l-230 -201l-92 117l-76 129v-921h-237l-2 1185l-88 107l-90 -107l-2 -1185h-238v927l-78 -133l-92 -119l-227 201z" />
    <glyph glyph-name="uni21D2" unicode="&#x21d2;" horiz-adv-x="1845" 
d="M817 1030l201 227l776 -700v-53l-776 -701l-201 228l119 92l133 80h-1008v237l1266 2l109 88l-109 88l-1266 3v237h1010l-135 80z" />
    <glyph glyph-name="uni21D3" unicode="&#x21d3;" horiz-adv-x="1505" 
d="M844 1509h237v-923l76 131l92 117l230 -201l-701 -776h-53l-698 776l227 201l92 -119l78 -133v927h238l2 -1187l90 -107l88 107z" />
    <glyph glyph-name="uni21D4" unicode="&#x21d4;" horiz-adv-x="3160" 
d="M2132 1030l201 227l776 -700v-53l-776 -701l-201 228l119 92l133 80h-1608l135 -80l117 -92l-201 -228l-776 701v53l776 700l201 -227l-119 -92l-135 -80h1612l-135 80zM2748 530l-106 88h-2124l-106 -88l106 -88h2124z" />
    <glyph glyph-name="uni21D5" unicode="&#x21d5;" horiz-adv-x="1505" 
d="M725 1638h53l701 -776l-230 -203l-92 119l-78 133v-888l78 133l92 118l230 -202l-701 -777h-53l-698 777l227 202l92 -120l78 -134v893l-78 -133l-92 -121l-227 203zM842 1171l-88 107l-90 -107v-1409l90 -106l88 106v1409z" />
    <glyph glyph-name="uni21D6" unicode="&#x21d6;" horiz-adv-x="1552" 
d="M152 1468l41 31l1003 -196l-59 -295l-142 41l-137 59l658 -856l-187 -141l-813 1063l-133 26l-2 -137l809 -1067l-186 -141l-660 860l16 -152l-4 -147l-301 20z" />
    <glyph glyph-name="uni21D7" unicode="&#x21d7;" horiz-adv-x="1552" 
d="M358 1303l1002 196l43 -31l94 -1032l-299 -20l-6 147l16 152l-659 -860l-187 141l809 1067l-2 137l-133 -26l-813 -1063l-186 141l657 856l-135 -59l-143 -41z" />
    <glyph glyph-name="uni21D8" unicode="&#x21d8;" horiz-adv-x="1552" 
d="M362 1440l187 141l659 -860l-16 151l6 150l299 -21l-94 -1032l-43 -32l-1002 196l58 295l143 -39l135 -59l-657 856l186 141l813 -1065l133 -26l2 139z" />
    <glyph glyph-name="uni21D9" unicode="&#x21d9;" horiz-adv-x="1552" 
d="M193 -63l-41 32l-97 1032l301 21l4 -150l-16 -151l660 860l186 -141l-809 -1065l2 -139l133 26l813 1065l187 -141l-658 -856l137 59l142 39l59 -295z" />
    <glyph glyph-name="uni21E0" unicode="&#x21e0;" horiz-adv-x="1955" 
d="M51 553l686 598l193 -229l-205 -164l-145 -80h342v-303h-342l147 -84l205 -162l-197 -227l-684 598v53zM1077 678h320v-303h-320v303zM1554 678h320v-303h-320v303z" />
    <glyph glyph-name="uni21E1" unicode="&#x21e1;" horiz-adv-x="1335" 
d="M641 1509h53l615 -678l-230 -200l-180 221l-80 147v-243h-303v241l-84 -147l-178 -221l-227 205zM516 123h303v-268h-303v268zM516 573h303v-268h-303v268z" />
    <glyph glyph-name="uni21E2" unicode="&#x21e2;" horiz-adv-x="1955" 
d="M1026 922l193 229l686 -598v-53l-684 -598l-197 227l205 162l147 84h-340v303h342l-147 80zM82 678h319v-303h-319v303zM559 678h320v-303h-320v303z" />
    <glyph glyph-name="uni21E3" unicode="&#x21e3;" horiz-adv-x="1335" 
d="M516 610h303v-243l80 145l180 223l230 -200l-615 -680h-53l-614 677l227 203l178 -221l84 -147v243zM516 1059h303v-266h-303v266zM516 1509h303v-266h-303v266z" />
    <glyph glyph-name="uni21F5" unicode="&#x21f5;" horiz-adv-x="2295" 
d="M1688 1509h53l528 -637l-229 -170l-103 150l-71 135v-1143h-301v1147l-86 -141l-113 -148l-229 172zM453 1509h301v-1142l71 135l103 149l229 -170l-528 -637h-54l-548 635l227 174l113 -149l86 -142v1147z" />
    <glyph glyph-name="uni21FD" unicode="&#x21fd;" horiz-adv-x="1974" 
d="M1032 1245l53 2v-569h838v-303h-838v-570h-53l-981 695v53zM815 291v469l-344 -234z" />
    <glyph glyph-name="uni21FE" unicode="&#x21fe;" horiz-adv-x="1974" 
d="M887 1247l53 -2l983 -692v-53l-983 -695h-53v570h-836v303h836v569zM1503 526l-346 234v-469z" />
    <glyph glyph-name="uni21FF" unicode="&#x21ff;" horiz-adv-x="3160" 
d="M2075 1247l53 -2l981 -692v-53l-981 -697h-53v572h-990v-572h-53l-981 697v53l981 692l53 2v-569h990v569zM815 291v469l-344 -234zM2689 526l-344 234v-469z" />
    </font>
</defs>
</svg>
