<?xml version="1.0" standalone="no"?>
<!DOCTYPE svg PUBLIC "-//W3C//DTD SVG 1.1//EN" "http://www.w3.org/Graphics/SVG/1.1/DTD/svg11.dtd" >
<svg xmlns="http://www.w3.org/2000/svg" xmlns:xlink="http://www.w3.org/1999/xlink" version="1.1">
<metadata>
Created by FontForge 20170731 at Fri Aug 27 18:28:16 2021
 By Aleksey,,,
Copyright (c) 2014-16 by David Brezina. All rights reserved.
</metadata>
<defs>
<font id="SkolarSansLatn-EbIt" horiz-adv-x="1193" >
  <font-face 
    font-family="Skolar Sans Latn Eb"
    font-weight="800"
    font-style="italic"
    font-stretch="normal"
    units-per-em="2048"
    panose-1="2 13 0 0 0 4 0 0 0 0"
    ascent="1536"
    descent="-512"
    x-height="1008"
    cap-height="1372"
    bbox="-586 -633 2961 2419"
    underline-thickness="155"
    underline-position="-421"
    slope="-8"
    unicode-range="U+000D-FC01"
  />
<missing-glyph horiz-adv-x="1269" 
d="M1128 1358v-1358h-966v1358h966zM645 766l330 494h-660zM702 678l330 -496v989zM645 592l-330 -494h660zM586 678l-328 493v-989z" />
    <glyph glyph-name="f_b" unicode="fb" horiz-adv-x="1820" 
d="M1192 231q51 0 96 15q49 65 79 163t30 207q0 123 -45 148q-77 -8 -166 -80l-60 -446q40 -7 66 -7zM102 1008h134l6 55q15 110 49.5 198t90 156t139.5 105t190 37q139 0 286 -56l299 37l-82 -631q148 127 291 127q68 0 118.5 -27.5t80 -77.5t43.5 -113t14 -140
q0 -315 -170.5 -508t-466.5 -193q-190 0 -368 74l162 1229q-76 20 -166 20q-62 0 -93 -16q-45 -47 -63 -182l-12 -94h168l-31 -246h-170l-164 -1241h-344l160 1241h-131z" />
    <glyph glyph-name="f_f" unicode="ff" horiz-adv-x="1419" 
d="M885 1063q13 100 41 174q-97 33 -181 33q-51 0 -86 -17q-49 -58 -65 -176l-10 -69h295zM102 1008h134l4 30q31 229 148 359.5t329 130.5q92 0 178.5 -28t144.5 -64q117 123 303 123q172 0 285 -80l-94 -215q-73 26 -148 26q-54 0 -94 -18q-38 -52 -55 -170l-12 -94h215
l-31 -246h-217l-162 -1241h-344l160 1241h-293l-166 -1241h-344l162 1241h-135z" />
    <glyph glyph-name="f_h" unicode="fh" horiz-adv-x="1837" 
d="M102 1008h134l6 55q15 110 49.5 198t90 156t139.5 105t190 37q141 0 284 -56l301 37l-86 -659q158 155 332 155q141 0 188 -86.5t25 -247.5l-92 -702h-360l81 614q8 48 6.5 87t-18.5 51q-93 -13 -192 -99l-86 -653h-349l173 1280q-94 20 -166 20q-57 0 -90 -16
q-49 -55 -66 -182l-12 -94h168l-31 -246h-170l-164 -1241h-344l160 1241h-131z" />
    <glyph glyph-name="f_i" unicode="fi" horiz-adv-x="1275" 
d="M102 1008h134l6 55q15 110 50.5 197.5t94.5 156t148.5 105.5t203.5 37q125 0 239.5 -29.5t186.5 -69.5l-94 -227q-173 67 -313 67q-56 0 -96 -18q-50 -59 -66 -180l-12 -94h295l350 4l-135 -1012h-346l98 762h-295l-164 -1241h-344l160 1241h-133z" />
    <glyph glyph-name="f_iacute" unicode="f&#xed;" horiz-adv-x="1269" 
d="M102 1008h134l12 90q12 93 42.5 173t80.5 146t126 104t169 38q147 0 256 -70l-82 -219q-58 20 -113 20q-42 0 -72 -18q-41 -46 -59 -158l-14 -106h292l349 4l-133 -1012h-349l101 762h-293l-162 -1241h-344l162 1241h-135zM1452 1413l-2 -29l-453 -268l-108 152l422 344z
" />
    <glyph glyph-name="f_j" unicode="fj" horiz-adv-x="1294" 
d="M102 1008h134l6 55q31 229 155 362.5t338 133.5q236 0 451 -103l-96 -227q-170 71 -336 71q-52 0 -92 -18q-50 -59 -66 -180l-12 -94h317l346 4l-127 -973q-55 -397 -401 -553l-125 195q77 79 121 176t63 229l90 676h-317l-164 -1241h-344l160 1241h-133z" />
    <glyph glyph-name="f_k" unicode="fk" horiz-adv-x="1802" 
d="M102 1008h134l6 55q15 110 49.5 198t90 156t139.5 105t190 37q137 0 288 -56l295 37l-123 -924l318 392h332q-3 -69 -78 -144l-293 -303l221 -403q44 -81 37 -158h-354l-158 344l-68 -47l-38 -297h-345l173 1280q-85 20 -166 20q-60 0 -93 -16q-45 -51 -63 -182l-12 -94
h170l-31 -246h-172l-164 -1241h-344l160 1241h-131z" />
    <glyph glyph-name="f_l" unicode="fl" horiz-adv-x="1325" 
d="M102 1008h134l6 55q15 110 49.5 198t90.5 156t140 105t191 37q137 0 282 -56l301 37l-155 -1169q-9 -73 16 -95q30 0 74 7l18 -254q-127 -52 -266 -52q-236 0 -201 283l133 1020q-76 20 -159 20q-64 0 -97 -16q-43 -49 -65 -182l-12 -94h170l-31 -246h-172l-162 -1241
h-344l160 1241h-131z" />
    <glyph glyph-name="f_lcaron" unicode="f&#x13e;" horiz-adv-x="1343" 
d="M102 1008h134l6 55q15 110 49.5 198t90.5 156t140 105t191 37q137 0 282 -56l301 37l-155 -1169q-9 -73 16 -95q30 0 74 7l18 -254q-127 -52 -266 -52q-236 0 -201 283l133 1020q-76 20 -159 20q-64 0 -97 -16q-43 -49 -65 -182l-12 -94h170l-31 -246h-172l-162 -1241
h-344l160 1241h-131zM1319 1124l72 475l274 9l10 -13l-141 -471h-215z" />
    <glyph glyph-name="f_t" unicode="ft" horiz-adv-x="1497" 
d="M102 1008h134l6 55q29 219 143 357.5t287 138.5q153 0 272 -76l-94 -213q-53 20 -117 20q-41 0 -74 -20q-47 -53 -63 -168l-12 -94h307l129 311h250l-41 -311h270l-33 -246h-272l-49 -373q-11 -100 22 -129q67 0 195 29l55 -193q-72 -49 -178.5 -84t-218.5 -35
q-129 0 -191.5 83.5t-42.5 238.5l62 463h-297l-164 -1241h-344l160 1241h-133z" />
    <glyph glyph-name="f_f_i" unicode="ffi" horiz-adv-x="1906" 
d="M885 1063q13 96 39 174q-111 33 -179 33q-53 0 -86 -17q-49 -58 -65 -176l-10 -69h293zM1509 1008l351 4l-136 -1012h-346l99 762h-287l-162 -1241h-344l162 1241h-293l-166 -1241h-344l162 1241h-135l32 246h134l4 30q31 229 148 359.5t329 130.5q172 0 323 -94
q122 125 324 125q127 0 243.5 -30.5t186.5 -68.5l-94 -227q-66 29 -151.5 48t-162.5 19q-49 0 -86 -16q-49 -61 -65 -182l-12 -94h286z" />
    <glyph glyph-name="f_f_b" unicode="ffb" horiz-adv-x="2451" 
d="M102 1008h134l4 30q31 229 148 359.5t329 130.5q91 0 175 -27t144 -65q117 123 305 123q140 0 287 -56l299 37l-84 -633q150 129 293 129q68 0 118 -27.5t79.5 -77.5t43.5 -112.5t15 -140.5q0 -315 -170.5 -508t-466.5 -193q-189 0 -371 74l162 1229q-76 20 -164 20
q-57 0 -90 -16q-41 -57 -55 -182l-12 -94h157l-30 -246h-160l-162 -1241h-344l160 1241h-293l-166 -1241h-344l162 1241h-135zM885 1063q13 96 39 174q-94 33 -179 33q-51 0 -86 -17q-49 -58 -65 -176l-10 -69h295zM1823 231q46 0 96 15q48 65 77 162.5t29 207.5
q0 124 -43 148q-80 -9 -167 -82l-60 -444q40 -7 68 -7z" />
    <glyph glyph-name="f_f_h" unicode="ffh" horiz-adv-x="2465" 
d="M102 1008h134l4 30q31 229 148 359.5t329 130.5q91 0 175 -27t144 -65q117 123 305 123q144 0 283 -56l303 37l-86 -657q159 153 330 153q141 0 189 -86.5t26 -247.5l-92 -702h-361l82 614q14 118 -14 138q-90 -12 -191 -97l-86 -655h-348l172 1278q-86 22 -166 22
q-51 0 -84 -16q-43 -52 -61 -182l-12 -94h157l-30 -246h-160l-164 -1241h-344l160 1241h-291l-166 -1241h-344l162 1241h-135zM883 1063q13 96 39 174q-90 33 -177 33q-51 0 -86 -17q-49 -58 -65 -176l-10 -69h293z" />
    <glyph glyph-name="f_f_j" unicode="ffj" horiz-adv-x="1927" 
d="M102 1008h134l4 30q31 229 148 359.5t329 130.5q93 0 179.5 -28.5t145.5 -67.5q127 127 328 127q232 0 447 -103l-97 -227q-166 71 -329 71q-51 0 -86 -18q-52 -58 -68 -180l-12 -94h307l348 4l-129 -973q-55 -397 -401 -553l-125 195q77 79 121 176t63 229l90 676h-307
l-162 -1241h-344l160 1241h-293l-166 -1241h-344l162 1241h-135zM885 1063q13 100 41 174q-93 33 -181 33q-51 0 -86 -17q-49 -58 -65 -176l-10 -69h295z" />
    <glyph glyph-name="f_f_k" unicode="ffk" horiz-adv-x="2433" 
d="M102 1008h134l4 30q31 229 148 359.5t329 130.5q168 0 321 -92q117 123 310 123q135 0 282 -56l297 37l-123 -922l316 390h334q-3 -67 -80 -144l-291 -303l219 -403q44 -77 37 -158h-354l-158 344l-66 -45l-39 -299h-346l172 1280q-82 20 -159 20q-53 0 -86 -16
q-50 -62 -66 -182l-12 -94h159l-30 -246h-162l-162 -1241h-344l160 1241h-293l-166 -1241h-344l162 1241h-135zM885 1063q13 96 39 174q-90 33 -179 33q-51 0 -86 -17q-49 -58 -65 -176l-10 -69h295z" />
    <glyph glyph-name="f_f_l" unicode="ffl" horiz-adv-x="1955" 
d="M885 1063q13 96 39 174q-90 33 -179 33q-51 0 -86 -17q-49 -58 -65 -176l-10 -69h295zM1614 -23q-118 0 -169 71.5t-32 211.5l133 1020q-90 20 -157 20q-56 0 -89 -16q-46 -55 -63 -182l-12 -94h157l-30 -246h-160l-162 -1241h-344l160 1241h-293l-166 -1241h-344
l162 1241h-135l32 246h134l4 30q31 229 148 359.5t329 130.5q170 0 323 -92q117 123 308 123q139 0 278 -56l299 37l-153 -1169q-9 -73 16 -95q30 0 74 7l18 -254q-127 -52 -266 -52z" />
    <glyph glyph-name="f_f_t" unicode="fft" horiz-adv-x="2127" 
d="M102 1008h134l4 30q31 229 148 359.5t329 130.5q92 0 177 -27.5t142 -64.5q110 123 279 123q147 0 260 -76l-94 -213q-50 20 -105 20q-43 0 -76 -20q-46 -52 -63 -168l-12 -94h297l133 311h246l-41 -311h272l-33 -246h-274l-49 -373q-11 -100 22 -129q67 0 195 29
l55 -193q-72 -49 -178.5 -84t-218.5 -35q-129 0 -191.5 83.5t-42.5 238.5l62 463h-287l-162 -1241h-344l160 1241h-293l-166 -1241h-344l162 1241h-135zM885 1063q13 96 39 174q-90 33 -179 33q-51 0 -86 -17q-49 -58 -65 -176l-10 -69h295z" />
    <glyph glyph-name="T_h" unicode="Th" horiz-adv-x="2060" 
d="M1159 1532l361 8l-88 -661q157 157 331 157q97 0 151 -42.5t65 -116.5t-1 -175l-92 -702h-360l82 614q14 117 -13 138q-100 -17 -194 -99l-86 -653h-359l146 1104h-307l-146 -1104h-362l145 1104h-338l17 268h1028z" />
    <glyph glyph-name="uni021A_h" unicode="&#x21a;h" horiz-adv-x="2060" 
d="M1159 1532l361 8l-88 -661q157 157 331 157q97 0 151 -42.5t65 -116.5t-1 -175l-92 -702h-360l82 614q14 117 -13 138q-100 -17 -194 -99l-86 -653h-359l146 1104h-307l-146 -1104h-362l145 1104h-338l17 268h1028zM377 -588l-164 94q85 145 88 299q2 16 2 50l279 12
q2 -18 2 -57q0 -120 -53.5 -222t-153.5 -176z" />
    <glyph glyph-name="uni0162_h" unicode="&#x162;h" horiz-adv-x="2060" 
d="M1159 1532l361 8l-88 -661q157 157 331 157q97 0 151 -42.5t65 -116.5t-1 -175l-92 -702h-360l82 614q14 117 -13 138q-100 -17 -194 -99l-86 -653h-359l146 1104h-307l-146 -1104h-69l-54 -94h31q101 -2 158.5 -45.5t56.5 -126.5q0 -124 -140 -211t-362 -96l-34 159
q243 56 262 154q-22 22 -72 22q-44 0 -84 -10l-63 92l77 156h-69l145 1104h-338l17 268h1028z" />
    <glyph glyph-name="jacute" unicode="&#xfc00;" horiz-adv-x="567" arabic-form="isolated" 
d="M160 1006l360 6l-129 -973q-27 -196 -135 -335t-276 -218l-148 195q174 169 205 405zM735 1413l-141 199l-422 -344l109 -152l452 268z" />
    <glyph glyph-name="Jacute" unicode="&#xfc01;" horiz-adv-x="618" arabic-form="isolated" 
d="M236 1372h364l-172 -1296q-18 -142 -70 -247t-132 -169t-179.5 -95.5t-220.5 -33.5l-43 248q67 17 111 37.5t81.5 55.5t59 89t31.5 133zM799 1675l-94 226l-490 -224l72 -178l510 152z" />
    <glyph glyph-name=".notdef" horiz-adv-x="1269" 
d="M1128 1358v-1358h-966v1358h966zM645 766l330 494h-660zM702 678l330 -496v989zM645 592l-330 -494h660zM586 678l-328 493v-989z" />
    <glyph glyph-name=".null" horiz-adv-x="0" 
 />
    <glyph glyph-name="uni000D" unicode="&#xd;" horiz-adv-x="0" 
 />
    <glyph glyph-name="NULL" horiz-adv-x="0" 
 />
    <glyph glyph-name="NULL" horiz-adv-x="0" 
 />
    <glyph glyph-name="space" unicode=" " horiz-adv-x="344" 
 />
    <glyph glyph-name="exclam" unicode="!" horiz-adv-x="600" 
d="M594 1372l-168 -915l-297 2l80 913h385zM55 129q0 82 56.5 141.5t152.5 59.5q80 0 122 -40.5t42 -103.5q0 -93 -61 -151t-150 -58q-76 0 -119 42.5t-43 109.5z" />
    <glyph glyph-name="quotedbl" unicode="&#x22;" horiz-adv-x="942" 
d="M1001 1632l-141 -600l-268 15l35 585h374zM580 1632l-142 -600l-268 15l35 585h375z" />
    <glyph glyph-name="numbersign" unicode="#" horiz-adv-x="1253" 
d="M676 991l-49 -155h184l63 202l250 -47l-49 -155h139l-30 -244h-185l-57 -191h143l-30 -243h-189l-63 -203l-248 49l47 154h-186l-64 -203l-248 49l48 154h-136l31 243h180l60 191h-140l31 244h184l64 204zM678 401l59 191h-186l-59 -191h186z" />
    <glyph glyph-name="dollar.alt" unicode="$" horiz-adv-x="1107" 
d="M295 -168l24 178q-179 24 -309 115l105 242q182 -93 342 -93q74 0 124.5 20t71.5 54q3 40 -18 76.5t-54.5 63.5t-88.5 61q-64 40 -106.5 69.5t-93 73.5t-80 85t-49.5 95t-20 113q0 153 94.5 246t260.5 125l24 184h361l-25 -182q138 -24 240 -82l-101 -240
q-171 62 -295 62q-155 0 -188 -62q-1 -34 10.5 -62t38.5 -53.5t54.5 -45t72.5 -47.5q14 -9 21 -13q164 -97 235.5 -185.5t71.5 -207.5q0 -149 -89 -250t-247 -143l-27 -197h-360z" />
    <glyph glyph-name="percent" unicode="%" horiz-adv-x="1724" 
d="M811 1079q0 -132 -47.5 -241t-144 -176.5t-226.5 -67.5q-138 0 -215.5 84t-77.5 233q0 134 48.5 244t144.5 178t223 68q144 0 219.5 -89t75.5 -233zM369 891q0 -56 13.5 -82.5t43.5 -26.5q25 0 55 19q22 34 42 132t20 171q0 108 -58 108q-25 0 -53 -14
q-23 -34 -43 -131.5t-20 -175.5zM258 63l1069 1364l164 -116l-1069 -1364zM1649 457q0 -132 -48 -241t-144.5 -177t-225.5 -68q-138 0 -216.5 84.5t-78.5 233.5q0 133 49 243.5t145.5 178t223.5 67.5q144 0 219.5 -88.5t75.5 -232.5zM1206 268q0 -108 56 -108q30 0 57 18
q21 33 40 131t19 172q0 55 -13 82t-44 27q-24 0 -51 -17q-23 -32 -43.5 -129.5t-20.5 -175.5z" />
    <glyph glyph-name="ampersand" unicode="&#x26;" horiz-adv-x="1476" 
d="M233 995q0 177 124.5 290.5t340.5 113.5q164 -1 255 -79t91 -204q0 -135 -88.5 -246.5t-224.5 -189.5q99 -117 191 -217q94 121 151 364h313q-7 -138 -79 -278t-191 -260q63 -29 125 -29q44 0 102 16l56 -227q-42 -32 -107 -54t-139 -22q-90 0 -153 30.5t-134 92.5
q-218 -123 -428 -123q-197 0 -303 80.5t-106 227.5q0 260 303 428q-99 168 -99 286zM553 1014q0 -73 49 -166q131 93 131 215q0 38 -21 62t-59 24q-37 0 -78 -25q-22 -36 -22 -110zM518 238q91 0 162 32q-120 123 -227 262q-80 -76 -80 -167q0 -60 37.5 -93.5t107.5 -33.5z
" />
    <glyph glyph-name="quotesingle" unicode="'" horiz-adv-x="520" 
d="M580 1632l-142 -600l-268 15l35 585h375z" />
    <glyph glyph-name="parenleft" unicode="(" horiz-adv-x="755" 
d="M334 -453q-148 226 -210.5 463.5t-62.5 450.5q0 201 43.5 399t120.5 369.5t175.5 318t215.5 267.5l250 -164q-87 -116 -159 -244t-133.5 -280.5t-96.5 -327t-35 -350.5q0 -400 172 -760z" />
    <glyph glyph-name="parenright" unicode=")" horiz-adv-x="755" 
d="M442 1815q78 -118 133.5 -245t85 -246t42 -221.5t12.5 -201.5q0 -201 -43 -399t-119.5 -369.5t-175 -318.5t-215.5 -267l-252 164q87 116 159.5 244t134.5 280.5t97 327t35 350.5q0 163 -39 361.5t-133 398.5z" />
    <glyph glyph-name="asterisk" unicode="*" horiz-adv-x="880" 
d="M889 1217l-78 -213l-184 83l69 -192l-225 -51l-20 200l-138 -167l-147 165l174 129l-195 33l66 223l190 -79l-63 194l231 45l15 -203l159 162l129 -174l-178 -112z" />
    <glyph glyph-name="plus" unicode="+" 
d="M399 137l39 295h-276l35 248h274l39 295h276l-38 -295h274l-35 -248h-272l-39 -295h-277z" />
    <glyph glyph-name="comma" unicode="," horiz-adv-x="565" 
d="M420 168q-22 -169 -130 -303.5t-280 -206.5l-123 145q80 85 118.5 164t53.5 189q9 100 13 155l352 15q7 -75 -4 -158z" />
    <glyph glyph-name="hyphen" unicode="-" horiz-adv-x="692" 
d="M106 633h492l-33 -246h-491z" />
    <glyph glyph-name="period" unicode="." horiz-adv-x="544" 
d="M20 139q0 92 62 157.5t164 65.5q87 0 132.5 -43.5t45.5 -113.5q0 -104 -66 -169t-161 -65q-83 0 -130 47.5t-47 120.5z" />
    <glyph glyph-name="slash" unicode="/" horiz-adv-x="993" 
d="M1049 1391l-789 -1633l-303 140l791 1630z" />
    <glyph glyph-name="zero" unicode="0" horiz-adv-x="1214" 
d="M72 512q0 76 11.5 159t37.5 169.5t63 167.5t91.5 152.5t119.5 125t150 84.5t180 31q110 0 195 -42.5t137.5 -117t79 -171t26.5 -210.5q1 -116 -21 -235.5t-73 -237.5t-124.5 -210t-185 -149t-245.5 -57q-111 0 -197 42.5t-138.5 117t-79 171t-27.5 210.5zM795 885
q0 241 -115 241q-46 0 -82 -18q-63 -75 -109.5 -257.5t-46.5 -356.5q0 -248 117 -248q51 0 88 22q62 78 104 257.5t44 359.5z" />
    <glyph glyph-name="one" unicode="1" horiz-adv-x="956" 
d="M131 1243l381 129h305l-145 -1102h194l-14 -270h-815l16 270h256l101 777l-230 -46z" />
    <glyph glyph-name="two" unicode="2" horiz-adv-x="995" 
d="M139 1276q191 125 428 125q182 0 290 -95.5t108 -267.5q0 -90 -32.5 -178.5t-100.5 -182t-154.5 -183.5t-212.5 -203l-23 -21h422l-16 -270h-815l6 270q222 194 296 267q226 222 257 379q6 28 6 55q0 68 -39.5 106.5t-112.5 38.5q-109 0 -229 -61z" />
    <glyph glyph-name="three" unicode="3" horiz-adv-x="1026" 
d="M152 1280q180 121 419 121q173 0 282.5 -82.5t109.5 -226.5q0 -114 -59 -205t-169 -150q95 -41 146 -120.5t51 -180.5q0 -204 -160.5 -334.5t-425.5 -130.5q-190 0 -346 78l82 248q141 -41 242 -41q118 0 190 35q49 52 49 143q0 137 -198 137h-111l14 248q92 0 135 6
q87 3 140 50t53 126q0 56 -36.5 86.5t-106.5 30.5q-99 0 -228 -55z" />
    <glyph glyph-name="four" unicode="4" horiz-adv-x="1171" 
d="M27 537l655 835h381l-113 -856h142l-13 -270h-164l-32 -246h-355l33 246h-522zM545 799l-219 -283h270l59 436h-2z" />
    <glyph glyph-name="five" unicode="5" horiz-adv-x="1024" 
d="M350 -29q-91 0 -168 14.5t-109 27.5t-73 34l86 248q136 -39 256 -39q110 0 174 39q57 57 57 170q0 143 -186 143q-102 0 -219 -22l-45 22l100 764h781l-41 -287h-445l-31 -233q50 4 72 4q168 0 276.5 -91t108.5 -267q0 -159 -80.5 -280t-214.5 -184t-299 -63z" />
    <glyph glyph-name="six" unicode="6" horiz-adv-x="1114" 
d="M803 1395q85 0 152.5 -15t101.5 -34l-74 -263q-76 21 -156 21q-96 0 -180 -33q-111 -69 -172 -289q41 25 105 42.5t127 17.5q151 0 244.5 -89.5t92.5 -254.5q-1 -151 -71 -271.5t-194 -188t-279 -67.5q-201 0 -316.5 130.5t-115.5 347.5q0 109 19.5 218.5t57.5 216
t100 198.5t141 162t186.5 110.5t230.5 40.5zM541 246q60 0 100 28q45 68 45 205q2 62 -28 96.5t-85 34.5q-71 0 -135 -37q-8 -65 -8 -145q0 -87 28 -134.5t83 -47.5z" />
    <glyph glyph-name="seven" unicode="7" horiz-adv-x="948" 
d="M399 -53l-333 149l520 989h-465l20 287h820l16 -285z" />
    <glyph glyph-name="eight" unicode="8" horiz-adv-x="1153" 
d="M178 995q0 171 140.5 288.5t373.5 117.5q179 0 289.5 -87t110.5 -227q0 -112 -59.5 -206t-174.5 -158q96 -64 149.5 -139t53.5 -176q0 -67 -23 -129.5t-70.5 -118.5t-115 -98t-164 -66.5t-209.5 -24.5q-201 0 -322.5 90.5t-121.5 241.5q0 124 74 225.5t219 169.5
q-150 119 -150 297zM522 1008q0 -103 144 -179q106 90 106 201q0 52 -31 78.5t-88 26.5q-60 0 -98 -23q-33 -41 -33 -104zM522 238q88 0 135 28q39 49 39 107q0 67 -47 113.5t-131 93.5q-139 -103 -139 -218q0 -64 39 -94t104 -30z" />
    <glyph glyph-name="nine" unicode="9" horiz-adv-x="1114" 
d="M565 760q71 0 133 35q9 76 9 145q0 184 -109 184q-62 0 -102 -28q-45 -74 -45 -205q0 -63 29 -97t85 -34zM334 -25q-84 0 -151.5 15.5t-102.5 34.5l76 262q76 -21 155 -21q94 0 181 33q109 68 170 287q-42 -25 -105.5 -41.5t-126.5 -16.5q-151 0 -245 89.5t-93 252.5
q1 151 71.5 271.5t194.5 188t279 67.5q201 0 317.5 -129t116.5 -346q0 -109 -19.5 -218.5t-58 -216t-101 -199t-141.5 -162.5t-186.5 -110.5t-230.5 -40.5z" />
    <glyph glyph-name="colon" unicode=":" horiz-adv-x="555" 
d="M121 780q0 84 57.5 144.5t153.5 60.5q78 0 120 -41t42 -104q0 -94 -61 -152.5t-150 -58.5q-76 0 -119 42t-43 109zM33 129q0 84 57.5 144.5t151.5 60.5q80 0 122 -41t42 -105q0 -94 -61 -152.5t-150 -58.5q-76 0 -119 42.5t-43 109.5z" />
    <glyph glyph-name="semicolon" unicode=";" horiz-adv-x="579" 
d="M121 780q0 84 57.5 144.5t151.5 60.5q80 0 122 -41t42 -104q0 -94 -61 -152.5t-150 -58.5q-76 0 -119 42t-43 109zM434 168q-22 -169 -129.5 -303.5t-279.5 -206.5l-123 145q80 85 118.5 164t53.5 189q2 25 6 79t6 76l352 15q7 -75 -4 -158z" />
    <glyph glyph-name="less" unicode="&#x3c;" 
d="M205 696l715 351l114 -230l-508 -258l418 -256l-147 -219l-627 354z" />
    <glyph glyph-name="equal" unicode="=" 
d="M240 862h792l-35 -246h-792zM186 489h793l-35 -245h-792z" />
    <glyph glyph-name="greater" unicode="&#x3e;" 
d="M983 432l-715 -348l-114 229l508 256l-418 258l147 220l627 -355z" />
    <glyph glyph-name="question" unicode="?" horiz-adv-x="921" 
d="M928 1124q0 133 -98.5 205t-266.5 72q-244 0 -434 -107l80 -223q169 57 311 57q27 -18 27 -61q0 -24 -10.5 -49.5t-22.5 -44.5t-39.5 -48t-41 -42t-48.5 -45q-74 -67 -119 -136t-45 -157q0 -43 15 -84l282 -2q4 33 12 65q18 63 62 114t127 122q44 37 73 66.5t64.5 76
t53.5 102.5t18 119zM156 129q0 82 56.5 141.5t152.5 59.5q79 0 121 -40.5t42 -103.5q0 -93 -61 -151t-150 -58q-76 0 -118.5 42.5t-42.5 109.5z" />
    <glyph glyph-name="at" unicode="@" horiz-adv-x="1687" 
d="M428 389q0 148 56.5 267.5t163.5 190.5t245 71q175 0 352 -107l-67 -518q103 26 157 131.5t54 263.5q0 165 -112 263t-339 98q-307 1 -485.5 -183.5t-178.5 -490.5q0 -207 112.5 -318.5t315.5 -111.5q184 0 326 51l64 -158q-67 -39 -173.5 -66.5t-232.5 -27.5
q-139 1 -256 42t-202.5 117t-133 190.5t-47.5 256.5q0 202 71 372.5t194 285.5t291.5 178.5t361.5 62.5q158 0 283 -40.5t205.5 -112.5t122.5 -169.5t42 -213.5q0 -133 -38.5 -242.5t-103 -182t-150.5 -120t-179.5 -65t-190.5 -9.5l-36 109q-116 -119 -246 -119
q-112 0 -179 81t-67 224zM780 295q45 0 117 53l47 357q-38 6 -61 6q-35 0 -76 -13q-22 -34 -47 -128t-25 -162q0 -99 45 -113z" />
    <glyph glyph-name="A" unicode="A" horiz-adv-x="1257" 
d="M686 1049l-201 -523h263l-29 256l-25 267h-8zM522 1368l426 8l205 -1235q13 -88 6 -141h-352l-31 264h-391l-100 -264h-348q0 58 47 150z" />
    <glyph glyph-name="B" unicode="B" horiz-adv-x="1212" 
d="M221 1362q217 33 451 33q228 -2 345.5 -82t117.5 -236q0 -100 -54 -191.5t-157 -146.5q102 -34 158.5 -112.5t56.5 -184.5q0 -209 -163.5 -337t-475.5 -128q-134 0 -263.5 10.5t-193.5 22.5zM573 815q94 0 154 31q72 65 72 162q0 127 -158 127q-40 0 -98 -7l-41 -311
q23 -2 71 -2zM520 238q117 0 187 34q65 72 65 174q0 70 -44.5 106t-127.5 36q-86 0 -129 -2l-45 -342q47 -6 94 -6z" />
    <glyph glyph-name="C" unicode="C" horiz-adv-x="1075" 
d="M63 520q0 99 17.5 198t53.5 198.5t95.5 185t137 151.5t186 104t235.5 38q204 0 353 -101l-111 -241q-100 47 -229 47q-118 0 -195 -47q-70 -68 -120 -202t-50 -280q0 -305 244 -305q135 0 244 37l51 -240q-150 -88 -400 -88q-248 0 -380 144t-132 401z" />
    <glyph glyph-name="D" unicode="D" horiz-adv-x="1318" 
d="M221 1362q169 33 441 33q303 0 457.5 -155t154.5 -433q0 -130 -29.5 -248.5t-94 -225.5t-159 -185.5t-234 -124.5t-308.5 -46q-257 0 -406 35zM899 809q0 151 -60 231t-177 80q-58 0 -117 -6l-115 -860q23 -2 74 -2q139 0 225 55q76 79 123 217t47 285z" />
    <glyph glyph-name="E" unicode="E" horiz-adv-x="1062" 
d="M221 1372h877l-43 -268h-504l-37 -279h381l-33 -262h-383l-39 -295h502l-14 -268h-887z" />
    <glyph glyph-name="F" unicode="F" horiz-adv-x="1052" 
d="M221 1372h877l-47 -268h-500l-47 -352h387l-35 -263h-387l-63 -489h-365z" />
    <glyph glyph-name="G" unicode="G" horiz-adv-x="1214" 
d="M805 680h338l-80 -614h-2q-208 -93 -447 -93q-261 0 -405.5 153.5t-142.5 405.5q0 105 19.5 207.5t58.5 200t101 179.5t142 144t188 97t232 35q139 0 232 -27.5t171 -79.5l-120 -237q-122 49 -267 49q-132 0 -215 -49q-78 -78 -124 -206.5t-46 -275.5q0 -49 6.5 -92
t24.5 -85.5t46.5 -72.5t74.5 -48.5t106 -18.5q36 0 54 2z" />
    <glyph glyph-name="H" unicode="H" horiz-adv-x="1351" 
d="M969 1372h364l-180 -1372h-365l74 555h-383l-73 -555h-365l180 1372h365l-70 -536h383z" />
    <glyph glyph-name="I" unicode="I" horiz-adv-x="606" 
d="M221 1372h365l-180 -1372h-365z" />
    <glyph glyph-name="J" unicode="J" horiz-adv-x="618" 
d="M236 1372h364l-172 -1296q-18 -142 -70 -247t-132 -169t-179.5 -95.5t-220.5 -33.5l-43 248q67 17 111 37.5t81.5 55.5t59 89t31.5 133z" />
    <glyph glyph-name="K" unicode="K" horiz-adv-x="1230" 
d="M963 1372h350q0 -67 -66 -139l-463 -483l297 -566q59 -109 56 -184h-355l-159 350l-74 154l-98 -105l-54 -399h-356l180 1372h357l-72 -551z" />
    <glyph glyph-name="L" unicode="L" horiz-adv-x="944" 
d="M221 1372h365l-144 -1091h424l-20 -281h-805z" />
    <glyph glyph-name="M" unicode="M" horiz-adv-x="1759" 
d="M1165 1372h475l-12 -1233q0 -96 -4 -139h-336l23 694l20 320h-8l-317 -1014h-410l-53 696l-6 318h-9l-217 -1014h-319q0 35 20 125l312 1247h475l55 -723l4 -266h10z" />
    <glyph glyph-name="N" unicode="N" horiz-adv-x="1368" 
d="M221 1372h367l282 -698l76 -234h2l23 320l82 612h297l-183 -1372h-354l-295 719l-69 221h-5l-20 -305l-84 -635h-299z" />
    <glyph glyph-name="O" unicode="O" horiz-adv-x="1314" 
d="M61 518q0 76 12.5 158t40 168.5t68 166.5t100.5 151.5t132.5 124t168.5 83.5t205 31q120 0 214 -44.5t152 -123.5t88 -180.5t30 -221.5q0 -94 -17.5 -190.5t-52.5 -194.5t-94 -182.5t-136 -150.5t-185.5 -104t-235.5 -38q-121 0 -216 42.5t-154 117t-89.5 173
t-30.5 214.5zM899 844q0 282 -168 282q-65 0 -133 -39q-70 -87 -116 -250.5t-48 -312.5q0 -135 43 -206.5t127 -71.5q78 0 146 45q65 87 107 250t42 303z" />
    <glyph glyph-name="P" unicode="P" horiz-adv-x="1183" 
d="M559 668q107 0 164 41q90 87 90 241q0 86 -47.5 130t-122.5 44q-43 0 -90 -6l-59 -446q40 -4 65 -4zM221 1360q178 35 418 35q118 0 214 -23.5t169 -72t113.5 -128.5t40.5 -186q0 -93 -25.5 -179t-77 -160t-124.5 -128.5t-173 -85.5t-217 -31q-51 0 -100 9l-53 -410h-365
z" />
    <glyph glyph-name="Q" unicode="Q" horiz-adv-x="1314" 
d="M61 518q0 76 12.5 158t40 168.5t68 166.5t100.5 151.5t132.5 124t168.5 83.5t205 31q120 0 214 -44.5t152 -123.5t88 -180.5t30 -221.5q0 -97 -17.5 -196t-57.5 -200t-98.5 -185.5t-147.5 -151t-197 -98.5q39 -74 96 -101.5t149 -27.5q45 0 103 8l39 -237
q-36 -20 -101.5 -34t-140.5 -14q-164 0 -265 101.5t-140 277.5q-142 13 -241.5 89.5t-145.5 192.5t-46 263zM899 844q0 282 -168 282q-65 0 -133 -39q-70 -87 -116 -250.5t-48 -312.5q0 -135 43 -206.5t127 -71.5q78 0 146 45q65 87 107 250t42 303z" />
    <glyph glyph-name="R" unicode="R" horiz-adv-x="1202" 
d="M557 713q104 0 168 39q84 84 84 221q0 73 -43 112t-125 39q-49 0 -98 -6l-51 -401q40 -4 65 -4zM221 1360q199 35 426 35q251 0 389 -101.5t138 -304.5q0 -150 -75.5 -270t-211.5 -189l157 -391q36 -76 33 -139h-358l-139 457h-27q-30 0 -96 4l-60 -461h-356z" />
    <glyph glyph-name="S" unicode="S" horiz-adv-x="1062" 
d="M133 987q0 192 140 303t384 111q234 0 408 -92l-102 -248q-155 59 -291 59q-92 0 -152 -47q-16 -31 -16 -57q0 -49 42 -92t132 -99q74 -47 122.5 -85.5t93 -90t66 -113.5t21.5 -137q0 -198 -149 -313t-394 -115q-136 0 -253.5 33.5t-198.5 83.5l106 248q73 -35 165 -59.5
t173 -24.5q57 0 104 15.5t70 43.5q10 27 10 58q0 53 -42 95.5t-138 102.5q-72 45 -122.5 86t-93 92t-64 111.5t-21.5 130.5z" />
    <glyph glyph-name="T" unicode="T" horiz-adv-x="1122" 
d="M123 1372h1059l-39 -280h-334l-143 -1092h-365l143 1092h-338z" />
    <glyph glyph-name="U" unicode="U" horiz-adv-x="1290" 
d="M920 1372h362l-106 -815q-18 -137 -60 -241t-115 -183.5t-186 -120.5t-264 -41q-77 0 -141.5 13t-111.5 37.5t-84 56.5t-60.5 72.5t-38.5 83.5t-21 91.5t-5 94.5t7 94l113 858h364l-114 -868q-5 -39 -6.5 -69.5t4 -68t20.5 -62t46 -41.5t77 -17q85 0 139 41q46 64 62 190
z" />
    <glyph glyph-name="V" unicode="V" horiz-adv-x="1245" 
d="M971 1372h350q-2 -62 -64 -209l-493 -1159l-445 -8l-182 1161q-26 148 -22 215h366l86 -739l23 -277h8z" />
    <glyph glyph-name="W" unicode="W" horiz-adv-x="1906" 
d="M1636 1372h326q-2 -63 -49 -188l-432 -1180l-422 -8l-49 762v252h-11l-284 -1006l-426 -8l-152 1180q-17 128 -12 196h360l60 -731l6 -268h10l289 999h430l41 -731l-2 -268h10z" />
    <glyph glyph-name="X" unicode="X" horiz-adv-x="1228" 
d="M154 1372h362l100 -354l35 -164h6l285 518h348q-2 -57 -63 -145l-359 -549l205 -504q43 -108 41 -174h-362l-113 352l-41 164h-10l-281 -516h-348q1 23 10.5 49.5t19.5 44t31 53.5l349 570l-179 481q-36 96 -36 174z" />
    <glyph glyph-name="Y" unicode="Y" horiz-adv-x="1167" 
d="M909 1372h346q-5 -40 -20 -73.5t-51 -96.5l-436 -735l-62 -467h-364l65 498l-244 696q-42 113 -37 178h357l110 -411l39 -187h4z" />
    <glyph glyph-name="Z" unicode="Z" horiz-adv-x="1144" 
d="M174 1372h965l2 -285l-692 -811h581l-14 -276h-1000l-4 276l697 820h-553z" />
    <glyph glyph-name="bracketleft" unicode="[" horiz-adv-x="843" 
d="M911 1518l-282 -11l-215 -1650l278 -11l-33 -249h-651l287 2170h651z" />
    <glyph glyph-name="backslash" unicode="\" horiz-adv-x="1339" 
d="M1221 -102l-303 -140l-789 1633l303 137z" />
    <glyph glyph-name="bracketright" unicode="]" horiz-adv-x="841" 
d="M-47 -154l283 11l215 1650l-279 11l33 249h651l-287 -2170h-649z" />
    <glyph glyph-name="asciicircum" unicode="^" horiz-adv-x="1034" 
d="M492 1366l225 6l278 -586l-209 -131l-211 355l-303 -353l-182 144z" />
    <glyph glyph-name="underscore" unicode="_" horiz-adv-x="991" 
d="M-113 -319l33 247h989l-30 -247h-992z" />
    <glyph glyph-name="grave" unicode="`" horiz-adv-x="817" 
d="M743 1268l-421 344l-140 -199l2 -29l449 -268z" />
    <glyph glyph-name="a" unicode="a" horiz-adv-x="1101" 
d="M444 244q85 15 166 84l58 444q-46 4 -64 4q-60 0 -94 -12q-52 -65 -80.5 -170.5t-28.5 -210.5q0 -109 43 -139zM37 324q0 324 169.5 517t450.5 193q190 0 390 -90l-68 -522q-23 -158 -35 -402l-278 -38l-39 161q-164 -170 -332 -170q-131 0 -194.5 95t-63.5 256z" />
    <glyph glyph-name="b" unicode="b" horiz-adv-x="1107" 
d="M225 1532l359 8l-84 -633q150 129 291 129q68 0 118.5 -27.5t80 -77.5t43.5 -113t14 -140q0 -207 -74.5 -365t-219 -247t-341.5 -89t-383 74zM477 231q55 0 98 15q49 65 78 162.5t29 207.5q0 124 -43 148q-79 -8 -168 -80l-59 -446q40 -7 65 -7z" />
    <glyph glyph-name="c" unicode="c" horiz-adv-x="892" 
d="M41 379q1 101 25 196t71.5 177.5t114 144.5t158 97.5t196.5 35.5q173 0 293 -96l-111 -223q-92 47 -192 47q-61 0 -92 -10q-43 -50 -72 -149.5t-29 -203.5q0 -109 46 -151q117 -3 282 49l53 -213q-74 -41 -176.5 -72t-214.5 -31q-165 0 -259 104t-93 298z" />
    <glyph glyph-name="d" unicode="d" horiz-adv-x="1105" 
d="M444 244q81 12 166 80l58 448q-46 4 -64 4q-60 0 -94 -12q-50 -65 -78.5 -168.5t-28.5 -202.5q0 -116 41 -149zM39 326q-2 324 168.5 516t460.5 192h32l66 498l358 8l-141 -1087q-21 -166 -39 -433l-272 -38l-43 161q-174 -170 -336 -170q-128 0 -191 96t-63 257z" />
    <glyph glyph-name="e" unicode="e" horiz-adv-x="1005" 
d="M41 377q0 103 25.5 200.5t77 180.5t122.5 145t168.5 97.5t208.5 35.5q156 0 241 -72t85 -202q0 -99 -48 -173t-132 -118t-182 -67t-214 -29q7 -92 41 -137q173 -3 371 77l67 -206q-102 -61 -223.5 -96.5t-238.5 -35.5q-177 0 -273 103.5t-96 296.5zM492 782
q-67 -98 -89 -233q113 13 183.5 55t70.5 113q0 82 -79 82q-48 0 -86 -17z" />
    <glyph glyph-name="f" unicode="f" horiz-adv-x="786" 
d="M102 1008h134l6 55q30 224 148 360t323 136q171 0 284 -80l-94 -215q-76 26 -149 26q-52 0 -92 -18q-39 -54 -56 -170l-12 -94h213l-31 -246h-215l-162 -1241h-356l160 1241h-133z" />
    <glyph glyph-name="g" unicode="g" horiz-adv-x="1097" 
d="M446 244q79 13 164 80l58 448q-50 4 -68 4q-63 0 -90 -12q-51 -66 -80 -168t-29 -211q0 -114 45 -141zM39 344q-1 201 75.5 358t218 244.5t324.5 87.5q184 0 390 -90l-107 -821q-42 -311 -183 -475t-407 -164q-204 0 -370 92l90 244q157 -53 299 -53q63 0 104 14
q44 51 68 127.5t41 195.5q-143 -118 -287 -118q-253 0 -256 358z" />
    <glyph glyph-name="h" unicode="h" horiz-adv-x="1128" 
d="M229 1532l359 8l-86 -661q157 157 332 157q97 0 151 -42.5t65 -116.5t-1 -175l-93 -702h-360l82 614q14 118 -14 138q-94 -16 -193 -99l-86 -653h-358z" />
    <glyph glyph-name="i" unicode="i" horiz-adv-x="565" 
d="M160 1006l358 6l-135 -1012h-356zM195 1282q0 88 62 142.5t155 54.5q70 0 110.5 -36t40.5 -93q0 -89 -61.5 -143t-153.5 -54q-72 0 -112.5 35.5t-40.5 93.5z" />
    <glyph glyph-name="j" unicode="j" horiz-adv-x="567" 
d="M160 1006l360 6l-129 -973q-27 -196 -135 -335t-276 -218l-148 195q174 169 205 405zM199 1282q0 88 62 142.5t155 54.5q70 0 110.5 -36t40.5 -93q0 -89 -61.5 -143t-153.5 -54q-72 0 -112.5 35.5t-40.5 93.5z" />
    <glyph glyph-name="k" unicode="k" horiz-adv-x="1093" 
d="M229 1532l357 8l-121 -922l315 390h334q-3 -67 -80 -144l-291 -301l220 -405q43 -75 36 -158h-354l-158 344l-65 -47l-39 -297h-356z" />
    <glyph glyph-name="l" unicode="l" horiz-adv-x="608" 
d="M266 -23q-123 0 -176.5 71.5t-34.5 211.5l166 1272l359 8l-154 -1169q-9 -74 14 -95q34 0 74 7l21 -254q-136 -52 -269 -52z" />
    <glyph glyph-name="m" unicode="m" horiz-adv-x="1699" 
d="M141 987l275 37l51 -178q85 91 182 140.5t193 49.5q98 0 148.5 -42.5t62.5 -127.5q175 170 360 170q132 0 179 -83.5t26 -245.5l-92 -707h-361l82 633q12 96 -14 119q-93 -14 -191 -103l-84 -649h-360l80 633q13 95 -14 119q-86 -13 -191 -103l-84 -649h-358l71 547
q16 145 39 440z" />
    <glyph glyph-name="n" unicode="n" horiz-adv-x="1132" 
d="M141 987l275 37l51 -176q86 91 182.5 139.5t190.5 48.5q99 0 152 -43.5t62 -119t-3 -177.5l-90 -696h-361l82 614q14 117 -12 138q-96 -16 -197 -103l-84 -649h-358l71 547q16 145 39 440z" />
    <glyph glyph-name="o" unicode="o" horiz-adv-x="1095" 
d="M39 389q1 83 20.5 168.5t65 172.5t111 154t167 109.5t224.5 42.5q103 0 182.5 -32.5t127.5 -89.5t72.5 -131t24.5 -162q-1 -83 -20.5 -168.5t-65 -173t-111 -155.5t-167 -110.5t-224.5 -42.5q-198 0 -302.5 117t-104.5 301zM676 625q0 166 -105 166q-43 0 -77 -17
q-42 -63 -68.5 -176t-26.5 -213q0 -75 27 -121.5t78 -46.5q46 0 78 19q42 64 68 176t26 213z" />
    <glyph glyph-name="p" unicode="p" horiz-adv-x="1110" 
d="M481 231q62 0 99 13q52 65 80 170t28 211q0 109 -43 139q-81 -12 -166 -78l-61 -450q57 -5 63 -5zM1051 682q1 -323 -171.5 -515t-453.5 -192q-29 0 -41 2l-61 -456h-359l139 1040q19 150 37 426l271 39l45 -158q81 79 168 123.5t166 44.5q91 0 150.5 -47.5t84.5 -124.5
t25 -182z" />
    <glyph glyph-name="q" unicode="q" horiz-adv-x="1099" 
d="M39 328q0 163 45.5 296.5t127 223.5t196 138.5t251.5 47.5q186 0 392 -90l-187 -1423h-356l76 579q-144 -127 -287 -127q-126 0 -192 93.5t-66 261.5zM446 244q85 17 166 86l58 440q-35 6 -66 6q-50 0 -96 -12q-47 -66 -76 -168t-29 -205q0 -121 43 -147z" />
    <glyph glyph-name="r" unicode="r" horiz-adv-x="806" 
d="M141 987l256 37l58 -188q122 192 266 192q71 0 121 -35l-82 -311q-46 16 -90 16q-113 0 -205 -108l-78 -590h-358l75 563q16 135 37 424z" />
    <glyph glyph-name="s" unicode="s" horiz-adv-x="884" 
d="M94 719q0 98 57 170t149.5 106.5t209.5 34.5q204 0 344 -94l-125 -221q-111 59 -203 59q-49 0 -71 -16q-7 -17 6 -43q6 -14 14.5 -25.5t24 -25t25 -21t33.5 -25t34 -24.5q104 -74 151.5 -135t47.5 -152q0 -150 -118 -240t-313 -90q-225 0 -374 109l120 221
q120 -74 238 -74q56 0 84 19q9 16 0 47q-6 21 -23 40.5t-35.5 34.5t-66.5 50q-41 29 -63 46t-54.5 47.5t-49 57t-29.5 64.5t-13 80z" />
    <glyph glyph-name="t" unicode="t" horiz-adv-x="854" 
d="M55 762l29 215l154 31l133 311h256l-41 -311h272l-33 -246h-272l-49 -373q-14 -99 20 -129q78 0 195 31l57 -195q-72 -49 -178.5 -84t-220.5 -35q-135 0 -199.5 83.5t-44.5 238.5l62 463h-140z" />
    <glyph glyph-name="u" unicode="u" horiz-adv-x="1130" 
d="M967 23l-275 -39l-51 176q-84 -90 -179.5 -139.5t-191.5 -49.5q-133 0 -183 84t-28 250l93 701l360 6l-84 -635q-12 -97 14 -119q93 12 191 98l86 652h360l-71 -547q-16 -122 -41 -438z" />
    <glyph glyph-name="v" unicode="v" horiz-adv-x="1048" 
d="M692 1008h342q2 -25 2 -68q0 -106 -47.5 -250.5t-157 -330t-262.5 -355.5l-346 -8l-135 870q-13 77 -4 142h358l37 -494l2 -215h11q191 358 200 709z" />
    <glyph glyph-name="w" unicode="w" horiz-adv-x="1622" 
d="M88 866q-13 82 -4 142h358l37 -494l2 -215h11q131 246 180 528q-8 126 -6 181h358l39 -502v-207h12q175 346 187 709h350q0 -10 1.5 -33.5t0.5 -38.5q-4 -82 -31.5 -183.5t-80 -221t-142 -257t-205.5 -270.5l-348 -8l-31 436h-8q-75 -252 -197 -428l-350 -8z" />
    <glyph glyph-name="x" unicode="x" horiz-adv-x="1048" 
d="M100 1008h359l69 -240l17 -115h10q141 209 147 355h340q-13 -129 -88 -249.5t-209 -254.5l144 -311q45 -100 45 -193h-359l-73 236l-19 114h-10q-112 -181 -151 -350h-342q13 118 96 258.5t198 259.5l-135 307q-46 116 -39 183z" />
    <glyph glyph-name="y" unicode="y" horiz-adv-x="1062" 
d="M27 -512q-77 0 -123 12l37 283q282 -12 458 246l-155 -2l-158 839q-12 70 -2 142h356l58 -494l10 -219h10q76 152 124 342t52 371h348q2 -18 2 -62q0 -136 -66.5 -343.5t-164.5 -401.5q-356 -713 -786 -713z" />
    <glyph glyph-name="z" unicode="z" horiz-adv-x="940" 
d="M137 1008h781q0 -135 -40.5 -226t-144.5 -192l-338 -344h428l-30 -246h-805q5 60 14 107t27.5 89t35.5 71.5t53 69t64.5 66t83.5 76.5l266 285h-428z" />
    <glyph glyph-name="braceleft" unicode="{" horiz-adv-x="841" 
d="M274 1051q9 70 17 173.5t12 135.5q13 98 52 174t95 124t130.5 78.5t153 42t167.5 9.5l23 -250q-64 -14 -102.5 -27.5t-73.5 -38t-53 -62t-25 -93.5q-5 -48 -11 -132.5t-14 -142.5q-20 -156 -87.5 -239.5t-227.5 -112.5q104 -24 158.5 -73.5t65 -121.5t-2.5 -169
q-8 -62 -26.5 -158t-22.5 -119q-7 -56 2.5 -93.5t39 -62.5t64 -39t94.5 -30l-57 -248q-97 -1 -178 12.5t-150 46t-114.5 83.5t-65 128.5t-6.5 176.5q5 37 23.5 143.5t27.5 173.5q15 116 -18 173.5t-144 96.5q21 162 25 193q123 34 168.5 85t60.5 163z" />
    <glyph glyph-name="bar" unicode="|" horiz-adv-x="606" 
d="M330 -442h-326l287 2183h325z" />
    <glyph glyph-name="braceright" unicode="}" horiz-adv-x="839" 
d="M588 311q-9 -69 -17.5 -172.5t-11.5 -134.5q-13 -98 -52.5 -174.5t-95 -125t-130 -78.5t-153 -41.5t-167.5 -8.5l-22 248q126 29 183 73t71 150q4 39 9 126.5t13 148.5q11 78 29 131.5t53 100t92.5 75.5t140.5 43q-104 24 -158.5 74t-64.5 122.5t2 169.5q7 57 24.5 143
t24.5 134q7 55 -2 92.5t-38 62.5t-64 39t-94 29l57 250q96 1 177 -12.5t150 -46t114.5 -83.5t65.5 -128.5t7 -176.5q-5 -37 -23.5 -143.5t-27.5 -173.5q-15 -117 18 -175t144 -95q-21 -162 -25 -193q-124 -36 -169.5 -87t-59.5 -163z" />
    <glyph glyph-name="asciitilde" unicode="~" horiz-adv-x="1052" 
d="M63 467q47 122 133 193t199 71q59 0 105 -19t95.5 -54t72.5 -46q64 22 137 121l174 -90q-43 -125 -130.5 -196.5t-197.5 -71.5q-57 0 -102 17.5t-95 51.5t-73 45q-76 -22 -143 -112z" />
    <glyph glyph-name="uni00A0" unicode="&#xa0;" horiz-adv-x="344" 
 />
    <glyph glyph-name="exclamdown" unicode="&#xa1;" horiz-adv-x="577" 
d="M-27 -367l168 914h297l-80 -914h-385zM512 877q0 -82 -56.5 -141.5t-152.5 -59.5q-80 0 -122 40t-42 103q0 93 61 151t150 58q76 0 119 -43t43 -108z" />
    <glyph glyph-name="cent.alt" unicode="&#xa2;" horiz-adv-x="985" 
d="M51 379q0 204 101 373.5t272 240.5l25 189h356l-23 -166q110 -24 176 -78l-108 -227q-119 45 -217 45q-49 0 -86 -11q-43 -43 -79 -140t-36 -218q0 -51 15.5 -89.5t37.5 -57.5q60 -1 154 15t154 34l51 -209q-74 -45 -195 -74l-24 -194h-357l25 184q-123 39 -182.5 143
t-59.5 240z" />
    <glyph glyph-name="sterling" unicode="&#xa3;" horiz-adv-x="1091" 
d="M129 817h135q53 287 182.5 432.5t362.5 145.5q184 0 307 -99l-123 -229q-79 35 -168 35q-68 0 -116 -25q-46 -56 -82 -260h225l-37 -266h-235q-44 -165 -127 -279h487l-4 -272h-911l-7 229q72 53 119 123.5t78 198.5h-121z" />
    <glyph glyph-name="currency" unicode="&#xa4;" horiz-adv-x="1089" 
d="M907 584q0 -98 -41 -178l125 -134l-153 -149l-115 127q-77 -47 -180 -47q-99 0 -185 47l-110 -127l-158 149l125 136q-39 83 -39 176q0 94 41 174l-127 123l158 151l114 -117q81 46 181 46q95 0 176 -43l119 114l153 -151l-125 -119q41 -84 41 -178zM401 584
q0 -65 38 -111.5t104 -46.5q64 0 101.5 46.5t37.5 111.5q0 62 -37.5 107.5t-101.5 45.5q-66 0 -104 -45.5t-38 -107.5z" />
    <glyph glyph-name="yen" unicode="&#xa5;" horiz-adv-x="1249" 
d="M1028 209h-278l-27 -209h-365l27 209h-276l24 184h277l16 119h-276l22 186h217l-199 471q-48 107 -45 203h353l92 -305l61 -231l301 536h340q-12 -80 -96 -203l-322 -471h218l-25 -186h-279l-14 -119h277z" />
    <glyph glyph-name="brokenbar" unicode="&#xa6;" horiz-adv-x="602" 
d="M125 487h324l-121 -929h-324zM492 809h-326l123 932h325z" />
    <glyph glyph-name="section" unicode="&#xa7;" horiz-adv-x="1030" 
d="M489 346q33 -19 46 -27q96 72 96 166q0 47 -26.5 79.5t-96.5 74.5q-6 4 -18.5 11.5t-18.5 11.5q-94 -68 -94 -156q0 -97 112 -160zM205 1040q0 165 114 262t308 97q123 0 217.5 -31.5t144.5 -69.5l-112 -219q-50 19 -71.5 26.5t-66 17.5t-82.5 10q-49 0 -77.5 -19
t-28.5 -55q0 -21 11.5 -40.5t40 -41.5t50 -35.5t68.5 -40.5q129 -73 185.5 -156t56.5 -196q0 -234 -244 -381q80 -96 80 -213q0 -175 -117.5 -272t-306.5 -97q-217 0 -363 109l109 219q45 -19 69 -28.5t68.5 -20t85.5 -10.5q107 0 107 71q0 35 -41 69.5t-119 76.5
q-246 138 -246 362q0 236 250 377q-90 108 -90 229z" />
    <glyph glyph-name="dieresis" unicode="&#xa8;" horiz-adv-x="817" 
d="M131 1282q0 84 55.5 138.5t137.5 54.5q65 0 99 -34.5t34 -90.5q0 -85 -55 -139t-138 -54q-64 0 -98.5 34.5t-34.5 90.5zM569 1282q0 84 55 138.5t136 54.5q65 0 99 -34.5t34 -90.5q0 -85 -55 -139t-136 -54q-65 0 -99 34.5t-34 90.5z" />
    <glyph glyph-name="copyright" unicode="&#xa9;" horiz-adv-x="1556" 
d="M1495 686q0 194 -94.5 354t-257 251t-355.5 91q-192 0 -354 -91t-257 -251t-95 -354t95 -354t257 -251t354 -91q193 0 355.5 91t257 251t94.5 354zM270 686q0 145 68.5 265t187.5 188.5t262 68.5q144 0 263 -67t188.5 -187t69.5 -268t-69.5 -268t-188.5 -187t-263 -67
q-143 0 -262 68.5t-187.5 188.5t-68.5 265zM436 672q0 82 24 153.5t70 126.5t119.5 87t165.5 32q87 0 153.5 -30.5t100.5 -71.5l-86 -138q-76 39 -137 39q-71 0 -107 -39q-45 -48 -45 -137q0 -184 170 -184q19 0 40.5 3t30.5 5t36 10t30 9l56 -154q-33 -28 -100 -51
t-152 -23q-167 0 -268 99.5t-101 263.5z" />
    <glyph glyph-name="ordfeminine" unicode="&#xaa;" horiz-adv-x="860" 
d="M414 881q47 10 108 45l31 239q-12 2 -35 2q-42 0 -69 -10q-30 -39 -46 -94.5t-16 -104.5q0 -59 27 -77zM111 915q-1 207 120 322t322 115q137 0 289 -56l-41 -307q-15 -135 -19 -264l-211 -33l-36 107q-115 -109 -236 -109q-91 0 -138.5 62t-49.5 163z" />
    <glyph glyph-name="guillemotleft" unicode="&#xab;" horiz-adv-x="1255" 
d="M49 573l420 435l213 -168l-274 -332l186 -340l-234 -145l-319 444zM588 573l420 435l213 -168l-275 -332l187 -340l-234 -145l-319 444z" />
    <glyph glyph-name="logicalnot" unicode="&#xac;" 
d="M918 47h-308l52 381h-494l35 248h798z" />
    <glyph glyph-name="uni00AD" unicode="&#xad;" horiz-adv-x="692" 
d="M106 633h492l-33 -246h-491z" />
    <glyph glyph-name="registered" unicode="&#xae;" horiz-adv-x="1198" 
d="M1184 1067q0 -142 -69 -259.5t-190.5 -186t-269.5 -68.5t-269.5 68.5t-190 186t-68.5 259.5q0 105 40.5 200t110.5 163.5t168 108.5t209 40q148 0 269.5 -68t190.5 -185.5t69 -258.5zM281 1067q0 -158 108.5 -266.5t265.5 -108.5q158 0 267.5 108.5t109.5 266.5
q0 157 -109.5 265t-267.5 108q-157 0 -265.5 -108t-108.5 -265zM633 1096q35 0 47 6q33 18 33 49q0 55 -76 55h-33v-110h29zM451 1303q85 12 192 12q231 0 231 -156q0 -90 -83 -137l86 -129q20 -26 20 -53h-166l-78 145h-20h-29v-145h-153v463z" />
    <glyph glyph-name="macron" unicode="&#xaf;" horiz-adv-x="817" 
d="M207 1386h637l-29 -221h-637z" />
    <glyph glyph-name="degree" unicode="&#xb0;" horiz-adv-x="708" 
d="M379 1251q-49 -53 -49 -147q0 -109 69 -109q34 0 64 19q43 46 43 145q0 107 -68 107q-29 0 -59 -15zM381 836q-119 0 -187.5 68.5t-68.5 182.5q0 145 99.5 242.5t234.5 97.5q122 0 188 -71t66 -180q0 -145 -98 -242.5t-234 -97.5z" />
    <glyph glyph-name="plusminus" unicode="&#xb1;" 
d="M424 313l35 262h-266l34 248h265l36 287h273l-37 -287h268l-35 -248h-266l-35 -262h-272zM121 0l33 229h802l-34 -229h-801z" />
    <glyph glyph-name="twosuperior" unicode="&#xb2;" horiz-adv-x="724" 
d="M170 1548q151 86 324 86q126 -1 195 -60.5t69 -158.5q0 -62 -25.5 -117t-73.5 -100t-96.5 -78.5t-113.5 -68.5l-19 -11h260l-2 -192h-573l4 192l145 86q106 68 164.5 123.5t58.5 112.5q0 61 -75 61q-71 0 -176 -43z" />
    <glyph glyph-name="threesuperior" unicode="&#xb3;" horiz-adv-x="714" 
d="M176 1571q122 61 295 61q123 0 188.5 -48t65.5 -128q0 -125 -123 -188q57 -25 85 -69t28 -95q0 -125 -99.5 -199t-267.5 -74q-148 0 -254 54l51 168q99 -29 183 -29q54 0 86 14q20 23 20 58q0 30 -24.5 43.5t-79.5 13.5h-86l8 160h74q118 0 118 71q0 52 -75 52
q-65 0 -148 -23z" />
    <glyph glyph-name="acute" unicode="&#xb4;" horiz-adv-x="817" 
d="M868 1413l-141 199l-422 -344l109 -152l452 268z" />
    <glyph glyph-name="uni00B5" unicode="&#xb5;" horiz-adv-x="1331" 
d="M90 254l100 752l361 6l-76 -586q-9 -64 3.5 -111.5t41.5 -66.5q60 0 107.5 69t62.5 187l66 504h360l-76 -590q-16 -117 -4 -160q41 0 131 41l56 -231q-56 -40 -131.5 -67.5t-155.5 -27.5q-185 0 -215 166q-42 -77 -112 -121.5t-154 -44.5q-35 0 -64 13q-13 -257 15 -451
l-351 -33q-29 250 35 752z" />
    <glyph glyph-name="paragraph" unicode="&#xb6;" horiz-adv-x="1275" 
d="M309 -449l117 887q-169 39 -256.5 150t-87.5 266q0 262 182 401.5t524 139.5q236 0 437 -41l-238 -1803h-285l205 1563q-16 1 -104 6l-209 -1569h-285z" />
    <glyph glyph-name="periodcentered" unicode="&#xb7;" horiz-adv-x="497" 
d="M78 518q0 93 55 151t135 58q68 0 105 -38t37 -99q0 -95 -54 -154t-137 -59q-66 0 -103.5 38.5t-37.5 102.5z" />
    <glyph glyph-name="cedilla" unicode="&#xb8;" horiz-adv-x="817" 
d="M156 -156l114 230l205 -41l-72 -127h31q101 -2 158.5 -45.5t56.5 -126.5q0 -124 -140 -211t-362 -96l-36 159q245 56 264 154q-22 22 -72 22q-44 0 -84 -10z" />
    <glyph glyph-name="onesuperior" unicode="&#xb9;" horiz-adv-x="677" 
d="M162 1528l244 94l235 -2l-78 -580h117l-6 -192h-551l10 192h158l45 340l-131 -26z" />
    <glyph glyph-name="ordmasculine" unicode="&#xba;" horiz-adv-x="835" 
d="M109 954q0 49 12.5 100.5t44 106t77.5 96t119.5 68.5t163.5 27q152 0 228.5 -73.5t76.5 -188.5q0 -49 -12.5 -100.5t-44 -106t-77.5 -97t-120 -69.5t-165 -27q-149 0 -226 74.5t-77 189.5zM559 1092q0 88 -70 88q-28 0 -51 -13q-25 -35 -41 -101t-16 -120q0 -38 19 -60
t51 -22q28 0 51 10q26 36 41.5 99.5t15.5 118.5z" />
    <glyph glyph-name="guillemotright" unicode="&#xbb;" horiz-adv-x="1257" 
d="M649 457l-420 -434l-213 167l275 332l-187 340l234 146l321 -445zM1188 457l-420 -434l-213 167l274 332l-186 340l234 146l321 -445z" />
    <glyph glyph-name="onequarter" unicode="&#xbc;" horiz-adv-x="1935" 
d="M199 1282l268 94l235 -2l-77 -579h131l-6 -193h-598l10 193h190l47 344l-159 -31zM1591 1321l-1071 -1378l-151 110l1069 1377zM1110 342l418 459h266l-61 -465h84l-7 -184h-102l-16 -123h-258l16 123h-338zM1444 469l-121 -133h152l26 205h-2z" />
    <glyph glyph-name="onehalf" unicode="&#xbd;" horiz-adv-x="1935" 
d="M199 1282l268 94l235 -2l-77 -579h131l-6 -193h-598l10 193h190l47 344l-159 -31zM1591 1321l-1071 -1378l-151 110l1069 1377zM1214 729q151 86 324 86q126 -1 195 -60.5t69 -158.5q0 -62 -25.5 -117t-73 -100.5t-96.5 -79t-114 -68.5l-18 -10h260l-2 -192h-574l4 192
l146 86q106 68 164.5 123.5t58.5 112.5q0 61 -76 61q-69 0 -174 -43z" />
    <glyph glyph-name="threequarters" unicode="&#xbe;" horiz-adv-x="1935" 
d="M211 1325q122 61 295 61q123 0 188.5 -48t65.5 -128q0 -125 -123 -188q57 -25 85 -69t28 -95q0 -125 -99 -198.5t-268 -73.5q-150 0 -254 53l51 168q99 -29 182 -29q52 0 87 15q20 23 20 57q0 30 -24.5 43.5t-79.5 13.5h-86l8 160h73q119 0 119 72q0 51 -76 51
q-64 0 -147 -23zM1591 1321l-1071 -1378l-151 110l1069 1377zM1110 342l418 459h266l-61 -465h84l-7 -184h-102l-16 -123h-258l16 123h-338zM1444 469l-121 -133h152l26 205h-2z" />
    <glyph glyph-name="questiondown" unicode="&#xbf;" horiz-adv-x="915" 
d="M-33 -119q0 -131 99 -203.5t266 -72.5q246 0 434 106l-80 223q-169 -57 -311 -57q-27 18 -27 62q0 36 25.5 78t52 68.5t75.5 72.5l5.5 5.5t5.5 4.5q47 44 78 79t58.5 94t27.5 120q0 38 -17 84l-282 2q-5 -46 -12 -66q-13 -44 -44 -88t-60 -71.5t-85 -75.5
q-44 -38 -72.5 -67t-64 -76t-54 -103t-18.5 -119zM741 879q0 -84 -57.5 -143.5t-153.5 -59.5q-78 0 -119.5 40t-41.5 103q0 93 61 151t148 58q77 0 120 -42t43 -107z" />
    <glyph glyph-name="Agrave" unicode="&#xc0;" horiz-adv-x="1257" 
d="M686 1049l-201 -523h263l-29 256l-25 267h-8zM522 1368l426 8l205 -1235q13 -88 6 -141h-352l-31 264h-391l-100 -264h-348q0 58 47 150zM1010 1677l-74 -178l-510 152l-2 24l96 226z" />
    <glyph glyph-name="Aacute" unicode="&#xc1;" horiz-adv-x="1257" 
d="M686 1049l-201 -523h263l-29 256l-25 267h-8zM522 1368l426 8l205 -1235q13 -88 6 -141h-352l-31 264h-391l-100 -264h-348q0 58 47 150zM1112 1675l-2 -24l-510 -152l-72 178l490 224z" />
    <glyph glyph-name="Acircumflex" unicode="&#xc2;" horiz-adv-x="1257" 
d="M686 1049l-201 -523h263l-29 256l-25 267h-8zM522 1368l426 8l205 -1235q13 -88 6 -141h-352l-31 264h-391l-100 -264h-348q0 58 47 150zM686 1878l223 8l207 -272l-160 -125l-190 170l-256 -170l-115 143z" />
    <glyph glyph-name="Atilde" unicode="&#xc3;" horiz-adv-x="1257" 
d="M686 1049l-201 -523h263l-29 256l-25 267h-8zM522 1368l426 8l205 -1235q13 -88 6 -141h-352l-31 264h-391l-100 -264h-348q0 58 47 150zM354 1604q69 134 141.5 206t166.5 72q46 0 89.5 -24.5t86.5 -64t53 -46.5q26 12 62 51t69 90l158 -92q-65 -140 -138 -210t-172 -70
q-39 0 -77.5 17.5t-62 37.5t-50.5 46.5t-37 33.5q-19 -8 -44.5 -34t-41 -46.5t-45.5 -61.5z" />
    <glyph glyph-name="Adieresis" unicode="&#xc4;" horiz-adv-x="1257" 
d="M686 1049l-201 -523h263l-29 256l-25 267h-8zM522 1368l426 8l205 -1235q13 -88 6 -141h-352l-31 264h-391l-100 -264h-348q0 58 47 150zM371 1651q0 81 51 134.5t137 53.5q60 0 95.5 -32t35.5 -91q0 -79 -51 -132.5t-135 -53.5q-59 0 -96 31.5t-37 89.5zM819 1651
q0 81 51.5 134.5t137.5 53.5q60 0 95.5 -32t35.5 -91q0 -79 -52.5 -132.5t-136.5 -53.5q-58 0 -94.5 31.5t-36.5 89.5z" />
    <glyph glyph-name="Aring" unicode="&#xc5;" horiz-adv-x="1257" 
d="M686 1049l-201 -523h263l-29 256l-25 267h-8zM522 1368l426 8l205 -1235q13 -88 6 -141h-352l-31 264h-391l-100 -264h-348q0 58 47 150zM481 1690q0 123 94.5 206.5t249.5 83.5q115 0 183 -57.5t67 -153.5q-3 -129 -93.5 -210.5t-248.5 -81.5q-111 0 -181.5 58
t-70.5 155zM874 1751q0 70 -79 70q-47 0 -78 -17q-35 -40 -35 -100q0 -70 80 -70q54 0 84 23q28 35 28 94z" />
    <glyph glyph-name="AE" unicode="&#xc6;" horiz-adv-x="1775" 
d="M770 870l-162 -301h226l67 529h-14zM719 1372h1091l-47 -268h-499l-37 -279h381l-33 -262h-383l-39 -295h502l-15 -268h-882l41 313h-326l-168 -313h-366q0 26 11 57.5t23 54t35 62.5z" />
    <glyph glyph-name="Ccedilla" unicode="&#xc7;" horiz-adv-x="1077" 
d="M63 520q0 99 17.5 198t53.5 198.5t95.5 185t137 151.5t186 104t235.5 38q204 0 353 -101l-111 -241q-100 47 -229 47q-118 0 -195 -47q-70 -68 -120 -202t-50 -280q0 -305 244 -305q135 0 244 37l51 -240q-119 -70 -316 -86l-41 -71h31q101 -2 158.5 -45.5t56.5 -126.5
q0 -124 -140 -211t-362 -96l-34 159q243 56 262 154q-22 22 -72 22q-44 0 -84 -10l-63 92l71 144q-185 37 -282 174.5t-97 357.5z" />
    <glyph glyph-name="Egrave" unicode="&#xc8;" horiz-adv-x="1062" 
d="M221 1372h877l-43 -268h-504l-37 -279h381l-33 -262h-383l-39 -295h502l-14 -268h-887zM932 1677l-74 -178l-510 152l-2 24l96 226z" />
    <glyph glyph-name="Eacute" unicode="&#xc9;" horiz-adv-x="1062" 
d="M221 1372h877l-43 -268h-504l-37 -279h381l-33 -262h-383l-39 -295h502l-14 -268h-887zM1034 1675l-2 -24l-510 -152l-71 178l489 224z" />
    <glyph glyph-name="Ecircumflex" unicode="&#xca;" horiz-adv-x="1062" 
d="M221 1372h877l-43 -268h-504l-37 -279h381l-33 -262h-383l-39 -295h502l-14 -268h-887zM608 1878l223 8l207 -272l-159 -125l-191 170l-256 -170l-115 143z" />
    <glyph glyph-name="Edieresis" unicode="&#xcb;" horiz-adv-x="1062" 
d="M221 1372h877l-43 -268h-504l-37 -279h381l-33 -262h-383l-39 -295h502l-14 -268h-887zM293 1651q0 81 51 134.5t137 53.5q60 0 95.5 -32t35.5 -91q0 -79 -51 -132.5t-135 -53.5q-59 0 -96 31.5t-37 89.5zM741 1651q0 81 51.5 134.5t137.5 53.5q60 0 95.5 -32t35.5 -91
q0 -79 -52.5 -132.5t-136.5 -53.5q-58 0 -94.5 31.5t-36.5 89.5z" />
    <glyph glyph-name="Igrave" unicode="&#xcc;" horiz-adv-x="606" 
d="M221 1372h365l-180 -1372h-365zM684 1677l-489 224l-97 -226l2 -24l510 -152z" />
    <glyph glyph-name="Iacute" unicode="&#xcd;" horiz-adv-x="606" 
d="M221 1372h365l-180 -1372h-365zM786 1675l-94 226l-489 -224l71 -178l510 152z" />
    <glyph glyph-name="Icircumflex" unicode="&#xce;" horiz-adv-x="606" 
d="M221 1372h365l-180 -1372h-365zM360 1878l224 8l207 -272l-160 -125l-191 170l-256 -170l-114 143z" />
    <glyph glyph-name="Idieresis" unicode="&#xcf;" horiz-adv-x="606" 
d="M221 1372h365l-180 -1372h-365zM45 1651q0 81 51 134.5t137 53.5q60 0 96 -32t36 -91q0 -79 -51.5 -132.5t-135.5 -53.5q-59 0 -96 31.5t-37 89.5zM494 1651q0 81 51 134.5t137 53.5q60 0 95.5 -32t35.5 -91q0 -79 -52 -132.5t-136 -53.5q-58 0 -94.5 31.5t-36.5 89.5z
" />
    <glyph glyph-name="Eth" unicode="&#xd0;" horiz-adv-x="1349" 
d="M53 809h127l74 553q305 33 453 33q297 0 448.5 -156.5t151.5 -431.5q0 -125 -30 -243t-95.5 -225.5t-160.5 -187t-235 -127t-309 -47.5t-401 35l76 580h-127zM932 811q0 146 -57.5 227.5t-174.5 81.5q-58 0 -116 -6l-41 -305h207l-31 -217h-205l-45 -336q40 -4 70 -4
q132 0 229 57q71 78 117.5 224t46.5 278z" />
    <glyph glyph-name="Ntilde" unicode="&#xd1;" horiz-adv-x="1368" 
d="M221 1372h367l282 -698l76 -234h2l23 320l82 612h297l-183 -1372h-354l-295 719l-69 221h-5l-20 -305l-84 -635h-299zM420 1604q69 134 141 206t166 72q46 0 89.5 -24.5t86.5 -64t53 -46.5q26 12 62 51t69 90l158 -92q-66 -141 -138 -210.5t-171 -69.5q-39 0 -77.5 17.5
t-62 37.5t-50.5 46.5t-37 33.5q-19 -8 -44.5 -34t-41 -46.5t-45.5 -61.5z" />
    <glyph glyph-name="Ograve" unicode="&#xd2;" horiz-adv-x="1314" 
d="M61 518q0 76 12.5 158t40 168.5t68 166.5t100.5 151.5t132.5 124t168.5 83.5t205 31q120 0 214 -44.5t152 -123.5t88 -180.5t30 -221.5q0 -94 -17.5 -190.5t-52.5 -194.5t-94 -182.5t-136 -150.5t-185.5 -104t-235.5 -38q-121 0 -216 42.5t-154 117t-89.5 173
t-30.5 214.5zM899 844q0 282 -168 282q-65 0 -133 -39q-70 -87 -116 -250.5t-48 -312.5q0 -135 43 -206.5t127 -71.5q78 0 146 45q65 87 107 250t42 303zM1065 1677l-490 224l-96 -226l2 -24l510 -152z" />
    <glyph glyph-name="Oacute" unicode="&#xd3;" horiz-adv-x="1314" 
d="M61 518q0 76 12.5 158t40 168.5t68 166.5t100.5 151.5t132.5 124t168.5 83.5t205 31q120 0 214 -44.5t152 -123.5t88 -180.5t30 -221.5q0 -94 -17.5 -190.5t-52.5 -194.5t-94 -182.5t-136 -150.5t-185.5 -104t-235.5 -38q-121 0 -216 42.5t-154 117t-89.5 173
t-30.5 214.5zM899 844q0 282 -168 282q-65 0 -133 -39q-70 -87 -116 -250.5t-48 -312.5q0 -135 43 -206.5t127 -71.5q78 0 146 45q65 87 107 250t42 303zM1167 1675l-94 226l-489 -224l71 -178l510 152z" />
    <glyph glyph-name="Ocircumflex" unicode="&#xd4;" horiz-adv-x="1314" 
d="M61 518q0 76 12.5 158t40 168.5t68 166.5t100.5 151.5t132.5 124t168.5 83.5t205 31q120 0 214 -44.5t152 -123.5t88 -180.5t30 -221.5q0 -94 -17.5 -190.5t-52.5 -194.5t-94 -182.5t-136 -150.5t-185.5 -104t-235.5 -38q-121 0 -216 42.5t-154 117t-89.5 173
t-30.5 214.5zM899 844q0 282 -168 282q-65 0 -133 -39q-70 -87 -116 -250.5t-48 -312.5q0 -135 43 -206.5t127 -71.5q78 0 146 45q65 87 107 250t42 303zM741 1878l224 8l206 -272l-159 -125l-191 170l-256 -170l-114 143z" />
    <glyph glyph-name="Otilde" unicode="&#xd5;" horiz-adv-x="1314" 
d="M61 518q0 76 12.5 158t40 168.5t68 166.5t100.5 151.5t132.5 124t168.5 83.5t205 31q120 0 214 -44.5t152 -123.5t88 -180.5t30 -221.5q0 -94 -17.5 -190.5t-52.5 -194.5t-94 -182.5t-136 -150.5t-185.5 -104t-235.5 -38q-121 0 -216 42.5t-154 117t-89.5 173
t-30.5 214.5zM899 844q0 282 -168 282q-65 0 -133 -39q-70 -87 -116 -250.5t-48 -312.5q0 -135 43 -206.5t127 -71.5q78 0 146 45q65 87 107 250t42 303zM410 1604q69 134 141 206t166 72q46 0 89.5 -24.5t86.5 -64t53 -46.5q26 12 62 51t69 90l158 -92
q-66 -141 -138 -210.5t-171 -69.5q-51 0 -94.5 24.5t-85.5 65.5t-48 45q-19 -8 -44.5 -34t-41 -46.5t-45.5 -61.5z" />
    <glyph glyph-name="Odieresis" unicode="&#xd6;" horiz-adv-x="1314" 
d="M61 518q0 76 12.5 158t40 168.5t68 166.5t100.5 151.5t132.5 124t168.5 83.5t205 31q120 0 214 -44.5t152 -123.5t88 -180.5t30 -221.5q0 -94 -17.5 -190.5t-52.5 -194.5t-94 -182.5t-136 -150.5t-185.5 -104t-235.5 -38q-121 0 -216 42.5t-154 117t-89.5 173
t-30.5 214.5zM899 844q0 282 -168 282q-65 0 -133 -39q-70 -87 -116 -250.5t-48 -312.5q0 -135 43 -206.5t127 -71.5q78 0 146 45q65 87 107 250t42 303zM426 1651q0 81 51 134.5t137 53.5q60 0 95.5 -32t35.5 -91q0 -79 -51 -132.5t-135 -53.5q-59 0 -96 31.5t-37 89.5z
M874 1651q0 81 51.5 134.5t137.5 53.5q60 0 95.5 -32t35.5 -91q0 -79 -52 -132.5t-136 -53.5q-58 0 -95 31.5t-37 89.5z" />
    <glyph glyph-name="multiply" unicode="&#xd7;" 
d="M756 143l-185 232l-252 -232l-159 170l266 244l-197 246l197 160l186 -232l252 232l160 -168l-266 -246l196 -246z" />
    <glyph glyph-name="Oslash.alt" unicode="&#xd8;" horiz-adv-x="1316" 
d="M61 518q0 76 12.5 158t40 168.5t68 166.5t100.5 151.5t132.5 124t168.5 83.5t205 31q123 0 218 -45l112 155l193 -143l-127 -178q88 -143 88 -359q0 -94 -17.5 -190.5t-52.5 -194.5t-94 -182.5t-136 -150.5t-185.5 -104t-235.5 -38q-121 0 -211 41l-115 -157l-194 139
l125 172q-95 142 -95 352zM911 844q0 137 -45 214t-137 77q-63 0 -131 -39q-71 -84 -121.5 -252.5t-52.5 -319.5q0 -286 186 -286q77 0 140 45q67 84 113 249t48 312z" />
    <glyph glyph-name="Ugrave" unicode="&#xd9;" horiz-adv-x="1290" 
d="M920 1372h362l-106 -815q-18 -137 -60 -241t-115 -183.5t-186 -120.5t-264 -41q-77 0 -141.5 13t-111.5 37.5t-84 56.5t-60.5 72.5t-38.5 83.5t-21 91.5t-5 94.5t7 94l113 858h364l-114 -868q-5 -39 -6.5 -69.5t4 -68t20.5 -62t46 -41.5t77 -17q85 0 139 41q46 64 62 190
zM1024 1677l-489 224l-97 -226l2 -24l510 -152z" />
    <glyph glyph-name="Uacute" unicode="&#xda;" horiz-adv-x="1290" 
d="M920 1372h362l-106 -815q-18 -137 -60 -241t-115 -183.5t-186 -120.5t-264 -41q-77 0 -141.5 13t-111.5 37.5t-84 56.5t-60.5 72.5t-38.5 83.5t-21 91.5t-5 94.5t7 94l113 858h364l-114 -868q-5 -39 -6.5 -69.5t4 -68t20.5 -62t46 -41.5t77 -17q85 0 139 41q46 64 62 190
zM1126 1675l-94 226l-489 -224l71 -178l510 152z" />
    <glyph glyph-name="Ucircumflex" unicode="&#xdb;" horiz-adv-x="1290" 
d="M920 1372h362l-106 -815q-18 -137 -60 -241t-115 -183.5t-186 -120.5t-264 -41q-77 0 -141.5 13t-111.5 37.5t-84 56.5t-60.5 72.5t-38.5 83.5t-21 91.5t-5 94.5t7 94l113 858h364l-114 -868q-5 -39 -6.5 -69.5t4 -68t20.5 -62t46 -41.5t77 -17q85 0 139 41q46 64 62 190
zM700 1878l224 8l206 -272l-159 -125l-191 170l-256 -170l-114 143z" />
    <glyph glyph-name="Udieresis" unicode="&#xdc;" horiz-adv-x="1290" 
d="M920 1372h362l-106 -815q-18 -137 -60 -241t-115 -183.5t-186 -120.5t-264 -41q-77 0 -141.5 13t-111.5 37.5t-84 56.5t-60.5 72.5t-38.5 83.5t-21 91.5t-5 94.5t7 94l113 858h364l-114 -868q-5 -39 -6.5 -69.5t4 -68t20.5 -62t46 -41.5t77 -17q85 0 139 41q46 64 62 190
zM385 1651q0 81 51 134.5t137 53.5q60 0 96 -32t36 -91q0 -79 -51.5 -132.5t-135.5 -53.5q-59 0 -96 31.5t-37 89.5zM834 1651q0 81 51 134.5t137 53.5q60 0 95.5 -32t35.5 -91q0 -79 -52 -132.5t-136 -53.5q-58 0 -94.5 31.5t-36.5 89.5z" />
    <glyph glyph-name="Yacute" unicode="&#xdd;" horiz-adv-x="1167" 
d="M909 1372h346q-5 -40 -20 -73.5t-51 -96.5l-436 -735l-62 -467h-364l65 498l-244 696q-42 113 -37 178h357l110 -411l39 -187h4zM1073 1675l-2 -24l-510 -152l-72 178l490 224z" />
    <glyph glyph-name="Thorn" unicode="&#xde;" horiz-adv-x="1177" 
d="M524 467q116 0 172 41q90 87 90 235q0 87 -45 133t-131 46q-22 0 -84 -4l-59 -449q9 0 28 -1t29 -1zM41 0l182 1372h363l-25 -180h49q253 0 396 -102.5t143 -305.5q0 -85 -22 -166t-70.5 -157.5t-119 -133.5t-175 -91.5t-230.5 -34.5q-59 0 -100 8l-26 -209h-365z" />
    <glyph glyph-name="germandbls" unicode="&#xdf;" horiz-adv-x="1308" 
d="M168 1079q30 228 163 356t359 128q196 0 303 -99.5t107 -257.5q0 -72 -25 -147t-55 -126t-58.5 -105t-33.5 -85q19 -22 44.5 -44t61.5 -51t58 -48q72 -61 108.5 -127.5t36.5 -153.5q0 -155 -107.5 -249.5t-308.5 -94.5q-209 0 -354 99l100 225q121 -66 232 -66
q70 0 94 35q0 15 -6 33q-16 56 -121 137q-81 63 -123.5 125.5t-42.5 143.5q0 57 23.5 121t51.5 112t51.5 114.5t23.5 127.5q0 114 -107 114q-32 0 -59 -12q-42 -60 -58 -178l-207 -1585h-356z" />
    <glyph glyph-name="agrave" unicode="&#xe0;" horiz-adv-x="1101" 
d="M444 244q85 15 166 84l58 444q-46 4 -64 4q-60 0 -94 -12q-52 -65 -80.5 -170.5t-28.5 -210.5q0 -109 43 -139zM37 324q0 324 169.5 517t450.5 193q190 0 390 -90l-68 -522q-23 -158 -35 -402l-278 -38l-39 161q-164 -170 -332 -170q-131 0 -194.5 95t-63.5 256z
M918 1268l-111 -152l-449 268l-2 29l140 199z" />
    <glyph glyph-name="aacute" unicode="&#xe1;" horiz-adv-x="1101" 
d="M444 244q85 15 166 84l58 444q-46 4 -64 4q-60 0 -94 -12q-52 -65 -80.5 -170.5t-28.5 -210.5q0 -109 43 -139zM37 324q0 324 169.5 517t450.5 193q190 0 390 -90l-68 -522q-23 -158 -35 -402l-278 -38l-39 161q-164 -170 -332 -170q-131 0 -194.5 95t-63.5 256z
M1040 1413l-2 -29l-452 -268l-109 152l422 344z" />
    <glyph glyph-name="acircumflex" unicode="&#xe2;" horiz-adv-x="1101" 
d="M444 244q85 15 166 84l58 444q-46 4 -64 4q-60 0 -94 -12q-52 -65 -80.5 -170.5t-28.5 -210.5q0 -109 43 -139zM37 324q0 324 169.5 517t450.5 193q190 0 390 -90l-68 -522q-23 -158 -35 -402l-278 -38l-39 161q-164 -170 -332 -170q-131 0 -194.5 95t-63.5 256z
M621 1567l217 8l196 -352l-162 -107l-172 221l-260 -221l-131 131z" />
    <glyph glyph-name="atilde" unicode="&#xe3;" horiz-adv-x="1101" 
d="M444 244q85 15 166 84l58 444q-46 4 -64 4q-60 0 -94 -12q-52 -65 -80.5 -170.5t-28.5 -210.5q0 -109 43 -139zM37 324q0 324 169.5 517t450.5 193q190 0 390 -90l-68 -522q-23 -158 -35 -402l-278 -38l-39 161q-164 -170 -332 -170q-131 0 -194.5 95t-63.5 256z
M270 1229q26 59 52.5 104.5t64 89t87 67t106.5 23.5q29 0 57 -8.5t58 -28.5t46 -32t47.5 -41t36.5 -33q59 41 119 146l160 -82q-43 -125 -118 -208t-177 -83q-41 0 -80 16t-61 32.5t-58.5 49t-50.5 43.5q-62 -38 -123 -141z" />
    <glyph glyph-name="adieresis" unicode="&#xe4;" horiz-adv-x="1101" 
d="M444 244q85 15 166 84l58 444q-46 4 -64 4q-60 0 -94 -12q-52 -65 -80.5 -170.5t-28.5 -210.5q0 -109 43 -139zM37 324q0 324 169.5 517t450.5 193q190 0 390 -90l-68 -522q-23 -158 -35 -402l-278 -38l-39 161q-164 -170 -332 -170q-131 0 -194.5 95t-63.5 256z
M305 1282q0 84 55.5 138.5t137.5 54.5q65 0 99 -34.5t34 -90.5q0 -85 -55 -139t-138 -54q-64 0 -98.5 34.5t-34.5 90.5zM743 1282q0 84 55 138.5t136 54.5q65 0 99 -34.5t34 -90.5q0 -85 -54.5 -139t-135.5 -54q-65 0 -99.5 34.5t-34.5 90.5z" />
    <glyph glyph-name="aring" unicode="&#xe5;" horiz-adv-x="1101" 
d="M444 244q85 15 166 84l58 444q-46 4 -64 4q-60 0 -94 -12q-52 -65 -80.5 -170.5t-28.5 -210.5q0 -109 43 -139zM37 324q0 324 169.5 517t450.5 193q190 0 390 -90l-68 -522q-23 -158 -35 -402l-278 -38l-39 161q-164 -170 -332 -170q-131 0 -194.5 95t-63.5 256z
M410 1317q0 122 91 210.5t249 88.5q114 0 177.5 -58.5t61.5 -150.5q-2 -126 -89.5 -212.5t-248.5 -86.5q-112 0 -176.5 59t-64.5 150zM793 1384q0 30 -20 49t-54 19q-46 0 -82 -18q-31 -43 -31 -99q0 -65 76 -65q51 0 84 20q27 48 27 94z" />
    <glyph glyph-name="ae" unicode="&#xe6;" horiz-adv-x="1515" 
d="M2 213q0 169 141 272.5t447 116.5l2 31q5 65 -29 98t-110 33q-119 0 -263 -66l-79 209q62 35 114.5 58t144.5 44t191 21q182 0 266 -104q142 110 320 110q165 0 247.5 -73t82.5 -199q0 -89 -38 -158t-107 -113.5t-154.5 -70.5t-192.5 -37q-27 -3 -86 -8q10 -97 41 -139
q84 -1 186.5 20.5t184.5 56.5l67 -206q-224 -129 -444 -132q-217 3 -307 154q-161 -154 -367 -154q-117 0 -187.5 61t-70.5 175zM997 782q-62 -86 -88 -227h4q112 11 181 51.5t69 112.5q0 38 -21.5 59t-58.5 21q-52 0 -86 -17zM567 377q0 37 2 55q-137 -14 -204 -43
q-33 -41 -33 -96q0 -31 16.5 -50.5t48.5 -19.5q88 0 176 70q-6 40 -6 84z" />
    <glyph glyph-name="ccedilla" unicode="&#xe7;" horiz-adv-x="892" 
d="M41 379q1 101 25 196t71.5 177.5t114 144.5t158 97.5t196.5 35.5q173 0 293 -96l-111 -223q-92 47 -192 47q-61 0 -92 -10q-43 -50 -72 -149.5t-29 -203.5q0 -109 46 -151q117 -3 282 49l53 -213q-119 -71 -272 -92l-47 -82h31q101 -2 158.5 -45.5t56.5 -126.5
q0 -124 -140 -211t-362 -96l-37 159q245 56 264 154q-22 22 -71 22q-44 0 -84 -10l-64 92l72 146q-118 30 -183.5 129t-64.5 260z" />
    <glyph glyph-name="egrave" unicode="&#xe8;" horiz-adv-x="1005" 
d="M41 377q0 103 25.5 200.5t77 180.5t122.5 145t168.5 97.5t208.5 35.5q156 0 241 -72t85 -202q0 -99 -48 -173t-132 -118t-182 -67t-214 -29q7 -92 41 -137q173 -3 371 77l67 -206q-102 -61 -223.5 -96.5t-238.5 -35.5q-177 0 -273 103.5t-96 296.5zM492 782
q-67 -98 -89 -233q113 13 183.5 55t70.5 113q0 82 -79 82q-48 0 -86 -17zM870 1268l-110 -152l-449 268l-2 29l140 199z" />
    <glyph glyph-name="eacute" unicode="&#xe9;" horiz-adv-x="1005" 
d="M41 377q0 103 25.5 200.5t77 180.5t122.5 145t168.5 97.5t208.5 35.5q156 0 241 -72t85 -202q0 -99 -48 -173t-132 -118t-182 -67t-214 -29q7 -92 41 -137q173 -3 371 77l67 -206q-102 -61 -223.5 -96.5t-238.5 -35.5q-177 0 -273 103.5t-96 296.5zM492 782
q-67 -98 -89 -233q113 13 183.5 55t70.5 113q0 82 -79 82q-48 0 -86 -17zM993 1413l-2 -29l-452 -268l-109 152l422 344z" />
    <glyph glyph-name="ecircumflex" unicode="&#xea;" horiz-adv-x="1005" 
d="M41 377q0 103 25.5 200.5t77 180.5t122.5 145t168.5 97.5t208.5 35.5q156 0 241 -72t85 -202q0 -99 -48 -173t-132 -118t-182 -67t-214 -29q7 -92 41 -137q173 -3 371 77l67 -206q-102 -61 -223.5 -96.5t-238.5 -35.5q-177 0 -273 103.5t-96 296.5zM492 782
q-67 -98 -89 -233q113 13 183.5 55t70.5 113q0 82 -79 82q-48 0 -86 -17zM571 1567l217 8l197 -352l-162 -107l-172 221l-260 -221l-131 131z" />
    <glyph glyph-name="edieresis" unicode="&#xeb;" horiz-adv-x="1005" 
d="M41 377q0 103 25.5 200.5t77 180.5t122.5 145t168.5 97.5t208.5 35.5q156 0 241 -72t85 -202q0 -99 -48 -173t-132 -118t-182 -67t-214 -29q7 -92 41 -137q173 -3 371 77l67 -206q-102 -61 -223.5 -96.5t-238.5 -35.5q-177 0 -273 103.5t-96 296.5zM492 782
q-67 -98 -89 -233q113 13 183.5 55t70.5 113q0 82 -79 82q-48 0 -86 -17zM258 1282q0 84 55.5 138.5t137.5 54.5q65 0 99 -34.5t34 -90.5q0 -85 -55 -139t-138 -54q-64 0 -98.5 34.5t-34.5 90.5zM696 1282q0 84 55 138.5t136 54.5q65 0 99 -34.5t34 -90.5q0 -85 -55 -139
t-136 -54q-65 0 -99 34.5t-34 90.5z" />
    <glyph glyph-name="igrave" unicode="&#xec;" horiz-adv-x="565" 
d="M160 1006l358 6l-135 -1012h-356zM606 1268l-422 344l-139 -199l2 -29l449 -268z" />
    <glyph glyph-name="iacute" unicode="&#xed;" horiz-adv-x="565" 
d="M160 1006l358 6l-135 -1012h-356zM729 1413l-141 199l-422 -344l108 -152l453 268z" />
    <glyph glyph-name="icircumflex" unicode="&#xee;" horiz-adv-x="565" 
d="M160 1006l358 6l-135 -1012h-356zM299 1569l219 8l180 -352l-163 -107l-150 223l-205 -223l-147 125z" />
    <glyph glyph-name="idieresis" unicode="&#xef;" horiz-adv-x="565" 
d="M160 1006l358 6l-135 -1012h-356zM420 1282q0 86 55 138.5t135 52.5q64 0 97.5 -34.5t33.5 -88.5q0 -86 -56.5 -139.5t-135.5 -53.5q-63 0 -96 35t-33 90zM23 1282q0 86 55 138.5t135 52.5q64 0 97.5 -34.5t33.5 -88.5q0 -87 -55.5 -140t-136.5 -53q-63 0 -96 35t-33 90z
" />
    <glyph glyph-name="eth" unicode="&#xf0;" horiz-adv-x="1095" 
d="M492 229q47 0 77 23q37 64 64 188t33 262q-39 25 -88 25q-48 0 -84 -20q-33 -54 -57.5 -152t-24.5 -188q0 -138 80 -138zM1044 1401l-176 -105q164 -222 164 -544q0 -111 -17 -215.5t-59 -209t-106 -181.5t-166.5 -125t-232.5 -48q-201 0 -307.5 111t-104.5 299
q0 84 19 165t62.5 158.5t106 135.5t157 93.5t208.5 35.5q41 0 59 -2q-20 100 -61 164l-203 -119l-98 149l184 111q-53 48 -133 96l123 203q161 -53 274 -141l213 127z" />
    <glyph glyph-name="ntilde" unicode="&#xf1;" horiz-adv-x="1132" 
d="M141 987l275 37l51 -176q86 91 182.5 139.5t190.5 48.5q99 0 152 -43.5t62 -119t-3 -177.5l-90 -696h-361l82 614q14 117 -12 138q-96 -16 -197 -103l-84 -649h-358l71 547q16 145 39 440zM221 1229q26 60 52.5 105t64 88.5t86.5 67t106 23.5q29 0 57 -8.5t58.5 -29
t45.5 -31.5t48.5 -41t36.5 -33q59 41 119 146l160 -82q-43 -125 -118 -208t-177 -83q-41 0 -80 16t-61 32.5t-58.5 49t-50.5 43.5q-62 -38 -123 -141z" />
    <glyph glyph-name="ograve" unicode="&#xf2;" horiz-adv-x="1095" 
d="M39 389q1 83 20.5 168.5t65 172.5t111 154t167 109.5t224.5 42.5q103 0 182.5 -32.5t127.5 -89.5t72.5 -131t24.5 -162q-1 -83 -20.5 -168.5t-65 -173t-111 -155.5t-167 -110.5t-224.5 -42.5q-198 0 -302.5 117t-104.5 301zM676 625q0 166 -105 166q-43 0 -77 -17
q-42 -63 -68.5 -176t-26.5 -213q0 -75 27 -121.5t78 -46.5q46 0 78 19q42 64 68 176t26 213zM879 1268l-422 344l-140 -199l2 -29l449 -268z" />
    <glyph glyph-name="oacute" unicode="&#xf3;" horiz-adv-x="1095" 
d="M39 389q1 83 20.5 168.5t65 172.5t111 154t167 109.5t224.5 42.5q103 0 182.5 -32.5t127.5 -89.5t72.5 -131t24.5 -162q-1 -83 -20.5 -168.5t-65 -173t-111 -155.5t-167 -110.5t-224.5 -42.5q-198 0 -302.5 117t-104.5 301zM676 625q0 166 -105 166q-43 0 -77 -17
q-42 -63 -68.5 -176t-26.5 -213q0 -75 27 -121.5t78 -46.5q46 0 78 19q42 64 68 176t26 213zM1004 1413l-142 199l-422 -344l109 -152l452 268z" />
    <glyph glyph-name="ocircumflex" unicode="&#xf4;" horiz-adv-x="1095" 
d="M39 389q1 83 20.5 168.5t65 172.5t111 154t167 109.5t224.5 42.5q103 0 182.5 -32.5t127.5 -89.5t72.5 -131t24.5 -162q-1 -83 -20.5 -168.5t-65 -173t-111 -155.5t-167 -110.5t-224.5 -42.5q-198 0 -302.5 117t-104.5 301zM676 625q0 166 -105 166q-43 0 -77 -17
q-42 -63 -68.5 -176t-26.5 -213q0 -75 27 -121.5t78 -46.5q46 0 78 19q42 64 68 176t26 213zM582 1567l217 8l196 -352l-161 -107l-172 221l-261 -221l-131 131z" />
    <glyph glyph-name="otilde" unicode="&#xf5;" horiz-adv-x="1095" 
d="M39 389q1 83 20.5 168.5t65 172.5t111 154t167 109.5t224.5 42.5q103 0 182.5 -32.5t127.5 -89.5t72.5 -131t24.5 -162q-1 -83 -20.5 -168.5t-65 -173t-111 -155.5t-167 -110.5t-224.5 -42.5q-198 0 -302.5 117t-104.5 301zM676 625q0 166 -105 166q-43 0 -77 -17
q-42 -63 -68.5 -176t-26.5 -213q0 -75 27 -121.5t78 -46.5q46 0 78 19q42 64 68 176t26 213zM231 1229q26 59 52.5 104.5t64 89t87 67t106.5 23.5q29 0 57 -8.5t58 -28.5t46 -32t47.5 -41t36.5 -33q59 41 119 146l160 -82q-43 -125 -118 -208t-177 -83q-41 0 -80 16
t-61 32.5t-58.5 49t-50.5 43.5q-62 -38 -123 -141z" />
    <glyph glyph-name="odieresis" unicode="&#xf6;" horiz-adv-x="1095" 
d="M39 389q1 83 20.5 168.5t65 172.5t111 154t167 109.5t224.5 42.5q103 0 182.5 -32.5t127.5 -89.5t72.5 -131t24.5 -162q-1 -83 -20.5 -168.5t-65 -173t-111 -155.5t-167 -110.5t-224.5 -42.5q-198 0 -302.5 117t-104.5 301zM676 625q0 166 -105 166q-43 0 -77 -17
q-42 -63 -68.5 -176t-26.5 -213q0 -75 27 -121.5t78 -46.5q46 0 78 19q42 64 68 176t26 213zM266 1282q0 84 55.5 138.5t137.5 54.5q65 0 99 -34.5t34 -90.5q0 -85 -55 -139t-138 -54q-64 0 -98.5 34.5t-34.5 90.5zM705 1282q0 84 55 138.5t135 54.5q65 0 99 -34.5t34 -90.5
q0 -85 -54.5 -139t-135.5 -54q-65 0 -99 34.5t-34 90.5z" />
    <glyph glyph-name="divide" unicode="&#xf7;" 
d="M209 678h803l-35 -242h-803zM483 897q0 73 53 122.5t126 49.5q62 0 100.5 -35t38.5 -90q0 -74 -53 -126t-127 -52q-62 0 -100.5 37t-37.5 94zM379 168q0 72 53 122t127 50q62 0 100.5 -35t38.5 -92q0 -72 -53 -124t-127 -52q-61 0 -100 37t-39 94z" />
    <glyph glyph-name="oslash.alt" unicode="&#xf8;" horiz-adv-x="1095" 
d="M39 389q1 83 20.5 168.5t65 172.5t111 154t167 109.5t224.5 42.5q73 0 125 -14l96 147l182 -116l-92 -140q96 -111 96 -292q-1 -83 -20.5 -168.5t-65 -173t-111 -155.5t-167 -110.5t-224.5 -42.5q-61 0 -131 17l-102 -158l-180 115l100 153q-94 113 -94 291zM676 625
q0 166 -105 166q-43 0 -77 -17q-42 -63 -68.5 -176t-26.5 -213q0 -75 27 -121.5t78 -46.5q46 0 78 19q42 64 68 176t26 213z" />
    <glyph glyph-name="ugrave" unicode="&#xf9;" horiz-adv-x="1130" 
d="M967 23l-275 -39l-51 176q-84 -90 -179.5 -139.5t-191.5 -49.5q-133 0 -183 84t-28 250l93 701l360 6l-84 -635q-12 -97 14 -119q93 12 191 98l86 652h360l-71 -547q-16 -122 -41 -438zM881 1268l-111 -152l-448 268l-3 29l140 199z" />
    <glyph glyph-name="uacute" unicode="&#xfa;" horiz-adv-x="1130" 
d="M967 23l-275 -39l-51 176q-84 -90 -179.5 -139.5t-191.5 -49.5q-133 0 -183 84t-28 250l93 701l360 6l-84 -635q-12 -97 14 -119q93 12 191 98l86 652h360l-71 -547q-16 -122 -41 -438zM1006 1413l-2 -29l-453 -268l-109 152l422 344z" />
    <glyph glyph-name="ucircumflex" unicode="&#xfb;" horiz-adv-x="1130" 
d="M967 23l-275 -39l-51 176q-84 -90 -179.5 -139.5t-191.5 -49.5q-133 0 -183 84t-28 250l93 701l360 6l-84 -635q-12 -97 14 -119q93 12 191 98l86 652h360l-71 -547q-16 -122 -41 -438zM584 1567l217 8l196 -352l-161 -107l-172 221l-261 -221l-131 131z" />
    <glyph glyph-name="udieresis" unicode="&#xfc;" horiz-adv-x="1130" 
d="M967 23l-275 -39l-51 176q-84 -90 -179.5 -139.5t-191.5 -49.5q-133 0 -183 84t-28 250l93 701l360 6l-84 -635q-12 -97 14 -119q93 12 191 98l86 652h360l-71 -547q-16 -122 -41 -438zM268 1282q0 84 55.5 138.5t137.5 54.5q65 0 99 -34.5t34 -90.5q0 -85 -55 -139
t-138 -54q-64 0 -98.5 34.5t-34.5 90.5zM707 1282q0 84 55 138.5t135 54.5q65 0 99 -34.5t34 -90.5q0 -85 -54.5 -139t-135.5 -54q-65 0 -99 34.5t-34 90.5z" />
    <glyph glyph-name="yacute" unicode="&#xfd;" horiz-adv-x="1062" 
d="M27 -512q-77 0 -123 12l37 283q282 -12 458 246l-155 -2l-158 839q-12 70 -2 142h356l58 -494l10 -219h10q76 152 124 342t52 371h348q2 -18 2 -62q0 -136 -66.5 -343.5t-164.5 -401.5q-356 -713 -786 -713zM948 1413l-2 -29l-452 -268l-109 152l422 344z" />
    <glyph glyph-name="thorn" unicode="&#xfe;" horiz-adv-x="1107" 
d="M227 1534l359 6l-82 -627q145 123 284 123q129 0 195 -95.5t66 -262.5q0 -321 -174.5 -512t-458.5 -191q-25 0 -37 2l-60 -456h-356zM475 231q60 0 105 15q50 65 77 169t27 212q0 112 -43 137q-77 -9 -168 -78l-59 -450q50 -5 61 -5z" />
    <glyph glyph-name="ydieresis" unicode="&#xff;" horiz-adv-x="1062" 
d="M27 -512q-77 0 -123 12l37 283q282 -12 458 246l-155 -2l-158 839q-12 70 -2 142h356l58 -494l10 -219h10q76 152 124 342t52 371h348q2 -18 2 -62q0 -136 -66.5 -343.5t-164.5 -401.5q-356 -713 -786 -713zM211 1282q0 84 55 138.5t137 54.5q65 0 99.5 -34.5t34.5 -90.5
q0 -85 -55 -139t-138 -54q-64 0 -98.5 34.5t-34.5 90.5zM649 1282q0 84 55 138.5t136 54.5q65 0 99 -34.5t34 -90.5q0 -85 -55 -139t-136 -54q-65 0 -99 34.5t-34 90.5z" />
    <glyph glyph-name="Amacron" unicode="&#x100;" horiz-adv-x="1257" 
d="M686 1049l-201 -523h263l-29 256l-25 267h-8zM522 1368l426 8l205 -1235q13 -88 6 -141h-352l-31 264h-391l-100 -264h-348q0 58 47 150zM459 1759h641l-31 -219h-641z" />
    <glyph glyph-name="amacron" unicode="&#x101;" horiz-adv-x="1101" 
d="M444 244q85 15 166 84l58 444q-46 4 -64 4q-60 0 -94 -12q-52 -65 -80.5 -170.5t-28.5 -210.5q0 -109 43 -139zM37 324q0 324 169.5 517t450.5 193q190 0 390 -90l-68 -522q-23 -158 -35 -402l-278 -38l-39 161q-164 -170 -332 -170q-131 0 -194.5 95t-63.5 256z
M381 1386h637l-29 -221h-637z" />
    <glyph glyph-name="Abreve" unicode="&#x102;" horiz-adv-x="1257" 
d="M686 1049l-201 -523h263l-29 256l-25 267h-8zM522 1368l426 8l205 -1235q13 -88 6 -141h-352l-31 264h-391l-100 -264h-348q0 58 47 150zM1143 1778q-132 -269 -402 -269q-131 1 -214 80.5t-105 220.5l196 66q29 -75 65.5 -110t102.5 -35q38 0 78 14q48 31 111 125z" />
    <glyph glyph-name="abreve" unicode="&#x103;" horiz-adv-x="1101" 
d="M444 244q85 15 166 84l58 444q-46 4 -64 4q-60 0 -94 -12q-52 -65 -80.5 -170.5t-28.5 -210.5q0 -109 43 -139zM37 324q0 324 169.5 517t450.5 193q190 0 390 -90l-68 -522q-23 -158 -35 -402l-278 -38l-39 161q-164 -170 -332 -170q-131 0 -194.5 95t-63.5 256z
M1071 1491q-61 -188 -154.5 -271t-248.5 -83q-137 0 -217.5 98t-92.5 276l203 35q15 -93 44.5 -136.5t92.5 -43.5q50 0 90 18q59 59 93 160z" />
    <glyph glyph-name="Aogonek" unicode="&#x104;" horiz-adv-x="1257" 
d="M522 1368l426 8l205 -1235q13 -88 6 -141q-94 -44 -160.5 -104.5t-66.5 -122.5q0 -27 10 -37q38 -3 89.5 6.5t80.5 19.5l59 -180q-42 -28 -125.5 -57t-177.5 -29q-109 0 -174 50.5t-65 140.5q0 173 223 305l6 8h-51l-31 264h-391l-100 -264h-348q0 58 47 150zM686 1049
l-201 -523h263l-29 256l-25 267h-8z" />
    <glyph glyph-name="aogonek" unicode="&#x105;" horiz-adv-x="1101" 
d="M39 324q-1 324 168 517t450 193q190 0 390 -90h2l-70 -522q-21 -183 -35 -420q-98 -40 -165.5 -97.5t-67.5 -115.5q0 -23 10 -33q80 -5 186 27l47 -180q-138 -88 -309 -88q-108 0 -170.5 49t-62.5 137q3 166 245 309l-32 129q-163 -166 -330 -166q-129 0 -192.5 95
t-63.5 256zM444 244q85 15 166 84l58 444q-46 4 -64 4q-56 0 -94 -12q-52 -65 -80.5 -170.5t-28.5 -210.5q0 -109 43 -139z" />
    <glyph glyph-name="Cacute" unicode="&#x106;" horiz-adv-x="1075" 
d="M63 520q0 99 17.5 198t53.5 198.5t95.5 185t137 151.5t186 104t235.5 38q204 0 353 -101l-111 -241q-100 47 -229 47q-118 0 -195 -47q-70 -68 -120 -202t-50 -280q0 -305 244 -305q135 0 244 37l51 -240q-150 -88 -400 -88q-248 0 -380 144t-132 401zM1137 1675l-95 226
l-489 -224l72 -178l510 152z" />
    <glyph glyph-name="cacute" unicode="&#x107;" horiz-adv-x="892" 
d="M41 379q1 101 25 196t71.5 177.5t114 144.5t158 97.5t196.5 35.5q173 0 293 -96l-111 -223q-92 47 -192 47q-61 0 -92 -10q-43 -50 -72 -149.5t-29 -203.5q0 -109 46 -151q117 -3 282 49l53 -213q-74 -41 -176.5 -72t-214.5 -31q-165 0 -259 104t-93 298zM975 1413
l-141 199l-422 -344l108 -152l453 268z" />
    <glyph glyph-name="Ccircumflex" unicode="&#x108;" horiz-adv-x="1075" 
d="M63 520q0 99 17.5 198t53.5 198.5t95.5 185t137 151.5t186 104t235.5 38q204 0 353 -101l-111 -241q-100 47 -229 47q-118 0 -195 -47q-70 -68 -120 -202t-50 -280q0 -305 244 -305q135 0 244 37l51 -240q-150 -88 -400 -88q-248 0 -380 144t-132 401zM711 1878l223 8
l207 -272l-160 -125l-190 170l-256 -170l-115 143z" />
    <glyph glyph-name="ccircumflex" unicode="&#x109;" horiz-adv-x="892" 
d="M41 379q1 101 25 196t71.5 177.5t114 144.5t158 97.5t196.5 35.5q173 0 293 -96l-111 -223q-92 47 -192 47q-61 0 -92 -10q-43 -50 -72 -149.5t-29 -203.5q0 -109 46 -151q117 -3 282 49l53 -213q-74 -41 -176.5 -72t-214.5 -31q-165 0 -259 104t-93 298zM553 1567l217 8
l197 -352l-162 -107l-172 221l-260 -221l-131 131z" />
    <glyph glyph-name="Cdotaccent" unicode="&#x10a;" horiz-adv-x="1075" 
d="M63 520q0 99 17.5 198t53.5 198.5t95.5 185t137 151.5t186 104t235.5 38q204 0 353 -101l-111 -241q-100 47 -229 47q-118 0 -195 -47q-70 -68 -120 -202t-50 -280q0 -305 244 -305q135 0 244 37l51 -240q-150 -88 -400 -88q-248 0 -380 144t-132 401zM625 1657
q0 30 10.5 61t32.5 61t63 49t96 19q64 0 105 -33.5t41 -95.5q0 -76 -54.5 -133t-148.5 -57q-66 0 -105.5 33t-39.5 96z" />
    <glyph glyph-name="cdotaccent" unicode="&#x10b;" horiz-adv-x="892" 
d="M41 379q1 101 25 196t71.5 177.5t114 144.5t158 97.5t196.5 35.5q173 0 293 -96l-111 -223q-92 47 -192 47q-61 0 -92 -10q-43 -50 -72 -149.5t-29 -203.5q0 -109 46 -151q117 -3 282 49l53 -213q-74 -41 -176.5 -72t-214.5 -31q-165 0 -259 104t-93 298zM440 1282
q0 88 62 142.5t155 54.5q70 0 111 -36t41 -93q0 -89 -61.5 -143t-153.5 -54q-72 0 -113 35.5t-41 93.5z" />
    <glyph glyph-name="Ccaron" unicode="&#x10c;" horiz-adv-x="1075" 
d="M63 520q0 99 17.5 198t53.5 198.5t95.5 185t137 151.5t186 104t235.5 38q204 0 353 -101l-111 -241q-100 47 -229 47q-118 0 -195 -47q-70 -68 -120 -202t-50 -280q0 -305 244 -305q135 0 244 37l51 -240q-150 -88 -400 -88q-248 0 -380 144t-132 401zM891 1511l-223 -8
l-213 271l157 129l199 -174l262 172l115 -144z" />
    <glyph glyph-name="ccaron" unicode="&#x10d;" horiz-adv-x="892" 
d="M41 379q1 101 25 196t71.5 177.5t114 144.5t158 97.5t196.5 35.5q173 0 293 -96l-111 -223q-92 47 -192 47q-61 0 -92 -10q-43 -50 -72 -149.5t-29 -203.5q0 -109 46 -151q117 -3 282 49l53 -213q-74 -41 -176.5 -72t-214.5 -31q-165 0 -259 104t-93 298zM709 1143
l-217 -8l-197 352l162 106l172 -221l260 221l131 -131z" />
    <glyph glyph-name="Dcaron" unicode="&#x10e;" horiz-adv-x="1318" 
d="M221 1362q169 33 441 33q303 0 457.5 -155t154.5 -433q0 -130 -29.5 -248.5t-94 -225.5t-159 -185.5t-234 -124.5t-308.5 -46q-257 0 -406 35zM899 809q0 151 -60 231t-177 80q-58 0 -117 -6l-115 -860q23 -2 74 -2q139 0 225 55q76 79 123 217t47 285zM821 1511l-223 -8
l-213 271l158 129l198 -174l263 172l114 -144z" />
    <glyph glyph-name="dcaron" unicode="&#x10f;" horiz-adv-x="1105" 
d="M444 244q81 12 166 80l58 448q-46 4 -64 4q-60 0 -94 -12q-50 -65 -78.5 -168.5t-28.5 -202.5q0 -116 41 -149zM39 326q-2 324 168.5 516t460.5 192h32l66 498l358 8l-141 -1087q-21 -166 -39 -433l-272 -38l-43 161q-174 -170 -336 -170q-128 0 -191 96t-63 257z
M1149 1124l72 475l274 9l10 -13l-141 -471h-215z" />
    <glyph glyph-name="Dcroat" unicode="&#x110;" horiz-adv-x="1349" 
d="M53 809h127l74 553q305 33 453 33q297 0 448.5 -156.5t151.5 -431.5q0 -125 -30 -243t-95.5 -225.5t-160.5 -187t-235 -127t-309 -47.5t-401 35l76 580h-127zM932 811q0 146 -57.5 227.5t-174.5 81.5q-58 0 -116 -6l-41 -305h207l-31 -217h-205l-45 -336q40 -4 70 -4
q132 0 229 57q71 78 117.5 224t46.5 278z" />
    <glyph glyph-name="dcroat" unicode="&#x111;" horiz-adv-x="1105" 
d="M444 244q81 12 166 80l54 411q-50 4 -70 4q-60 0 -94 -12q-97 -125 -97 -334q0 -116 41 -149zM944 20l-272 -38l-43 161q-174 -170 -336 -170q-128 0 -191 96t-63 257q-2 308 161 488.5t451 180.5q31 0 47 -2l19 146h-369l27 204h368l25 189l358 8l-26 -197h178l-27 -204
h-178l-90 -686q-21 -166 -39 -433z" />
    <glyph glyph-name="Emacron" unicode="&#x112;" horiz-adv-x="1062" 
d="M221 1372h877l-43 -268h-504l-37 -279h381l-33 -262h-383l-39 -295h502l-14 -268h-887zM381 1759h641l-31 -219h-641z" />
    <glyph glyph-name="emacron" unicode="&#x113;" horiz-adv-x="1005" 
d="M41 377q0 103 25.5 200.5t77 180.5t122.5 145t168.5 97.5t208.5 35.5q156 0 241 -72t85 -202q0 -99 -48 -173t-132 -118t-182 -67t-214 -29q7 -92 41 -137q173 -3 371 77l67 -206q-102 -61 -223.5 -96.5t-238.5 -35.5q-177 0 -273 103.5t-96 296.5zM492 782
q-67 -98 -89 -233q113 13 183.5 55t70.5 113q0 82 -79 82q-48 0 -86 -17zM334 1386h637l-29 -221h-637z" />
    <glyph glyph-name="Ebreve" unicode="&#x114;" horiz-adv-x="1062" 
d="M221 1372h877l-43 -268h-504l-37 -279h381l-33 -262h-383l-39 -295h502l-14 -268h-887zM1065 1778q-132 -269 -401 -269q-131 1 -214.5 80.5t-105.5 220.5l197 66q29 -75 65.5 -110t102.5 -35q37 0 77 14q48 31 111 125z" />
    <glyph glyph-name="ebreve" unicode="&#x115;" horiz-adv-x="1005" 
d="M41 377q0 103 25.5 200.5t77 180.5t122.5 145t168.5 97.5t208.5 35.5q156 0 241 -72t85 -202q0 -99 -48 -173t-132 -118t-182 -67t-214 -29q7 -92 41 -137q173 -3 371 77l67 -206q-102 -61 -223.5 -96.5t-238.5 -35.5q-177 0 -273 103.5t-96 296.5zM492 782
q-67 -98 -89 -233q113 13 183.5 55t70.5 113q0 82 -79 82q-48 0 -86 -17zM1024 1491q-61 -188 -154.5 -271t-248.5 -83q-137 0 -217.5 98t-92.5 276l203 35q15 -93 44.5 -136.5t92.5 -43.5q50 0 90 18q59 59 93 160z" />
    <glyph glyph-name="Edotaccent" unicode="&#x116;" horiz-adv-x="1062" 
d="M221 1372h877l-43 -268h-504l-37 -279h381l-33 -262h-383l-39 -295h502l-14 -268h-887zM522 1657q0 30 10.5 61t32.5 61t63.5 49t96.5 19q64 0 104.5 -33.5t40.5 -95.5q0 -76 -54 -133t-148 -57q-67 0 -106.5 33t-39.5 96z" />
    <glyph glyph-name="edotaccent" unicode="&#x117;" horiz-adv-x="1005" 
d="M41 377q0 103 25.5 200.5t77 180.5t122.5 145t168.5 97.5t208.5 35.5q156 0 241 -72t85 -202q0 -99 -48 -173t-132 -118t-182 -67t-214 -29q7 -92 41 -137q173 -3 371 77l67 -206q-102 -61 -223.5 -96.5t-238.5 -35.5q-177 0 -273 103.5t-96 296.5zM492 782
q-67 -98 -89 -233q113 13 183.5 55t70.5 113q0 82 -79 82q-48 0 -86 -17zM459 1282q0 88 62 142.5t155 54.5q70 0 110.5 -36t40.5 -93q0 -89 -61.5 -143t-153.5 -54q-72 0 -112.5 35.5t-40.5 93.5z" />
    <glyph glyph-name="Eogonek" unicode="&#x118;" horiz-adv-x="1062" 
d="M221 1372h877l-43 -268h-504l-37 -279h381l-33 -262h-383l-39 -295h502l-14 -268q-92 -43 -152.5 -105.5t-60.5 -123.5q0 -22 10 -35q74 -5 170 26l45 -178q-42 -30 -120 -59t-173 -29q-109 0 -171.5 49t-61.5 138q0 165 231 311v6h-604z" />
    <glyph glyph-name="eogonek" unicode="&#x119;" horiz-adv-x="1005" 
d="M41 377q0 103 25.5 200.5t77 180.5t122.5 145t168.5 97.5t208.5 35.5q156 0 241 -72t85 -202q0 -99 -48 -173t-132 -118t-182 -67t-214 -29q7 -92 41 -137q173 -3 371 77l67 -206q-8 -6 -26 -15q-113 -68 -186.5 -146t-73.5 -155q0 -25 12 -37q34 -3 88.5 6.5t85.5 20.5
l53 -178q-43 -31 -125.5 -59.5t-179.5 -28.5q-102 0 -160.5 46.5t-58.5 129.5q0 147 178 280v9q-63 -5 -69 -5q-177 0 -273 103.5t-96 296.5zM492 782q-67 -98 -89 -233q113 13 183.5 55t70.5 113q0 82 -79 82q-48 0 -86 -17z" />
    <glyph glyph-name="Ecaron" unicode="&#x11a;" horiz-adv-x="1062" 
d="M221 1372h877l-43 -268h-504l-37 -279h381l-33 -262h-383l-39 -295h502l-14 -268h-887zM788 1511l-223 -8l-213 271l158 129l199 -174l262 172l114 -144z" />
    <glyph glyph-name="ecaron" unicode="&#x11b;" horiz-adv-x="1005" 
d="M41 377q0 103 25.5 200.5t77 180.5t122.5 145t168.5 97.5t208.5 35.5q156 0 241 -72t85 -202q0 -99 -48 -173t-132 -118t-182 -67t-214 -29q7 -92 41 -137q173 -3 371 77l67 -206q-102 -61 -223.5 -96.5t-238.5 -35.5q-177 0 -273 103.5t-96 296.5zM492 782
q-67 -98 -89 -233q113 13 183.5 55t70.5 113q0 82 -79 82q-48 0 -86 -17zM727 1143l-217 -8l-197 352l162 106l172 -221l260 221l131 -131z" />
    <glyph glyph-name="Gcircumflex" unicode="&#x11c;" horiz-adv-x="1214" 
d="M805 680h338l-80 -614h-2q-208 -93 -447 -93q-261 0 -405.5 153.5t-142.5 405.5q0 105 19.5 207.5t58.5 200t101 179.5t142 144t188 97t232 35q139 0 232 -27.5t171 -79.5l-120 -237q-122 49 -267 49q-132 0 -215 -49q-78 -78 -124 -206.5t-46 -275.5q0 -49 6.5 -92
t24.5 -85.5t46.5 -72.5t74.5 -48.5t106 -18.5q36 0 54 2zM745 1878l224 8l207 -272l-160 -125l-191 170l-256 -170l-114 143z" />
    <glyph glyph-name="gcircumflex" unicode="&#x11d;" horiz-adv-x="1097" 
d="M446 244q79 13 164 80l58 448q-50 4 -68 4q-63 0 -90 -12q-51 -66 -80 -168t-29 -211q0 -114 45 -141zM39 344q-1 201 75.5 358t218 244.5t324.5 87.5q184 0 390 -90l-107 -821q-42 -311 -183 -475t-407 -164q-204 0 -370 92l90 244q157 -53 299 -53q63 0 104 14
q44 51 68 127.5t41 195.5q-143 -118 -287 -118q-253 0 -256 358zM618 1567l218 8l196 -352l-162 -107l-172 221l-260 -221l-131 131z" />
    <glyph glyph-name="Gbreve" unicode="&#x11e;" horiz-adv-x="1214" 
d="M805 680h338l-80 -614h-2q-208 -93 -447 -93q-261 0 -405.5 153.5t-142.5 405.5q0 105 19.5 207.5t58.5 200t101 179.5t142 144t188 97t232 35q139 0 232 -27.5t171 -79.5l-120 -237q-122 49 -267 49q-132 0 -215 -49q-78 -78 -124 -206.5t-46 -275.5q0 -49 6.5 -92
t24.5 -85.5t46.5 -72.5t74.5 -48.5t106 -18.5q36 0 54 2zM1202 1778q-132 -269 -401 -269q-131 1 -214.5 80.5t-105.5 220.5l197 66q29 -75 65.5 -110t102.5 -35q38 0 78 14q46 30 110 125z" />
    <glyph glyph-name="gbreve" unicode="&#x11f;" horiz-adv-x="1097" 
d="M446 244q79 13 164 80l58 448q-50 4 -68 4q-63 0 -90 -12q-51 -66 -80 -168t-29 -211q0 -114 45 -141zM39 344q-1 201 75.5 358t218 244.5t324.5 87.5q184 0 390 -90l-107 -821q-42 -311 -183 -475t-407 -164q-204 0 -370 92l90 244q157 -53 299 -53q63 0 104 14
q44 51 68 127.5t41 195.5q-143 -118 -287 -118q-253 0 -256 358zM1069 1491q-61 -188 -154.5 -271t-248.5 -83q-137 0 -217.5 98t-92.5 276l203 35q15 -93 44.5 -136.5t92.5 -43.5q50 0 90 18q59 59 93 160z" />
    <glyph glyph-name="Gdotaccent" unicode="&#x120;" horiz-adv-x="1214" 
d="M805 680h338l-80 -614h-2q-208 -93 -447 -93q-261 0 -405.5 153.5t-142.5 405.5q0 105 19.5 207.5t58.5 200t101 179.5t142 144t188 97t232 35q139 0 232 -27.5t171 -79.5l-120 -237q-122 49 -267 49q-132 0 -215 -49q-78 -78 -124 -206.5t-46 -275.5q0 -49 6.5 -92
t24.5 -85.5t46.5 -72.5t74.5 -48.5t106 -18.5q36 0 54 2zM659 1657q0 30 10.5 61t32.5 61t63.5 49t96.5 19q64 0 105 -33.5t41 -95.5q0 -76 -54.5 -133t-148.5 -57q-67 0 -106.5 33t-39.5 96z" />
    <glyph glyph-name="gdotaccent" unicode="&#x121;" horiz-adv-x="1097" 
d="M446 244q79 13 164 80l58 448q-50 4 -68 4q-63 0 -90 -12q-51 -66 -80 -168t-29 -211q0 -114 45 -141zM39 344q-1 201 75.5 358t218 244.5t324.5 87.5q184 0 390 -90l-107 -821q-42 -311 -183 -475t-407 -164q-204 0 -370 92l90 244q157 -53 299 -53q63 0 104 14
q44 51 68 127.5t41 195.5q-143 -118 -287 -118q-253 0 -256 358zM504 1282q0 88 62 142.5t155 54.5q70 0 110.5 -36t40.5 -93q0 -89 -61.5 -143t-153.5 -54q-72 0 -112.5 35.5t-40.5 93.5z" />
    <glyph glyph-name="uni0122" unicode="&#x122;" horiz-adv-x="1214" 
d="M805 680h338l-80 -614h-2q-208 -93 -447 -93q-261 0 -405.5 153.5t-142.5 405.5q0 105 19.5 207.5t58.5 200t101 179.5t142 144t188 97t232 35q139 0 232 -27.5t171 -79.5l-120 -237q-122 49 -267 49q-132 0 -215 -49q-78 -78 -124 -206.5t-46 -275.5q0 -49 6.5 -92
t24.5 -85.5t46.5 -72.5t74.5 -48.5t106 -18.5q36 0 54 2zM539 -588l-164 94q85 145 88 299q2 16 2 50l278 12q2 -18 2 -57q0 -120 -53 -222t-153 -176z" />
    <glyph glyph-name="uni0123" unicode="&#x123;" horiz-adv-x="1097" 
d="M446 244q79 13 164 80l58 448q-50 4 -68 4q-63 0 -90 -12q-51 -66 -80 -168t-29 -211q0 -114 45 -141zM39 344q-1 201 75.5 358t218 244.5t324.5 87.5q184 0 390 -90l-107 -821q-42 -311 -183 -475t-407 -164q-204 0 -370 92l90 244q157 -53 299 -53q63 0 104 14
q44 51 68 127.5t41 195.5q-143 -118 -287 -118q-253 0 -256 358zM741 1612l166 -94q-84 -143 -90 -299v-50l-278 -12q-4 36 -4 57q0 119 53.5 221.5t152.5 176.5z" />
    <glyph glyph-name="Hcircumflex" unicode="&#x124;" horiz-adv-x="1351" 
d="M969 1372h364l-180 -1372h-365l74 555h-383l-73 -555h-365l180 1372h365l-70 -536h383zM741 1878l224 8l206 -272l-159 -125l-191 170l-256 -170l-114 143z" />
    <glyph glyph-name="hcircumflex" unicode="&#x125;" horiz-adv-x="1128" 
d="M229 1532l359 8l-86 -661q157 157 332 157q97 0 151 -42.5t65 -116.5t-1 -175l-93 -702h-360l82 614q14 118 -14 138q-94 -16 -193 -99l-86 -653h-358zM362 2042l224 8l207 -272l-160 -125l-191 170l-256 -170l-114 143z" />
    <glyph glyph-name="Hbar" unicode="&#x126;" horiz-adv-x="1419" 
d="M104 1167h123l27 205h362l-26 -205h385l26 205h363l-27 -205h119l-29 -215h-118l-125 -952h-363l66 502h-385l-66 -502h-362l125 952h-123zM922 760l24 192h-385l-24 -192h385z" />
    <glyph glyph-name="hbar" unicode="&#x127;" horiz-adv-x="1130" 
d="M229 1532l361 8l-27 -197h369l-29 -204h-366l-39 -299q158 155 333 155q258 0 213 -333l-88 -662h-360l78 575q18 117 -12 136q-97 -13 -195 -99l-80 -612h-360l151 1139h-178l31 204h174z" />
    <glyph glyph-name="Itilde" unicode="&#x128;" horiz-adv-x="606" 
d="M221 1372h365l-180 -1372h-365zM29 1604q69 134 141 206t166 72q46 0 89.5 -24.5t86.5 -64t53 -46.5q26 12 62 51t69 90l158 -92q-66 -141 -138 -210.5t-171 -69.5q-51 0 -94.5 24.5t-85.5 65.5t-48 45q-19 -8 -44.5 -34t-41 -46.5t-45.5 -61.5z" />
    <glyph glyph-name="itilde" unicode="&#x129;" horiz-adv-x="565" 
d="M160 1006l358 6l-135 -1012h-356zM-23 1221q112 290 293 290q42 0 79.5 -20.5t59 -44.5t40 -48.5t24.5 -27.5q39 16 100 141l162 -67q-23 -85 -58.5 -151t-93 -110t-126.5 -44q-42 0 -79 20t-57 43.5t-39 48.5t-26 29q-36 -15 -117 -139z" />
    <glyph glyph-name="Imacron" unicode="&#x12a;" horiz-adv-x="606" 
d="M221 1372h365l-180 -1372h-365zM133 1759h641l-31 -219h-641z" />
    <glyph glyph-name="imacron" unicode="&#x12b;" horiz-adv-x="565" 
d="M160 1006l358 6l-135 -1012h-356zM96 1395h586l-29 -230h-585z" />
    <glyph glyph-name="Ibreve" unicode="&#x12c;" horiz-adv-x="606" 
d="M221 1372h365l-180 -1372h-365zM817 1778l-168 92q-64 -95 -110 -125q-40 -14 -78 -14q-66 0 -102.5 35t-65.5 110l-197 -66q22 -141 105.5 -220.5t214.5 -80.5q269 0 401 269z" />
    <glyph glyph-name="ibreve" unicode="&#x12d;" horiz-adv-x="565" 
d="M160 1006l358 6l-135 -1012h-356zM745 1513l-192 43q-46 -130 -86 -170q-27 -18 -76 -18q-30 0 -50.5 13.5t-31.5 40t-16 55.5t-8 71l-199 -30q-7 -182 65 -281.5t211 -99.5q144 0 241 98t142 278z" />
    <glyph glyph-name="Iogonek" unicode="&#x12e;" horiz-adv-x="606" 
d="M221 1372h365l-180 -1372q-88 -41 -143.5 -102.5t-55.5 -124.5q0 -25 10 -35q38 -4 88 5.5t82 20.5l51 -180q-26 -17 -61.5 -34.5t-103 -35.5t-134.5 -18q-109 0 -173 49.5t-64 137.5q0 174 207 313v4h-68z" />
    <glyph glyph-name="iogonek" unicode="&#x12f;" horiz-adv-x="565" 
d="M160 1008l358 8l-133 -1016q-99 -38 -152 -98t-53 -117q0 -19 10 -29q70 -4 191 25l49 -178q-137 -88 -309 -88q-109 0 -171.5 48.5t-62.5 137.5q0 162 207 293v6h-67zM195 1286q0 88 62 142.5t155 54.5q70 0 110.5 -36t40.5 -93q0 -89 -61.5 -143t-153.5 -54
q-72 0 -112.5 35.5t-40.5 93.5z" />
    <glyph glyph-name="Idotaccent" unicode="&#x130;" horiz-adv-x="606" 
d="M221 1372h365l-180 -1372h-365zM274 1657q0 30 10.5 61t32.5 61t63.5 49t96.5 19q64 0 105 -33.5t41 -95.5q0 -76 -54.5 -133t-148.5 -57q-67 0 -106.5 33t-39.5 96z" />
    <glyph glyph-name="dotlessi" unicode="&#x131;" horiz-adv-x="565" 
d="M160 1006l358 6l-135 -1012h-356z" />
    <glyph glyph-name="IJ" unicode="&#x132;" horiz-adv-x="1222" 
d="M221 1372h365l-180 -1372h-365zM840 1372h364l-172 -1296q-18 -142 -70 -247t-132 -169t-179.5 -95.5t-220.5 -33.5l-43 248q67 17 111 37.5t81.5 55.5t59 89t31.5 133z" />
    <glyph glyph-name="ij" unicode="&#x133;" horiz-adv-x="1130" 
d="M160 1006l358 6l-135 -1012h-356zM195 1282q0 88 62 142.5t155 54.5q70 0 110.5 -36t40.5 -93q0 -89 -61.5 -143t-153.5 -54q-72 0 -112.5 35.5t-40.5 93.5zM725 1006l360 6l-129 -973q-27 -196 -135 -335t-276 -218l-148 195q174 169 205 405zM764 1282q0 88 62 142.5
t155 54.5q70 0 111 -36t41 -93q0 -89 -61.5 -143t-153.5 -54q-72 0 -113 35.5t-41 93.5z" />
    <glyph glyph-name="Jcircumflex" unicode="&#x134;" horiz-adv-x="618" 
d="M236 1372h364l-172 -1296q-18 -142 -70 -247t-132 -169t-179.5 -95.5t-220.5 -33.5l-43 248q67 17 111 37.5t81.5 55.5t59 89t31.5 133zM373 1878l223 8l207 -272l-160 -125l-190 170l-256 -170l-115 143z" />
    <glyph glyph-name="jcircumflex" unicode="&#x135;" horiz-adv-x="567" 
d="M160 1006l360 6l-129 -973q-27 -196 -135 -335t-276 -218l-148 195q174 169 205 405zM313 1567l217 8l197 -352l-162 -107l-172 221l-260 -221l-131 131z" />
    <glyph glyph-name="uni0136" unicode="&#x136;" horiz-adv-x="1230" 
d="M963 1372h350q0 -67 -66 -139l-463 -483l297 -566q59 -109 56 -184h-355l-159 350l-74 154l-98 -105l-54 -399h-356l180 1372h357l-72 -551zM489 -588l-163 94q85 145 88 299q2 16 2 50l278 12q2 -18 2 -57q0 -120 -53.5 -222t-153.5 -176z" />
    <glyph glyph-name="uni0137" unicode="&#x137;" horiz-adv-x="1093" 
d="M229 1532l357 8l-121 -922l315 390h334q-3 -67 -80 -144l-291 -301l220 -405q43 -75 36 -158h-354l-158 344l-65 -47l-39 -297h-356zM434 -588l-164 94q82 145 88 299v50l279 12q4 -36 4 -57q0 -120 -53.5 -222t-153.5 -176z" />
    <glyph glyph-name="kgreenlandic" unicode="&#x138;" horiz-adv-x="1097" 
d="M158 1006l360 4l-53 -404l319 402h332q-3 -69 -76 -142l-295 -309l222 -399q43 -82 37 -158h-355l-157 340l-68 -47l-39 -293h-358z" />
    <glyph glyph-name="Lacute" unicode="&#x139;" horiz-adv-x="944" 
d="M221 1372h365l-144 -1091h424l-20 -281h-805zM788 1675l-2 -24l-510 -152l-71 178l489 224z" />
    <glyph glyph-name="lacute" unicode="&#x13a;" horiz-adv-x="608" 
d="M266 -23q-123 0 -176.5 71.5t-34.5 211.5l166 1272l359 8l-154 -1169q-9 -74 14 -95q34 0 74 7l21 -254q-136 -52 -269 -52zM784 1839l-94 225l-489 -223l71 -178l510 152z" />
    <glyph glyph-name="uni013B" unicode="&#x13b;" horiz-adv-x="944" 
d="M221 1372h365l-144 -1091h424l-20 -281h-805zM354 -588l-164 94q86 147 89 299q2 16 2 50l278 12q2 -18 2 -57q0 -120 -53.5 -222t-153.5 -176z" />
    <glyph glyph-name="uni013C" unicode="&#x13c;" horiz-adv-x="608" 
d="M266 -23q-123 0 -176.5 71.5t-34.5 211.5l166 1272l359 8l-154 -1169q-9 -74 14 -95q34 0 74 7l21 -254q-136 -52 -269 -52zM188 -588l-163 94q82 145 88 299v50l278 12q4 -36 4 -57q0 -120 -53.5 -222t-153.5 -176z" />
    <glyph glyph-name="Lcaron" unicode="&#x13d;" horiz-adv-x="980" 
d="M221 1372h365l-144 -1091h424l-20 -281h-805zM655 981l72 475l274 8l11 -12l-142 -471h-215z" />
    <glyph glyph-name="lcaron" unicode="&#x13e;" horiz-adv-x="626" 
d="M266 -23q-123 0 -176.5 71.5t-34.5 211.5l166 1272l359 8l-154 -1169q-9 -74 14 -95q34 0 74 7l21 -254q-136 -52 -269 -52zM602 1124l72 475l274 9l10 -13l-141 -471h-215z" />
    <glyph glyph-name="Ldot" unicode="&#x13f;" horiz-adv-x="1198" 
d="M221 1372h365l-144 -1091h424l-20 -281h-805zM743 733q0 93 55.5 151t135.5 58q67 0 103 -38t36 -99q0 -96 -53.5 -154.5t-136.5 -58.5q-65 0 -102.5 38.5t-37.5 102.5z" />
    <glyph glyph-name="ldot" unicode="&#x140;" horiz-adv-x="987" 
d="M266 -23q-123 0 -176.5 71.5t-34.5 211.5l166 1272l359 8l-154 -1169q-9 -74 14 -95q34 0 74 7l21 -254q-136 -52 -269 -52zM586 696q0 93 55 151t135 58q68 0 105 -38.5t37 -100.5q0 -95 -54 -154t-137 -59q-67 0 -104 39t-37 104z" />
    <glyph glyph-name="Lslash" unicode="&#x141;" horiz-adv-x="1028" 
d="M10 618l209 93l86 661h365l-64 -487l240 106l74 -188l-345 -156l-51 -379h424l-18 -268h-805l61 475l-106 -49z" />
    <glyph glyph-name="lslash" unicode="&#x142;" horiz-adv-x="761" 
d="M362 -23q-247 0 -212 283l43 328l-101 -53l-72 165l5 27l200 104l92 701l357 8l-68 -508l135 70l74 -166l-4 -25l-236 -123l-55 -417q-9 -72 17 -95q29 0 73 7l19 -254q-133 -52 -267 -52z" />
    <glyph glyph-name="Nacute" unicode="&#x143;" horiz-adv-x="1368" 
d="M221 1372h367l282 -698l76 -234h2l23 320l82 612h297l-183 -1372h-354l-295 719l-69 221h-5l-20 -305l-84 -635h-299zM1178 1675l-2 -24l-510 -152l-72 178l489 224z" />
    <glyph glyph-name="nacute" unicode="&#x144;" horiz-adv-x="1132" 
d="M141 987l275 37l51 -176q86 91 182.5 139.5t190.5 48.5q99 0 152 -43.5t62 -119t-3 -177.5l-90 -696h-361l82 614q14 117 -12 138q-96 -16 -197 -103l-84 -649h-358l71 547q16 145 39 440zM993 1413l-2 -29l-452 -268l-109 152l422 344z" />
    <glyph glyph-name="uni0145" unicode="&#x145;" horiz-adv-x="1368" 
d="M221 1372h367l282 -698l76 -234h2l23 320l82 612h297l-183 -1372h-354l-295 719l-69 221h-5l-20 -305l-84 -635h-299zM530 -588l-163 94q85 145 88 299q2 16 2 50l278 12q2 -18 2 -57q0 -120 -53.5 -222t-153.5 -176z" />
    <glyph glyph-name="uni0146" unicode="&#x146;" horiz-adv-x="1132" 
d="M141 987l275 37l51 -176q86 91 182.5 139.5t190.5 48.5q99 0 152 -43.5t62 -119t-3 -177.5l-90 -696h-361l82 614q14 117 -12 138q-96 -16 -197 -103l-84 -649h-358l71 547q16 145 39 440zM420 -588l-164 94q82 145 88 299v50l279 12q4 -36 4 -57q0 -120 -53.5 -222
t-153.5 -176z" />
    <glyph glyph-name="Ncaron" unicode="&#x147;" horiz-adv-x="1368" 
d="M221 1372h367l282 -698l76 -234h2l23 320l82 612h297l-183 -1372h-354l-295 719l-69 221h-5l-20 -305l-84 -635h-299zM932 1511l-223 -8l-213 271l157 129l199 -174l262 172l115 -144z" />
    <glyph glyph-name="ncaron" unicode="&#x148;" horiz-adv-x="1132" 
d="M141 987l275 37l51 -176q86 91 182.5 139.5t190.5 48.5q99 0 152 -43.5t62 -119t-3 -177.5l-90 -696h-361l82 614q14 117 -12 138q-96 -16 -197 -103l-84 -649h-358l71 547q16 145 39 440zM725 1143l-217 -8l-197 352l162 106l172 -221l260 221l131 -131z" />
    <glyph glyph-name="napostrophe" unicode="&#x149;" horiz-adv-x="1132" 
d="M141 987l275 37l51 -176q86 91 182.5 139.5t190.5 48.5q99 0 152 -43.5t62 -119t-3 -177.5l-90 -696h-361l82 614q14 117 -12 138q-96 -16 -197 -103l-84 -649h-358l71 547q16 145 39 440zM498 1458q-15 -116 -94.5 -209t-204.5 -143l-109 117q99 93 115 227q7 59 10 119
l287 14q4 -70 -4 -125z" />
    <glyph glyph-name="Eng" unicode="&#x14a;" horiz-adv-x="1368" 
d="M1350 1372l-187 -1403q-11 -86 -29 -153t-51.5 -132t-81.5 -107.5t-121.5 -68.5t-168.5 -26q-183 0 -301 78l71 229q94 -25 172 -25q80 0 123 25q42 61 60 199l6 12h-76l-252 715l-65 225h-5l-20 -305l-84 -635h-299l180 1372h367l272 -727l62 -223h4l127 950h297z" />
    <glyph glyph-name="eng" unicode="&#x14b;" horiz-adv-x="1134" 
d="M141 987l275 37l51 -176q86 91 182.5 139.5t190.5 48.5q99 0 153 -43.5t64 -119t-2 -177.5l-97 -704q-69 -510 -466 -510q-180 0 -328 90l80 223q126 -41 200 -41q50 0 86 19q44 54 70 219l84 622q17 115 -14 138q-97 -16 -197 -103l-84 -649h-358l71 547q16 145 39 440z
" />
    <glyph glyph-name="Omacron" unicode="&#x14c;" horiz-adv-x="1314" 
d="M61 518q0 76 12.5 158t40 168.5t68 166.5t100.5 151.5t132.5 124t168.5 83.5t205 31q120 0 214 -44.5t152 -123.5t88 -180.5t30 -221.5q0 -94 -17.5 -190.5t-52.5 -194.5t-94 -182.5t-136 -150.5t-185.5 -104t-235.5 -38q-121 0 -216 42.5t-154 117t-89.5 173
t-30.5 214.5zM899 844q0 282 -168 282q-65 0 -133 -39q-70 -87 -116 -250.5t-48 -312.5q0 -135 43 -206.5t127 -71.5q78 0 146 45q65 87 107 250t42 303zM514 1759h641l-31 -219h-641z" />
    <glyph glyph-name="omacron" unicode="&#x14d;" horiz-adv-x="1095" 
d="M39 389q1 83 20.5 168.5t65 172.5t111 154t167 109.5t224.5 42.5q103 0 182.5 -32.5t127.5 -89.5t72.5 -131t24.5 -162q-1 -83 -20.5 -168.5t-65 -173t-111 -155.5t-167 -110.5t-224.5 -42.5q-198 0 -302.5 117t-104.5 301zM676 625q0 166 -105 166q-43 0 -77 -17
q-42 -63 -68.5 -176t-26.5 -213q0 -75 27 -121.5t78 -46.5q46 0 78 19q42 64 68 176t26 213zM342 1386h637l-29 -221h-637z" />
    <glyph glyph-name="Obreve" unicode="&#x14e;" horiz-adv-x="1314" 
d="M61 518q0 76 12.5 158t40 168.5t68 166.5t100.5 151.5t132.5 124t168.5 83.5t205 31q120 0 214 -44.5t152 -123.5t88 -180.5t30 -221.5q0 -94 -17.5 -190.5t-52.5 -194.5t-94 -182.5t-136 -150.5t-185.5 -104t-235.5 -38q-121 0 -216 42.5t-154 117t-89.5 173
t-30.5 214.5zM899 844q0 282 -168 282q-65 0 -133 -39q-70 -87 -116 -250.5t-48 -312.5q0 -135 43 -206.5t127 -71.5q78 0 146 45q65 87 107 250t42 303zM1198 1778l-168 92q-64 -95 -110 -125q-40 -14 -78 -14q-66 0 -102.5 35t-65.5 110l-197 -66q22 -141 105.5 -220.5
t214.5 -80.5q269 0 401 269z" />
    <glyph glyph-name="obreve" unicode="&#x14f;" horiz-adv-x="1095" 
d="M39 389q1 83 20.5 168.5t65 172.5t111 154t167 109.5t224.5 42.5q103 0 182.5 -32.5t127.5 -89.5t72.5 -131t24.5 -162q-1 -83 -20.5 -168.5t-65 -173t-111 -155.5t-167 -110.5t-224.5 -42.5q-198 0 -302.5 117t-104.5 301zM676 625q0 166 -105 166q-43 0 -77 -17
q-42 -63 -68.5 -176t-26.5 -213q0 -75 27 -121.5t78 -46.5q46 0 78 19q42 64 68 176t26 213zM1032 1491l-190 53q-35 -103 -92 -160q-40 -18 -91 -18q-63 0 -92.5 43.5t-44.5 136.5l-203 -35q12 -178 92.5 -276t217.5 -98q155 0 248.5 83t154.5 271z" />
    <glyph glyph-name="Ohungarumlaut" unicode="&#x150;" horiz-adv-x="1314" 
d="M61 518q0 76 12.5 158t40 168.5t68 166.5t100.5 151.5t132.5 124t168.5 83.5t205 31q120 0 214 -44.5t152 -123.5t88 -180.5t30 -221.5q0 -94 -17.5 -190.5t-52.5 -194.5t-94 -182.5t-136 -150.5t-185.5 -104t-235.5 -38q-121 0 -216 42.5t-154 117t-89.5 173
t-30.5 214.5zM899 844q0 282 -168 282q-65 0 -133 -39q-70 -87 -116 -250.5t-48 -312.5q0 -135 43 -206.5t127 -71.5q78 0 146 45q65 87 107 250t42 303zM1343 1819l-186 157l-278 -358l139 -119l325 297v23zM909 1819l-186 157l-281 -358l140 -119l327 297v23z" />
    <glyph glyph-name="ohungarumlaut" unicode="&#x151;" horiz-adv-x="1095" 
d="M39 389q1 83 20.5 168.5t65 172.5t111 154t167 109.5t224.5 42.5q103 0 182.5 -32.5t127.5 -89.5t72.5 -131t24.5 -162q-1 -83 -20.5 -168.5t-65 -173t-111 -155.5t-167 -110.5t-224.5 -42.5q-198 0 -302.5 117t-104.5 301zM676 625q0 166 -105 166q-43 0 -77 -17
q-42 -63 -68.5 -176t-26.5 -213q0 -75 27 -121.5t78 -46.5q46 0 78 19q42 64 68 176t26 213zM1147 1458l-205 144l-237 -377l153 -109l289 316v26zM748 1458l-207 144l-238 -377l154 -109l291 316v26z" />
    <glyph glyph-name="OE" unicode="&#x152;" horiz-adv-x="1734" 
d="M66 537q0 70 10.5 144.5t36 158t63.5 160t98.5 147t136 122t180 82.5t226.5 31q75 0 150 -10h802l-45 -268h-501l-37 -279h381l-33 -262h-383l-39 -295h500l-17 -268h-833q-66 -10 -176 -10q-130 0 -231 42.5t-163 117.5t-94 173t-32 214zM678 260q22 0 72 4l110 842
q-20 2 -65 2q-106 0 -187 -43q-83 -85 -126.5 -231.5t-43.5 -286.5q0 -287 240 -287z" />
    <glyph glyph-name="oe" unicode="&#x153;" horiz-adv-x="1624" 
d="M39 389q1 82 20 168t63.5 173t108.5 154t162.5 109.5t216.5 42.5q195 0 295 -131q150 131 359 131q154 0 237.5 -72t83.5 -202q0 -99 -47.5 -173t-131.5 -118t-181.5 -67t-214.5 -29q7 -93 43 -137q173 -3 368 77l70 -206q-223 -132 -459 -132q-168 0 -262 115
q-134 -121 -328 -121q-132 0 -224.5 56.5t-135.5 149.5t-43 212zM676 625q0 166 -105 166q-43 0 -77 -17q-42 -63 -68.5 -176t-26.5 -213q0 -75 27 -121.5t78 -46.5q46 0 78 19q42 64 68 176t26 213zM1110 782q-64 -94 -90 -233q113 13 184.5 55t71.5 113q0 82 -82 82
q-49 0 -84 -17z" />
    <glyph glyph-name="Racute" unicode="&#x154;" horiz-adv-x="1202" 
d="M557 713q104 0 168 39q84 84 84 221q0 73 -43 112t-125 39q-49 0 -98 -6l-51 -401q40 -4 65 -4zM221 1360q199 35 426 35q251 0 389 -101.5t138 -304.5q0 -150 -75.5 -270t-211.5 -189l157 -391q36 -76 33 -139h-358l-139 457h-27q-30 0 -96 4l-60 -461h-356zM1042 1675
l-2 -24l-510 -152l-71 178l489 224z" />
    <glyph glyph-name="racute" unicode="&#x155;" horiz-adv-x="806" 
d="M141 987l256 37l58 -188q122 192 266 192q71 0 121 -35l-82 -311q-46 16 -90 16q-113 0 -205 -108l-78 -590h-358l75 563q16 135 37 424zM868 1413l-2 -29l-452 -268l-109 152l422 344z" />
    <glyph glyph-name="uni0156" unicode="&#x156;" horiz-adv-x="1202" 
d="M557 713q104 0 168 39q84 84 84 221q0 73 -43 112t-125 39q-49 0 -98 -6l-51 -401q40 -4 65 -4zM221 1360q199 35 426 35q251 0 389 -101.5t138 -304.5q0 -150 -75.5 -270t-211.5 -189l157 -391q36 -76 33 -139h-358l-139 457h-27q-30 0 -96 4l-60 -461h-356zM459 -588
l-164 94q85 145 88 299q2 16 2 50l279 12q2 -18 2 -57q0 -120 -53.5 -222t-153.5 -176z" />
    <glyph glyph-name="uni0157" unicode="&#x157;" horiz-adv-x="806" 
d="M141 987l256 37l58 -188q122 192 266 192q71 0 121 -35l-82 -311q-46 16 -90 16q-113 0 -205 -108l-78 -590h-358l75 563q16 135 37 424zM131 -588l-164 94q82 145 88 299v50l279 12q4 -36 4 -57q0 -120 -53.5 -222t-153.5 -176z" />
    <glyph glyph-name="Rcaron" unicode="&#x158;" horiz-adv-x="1202" 
d="M557 713q104 0 168 39q84 84 84 221q0 73 -43 112t-125 39q-49 0 -98 -6l-51 -401q40 -4 65 -4zM221 1360q199 35 426 35q251 0 389 -101.5t138 -304.5q0 -150 -75.5 -270t-211.5 -189l157 -391q36 -76 33 -139h-358l-139 457h-27q-30 0 -96 4l-60 -461h-356zM797 1511
l-224 -8l-213 271l158 129l199 -174l262 172l115 -144z" />
    <glyph glyph-name="rcaron" unicode="&#x159;" horiz-adv-x="806" 
d="M141 987l256 37l58 -188q122 192 266 192q71 0 121 -35l-82 -311q-46 16 -90 16q-113 0 -205 -108l-78 -590h-358l75 563q16 135 37 424zM600 1143l-217 -8l-197 352l162 106l172 -221l260 221l131 -131z" />
    <glyph glyph-name="Sacute" unicode="&#x15a;" horiz-adv-x="1062" 
d="M133 987q0 192 140 303t384 111q234 0 408 -92l-102 -248q-155 59 -291 59q-92 0 -152 -47q-16 -31 -16 -57q0 -49 42 -92t132 -99q74 -47 122.5 -85.5t93 -90t66 -113.5t21.5 -137q0 -198 -149 -313t-394 -115q-136 0 -253.5 33.5t-198.5 83.5l106 248q73 -35 165 -59.5
t173 -24.5q57 0 104 15.5t70 43.5q10 27 10 58q0 53 -42 95.5t-138 102.5q-72 45 -122.5 86t-93 92t-64 111.5t-21.5 130.5zM1008 1675l-95 226l-489 -224l72 -178l510 152z" />
    <glyph glyph-name="sacute" unicode="&#x15b;" horiz-adv-x="884" 
d="M94 719q0 98 57 170t149.5 106.5t209.5 34.5q204 0 344 -94l-125 -221q-111 59 -203 59q-49 0 -71 -16q-7 -17 6 -43q6 -14 14.5 -25.5t24 -25t25 -21t33.5 -25t34 -24.5q104 -74 151.5 -135t47.5 -152q0 -150 -118 -240t-313 -90q-225 0 -374 109l120 221
q120 -74 238 -74q56 0 84 19q9 16 0 47q-6 21 -23 40.5t-35.5 34.5t-66.5 50q-41 29 -63 46t-54.5 47.5t-49 57t-29.5 64.5t-13 80zM885 1413l-142 199l-421 -344l108 -152l453 268z" />
    <glyph glyph-name="Scircumflex" unicode="&#x15c;" horiz-adv-x="1062" 
d="M133 987q0 192 140 303t384 111q234 0 408 -92l-102 -248q-155 59 -291 59q-92 0 -152 -47q-16 -31 -16 -57q0 -49 42 -92t132 -99q74 -47 122.5 -85.5t93 -90t66 -113.5t21.5 -137q0 -198 -149 -313t-394 -115q-136 0 -253.5 33.5t-198.5 83.5l106 248q73 -35 165 -59.5
t173 -24.5q57 0 104 15.5t70 43.5q10 27 10 58q0 53 -42 95.5t-138 102.5q-72 45 -122.5 86t-93 92t-64 111.5t-21.5 130.5zM582 1878l223 8l207 -272l-160 -125l-190 170l-256 -170l-115 143z" />
    <glyph glyph-name="scircumflex" unicode="&#x15d;" horiz-adv-x="884" 
d="M94 719q0 98 57 170t149.5 106.5t209.5 34.5q204 0 344 -94l-125 -221q-111 59 -203 59q-49 0 -71 -16q-7 -17 6 -43q6 -14 14.5 -25.5t24 -25t25 -21t33.5 -25t34 -24.5q104 -74 151.5 -135t47.5 -152q0 -150 -118 -240t-313 -90q-225 0 -374 109l120 221
q120 -74 238 -74q56 0 84 19q9 16 0 47q-6 21 -23 40.5t-35.5 34.5t-66.5 50q-41 29 -63 46t-54.5 47.5t-49 57t-29.5 64.5t-13 80zM465 1567l217 8l197 -352l-162 -107l-172 221l-260 -221l-131 131z" />
    <glyph glyph-name="uni015E" unicode="&#x15e;" horiz-adv-x="1062" 
d="M133 987q0 192 140 303t384 111q234 0 408 -92l-102 -248q-155 59 -291 59q-92 0 -152 -47q-16 -31 -16 -57q0 -49 42 -92t132 -99q74 -47 122.5 -85.5t93 -90t66 -113.5t21.5 -137q0 -168 -109.5 -277.5t-298.5 -139.5l-43 -76h31q101 -2 158.5 -45.5t56.5 -126.5
q0 -124 -140 -211t-362 -96l-34 159q243 56 262 154q-22 22 -72 22q-44 0 -84 -10l-63 92l65 131q-204 19 -362 113l106 248q73 -35 165 -59.5t173 -24.5q57 0 104 15.5t70 43.5q10 27 10 58q0 53 -42 95.5t-138 102.5q-72 45 -122.5 86t-93 92t-64 111.5t-21.5 130.5z" />
    <glyph glyph-name="uni015F" unicode="&#x15f;" horiz-adv-x="884" 
d="M94 719q0 98 57 170t149.5 106.5t209.5 34.5q204 0 344 -94l-125 -221q-111 59 -203 59q-49 0 -71 -16q-7 -17 6 -43q6 -14 14.5 -25.5t24 -25t25 -21t33.5 -25t34 -24.5q104 -74 151.5 -135t47.5 -152q0 -128 -86.5 -213t-237.5 -108l-45 -80h31q101 -2 158.5 -45.5
t56.5 -126.5q0 -124 -140 -211t-362 -96l-37 159q245 56 264 154q-22 22 -71 22q-44 0 -84 -10l-64 92l70 142q-147 20 -258 100l120 221q120 -74 238 -74q56 0 84 19q9 16 0 47q-6 21 -23 40.5t-35.5 34.5t-66.5 50q-41 29 -63 46t-54.5 47.5t-49 57t-29.5 64.5t-13 80z
" />
    <glyph glyph-name="Scaron" unicode="&#x160;" horiz-adv-x="1062" 
d="M133 987q0 192 140 303t384 111q234 0 408 -92l-102 -248q-155 59 -291 59q-92 0 -152 -47q-16 -31 -16 -57q0 -49 42 -92t132 -99q74 -47 122.5 -85.5t93 -90t66 -113.5t21.5 -137q0 -198 -149 -313t-394 -115q-136 0 -253.5 33.5t-198.5 83.5l106 248q73 -35 165 -59.5
t173 -24.5q57 0 104 15.5t70 43.5q10 27 10 58q0 53 -42 95.5t-138 102.5q-72 45 -122.5 86t-93 92t-64 111.5t-21.5 130.5zM762 1511l-223 -8l-213 271l157 129l199 -174l262 172l115 -144z" />
    <glyph glyph-name="scaron" unicode="&#x161;" horiz-adv-x="884" 
d="M94 719q0 98 57 170t149.5 106.5t209.5 34.5q204 0 344 -94l-125 -221q-111 59 -203 59q-49 0 -71 -16q-7 -17 6 -43q6 -14 14.5 -25.5t24 -25t25 -21t33.5 -25t34 -24.5q104 -74 151.5 -135t47.5 -152q0 -150 -118 -240t-313 -90q-225 0 -374 109l120 221
q120 -74 238 -74q56 0 84 19q9 16 0 47q-6 21 -23 40.5t-35.5 34.5t-66.5 50q-41 29 -63 46t-54.5 47.5t-49 57t-29.5 64.5t-13 80zM618 1143l-217 -8l-196 352l162 106l172 -221l260 221l131 -131z" />
    <glyph glyph-name="uni0162" unicode="&#x162;" horiz-adv-x="1122" 
d="M123 1372h1059l-39 -280h-334l-143 -1092h-70l-53 -94h30q101 -2 158.5 -45.5t56.5 -126.5q0 -124 -139.5 -211t-361.5 -96l-35 159q243 56 262 154q-22 22 -72 22q-44 0 -84 -10l-63 92l78 156h-72l143 1092h-338z" />
    <glyph glyph-name="uni0163" unicode="&#x163;" horiz-adv-x="854" 
d="M55 762l29 215l154 31l133 311h256l-41 -311h272l-33 -246h-272l-49 -373q-14 -99 20 -129q78 0 195 31l57 -195q-98 -66 -235 -98l-52 -92h31q101 -2 158.5 -45.5t56.5 -126.5q0 -124 -140 -211t-362 -96l-36 159q245 56 264 154q-22 22 -72 22q-44 0 -84 -10l-63 92
l69 140q-102 19 -148.5 99.5t-29.5 215.5l62 463h-140z" />
    <glyph glyph-name="Tcaron" unicode="&#x164;" horiz-adv-x="1122" 
d="M123 1372h1059l-39 -280h-334l-143 -1092h-365l143 1092h-338zM801 1511l-223 -8l-213 271l157 129l199 -174l262 172l115 -144z" />
    <glyph glyph-name="tcaron" unicode="&#x165;" horiz-adv-x="854" 
d="M55 762l29 215l154 31l133 311h256l-41 -311h272l-33 -246h-272l-49 -373q-14 -99 20 -129q78 0 195 31l57 -195q-72 -49 -178.5 -84t-220.5 -35q-135 0 -199.5 83.5t-44.5 238.5l62 463h-140zM678 1124l72 475l274 9l10 -13l-141 -471h-215z" />
    <glyph glyph-name="Tbar" unicode="&#x166;" horiz-adv-x="1148" 
d="M135 1372h1061l-41 -280h-334l-45 -340h217l-28 -220h-215l-70 -532h-365l70 532h-223l28 220h224l45 340h-338z" />
    <glyph glyph-name="tbar" unicode="&#x167;" horiz-adv-x="856" 
d="M63 631h115l19 131h-140l29 215l154 31l133 311h256l-41 -311h272l-33 -246h-274l-16 -131h249l-24 -189h-252l-6 -53q-11 -100 22 -129q78 0 195 31l57 -195q-74 -49 -180.5 -84t-218.5 -35q-135 0 -200 83.5t-44 238.5l19 143h-117z" />
    <glyph glyph-name="Utilde" unicode="&#x168;" horiz-adv-x="1290" 
d="M920 1372h362l-106 -815q-18 -137 -60 -241t-115 -183.5t-186 -120.5t-264 -41q-77 0 -141.5 13t-111.5 37.5t-84 56.5t-60.5 72.5t-38.5 83.5t-21 91.5t-5 94.5t7 94l113 858h364l-114 -868q-5 -39 -6.5 -69.5t4 -68t20.5 -62t46 -41.5t77 -17q85 0 139 41q46 64 62 190
zM369 1604q69 134 141 206t166 72q46 0 89.5 -24.5t86.5 -64t53 -46.5q26 12 62 51t69 90l158 -92q-66 -141 -138 -210.5t-171 -69.5q-51 0 -94.5 24.5t-85.5 65.5t-48 45q-19 -8 -44.5 -34t-41 -46.5t-45.5 -61.5z" />
    <glyph glyph-name="utilde" unicode="&#x169;" horiz-adv-x="1130" 
d="M967 23l-275 -39l-51 176q-84 -90 -179.5 -139.5t-191.5 -49.5q-133 0 -183 84t-28 250l93 701l360 6l-84 -635q-12 -97 14 -119q93 12 191 98l86 652h360l-71 -547q-16 -122 -41 -438zM233 1229q26 59 52.5 104.5t64 89t87 67t106.5 23.5q29 0 57 -8.5t58 -28.5t46 -32
t47.5 -41t36.5 -33q59 41 119 146l160 -82q-43 -125 -118 -208t-177 -83q-41 0 -80 16t-61 32.5t-58.5 49t-50.5 43.5q-62 -38 -123 -141z" />
    <glyph glyph-name="Umacron" unicode="&#x16a;" horiz-adv-x="1290" 
d="M920 1372h362l-106 -815q-18 -137 -60 -241t-115 -183.5t-186 -120.5t-264 -41q-77 0 -141.5 13t-111.5 37.5t-84 56.5t-60.5 72.5t-38.5 83.5t-21 91.5t-5 94.5t7 94l113 858h364l-114 -868q-5 -39 -6.5 -69.5t4 -68t20.5 -62t46 -41.5t77 -17q85 0 139 41q46 64 62 190
zM473 1759h641l-31 -219h-641z" />
    <glyph glyph-name="umacron" unicode="&#x16b;" horiz-adv-x="1130" 
d="M967 23l-275 -39l-51 176q-84 -90 -179.5 -139.5t-191.5 -49.5q-133 0 -183 84t-28 250l93 701l360 6l-84 -635q-12 -97 14 -119q93 12 191 98l86 652h360l-71 -547q-16 -122 -41 -438zM344 1386h637l-29 -221h-637z" />
    <glyph glyph-name="Ubreve" unicode="&#x16c;" horiz-adv-x="1290" 
d="M920 1372h362l-106 -815q-18 -137 -60 -241t-115 -183.5t-186 -120.5t-264 -41q-77 0 -141.5 13t-111.5 37.5t-84 56.5t-60.5 72.5t-38.5 83.5t-21 91.5t-5 94.5t7 94l113 858h364l-114 -868q-5 -39 -6.5 -69.5t4 -68t20.5 -62t46 -41.5t77 -17q85 0 139 41q46 64 62 190
zM1157 1778l-168 92q-64 -95 -110 -125q-40 -14 -78 -14q-66 0 -102.5 35t-65.5 110l-197 -66q22 -141 105.5 -220.5t214.5 -80.5q269 0 401 269z" />
    <glyph glyph-name="ubreve" unicode="&#x16d;" horiz-adv-x="1130" 
d="M967 23l-275 -39l-51 176q-84 -90 -179.5 -139.5t-191.5 -49.5q-133 0 -183 84t-28 250l93 701l360 6l-84 -635q-12 -97 14 -119q93 12 191 98l86 652h360l-71 -547q-16 -122 -41 -438zM1034 1491q-61 -188 -154.5 -271t-248.5 -83q-137 0 -217 98t-92 276l202 35
q15 -92 44.5 -136t93.5 -44q50 0 90 18q57 57 92 160z" />
    <glyph glyph-name="Uring" unicode="&#x16e;" horiz-adv-x="1290" 
d="M920 1372h362l-106 -815q-18 -137 -60 -241t-115 -183.5t-186 -120.5t-264 -41q-77 0 -141.5 13t-111.5 37.5t-84 56.5t-60.5 72.5t-38.5 83.5t-21 91.5t-5 94.5t7 94l113 858h364l-114 -868q-5 -39 -6.5 -69.5t4 -68t20.5 -62t46 -41.5t77 -17q85 0 139 41q46 64 62 190
zM496 1690q0 123 94.5 206.5t249.5 83.5q115 0 183 -57.5t67 -153.5q-3 -129 -93.5 -210.5t-248.5 -81.5q-111 0 -181.5 58t-70.5 155zM889 1751q0 70 -80 70q-47 0 -78 -17q-35 -40 -35 -100q0 -70 80 -70q54 0 84 23q29 36 29 94z" />
    <glyph glyph-name="uring" unicode="&#x16f;" horiz-adv-x="1130" 
d="M967 23l-275 -39l-51 176q-84 -90 -179.5 -139.5t-191.5 -49.5q-133 0 -183 84t-28 250l93 701l360 6l-84 -635q-12 -97 14 -119q93 12 191 98l86 652h360l-71 -547q-16 -122 -41 -438zM375 1317q0 122 91 210.5t249 88.5q114 0 177.5 -58.5t61.5 -150.5
q-2 -126 -89.5 -212.5t-248.5 -86.5q-112 0 -176.5 59t-64.5 150zM758 1384q0 30 -20 49t-54 19q-46 0 -82 -18q-31 -43 -31 -99q0 -65 76 -65q51 0 84 20q27 48 27 94z" />
    <glyph glyph-name="Uhungarumlaut" unicode="&#x170;" horiz-adv-x="1290" 
d="M920 1372h362l-106 -815q-18 -137 -60 -241t-115 -183.5t-186 -120.5t-264 -41q-77 0 -141.5 13t-111.5 37.5t-84 56.5t-60.5 72.5t-38.5 83.5t-21 91.5t-5 94.5t7 94l113 858h364l-114 -868q-5 -39 -6.5 -69.5t4 -68t20.5 -62t46 -41.5t77 -17q85 0 139 41q46 64 62 190
zM1303 1819l-187 157l-278 -358l139 -119l326 297v23zM868 1819l-186 157l-281 -358l140 -119l327 297v23z" />
    <glyph glyph-name="uhungarumlaut" unicode="&#x171;" horiz-adv-x="1130" 
d="M967 23l-275 -39l-51 176q-84 -90 -179.5 -139.5t-191.5 -49.5q-133 0 -183 84t-28 250l93 701l360 6l-84 -635q-12 -97 14 -119q93 12 191 98l86 652h360l-71 -547q-16 -122 -41 -438zM1149 1458v-26l-289 -316l-153 109l237 377zM750 1458v-26l-291 -316l-154 109
l238 377z" />
    <glyph glyph-name="Uogonek" unicode="&#x172;" horiz-adv-x="1290" 
d="M1176 557q-26 -190 -86 -299t-181 -201q-92 -70 -151.5 -144.5t-59.5 -135.5q0 -29 15 -41q72 -2 170 28l51 -180q-141 -88 -311 -88q-106 0 -167 51t-61 134q0 142 174 284v6h-18q-77 0 -141.5 13t-111.5 37.5t-84 56.5t-60.5 72.5t-38.5 83.5t-21 91.5t-5 94.5t7 94
l113 858h364l-114 -868q-5 -39 -6.5 -69.5t4 -68t20.5 -62t46 -41.5t77 -17q85 0 139 41q46 64 62 190l119 895h362z" />
    <glyph glyph-name="uogonek" unicode="&#x173;" horiz-adv-x="1130" 
d="M969 4q-101 -44 -171.5 -102t-70.5 -113q0 -24 12 -33q66 -4 187 25l45 -178q-133 -88 -305 -88q-108 0 -171 50t-63 140q0 166 250 309l-41 144q-181 -187 -371 -187q-132 0 -182.5 84.5t-28.5 249.5l93 703h360l-84 -631q-12 -98 16 -119q91 12 189 98l86 652h360
l-71 -547q-17 -135 -39 -457z" />
    <glyph glyph-name="Wcircumflex" unicode="&#x174;" horiz-adv-x="1906" 
d="M1636 1372h326q-2 -63 -49 -188l-432 -1180l-422 -8l-49 762v252h-11l-284 -1006l-426 -8l-152 1180q-17 128 -12 196h360l60 -731l6 -268h10l289 999h430l41 -731l-2 -268h10zM997 1878l224 8l206 -272l-159 -125l-191 170l-256 -170l-114 143z" />
    <glyph glyph-name="wcircumflex" unicode="&#x175;" horiz-adv-x="1622" 
d="M88 866q-13 82 -4 142h358l37 -494l2 -215h11q131 246 180 528q-8 126 -6 181h358l39 -502v-207h12q175 346 187 709h350q0 -10 1.5 -33.5t0.5 -38.5q-4 -82 -31.5 -183.5t-80 -221t-142 -257t-205.5 -270.5l-348 -8l-31 436h-8q-75 -252 -197 -428l-350 -8zM819 1567
l217 8l197 -352l-162 -107l-172 221l-260 -221l-131 131z" />
    <glyph glyph-name="Ycircumflex" unicode="&#x176;" horiz-adv-x="1167" 
d="M909 1372h346q-5 -40 -20 -73.5t-51 -96.5l-436 -735l-62 -467h-364l65 498l-244 696q-42 113 -37 178h357l110 -411l39 -187h4zM647 1878l223 8l207 -272l-159 -125l-191 170l-256 -170l-115 143z" />
    <glyph glyph-name="ycircumflex" unicode="&#x177;" horiz-adv-x="1062" 
d="M27 -512q-77 0 -123 12l37 283q282 -12 458 246l-155 -2l-158 839q-12 70 -2 142h356l58 -494l10 -219h10q76 152 124 342t52 371h348q2 -18 2 -62q0 -136 -66.5 -343.5t-164.5 -401.5q-356 -713 -786 -713zM526 1567l217 8l197 -352l-162 -107l-172 221l-260 -221
l-131 131z" />
    <glyph glyph-name="Ydieresis" unicode="&#x178;" horiz-adv-x="1167" 
d="M909 1372h346q-5 -40 -20 -73.5t-51 -96.5l-436 -735l-62 -467h-364l65 498l-244 696q-42 113 -37 178h357l110 -411l39 -187h4zM332 1651q0 81 51 134.5t137 53.5q60 0 95.5 -32t35.5 -91q0 -79 -51 -132.5t-135 -53.5q-59 0 -96 31.5t-37 89.5zM780 1651
q0 81 51.5 134.5t137.5 53.5q60 0 95.5 -32t35.5 -91q0 -79 -52.5 -132.5t-136.5 -53.5q-58 0 -94.5 31.5t-36.5 89.5z" />
    <glyph glyph-name="Zacute" unicode="&#x179;" horiz-adv-x="1144" 
d="M174 1372h965l2 -285l-692 -811h581l-14 -276h-1000l-4 276l697 820h-553zM1028 1675l-2 -24l-510 -152l-72 178l490 224z" />
    <glyph glyph-name="zacute" unicode="&#x17a;" horiz-adv-x="940" 
d="M137 1008h781q0 -135 -40.5 -226t-144.5 -192l-338 -344h428l-30 -246h-805q5 60 14 107t27.5 89t35.5 71.5t53 69t64.5 66t83.5 76.5l266 285h-428zM895 1413l-2 -29l-453 -268l-108 152l422 344z" />
    <glyph glyph-name="Zdotaccent" unicode="&#x17b;" horiz-adv-x="1144" 
d="M174 1372h965l2 -285l-692 -811h581l-14 -276h-1000l-4 276l697 820h-553zM516 1657q0 30 10.5 61t32.5 61t63.5 49t96.5 19q64 0 104.5 -33.5t40.5 -95.5q0 -76 -54 -133t-148 -57q-67 0 -106.5 33t-39.5 96z" />
    <glyph glyph-name="zdotaccent" unicode="&#x17c;" horiz-adv-x="940" 
d="M137 1008h781q0 -135 -40.5 -226t-144.5 -192l-338 -344h428l-30 -246h-805q5 60 14 107t27.5 89t35.5 71.5t53 69t64.5 66t83.5 76.5l266 285h-428zM358 1282q0 88 62 142.5t155 54.5q70 0 111 -36t41 -93q0 -89 -61.5 -143t-153.5 -54q-72 0 -113 35.5t-41 93.5z" />
    <glyph glyph-name="Zcaron" unicode="&#x17d;" horiz-adv-x="1144" 
d="M174 1372h965l2 -285l-692 -811h581l-14 -276h-1000l-4 276l697 820h-553zM782 1511l-223 -8l-213 271l158 129l198 -174l263 172l114 -144z" />
    <glyph glyph-name="zcaron" unicode="&#x17e;" horiz-adv-x="940" 
d="M137 1008h781q0 -135 -40.5 -226t-144.5 -192l-338 -344h428l-30 -246h-805q5 60 14 107t27.5 89t35.5 71.5t53 69t64.5 66t83.5 76.5l266 285h-428zM627 1143l-217 -8l-197 352l162 106l172 -221l260 221l131 -131z" />
    <glyph glyph-name="longs" unicode="&#x17f;" horiz-adv-x="684" 
d="M100 1008h144l8 55q14 104 50 192t93.5 157t142 108t187.5 39q162 0 281 -80l-101 -228q-82 29 -145 29q-45 0 -92 -14q-39 -61 -54 -164l-206 -1581h-357l162 1243h-145z" />
    <glyph glyph-name="uni018F" unicode="&#x18f;" horiz-adv-x="1165" 
d="M1116 881q0 -158 -22.5 -294t-71 -249.5t-120.5 -193.5t-175 -124.5t-231 -44.5q-225 0 -334 119.5t-109 337.5q0 163 56 365h655q2 16 2 49q0 143 -50.5 204.5t-174.5 61.5q-150 0 -312 -49l-51 237q198 95 465 95q239 0 356 -132.5t117 -381.5zM514 252q69 0 123 33
q53 71 94 260h-338q-14 -54 -14 -121q0 -87 31.5 -129.5t103.5 -42.5z" />
    <glyph glyph-name="uni0192" unicode="&#x192;" horiz-adv-x="987" 
d="M117 725h159l29 217q27 212 147 332.5t328 120.5q161 0 275 -78l-92 -223q-74 28 -142 28q-60 0 -98 -35q-42 -40 -55 -135l-31 -227h213l-29 -254h-217l-61 -461q-27 -211 -138 -326.5t-309 -115.5q-80 0 -149.5 21t-114.5 51l84 227q79 -27 125 -27q119 0 139 160
l64 471h-158z" />
    <glyph glyph-name="Ohorn" unicode="&#x1a0;" horiz-adv-x="1355" 
d="M61 518q0 76 12.5 158t40 168.5t68 166.5t100.5 151.5t132.5 124t168.5 83.5t205 31t193 -35q46 -14 90 -14q65 0 105 37q6 35 -2.5 96t-22.5 106l260 15q41 -77 41 -185q0 -245 -235 -297q55 -128 55 -293q0 -94 -17.5 -190.5t-52.5 -194.5t-94 -182.5t-136 -150.5
t-185.5 -104t-235.5 -38q-121 0 -216 42.5t-154 117t-89.5 173t-30.5 214.5zM899 844q0 282 -168 282q-65 0 -133 -39q-70 -87 -116 -250.5t-48 -312.5q0 -135 43 -206.5t127 -71.5q78 0 146 45q65 87 107 250t42 303z" />
    <glyph glyph-name="ohorn" unicode="&#x1a1;" horiz-adv-x="1153" 
d="M39 389q1 83 20.5 168.5t65 172.5t111 154t167 109.5t224.5 42.5q98 0 174 -28q43 -19 76 -19q59 0 90 31q7 38 -2.5 98t-22.5 101l238 12q41 -74 41 -176q0 -108 -56 -178t-153 -97q22 -77 22 -159q-1 -83 -20.5 -168.5t-65 -173t-111 -155.5t-167 -110.5t-224.5 -42.5
q-198 0 -302.5 117t-104.5 301zM676 625q0 166 -105 166q-43 0 -77 -17q-42 -63 -68.5 -176t-26.5 -213q0 -75 27 -121.5t78 -46.5q46 0 78 19q42 64 68 176t26 213z" />
    <glyph glyph-name="Uhorn" unicode="&#x1af;" horiz-adv-x="1341" 
d="M920 1372h114q115 0 158 37q6 37 -2.5 99t-22.5 104l263 14q38 -78 38 -184q0 -234 -215 -291l-77 -594q-18 -137 -60 -241t-115 -183.5t-186 -120.5t-264 -41q-77 0 -141.5 13t-111.5 37.5t-84 56.5t-60.5 72.5t-38.5 83.5t-21 91.5t-5 94.5t7 94l113 858h364l-114 -868
q-5 -39 -6.5 -69.5t4 -68t20.5 -62t46 -41.5t77 -17q85 0 139 41q46 64 62 190z" />
    <glyph glyph-name="uhorn" unicode="&#x1b0;" horiz-adv-x="1187" 
d="M967 23l-275 -39l-51 176q-84 -90 -179.5 -139.5t-191.5 -49.5q-133 0 -183 84t-28 250l93 701l360 6l-84 -635q-12 -97 14 -119q93 12 191 98l86 652h147q116 0 158 36q6 36 -2.5 94t-22.5 101l238 12q41 -74 41 -174q0 -225 -225 -280l-45 -336q-16 -122 -41 -438z" />
    <glyph glyph-name="uni01FA" unicode="&#x1fa;" horiz-adv-x="1257" 
d="M686 1049l-201 -523h263l-29 256l-25 267h-8zM522 1368l426 8l205 -1235q13 -88 6 -141h-352l-31 264h-391l-100 -264h-348q0 58 47 150zM481 1690q0 123 94.5 206.5t249.5 83.5q115 0 183 -57.5t67 -153.5q-3 -129 -93.5 -210.5t-248.5 -81.5q-111 0 -181.5 58
t-70.5 155zM874 1751q0 70 -79 70q-47 0 -78 -17q-35 -40 -35 -100q0 -70 80 -70q54 0 84 23q28 35 28 94zM1184 2193l-2 -24l-510 -152l-72 178l490 224z" />
    <glyph glyph-name="aringacute" unicode="&#x1fb;" horiz-adv-x="1101" 
d="M444 244q85 15 166 84l58 444q-46 4 -64 4q-60 0 -94 -12q-52 -65 -80.5 -170.5t-28.5 -210.5q0 -109 43 -139zM37 324q0 324 169.5 517t450.5 193q190 0 390 -90l-68 -522q-23 -158 -35 -402l-278 -38l-39 161q-164 -170 -332 -170q-131 0 -194.5 95t-63.5 256z
M410 1317q0 122 91 210.5t249 88.5q114 0 177.5 -58.5t61.5 -150.5q-2 -126 -89.5 -212.5t-248.5 -86.5q-112 0 -176.5 59t-64.5 150zM793 1384q0 30 -20 49t-54 19q-46 0 -82 -18q-31 -43 -31 -99q0 -65 76 -65q51 0 84 20q27 48 27 94zM1104 1829l-2 -25l-510 -151
l-72 178l490 223z" />
    <glyph glyph-name="uni01FC" unicode="&#x1fc;" horiz-adv-x="1775" 
d="M770 870l-162 -301h226l67 529h-14zM719 1372h1091l-47 -268h-499l-37 -279h381l-33 -262h-383l-39 -295h502l-15 -268h-882l41 313h-326l-168 -313h-366q0 26 11 57.5t23 54t35 62.5zM1665 1675l-2 -24l-510 -152l-72 178l490 224z" />
    <glyph glyph-name="uni01FD" unicode="&#x1fd;" horiz-adv-x="1515" 
d="M2 213q0 169 141 272.5t447 116.5l2 31q5 65 -29 98t-110 33q-119 0 -263 -66l-79 209q62 35 114.5 58t144.5 44t191 21q182 0 266 -104q142 110 320 110q165 0 247.5 -73t82.5 -199q0 -89 -38 -158t-107 -113.5t-154.5 -70.5t-192.5 -37q-27 -3 -86 -8q10 -97 41 -139
q84 -1 186.5 20.5t184.5 56.5l67 -206q-224 -129 -444 -132q-217 3 -307 154q-161 -154 -367 -154q-117 0 -187.5 61t-70.5 175zM997 782q-62 -86 -88 -227h4q112 11 181 51.5t69 112.5q0 38 -21.5 59t-58.5 21q-52 0 -86 -17zM567 377q0 37 2 55q-137 -14 -204 -43
q-33 -41 -33 -96q0 -31 16.5 -50.5t48.5 -19.5q88 0 176 70q-6 40 -6 84zM1237 1413l-2 -29l-453 -268l-108 152l422 344z" />
    <glyph glyph-name="Oslashacute.alt" unicode="&#x1fe;" horiz-adv-x="1316" 
d="M61 518q0 76 12.5 158t40 168.5t68 166.5t100.5 151.5t132.5 124t168.5 83.5t205 31q123 0 218 -45l112 155l193 -143l-127 -178q88 -143 88 -359q0 -94 -17.5 -190.5t-52.5 -194.5t-94 -182.5t-136 -150.5t-185.5 -104t-235.5 -38q-121 0 -211 41l-115 -157l-194 139
l125 172q-95 142 -95 352zM911 844q0 137 -45 214t-137 77q-63 0 -131 -39q-71 -84 -121.5 -252.5t-52.5 -319.5q0 -286 186 -286q77 0 140 45q67 84 113 249t48 312zM1167 1675l-2 -24l-510 -152l-71 178l489 224z" />
    <glyph glyph-name="oslashacute.alt" unicode="&#x1ff;" horiz-adv-x="1095" 
d="M39 389q1 83 20.5 168.5t65 172.5t111 154t167 109.5t224.5 42.5q73 0 125 -14l96 147l182 -116l-92 -140q96 -111 96 -292q-1 -83 -20.5 -168.5t-65 -173t-111 -155.5t-167 -110.5t-224.5 -42.5q-61 0 -131 17l-102 -158l-180 115l100 153q-94 113 -94 291zM676 625
q0 166 -105 166q-43 0 -77 -17q-42 -63 -68.5 -176t-26.5 -213q0 -75 27 -121.5t78 -46.5q46 0 78 19q42 64 68 176t26 213zM1018 1413l-2 -29l-453 -268l-108 152l422 344z" />
    <glyph glyph-name="uni0218" unicode="&#x218;" horiz-adv-x="1062" 
d="M133 987q0 192 140 303t384 111q234 0 408 -92l-102 -248q-155 59 -291 59q-92 0 -152 -47q-16 -31 -16 -57q0 -49 42 -92t132 -99q74 -47 122.5 -85.5t93 -90t66 -113.5t21.5 -137q0 -198 -149 -313t-394 -115q-136 0 -253.5 33.5t-198.5 83.5l106 248q73 -35 165 -59.5
t173 -24.5q57 0 104 15.5t70 43.5q10 27 10 58q0 53 -42 95.5t-138 102.5q-72 45 -122.5 86t-93 92t-64 111.5t-21.5 130.5zM381 -588l-164 94q85 145 88 299q2 16 2 50l279 12q2 -18 2 -57q0 -120 -53.5 -222t-153.5 -176z" />
    <glyph glyph-name="uni0219" unicode="&#x219;" horiz-adv-x="884" 
d="M94 719q0 98 57 170t149.5 106.5t209.5 34.5q204 0 344 -94l-125 -221q-111 59 -203 59q-49 0 -71 -16q-7 -17 6 -43q6 -14 14.5 -25.5t24 -25t25 -21t33.5 -25t34 -24.5q104 -74 151.5 -135t47.5 -152q0 -150 -118 -240t-313 -90q-225 0 -374 109l120 221
q120 -74 238 -74q56 0 84 19q9 16 0 47q-6 21 -23 40.5t-35.5 34.5t-66.5 50q-41 29 -63 46t-54.5 47.5t-49 57t-29.5 64.5t-13 80zM283 -588l-164 94q82 145 88 299v50l278 12q4 -36 4 -57q0 -120 -53 -222t-153 -176z" />
    <glyph glyph-name="uni021A" unicode="&#x21a;" horiz-adv-x="1122" 
d="M123 1372h1059l-39 -280h-334l-143 -1092h-365l143 1092h-338zM393 -588l-164 94q85 145 88 299q2 16 2 50l279 12q2 -18 2 -57q0 -120 -53.5 -222t-153.5 -176z" />
    <glyph glyph-name="uni021B" unicode="&#x21b;" horiz-adv-x="854" 
d="M55 762l29 215l154 31l133 311h256l-41 -311h272l-33 -246h-272l-49 -373q-14 -99 20 -129q78 0 195 31l57 -195q-72 -49 -178.5 -84t-220.5 -35q-135 0 -199.5 83.5t-44.5 238.5l62 463h-140zM350 -588l-164 94q82 145 88 299v50l279 12q4 -36 4 -57q0 -120 -53.5 -222
t-153.5 -176z" />
    <glyph glyph-name="dotlessj" unicode="&#x237;" horiz-adv-x="567" 
d="M160 1006l360 6l-129 -973q-27 -196 -135 -335t-276 -218l-148 195q174 169 205 405z" />
    <glyph glyph-name="uni0259" unicode="&#x259;" horiz-adv-x="987" 
d="M106 926q201 108 447 108q179 0 275 -100t96 -295q0 -144 -37.5 -265t-108 -209.5t-178.5 -138t-244 -49.5q-161 0 -248.5 74t-87.5 203q0 79 30 140.5t80 101.5t123 68t150.5 41.5t171.5 19.5q-3 114 -67 151q-150 6 -334 -61zM397 217q53 0 92 25q53 67 76 215
q-239 -30 -239 -164q0 -76 71 -76z" />
    <glyph glyph-name="uni02BC" unicode="&#x2bc;" horiz-adv-x="0" 
d="M348 1458q-15 -116 -94.5 -209t-204.5 -143l-108 117q98 92 114 227q9 76 11 119l286 14q4 -70 -4 -125z" />
    <glyph glyph-name="circumflex" unicode="&#x2c6;" horiz-adv-x="817" 
d="M446 1567l218 8l196 -352l-162 -107l-172 221l-260 -221l-131 131z" />
    <glyph glyph-name="caron" unicode="&#x2c7;" horiz-adv-x="817" 
d="M600 1143l-217 -8l-197 352l162 106l172 -221l260 221l131 -131z" />
    <glyph glyph-name="uni02C9" unicode="&#x2c9;" horiz-adv-x="0" 
d="M-203 1386h637l-28 -221h-637z" />
    <glyph glyph-name="uni02CA" unicode="&#x2ca;" horiz-adv-x="0" 
d="M459 1413l-142 199l-421 -344l108 -152l453 268z" />
    <glyph glyph-name="uni02CB" unicode="&#x2cb;" horiz-adv-x="0" 
d="M334 1268l-422 344l-139 -199l2 -29l448 -268z" />
    <glyph glyph-name="breve" unicode="&#x2d8;" horiz-adv-x="817" 
d="M897 1491l-190 53q-34 -101 -93 -160q-40 -18 -90 -18q-63 0 -92.5 43.5t-44.5 136.5l-203 -35q12 -178 92.5 -276t217.5 -98q155 0 248.5 83t154.5 271z" />
    <glyph glyph-name="dotaccent" unicode="&#x2d9;" horiz-adv-x="819" 
d="M332 1282q0 88 62 142.5t155 54.5q70 0 110.5 -36t40.5 -93q0 -89 -61.5 -143t-153.5 -54q-72 0 -112.5 35.5t-40.5 93.5z" />
    <glyph glyph-name="ring" unicode="&#x2da;" horiz-adv-x="817" 
d="M236 1317q0 58 22.5 111t64 95.5t107 67.5t145.5 25q114 0 178 -58.5t62 -150.5q-2 -126 -89.5 -212.5t-248.5 -86.5q-112 0 -176.5 59t-64.5 150zM618 1384q0 30 -19.5 49t-53.5 19q-46 0 -82 -18q-31 -43 -31 -99q0 -65 76 -65q51 0 84 20q26 46 26 94z" />
    <glyph glyph-name="ogonek" unicode="&#x2db;" horiz-adv-x="817" 
d="M-176 -297q0 221 379 408l145 -84q-92 -48 -157.5 -111.5t-65.5 -122.5q0 -25 12 -37q71 -5 170 27l45 -178q-25 -17 -61 -34.5t-102.5 -35.5t-131.5 -18q-108 0 -170.5 49t-62.5 137z" />
    <glyph glyph-name="tilde" unicode="&#x2dc;" horiz-adv-x="817" 
d="M96 1229q26 59 52.5 104.5t64 89t87 67t106.5 23.5q29 0 57 -8.5t58 -28.5t46 -32t47.5 -41t36.5 -33q59 41 119 146l160 -82q-43 -125 -118 -208t-177 -83q-41 0 -80 16t-61 32.5t-58.5 49t-50.5 43.5q-62 -38 -123 -141z" />
    <glyph glyph-name="hungarumlaut" unicode="&#x2dd;" horiz-adv-x="817" 
d="M1012 1458l-205 144l-238 -377l154 -109l289 316v26zM612 1458l-206 144l-238 -377l154 -109l290 316v26z" />
    <glyph glyph-name="uni0300" unicode="&#x300;" horiz-adv-x="0" 
d="M334 1268l-422 344l-139 -199l2 -29l448 -268z" />
    <glyph glyph-name="uni0301" unicode="&#x301;" horiz-adv-x="0" 
d="M459 1413l-142 199l-421 -344l108 -152l453 268z" />
    <glyph glyph-name="uni0302" unicode="&#x302;" horiz-adv-x="0" 
d="M37 1567l217 8l197 -352l-162 -107l-172 221l-260 -221l-131 131z" />
    <glyph glyph-name="uni0303" unicode="&#x303;" horiz-adv-x="0" 
d="M-313 1229q26 60 52.5 105t64 88.5t86.5 67t106 23.5q29 0 57 -8.5t58.5 -29t45.5 -31.5t48.5 -41t36.5 -33q58 40 118 146l160 -82q-43 -125 -118 -208t-177 -83q-41 0 -80 16t-61 32.5t-58.5 49t-50.5 43.5q-61 -37 -122 -141z" />
    <glyph glyph-name="uni0304" unicode="&#x304;" horiz-adv-x="0" 
d="M-203 1386h637l-28 -221h-637z" />
    <glyph glyph-name="uni0306" unicode="&#x306;" horiz-adv-x="0" 
d="M487 1491l-190 53q-35 -103 -92 -160q-40 -18 -90 -18q-64 0 -93.5 44t-44.5 136l-202 -35q12 -178 92 -276t217 -98q155 0 248.5 83t154.5 271z" />
    <glyph glyph-name="uni0307" unicode="&#x307;" horiz-adv-x="0" 
d="M-78 1282q0 88 62 142.5t155 54.5q70 0 111 -36t41 -93q0 -89 -61.5 -143t-153.5 -54q-72 0 -113 35.5t-41 93.5z" />
    <glyph glyph-name="uni0308" unicode="&#x308;" horiz-adv-x="0" 
d="M-279 1282q0 84 55.5 138.5t137.5 54.5q65 0 99 -34.5t34 -90.5q0 -85 -54.5 -139t-137.5 -54q-64 0 -99 34.5t-35 90.5zM160 1282q0 84 55 138.5t135 54.5q65 0 99 -34.5t34 -90.5q0 -85 -54.5 -139t-135.5 -54q-65 0 -99 34.5t-34 90.5z" />
    <glyph glyph-name="uni0309" unicode="&#x309;" horiz-adv-x="0" 
d="M-33 1407l-26 164q82 28 165 28q102 0 162.5 -51.5t61.5 -142.5q0 -127 -96 -200.5t-252 -86.5l-19 162q86 15 121 45q10 17 10 49q0 21 -13.5 33t-37.5 12q-33 0 -76 -12z" />
    <glyph glyph-name="uni030A" unicode="&#x30a;" horiz-adv-x="0" 
d="M-174 1317q0 122 91 210.5t249 88.5q114 0 178 -58.5t62 -150.5q-2 -126 -89.5 -212.5t-248.5 -86.5q-112 0 -177 59t-65 150zM209 1384q0 30 -20 49t-54 19q-46 0 -82 -18q-30 -42 -30 -99q0 -65 75 -65q51 0 84 20q27 48 27 94z" />
    <glyph glyph-name="uni030B" unicode="&#x30b;" horiz-adv-x="0" 
d="M602 1458l-205 144l-237 -377l153 -109l289 316v26zM203 1458l-207 144l-238 -377l154 -109l291 316v26z" />
    <glyph glyph-name="uni030C" unicode="&#x30c;" horiz-adv-x="0" 
d="M190 1143l-217 -8l-196 352l162 106l172 -221l260 221l131 -131z" />
    <glyph glyph-name="uni031B" unicode="&#x31b;" horiz-adv-x="0" 
d="M33 1239l237 12q41 -74 41 -174q0 -155 -100 -225t-272 -70h-89l29 226h21q115 0 157 36q6 37 -2 95t-22 100z" />
    <glyph glyph-name="uni0323" unicode="&#x323;" horiz-adv-x="0" 
d="M-289 -346q0 89 61.5 144t153.5 55q69 0 109.5 -37t40.5 -95q0 -90 -61.5 -144t-153.5 -54q-71 0 -110.5 35.5t-39.5 95.5z" />
    <glyph glyph-name="uni0326" unicode="&#x326;" horiz-adv-x="0" 
d="M-145 -588l-164 94q82 145 88 299v50l278 12q4 -36 4 -57q0 -120 -53 -222t-153 -176z" />
    <glyph glyph-name="uni0327" unicode="&#x327;" horiz-adv-x="0" 
d="M-254 -156l115 230l205 -41l-72 -127h31q101 -2 158.5 -45.5t56.5 -126.5q0 -124 -140 -211t-362 -96l-37 159q245 56 264 154q-22 22 -71 22q-44 0 -84 -10z" />
    <glyph glyph-name="uni0328" unicode="&#x328;" horiz-adv-x="0" 
d="M-586 -297q0 221 379 408l146 -84q-92 -48 -158 -111.5t-66 -122.5q0 -24 13 -37q71 -5 170 27l45 -178q-25 -17 -61 -34.5t-102.5 -35.5t-131.5 -18q-108 0 -171 49t-63 137z" />
    <glyph glyph-name="uni0335" unicode="&#x335;" horiz-adv-x="0" 
d="M-412 311l27 197h774l-27 -197h-774z" />
    <glyph glyph-name="a.sups" unicode="&#x1d43;" horiz-adv-x="833" 
d="M422 1022q47 10 108 45l31 240q-12 2 -35 2q-40 0 -69 -11q-30 -39 -46 -94t-16 -104q0 -60 27 -78zM119 1057q-1 206 120 321t322 115q140 0 289 -55l-41 -308q-14 -124 -18 -264l-211 -32l-37 106q-115 -109 -236 -109q-91 0 -138.5 62.5t-49.5 163.5z" />
    <glyph glyph-name="b.sups" unicode="&#x1d47;" horiz-adv-x="837" 
d="M242 1782l276 6l-49 -371q96 76 201 76q95 0 142.5 -62.5t47.5 -162.5q0 -202 -120.5 -318t-331.5 -116q-160 0 -285 51zM453 1016q39 0 67 8q29 37 46.5 92t17.5 111q0 59 -25 78q-38 -2 -113 -43l-32 -244q14 -2 39 -2z" />
    <glyph glyph-name="d.sups" unicode="&#x1d48;" horiz-adv-x="837" 
d="M422 1022q52 11 108 45l33 242q-14 2 -37 2q-34 0 -69 -13q-30 -39 -46 -93.5t-16 -104.5q0 -54 27 -78zM119 1059q-1 206 120.5 320t329.5 114h17l39 289l272 6l-86 -635q-17 -136 -23 -287l-208 -32l-35 106q-118 -109 -238 -109q-88 0 -137 61.5t-51 166.5z" />
    <glyph glyph-name="e.sups" unicode="&#x1d49;" horiz-adv-x="759" 
d="M119 1094q0 79 29.5 150.5t83.5 127t136.5 88.5t182.5 33q118 0 181 -45.5t63 -130.5q0 -212 -406 -232q9 -40 29 -63q131 -3 266 39l43 -152q-152 -73 -328 -73q-136 0 -208 64t-72 194zM446 1323q-36 -50 -53 -131q76 11 122 36t46 60q0 45 -55 45q-38 0 -60 -10z" />
    <glyph glyph-name="g.sups" unicode="&#x1d4d;" horiz-adv-x="831" 
d="M420 1022q39 5 110 43l33 244q-12 2 -37 2q-39 0 -69 -13q-62 -84 -62 -198q0 -56 25 -78zM119 1067q0 197 119.5 311.5t322.5 114.5q139 0 289 -55l-64 -484q-14 -103 -42.5 -179t-78.5 -132t-126 -84.5t-179 -28.5q-147 0 -272 68l64 182q129 -39 221 -39q47 0 80 11
q39 48 57 159q-91 -71 -199 -71q-189 0 -192 227z" />
    <glyph glyph-name="k.sups" unicode="&#x1d4f;" horiz-adv-x="839" 
d="M246 1782l270 6l-72 -547l205 236h254q0 -55 -53 -103l-195 -180l152 -236q31 -48 31 -110h-275l-104 196l-43 -28l-23 -168h-270z" />
    <glyph glyph-name="m.sups" unicode="&#x1d50;" horiz-adv-x="1273" 
d="M190 1458l205 31l47 -119q126 123 265 123q127 0 153 -115q121 115 256 115q86 0 127 -55t29 -154l-55 -436h-275l49 366q6 56 -10 72q-51 -3 -125 -49l-49 -389h-275l50 373q6 47 -9 65q-56 -6 -127 -51l-49 -387h-272l43 330q3 33 22 280z" />
    <glyph glyph-name="o.sups" unicode="&#x1d52;" horiz-adv-x="819" 
d="M119 1096q0 49 13 100.5t44 105.5t77 96t120 68.5t164 26.5q152 0 228.5 -73.5t76.5 -188.5q0 -49 -13 -100.5t-44 -106t-77.5 -97t-120.5 -69.5t-165 -27q-149 0 -226 75t-77 190zM569 1233q0 88 -69 88q-30 0 -51 -12q-25 -35 -41.5 -101.5t-16.5 -120.5
q0 -38 19 -59.5t51 -21.5q28 0 51 10q26 36 41.5 99t15.5 118z" />
    <glyph glyph-name="p.sups" unicode="&#x1d56;" horiz-adv-x="839" 
d="M455 1016q41 0 65 6q29 34 46.5 91.5t17.5 111.5q0 61 -25 80q-39 -2 -110 -43l-33 -244q14 -2 39 -2zM860 1266q0 -201 -120 -318t-316 -117h-33l-35 -270h-272l84 613q10 82 20 286l203 31l39 -105q116 107 238 107q95 0 143.5 -61.5t48.5 -165.5z" />
    <glyph glyph-name="t.sups" unicode="&#x1d57;" horiz-adv-x="671" 
d="M127 1292l18 160l111 25l94 194h199l-27 -194h189l-19 -185h-196l-23 -170q-6 -56 19 -75q50 0 124 16l46 -145q-47 -30 -124 -56t-167 -26q-101 0 -149.5 56.5t-33.5 162.5l33 237h-94z" />
    <glyph glyph-name="u.sups" unicode="&#x1d58;" horiz-adv-x="862" 
d="M811 866l-205 -30l-45 116q-124 -121 -262 -121q-86 0 -128 54t-30 155l58 437h272l-49 -367q-7 -55 8 -70q55 3 125 47l49 390h273l-43 -330q-10 -77 -23 -281z" />
    <glyph glyph-name="v.sups" unicode="&#x1d5b;" horiz-adv-x="792" 
d="M578 1477h262q2 -16 2 -52q0 -102 -82 -261.5t-240 -313.5l-268 -4l-109 530q-12 64 -4 101h275l30 -289v-131h7q57 93 91.5 204t35.5 216z" />
    <glyph glyph-name="i.sinf" unicode="&#x1d62;" horiz-adv-x="460" 
d="M86 524l272 6l-79 -632h-275zM106 731q0 63 48 103t120 40q57 0 91 -28t34 -72q0 -64 -49 -103.5t-121 -39.5q-57 0 -90 28t-33 72z" />
    <glyph glyph-name="r.sinf" unicode="&#x1d63;" horiz-adv-x="626" 
d="M74 508l190 31l51 -119q82 119 181 119q51 0 88 -23l-56 -231q-33 10 -65 10q-75 0 -139 -55l-43 -342h-273l43 327q16 152 23 283z" />
    <glyph glyph-name="u.sinf" unicode="&#x1d64;" horiz-adv-x="862" 
d="M694 -84l-205 -31l-45 117q-124 -121 -262 -121q-86 0 -127.5 53.5t-29.5 155.5l57 436h272l-49 -366q-7 -55 8 -70q55 3 125 47l49 389h273l-43 -329q-10 -77 -23 -281z" />
    <glyph glyph-name="v.sinf" unicode="&#x1d65;" horiz-adv-x="792" 
d="M459 526h262q2 -16 2 -51q0 -102 -82 -261.5t-240 -313.5l-268 -4l-108 530q-12 66 -5 100h275l31 -288v-132h6q57 93 91.5 204t35.5 216z" />
    <glyph glyph-name="Wgrave" unicode="&#x1e80;" horiz-adv-x="1906" 
d="M1636 1372h326q-2 -63 -49 -188l-432 -1180l-422 -8l-49 762v252h-11l-284 -1006l-426 -8l-152 1180q-17 128 -12 196h360l60 -731l6 -268h10l289 999h430l41 -731l-2 -268h10zM1321 1677l-490 224l-96 -226l2 -24l510 -152z" />
    <glyph glyph-name="wgrave" unicode="&#x1e81;" horiz-adv-x="1622" 
d="M88 866q-13 82 -4 142h358l37 -494l2 -215h11q131 246 180 528q-8 126 -6 181h358l39 -502v-207h12q175 346 187 709h350q0 -10 1.5 -33.5t0.5 -38.5q-4 -82 -31.5 -183.5t-80 -221t-142 -257t-205.5 -270.5l-348 -8l-31 436h-8q-75 -252 -197 -428l-350 -8zM1116 1268
l-422 344l-139 -199l2 -29l449 -268z" />
    <glyph glyph-name="Wacute" unicode="&#x1e82;" horiz-adv-x="1906" 
d="M1636 1372h326q-2 -63 -49 -188l-432 -1180l-422 -8l-49 762v252h-11l-284 -1006l-426 -8l-152 1180q-17 128 -12 196h360l60 -731l6 -268h10l289 999h430l41 -731l-2 -268h10zM1423 1675l-94 226l-489 -224l71 -178l510 152z" />
    <glyph glyph-name="wacute" unicode="&#x1e83;" horiz-adv-x="1622" 
d="M88 866q-13 82 -4 142h358l37 -494l2 -215h11q131 246 180 528q-8 126 -6 181h358l39 -502v-207h12q175 346 187 709h350q0 -10 1.5 -33.5t0.5 -38.5q-4 -82 -31.5 -183.5t-80 -221t-142 -257t-205.5 -270.5l-348 -8l-31 436h-8q-75 -252 -197 -428l-350 -8zM1241 1413
l-141 199l-422 -344l108 -152l453 268z" />
    <glyph glyph-name="Wdieresis" unicode="&#x1e84;" horiz-adv-x="1906" 
d="M1636 1372h326q-2 -63 -49 -188l-432 -1180l-422 -8l-49 762v252h-11l-284 -1006l-426 -8l-152 1180q-17 128 -12 196h360l60 -731l6 -268h10l289 999h430l41 -731l-2 -268h10zM682 1651q0 81 51 134.5t137 53.5q60 0 95.5 -32t35.5 -91q0 -79 -51 -132.5t-135 -53.5
q-59 0 -96 31.5t-37 89.5zM1130 1651q0 81 51.5 134.5t137.5 53.5q60 0 95.5 -32t35.5 -91q0 -79 -52 -132.5t-136 -53.5q-58 0 -95 31.5t-37 89.5z" />
    <glyph glyph-name="wdieresis" unicode="&#x1e85;" horiz-adv-x="1622" 
d="M88 866q-13 82 -4 142h358l37 -494l2 -215h11q131 246 180 528q-8 126 -6 181h358l39 -502v-207h12q175 346 187 709h350q0 -10 1.5 -33.5t0.5 -38.5q-4 -82 -31.5 -183.5t-80 -221t-142 -257t-205.5 -270.5l-348 -8l-31 436h-8q-75 -252 -197 -428l-350 -8zM504 1282
q0 84 55 138.5t137 54.5q65 0 99 -34.5t34 -90.5q0 -85 -54.5 -139t-137.5 -54q-64 0 -98.5 34.5t-34.5 90.5zM942 1282q0 84 55 138.5t136 54.5q65 0 99 -34.5t34 -90.5q0 -85 -55 -139t-136 -54q-65 0 -99 34.5t-34 90.5z" />
    <glyph glyph-name="uni1E9E" unicode="&#x1e9e;" horiz-adv-x="1378" 
d="M1337 1253l-2 -36l-305 -478q51 -18 95.5 -46.5t84.5 -70.5t63 -102t23 -131q0 -191 -129 -301.5t-338 -110.5q-182 0 -303 64l72 233q66 -32 162 -32q89 0 135 32q47 50 47 134q0 88 -59 135t-183 73v115l230 354q-76 33 -178 33q-104 0 -160 -41q-58 -63 -82 -239
l-109 -838h-360l106 817q43 310 188 447t425 137q176 -1 332 -46.5t245 -101.5z" />
    <glyph glyph-name="uni1EA2" unicode="&#x1ea2;" horiz-adv-x="1257" 
d="M686 1049l-201 -523h263l-29 256l-25 267h-8zM522 1368l426 8l205 -1235q13 -88 6 -141h-352l-31 264h-391l-100 -264h-348q0 58 47 150zM606 1741l-26 162q86 28 165 28q102 0 160 -49.5t58 -138.5q0 -118 -90.5 -179.5t-249.5 -72.5l-21 158q92 16 117 34q8 13 8 35
q0 35 -39 35q-36 0 -82 -12z" />
    <glyph glyph-name="uni1EA3" unicode="&#x1ea3;" horiz-adv-x="1101" 
d="M444 244q85 15 166 84l58 444q-46 4 -64 4q-60 0 -94 -12q-52 -65 -80.5 -170.5t-28.5 -210.5q0 -109 43 -139zM37 324q0 324 169.5 517t450.5 193q190 0 390 -90l-68 -522q-23 -158 -35 -402l-278 -38l-39 161q-164 -170 -332 -170q-131 0 -194.5 95t-63.5 256z
M551 1411l-27 164q85 29 166 29q102 0 162 -51.5t61 -143.5q0 -127 -96 -200.5t-252 -86.5l-18 162q86 15 121 45q10 17 10 49q0 21 -13.5 33t-37.5 12q-33 0 -76 -12z" />
    <glyph glyph-name="uni1EA4" unicode="&#x1ea4;" horiz-adv-x="1257" 
d="M686 1049l-201 -523h263l-29 256l-25 267h-8zM522 1368l426 8l205 -1235q13 -88 6 -141h-352l-31 264h-391l-100 -264h-348q0 58 47 150zM680 1843l225 6l207 -256l-160 -127l-190 166l-256 -166l-115 144zM526 2060l480 207l79 -213l-2 -22l-497 -138z" />
    <glyph glyph-name="uni1EA5" unicode="&#x1ea5;" horiz-adv-x="1101" 
d="M444 244q85 15 166 84l58 444q-46 4 -64 4q-60 0 -94 -12q-52 -65 -80.5 -170.5t-28.5 -210.5q0 -109 43 -139zM37 324q0 324 169.5 517t450.5 193q190 0 390 -90l-68 -522q-23 -158 -35 -402l-278 -38l-39 161q-164 -170 -332 -170q-131 0 -194.5 95t-63.5 256z
M625 1532l213 8l192 -334l-160 -104l-168 211l-256 -211l-129 127zM885 1579l256 375l188 -135v-25l-301 -317z" />
    <glyph glyph-name="uni1EA6" unicode="&#x1ea6;" horiz-adv-x="1257" 
d="M686 1049l-201 -523h263l-29 256l-25 267h-8zM522 1368l426 8l205 -1235q13 -88 6 -141h-352l-31 264h-391l-100 -264h-348q0 58 47 150zM680 1843l225 6l207 -256l-160 -127l-190 166l-256 -166l-115 144zM510 2056l80 213l481 -209l-61 -164l-496 136z" />
    <glyph glyph-name="uni1EA7" unicode="&#x1ea7;" horiz-adv-x="1101" 
d="M444 244q85 15 166 84l58 444q-46 4 -64 4q-60 0 -94 -12q-52 -65 -80.5 -170.5t-28.5 -210.5q0 -109 43 -139zM37 324q0 324 169.5 517t450.5 193q190 0 390 -90l-68 -522q-23 -158 -35 -402l-278 -38l-39 161q-164 -170 -332 -170q-131 0 -194.5 95t-63.5 256z
M625 1532l213 8l192 -334l-160 -104l-168 211l-256 -211l-129 127zM729 1825l186 137l256 -375l-141 -104l-301 319v23z" />
    <glyph glyph-name="uni1EA8" unicode="&#x1ea8;" horiz-adv-x="1257" 
d="M686 1049l-201 -523h263l-29 256l-25 267h-8zM522 1368l426 8l205 -1235q13 -88 6 -141h-352l-31 264h-391l-100 -264h-348q0 58 47 150zM680 1843l225 6l207 -256l-160 -127l-190 166l-256 -166l-115 144zM979 2085l-25 158q76 26 154 26q96 0 151.5 -48t55.5 -134
q0 -117 -85.5 -178t-232.5 -72l-24 154q81 14 117 34q11 18 8 35q0 37 -41 37q-31 0 -78 -12z" />
    <glyph glyph-name="uni1EA9" unicode="&#x1ea9;" horiz-adv-x="1101" 
d="M444 244q85 15 166 84l58 444q-46 4 -64 4q-60 0 -94 -12q-52 -65 -80.5 -170.5t-28.5 -210.5q0 -109 43 -139zM37 324q0 324 169.5 517t450.5 193q190 0 390 -90l-68 -522q-23 -158 -35 -402l-278 -38l-39 161q-164 -170 -332 -170q-131 0 -194.5 95t-63.5 256z
M623 1532l213 8l192 -334l-160 -104l-168 211l-256 -211l-129 127zM928 1759l-27 164q85 29 162 29q98 0 155.5 -52t57.5 -143q0 -127 -90.5 -199t-243.5 -83l-18 159q88 15 118 45q13 18 13 50q0 21 -13.5 33t-37.5 12q-33 0 -76 -15z" />
    <glyph glyph-name="uni1EAA" unicode="&#x1eaa;" horiz-adv-x="1257" 
d="M686 1049l-201 -523h263l-29 256l-25 267h-8zM522 1368l426 8l205 -1235q13 -88 6 -141h-352l-31 264h-391l-100 -264h-348q0 58 47 150zM682 1843l225 6l207 -256l-160 -127l-190 166l-256 -166l-115 144zM408 2003q63 123 128.5 181.5t155.5 58.5q50 0 96.5 -24t92 -62
t53.5 -43q27 12 63 49.5t66 85.5l156 -90q-58 -124 -126 -183t-161 -59q-40 0 -81 16.5t-64.5 33.5t-55.5 44.5t-39 32.5q-50 -23 -131 -131z" />
    <glyph glyph-name="uni1EAB" unicode="&#x1eab;" horiz-adv-x="1075" 
d="M444 244q85 15 166 84l58 444q-46 4 -64 4q-60 0 -94 -12q-52 -65 -80.5 -170.5t-28.5 -210.5q0 -109 43 -139zM37 324q0 324 169.5 517t450.5 193q190 0 390 -90l-68 -522q-23 -158 -35 -402l-278 -38l-39 161q-164 -170 -332 -170q-131 0 -194.5 95t-63.5 256z
M582 1528l213 8l192 -334l-160 -104l-168 211l-256 -211l-129 127zM313 1698q25 55 49.5 95t59 79t80 59.5t100.5 20.5q46 0 89.5 -23t93.5 -65.5t59 -48.5q58 36 114 139l154 -78q-41 -117 -109.5 -189.5t-168.5 -72.5q-39 0 -77.5 16t-62 34.5t-56 47t-46.5 39.5
q-53 -34 -121 -137z" />
    <glyph glyph-name="uni1EAC" unicode="&#x1eac;" horiz-adv-x="1257" 
d="M686 1049l-201 -523h263l-29 256l-25 267h-8zM522 1368l426 8l205 -1235q13 -88 6 -141h-352l-31 264h-391l-100 -264h-348q0 58 47 150zM340 -346q0 89 61.5 144t153.5 55q69 0 109.5 -37t40.5 -95q0 -90 -62 -144t-154 -54q-71 0 -110 35.5t-39 95.5zM686 1878l223 8
l207 -272l-160 -125l-190 170l-256 -170l-115 143z" />
    <glyph glyph-name="uni1EAD" unicode="&#x1ead;" horiz-adv-x="1101" 
d="M444 244q85 15 166 84l58 444q-46 4 -64 4q-60 0 -94 -12q-52 -65 -80.5 -170.5t-28.5 -210.5q0 -109 43 -139zM37 324q0 324 169.5 517t450.5 193q190 0 390 -90l-68 -522q-23 -158 -35 -402l-278 -38l-39 161q-164 -170 -332 -170q-131 0 -194.5 95t-63.5 256z
M272 -346q0 89 61.5 144t153.5 55q69 0 109.5 -37t40.5 -95q0 -90 -61.5 -144t-153.5 -54q-71 0 -110.5 35.5t-39.5 95.5zM621 1567l217 8l196 -352l-162 -107l-172 221l-260 -221l-131 131z" />
    <glyph glyph-name="uni1EAE" unicode="&#x1eae;" horiz-adv-x="1257" 
d="M686 1049l-201 -523h263l-29 256l-25 267h-8zM522 1368l426 8l205 -1235q13 -88 6 -141h-352l-31 264h-391l-100 -264h-348q0 58 47 150zM1124 1753q-129 -263 -391 -260q-130 0 -212.5 77t-102.5 214l192 65q29 -74 64 -108.5t100 -34.5q38 0 78 14q49 34 109 123z
M561 2060l481 209l78 -213l-2 -24l-497 -136z" />
    <glyph glyph-name="uni1EAF" unicode="&#x1eaf;" horiz-adv-x="1101" 
d="M444 244q85 15 166 84l58 444q-46 4 -64 4q-60 0 -94 -12q-52 -65 -80.5 -170.5t-28.5 -210.5q0 -109 43 -139zM37 324q0 324 169.5 517t450.5 193q190 0 390 -90l-68 -522q-23 -158 -35 -402l-278 -38l-39 161q-164 -170 -332 -170q-131 0 -194.5 95t-63.5 256z
M1065 1460q-60 -183 -151 -262.5t-244 -79.5q-136 0 -214.5 94.5t-90.5 268.5l198 35q15 -92 44 -135.5t91 -43.5q42 0 88 21q63 63 93 155zM586 1620l256 377l188 -135v-25l-301 -319z" />
    <glyph glyph-name="uni1EB0" unicode="&#x1eb0;" horiz-adv-x="1257" 
d="M686 1049l-201 -523h263l-29 256l-25 267h-8zM522 1368l426 8l205 -1235q13 -88 6 -141h-352l-31 264h-391l-100 -264h-348q0 58 47 150zM1124 1753q-129 -263 -391 -260q-130 0 -212.5 77t-102.5 214l192 65q29 -74 64 -108.5t100 -34.5q38 0 78 14q49 34 109 123z
M494 2056l79 211l480 -207l-60 -166l-497 138z" />
    <glyph glyph-name="uni1EB1" unicode="&#x1eb1;" horiz-adv-x="1075" 
d="M444 244q85 15 166 84l58 444q-46 4 -64 4q-60 0 -94 -12q-52 -65 -80.5 -170.5t-28.5 -210.5q0 -109 43 -139zM37 324q0 324 169.5 517t450.5 193q190 0 390 -90l-68 -522q-23 -158 -35 -402l-278 -38l-39 161q-164 -170 -332 -170q-131 0 -194.5 95t-63.5 256z
M1024 1456q-60 -183 -151 -262.5t-244 -79.5q-136 0 -214.5 94.5t-90.5 268.5l198 34q15 -92 44 -135t91 -43q41 0 88 21q63 63 93 155zM387 1858l188 135l259 -377l-144 -103l-303 320v25z" />
    <glyph glyph-name="uni1EB2" unicode="&#x1eb2;" horiz-adv-x="1257" 
d="M686 1049l-201 -523h263l-29 256l-25 267h-8zM522 1368l426 8l205 -1235q13 -88 6 -141h-352l-31 264h-391l-100 -264h-348q0 58 47 150zM1124 1753q-129 -263 -391 -260q-130 0 -212.5 77t-102.5 214l192 65q29 -74 64 -108.5t100 -34.5q38 0 78 14q49 34 109 123z
M678 2105l-25 158q79 27 152 27q97 0 153 -48.5t56 -134.5q0 -116 -86.5 -177t-235.5 -72l-20 155q77 10 116 35q9 15 9 35q-3 35 -41 35q-28 0 -78 -13z" />
    <glyph glyph-name="uni1EB3" unicode="&#x1eb3;" horiz-adv-x="1101" 
d="M444 244q85 15 166 84l58 444q-46 4 -64 4q-60 0 -94 -12q-52 -65 -80.5 -170.5t-28.5 -210.5q0 -109 43 -139zM37 324q0 324 169.5 517t450.5 193q190 0 390 -90l-68 -522q-23 -158 -35 -402l-278 -38l-39 161q-164 -170 -332 -170q-131 0 -194.5 95t-63.5 256z
M1067 1460q-60 -183 -151 -262.5t-244 -79.5q-136 0 -214.5 94.5t-90.5 268.5l198 35q15 -92 44 -135.5t91 -43.5q42 0 88 21q63 63 93 155zM623 1819l-25 161q85 29 160 29q97 0 154 -51t57 -141q0 -125 -89.5 -197.5t-240.5 -83.5l-21 158q90 18 121 45q11 19 11 49
q0 21 -14 33t-38 12q-34 0 -75 -14z" />
    <glyph glyph-name="uni1EB4" unicode="&#x1eb4;" horiz-adv-x="1257" 
d="M686 1049l-201 -523h263l-29 256l-25 267h-8zM522 1368l426 8l205 -1235q13 -88 6 -141h-352l-31 264h-391l-100 -264h-348q0 58 47 150zM1124 1753q-129 -263 -391 -260q-130 0 -212.5 77t-102.5 214l192 65q29 -74 64 -108.5t100 -34.5q38 0 78 14q49 34 109 123z
M408 2003q64 121 128 178t152 57q49 0 94.5 -23.5t90.5 -61t53 -42.5q25 10 60.5 46.5t68.5 85.5l151 -86q-59 -124 -125 -182t-157 -58q-50 0 -93.5 21t-92.5 62.5t-50 41.5q-50 -24 -129 -129z" />
    <glyph glyph-name="uni1EB5" unicode="&#x1eb5;" horiz-adv-x="1101" 
d="M444 244q85 15 166 84l58 444q-46 4 -64 4q-60 0 -94 -12q-52 -65 -80.5 -170.5t-28.5 -210.5q0 -109 43 -139zM37 324q0 324 169.5 517t450.5 193q190 0 390 -90l-68 -522q-23 -158 -35 -402l-278 -38l-39 161q-164 -170 -332 -170q-131 0 -194.5 95t-63.5 256z
M1065 1460q-60 -183 -151 -262.5t-244 -79.5q-136 0 -214.5 94.5t-90.5 268.5l198 35q15 -92 44 -135.5t91 -43.5q42 0 88 21q63 63 93 155zM360 1696q26 56 49.5 95.5t58 78.5t79.5 59.5t100 20.5q45 0 88 -23t92.5 -65.5t59.5 -49.5q55 39 114 140l152 -78
q-41 -116 -109.5 -188t-166.5 -72q-50 0 -91 20.5t-91.5 66t-57.5 50.5q-53 -34 -121 -137z" />
    <glyph glyph-name="uni1EB6" unicode="&#x1eb6;" horiz-adv-x="1257" 
d="M686 1049l-201 -523h263l-29 256l-25 267h-8zM522 1368l426 8l205 -1235q13 -88 6 -141h-352l-31 264h-391l-100 -264h-348q0 58 47 150zM340 -346q0 89 61.5 144t153.5 55q69 0 109.5 -37t40.5 -95q0 -90 -62 -144t-154 -54q-71 0 -110 35.5t-39 95.5zM1143 1778
q-132 -269 -402 -269q-131 1 -214 80.5t-105 220.5l196 66q29 -75 65.5 -110t102.5 -35q38 0 78 14q48 31 111 125z" />
    <glyph glyph-name="uni1EB7" unicode="&#x1eb7;" horiz-adv-x="1101" 
d="M444 244q85 15 166 84l58 444q-46 4 -64 4q-60 0 -94 -12q-52 -65 -80.5 -170.5t-28.5 -210.5q0 -109 43 -139zM37 324q0 324 169.5 517t450.5 193q190 0 390 -90l-68 -522q-23 -158 -35 -402l-278 -38l-39 161q-164 -170 -332 -170q-131 0 -194.5 95t-63.5 256z
M272 -346q0 89 61.5 144t153.5 55q69 0 109.5 -37t40.5 -95q0 -90 -61.5 -144t-153.5 -54q-71 0 -110.5 35.5t-39.5 95.5zM1071 1491q-61 -188 -154.5 -271t-248.5 -83q-137 0 -217.5 98t-92.5 276l203 35q15 -93 44.5 -136.5t92.5 -43.5q50 0 90 18q59 59 93 160z" />
    <glyph glyph-name="uni1EBA" unicode="&#x1eba;" horiz-adv-x="1101" 
d="M221 1372h877l-43 -268h-504l-37 -279h381l-33 -262h-383l-39 -295h502l-14 -268h-887zM578 1741l-27 162q86 28 166 28q102 0 159.5 -49.5t57.5 -138.5q0 -118 -90.5 -179.5t-249.5 -72.5l-21 158q92 16 117 34q8 13 8 35q0 35 -39 35q-35 0 -81 -12z" />
    <glyph glyph-name="uni1EBB" unicode="&#x1ebb;" horiz-adv-x="1005" 
d="M41 377q0 103 25.5 200.5t77 180.5t122.5 145t168.5 97.5t208.5 35.5q156 0 241 -72t85 -202q0 -99 -48 -173t-132 -118t-182 -67t-214 -29q7 -92 41 -137q173 -3 371 77l67 -206q-102 -61 -223.5 -96.5t-238.5 -35.5q-177 0 -273 103.5t-96 296.5zM492 782
q-67 -98 -89 -233q113 13 183.5 55t70.5 113q0 82 -79 82q-48 0 -86 -17zM504 1411l-27 164q85 29 166 29q102 0 162 -51.5t61 -143.5q0 -127 -96 -200.5t-252 -86.5l-18 162q86 15 121 45q10 17 10 49q0 21 -13.5 33t-37.5 12q-32 0 -76 -12z" />
    <glyph glyph-name="uni1EBC" unicode="&#x1ebc;" horiz-adv-x="1101" 
d="M221 1372h877l-43 -268h-504l-37 -279h381l-33 -262h-383l-39 -295h502l-14 -268h-887zM330 1604q69 134 141 206t166 72q46 0 89.5 -24.5t86.5 -64t53 -46.5q26 12 62 51t69 90l158 -92q-66 -141 -138 -210.5t-171 -69.5q-51 0 -94.5 24.5t-85.5 65.5t-48 45
q-19 -8 -44.5 -34t-41 -46.5t-45.5 -61.5z" />
    <glyph glyph-name="uni1EBD" unicode="&#x1ebd;" horiz-adv-x="1005" 
d="M41 377q0 103 25.5 200.5t77 180.5t122.5 145t168.5 97.5t208.5 35.5q156 0 241 -72t85 -202q0 -99 -48 -173t-132 -118t-182 -67t-214 -29q7 -92 41 -137q173 -3 371 77l67 -206q-102 -61 -223.5 -96.5t-238.5 -35.5q-177 0 -273 103.5t-96 296.5zM492 782
q-67 -98 -89 -233q113 13 183.5 55t70.5 113q0 82 -79 82q-48 0 -86 -17zM223 1229q26 60 52.5 105t64 88.5t86.5 67t106 23.5q29 0 57 -8.5t58.5 -29t45.5 -31.5t48.5 -41t36.5 -33q59 41 119 146l160 -82q-43 -125 -118 -208t-177 -83q-41 0 -80 16t-61 32.5t-58.5 49
t-50.5 43.5q-62 -38 -123 -141z" />
    <glyph glyph-name="uni1EBE" unicode="&#x1ebe;" horiz-adv-x="1101" 
d="M221 1372h877l-43 -268h-504l-37 -279h381l-33 -262h-383l-39 -295h502l-14 -268h-887zM653 1843l226 6l206 -256l-159 -127l-191 166l-256 -166l-114 144zM500 2060l479 207l80 -213l-2 -22l-498 -138z" />
    <glyph glyph-name="uni1EBF" unicode="&#x1ebf;" horiz-adv-x="1005" 
d="M41 377q0 103 25.5 200.5t77 180.5t122.5 145t168.5 97.5t208.5 35.5q156 0 241 -72t85 -202q0 -99 -48 -173t-132 -118t-182 -67t-214 -29q7 -92 41 -137q173 -3 371 77l67 -206q-102 -61 -223.5 -96.5t-238.5 -35.5q-177 0 -273 103.5t-96 296.5zM492 782
q-67 -98 -89 -233q113 13 183.5 55t70.5 113q0 82 -79 82q-48 0 -86 -17zM578 1532l213 8l192 -334l-160 -104l-168 211l-256 -211l-129 127zM838 1579l256 375l188 -135v-25l-301 -317z" />
    <glyph glyph-name="uni1EC0" unicode="&#x1ec0;" horiz-adv-x="1101" 
d="M221 1372h877l-43 -268h-504l-37 -279h381l-33 -262h-383l-39 -295h502l-14 -268h-887zM653 1843l226 6l206 -256l-159 -127l-191 166l-256 -166l-114 144zM483 2056l80 213l481 -209l-61 -164l-496 136z" />
    <glyph glyph-name="uni1EC1" unicode="&#x1ec1;" horiz-adv-x="1005" 
d="M41 377q0 103 25.5 200.5t77 180.5t122.5 145t168.5 97.5t208.5 35.5q156 0 241 -72t85 -202q0 -99 -48 -173t-132 -118t-182 -67t-214 -29q7 -92 41 -137q173 -3 371 77l67 -206q-102 -61 -223.5 -96.5t-238.5 -35.5q-177 0 -273 103.5t-96 296.5zM492 782
q-67 -98 -89 -233q113 13 183.5 55t70.5 113q0 82 -79 82q-48 0 -86 -17zM578 1532l213 8l192 -334l-160 -104l-168 211l-256 -211l-129 127zM682 1825l186 137l256 -375l-141 -104l-301 319v23z" />
    <glyph glyph-name="uni1EC2" unicode="&#x1ec2;" horiz-adv-x="1101" 
d="M221 1372h877l-43 -268h-504l-37 -279h381l-33 -262h-383l-39 -295h502l-14 -268h-887zM653 1843l226 6l206 -256l-159 -127l-191 166l-256 -166l-114 144zM952 2085l-24 158q76 26 153 26q96 0 151.5 -48t55.5 -134q0 -117 -85 -178t-232 -72l-25 154q81 14 117 34
q11 18 8 35q0 37 -41 37q-32 0 -78 -12z" />
    <glyph glyph-name="uni1EC3" unicode="&#x1ec3;" horiz-adv-x="1054" 
d="M41 377q0 103 25.5 200.5t77 180.5t122.5 145t168.5 97.5t208.5 35.5q156 0 241 -72t85 -202q0 -99 -48 -173t-132 -118t-182 -67t-214 -29q7 -92 41 -137q173 -3 371 77l67 -206q-102 -61 -223.5 -96.5t-238.5 -35.5q-177 0 -273 103.5t-96 296.5zM492 782
q-67 -98 -89 -233q113 13 183.5 55t70.5 113q0 82 -79 82q-48 0 -86 -17zM586 1528l213 8l192 -334l-160 -104l-167 211l-256 -211l-129 127zM891 1755l-27 164q85 29 162 29q98 0 155.5 -52t57.5 -143q0 -127 -90.5 -199.5t-243.5 -83.5l-18 160q89 15 119 45q12 17 12 49
q0 21 -13.5 33t-37.5 12q-35 0 -76 -14z" />
    <glyph glyph-name="uni1EC4" unicode="&#x1ec4;" horiz-adv-x="1101" 
d="M221 1372h877l-43 -268h-504l-37 -279h381l-33 -262h-383l-39 -295h502l-14 -268h-887zM653 1843l226 6l206 -256l-159 -127l-191 166l-256 -166l-114 144zM379 2003q63 123 129 181.5t156 58.5q50 0 96.5 -24t91.5 -62t53 -43q27 12 63 49.5t66 85.5l156 -90
q-58 -124 -126 -183t-161 -59q-40 0 -80.5 16.5t-64 33.5t-55 44t-39.5 33q-51 -24 -132 -131z" />
    <glyph glyph-name="uni1EC5" unicode="&#x1ec5;" horiz-adv-x="1005" 
d="M41 377q0 103 25.5 200.5t77 180.5t122.5 145t168.5 97.5t208.5 35.5q156 0 241 -72t85 -202q0 -99 -48 -173t-132 -118t-182 -67t-214 -29q7 -92 41 -137q173 -3 371 77l67 -206q-102 -61 -223.5 -96.5t-238.5 -35.5q-177 0 -273 103.5t-96 296.5zM492 782
q-67 -98 -89 -233q113 13 183.5 55t70.5 113q0 82 -79 82q-48 0 -86 -17zM575 1532l213 8l193 -334l-160 -104l-168 211l-256 -211l-129 127zM307 1702q25 55 49.5 95t59 79t80 59.5t100.5 20.5q46 0 89.5 -23t93.5 -65.5t59 -48.5q58 36 114 139l154 -78
q-41 -117 -110 -189.5t-169 -72.5q-51 0 -92 20.5t-91.5 66t-57.5 50.5q-53 -34 -121 -137z" />
    <glyph glyph-name="uni1EC6" unicode="&#x1ec6;" horiz-adv-x="1062" 
d="M221 1372h877l-43 -268h-504l-37 -279h381l-33 -262h-383l-39 -295h502l-14 -268h-887zM289 -346q0 89 61.5 144t153.5 55q69 0 109 -37t40 -95q0 -90 -61.5 -144t-153.5 -54q-71 0 -110 35.5t-39 95.5zM608 1878l223 8l207 -272l-159 -125l-191 170l-256 -170l-115 143z
" />
    <glyph glyph-name="uni1EC7" unicode="&#x1ec7;" horiz-adv-x="1005" 
d="M41 377q0 103 25.5 200.5t77 180.5t122.5 145t168.5 97.5t208.5 35.5q156 0 241 -72t85 -202q0 -99 -48 -173t-132 -118t-182 -67t-214 -29q7 -92 41 -137q173 -3 371 77l67 -206q-102 -61 -223.5 -96.5t-238.5 -35.5q-177 0 -273 103.5t-96 296.5zM492 782
q-67 -98 -89 -233q113 13 183.5 55t70.5 113q0 82 -79 82q-48 0 -86 -17zM225 -346q0 89 61.5 144t153.5 55q69 0 109.5 -37t40.5 -95q0 -90 -61.5 -144t-153.5 -54q-71 0 -110.5 35.5t-39.5 95.5zM571 1567l217 8l197 -352l-162 -107l-172 221l-260 -221l-131 131z" />
    <glyph glyph-name="uni1EC8" unicode="&#x1ec8;" horiz-adv-x="618" 
d="M221 1372h365l-180 -1372h-365zM295 1741l-27 162q86 28 166 28q102 0 159.5 -49.5t57.5 -138.5q0 -118 -90.5 -179.5t-249.5 -72.5l-20 158q92 16 117 34q8 13 8 35q0 35 -39 35q-35 0 -82 -12z" />
    <glyph glyph-name="uni1EC9" unicode="&#x1ec9;" horiz-adv-x="565" 
d="M160 1006l358 6l-135 -1012h-356zM240 1411l-27 164q85 29 166 29q102 0 162 -51.5t61 -143.5q0 -127 -96 -200.5t-252 -86.5l-18 162q85 14 120 45q11 19 11 49q0 21 -14 33t-38 12q-31 0 -75 -12z" />
    <glyph glyph-name="uni1ECE" unicode="&#x1ece;" horiz-adv-x="1398" 
d="M61 518q0 76 12.5 158t40 168.5t68 166.5t100.5 151.5t132.5 124t168.5 83.5t205 31q120 0 214 -44.5t152 -123.5t88 -180.5t30 -221.5q0 -94 -17.5 -190.5t-52.5 -194.5t-94 -182.5t-136 -150.5t-185.5 -104t-235.5 -38q-121 0 -216 42.5t-154 117t-89.5 173
t-30.5 214.5zM899 844q0 282 -168 282q-65 0 -133 -39q-70 -87 -116 -250.5t-48 -312.5q0 -135 43 -206.5t127 -71.5q78 0 146 45q65 87 107 250t42 303zM688 1741l-26 162q86 28 165 28q102 0 159.5 -49.5t57.5 -138.5q0 -118 -90 -179.5t-249 -72.5l-21 158q92 16 117 34
q8 13 8 35q0 35 -39 35q-36 0 -82 -12z" />
    <glyph glyph-name="uni1ECF" unicode="&#x1ecf;" horiz-adv-x="1095" 
d="M39 389q1 83 20.5 168.5t65 172.5t111 154t167 109.5t224.5 42.5q103 0 182.5 -32.5t127.5 -89.5t72.5 -131t24.5 -162q-1 -83 -20.5 -168.5t-65 -173t-111 -155.5t-167 -110.5t-224.5 -42.5q-198 0 -302.5 117t-104.5 301zM676 625q0 166 -105 166q-43 0 -77 -17
q-42 -63 -68.5 -176t-26.5 -213q0 -75 27 -121.5t78 -46.5q46 0 78 19q42 64 68 176t26 213zM514 1411l-27 164q85 29 166 29q102 0 162.5 -51.5t61.5 -143.5q0 -127 -96.5 -200.5t-252.5 -86.5l-18 162q86 15 121 45q10 17 10 49q0 21 -13.5 33t-37.5 12q-32 0 -76 -12z
" />
    <glyph glyph-name="uni1ED0" unicode="&#x1ed0;" horiz-adv-x="1398" 
d="M61 518q0 76 12.5 158t40 168.5t68 166.5t100.5 151.5t132.5 124t168.5 83.5t205 31q120 0 214 -44.5t152 -123.5t88 -180.5t30 -221.5q0 -94 -17.5 -190.5t-52.5 -194.5t-94 -182.5t-136 -150.5t-185.5 -104t-235.5 -38q-121 0 -216 42.5t-154 117t-89.5 173
t-30.5 214.5zM899 844q0 282 -168 282q-65 0 -133 -39q-70 -87 -116 -250.5t-48 -312.5q0 -135 43 -206.5t127 -71.5q78 0 146 45q65 87 107 250t42 303zM764 1843l225 6l207 -256l-160 -127l-190 166l-256 -166l-115 144zM610 2060l480 207l79 -213l-2 -22l-497 -138z" />
    <glyph glyph-name="uni1ED1" unicode="&#x1ed1;" horiz-adv-x="1136" 
d="M39 389q1 83 20.5 168.5t65 172.5t111 154t167 109.5t224.5 42.5q103 0 182.5 -32.5t127.5 -89.5t72.5 -131t24.5 -162q-1 -83 -20.5 -168.5t-65 -173t-111 -155.5t-167 -110.5t-224.5 -42.5q-198 0 -302.5 117t-104.5 301zM676 625q0 166 -105 166q-43 0 -77 -17
q-42 -63 -68.5 -176t-26.5 -213q0 -75 27 -121.5t78 -46.5q46 0 78 19q42 64 68 176t26 213zM608 1528l213 8l193 -334l-160 -104l-168 211l-256 -211l-129 127zM868 1575l256 375l189 -135v-25l-301 -317z" />
    <glyph glyph-name="uni1ED2" unicode="&#x1ed2;" horiz-adv-x="1398" 
d="M61 518q0 76 12.5 158t40 168.5t68 166.5t100.5 151.5t132.5 124t168.5 83.5t205 31q120 0 214 -44.5t152 -123.5t88 -180.5t30 -221.5q0 -94 -17.5 -190.5t-52.5 -194.5t-94 -182.5t-136 -150.5t-185.5 -104t-235.5 -38q-121 0 -216 42.5t-154 117t-89.5 173
t-30.5 214.5zM899 844q0 282 -168 282q-65 0 -133 -39q-70 -87 -116 -250.5t-48 -312.5q0 -135 43 -206.5t127 -71.5q78 0 146 45q65 87 107 250t42 303zM764 1843l225 6l207 -256l-160 -127l-190 166l-256 -166l-115 144zM594 2056l80 213l481 -209l-61 -164l-496 136z" />
    <glyph glyph-name="uni1ED3" unicode="&#x1ed3;" horiz-adv-x="1136" 
d="M39 389q1 83 20.5 168.5t65 172.5t111 154t167 109.5t224.5 42.5q103 0 182.5 -32.5t127.5 -89.5t72.5 -131t24.5 -162q-1 -83 -20.5 -168.5t-65 -173t-111 -155.5t-167 -110.5t-224.5 -42.5q-198 0 -302.5 117t-104.5 301zM676 625q0 166 -105 166q-43 0 -77 -17
q-42 -63 -68.5 -176t-26.5 -213q0 -75 27 -121.5t78 -46.5q46 0 78 19q42 64 68 176t26 213zM608 1528l213 8l193 -334l-160 -104l-168 211l-256 -211l-129 127zM713 1821l186 137l256 -375l-141 -104l-301 319v23z" />
    <glyph glyph-name="uni1ED4" unicode="&#x1ed4;" horiz-adv-x="1398" 
d="M61 518q0 76 12.5 158t40 168.5t68 166.5t100.5 151.5t132.5 124t168.5 83.5t205 31q120 0 214 -44.5t152 -123.5t88 -180.5t30 -221.5q0 -94 -17.5 -190.5t-52.5 -194.5t-94 -182.5t-136 -150.5t-185.5 -104t-235.5 -38q-121 0 -216 42.5t-154 117t-89.5 173
t-30.5 214.5zM899 844q0 282 -168 282q-65 0 -133 -39q-70 -87 -116 -250.5t-48 -312.5q0 -135 43 -206.5t127 -71.5q78 0 146 45q65 87 107 250t42 303zM764 1843l225 6l207 -256l-160 -127l-190 166l-256 -166l-115 144zM1063 2085l-25 158q76 26 154 26q96 0 151.5 -48
t55.5 -134q0 -117 -85.5 -178t-232.5 -72l-24 154q81 14 117 34q11 18 8 35q0 37 -41 37q-31 0 -78 -12z" />
    <glyph glyph-name="uni1ED5" unicode="&#x1ed5;" horiz-adv-x="1136" 
d="M39 389q1 83 20.5 168.5t65 172.5t111 154t167 109.5t224.5 42.5q103 0 182.5 -32.5t127.5 -89.5t72.5 -131t24.5 -162q-1 -83 -20.5 -168.5t-65 -173t-111 -155.5t-167 -110.5t-224.5 -42.5q-198 0 -302.5 117t-104.5 301zM676 625q0 166 -105 166q-43 0 -77 -17
q-42 -63 -68.5 -176t-26.5 -213q0 -75 27 -121.5t78 -46.5q46 0 78 19q42 64 68 176t26 213zM608 1528l213 8l193 -334l-160 -104l-168 211l-256 -211l-129 127zM913 1755l-26 164q85 29 162 29q98 0 155.5 -52t57.5 -143q0 -127 -90.5 -199.5t-243.5 -83.5l-19 160
q89 15 119 45q12 17 12 49q0 21 -13.5 33t-37.5 12q-35 0 -76 -14z" />
    <glyph glyph-name="uni1ED6" unicode="&#x1ed6;" horiz-adv-x="1398" 
d="M61 518q0 76 12.5 158t40 168.5t68 166.5t100.5 151.5t132.5 124t168.5 83.5t205 31q120 0 214 -44.5t152 -123.5t88 -180.5t30 -221.5q0 -94 -17.5 -190.5t-52.5 -194.5t-94 -182.5t-136 -150.5t-185.5 -104t-235.5 -38q-121 0 -216 42.5t-154 117t-89.5 173
t-30.5 214.5zM899 844q0 282 -168 282q-65 0 -133 -39q-70 -87 -116 -250.5t-48 -312.5q0 -135 43 -206.5t127 -71.5q78 0 146 45q65 87 107 250t42 303zM764 1843l225 6l207 -256l-160 -127l-190 166l-256 -166l-115 144zM489 2003q63 123 129 181.5t156 58.5
q50 0 96.5 -24t92 -62t53.5 -43q27 12 63 49.5t66 85.5l155 -90q-59 -125 -126 -183.5t-160 -58.5q-40 0 -81 16.5t-64.5 33.5t-55.5 44.5t-39 32.5q-50 -23 -131 -131z" />
    <glyph glyph-name="uni1ED7" unicode="&#x1ed7;" horiz-adv-x="1136" 
d="M39 389q1 83 20.5 168.5t65 172.5t111 154t167 109.5t224.5 42.5q103 0 182.5 -32.5t127.5 -89.5t72.5 -131t24.5 -162q-1 -83 -20.5 -168.5t-65 -173t-111 -155.5t-167 -110.5t-224.5 -42.5q-198 0 -302.5 117t-104.5 301zM676 625q0 166 -105 166q-43 0 -77 -17
q-42 -63 -68.5 -176t-26.5 -213q0 -75 27 -121.5t78 -46.5q46 0 78 19q42 64 68 176t26 213zM608 1528l213 8l193 -334l-160 -104l-168 211l-256 -211l-129 127zM340 1698q25 55 49.5 95t59 79t80 59.5t100.5 20.5q46 0 89 -23t93 -65.5t59 -48.5q60 37 115 139l154 -78
q-41 -117 -110 -189.5t-169 -72.5q-39 0 -77.5 16t-62 34.5t-56 47t-46.5 39.5q-52 -33 -120 -137z" />
    <glyph glyph-name="uni1ED8" unicode="&#x1ed8;" horiz-adv-x="1314" 
d="M61 518q0 76 12.5 158t40 168.5t68 166.5t100.5 151.5t132.5 124t168.5 83.5t205 31q120 0 214 -44.5t152 -123.5t88 -180.5t30 -221.5q0 -94 -17.5 -190.5t-52.5 -194.5t-94 -182.5t-136 -150.5t-185.5 -104t-235.5 -38q-121 0 -216 42.5t-154 117t-89.5 173
t-30.5 214.5zM899 844q0 282 -168 282q-65 0 -133 -39q-70 -87 -116 -250.5t-48 -312.5q0 -135 43 -206.5t127 -71.5q78 0 146 45q65 87 107 250t42 303zM369 -346q0 89 61.5 144t153.5 55q69 0 109 -37t40 -95q0 -90 -61.5 -144t-153.5 -54q-71 0 -110 35.5t-39 95.5z
M741 1878l224 8l206 -272l-159 -125l-191 170l-256 -170l-114 143z" />
    <glyph glyph-name="uni1ED9" unicode="&#x1ed9;" horiz-adv-x="1095" 
d="M39 389q1 83 20.5 168.5t65 172.5t111 154t167 109.5t224.5 42.5q103 0 182.5 -32.5t127.5 -89.5t72.5 -131t24.5 -162q-1 -83 -20.5 -168.5t-65 -173t-111 -155.5t-167 -110.5t-224.5 -42.5q-198 0 -302.5 117t-104.5 301zM676 625q0 166 -105 166q-43 0 -77 -17
q-42 -63 -68.5 -176t-26.5 -213q0 -75 27 -121.5t78 -46.5q46 0 78 19q42 64 68 176t26 213zM233 -346q0 89 61.5 144t154.5 55q69 0 109 -37t40 -95q0 -90 -61.5 -144t-153.5 -54q-71 0 -110.5 35.5t-39.5 95.5zM582 1567l217 8l196 -352l-161 -107l-172 221l-261 -221
l-131 131z" />
    <glyph glyph-name="uni1EDA" unicode="&#x1eda;" horiz-adv-x="1349" 
d="M61 518q0 76 12.5 158t40 168.5t68 166.5t100.5 151.5t132.5 124t168.5 83.5t205 31t193 -35q46 -14 90 -14q65 0 105 37q6 35 -2.5 96t-22.5 106l260 15q41 -77 41 -185q0 -245 -235 -297q55 -128 55 -293q0 -94 -17.5 -190.5t-52.5 -194.5t-94 -182.5t-136 -150.5
t-185.5 -104t-235.5 -38q-121 0 -216 42.5t-154 117t-89.5 173t-30.5 214.5zM899 844q0 282 -168 282q-65 0 -133 -39q-70 -87 -116 -250.5t-48 -312.5q0 -135 43 -206.5t127 -71.5q78 0 146 45q65 87 107 250t42 303zM1130 1675l-2 -24l-510 -152l-71 178l489 224z" />
    <glyph glyph-name="uni1EDB" unicode="&#x1edb;" horiz-adv-x="1153" 
d="M39 389q1 83 20.5 168.5t65 172.5t111 154t167 109.5t224.5 42.5q98 0 174 -28q43 -19 76 -19q59 0 90 31q7 38 -2.5 98t-22.5 101l238 12q41 -74 41 -176q0 -108 -56 -178t-153 -97q22 -77 22 -159q-1 -83 -20.5 -168.5t-65 -173t-111 -155.5t-167 -110.5t-224.5 -42.5
q-198 0 -302.5 117t-104.5 301zM676 625q0 166 -105 166q-43 0 -77 -17q-42 -63 -68.5 -176t-26.5 -213q0 -75 27 -121.5t78 -46.5q46 0 78 19q42 64 68 176t26 213zM983 1413l-2 -29l-453 -268l-108 152l422 344z" />
    <glyph glyph-name="uni1EDC" unicode="&#x1edc;" horiz-adv-x="1349" 
d="M61 518q0 76 12.5 158t40 168.5t68 166.5t100.5 151.5t132.5 124t168.5 83.5t205 31t193 -35q46 -14 90 -14q65 0 105 37q6 35 -2.5 96t-22.5 106l260 15q41 -77 41 -185q0 -245 -235 -297q55 -128 55 -293q0 -94 -17.5 -190.5t-52.5 -194.5t-94 -182.5t-136 -150.5
t-185.5 -104t-235.5 -38q-121 0 -216 42.5t-154 117t-89.5 173t-30.5 214.5zM899 844q0 282 -168 282q-65 0 -133 -39q-70 -87 -116 -250.5t-48 -312.5q0 -135 43 -206.5t127 -71.5q78 0 146 45q65 87 107 250t42 303zM1059 1677l-74 -178l-510 152l-2 24l96 226z" />
    <glyph glyph-name="uni1EDD" unicode="&#x1edd;" horiz-adv-x="1153" 
d="M39 389q1 83 20.5 168.5t65 172.5t111 154t167 109.5t224.5 42.5q98 0 174 -28q43 -19 76 -19q59 0 90 31q7 38 -2.5 98t-22.5 101l238 12q41 -74 41 -176q0 -108 -56 -178t-153 -97q22 -77 22 -159q-1 -83 -20.5 -168.5t-65 -173t-111 -155.5t-167 -110.5t-224.5 -42.5
q-198 0 -302.5 117t-104.5 301zM676 625q0 166 -105 166q-43 0 -77 -17q-42 -63 -68.5 -176t-26.5 -213q0 -75 27 -121.5t78 -46.5q46 0 78 19q42 64 68 176t26 213zM858 1268l-110 -152l-449 268l-2 29l139 199z" />
    <glyph glyph-name="uni1EDE" unicode="&#x1ede;" horiz-adv-x="1349" 
d="M61 518q0 76 12.5 158t40 168.5t68 166.5t100.5 151.5t132.5 124t168.5 83.5t205 31t193 -35q46 -14 90 -14q65 0 105 37q6 35 -2.5 96t-22.5 106l260 15q41 -77 41 -185q0 -245 -235 -297q55 -128 55 -293q0 -94 -17.5 -190.5t-52.5 -194.5t-94 -182.5t-136 -150.5
t-185.5 -104t-235.5 -38q-121 0 -216 42.5t-154 117t-89.5 173t-30.5 214.5zM899 844q0 282 -168 282q-65 0 -133 -39q-70 -87 -116 -250.5t-48 -312.5q0 -135 43 -206.5t127 -71.5q78 0 146 45q65 87 107 250t42 303zM655 1741l-26 162q86 28 166 28q102 0 159.5 -49.5
t57.5 -138.5q0 -118 -90.5 -179.5t-249.5 -72.5l-21 158q92 16 117 34q8 13 8 35q0 35 -39 35q-35 0 -82 -12z" />
    <glyph glyph-name="uni1EDF" unicode="&#x1edf;" horiz-adv-x="1153" 
d="M39 389q1 83 20.5 168.5t65 172.5t111 154t167 109.5t224.5 42.5q98 0 174 -28q43 -19 76 -19q59 0 90 31q7 38 -2.5 98t-22.5 101l238 12q41 -74 41 -176q0 -108 -56 -178t-153 -97q22 -77 22 -159q-1 -83 -20.5 -168.5t-65 -173t-111 -155.5t-167 -110.5t-224.5 -42.5
q-198 0 -302.5 117t-104.5 301zM676 625q0 166 -105 166q-43 0 -77 -17q-42 -63 -68.5 -176t-26.5 -213q0 -75 27 -121.5t78 -46.5q46 0 78 19q42 64 68 176t26 213zM494 1411l-27 164q85 29 166 29q102 0 162 -51.5t61 -143.5q0 -127 -96 -200.5t-252 -86.5l-19 162
q86 15 121 45q11 19 11 49q0 21 -14 33t-38 12q-31 0 -75 -12z" />
    <glyph glyph-name="uni1EE0" unicode="&#x1ee0;" horiz-adv-x="1349" 
d="M61 518q0 76 12.5 158t40 168.5t68 166.5t100.5 151.5t132.5 124t168.5 83.5t205 31t193 -35q46 -14 90 -14q65 0 105 37q6 35 -2.5 96t-22.5 106l260 15q41 -77 41 -185q0 -245 -235 -297q55 -128 55 -293q0 -94 -17.5 -190.5t-52.5 -194.5t-94 -182.5t-136 -150.5
t-185.5 -104t-235.5 -38q-121 0 -216 42.5t-154 117t-89.5 173t-30.5 214.5zM899 844q0 282 -168 282q-65 0 -133 -39q-70 -87 -116 -250.5t-48 -312.5q0 -135 43 -206.5t127 -71.5q78 0 146 45q65 87 107 250t42 303zM356 1604q69 134 141.5 206t166.5 72q46 0 89.5 -24.5
t86.5 -64t53 -46.5q26 12 62 51t69 90l158 -92q-65 -140 -138 -210t-172 -70q-39 0 -77.5 17.5t-62 37.5t-50.5 46.5t-37 33.5q-19 -8 -44.5 -34t-41 -46.5t-45.5 -61.5z" />
    <glyph glyph-name="uni1EE1" unicode="&#x1ee1;" horiz-adv-x="1153" 
d="M39 389q1 83 20.5 168.5t65 172.5t111 154t167 109.5t224.5 42.5q98 0 174 -28q43 -19 76 -19q59 0 90 31q7 38 -2.5 98t-22.5 101l238 12q41 -74 41 -176q0 -108 -56 -178t-153 -97q22 -77 22 -159q-1 -83 -20.5 -168.5t-65 -173t-111 -155.5t-167 -110.5t-224.5 -42.5
q-198 0 -302.5 117t-104.5 301zM676 625q0 166 -105 166q-43 0 -77 -17q-42 -63 -68.5 -176t-26.5 -213q0 -75 27 -121.5t78 -46.5q46 0 78 19q42 64 68 176t26 213zM178 1229q27 62 51 105.5t59.5 88t81.5 67.5t101 23q36 0 74 -17t59.5 -33.5t58 -50.5t46.5 -42
q61 45 116 146l162 -82q-105 -291 -285 -291q-40 0 -77 15.5t-57 32t-53 48.5t-48 45q-59 -36 -125 -141z" />
    <glyph glyph-name="uni1EE2" unicode="&#x1ee2;" horiz-adv-x="1349" 
d="M61 518q0 76 12.5 158t40 168.5t68 166.5t100.5 151.5t132.5 124t168.5 83.5t205 31t193 -35q46 -14 90 -14q65 0 105 37q6 35 -2.5 96t-22.5 106l260 15q41 -77 41 -185q0 -245 -235 -297q55 -128 55 -293q0 -94 -17.5 -190.5t-52.5 -194.5t-94 -182.5t-136 -150.5
t-185.5 -104t-235.5 -38q-121 0 -216 42.5t-154 117t-89.5 173t-30.5 214.5zM899 844q0 282 -168 282q-65 0 -133 -39q-70 -87 -116 -250.5t-48 -312.5q0 -135 43 -206.5t127 -71.5q78 0 146 45q65 87 107 250t42 303zM369 -346q0 89 61.5 144t153.5 55q69 0 109 -37t40 -95
q0 -90 -61.5 -144t-153.5 -54q-71 0 -110 35.5t-39 95.5z" />
    <glyph glyph-name="uni1EE3" unicode="&#x1ee3;" horiz-adv-x="1153" 
d="M39 389q1 83 20.5 168.5t65 172.5t111 154t167 109.5t224.5 42.5q98 0 174 -28q43 -19 76 -19q59 0 90 31q7 38 -2.5 98t-22.5 101l238 12q41 -74 41 -176q0 -108 -56 -178t-153 -97q22 -77 22 -159q-1 -83 -20.5 -168.5t-65 -173t-111 -155.5t-167 -110.5t-224.5 -42.5
q-198 0 -302.5 117t-104.5 301zM676 625q0 166 -105 166q-43 0 -77 -17q-42 -63 -68.5 -176t-26.5 -213q0 -75 27 -121.5t78 -46.5q46 0 78 19q42 64 68 176t26 213zM233 -346q0 89 61.5 144t154.5 55q69 0 109 -37t40 -95q0 -90 -61.5 -144t-153.5 -54q-71 0 -110.5 35.5
t-39.5 95.5z" />
    <glyph glyph-name="uni1EE6" unicode="&#x1ee6;" horiz-adv-x="1335" 
d="M920 1372h362l-106 -815q-18 -137 -60 -241t-115 -183.5t-186 -120.5t-264 -41q-77 0 -141.5 13t-111.5 37.5t-84 56.5t-60.5 72.5t-38.5 83.5t-21 91.5t-5 94.5t7 94l113 858h364l-114 -868q-5 -39 -6.5 -69.5t4 -68t20.5 -62t46 -41.5t77 -17q85 0 139 41q46 64 62 190
zM653 1741l-26 162q86 28 166 28q102 0 159.5 -49.5t57.5 -138.5q0 -118 -90.5 -179.5t-249.5 -72.5l-21 158q92 16 117 34q8 13 8 35q0 35 -39 35q-35 0 -82 -12z" />
    <glyph glyph-name="uni1EE7" unicode="&#x1ee7;" horiz-adv-x="1130" 
d="M967 23l-275 -39l-51 176q-84 -90 -179.5 -139.5t-191.5 -49.5q-133 0 -183 84t-28 250l93 701l360 6l-84 -635q-12 -97 14 -119q93 12 191 98l86 652h360l-71 -547q-16 -122 -41 -438zM516 1411l-27 164q85 29 166 29q102 0 162.5 -51.5t61.5 -143.5
q0 -127 -96.5 -200.5t-252.5 -86.5l-18 162q86 15 121 45q10 17 10 49q0 21 -13.5 33t-37.5 12q-32 0 -76 -12z" />
    <glyph glyph-name="uni1EE8" unicode="&#x1ee8;" horiz-adv-x="1323" 
d="M920 1372h114q115 0 158 37q6 37 -2.5 99t-22.5 104l263 14q38 -78 38 -184q0 -234 -215 -291l-77 -594q-18 -137 -60 -241t-115 -183.5t-186 -120.5t-264 -41q-77 0 -141.5 13t-111.5 37.5t-84 56.5t-60.5 72.5t-38.5 83.5t-21 91.5t-5 94.5t7 94l113 858h364l-114 -868
q-5 -39 -6.5 -69.5t4 -68t20.5 -62t46 -41.5t77 -17q85 0 139 41q46 64 62 190zM1098 1675l-2 -24l-510 -152l-72 178l490 224z" />
    <glyph glyph-name="uni1EE9" unicode="&#x1ee9;" horiz-adv-x="1187" 
d="M967 23l-275 -39l-51 176q-84 -90 -179.5 -139.5t-191.5 -49.5q-133 0 -183 84t-28 250l93 701l360 6l-84 -635q-12 -97 14 -119q93 12 191 98l86 652h147q116 0 158 36q6 36 -2.5 94t-22.5 101l238 12q41 -74 41 -174q0 -225 -225 -280l-45 -336q-16 -122 -41 -438z
M967 1413l-2 -29l-453 -268l-109 152l422 344z" />
    <glyph glyph-name="uni1EEA" unicode="&#x1eea;" horiz-adv-x="1323" 
d="M920 1372h114q115 0 158 37q6 37 -2.5 99t-22.5 104l263 14q38 -78 38 -184q0 -234 -215 -291l-77 -594q-18 -137 -60 -241t-115 -183.5t-186 -120.5t-264 -41q-77 0 -141.5 13t-111.5 37.5t-84 56.5t-60.5 72.5t-38.5 83.5t-21 91.5t-5 94.5t7 94l113 858h364l-114 -868
q-5 -39 -6.5 -69.5t4 -68t20.5 -62t46 -41.5t77 -17q85 0 139 41q46 64 62 190zM1020 1677l-74 -178l-510 152l-2 24l96 226z" />
    <glyph glyph-name="uni1EEB" unicode="&#x1eeb;" horiz-adv-x="1187" 
d="M967 23l-275 -39l-51 176q-84 -90 -179.5 -139.5t-191.5 -49.5q-133 0 -183 84t-28 250l93 701l360 6l-84 -635q-12 -97 14 -119q93 12 191 98l86 652h147q116 0 158 36q6 36 -2.5 94t-22.5 101l238 12q41 -74 41 -174q0 -225 -225 -280l-45 -336q-16 -122 -41 -438z
M844 1268l-111 -152l-448 268l-2 29l139 199z" />
    <glyph glyph-name="uni1EEC" unicode="&#x1eec;" horiz-adv-x="1323" 
d="M920 1372h114q115 0 158 37q6 37 -2.5 99t-22.5 104l263 14q38 -78 38 -184q0 -234 -215 -291l-77 -594q-18 -137 -60 -241t-115 -183.5t-186 -120.5t-264 -41q-77 0 -141.5 13t-111.5 37.5t-84 56.5t-60.5 72.5t-38.5 83.5t-21 91.5t-5 94.5t7 94l113 858h364l-114 -868
q-5 -39 -6.5 -69.5t4 -68t20.5 -62t46 -41.5t77 -17q85 0 139 41q46 64 62 190zM614 1741l-26 162q86 28 166 28q102 0 159.5 -49.5t57.5 -138.5q0 -118 -90.5 -179.5t-249.5 -72.5l-21 158q92 16 117 34q8 13 8 35q0 35 -39 35q-36 0 -82 -12z" />
    <glyph glyph-name="uni1EED" unicode="&#x1eed;" horiz-adv-x="1187" 
d="M967 23l-275 -39l-51 176q-84 -90 -179.5 -139.5t-191.5 -49.5q-133 0 -183 84t-28 250l93 701l360 6l-84 -635q-12 -97 14 -119q93 12 191 98l86 652h147q116 0 158 36q6 36 -2.5 94t-22.5 101l238 12q41 -74 41 -174q0 -225 -225 -280l-45 -336q-16 -122 -41 -438z
M477 1411l-26 164q85 29 165 29q102 0 162.5 -51.5t61.5 -143.5q0 -127 -96 -200.5t-252 -86.5l-19 162q86 15 121 45q10 17 10 49q0 21 -13.5 33t-37.5 12q-33 0 -76 -12z" />
    <glyph glyph-name="uni1EEE" unicode="&#x1eee;" horiz-adv-x="1323" 
d="M920 1372h114q115 0 158 37q6 37 -2.5 99t-22.5 104l263 14q38 -78 38 -184q0 -234 -215 -291l-77 -594q-18 -137 -60 -241t-115 -183.5t-186 -120.5t-264 -41q-77 0 -141.5 13t-111.5 37.5t-84 56.5t-60.5 72.5t-38.5 83.5t-21 91.5t-5 94.5t7 94l113 858h364l-114 -868
q-5 -39 -6.5 -69.5t4 -68t20.5 -62t46 -41.5t77 -17q85 0 139 41q46 64 62 190zM328 1604q69 134 141 206t166 72q46 0 89.5 -24.5t86.5 -64t53 -46.5q26 12 62 51t69 90l158 -92q-66 -141 -138 -210.5t-171 -69.5q-51 0 -94.5 24.5t-85.5 65.5t-48 45q-19 -8 -44.5 -34
t-41 -46.5t-45.5 -61.5z" />
    <glyph glyph-name="uni1EEF" unicode="&#x1eef;" horiz-adv-x="1187" 
d="M967 23l-275 -39l-51 176q-84 -90 -179.5 -139.5t-191.5 -49.5q-133 0 -183 84t-28 250l93 701l360 6l-84 -635q-12 -97 14 -119q93 12 191 98l86 652h147q116 0 158 36q6 36 -2.5 94t-22.5 101l238 12q41 -74 41 -174q0 -225 -225 -280l-45 -336q-16 -122 -41 -438z
M182 1229q26 59 52.5 104.5t64 89t87 67t106.5 23.5q29 0 57 -8.5t58 -28.5t46 -32t47.5 -41t36.5 -33q59 41 119 146l160 -82q-43 -125 -118 -208t-177 -83q-41 0 -80 16t-61 32.5t-58.5 49t-50.5 43.5q-62 -38 -123 -141z" />
    <glyph glyph-name="uni1EF0" unicode="&#x1ef0;" horiz-adv-x="1323" 
d="M920 1372h114q115 0 158 37q6 37 -2.5 99t-22.5 104l263 14q38 -78 38 -184q0 -234 -215 -291l-77 -594q-18 -137 -60 -241t-115 -183.5t-186 -120.5t-264 -41q-77 0 -141.5 13t-111.5 37.5t-84 56.5t-60.5 72.5t-38.5 83.5t-21 91.5t-5 94.5t7 94l113 858h364l-114 -868
q-5 -39 -6.5 -69.5t4 -68t20.5 -62t46 -41.5t77 -17q85 0 139 41q46 64 62 190zM356 -346q0 89 61.5 144t153.5 55q69 0 109.5 -37t40.5 -95q0 -90 -61.5 -144t-153.5 -54q-71 0 -110.5 35.5t-39.5 95.5z" />
    <glyph glyph-name="uni1EF1" unicode="&#x1ef1;" horiz-adv-x="1187" 
d="M967 23l-275 -39l-51 176q-84 -90 -179.5 -139.5t-191.5 -49.5q-133 0 -183 84t-28 250l93 701l360 6l-84 -635q-12 -97 14 -119q93 12 191 98l86 652h147q116 0 158 36q6 36 -2.5 94t-22.5 101l238 12q41 -74 41 -174q0 -225 -225 -280l-45 -336q-16 -122 -41 -438z
M291 -346q0 89 61.5 144t153.5 55q69 0 109 -37t40 -95q0 -90 -61.5 -144t-153.5 -54q-71 0 -110 35.5t-39 95.5z" />
    <glyph glyph-name="Ygrave" unicode="&#x1ef2;" horiz-adv-x="1167" 
d="M909 1372h346q-5 -40 -20 -73.5t-51 -96.5l-436 -735l-62 -467h-364l65 498l-244 696q-42 113 -37 178h357l110 -411l39 -187h4zM971 1677l-74 -178l-510 152l-2 24l96 226z" />
    <glyph glyph-name="ygrave" unicode="&#x1ef3;" horiz-adv-x="1062" 
d="M27 -512q-77 0 -123 12l37 283q282 -12 458 246l-155 -2l-158 839q-12 70 -2 142h356l58 -494l10 -219h10q76 152 124 342t52 371h348q2 -18 2 -62q0 -136 -66.5 -343.5t-164.5 -401.5q-356 -713 -786 -713zM823 1268l-110 -152l-449 268l-2 29l139 199z" />
    <glyph glyph-name="uni1EF6" unicode="&#x1ef6;" horiz-adv-x="1228" 
d="M909 1372h346q-5 -40 -20 -73.5t-51 -96.5l-436 -735l-62 -467h-364l65 498l-244 696q-42 113 -37 178h357l110 -411l39 -187h4zM602 1741l-27 162q86 28 166 28q102 0 159.5 -49.5t57.5 -138.5q0 -118 -90.5 -179.5t-249.5 -72.5l-20 158q92 16 117 34q8 13 8 35
q0 35 -39 35q-36 0 -82 -12z" />
    <glyph glyph-name="uni1EF7" unicode="&#x1ef7;" horiz-adv-x="1062" 
d="M27 -512q-77 0 -123 12l37 283q282 -12 458 246l-155 -2l-158 839q-12 70 -2 142h356l58 -494l10 -219h10q76 152 124 342t52 371h348q2 -18 2 -62q0 -136 -66.5 -343.5t-164.5 -401.5q-356 -713 -786 -713zM459 1411l-27 164q85 29 166 29q102 0 162 -51.5t61 -143.5
q0 -127 -96 -200.5t-252 -86.5l-18 162q85 14 120 45q11 19 11 49q0 21 -13.5 33t-37.5 12q-33 0 -76 -12z" />
    <glyph glyph-name="uni1EF8" unicode="&#x1ef8;" horiz-adv-x="1167" 
d="M909 1372h346q-5 -40 -20 -73.5t-51 -96.5l-436 -735l-62 -467h-364l65 498l-244 696q-42 113 -37 178h357l110 -411l39 -187h4zM315 1604q69 134 141.5 206t166.5 72q46 0 89.5 -24.5t86.5 -64t53 -46.5q26 12 62 51t69 90l158 -92q-65 -140 -138 -210t-172 -70
q-39 0 -77.5 17.5t-62 37.5t-50.5 46.5t-37 33.5q-19 -8 -44.5 -34t-41 -46.5t-45.5 -61.5z" />
    <glyph glyph-name="uni1EF9" unicode="&#x1ef9;" horiz-adv-x="1062" 
d="M27 -512q-77 0 -123 12l37 283q282 -12 458 246l-155 -2l-158 839q-12 70 -2 142h356l58 -494l10 -219h10q76 152 124 342t52 371h348q2 -18 2 -62q0 -136 -66.5 -343.5t-164.5 -401.5q-356 -713 -786 -713zM176 1229q26 60 52.5 105t64 88.5t86.5 67t106 23.5
q29 0 57 -8.5t58.5 -29t45.5 -31.5t48.5 -41t36.5 -33q59 41 119 146l160 -82q-43 -125 -118 -208t-177 -83q-41 0 -80 16t-61 32.5t-58.5 49t-50.5 43.5q-62 -38 -123 -141z" />
    <glyph glyph-name="enspace" unicode="&#x2002;" horiz-adv-x="989" 
 />
    <glyph glyph-name="uni2003" unicode="&#x2003;" horiz-adv-x="1837" 
 />
    <glyph glyph-name="uni2009" unicode="&#x2009;" horiz-adv-x="163" 
 />
    <glyph glyph-name="uni2010" unicode="&#x2010;" horiz-adv-x="692" 
d="M106 633h492l-33 -246h-491z" />
    <glyph glyph-name="uni2011" unicode="&#x2011;" horiz-adv-x="692" 
d="M106 633h492l-33 -246h-491z" />
    <glyph glyph-name="endash" unicode="&#x2013;" horiz-adv-x="1021" 
d="M106 633h822l-33 -246h-821z" />
    <glyph glyph-name="emdash" unicode="&#x2014;" horiz-adv-x="1835" 
d="M106 633h1635l-33 -246h-1634z" />
    <glyph glyph-name="quoteleft" unicode="&#x2018;" horiz-adv-x="561" 
d="M139 1192q22 155 125.5 281.5t263.5 197.5l109 -133q-75 -78 -113 -154.5t-51 -179.5q-3 -22 -14 -145l-324 -15q-5 52 4 148z" />
    <glyph glyph-name="quoteright" unicode="&#x2019;" horiz-adv-x="550" 
d="M602 1485q-20 -154 -123.5 -281t-263.5 -198l-111 133q75 78 113 154.5t51 179.5q6 42 15 145l323 14q7 -71 -4 -147z" />
    <glyph glyph-name="quotesinglbase" unicode="&#x201a;" horiz-adv-x="536" 
d="M389 158q-20 -154 -123.5 -281.5t-263.5 -198.5l-111 134q75 78 113 154.5t51 178.5q6 40 15 146l323 14q7 -71 -4 -147z" />
    <glyph glyph-name="quotedblleft" unicode="&#x201c;" horiz-adv-x="993" 
d="M139 1192q22 155 125.5 281.5t263.5 197.5l109 -133q-75 -78 -113 -154.5t-51 -179.5q-3 -22 -14 -145l-324 -15q-5 52 4 148zM573 1192q20 154 124 281t264 198l110 -133q-75 -78 -113 -154.5t-51 -179.5q-3 -22 -14 -145l-324 -15q-5 52 4 148z" />
    <glyph glyph-name="quotedblright" unicode="&#x201d;" horiz-adv-x="983" 
d="M602 1485q-20 -154 -123.5 -281t-263.5 -198l-111 133q75 78 113 154.5t51 179.5q6 42 15 145l323 14q7 -71 -4 -147zM1036 1485q-20 -154 -124 -281t-265 -198l-108 133q75 78 112 154.5t51 179.5q6 42 15 145l323 14q5 -52 -4 -147z" />
    <glyph glyph-name="quotedblbase" unicode="&#x201e;" horiz-adv-x="970" 
d="M389 158q-20 -154 -123.5 -281.5t-263.5 -198.5l-111 134q75 78 113 154.5t51 178.5q6 40 15 146l323 14q7 -71 -4 -147zM823 158q-20 -154 -124 -281.5t-265 -198.5l-108 134q75 78 112 154t51 179q6 40 15 146l323 14q5 -52 -4 -147z" />
    <glyph glyph-name="dagger" unicode="&#x2020;" horiz-adv-x="987" 
d="M772 1276l-39 -264h232l-33 -262h-238l-170 -1168h-329l133 1168h-236l33 262h231l31 264h385z" />
    <glyph glyph-name="daggerdbl" unicode="&#x2021;" horiz-adv-x="987" 
d="M774 1276l-39 -264h232l-33 -262h-238l-37 -256h240l-33 -263h-245l-95 -649h-329l73 649h-243l32 263h242l29 256h-236l33 262h231l31 264h385z" />
    <glyph glyph-name="bullet" unicode="&#x2022;" horiz-adv-x="782" 
d="M616 512q0 -112 -61 -171.5t-166 -59.5q-104 0 -165.5 60t-61.5 171t61.5 171t165.5 60q105 0 166 -59.5t61 -171.5z" />
    <glyph glyph-name="ellipsis" unicode="&#x2026;" horiz-adv-x="1824" 
d="M1300 139q0 92 62 157.5t164 65.5q87 0 132.5 -43.5t45.5 -113.5q0 -104 -66 -169t-161 -65q-83 0 -130 47.5t-47 120.5zM20 139q0 92 62 157.5t164 65.5q87 0 132.5 -43.5t45.5 -113.5q0 -104 -66 -169t-161 -65q-83 0 -130 47.5t-47 120.5zM659 139q0 92 62 157.5
t164 65.5q87 0 132.5 -43.5t45.5 -113.5q0 -104 -66 -169t-161 -65q-83 0 -130 47.5t-47 120.5z" />
    <glyph glyph-name="perthousand" unicode="&#x2030;" horiz-adv-x="2480" 
d="M811 1079q0 -132 -47.5 -241t-144 -176.5t-226.5 -67.5q-138 0 -215.5 84t-77.5 233q0 134 48.5 244t144.5 178t223 68q144 0 219.5 -89t75.5 -233zM369 891q0 -56 13.5 -82.5t43.5 -26.5q25 0 55 19q22 34 42 132t20 171q0 108 -58 108q-25 0 -53 -14
q-23 -34 -43 -131.5t-20 -175.5zM258 63l1069 1364l164 -116l-1069 -1364zM1649 457q0 -132 -48 -241t-144.5 -177t-225.5 -68q-138 0 -216.5 84.5t-78.5 233.5q0 133 49 243.5t145.5 178t223.5 67.5q144 0 219.5 -88.5t75.5 -232.5zM1206 268q0 -108 56 -108q30 0 57 18
q21 33 40 131t19 172q0 55 -13 82t-44 27q-24 0 -51 -17q-23 -32 -43.5 -129.5t-20.5 -175.5zM2406 457q0 -132 -47 -241t-143 -177t-225 -68q-139 0 -217 84t-78 234q0 133 49 243.5t145.5 178t223.5 67.5q143 0 217.5 -88.5t74.5 -232.5zM1964 268q0 -108 57 -108
q32 0 56 18q22 34 41.5 131.5t19.5 171.5q0 55 -13 82t-44 27q-27 0 -51 -17q-23 -33 -44.5 -130.5t-21.5 -174.5z" />
    <glyph glyph-name="uni2032" unicode="&#x2032;" horiz-adv-x="495" 
d="M555 1446l-207 -518h-225l115 518h317z" />
    <glyph glyph-name="uni2033" unicode="&#x2033;" horiz-adv-x="882" 
d="M555 1446l-207 -518h-225l115 518h317zM940 1446l-207 -518h-225l115 518h317z" />
    <glyph glyph-name="guilsinglleft" unicode="&#x2039;" horiz-adv-x="716" 
d="M49 573l420 435l213 -168l-274 -332l186 -340l-234 -145l-319 444z" />
    <glyph glyph-name="guilsinglright" unicode="&#x203a;" horiz-adv-x="716" 
d="M649 457l-420 -434l-213 167l275 332l-187 340l234 146l321 -445z" />
    <glyph glyph-name="fraction" unicode="&#x2044;" horiz-adv-x="245" 
d="M745 1321l-1071 -1378l-151 110l1069 1377z" />
    <glyph glyph-name="zerosuperior" unicode="&#x2070;" horiz-adv-x="839" 
d="M862 1315q0 -134 -49.5 -243.5t-148 -176t-228.5 -66.5q-143 0 -222 82.5t-79 235.5q0 136 50.5 246.5t148 176.5t225.5 66q152 0 227.5 -87.5t75.5 -233.5zM408 1126q0 -108 61 -108q31 0 55 18q22 27 44 124t22 179q0 109 -62 109q-27 0 -53 -16q-24 -25 -45.5 -122.5
t-21.5 -183.5z" />
    <glyph glyph-name="i.sups" unicode="&#x2071;" horiz-adv-x="460" 
d="M205 1475l272 6l-80 -633h-274zM225 1681q0 64 48 104t120 40q57 0 91 -28.5t34 -72.5q0 -64 -49 -103.5t-121 -39.5q-57 0 -90 28t-33 72z" />
    <glyph glyph-name="foursuperior" unicode="&#x2074;" horiz-adv-x="815" 
d="M109 1161l417 459h267l-62 -465h86l-8 -184h-102l-17 -123h-258l17 123h-338zM442 1288l-120 -133h151l29 205h-4z" />
    <glyph glyph-name="fivesuperior" unicode="&#x2075;" horiz-adv-x="722" 
d="M354 831q-143 0 -254 52l52 174q113 -29 172 -29q72 0 106 19q25 25 25 71q0 64 -127 64q-52 0 -129 -15l-39 21l57 432h531l-35 -199h-293l-12 -94q46 4 69 4q122 0 188 -54t66 -147q0 -137 -100 -218t-277 -81z" />
    <glyph glyph-name="sixsuperior" unicode="&#x2076;" horiz-adv-x="782" 
d="M621 1634q99 0 167 -28l-49 -189q-50 13 -112 13q-66 0 -119 -19q-48 -29 -86 -117q79 27 145 27q107 -2 169.5 -49.5t62.5 -138.5q0 -140 -101 -221t-264 -81q-145 0 -224 77t-79 206q0 221 136.5 370.5t353.5 149.5zM463 1022q35 0 61 16q23 27 23 72q0 59 -72 59
q-39 0 -82 -16q-2 -10 -2 -33q0 -98 72 -98z" />
    <glyph glyph-name="sevensuperior" unicode="&#x2077;" horiz-adv-x="681" 
d="M352 807l-227 123l354 489h-313l4 201h571l9 -201z" />
    <glyph glyph-name="eightsuperior" unicode="&#x2078;" horiz-adv-x="821" 
d="M190 1399q0 112 99 174.5t256 62.5q139 0 214 -47.5t75 -134.5q0 -66 -40.5 -118.5t-109.5 -86.5q67 -37 100 -78t33 -96q0 -116 -103 -180t-274 -64q-154 0 -240.5 46t-86.5 137q0 75 50 130.5t132 88.5q-50 32 -77.5 76t-27.5 90zM432 1413q0 -6 2 -12.5t4 -11.5
t7.5 -10.5t9 -9.5t11.5 -9.5t12.5 -8.5t15 -8.5t15 -8t16 -9t16.5 -8.5q53 50 53 94q0 51 -78 51q-49 0 -70 -12q-14 -14 -14 -37zM461 1006q62 0 94 16q12 18 12 39q0 14 -7 25t-28 24.5t-34 20.5t-50 25q-2 1 -3.5 1.5t-3 1.5t-3.5 2q-76 -52 -76 -100q0 -27 28 -41
t71 -14z" />
    <glyph glyph-name="ninesuperior" unicode="&#x2079;" horiz-adv-x="782" 
d="M467 1294q29 0 80 15q2 12 2 37q0 96 -72 96q-37 0 -61 -15q-23 -27 -23 -71q0 -62 74 -62zM319 831q-102 0 -167 27l49 189q75 -13 112 -13q57 0 119 19q50 30 86 116q-78 -27 -145 -24q-106 0 -169 48.5t-63 139.5q0 139 102 220t263 81q145 0 224 -77.5t79 -206.5
q0 -221 -136.5 -370t-353.5 -149z" />
    <glyph glyph-name="n.sups" unicode="&#x207f;" horiz-adv-x="866" 
d="M190 1458l205 31l47 -119q126 123 265 123q92 0 130.5 -58t24.5 -159l-53 -428h-274l49 369q6 54 -9 69q-60 -6 -129 -51l-49 -387h-272l43 330q3 33 22 280z" />
    <glyph glyph-name="zeroinferior" unicode="&#x2080;" horiz-adv-x="839" 
d="M745 365q0 -134 -49.5 -243.5t-148 -176t-228.5 -66.5q-143 0 -222 82.5t-79 235.5q0 136 50.5 246.5t148 176.5t225.5 66q152 0 227.5 -87.5t75.5 -233.5zM291 176q0 -108 61 -108q32 0 56 18q22 27 43.5 123.5t21.5 179.5q0 109 -61 109q-27 0 -54 -17
q-24 -25 -45.5 -122t-21.5 -183z" />
    <glyph glyph-name="oneinferior" unicode="&#x2081;" horiz-adv-x="677" 
d="M45 578l244 94l235 -2l-78 -580h117l-6 -192h-551l10 192h158l45 340l-131 -27z" />
    <glyph glyph-name="twoinferior" unicode="&#x2082;" horiz-adv-x="724" 
d="M53 598q151 86 324 86q126 -1 195 -60.5t69 -158.5q0 -62 -25.5 -117t-73 -100.5t-96.5 -79t-114 -68.5l-19 -10h260l-2 -192h-573l4 192l145 86q107 69 165.5 124t58.5 112q0 61 -76 61q-71 0 -176 -43z" />
    <glyph glyph-name="threeinferior" unicode="&#x2083;" horiz-adv-x="714" 
d="M59 621q122 61 295 61q123 0 188.5 -48t65.5 -128q0 -62 -32.5 -110.5t-90.5 -78.5q57 -25 85 -68.5t28 -94.5q0 -125 -99.5 -199t-267.5 -74q-150 0 -254 53l52 168q96 -28 182 -28q54 0 86 14q20 23 20 57q0 31 -25 44.5t-79 13.5h-86l8 159h74q119 0 119 72
q0 51 -76 51q-68 0 -148 -22z" />
    <glyph glyph-name="fourinferior" unicode="&#x2084;" horiz-adv-x="815" 
d="M-8 211l418 459h266l-62 -465h86l-8 -185h-102l-17 -122h-258l17 122h-338zM326 338l-121 -133h151l29 205h-4z" />
    <glyph glyph-name="fiveinferior" unicode="&#x2085;" horiz-adv-x="722" 
d="M238 -119q-145 0 -254 51l51 174q109 -28 172 -28q74 0 106 18q25 25 25 72q0 63 -127 63q-57 0 -129 -14l-39 21l57 432h531l-35 -199h-293l-12 -94q46 4 69 4q122 0 188 -54t66 -147q0 -137 -100 -218t-276 -81z" />
    <glyph glyph-name="sixinferior" unicode="&#x2086;" horiz-adv-x="782" 
d="M504 684q98 0 168 -29l-49 -188q-46 12 -113 12q-69 0 -119 -18q-48 -29 -86 -117q79 27 146 27q106 -2 168.5 -50t62.5 -139q0 -140 -101 -220.5t-264 -80.5q-145 0 -224 77t-79 206q0 221 136.5 370.5t353.5 149.5zM346 72q36 0 62 16q22 26 22 72q0 59 -72 59
q-39 0 -82 -16q-2 -10 -2 -33q0 -98 72 -98z" />
    <glyph glyph-name="seveninferior" unicode="&#x2087;" horiz-adv-x="681" 
d="M236 -143l-228 123l354 489h-313l4 201h572l8 -201z" />
    <glyph glyph-name="eightinferior" unicode="&#x2088;" horiz-adv-x="821" 
d="M74 449q0 112 98.5 174.5t255.5 62.5q139 0 214 -47.5t75 -134.5q0 -66 -40.5 -118.5t-109.5 -86.5q67 -37 100 -78t33 -96q0 -116 -102.5 -180t-273.5 -64q-154 0 -241 45.5t-87 136.5q0 75 50.5 131t131.5 89q-50 32 -77 75.5t-27 90.5zM315 463q0 -6 2 -12.5t4 -11.5
t7.5 -10.5t9 -9.5t11.5 -9.5t12.5 -8.5t15 -8.5t15 -8t16 -9t16.5 -8.5q53 50 53 94q0 51 -78 51q-48 0 -69 -12q-15 -15 -15 -37zM344 55q60 0 94 17q13 20 13 39q0 14 -7 25t-28 24.5t-34 20.5t-50 25q-2 1 -3.5 1.5t-3 1.5t-3.5 2q-76 -52 -76 -100q0 -27 27.5 -41.5
t70.5 -14.5z" />
    <glyph glyph-name="nineinferior" unicode="&#x2089;" horiz-adv-x="782" 
d="M350 344q33 0 80 14q2 12 2 37q0 97 -72 97q-37 0 -61 -15q-23 -27 -23 -71q0 -62 74 -62zM203 -119q-103 0 -168 27l49 188q69 -12 113 -12q59 0 118 18q50 30 86 117q-78 -27 -145 -24q-106 0 -168.5 48.5t-62.5 139.5q0 139 101.5 220t262.5 81q144 0 223.5 -78
t79.5 -207q0 -221 -136 -369.5t-353 -148.5z" />
    <glyph glyph-name="a.sinf" unicode="&#x2090;" horiz-adv-x="833" 
d="M303 72q49 11 109 45l30 239q-12 2 -34 2q-43 0 -70 -10q-30 -39 -46 -94t-16 -104q0 -60 27 -78zM0 106q-1 207 120 322t322 115q137 0 289 -56l-41 -307q-14 -124 -18 -264l-211 -33l-37 107q-115 -109 -236 -109q-91 0 -138.5 62t-49.5 163z" />
    <glyph glyph-name="e.sinf" unicode="&#x2091;" horiz-adv-x="759" 
d="M2 143q0 79 29.5 151t83.5 127.5t136.5 88.5t182.5 33q118 0 181 -45.5t63 -130.5q0 -212 -406 -232q9 -40 29 -63q131 -3 266 39l43 -152q-155 -74 -327 -74q-136 0 -208.5 64t-72.5 194zM330 373q-38 -52 -54 -131q76 11 122 36t46 60q0 45 -55 45q-37 0 -59 -10z" />
    <glyph glyph-name="o.sinf" unicode="&#x2092;" horiz-adv-x="819" 
d="M2 145q0 49 13 100.5t44 106t77 96t120 68.5t164 27q152 0 228.5 -73.5t76.5 -188.5q0 -49 -13 -100.5t-44 -106t-77.5 -97t-120.5 -69.5t-165 -27q-149 0 -226 74.5t-77 189.5zM453 283q0 88 -70 88q-28 0 -51 -13q-25 -35 -41.5 -101t-16.5 -120q0 -38 19 -60t51 -22
q25 0 51 11q26 36 42 99t16 118z" />
    <glyph glyph-name="x.sinf" unicode="&#x2093;" horiz-adv-x="806" 
d="M47 526h272l48 -149l14 -80h4q92 124 92 229h260q-7 -89 -56.5 -165t-141.5 -156l96 -168q37 -71 33 -139h-271l-49 147l-16 74h-6q-72 -110 -95 -221h-262q7 74 63 160.5t136 162.5l-86 168q-39 82 -35 137z" />
    <glyph glyph-name="uni20AB" unicode="&#x20ab;" horiz-adv-x="1058" 
d="M14 166h901l-22 -166h-899zM412 451q82 12 168 79l43 291q-41 8 -80 8q-49 0 -90 -16q-34 -44 -53 -117.5t-19 -142.5q0 -59 31 -102zM49 518q-1 100 30.5 191t91.5 164t157 116t217 43q48 0 106 -10l15 100h-340l22 162h342l17 117l321 6l-18 -123h127l-23 -162h-129
l-63 -415q-18 -118 -39 -431l-236 -38l-41 153q-169 -162 -325 -162q-115 0 -173.5 80.5t-58.5 208.5z" />
    <glyph glyph-name="Euro" unicode="&#x20ac;" horiz-adv-x="1249" 
d="M950 750h-397q-8 -41 -16 -123h397l-25 -183h-362q21 -96 84 -140t168 -44q124 0 250 37l55 -234q-75 -38 -181 -63t-221 -25q-233 0 -365 122.5t-153 346.5h-131l25 183h106q3 31 21 123h-111l23 180h145q87 209 255.5 337t400.5 128q203 0 356 -101l-129 -231
q-107 47 -232 47q-123 0 -211 -45q-46 -46 -88 -135h359z" />
    <glyph glyph-name="uni20B9" unicode="&#x20b9;" horiz-adv-x="1105" 
d="M57 455l49 202h60q211 0 315 76q44 40 64 103h-434l24 182h422q-18 87 -92.5 130.5t-224.5 43.5h-82l22 182h969l-25 -182h-305q74 -71 92 -174h193l-27 -182h-172q-35 -149 -158.5 -240t-306.5 -123l271 -289q59 -65 89 -108.5t29 -75.5h-374z" />
    <glyph glyph-name="uni20BA" unicode="&#x20ba;" horiz-adv-x="1183" 
d="M276 1372h355l-27 -196l285 79l45 -176l-354 -98l-15 -115l283 80l45 -176l-354 -98l-52 -396q144 9 233.5 97.5t151.5 308.5l316 -57q-75 -324 -257 -473t-480 -152h-355l74 569l-100 -28l-45 176l172 47l14 115l-100 -29l-45 176l172 47z" />
    <glyph glyph-name="uni20BD" unicode="&#x20bd;" horiz-adv-x="1206" 
d="M674 1147q-24 0 -86 -4l-60 -445h35q134 0 195 45q39 38 63.5 102.5t24.5 137.5q0 164 -172 164zM903 209h-438l-29 -209h-362l26 209h-125l25 184h125l14 115h-123l25 190h125l86 662q182 35 418 35q118 0 213.5 -22t169 -67.5t113.5 -121t40 -176.5q0 -236 -164 -368
t-477 -132h-61l-17 -115h441z" />
    <glyph glyph-name="uni2113" unicode="&#x2113;" horiz-adv-x="960" 
d="M436 -23q-175 0 -264 108.5t-61 324.5l2 20h-107l23 184h108l37 299q32 241 137 361.5t303 120.5q167 0 258 -90t91 -252q0 -252 -137 -409t-382 -200l-2 -12q-15 -105 11 -144.5t100 -39.5q79 0 143 22l52 -231q-80 -31 -150 -46.5t-162 -15.5zM555 1141
q-23 -44 -37 -152l-47 -342q82 28 131 80q72 117 72 332q0 98 -64 98q-33 0 -55 -16z" />
    <glyph glyph-name="trademark" unicode="&#x2122;" horiz-adv-x="1808" 
d="M1370 1372h291l84 -686h-209l-37 289l-6 166h-4l-105 -455h-251l-74 289l-23 166h-6l-45 -455h-209l88 686h291l82 -305l23 -131h6zM145 1372h637l-10 -172h-192v-514h-234v514h-192z" />
    <glyph glyph-name="estimated" unicode="&#x212e;" horiz-adv-x="1656" 
d="M1395 162l26 -60q-114 -67 -245.5 -100t-323.5 -33q-165 0 -301 55t-225.5 150.5t-138 223t-48.5 272.5q0 104 24.5 205.5t80 197.5t135.5 169t200.5 117t266.5 44q165 0 294.5 -55t211 -151t124 -222t42.5 -273v-51h-1135v-424q170 -188 467 -188q314 0 545 123z
M850 1333q-297 0 -467 -184v-430h913v426q-154 188 -446 188z" />
    <glyph glyph-name="uni2150" unicode="&#x2150;" horiz-adv-x="1935" 
d="M199 1282l268 94l235 -2l-77 -579h131l-6 -193h-598l10 193h190l47 344l-159 -31zM1591 1321l-1071 -1378l-151 110l1069 1377zM1417 -12l-227 123l364 489h-323l4 201h571l9 -201z" />
    <glyph glyph-name="uni2151" unicode="&#x2151;" horiz-adv-x="1935" 
d="M199 1282l268 94l235 -2l-77 -579h131l-6 -193h-598l10 193h190l47 344l-159 -31zM1591 1321l-1071 -1378l-151 110l1069 1377zM1481 475q36 0 82 17q2 10 2 34q0 97 -72 97q-40 0 -61 -15q-23 -23 -23 -71q0 -62 72 -62zM1335 12q-100 0 -170 27l52 188q69 -12 112 -12
q68 0 119 21q52 28 84 116q-72 -29 -146 -26q-105 0 -168 48.5t-63 139.5q0 139 102 220t265 81q144 0 222.5 -78t78.5 -207q0 -221 -135.5 -369.5t-352.5 -148.5z" />
    <glyph glyph-name="uni2153" unicode="&#x2153;" horiz-adv-x="1935" 
d="M199 1282l268 94l235 -2l-77 -579h131l-6 -193h-598l10 193h190l47 344l-159 -31zM1591 1321l-1071 -1378l-151 110l1069 1377zM1227 752q122 61 295 61q123 0 188.5 -48t65.5 -128q0 -125 -123 -188q57 -25 84.5 -69t27.5 -95q0 -125 -99 -199t-267 -74q-148 0 -254 54
l51 167q96 -28 182 -28q54 0 86 14q21 25 21 57q0 31 -25.5 44.5t-79.5 13.5h-86l9 160h73q119 0 119 71q0 51 -76 51q-67 0 -147 -22z" />
    <glyph glyph-name="uni2154" unicode="&#x2154;" horiz-adv-x="1935" 
d="M199 1303q151 86 323 86q126 -1 195 -61t69 -159q0 -62 -25.5 -117t-73.5 -100t-96.5 -78.5t-113.5 -68.5l-18 -10h260l-2 -193h-574l4 193l146 86q107 69 165 123.5t58 111.5q0 62 -76 62q-69 0 -174 -43zM1591 1321l-1071 -1378l-151 110l1069 1377zM1227 752
q122 61 295 61q123 0 188.5 -48t65.5 -128q0 -125 -123 -188q57 -25 84.5 -69t27.5 -95q0 -125 -99 -199t-267 -74q-148 0 -254 54l51 167q96 -28 182 -28q54 0 86 14q21 25 21 57q0 31 -25.5 44.5t-79.5 13.5h-86l9 160h73q119 0 119 71q0 51 -76 51q-67 0 -147 -22z" />
    <glyph glyph-name="uni2155" unicode="&#x2155;" horiz-adv-x="1935" 
d="M199 1282l268 94l235 -2l-77 -579h131l-6 -193h-598l10 193h190l47 344l-159 -31zM1591 1321l-1071 -1378l-151 110l1069 1377zM1401 12q-145 0 -254 51l51 175q113 -29 172 -29q75 0 107 18q24 24 24 72q0 63 -127 63q-57 0 -129 -14l-39 21l58 432h530l-35 -199h-293
l-12 -94q46 4 70 4q122 0 188 -54t66 -147q0 -137 -100 -218t-277 -81z" />
    <glyph glyph-name="uni2156" unicode="&#x2156;" horiz-adv-x="1935" 
d="M199 1303q151 86 323 86q126 -1 195 -61t69 -159q0 -62 -25.5 -117t-73.5 -100t-96.5 -78.5t-113.5 -68.5l-18 -10h260l-2 -193h-574l4 193l146 86q107 69 165 123.5t58 111.5q0 62 -76 62q-69 0 -174 -43zM1591 1321l-1071 -1378l-151 110l1069 1377zM1401 12
q-145 0 -254 51l51 175q113 -29 172 -29q75 0 107 18q24 24 24 72q0 63 -127 63q-57 0 -129 -14l-39 21l58 432h530l-35 -199h-293l-12 -94q46 4 70 4q122 0 188 -54t66 -147q0 -137 -100 -218t-277 -81z" />
    <glyph glyph-name="uni2157" unicode="&#x2157;" horiz-adv-x="1935" 
d="M211 1325q122 61 295 61q123 0 188.5 -48t65.5 -128q0 -125 -123 -188q57 -25 85 -69t28 -95q0 -125 -99 -198.5t-268 -73.5q-150 0 -254 53l51 168q99 -29 182 -29q52 0 87 15q20 23 20 57q0 30 -24.5 43.5t-79.5 13.5h-86l8 160h73q119 0 119 72q0 51 -76 51
q-64 0 -147 -23zM1591 1321l-1071 -1378l-151 110l1069 1377zM1401 12q-145 0 -254 51l51 175q113 -29 172 -29q75 0 107 18q24 24 24 72q0 63 -127 63q-57 0 -129 -14l-39 21l58 432h530l-35 -199h-293l-12 -94q46 4 70 4q122 0 188 -54t66 -147q0 -137 -100 -218t-277 -81
z" />
    <glyph glyph-name="uni2158" unicode="&#x2158;" horiz-adv-x="1935" 
d="M94 915l418 459h266l-61 -465h84l-6 -184h-103l-16 -123h-258l16 123h-338zM428 1042l-121 -133h152l26 205h-2zM1591 1321l-1071 -1378l-151 110l1069 1377zM1401 12q-145 0 -254 51l51 175q113 -29 172 -29q75 0 107 18q24 24 24 72q0 63 -127 63q-57 0 -129 -14
l-39 21l58 432h530l-35 -199h-293l-12 -94q46 4 70 4q122 0 188 -54t66 -147q0 -137 -100 -218t-277 -81z" />
    <glyph glyph-name="uni2159" unicode="&#x2159;" horiz-adv-x="1935" 
d="M199 1282l268 94l235 -2l-77 -579h131l-6 -193h-598l10 193h190l47 344l-159 -31zM1591 1321l-1071 -1378l-151 110l1069 1377zM1636 815q95 0 170 -29l-51 -188q-40 12 -113 12q-68 0 -118 -18q-52 -32 -84 -119q69 29 145 29q105 -2 168.5 -50t63.5 -139
q0 -140 -102 -220.5t-265 -80.5q-144 0 -222.5 77t-78.5 206q0 144 59.5 262t171.5 188t256 70zM1479 203q37 0 63 16q23 27 23 72q0 59 -74 59q-39 0 -82 -16q-2 -10 -2 -33q0 -98 72 -98z" />
    <glyph glyph-name="uni215A" unicode="&#x215a;" horiz-adv-x="1935" 
d="M385 586q-145 0 -254 51l51 174q113 -29 172 -29q73 0 107 19q24 24 24 71q0 64 -127 64q-57 0 -129 -14l-39 20l58 432h530l-35 -198h-292l-13 -95q46 4 70 4q122 0 188 -53.5t66 -146.5q0 -137 -100 -218t-277 -81zM1591 1321l-1071 -1378l-151 110l1069 1377z
M1636 815q95 0 170 -29l-51 -188q-40 12 -113 12q-68 0 -118 -18q-52 -32 -84 -119q69 29 145 29q105 -2 168.5 -50t63.5 -139q0 -140 -102 -220.5t-265 -80.5q-144 0 -222.5 77t-78.5 206q0 144 59.5 262t171.5 188t256 70zM1479 203q37 0 63 16q23 27 23 72q0 59 -74 59
q-39 0 -82 -16q-2 -10 -2 -33q0 -98 72 -98z" />
    <glyph glyph-name="uni215B" unicode="&#x215b;" horiz-adv-x="1935" 
d="M199 1282l268 94l235 -2l-77 -579h131l-6 -193h-598l10 193h190l47 344l-159 -31zM1591 1321l-1071 -1378l-151 110l1069 1377zM1190 580q0 112 97.5 174.5t254.5 62.5q139 0 215 -48t76 -134q0 -66 -41 -118.5t-109 -86.5q66 -37 99 -78t33 -96q0 -116 -103 -180
t-274 -64q-154 0 -240 46t-86 137q0 75 49.5 130.5t130.5 88.5q-49 32 -75.5 76t-26.5 90zM1430 594q0 -14 6 -26t24 -24.5t27.5 -18t37.5 -20.5q9 -5 13 -7q53 50 53 94q0 51 -78 51q-45 0 -69 -12q-14 -14 -14 -37zM1460 186q58 0 92 17q15 22 15 39q0 25 -26 43.5
t-91 49.5q-9 5 -14 7q-76 -52 -76 -100q0 -27 28 -41.5t72 -14.5z" />
    <glyph glyph-name="uni215C" unicode="&#x215c;" horiz-adv-x="1935" 
d="M211 1325q122 61 295 61q123 0 188.5 -48t65.5 -128q0 -125 -123 -188q57 -25 85 -69t28 -95q0 -125 -99 -198.5t-268 -73.5q-150 0 -254 53l51 168q99 -29 182 -29q52 0 87 15q20 23 20 57q0 30 -24.5 43.5t-79.5 13.5h-86l8 160h73q119 0 119 72q0 51 -76 51
q-64 0 -147 -23zM1591 1321l-1071 -1378l-151 110l1069 1377zM1190 580q0 112 97.5 174.5t254.5 62.5q139 0 215 -48t76 -134q0 -66 -41 -118.5t-109 -86.5q66 -37 99 -78t33 -96q0 -116 -103 -180t-274 -64q-154 0 -240 46t-86 137q0 75 49.5 130.5t130.5 88.5
q-49 32 -75.5 76t-26.5 90zM1430 594q0 -14 6 -26t24 -24.5t27.5 -18t37.5 -20.5q9 -5 13 -7q53 50 53 94q0 51 -78 51q-45 0 -69 -12q-14 -14 -14 -37zM1460 186q58 0 92 17q15 22 15 39q0 25 -26 43.5t-91 49.5q-9 5 -14 7q-76 -52 -76 -100q0 -27 28 -41.5t72 -14.5z" />
    <glyph glyph-name="uni215D" unicode="&#x215d;" horiz-adv-x="1935" 
d="M385 586q-145 0 -254 51l51 174q113 -29 172 -29q73 0 107 19q24 24 24 71q0 64 -127 64q-57 0 -129 -14l-39 20l58 432h530l-35 -198h-292l-13 -95q46 4 70 4q122 0 188 -53.5t66 -146.5q0 -137 -100 -218t-277 -81zM1591 1321l-1071 -1378l-151 110l1069 1377z
M1190 580q0 112 97.5 174.5t254.5 62.5q139 0 215 -48t76 -134q0 -66 -41 -118.5t-109 -86.5q66 -37 99 -78t33 -96q0 -116 -103 -180t-274 -64q-154 0 -240 46t-86 137q0 75 49.5 130.5t130.5 88.5q-49 32 -75.5 76t-26.5 90zM1430 594q0 -14 6 -26t24 -24.5t27.5 -18
t37.5 -20.5q9 -5 13 -7q53 50 53 94q0 51 -78 51q-45 0 -69 -12q-14 -14 -14 -37zM1460 186q58 0 92 17q15 22 15 39q0 25 -26 43.5t-91 49.5q-9 5 -14 7q-76 -52 -76 -100q0 -27 28 -41.5t72 -14.5z" />
    <glyph glyph-name="uni215E" unicode="&#x215e;" horiz-adv-x="1935" 
d="M403 561l-227 123l365 490h-324l4 200h572l8 -200zM1591 1321l-1071 -1378l-151 110l1069 1377zM1190 580q0 112 97.5 174.5t254.5 62.5q139 0 215 -48t76 -134q0 -66 -41 -118.5t-109 -86.5q66 -37 99 -78t33 -96q0 -116 -103 -180t-274 -64q-154 0 -240 46t-86 137
q0 75 49.5 130.5t130.5 88.5q-49 32 -75.5 76t-26.5 90zM1430 594q0 -14 6 -26t24 -24.5t27.5 -18t37.5 -20.5q9 -5 13 -7q53 50 53 94q0 51 -78 51q-45 0 -69 -12q-14 -14 -14 -37zM1460 186q58 0 92 17q15 22 15 39q0 25 -26 43.5t-91 49.5q-9 5 -14 7q-76 -52 -76 -100
q0 -27 28 -41.5t72 -14.5z" />
    <glyph glyph-name="uni2190" unicode="&#x2190;" horiz-adv-x="1748" 
d="M717 -59l-664 555v47l666 555l160 -193l-215 -172l-160 -90h1200v-248h-1198l158 -92l215 -168z" />
    <glyph glyph-name="uni2191" unicode="&#x2191;" horiz-adv-x="1222" 
d="M737 -156h-250v1209l-90 -156l-170 -215l-192 160l555 665h45l555 -665l-193 -162l-170 217l-90 156v-1209z" />
    <glyph glyph-name="uni2192" unicode="&#x2192;" horiz-adv-x="1748" 
d="M47 395v248h1200l-160 90l-215 172l160 193l666 -555v-47l-664 -555l-162 194l215 168l158 92h-1198z" />
    <glyph glyph-name="uni2193" unicode="&#x2193;" horiz-adv-x="1222" 
d="M590 -156l-555 664l192 160l170 -213l90 -158v1210h250v-1210l90 158l170 215l193 -160l-555 -666h-45z" />
    <glyph glyph-name="uni2194" unicode="&#x2194;" horiz-adv-x="3008" 
d="M2302 -59l-162 194l211 166l158 94h-2005l155 -94l211 -166l-161 -194l-656 557v45l658 555l159 -193l-213 -170l-155 -92h2011l-162 92l-211 170l160 193l657 -555v-45z" />
    <glyph glyph-name="uni2195" unicode="&#x2195;" horiz-adv-x="1222" 
d="M590 -631l-555 664l192 162l168 -215l92 -156v1296l-92 -153l-168 -215l-192 161l555 664h45l555 -666l-193 -159l-170 215l-90 151v-1296l90 158l170 215l193 -160l-555 -666h-45z" />
    <glyph glyph-name="uni2196" unicode="&#x2196;" horiz-adv-x="1257" 
d="M1217 41l-197 -147l-707 956l23 -178l-8 -271l-248 11l45 860l37 26l823 -194l-55 -242l-258 70l-168 72z" />
    <glyph glyph-name="uni2197" unicode="&#x2197;" horiz-adv-x="1257" 
d="M240 -106l-197 147l713 963l-168 -72l-258 -70l-56 242l824 194l37 -26l45 -860l-248 -11l-8 271l22 174z" />
    <glyph glyph-name="uni2198" unicode="&#x2198;" horiz-adv-x="1257" 
d="M1098 -43l-824 195l56 241l258 -71l170 -70l-715 962l197 148l706 -952l-22 172l8 272l248 -10l-45 -860z" />
    <glyph glyph-name="uni2199" unicode="&#x2199;" horiz-adv-x="1257" 
d="M1020 1362l197 -148l-715 -962l170 70l258 71l55 -241l-823 -195l-37 27l-45 860l248 10l8 -272l-23 -176z" />
    <glyph glyph-name="uni219E" unicode="&#x219e;" horiz-adv-x="2174" 
d="M2130 643v-248h-995l157 -92l215 -168l-159 -194l-666 555v47l666 555l159 -193l-215 -170l-157 -92h995zM399 518l482 -434l-172 -178l-656 590v47l656 592l172 -181z" />
    <glyph glyph-name="uni219F" unicode="&#x219f;" horiz-adv-x="1294" 
d="M772 -457h-248v881l-92 -158l-168 -215l-194 162l557 664h45l555 -666l-193 -160l-170 215l-92 162v-885zM35 852l592 655h45l592 -657l-181 -170l-434 479l-434 -479z" />
    <glyph glyph-name="uni21A0" unicode="&#x21a0;" horiz-adv-x="2174" 
d="M829 -59l-159 194l215 168l155 92h-993v248h993l-155 92l-215 170l159 193l666 -555v-47zM1468 1135l656 -592v-47l-656 -590l-172 178l482 434l-482 436z" />
    <glyph glyph-name="uni21A1" unicode="&#x21a1;" horiz-adv-x="1294" 
d="M524 1507h248v-884l92 161l170 215l193 -159l-555 -666h-45l-557 664l194 161l168 -215l92 -157v880zM649 -109l434 480l181 -170l-592 -658h-45l-592 656l180 174z" />
    <glyph glyph-name="uni21B0" unicode="&#x21b0;" horiz-adv-x="1619" 
d="M1260 -408v803h-754l158 -92l215 -168l-162 -194l-664 557v45l666 555l160 -193l-215 -172l-160 -90h1003v-1051h-247z" />
    <glyph glyph-name="uni21B1" unicode="&#x21b1;" horiz-adv-x="1619" 
d="M362 395v-803h-245v1051h1001l-157 90l-216 172l158 193l668 -555v-45l-666 -557l-162 194l215 168l158 92h-754z" />
    <glyph glyph-name="uni21B2" unicode="&#x21b2;" horiz-adv-x="1619" 
d="M1260 643v803h247v-1051h-1003l160 -90l215 -172l-160 -192l-666 555v45l664 557l162 -195l-215 -168l-158 -92h754z" />
    <glyph glyph-name="uni21B3" unicode="&#x21b3;" horiz-adv-x="1619" 
d="M903 -59l-158 192l216 172l157 90h-1001v1051h245v-803h754l-158 92l-215 168l162 195l666 -557v-45z" />
    <glyph glyph-name="uni21B4" unicode="&#x21b4;" horiz-adv-x="1636" 
d="M903 395h-856v248h1104v-749l90 157l172 215l193 -160l-555 -665h-47l-555 663l194 162l168 -215l92 -157v501z" />
    <glyph glyph-name="uni21BC" unicode="&#x21bc;" horiz-adv-x="1755" 
d="M18 442l711 656l164 -191l-188 -159l-140 -105h1147v-248h-1694v47z" />
    <glyph glyph-name="uni21BD" unicode="&#x21bd;" horiz-adv-x="1755" 
d="M1712 643v-248h-1147l140 -104l188 -160l-164 -190l-711 655v47h1694z" />
    <glyph glyph-name="uni21BE" unicode="&#x21be;" horiz-adv-x="874" 
d="M188 1552l654 -710l-191 -164l-164 192l-98 142v-1168h-250v1708h49z" />
    <glyph glyph-name="uni21BF" unicode="&#x21bf;" horiz-adv-x="874" 
d="M737 -156h-250v1168l-98 -142l-164 -192l-190 164l655 710h47v-1708z" />
    <glyph glyph-name="uni21C0" unicode="&#x21c0;" horiz-adv-x="1755" 
d="M47 395v248h1147l-139 105l-189 159l162 191l711 -656v-47h-1692z" />
    <glyph glyph-name="uni21C1" unicode="&#x21c1;" horiz-adv-x="1755" 
d="M1739 596l-711 -655l-162 190l189 160l139 104h-1147v248h1692v-47z" />
    <glyph glyph-name="uni21C2" unicode="&#x21c2;" horiz-adv-x="874" 
d="M139 1552h250v-1167l98 141l164 191l191 -164l-654 -709h-49v1708z" />
    <glyph glyph-name="uni21C3" unicode="&#x21c3;" horiz-adv-x="874" 
d="M690 -156l-655 709l190 164l164 -191l98 -141v1167h250v-1708h-47z" />
    </font>
</defs>
</svg>
