<?xml version="1.0" standalone="no"?>
<!DOCTYPE svg PUBLIC "-//W3C//DTD SVG 1.1//EN" "http://www.w3.org/Graphics/SVG/1.1/DTD/svg11.dtd" >
<svg xmlns="http://www.w3.org/2000/svg" xmlns:xlink="http://www.w3.org/1999/xlink" version="1.1">
<metadata>
Created by FontForge 20170731 at Mon Jun 14 22:18:30 2021
 By Aleksey,,,
 The digitally encoded machine readable software for producing the  Typefaces licensed to you is copyrighted (c) 1990 Adobe Systems.  All Rights Reserved. This software is the property of Adobe Systems  Incorporated and its licensors, and may not be reproduced, used,   displayed, modified, disclosed or transferred without the express   written approval of Adobe.    The digitally encoded machine readable outline data for producing  the Typefaces licensed to you is copyrighted (c) 1981 Linotype AG  and/or its subsidiaries. All Rights Reserved.  This data is the property of Linotype AG and/or its subsidiaries  and may not be reproduced, used, displayed, modified, disclosed or   transferred without the express written approval of Linotype AG   and/or its subsidiaries.  12 Univers** 93 Extra Black Extended Scal 48258 
</metadata>
<defs>
<font id="Univers-ExtraBlackExt" horiz-adv-x="840" >
  <font-face 
    font-family="Univers ExtraBlackExt"
    font-weight="950"
    font-stretch="expanded"
    units-per-em="1000"
    panose-1="0 0 0 0 0 0 0 0 0 0"
    ascent="800"
    descent="-200"
    x-height="502"
    cap-height="722"
    bbox="-221 -235 1575 952"
    underline-thickness="50"
    underline-position="-150"
    unicode-range="U+000D-FB02"
  />
<missing-glyph horiz-adv-x="420" 
 />
    <glyph glyph-name=".notdef" horiz-adv-x="420" 
 />
    <glyph glyph-name=".null" horiz-adv-x="0" 
 />
    <glyph glyph-name=".null" horiz-adv-x="0" 
 />
    <glyph glyph-name="nonmarkingreturn" unicode="&#xd;" horiz-adv-x="250" 
 />
    <glyph glyph-name="space" unicode=" " horiz-adv-x="420" 
 />
    <glyph glyph-name="exclam" unicode="!" horiz-adv-x="492" 
d="M114 146h264v-146h-264v146zM83 722h326l-46 -508h-234z" />
    <glyph glyph-name="quotedbl" unicode="&#x22;" horiz-adv-x="742" 
d="M428 722h198v-273h-198v273zM116 722h198v-273h-198v273z" />
    <glyph glyph-name="numbersign" unicode="#" 
d="M475 406h-94l-15 -109h93zM205 157h-76v140h95l15 109h-74v140h93l22 157h142l-22 -157h94l22 157h142l-22 -157h75v-140h-94l-16 -109h74v-140h-93l-22 -157h-142l22 157h-93l-22 -157h-142z" />
    <glyph glyph-name="dollar" unicode="$" 
d="M383 789h71v-67q88 -5 151.5 -16.5t105.5 -36t65 -65t29 -102.5h-264q0 20 -3 35t-12.5 26.5t-26.5 19t-45 11.5v-142q99 -20 170.5 -41t117.5 -48.5t67.5 -64t21.5 -88.5q0 -104 -91.5 -164.5t-285.5 -64.5v-67h-71v67q-88 2 -157.5 12.5t-117.5 36.5t-73.5 71
t-25.5 116h276q3 -62 27.5 -84t70.5 -24v158q-36 10 -77 18t-81.5 18.5t-77.5 25t-65.5 37.5t-45.5 57t-17 84q0 57 27 96t75 64.5t115 38t147 16.5v67zM383 594q-82 -7 -82 -60q0 -26 19 -43.5t63 -23.5v127zM454 109q15 0 31.5 3.5t31 11.5t23.5 20.5t9 31.5
q0 32 -26.5 49t-68.5 27v-143z" />
    <glyph glyph-name="percent" unicode="%" horiz-adv-x="1137" 
d="M197 523q0 -46 11.5 -76.5t48.5 -30.5q60 0 60 107q0 48 -11 78.5t-49 30.5q-37 0 -48.5 -30.5t-11.5 -78.5zM33 524q0 51 16.5 88t46.5 61.5t71 36.5t90 12q113 0 168.5 -50t55.5 -148q0 -51 -16.5 -88t-46.5 -61.5t-71 -36.5t-90 -12t-90 12t-71 36.5t-46.5 61.5
t-16.5 88zM656 179q0 51 16.5 88t46.5 61.5t71 36.5t90 12q113 0 168.5 -50t55.5 -148q0 -51 -16.5 -88t-46.5 -61.5t-71 -36.5t-90 -12t-90 12t-71 36.5t-46.5 61.5t-16.5 88zM820 178q0 -46 11.5 -76.5t48.5 -30.5q60 0 60 107q0 48 -11 78.5t-49 30.5q-37 0 -48.5 -30.5
t-11.5 -78.5zM753 741h147l-517 -779h-147z" />
    <glyph glyph-name="ampersand" unicode="&#x26;" horiz-adv-x="1087" 
d="M479 497q36 17 48.5 35t12.5 33q0 27 -22 40.5t-52 13.5q-31 0 -50.5 -14t-19.5 -40q0 -12 10.5 -29.5t28.5 -31.5l22 -18zM747 275q8 11 16 29.5t14.5 39.5t10.5 44t5 43h204q-2 -45 -7.5 -82t-17.5 -68.5t-31 -60t-47 -56.5l212 -164h-295l-68 52q-57 -38 -134 -54.5
t-170 -16.5q-82 0 -152 14t-120 43t-78.5 73t-28.5 103q0 55 34.5 99t89.5 70l79 37q-34 22 -57 40.5t-37 36.5t-19.5 36.5t-5.5 39.5q0 44 23 76t64.5 52.5t99 30t127.5 9.5q59 0 114 -8.5t97 -29t67.5 -53.5t25.5 -81q0 -49 -30.5 -86t-85.5 -61l-59 -25zM386 325
q-26 -21 -38 -47t-12 -49q0 -24 9.5 -45.5t28.5 -38t46 -26.5t61 -10q35 0 70 10t64 31z" />
    <glyph glyph-name="quotesingle" unicode="'" horiz-adv-x="420" 
d="M111 722h198v-273h-198v273z" />
    <glyph glyph-name="parenleft" unicode="(" horiz-adv-x="469" 
d="M192 -137q-36 61 -62 117t-42.5 109.5t-24.5 106t-8 106.5t8 106.5t24.5 106t42.5 109.5t62 117h265q-59 -125 -89.5 -233.5t-30.5 -205.5t30.5 -205.5t89.5 -233.5h-265z" />
    <glyph glyph-name="parenright" unicode=")" horiz-adv-x="469" 
d="M277 741q36 -61 62 -117t42.5 -109.5t24.5 -106t8 -106.5t-8 -106.5t-24.5 -106t-42.5 -109.5t-62 -117h-265q59 125 89.5 233.5t30.5 205.5t-30.5 205.5t-89.5 233.5h265z" />
    <glyph glyph-name="asterisk" unicode="*" horiz-adv-x="519" 
d="M114 682l113 -108l3 2l-48 146h155l-48 -146l3 -2l113 108l70 -126l-159 -39v-3l159 -39l-70 -126l-113 108l-3 -2l48 -146h-155l48 146l-3 2l-113 -108l-70 126l159 39v3l-159 39z" />
    <glyph glyph-name="plus" unicode="+" horiz-adv-x="600" 
d="M224 177h-177v152h177v177h152v-177h177v-152h-177v-177h-152v177z" />
    <glyph glyph-name="comma" unicode="," horiz-adv-x="420" 
d="M83 148h294l-150 -273h-232z" />
    <glyph glyph-name="hyphen" unicode="-" horiz-adv-x="519" 
d="M35 355h449v-176h-449v176z" />
    <glyph glyph-name="period" unicode="." horiz-adv-x="420" 
d="M72 164h276v-164h-276v164z" />
    <glyph glyph-name="slash" unicode="/" horiz-adv-x="444" 
d="M285 741h163l-289 -760h-163z" />
    <glyph glyph-name="zero" unicode="0" 
d="M324 352q0 -67 6 -110.5t18 -69t30 -35.5t42 -10q25 0 43 10t30 35.5t17.5 69t5.5 110.5t-5.5 110t-17.5 68.5t-30 35.5t-43 10q-28 0 -47 -16t-29.5 -45.5t-15 -71t-4.5 -91.5zM36 352q0 88 19.5 157t64.5 116t118.5 72t181.5 25t181.5 -25t118.5 -72t64.5 -116
t19.5 -158q0 -88 -21 -157t-67 -116t-119 -72t-177 -25t-177 25t-119 72t-67 116.5t-21 157.5z" />
    <glyph glyph-name="one" unicode="1" 
d="M139 590q60 23 113 48t112 65h266v-703h-288v475q-30 -20 -54 -34.5t-47 -25t-47.5 -19t-54.5 -16.5v210z" />
    <glyph glyph-name="two" unicode="2" 
d="M43 152q116 60 216.5 122.5t166.5 115.5q39 32 61 57.5t22 58.5q0 35 -24 58.5t-70 23.5q-50 0 -72 -29.5t-22 -85.5h-270q2 51 16.5 96t55.5 79q42 35 116 54.5t196 19.5q82 0 149 -12.5t114 -38t73 -65.5t26 -95t-34 -104t-91.5 -93t-132 -83.5t-155.5 -76.5v-2h411
v-152h-752v152z" />
    <glyph glyph-name="three" unicode="3" 
d="M323 209q1 -26 6 -45.5t16 -33.5q11 -13 29 -20t45 -7q52 0 77 26.5t25 67.5q0 57 -30 79t-90 22h-85v122h86q49 0 74.5 21t25.5 70q0 17 -3.5 33t-13.5 28.5t-26.5 20t-43.5 7.5q-42 0 -65 -26t-23 -77h-270q0 69 26.5 112.5t75.5 68.5q50 26 118.5 35t153.5 9
q76 0 140.5 -9t112 -32t74 -62t26.5 -99q0 -38 -14 -65.5t-37.5 -46t-55 -29t-67.5 -16.5v-2q193 -21 193 -165q0 -58 -32 -98.5t-86 -66.5t-126 -38t-152 -12q-88 0 -154 11t-111.5 37.5t-70 70.5t-30.5 109h282z" />
    <glyph glyph-name="four" unicode="4" 
d="M432 533h-2l-215 -265h217v265zM29 296l341 407h338v-435h118v-140h-118v-128h-276v128h-403v168z" />
    <glyph glyph-name="five" unicode="5" 
d="M82 703h673v-146h-417l-13 -169q26 25 50 40.5t49 23.5t51.5 11t55.5 3q135 0 202 -62t67 -172q0 -71 -29.5 -119t-82 -77.5t-123 -42t-153.5 -12.5q-186 0 -279 51.5t-93 166.5h288q0 -20 6 -37.5t18 -28.5q26 -24 65 -24q15 0 31.5 5.5t30.5 18.5t23.5 36t9.5 57
q0 23 -4.5 43.5t-15.5 35.5t-28.5 24t-44.5 9q-26 0 -48.5 -11.5t-37.5 -50.5h-279z" />
    <glyph glyph-name="six" unicode="6" 
d="M512 520q0 40 -22 60t-60 20q-34 0 -57 -12.5t-36.5 -39t-19 -68t-5.5 -100.5q48 44 100 65t129 21q55 0 104.5 -13.5t87 -41.5t59.5 -71.5t22 -103.5q0 -76 -34 -125.5t-88.5 -78t-122.5 -40t-135 -11.5q-88 0 -160 18t-123.5 60.5t-80 114.5t-28.5 180q0 99 26.5 169
t79 114.5t131.5 64.5t184 20q71 0 130.5 -11t102.5 -35t67.5 -62.5t24.5 -93.5h-276zM434 338q-21 0 -39.5 -6.5t-33 -20t-23 -35t-8.5 -52.5t8.5 -53t23 -35.5t33 -20t39.5 -6.5q42 0 73 29.5t31 85.5q0 31 -8.5 52.5t-23 35t-33 20t-39.5 6.5z" />
    <glyph glyph-name="seven" unicode="7" 
d="M61 703h725v-160l-303 -543h-339l330 533h-413v170z" />
    <glyph glyph-name="eight" unicode="8" 
d="M324 509q0 -42 25.5 -65t70.5 -23t70.5 23t25.5 65q0 40 -25.5 62.5t-70.5 22.5t-70.5 -22.5t-25.5 -62.5zM60 528q0 55 31 92.5t82 60t115.5 32t131.5 9.5t131.5 -9.5t115.5 -32t82 -60t31 -92.5q0 -80 -52.5 -118t-141.5 -46v-3q51 -6 93 -19t72 -34t46.5 -50.5
t16.5 -69.5q0 -57 -30.5 -96t-83.5 -64t-125 -36t-155 -11t-155 11t-125 36t-83.5 64t-30.5 96q0 40 16.5 69.5t46.5 50.5t72 34t93 19v3q-88 8 -141 46t-53 118zM308 206q0 -45 30 -71t82 -26q53 0 82.5 26t29.5 71t-29.5 72t-82.5 27q-52 0 -82 -27t-30 -72z" />
    <glyph glyph-name="nine" unicode="9" 
d="M311 494q0 -45 26.5 -76.5t74.5 -31.5t75 31.5t27 76.5q0 44 -27 75t-75 31t-74.5 -31t-26.5 -75zM318 186q8 -42 26 -62q20 -21 62 -21q46 0 71 19.5t36.5 51t13.5 70.5t2 77q-46 -38 -96 -53.5t-109 -15.5q-56 0 -108.5 11t-92.5 36.5t-64 67.5t-24 103q0 60 26 107
t74.5 79.5t119 49t159.5 16.5q94 0 167 -19t122.5 -61.5t75.5 -111t26 -166.5q0 -83 -17.5 -153.5t-63.5 -121.5t-126 -79.5t-204 -28.5q-59 0 -105 4t-81 12.5t-61.5 22.5t-46.5 34q-28 28 -38.5 59t-12.5 73h269z" />
    <glyph glyph-name="colon" unicode=":" horiz-adv-x="420" 
d="M72 164h276v-164h-276v164zM72 502h276v-164h-276v164z" />
    <glyph glyph-name="semicolon" unicode=";" horiz-adv-x="420" 
d="M83 148h294l-150 -273h-232zM72 502h276v-164h-276v164z" />
    <glyph glyph-name="less" unicode="&#x3c;" horiz-adv-x="600" 
d="M47 332l506 189v-152l-316 -116l316 -116v-152l-506 189v158z" />
    <glyph glyph-name="equal" unicode="=" horiz-adv-x="600" 
d="M47 443h506v-152h-506v152zM47 215h506v-152h-506v152z" />
    <glyph glyph-name="greater" unicode="&#x3e;" horiz-adv-x="600" 
d="M47 137l316 116l-316 116v152l506 -189v-158l-506 -189v152z" />
    <glyph glyph-name="question" unicode="?" horiz-adv-x="692" 
d="M164 203v39q0 28 3 47t12 34.5t25.5 32t43.5 38.5q31 26 49.5 42.5t28 29t12.5 23.5t3 25q0 39 -30 57t-83 18q-45 0 -89 -6t-92 -17v146q70 16 134 22.5t133 6.5q70 0 130.5 -10.5t105 -33.5t70 -60.5t25.5 -91.5q0 -25 -6 -47t-20 -42.5t-37.5 -42t-58.5 -46.5
q-39 -28 -61.5 -45.5t-34.5 -34t-16.5 -35.5t-6.5 -49h-240zM416 146v-146h-264v146h264z" />
    <glyph glyph-name="at" unicode="@" horiz-adv-x="800" 
d="M482 370q0 34 -19 55t-51 21q-39 0 -60.5 -31t-21.5 -72q0 -29 16.5 -49.5t45.5 -20.5q41 0 65.5 28t24.5 69zM603 540l-39 -217q-2 -10 -3.5 -20t-1.5 -16q0 -9 6.5 -15.5t17.5 -6.5q22 0 36.5 15t23 37.5t12 48t3.5 47.5q0 52 -19 93t-52 69.5t-77.5 44t-95.5 15.5
q-57 0 -103.5 -21t-80 -58t-52 -87t-18.5 -109q0 -63 20.5 -113.5t57 -86t86 -54.5t107.5 -19q48 0 96 14t87 41h121q-28 -46 -62.5 -76.5t-74 -49.5t-83.5 -27t-92 -8q-87 0 -161 28t-128 78.5t-84 120t-30 152.5q0 81 29.5 151t82.5 121t125.5 80t159.5 29
q74 0 139.5 -21.5t115.5 -61.5t79 -97t29 -128q0 -85 -28.5 -137.5t-67 -81t-78.5 -38t-63 -9.5q-40 0 -58.5 13t-28.5 34h-2q-30 -47 -91 -47q-25 0 -49.5 11t-44.5 32.5t-32.5 53.5t-12.5 73q0 42 12.5 81t36 68.5t56 47.5t72.5 18q34 0 61.5 -13t46.5 -45l10 46h84z" />
    <glyph glyph-name="A" unicode="A" horiz-adv-x="1087" 
d="M642 278l-112 252l-117 -252h229zM354 722h379l368 -722h-335l-53 120h-373l-56 -120h-298z" />
    <glyph glyph-name="B" unicode="B" horiz-adv-x="963" 
d="M393 430h90q66 0 91 21.5t25 57.5q0 19 -5 34t-18 25t-35.5 15t-58.5 5h-89v-158zM89 722h493q164 0 237.5 -48t73.5 -140q0 -37 -13 -64.5t-36 -47.5t-53.5 -33t-66.5 -22v-2q38 -2 74 -13t64 -32.5t45 -54t17 -79.5q0 -42 -14.5 -76t-38.5 -54q-18 -15 -37 -25.5
t-47 -17.5t-67.5 -10t-98.5 -3h-532v722zM393 128h90q79 0 111 21t32 66t-32 66t-111 21h-90v-174z" />
    <glyph glyph-name="C" unicode="C" horiz-adv-x="1012" 
d="M650 454q-6 67 -36 98t-92 31q-44 0 -74.5 -18t-49 -48t-26.5 -70.5t-8 -85.5t8 -85.5t26.5 -70.5t49 -48t74.5 -18q69 0 103.5 33t36.5 103h310q-1 -49 -12 -95t-53 -87q-30 -29 -71 -50.5t-90 -35t-104 -20t-113 -6.5q-136 0 -228 27t-148 76.5t-80.5 119.5t-24.5 157
q0 64 18.5 131.5t70.5 122.5t146.5 90.5t245.5 35.5q137 0 229.5 -24.5t140.5 -69.5q17 -16 28.5 -33.5t18.5 -39.5t10.5 -51t3.5 -69h-310z" />
    <glyph glyph-name="D" unicode="D" horiz-adv-x="1062" 
d="M393 164h84q104 0 162.5 47.5t58.5 149.5t-58.5 149.5t-162.5 47.5h-84v-394zM89 722h387q80 0 146.5 -4.5t121.5 -17.5t100 -36t82 -61q39 -40 63.5 -103.5t24.5 -144.5q0 -40 -6.5 -78.5t-19 -72t-30.5 -61.5t-42 -47q-32 -25 -65 -43.5t-77 -30t-103 -17t-143 -5.5
h-439v722z" />
    <glyph glyph-name="E" unicode="E" 
d="M89 722h692v-152h-398v-133h373v-152h-373v-133h402v-152h-696v722z" />
    <glyph glyph-name="F" unicode="F" horiz-adv-x="791" 
d="M89 722h664v-152h-360v-150h342v-152h-342v-268h-304v722z" />
    <glyph glyph-name="G" unicode="G" horiz-adv-x="1087" 
d="M695 502q-3 14 -12 29.5t-26 28.5t-42 21t-61 8q-49 0 -86.5 -15.5t-63 -44t-39 -68.5t-13.5 -89q0 -52 12.5 -96t38.5 -75.5t66.5 -49.5t97.5 -18q50 0 85.5 7t55.5 18v110h-176v152h480v-381q-53 -12 -114 -23t-124.5 -18.5t-127 -12t-123.5 -4.5q-136 0 -227.5 28
t-146.5 77.5t-78 117.5t-23 148q0 102 35 175.5t100.5 121t160 70t213.5 22.5q98 0 181 -11.5t143 -39.5t94.5 -74t36.5 -114h-317z" />
    <glyph glyph-name="H" unicode="H" horiz-adv-x="1087" 
d="M89 722h304v-267h301v267h304v-722h-304v279h-301v-279h-304v722z" />
    <glyph glyph-name="I" unicode="I" horiz-adv-x="470" 
d="M83 722h304v-722h-304v722z" />
    <glyph glyph-name="J" unicode="J" horiz-adv-x="864" 
d="M23 285h282v-15q0 -64 16 -94.5t67 -30.5q26 0 43 6.5t27.5 23t14.5 45t4 71.5v431h304v-408q0 -67 -11 -127t-51 -106t-118 -73t-213 -27q-127 0 -200 24.5t-110 62t-46 82.5t-9 86v49z" />
    <glyph glyph-name="K" unicode="K" horiz-adv-x="1062" 
d="M397 376l260 346h375l-291 -326l323 -396h-382zM89 722h304v-722h-304v722z" />
    <glyph glyph-name="L" unicode="L" horiz-adv-x="742" 
d="M89 722h304v-546h333v-176h-637v722z" />
    <glyph glyph-name="M" unicode="M" horiz-adv-x="1383" 
d="M80 722h461l151 -484h2l146 484h463v-722h-282v543h-2l-198 -543h-294l-186 543h-3v-543h-258v722z" />
    <glyph glyph-name="N" unicode="N" horiz-adv-x="1111" 
d="M78 722h445l243 -484h3v484h264v-722h-431l-258 514h-2v-514h-264v722z" />
    <glyph glyph-name="O" unicode="O" horiz-adv-x="1062" 
d="M1014 361q0 -84 -24.5 -148t-69.5 -107q-59 -57 -154 -91t-235 -34q-132 0 -224 29t-149.5 80t-83.5 120.5t-26 150.5q0 106 38 180.5t101 119.5q26 18 57 33t71.5 25.5t93 16t122.5 5.5q132 0 224 -29t149.5 -80t83.5 -120.5t26 -150.5zM704 361q0 56 -13 96.5t-36 67
t-54.5 39.5t-69.5 13q-37 0 -69 -13t-55 -39.5t-36 -67t-13 -96.5q0 -55 13 -96t36 -67.5t55 -39.5t69 -13q38 0 69.5 13t54.5 39.5t36 67.5t13 96z" />
    <glyph glyph-name="P" unicode="P" horiz-adv-x="939" 
d="M89 722h515q65 0 119.5 -13t93.5 -42t61 -77t22 -119q0 -66 -20.5 -111.5t-57 -74t-85.5 -41t-106 -12.5h-238v-232h-304v722zM393 384h62q81 0 114 21t33 74q0 45 -25.5 68t-91.5 23h-92v-186z" />
    <glyph glyph-name="Q" unicode="Q" horiz-adv-x="1137" 
d="M1139 0q-63 -1 -130.5 -2.5t-144.5 -3.5q-83 -2 -164.5 -7.5t-168.5 -5.5q-132 0 -224 29t-149.5 80t-83.5 120.5t-26 150.5q0 106 38 180.5t101 119.5q26 18 57 33t71.5 25.5t93 16t122.5 5.5q132 0 224 -29t149.5 -80t83.5 -120.5t26 -150.5q0 -70 -33.5 -131
t-92.5 -112l2 -2q62 27 121 39t128 15v-170zM358 361q0 -55 13 -96t36 -67.5t55 -39.5t69 -13q38 0 69.5 13t54.5 39.5t36 67.5t13 96q0 56 -13 96.5t-36 67t-54.5 39.5t-69.5 13q-37 0 -69 -13t-55 -39.5t-36 -67t-13 -96.5z" />
    <glyph glyph-name="R" unicode="R" horiz-adv-x="988" 
d="M89 722h514q74 0 133 -8.5t100.5 -31t63.5 -61t22 -98.5q0 -71 -44 -115t-112 -56v-10q53 -1 92 -23t48 -77l39 -242h-304l-25 161q-5 33 -11.5 53t-20 30.5t-37 14t-62.5 3.5h-92v-262h-304v722zM393 402h116q49 0 82 18.5t33 69.5q0 48 -32 67t-88 19h-111v-174z" />
    <glyph glyph-name="S" unicode="S" horiz-adv-x="988" 
d="M368 232q1 -30 7.5 -52t20.5 -36q15 -14 36 -21.5t51 -7.5q24 0 47 3.5t42 11.5t30.5 22t11.5 36q0 18 -13 33q-10 12 -43 22.5t-78.5 22t-99 23.5t-103.5 26.5t-92.5 32t-66.5 38.5q-29 26 -40 60.5t-11 65.5q0 119 108 174t326 55q115 0 192 -15.5t123.5 -45.5
t67 -73.5t21.5 -99.5h-298q-2 30 -11 49.5t-26 30.5q-16 11 -38 15.5t-51 4.5q-48 0 -73 -16.5t-25 -44.5q0 -8 3 -17.5t10 -15.5q12 -11 45 -21.5t78 -21.5t97 -23t101 -26.5t90.5 -31.5t65.5 -39q21 -19 39 -50t18 -84q0 -54 -25 -97t-79.5 -74t-141 -47.5t-209.5 -16.5
q-98 0 -166.5 9.5t-114.5 26t-72.5 39.5t-40 51t-17.5 60t-6 65h310z" />
    <glyph glyph-name="T" unicode="T" horiz-adv-x="816" 
d="M256 546h-237v176h778v-176h-237v-546h-304v546z" />
    <glyph glyph-name="U" unicode="U" horiz-adv-x="1012" 
d="M75 722h294v-396q0 -52 9 -86.5t26.5 -55.5t44 -30t60.5 -9q35 0 61 9t43.5 30t26.5 55.5t9 86.5v396h288v-422q0 -43 -4 -74.5t-12.5 -55.5t-21.5 -43.5t-31 -37.5q-55 -57 -147 -82.5t-215 -25.5t-215 25.5t-147 82.5q-18 18 -31 37.5t-21.5 43.5t-12.5 55.5t-4 74.5
v422z" />
    <glyph glyph-name="V" unicode="V" horiz-adv-x="1012" 
d="M1 722h335l180 -456l185 456h310l-319 -722h-372z" />
    <glyph glyph-name="W" unicode="W" horiz-adv-x="1409" 
d="M19 722h294l96 -451h3l135 451h339l133 -451h3l95 451h273l-171 -722h-383l-129 439h-3l-130 -439h-386z" />
    <glyph glyph-name="X" unicode="X" horiz-adv-x="1111" 
d="M320 370l-316 352h396l164 -224l170 224h373l-321 -352l331 -370h-396l-177 244l-184 -244h-366z" />
    <glyph glyph-name="Y" unicode="Y" horiz-adv-x="1012" 
d="M354 216l-354 506h379l150 -298l159 298h324l-354 -506v-216h-304v216z" />
    <glyph glyph-name="Z" unicode="Z" horiz-adv-x="890" 
d="M51 195l377 351h-354v176h750v-176l-397 -370h412v-176h-788v195z" />
    <glyph glyph-name="bracketleft" unicode="[" horiz-adv-x="469" 
d="M77 741h419v-128h-161v-622h161v-128h-419v878z" />
    <glyph glyph-name="backslash" unicode="\" horiz-adv-x="444" 
d="M-4 741h163l289 -760h-163z" />
    <glyph glyph-name="bracketright" unicode="]" horiz-adv-x="469" 
d="M134 613h-161v128h419v-878h-419v128h161v622z" />
    <glyph glyph-name="asciicircum" unicode="^" horiz-adv-x="600" 
d="M215 703h170l173 -365h-157l-101 213l-101 -213h-157z" />
    <glyph glyph-name="underscore" unicode="_" horiz-adv-x="500" 
d="M0 -75h500v-50h-500v50z" />
    <glyph glyph-name="grave" unicode="`" horiz-adv-x="370" 
d="M-78 722h298l82 -146h-208z" />
    <glyph glyph-name="a" unicode="a" horiz-adv-x="864" 
d="M70 357q3 49 35.5 80.5t83.5 50.5t111 26t118 7q99 0 170.5 -11t118.5 -36.5t69.5 -66.5t22.5 -101v-239q0 -14 1.5 -30t5.5 -37h-262l-5 72q-42 -53 -100.5 -72t-136.5 -19q-48 0 -92 3.5t-76 15.5q-38 14 -66 45.5t-28 82.5q0 56 32.5 91t87 54.5t126.5 26.5t150 7h81
v28q0 32 -18.5 56t-67.5 24q-51 0 -70.5 -17.5t-23.5 -40.5h-267zM480 211q-86 0 -122 -17.5t-36 -49.5q0 -22 19 -39.5t57 -17.5q55 0 87 31.5t32 76.5v16h-37z" />
    <glyph glyph-name="b" unicode="b" horiz-adv-x="914" 
d="M363 251q0 -25 4 -49t14.5 -43.5t29.5 -31.5t49 -12q31 0 50 12t29.5 31.5t14.5 43.5t4 49q0 60 -22 98t-75 38q-46 0 -72 -37.5t-26 -98.5zM75 722h294v-281q42 43 99 61.5t116 18.5q134 0 206 -70t72 -202q0 -131 -76 -199.5t-215 -68.5q-62 0 -112.5 19t-101.5 70
l-4 -70h-278v722z" />
    <glyph glyph-name="c" unicode="c" 
d="M524 305q-2 20 -7.5 37t-16.5 30t-25.5 20t-36.5 7q-50 0 -72 -38.5t-22 -101.5q0 -33 4 -61.5t14.5 -49.5t27.5 -33t44 -12q25 0 42.5 8t28 21t15 30t4.5 35h288q-1 -57 -31 -98t-83 -67t-123.5 -38.5t-152.5 -12.5q-80 0 -149.5 15t-121.5 47.5t-81.5 84t-29.5 124.5
q0 71 27.5 122t79.5 83.5t127 48t170 15.5q65 0 129.5 -9.5t116 -34t84 -66t32.5 -106.5h-282z" />
    <glyph glyph-name="d" unicode="d" horiz-adv-x="914" 
d="M356 251q0 -25 4 -49t14.5 -43.5t29.5 -31.5t50 -12q30 0 49 12t29.5 31.5t14.5 43.5t4 49q0 61 -26 98.5t-72 37.5q-53 0 -75 -38t-22 -98zM557 70q-51 -51 -101.5 -70t-112.5 -19q-139 0 -215 68.5t-76 199.5q0 132 72 202t206 70q59 0 116 -18.5t99 -61.5v281h294
v-722h-278z" />
    <glyph glyph-name="e" unicode="e" 
d="M328 211q0 -64 25 -94t76 -30q43 0 62.5 17t25.5 41h288q-3 -31 -25 -61t-66.5 -52.5t-113.5 -36.5t-166 -14q-88 0 -160.5 15t-124.5 47.5t-80.5 83t-28.5 121.5q0 73 29 125t80.5 85t122.5 48t154 15q72 0 141.5 -13t123.5 -45t87.5 -87t33.5 -138v-27h-484zM524 307
q0 49 -23.5 78.5t-74.5 29.5q-48 0 -73 -29t-25 -79h196z" />
    <glyph glyph-name="f" unicode="f" horiz-adv-x="543" 
d="M103 362h-84v140h84v24q0 51 11.5 90.5t41.5 67.5t83 42.5t136 14.5q41 0 86.5 -3.5t87.5 -11.5v-131q-14 4 -27.5 5t-32.5 1q-44 0 -68 -18.5t-24 -56.5v-24h143v-140h-143v-362h-294v362z" />
    <glyph glyph-name="g" unicode="g" horiz-adv-x="890" 
d="M545 502h278q-2 -45 -4 -91t-2 -93v-276q0 -74 -33.5 -122.5t-90.5 -77.5t-132 -41t-158 -12q-103 0 -168 13t-102.5 37t-51.5 59t-14 79h282q1 -34 24 -55t55 -21q31 0 50.5 9.5t31 26.5t15.5 40.5t4 51.5v59q-42 -43 -94.5 -61.5t-115.5 -18.5q-71 0 -122.5 19
t-85 52.5t-49.5 79.5t-16 100q0 58 19 106t55 82.5t87 54t115 19.5q72 0 124.5 -23.5t94.5 -63.5zM334 265q0 -67 28 -98t67 -31q31 0 50.5 10.5t30.5 28t15 41t4 49.5q0 63 -24.5 95.5t-76.5 32.5q-24 0 -41.5 -10.5t-29 -28t-17.5 -40.5t-6 -49z" />
    <glyph glyph-name="h" unicode="h" horiz-adv-x="914" 
d="M75 722h294v-308h2q36 54 93.5 80.5t129.5 26.5q34 0 76.5 -7.5t80 -31t63 -67t25.5 -115.5v-300h-294v269q0 56 -21 78t-59 22q-51 0 -73.5 -30.5t-22.5 -88.5v-250h-294v722z" />
    <glyph glyph-name="i" unicode="i" horiz-adv-x="444" 
d="M369 502v-502h-294v502h294zM369 722v-146h-294v146h294z" />
    <glyph glyph-name="j" unicode="j" horiz-adv-x="444" 
d="M-47 -49q24 -3 45 -3q50 0 63.5 24t13.5 70v460h294v-486q0 -53 -11 -92t-41 -65t-82.5 -38.5t-135.5 -12.5q-45 0 -79.5 2.5t-66.5 6.5v134zM75 722h294v-146h-294v146z" />
    <glyph glyph-name="k" unicode="k" horiz-adv-x="914" 
d="M371 266l176 236h339l-204 -217l264 -285h-371zM75 722h294v-722h-294v722z" />
    <glyph glyph-name="l" unicode="l" horiz-adv-x="444" 
d="M369 722v-722h-294v722h294z" />
    <glyph glyph-name="m" unicode="m" horiz-adv-x="1358" 
d="M75 309q0 61 -2 111t-4 82h280l4 -100h2q33 51 89.5 85t142.5 34q35 0 70 -7t64.5 -21t52 -34.5t32.5 -48.5q32 52 86.5 81.5t144.5 29.5q42 0 85.5 -10t79 -33t58.5 -59t23 -89v-330h-294v280q0 35 -17.5 62t-59.5 27q-37 0 -61.5 -22.5t-24.5 -79.5v-267h-294v287
q0 37 -19.5 59.5t-55.5 22.5t-62 -27t-26 -85v-257h-294v309z" />
    <glyph glyph-name="n" unicode="n" horiz-adv-x="914" 
d="M75 305q0 51 -1 100t-5 97h290l4 -88h2q36 54 94 80.5t135 26.5q34 0 76.5 -7.5t80 -31t63 -67t25.5 -115.5v-300h-294v269q0 56 -21 78t-59 22q-51 0 -73.5 -30.5t-22.5 -88.5v-250h-294v305z" />
    <glyph glyph-name="o" unicode="o" horiz-adv-x="890" 
d="M46 251q0 77 28.5 128.5t80.5 83t125.5 45t164.5 13.5t164.5 -13.5t125.5 -45t80.5 -83t28.5 -128.5q0 -76 -28.5 -128t-80.5 -83.5t-125.5 -45t-164.5 -13.5t-164.5 13.5t-125.5 45t-80.5 83.5t-28.5 128zM350 251q0 -29 5 -54.5t16 -45t29 -31t45 -11.5t45 11.5t29 31
t16 45t5 54.5t-5 54.5t-16 45t-29 31t-45 11.5t-45 -11.5t-29 -31t-16 -45t-5 -54.5z" />
    <glyph glyph-name="p" unicode="p" horiz-adv-x="914" 
d="M75 312q0 39 -1.5 91t-4.5 99h290l4 -87h2q33 48 85.5 77t137.5 29q62 0 113.5 -15.5t88.5 -48.5t57.5 -85.5t20.5 -126.5q0 -66 -21.5 -115.5t-60.5 -82.5t-92 -49.5t-116 -16.5q-69 0 -121 21.5t-88 56.5v-251h-294v504zM369 251q0 -25 4 -49t14.5 -43.5t29.5 -31.5
t49 -12q31 0 50 12t29.5 31.5t14.5 43.5t4 49q0 60 -22 98t-75 38q-46 0 -72 -37.5t-26 -98.5z" />
    <glyph glyph-name="q" unicode="q" horiz-adv-x="914" 
d="M545 59q-36 -35 -88 -56.5t-121 -21.5q-63 0 -116 16.5t-92 49.5t-60.5 82.5t-21.5 115.5q0 74 20.5 126.5t57.5 85.5t88.5 48.5t113.5 15.5q85 0 137.5 -29t85.5 -77h2l4 87h290q-3 -47 -4.5 -99t-1.5 -91v-504h-294v251zM350 251q0 -25 4 -49t14.5 -43.5t29.5 -31.5
t50 -12q30 0 49 12t29.5 31.5t14.5 43.5t4 49q0 61 -26 98.5t-72 37.5q-53 0 -75 -38t-22 -98z" />
    <glyph glyph-name="r" unicode="r" horiz-adv-x="617" 
d="M75 315q0 58 -0.5 106t-5.5 81h282l7 -128h2q15 46 36 74t49 43.5t64 21.5t81 8v-194h-55q-48 0 -79.5 -10.5t-51 -30t-27.5 -47t-8 -62.5v-177h-294v315z" />
    <glyph glyph-name="s" unicode="s" horiz-adv-x="864" 
d="M520 357q-2 17 -10.5 28t-21.5 18t-29.5 9.5t-35.5 2.5q-36 0 -60 -12t-24 -32q0 -11 3.5 -18.5t17.5 -13.5t42 -11.5t77 -12.5l101 -15q59 -9 103 -20t73 -28.5t44 -43t15 -63.5q0 -83 -87.5 -123.5t-281.5 -40.5q-119 0 -195 10.5t-120.5 31t-62 51.5t-19.5 71h270
q4 -16 10.5 -27t19.5 -19t32 -10t46 -2q100 0 100 44q0 13 -5 21t-19.5 14.5t-41 11.5t-70.5 12l-197 31q-66 11 -98.5 43.5t-32.5 77.5q0 96 95 137.5t267 41.5q84 0 151.5 -7t115 -25t73 -50t25.5 -82h-270z" />
    <glyph glyph-name="t" unicode="t" horiz-adv-x="543" 
d="M383 681v-179h148v-140h-148v-146q0 -47 23.5 -68t74.5 -21q11 0 24.5 1.5t28.5 5.5v-134q-13 -3 -36 -6.5t-50.5 -6t-57 -4.5t-56.5 -2q-70 0 -116.5 10t-74.5 34t-39.5 63.5t-11.5 98.5v175h-83v140h80v88z" />
    <glyph glyph-name="u" unicode="u" horiz-adv-x="914" 
d="M839 197q0 -51 1 -100t5 -97h-290l-4 88h-2q-36 -54 -94 -80.5t-135 -26.5q-34 0 -76.5 7.5t-80 31t-63 67t-25.5 115.5v300h294v-269q0 -56 21 -78t59 -22q51 0 73.5 30.5t22.5 88.5v250h294v-305z" />
    <glyph glyph-name="v" unicode="v" horiz-adv-x="864" 
d="M241 0l-235 502h310l131 -326l127 326h284l-234 -502h-383z" />
    <glyph glyph-name="w" unicode="w" horiz-adv-x="1334" 
d="M781 0l-114 292l-121 -292h-339l-191 502h298l80 -304h3l118 304h341l116 -304h3l81 304h262l-198 -502h-339z" />
    <glyph glyph-name="x" unicode="x" horiz-adv-x="939" 
d="M257 263l-228 239h354l105 -140l103 140h334l-237 -239l249 -263h-354l-124 156l-123 -156h-334z" />
    <glyph glyph-name="y" unicode="y" horiz-adv-x="864" 
d="M192 -192l107 192l-290 502h326l116 -270l113 270h291l-184 -326q-39 -70 -68.5 -124.5t-51.5 -98.5t-37.5 -79t-27.5 -66h-294z" />
    <glyph glyph-name="z" unicode="z" horiz-adv-x="766" 
d="M42 128l260 234h-235v140h639v-128l-284 -226v-2h302v-146h-682v128z" />
    <glyph glyph-name="braceleft" unicode="{" horiz-adv-x="469" 
d="M46 372q8 0 21 2t25.5 11t21.5 26.5t9 48.5v152q0 58 36 93.5t95 35.5h210v-128h-25q-29 0 -43.5 -19.5t-14.5 -51.5v-123q0 -33 -12 -55t-29 -35t-35 -19t-31 -7v-2q13 -1 31 -7t35 -19t29 -35t12 -55v-123q0 -32 14.5 -51.5t43.5 -19.5h25v-128h-210q-59 0 -95 35.5
t-36 93.5v152q0 31 -9 48.5t-21.5 26.5t-25.5 11t-21 2v140z" />
    <glyph glyph-name="bar" unicode="|" horiz-adv-x="222" 
d="M35 741h152v-760h-152v760z" />
    <glyph glyph-name="braceright" unicode="}" horiz-adv-x="469" 
d="M423 232q-8 0 -21 -2t-25.5 -11t-21.5 -26.5t-9 -48.5v-152q0 -58 -36 -93.5t-95 -35.5h-210v128h25q29 0 43.5 19.5t14.5 51.5v123q0 33 12 55t29 35t35 19t31 7v2q-13 1 -31 7t-35 19t-29 35t-12 55v123q0 32 -14.5 51.5t-43.5 19.5h-25v128h210q59 0 95 -35.5
t36 -93.5v-152q0 -31 9 -48.5t21.5 -26.5t25.5 -11t21 -2v-140z" />
    <glyph glyph-name="asciitilde" unicode="~" horiz-adv-x="600" 
d="M64 272q30 51 63 71t71 20q27 0 57 -10.5t58.5 -23.5t54 -23.5t43.5 -10.5q16 0 37 12t42 56l46 -129q-30 -51 -63 -71t-71 -20q-27 0 -57 10.5t-58.5 23.5t-54 23.5t-43.5 10.5q-16 0 -37 -12t-42 -56z" />
    <glyph glyph-name="exclamdown" unicode="&#xa1;" horiz-adv-x="492" 
d="M114 530h264v-146h-264v146zM129 316h234l46 -508h-326z" />
    <glyph glyph-name="cent" unicode="&#xa2;" 
d="M536 305q-2 34 -8.5 50.5t-20.5 30.5l-102 -284q12 -5 38 -5q46 0 69 30t26 68h276q-2 -57 -34 -97.5t-86 -66.5t-123 -38t-147 -12q-15 0 -30.5 0.5t-31.5 1.5l-38 -107h-70l41 118q-54 10 -100 29.5t-79.5 52t-53 78t-19.5 106.5q0 70 30.5 119.5t82 81t119 46
t141.5 14.5h32.5t31.5 -1l34 96h75l-37 -103q56 -7 102.5 -22.5t80.5 -40t52.5 -60.5t18.5 -85h-270zM440 405q-34 0 -55 -10.5t-33 -29.5t-16.5 -46t-4.5 -60t3.5 -61.5t14.5 -51.5z" />
    <glyph glyph-name="sterling" unicode="&#xa3;" 
d="M34 158h68v119h-82v158h82v12q0 27 1.5 57.5t12 61t32.5 59t63 50t103.5 34.5t154.5 13q78 0 141.5 -11.5t109 -38t71.5 -69.5t29 -106h-252q-8 42 -30 63q-24 22 -66 22q-57 0 -81.5 -29.5t-24.5 -101.5v-16h226v-158h-226v-119h429v-158h-761v158z" />
    <glyph glyph-name="currency" unicode="&#xa4;" 
d="M300 352q0 -56 34 -90t86 -34t86 34t34 90t-34 90t-86 34t-86 -34t-34 -90zM167 191q-23 35 -35 75.5t-12 85.5t12 85.5t35 75.5l-74 74l91 92l74 -74q35 23 76 35t86 12q88 0 161 -48l75 75l91 -92l-74 -74q23 -35 35 -75.5t12 -85.5t-12 -85.5t-35 -75.5l74 -74
l-91 -92l-75 75q-71 -48 -161 -48t-161 48l-75 -75l-91 92z" />
    <glyph glyph-name="yen" unicode="&#xa5;" 
d="M296 97h-199v116h199v43l-16 25h-183v116h109l-206 325h315l125 -298l132 298h268l-203 -325h110v-116h-183l-16 -25v-43h199v-116h-199v-97h-252v97z" />
    <glyph glyph-name="brokenbar" unicode="&#xa6;" horiz-adv-x="222" 
d="M35 267h152v-286h-152v286zM35 741h152v-286h-152v286z" />
    <glyph glyph-name="section" unicode="&#xa7;" 
d="M454 298q24 12 38 27.5t14 36.5q0 17 -17 28.5t-68 24.5l-36 9q-24 -9 -37.5 -25t-13.5 -37q0 -15 9 -26.5t44 -20.5zM111 122q22 -7 53 -16t65 -16.5t69 -12.5t65 -5q23 0 45 2t39 7.5t27.5 15t10.5 24.5q0 14 -7 23t-28 17t-58.5 17t-98.5 21q-57 12 -96 25t-63 30.5
t-35 39.5t-11 50q0 53 30 84.5t92 39.5v2q-43 7 -73 32.5t-30 70.5q0 52 33 85t84.5 51.5t114.5 25t124 6.5t120.5 -6t124.5 -20v-114q-40 14 -95.5 24t-111.5 10q-43 0 -70.5 -5t-43.5 -12.5t-22 -17t-6 -17.5q0 -19 19.5 -28t54.5 -14q28 -4 60.5 -9t63.5 -11t58.5 -12.5
t46.5 -13.5q43 -17 67 -43t23 -72q0 -44 -31.5 -79.5t-108.5 -49.5v-2q53 -10 89 -39t36 -85q0 -81 -79 -125t-220 -44q-89 0 -167.5 9t-159.5 29v128z" />
    <glyph glyph-name="dieresis" unicode="&#xa8;" horiz-adv-x="370" 
d="M227 722h240v-140h-240v140zM-97 722h240v-140h-240v140z" />
    <glyph glyph-name="copyright" unicode="&#xa9;" horiz-adv-x="800" 
d="M589 303q-6 -39 -22.5 -68.5t-40.5 -49.5t-54.5 -30t-63.5 -10q-47 0 -85.5 16.5t-66 46t-42.5 69t-15 84.5q0 47 14 86.5t41 68.5t65.5 45.5t86.5 16.5q69 0 118 -39t61 -116h-99q-14 59 -84 59q-45 0 -68 -32.5t-23 -86.5q0 -52 25.5 -87t67.5 -35q34 0 57 15t25 47
h103zM148 361q0 -61 19 -109.5t53 -83t80 -53t100 -18.5t100 18.5t80 53t53 83t19 109.5t-19 109.5t-53 83t-80 53t-100 18.5t-100 -18.5t-80 -53t-53 -83t-19 -109.5zM20 361q0 79 30 148t81.5 120.5t120.5 81.5t148 30t148 -30t120.5 -81.5t81.5 -120.5t30 -148t-30 -148
t-81.5 -120.5t-120.5 -81.5t-148 -30t-148 30t-120.5 81.5t-81.5 120.5t-30 148z" />
    <glyph glyph-name="ordfeminine" unicode="&#xaa;" horiz-adv-x="592" 
d="M47 616q2 35 23 55t54 31q32 11 74.5 15.5t97.5 4.5q73 0 124.5 -6.5t84 -22t47.5 -40t15 -60.5v-144q0 -8 1.5 -18t3.5 -25h-197l-4 44q-23 -28 -62 -41t-111 -13q-98 0 -138 23.5t-40 65.5q0 36 21 58.5t56.5 35t82 17t97.5 4.5h80v4q0 19 -12 33.5t-44 14.5
q-33 0 -46 -10.5t-15 -25.5h-193zM340 536q-110 0 -110 -38q0 -12 13.5 -22t34.5 -10q39 0 59 17t20 41v12h-17z" />
    <glyph glyph-name="guillemotleft" unicode="&#xab;" horiz-adv-x="963" 
d="M529 492l-204 -224l211 -226h-304l-217 221l220 229h294zM941 492l-204 -224l211 -226h-304l-217 221l220 229h294z" />
    <glyph glyph-name="logicalnot" unicode="&#xac;" horiz-adv-x="600" 
d="M401 291h-354v152h506v-363h-152v211z" />
    <glyph glyph-name="registered" unicode="&#xae;" horiz-adv-x="800" 
d="M243 567h146q40 0 72 -6t54.5 -20t34.5 -38.5t12 -60.5q0 -28 -8 -48t-21 -33t-30 -19t-36 -7l97 -176h-107l-87 170h-31v-170h-96v408zM339 405h72q55 0 55 43q0 23 -17 33t-40 10h-70v-86zM20 361q0 79 30 148t81.5 120.5t120.5 81.5t148 30t148 -30t120.5 -81.5
t81.5 -120.5t30 -148t-30 -148t-81.5 -120.5t-120.5 -81.5t-148 -30t-148 30t-120.5 81.5t-81.5 120.5t-30 148zM148 361q0 -61 19 -109.5t53 -83t80 -53t100 -18.5t100 18.5t80 53t53 83t19 109.5t-19 109.5t-53 83t-80 53t-100 18.5t-100 -18.5t-80 -53t-53 -83
t-19 -109.5z" />
    <glyph glyph-name="macron" unicode="&#xaf;" horiz-adv-x="370" 
d="M-60 703h490v-116h-490v116z" />
    <glyph glyph-name="degree" unicode="&#xb0;" horiz-adv-x="400" 
d="M141 557q0 -25 17 -42t42 -17t42 17t17 42t-17 42t-42 17t-42 -17t-17 -42zM35 557q0 34 13 64t35.5 52.5t52.5 35.5t64 13t64 -13t52.5 -35.5t35.5 -52.5t13 -64t-13 -64t-35.5 -52.5t-52.5 -35.5t-64 -13t-64 13t-52.5 35.5t-35.5 52.5t-13 64z" />
    <glyph glyph-name="plusminus" unicode="&#xb1;" horiz-adv-x="600" 
d="M47 418h177v88h152v-88h177v-152h-177v-88h-152v88h-177v152zM47 152h506v-152h-506v152z" />
    <glyph glyph-name="twosuperior" unicode="&#xb2;" horiz-adv-x="546" 
d="M19 391q40 19 78 38t72 37t62.5 34t48.5 29q25 16 31 27t6 25q0 20 -13 32.5t-36 12.5q-29 0 -43 -17t-14 -45h-192q2 37 11.5 65.5t35.5 48.5q27 20 76.5 32t137.5 12q116 0 181.5 -30.5t65.5 -100.5q0 -34 -21 -62t-57 -52t-83.5 -44.5t-100.5 -39.5v-2h255v-106h-501
v106z" />
    <glyph glyph-name="threesuperior" unicode="&#xb3;" horiz-adv-x="546" 
d="M220 423q1 -11 4 -21.5t10 -18.5q16 -16 40 -16q23 0 37.5 13.5t14.5 31.5q0 26 -20 36.5t-58 10.5h-45v90h46q32 0 48.5 11t16.5 30q0 14 -9.5 28t-35.5 14q-24 0 -35.5 -14t-11.5 -36h-198q0 45 17 72t49 42t78.5 20.5t109.5 5.5q53 0 97.5 -5.5t76 -19t49 -37
t17.5 -59.5q0 -23 -9 -39t-24.5 -27.5t-36 -18t-43.5 -9.5v-2q125 -12 125 -98q0 -35 -21 -60t-57 -40.5t-84.5 -22.5t-104.5 -7q-61 0 -106 7t-75 23.5t-46.5 44.5t-19.5 71h204z" />
    <glyph glyph-name="acute" unicode="&#xb4;" horiz-adv-x="370" 
d="M68 576l82 146h298l-172 -146h-208z" />
    <glyph glyph-name="mu" unicode="&#xb5;" horiz-adv-x="914" 
d="M839 197q0 -51 1 -100t5 -97h-294v88h-2q-17 -31 -38 -52t-41.5 -33t-39.5 -17t-33 -5q-11 0 -17.5 1.5t-10.5 3.5v-178h-294v694h294v-269q0 -56 21 -78t61 -22q50 0 72 30.5t22 88.5v250h294v-305z" />
    <glyph glyph-name="paragraph" unicode="&#xb6;" horiz-adv-x="667" 
d="M215 373q-51 0 -91 13t-67 36t-41.5 54.5t-14.5 67.5q0 54 19 88.5t52 54.5t78 27.5t97 7.5h362v-747h-158v625h-78v-625h-158v398z" />
    <glyph glyph-name="periodcentered" unicode="&#xb7;" horiz-adv-x="420" 
d="M96 253q0 24 9 44.5t24.5 36t36 24.5t44.5 9t44.5 -9t36 -24.5t24.5 -36t9 -44.5t-9 -44.5t-24.5 -36t-36 -24.5t-44.5 -9t-44.5 9t-36 24.5t-24.5 36t-9 44.5z" />
    <glyph glyph-name="cedilla" unicode="&#xb8;" horiz-adv-x="370" 
d="M38 -155q19 -8 42 -15t50 -7q26 0 43 8.5t17 23.5q0 14 -11.5 21t-29.5 7q-14 0 -26.5 -2.5t-20.5 -6.5l-29 31l94 95h70l-61 -67l2 -2q8 3 26 6.5t38 3.5q46 0 73 -19.5t27 -61.5q0 -46 -42 -70.5t-121 -24.5q-38 0 -82.5 6.5t-79.5 17.5z" />
    <glyph glyph-name="onesuperior" unicode="&#xb9;" horiz-adv-x="546" 
d="M78 646q39 14 74 29t73 39h195v-429h-210v272q-19 -12 -34.5 -20.5t-30.5 -15t-31 -11.5t-36 -10v146z" />
    <glyph glyph-name="ordmasculine" unicode="&#xba;" horiz-adv-x="574" 
d="M286 722q65 0 115.5 -8t86 -27.5t54 -50.5t18.5 -78q0 -46 -18.5 -77t-54 -50t-86 -27t-115.5 -8q-64 0 -114.5 8t-85.5 27t-53.5 50t-18.5 77q0 47 18.5 78t53.5 50.5t85.5 27.5t114.5 8zM332 559q0 27 -11.5 47t-34.5 20q-22 0 -33 -20t-11 -47q0 -28 11 -47.5
t33 -19.5q23 0 34.5 19.5t11.5 47.5z" />
    <glyph glyph-name="guillemotright" unicode="&#xbb;" horiz-adv-x="963" 
d="M434 42l204 224l-211 226h304l217 -221l-220 -229h-294zM22 42l204 224l-211 226h304l217 -221l-220 -229h-294z" />
    <glyph glyph-name="onequarter" unicode="&#xbc;" horiz-adv-x="1261" 
d="M926 307l-121 -137h121v137zM674 192l218 237h238v-259h72v-96h-72v-74h-204v74h-252v118zM763 741h147l-517 -779h-147zM78 646q39 14 74 29t73 39h195v-429h-210v272q-19 -12 -34.5 -20.5t-30.5 -15t-31 -11.5t-36 -10v146z" />
    <glyph glyph-name="onehalf" unicode="&#xbd;" horiz-adv-x="1261" 
d="M763 741h147l-517 -779h-147zM78 646q39 14 74 29t73 39h195v-429h-210v272q-19 -12 -34.5 -20.5t-30.5 -15t-31 -11.5t-36 -10v146zM694 106q40 19 78 38t72 37t62.5 34t48.5 29q25 16 31 27t6 25q0 20 -13 32.5t-36 12.5q-29 0 -43 -17t-14 -45h-192q2 37 11.5 65.5
t35.5 48.5q27 20 76.5 32t137.5 12q116 0 181.5 -30.5t65.5 -100.5q0 -34 -21 -62t-57 -52t-83.5 -44.5t-100.5 -39.5v-2h255v-106h-501v106z" />
    <glyph glyph-name="threequarters" unicode="&#xbe;" horiz-adv-x="1261" 
d="M986 307l-121 -137h121v137zM734 192l218 237h238v-259h72v-96h-72v-74h-204v74h-252v118zM843 741h147l-517 -779h-147zM220 423q1 -11 4 -21.5t10 -18.5q16 -16 40 -16q23 0 37.5 13.5t14.5 31.5q0 26 -20 36.5t-58 10.5h-45v90h46q32 0 48.5 11t16.5 30q0 14 -9.5 28
t-35.5 14q-24 0 -35.5 -14t-11.5 -36h-198q0 45 17 72t49 42t78.5 20.5t109.5 5.5q53 0 97.5 -5.5t76 -19t49 -37t17.5 -59.5q0 -23 -9 -39t-24.5 -27.5t-36 -18t-43.5 -9.5v-2q125 -12 125 -98q0 -35 -21 -60t-57 -40.5t-84.5 -22.5t-104.5 -7q-61 0 -106 7t-75 23.5
t-46.5 44.5t-19.5 71h204z" />
    <glyph glyph-name="questiondown" unicode="&#xbf;" horiz-adv-x="692" 
d="M528 327v-39q0 -28 -3 -47t-12 -34.5t-25.5 -31.5t-43.5 -39q-31 -26 -49.5 -42.5t-28 -29t-12.5 -23.5t-3 -25q0 -39 30 -57t83 -18q45 0 89 6t92 17v-146q-70 -16 -134 -22.5t-133 -6.5q-70 0 -130.5 10.5t-105 33.5t-70 60.5t-25.5 91.5q0 26 6 47.5t20 42t37.5 42
t58.5 46.5q39 28 61.5 45.5t34.5 34t16.5 35.5t6.5 49h240zM276 530h264v-146h-264v146z" />
    <glyph glyph-name="Agrave" unicode="&#xc0;" horiz-adv-x="1087" 
d="M642 278l-112 252l-117 -252h229zM354 722h379l368 -722h-335l-53 120h-373l-56 -120h-298zM281 919h298l82 -146h-208z" />
    <glyph glyph-name="Aacute" unicode="&#xc1;" horiz-adv-x="1087" 
d="M642 278l-112 252l-117 -252h229zM354 722h379l368 -722h-335l-53 120h-373l-56 -120h-298zM427 773l82 146h298l-172 -146h-208z" />
    <glyph glyph-name="Acircumflex" unicode="&#xc2;" horiz-adv-x="1087" 
d="M642 278l-112 252l-117 -252h229zM354 722h379l368 -722h-335l-53 120h-373l-56 -120h-298zM417 919h252l145 -146h-209l-58 70l-53 -70h-220z" />
    <glyph glyph-name="Atilde" unicode="&#xc3;" horiz-adv-x="1087" 
d="M642 278l-112 252l-117 -252h229zM354 722h379l368 -722h-335l-53 120h-373l-56 -120h-298zM785 931q0 -28 -8 -56.5t-24.5 -51t-43 -36.5t-63.5 -14q-22 0 -50.5 7t-57 16t-52.5 16t-36 7q-17 0 -28.5 -10.5t-13.5 -23.5h-105q5 75 40.5 110.5t110.5 35.5q24 0 48.5 -6
t47.5 -12.5t44.5 -12.5t40.5 -6q45 0 48 37h102z" />
    <glyph glyph-name="Adieresis" unicode="&#xc4;" horiz-adv-x="1087" 
d="M642 278l-112 252l-117 -252h229zM354 722h379l368 -722h-335l-53 120h-373l-56 -120h-298zM586 919h240v-140h-240v140zM262 919h240v-140h-240v140z" />
    <glyph glyph-name="Aring" unicode="&#xc5;" horiz-adv-x="1087" 
d="M642 278l-112 252l-117 -252h229zM354 722h379l368 -722h-335l-53 120h-373l-56 -120h-298zM495 853q0 -17 13 -32t36 -15t36 15t13 32t-13 32t-36 15t-36 -15t-13 -32zM355 853q0 21 10 39t32 31.5t58.5 21t88.5 7.5q53 0 89 -7.5t58 -21t32 -31.5t10 -39t-10 -39
t-32 -31.5t-58 -21t-89 -7.5q-52 0 -88.5 7.5t-58.5 21t-32 31.5t-10 39z" />
    <glyph glyph-name="AE" unicode="&#xc6;" horiz-adv-x="1359" 
d="M414 722h880v-152h-431l32 -133h375v-152h-339l31 -133h337v-152h-590l-31 138h-319l-74 -138h-294zM583 558l-150 -280h213z" />
    <glyph glyph-name="Ccedilla" unicode="&#xc7;" horiz-adv-x="1012" 
d="M486 -19q-123 4 -207 33t-135 78.5t-73.5 117.5t-22.5 151q0 64 18.5 131.5t70.5 122.5t146.5 90.5t245.5 35.5q137 0 229.5 -24.5t140.5 -69.5q17 -16 28.5 -33.5t18.5 -39.5t10.5 -51t3.5 -69h-310q-6 67 -36 98t-92 31q-44 0 -74.5 -18t-49 -48t-26.5 -70.5t-8 -85.5
t8 -85.5t26.5 -70.5t49 -48t74.5 -18q69 0 103.5 33t36.5 103h310q-1 -49 -12 -95t-53 -87q-57 -55 -148.5 -81.5t-200.5 -30.5l-45 -48l2 -2q8 3 26 6.5t38 3.5q46 0 73 -19.5t27 -61.5q0 -46 -42 -70.5t-121 -24.5q-38 0 -82.5 6.5t-79.5 17.5l21 56q19 -8 42 -15t50 -7
q26 0 43 8.5t17 23.5q0 14 -11.5 21t-29.5 7q-14 0 -26.5 -2.5t-20.5 -6.5l-29 31z" />
    <glyph glyph-name="Egrave" unicode="&#xc8;" 
d="M89 722h692v-152h-398v-133h373v-152h-373v-133h402v-152h-696v722zM169 919h298l82 -146h-208z" />
    <glyph glyph-name="Eacute" unicode="&#xc9;" 
d="M89 722h692v-152h-398v-133h373v-152h-373v-133h402v-152h-696v722zM315 773l82 146h298l-172 -146h-208z" />
    <glyph glyph-name="Ecircumflex" unicode="&#xca;" 
d="M89 722h692v-152h-398v-133h373v-152h-373v-133h402v-152h-696v722zM305 919h252l145 -146h-209l-58 70l-53 -70h-220z" />
    <glyph glyph-name="Edieresis" unicode="&#xcb;" 
d="M89 722h692v-152h-398v-133h373v-152h-373v-133h402v-152h-696v722zM474 919h240v-140h-240v140zM150 919h240v-140h-240v140z" />
    <glyph glyph-name="Igrave" unicode="&#xcc;" horiz-adv-x="470" 
d="M83 722h304v-722h-304v722zM-28 919h298l82 -146h-208z" />
    <glyph glyph-name="Iacute" unicode="&#xcd;" horiz-adv-x="470" 
d="M83 722h304v-722h-304v722zM118 773l82 146h298l-172 -146h-208z" />
    <glyph glyph-name="Icircumflex" unicode="&#xce;" horiz-adv-x="470" 
d="M83 722h304v-722h-304v722zM108 919h252l145 -146h-209l-58 70l-53 -70h-220z" />
    <glyph glyph-name="Idieresis" unicode="&#xcf;" horiz-adv-x="470" 
d="M83 722h304v-722h-304v722zM277 919h240v-140h-240v140zM-47 919h240v-140h-240v140z" />
    <glyph glyph-name="Eth" unicode="&#xd0;" horiz-adv-x="1062" 
d="M89 278h-70v152h70v292h387q80 0 146.5 -4.5t121.5 -17.5t100 -36t82 -61q39 -40 63.5 -103.5t24.5 -144.5q0 -40 -6.5 -78.5t-19 -72t-30.5 -61.5t-42 -47q-32 -25 -65 -43.5t-77 -30t-103 -17t-143 -5.5h-439v278zM495 278h-102v-114h84q104 0 162.5 47.5t58.5 149.5
t-58.5 149.5t-162.5 47.5h-84v-128h102v-152z" />
    <glyph glyph-name="Ntilde" unicode="&#xd1;" horiz-adv-x="1111" 
d="M78 722h445l243 -484h3v484h264v-722h-431l-258 514h-2v-514h-264v722zM803 931q0 -28 -8 -56.5t-24.5 -51t-43 -36.5t-63.5 -14q-22 0 -50.5 7t-57 16t-52.5 16t-36 7q-17 0 -28.5 -10.5t-13.5 -23.5h-105q5 75 40.5 110.5t110.5 35.5q24 0 48.5 -6t47.5 -12.5
t44.5 -12.5t40.5 -6q45 0 48 37h102z" />
    <glyph glyph-name="Ograve" unicode="&#xd2;" horiz-adv-x="1062" 
d="M1014 361q0 -84 -24.5 -148t-69.5 -107q-59 -57 -154 -91t-235 -34q-132 0 -224 29t-149.5 80t-83.5 120.5t-26 150.5q0 106 38 180.5t101 119.5q26 18 57 33t71.5 25.5t93 16t122.5 5.5q132 0 224 -29t149.5 -80t83.5 -120.5t26 -150.5zM704 361q0 56 -13 96.5t-36 67
t-54.5 39.5t-69.5 13q-37 0 -69 -13t-55 -39.5t-36 -67t-13 -96.5q0 -55 13 -96t36 -67.5t55 -39.5t69 -13q38 0 69.5 13t54.5 39.5t36 67.5t13 96zM268 919h298l82 -146h-208z" />
    <glyph glyph-name="Oacute" unicode="&#xd3;" horiz-adv-x="1062" 
d="M1014 361q0 -84 -24.5 -148t-69.5 -107q-59 -57 -154 -91t-235 -34q-132 0 -224 29t-149.5 80t-83.5 120.5t-26 150.5q0 106 38 180.5t101 119.5q26 18 57 33t71.5 25.5t93 16t122.5 5.5q132 0 224 -29t149.5 -80t83.5 -120.5t26 -150.5zM704 361q0 56 -13 96.5t-36 67
t-54.5 39.5t-69.5 13q-37 0 -69 -13t-55 -39.5t-36 -67t-13 -96.5q0 -55 13 -96t36 -67.5t55 -39.5t69 -13q38 0 69.5 13t54.5 39.5t36 67.5t13 96zM414 773l82 146h298l-172 -146h-208z" />
    <glyph glyph-name="Ocircumflex" unicode="&#xd4;" horiz-adv-x="1062" 
d="M1014 361q0 -84 -24.5 -148t-69.5 -107q-59 -57 -154 -91t-235 -34q-132 0 -224 29t-149.5 80t-83.5 120.5t-26 150.5q0 106 38 180.5t101 119.5q26 18 57 33t71.5 25.5t93 16t122.5 5.5q132 0 224 -29t149.5 -80t83.5 -120.5t26 -150.5zM704 361q0 56 -13 96.5t-36 67
t-54.5 39.5t-69.5 13q-37 0 -69 -13t-55 -39.5t-36 -67t-13 -96.5q0 -55 13 -96t36 -67.5t55 -39.5t69 -13q38 0 69.5 13t54.5 39.5t36 67.5t13 96zM404 919h252l145 -146h-209l-58 70l-53 -70h-220z" />
    <glyph glyph-name="Otilde" unicode="&#xd5;" horiz-adv-x="1062" 
d="M1014 361q0 -84 -24.5 -148t-69.5 -107q-59 -57 -154 -91t-235 -34q-132 0 -224 29t-149.5 80t-83.5 120.5t-26 150.5q0 106 38 180.5t101 119.5q26 18 57 33t71.5 25.5t93 16t122.5 5.5q132 0 224 -29t149.5 -80t83.5 -120.5t26 -150.5zM704 361q0 56 -13 96.5t-36 67
t-54.5 39.5t-69.5 13q-37 0 -69 -13t-55 -39.5t-36 -67t-13 -96.5q0 -55 13 -96t36 -67.5t55 -39.5t69 -13q38 0 69.5 13t54.5 39.5t36 67.5t13 96zM772 931q0 -28 -8 -56.5t-24.5 -51t-43 -36.5t-63.5 -14q-22 0 -50.5 7t-57 16t-52.5 16t-36 7q-17 0 -28.5 -10.5
t-13.5 -23.5h-105q5 75 40.5 110.5t110.5 35.5q24 0 48.5 -6t47.5 -12.5t44.5 -12.5t40.5 -6q45 0 48 37h102z" />
    <glyph glyph-name="Odieresis" unicode="&#xd6;" horiz-adv-x="1062" 
d="M1014 361q0 -84 -24.5 -148t-69.5 -107q-59 -57 -154 -91t-235 -34q-132 0 -224 29t-149.5 80t-83.5 120.5t-26 150.5q0 106 38 180.5t101 119.5q26 18 57 33t71.5 25.5t93 16t122.5 5.5q132 0 224 -29t149.5 -80t83.5 -120.5t26 -150.5zM704 361q0 56 -13 96.5t-36 67
t-54.5 39.5t-69.5 13q-37 0 -69 -13t-55 -39.5t-36 -67t-13 -96.5q0 -55 13 -96t36 -67.5t55 -39.5t69 -13q38 0 69.5 13t54.5 39.5t36 67.5t13 96zM573 919h240v-140h-240v140zM249 919h240v-140h-240v140z" />
    <glyph glyph-name="multiply" unicode="&#xd7;" horiz-adv-x="600" 
d="M51 110l143 143l-143 143l106 106l143 -143l143 143l106 -106l-143 -143l143 -143l-106 -106l-143 144l-143 -144z" />
    <glyph glyph-name="Oslash" unicode="&#xd8;" horiz-adv-x="1062" 
d="M421 184q44 -39 110 -39q38 0 69.5 13t54.5 39.5t36 67.5t13 96q0 69 -20 114zM640 538q-42 39 -109 39q-37 0 -69 -13t-55 -39.5t-36 -67t-13 -96.5q0 -68 20 -113zM204 56q-83 51 -119.5 129.5t-36.5 175.5q0 106 38 180.5t101 119.5q26 18 57 33t71.5 25.5t93 16
t122.5 5.5q79 0 142.5 -10t114.5 -30l97 107l55 -51l-82 -91q84 -51 120 -130t36 -175q0 -84 -24.5 -148t-69.5 -107q-59 -57 -154 -91t-235 -34q-154 0 -257 41l-97 -108l-55 51z" />
    <glyph glyph-name="Ugrave" unicode="&#xd9;" horiz-adv-x="1012" 
d="M75 722h294v-396q0 -52 9 -86.5t26.5 -55.5t44 -30t60.5 -9q35 0 61 9t43.5 30t26.5 55.5t9 86.5v396h288v-422q0 -43 -4 -74.5t-12.5 -55.5t-21.5 -43.5t-31 -37.5q-55 -57 -147 -82.5t-215 -25.5t-215 25.5t-147 82.5q-18 18 -31 37.5t-21.5 43.5t-12.5 55.5t-4 74.5
v422zM249 919h298l82 -146h-208z" />
    <glyph glyph-name="Uacute" unicode="&#xda;" horiz-adv-x="1012" 
d="M75 722h294v-396q0 -52 9 -86.5t26.5 -55.5t44 -30t60.5 -9q35 0 61 9t43.5 30t26.5 55.5t9 86.5v396h288v-422q0 -43 -4 -74.5t-12.5 -55.5t-21.5 -43.5t-31 -37.5q-55 -57 -147 -82.5t-215 -25.5t-215 25.5t-147 82.5q-18 18 -31 37.5t-21.5 43.5t-12.5 55.5t-4 74.5
v422zM395 773l82 146h298l-172 -146h-208z" />
    <glyph glyph-name="Ucircumflex" unicode="&#xdb;" horiz-adv-x="1012" 
d="M75 722h294v-396q0 -52 9 -86.5t26.5 -55.5t44 -30t60.5 -9q35 0 61 9t43.5 30t26.5 55.5t9 86.5v396h288v-422q0 -43 -4 -74.5t-12.5 -55.5t-21.5 -43.5t-31 -37.5q-55 -57 -147 -82.5t-215 -25.5t-215 25.5t-147 82.5q-18 18 -31 37.5t-21.5 43.5t-12.5 55.5t-4 74.5
v422zM385 919h252l145 -146h-209l-58 70l-53 -70h-220z" />
    <glyph glyph-name="Udieresis" unicode="&#xdc;" horiz-adv-x="1012" 
d="M75 722h294v-396q0 -52 9 -86.5t26.5 -55.5t44 -30t60.5 -9q35 0 61 9t43.5 30t26.5 55.5t9 86.5v396h288v-422q0 -43 -4 -74.5t-12.5 -55.5t-21.5 -43.5t-31 -37.5q-55 -57 -147 -82.5t-215 -25.5t-215 25.5t-147 82.5q-18 18 -31 37.5t-21.5 43.5t-12.5 55.5t-4 74.5
v422zM554 919h240v-140h-240v140zM230 919h240v-140h-240v140z" />
    <glyph glyph-name="Yacute" unicode="&#xdd;" horiz-adv-x="1012" 
d="M354 216l-354 506h379l150 -298l159 298h324l-354 -506v-216h-304v216zM389 773l82 146h298l-172 -146h-208z" />
    <glyph glyph-name="Thorn" unicode="&#xde;" horiz-adv-x="939" 
d="M89 722h304v-100h211q65 0 119.5 -13t93.5 -42t61 -77t22 -119q0 -66 -20.5 -111.5t-57 -74t-85.5 -41t-106 -12.5h-238v-132h-304v722zM393 284h62q81 0 114 21t33 74q0 45 -25.5 68t-91.5 23h-92v-186z" />
    <glyph glyph-name="germandbls" unicode="&#xdf;" horiz-adv-x="1137" 
d="M75 447q0 62 17.5 115.5t71 93t152 62.5t259.5 23q79 0 160.5 -9t144.5 -30q20 -7 40 -18.5t36.5 -28.5t26.5 -39.5t10 -50.5q0 -30 -21 -57.5t-63 -39.5l-89 -26q-29 -8 -38 -20t-9 -26q0 -23 16 -35.5t58 -26.5l97 -33q44 -15 74 -30t48.5 -32t27 -38t8.5 -47
q0 -83 -88 -128t-271 -45q-311 0 -311 144v21h246q0 -36 21 -49q10 -6 23.5 -8t28.5 -2q29 0 46 13.5t17 35.5q0 17 -15.5 30t-57.5 27l-108 37q-74 26 -109 56t-35 81q0 38 18 68t65 49l86 34q25 10 33 19.5t8 26.5q0 29 -34 47t-97 18q-72 0 -112 -15.5t-59.5 -43.5
t-23.5 -65t-4 -81v-424h-294v447z" />
    <glyph glyph-name="agrave" unicode="&#xe0;" horiz-adv-x="864" 
d="M70 357q3 49 35.5 80.5t83.5 50.5t111 26t118 7q99 0 170.5 -11t118.5 -36.5t69.5 -66.5t22.5 -101v-239q0 -14 1.5 -30t5.5 -37h-262l-5 72q-42 -53 -100.5 -72t-136.5 -19q-48 0 -92 3.5t-76 15.5q-38 14 -66 45.5t-28 82.5q0 56 32.5 91t87 54.5t126.5 26.5t150 7h81
v28q0 32 -18.5 56t-67.5 24q-51 0 -70.5 -17.5t-23.5 -40.5h-267zM480 211q-86 0 -122 -17.5t-36 -49.5q0 -22 19 -39.5t57 -17.5q55 0 87 31.5t32 76.5v16h-37zM169 722h298l82 -146h-208z" />
    <glyph glyph-name="aacute" unicode="&#xe1;" horiz-adv-x="864" 
d="M70 357q3 49 35.5 80.5t83.5 50.5t111 26t118 7q99 0 170.5 -11t118.5 -36.5t69.5 -66.5t22.5 -101v-239q0 -14 1.5 -30t5.5 -37h-262l-5 72q-42 -53 -100.5 -72t-136.5 -19q-48 0 -92 3.5t-76 15.5q-38 14 -66 45.5t-28 82.5q0 56 32.5 91t87 54.5t126.5 26.5t150 7h81
v28q0 32 -18.5 56t-67.5 24q-51 0 -70.5 -17.5t-23.5 -40.5h-267zM480 211q-86 0 -122 -17.5t-36 -49.5q0 -22 19 -39.5t57 -17.5q55 0 87 31.5t32 76.5v16h-37zM315 576l82 146h298l-172 -146h-208z" />
    <glyph glyph-name="acircumflex" unicode="&#xe2;" horiz-adv-x="864" 
d="M70 357q3 49 35.5 80.5t83.5 50.5t111 26t118 7q99 0 170.5 -11t118.5 -36.5t69.5 -66.5t22.5 -101v-239q0 -14 1.5 -30t5.5 -37h-262l-5 72q-42 -53 -100.5 -72t-136.5 -19q-48 0 -92 3.5t-76 15.5q-38 14 -66 45.5t-28 82.5q0 56 32.5 91t87 54.5t126.5 26.5t150 7h81
v28q0 32 -18.5 56t-67.5 24q-51 0 -70.5 -17.5t-23.5 -40.5h-267zM480 211q-86 0 -122 -17.5t-36 -49.5q0 -22 19 -39.5t57 -17.5q55 0 87 31.5t32 76.5v16h-37zM305 722h252l145 -146h-209l-58 70l-53 -70h-220z" />
    <glyph glyph-name="atilde" unicode="&#xe3;" horiz-adv-x="864" 
d="M70 357q3 49 35.5 80.5t83.5 50.5t111 26t118 7q99 0 170.5 -11t118.5 -36.5t69.5 -66.5t22.5 -101v-239q0 -14 1.5 -30t5.5 -37h-262l-5 72q-42 -53 -100.5 -72t-136.5 -19q-48 0 -92 3.5t-76 15.5q-38 14 -66 45.5t-28 82.5q0 56 32.5 91t87 54.5t126.5 26.5t150 7h81
v28q0 32 -18.5 56t-67.5 24q-51 0 -70.5 -17.5t-23.5 -40.5h-267zM480 211q-86 0 -122 -17.5t-36 -49.5q0 -22 19 -39.5t57 -17.5q55 0 87 31.5t32 76.5v16h-37zM673 734q0 -28 -8 -56.5t-24.5 -51t-43 -36.5t-63.5 -14q-22 0 -50.5 7t-57 16t-52.5 16t-36 7
q-17 0 -28.5 -10.5t-13.5 -23.5h-105q5 75 40.5 110.5t110.5 35.5q24 0 48.5 -6t47.5 -12.5t44.5 -12.5t40.5 -6q45 0 48 37h102z" />
    <glyph glyph-name="adieresis" unicode="&#xe4;" horiz-adv-x="864" 
d="M70 357q3 49 35.5 80.5t83.5 50.5t111 26t118 7q99 0 170.5 -11t118.5 -36.5t69.5 -66.5t22.5 -101v-239q0 -14 1.5 -30t5.5 -37h-262l-5 72q-42 -53 -100.5 -72t-136.5 -19q-48 0 -92 3.5t-76 15.5q-38 14 -66 45.5t-28 82.5q0 56 32.5 91t87 54.5t126.5 26.5t150 7h81
v28q0 32 -18.5 56t-67.5 24q-51 0 -70.5 -17.5t-23.5 -40.5h-267zM480 211q-86 0 -122 -17.5t-36 -49.5q0 -22 19 -39.5t57 -17.5q55 0 87 31.5t32 76.5v16h-37zM474 722h240v-140h-240v140zM150 722h240v-140h-240v140z" />
    <glyph glyph-name="aring" unicode="&#xe5;" horiz-adv-x="864" 
d="M70 357q3 49 35.5 80.5t83.5 50.5t111 26t118 7q99 0 170.5 -11t118.5 -36.5t69.5 -66.5t22.5 -101v-239q0 -14 1.5 -30t5.5 -37h-262l-5 72q-42 -53 -100.5 -72t-136.5 -19q-48 0 -92 3.5t-76 15.5q-38 14 -66 45.5t-28 82.5q0 56 32.5 91t87 54.5t126.5 26.5t150 7h81
v28q0 32 -18.5 56t-67.5 24q-51 0 -70.5 -17.5t-23.5 -40.5h-267zM480 211q-86 0 -122 -17.5t-36 -49.5q0 -22 19 -39.5t57 -17.5q55 0 87 31.5t32 76.5v16h-37zM383 656q0 -17 13 -32t36 -15t36 15t13 32t-13 32t-36 15t-36 -15t-13 -32zM243 656q0 21 10 39t32 31.5
t58.5 21t88.5 7.5q53 0 89 -7.5t58 -21t32 -31.5t10 -39t-10 -39t-32 -31.5t-58 -21t-89 -7.5q-52 0 -88.5 7.5t-58.5 21t-32 31.5t-10 39z" />
    <glyph glyph-name="ae" unicode="&#xe6;" horiz-adv-x="1309" 
d="M38 149q0 158 298 158h167v23q0 41 -22 64.5t-64 23.5q-39 0 -59.5 -17.5t-24.5 -43.5h-262q3 50 35.5 82t80.5 50t105.5 25t109.5 7q75 0 143 -21.5t125 -66.5q17 15 43 31t59 28.5t72 20.5t82 8q55 0 116 -12.5t112 -43.5t84 -83.5t33 -133.5v-37h-470q0 -64 25 -94
t76 -30q43 0 66 18t27 46h265q-10 -49 -43.5 -81.5t-82 -52t-107.5 -28t-119 -8.5q-42 0 -86 6.5t-83 20.5t-70.5 36.5t-47.5 54.5q-40 -50 -112.5 -84t-188.5 -34q-133 0 -207.5 43.5t-74.5 124.5zM405 211q-45 0 -68 -17.5t-23 -46.5q0 -22 19.5 -41t59.5 -19
q32 0 53.5 9.5t34 24t17.5 32.5t5 36v22h-98zM989 307q0 49 -22.5 78.5t-67.5 29.5q-48 0 -73 -29t-25 -79h188z" />
    <glyph glyph-name="ccedilla" unicode="&#xe7;" 
d="M400 -19q-76 2 -142 18.5t-114.5 49t-76 83t-27.5 120.5q0 71 27.5 122t79.5 83.5t127 48t170 15.5q65 0 129.5 -9.5t116 -34t84 -66t32.5 -106.5h-282q-2 20 -7.5 37t-16.5 30t-25.5 20t-36.5 7q-50 0 -72 -38.5t-22 -101.5q0 -33 4 -61.5t14.5 -49.5t27.5 -33t44 -12
q25 0 42.5 8t28 21t15 30t4.5 35h288q-1 -57 -31 -98t-83 -67q-45 -22 -102 -34t-123 -16l-46 -49l2 -2q8 3 26 6.5t38 3.5q46 0 73 -19.5t27 -61.5q0 -46 -42 -70.5t-121 -24.5q-38 0 -82.5 6.5t-79.5 17.5l21 56q19 -8 42 -15t50 -7q26 0 43 8.5t17 23.5q0 14 -11.5 21
t-29.5 7q-14 0 -26.5 -2.5t-20.5 -6.5l-29 31z" />
    <glyph glyph-name="egrave" unicode="&#xe8;" 
d="M328 211q0 -64 25 -94t76 -30q43 0 62.5 17t25.5 41h288q-3 -31 -25 -61t-66.5 -52.5t-113.5 -36.5t-166 -14q-88 0 -160.5 15t-124.5 47.5t-80.5 83t-28.5 121.5q0 73 29 125t80.5 85t122.5 48t154 15q72 0 141.5 -13t123.5 -45t87.5 -87t33.5 -138v-27h-484zM524 307
q0 49 -23.5 78.5t-74.5 29.5q-48 0 -73 -29t-25 -79h196zM173 722h298l82 -146h-208z" />
    <glyph glyph-name="eacute" unicode="&#xe9;" 
d="M328 211q0 -64 25 -94t76 -30q43 0 62.5 17t25.5 41h288q-3 -31 -25 -61t-66.5 -52.5t-113.5 -36.5t-166 -14q-88 0 -160.5 15t-124.5 47.5t-80.5 83t-28.5 121.5q0 73 29 125t80.5 85t122.5 48t154 15q72 0 141.5 -13t123.5 -45t87.5 -87t33.5 -138v-27h-484zM524 307
q0 49 -23.5 78.5t-74.5 29.5q-48 0 -73 -29t-25 -79h196zM319 576l82 146h298l-172 -146h-208z" />
    <glyph glyph-name="ecircumflex" unicode="&#xea;" 
d="M328 211q0 -64 25 -94t76 -30q43 0 62.5 17t25.5 41h288q-3 -31 -25 -61t-66.5 -52.5t-113.5 -36.5t-166 -14q-88 0 -160.5 15t-124.5 47.5t-80.5 83t-28.5 121.5q0 73 29 125t80.5 85t122.5 48t154 15q72 0 141.5 -13t123.5 -45t87.5 -87t33.5 -138v-27h-484zM524 307
q0 49 -23.5 78.5t-74.5 29.5q-48 0 -73 -29t-25 -79h196zM309 722h252l145 -146h-209l-58 70l-53 -70h-220z" />
    <glyph glyph-name="edieresis" unicode="&#xeb;" 
d="M328 211q0 -64 25 -94t76 -30q43 0 62.5 17t25.5 41h288q-3 -31 -25 -61t-66.5 -52.5t-113.5 -36.5t-166 -14q-88 0 -160.5 15t-124.5 47.5t-80.5 83t-28.5 121.5q0 73 29 125t80.5 85t122.5 48t154 15q72 0 141.5 -13t123.5 -45t87.5 -87t33.5 -138v-27h-484zM524 307
q0 49 -23.5 78.5t-74.5 29.5q-48 0 -73 -29t-25 -79h196zM478 722h240v-140h-240v140zM154 722h240v-140h-240v140z" />
    <glyph glyph-name="igrave" unicode="&#xec;" horiz-adv-x="444" 
d="M369 502v-502h-294v502h294zM-41 722h298l82 -146h-208z" />
    <glyph glyph-name="iacute" unicode="&#xed;" horiz-adv-x="444" 
d="M369 502v-502h-294v502h294zM105 576l82 146h298l-172 -146h-208z" />
    <glyph glyph-name="icircumflex" unicode="&#xee;" horiz-adv-x="444" 
d="M369 502v-502h-294v502h294zM95 722h252l145 -146h-209l-58 70l-53 -70h-220z" />
    <glyph glyph-name="idieresis" unicode="&#xef;" horiz-adv-x="444" 
d="M369 502v-502h-294v502h294zM264 722h240v-140h-240v140zM-60 722h240v-140h-240v140z" />
    <glyph glyph-name="eth" unicode="&#xf0;" horiz-adv-x="890" 
d="M350 251q0 -29 5 -54.5t16 -45t29 -31t45 -11.5t45 11.5t29 31t16 45t5 54.5q0 28 -5 53t-16 44t-29 30.5t-45 11.5t-45 -11.5t-29 -30.5t-16 -44t-5 -53zM110 568l112 44v2q-37 10 -68 16t-52 8l192 114q88 -8 176 -40l150 60l76 -62l-117 -47q56 -31 104 -71.5
t84 -89.5t56.5 -106t20.5 -120q0 -87 -28.5 -143.5t-80.5 -90.5t-125.5 -47.5t-164.5 -13.5t-164.5 13t-125.5 43.5t-80.5 80.5t-28.5 124q0 72 30.5 121.5t78.5 80.5t107.5 44.5t117.5 13.5q35 0 66.5 -6.5t69.5 -27.5l2 2q-25 27 -71.5 53t-100.5 47l-160 -64z" />
    <glyph glyph-name="ntilde" unicode="&#xf1;" horiz-adv-x="914" 
d="M75 305q0 51 -1 100t-5 97h290l4 -88h2q36 54 94 80.5t135 26.5q34 0 76.5 -7.5t80 -31t63 -67t25.5 -115.5v-300h-294v269q0 56 -21 78t-59 22q-51 0 -73.5 -30.5t-22.5 -88.5v-250h-294v305zM698 734q0 -28 -8 -56.5t-24.5 -51t-43 -36.5t-63.5 -14q-22 0 -50.5 7
t-57 16t-52.5 16t-36 7q-17 0 -28.5 -10.5t-13.5 -23.5h-105q5 75 40.5 110.5t110.5 35.5q24 0 48.5 -6t47.5 -12.5t44.5 -12.5t40.5 -6q45 0 48 37h102z" />
    <glyph glyph-name="ograve" unicode="&#xf2;" horiz-adv-x="890" 
d="M46 251q0 77 28.5 128.5t80.5 83t125.5 45t164.5 13.5t164.5 -13.5t125.5 -45t80.5 -83t28.5 -128.5q0 -76 -28.5 -128t-80.5 -83.5t-125.5 -45t-164.5 -13.5t-164.5 13.5t-125.5 45t-80.5 83.5t-28.5 128zM350 251q0 -29 5 -54.5t16 -45t29 -31t45 -11.5t45 11.5t29 31
t16 45t5 54.5t-5 54.5t-16 45t-29 31t-45 11.5t-45 -11.5t-29 -31t-16 -45t-5 -54.5zM182 722h298l82 -146h-208z" />
    <glyph glyph-name="oacute" unicode="&#xf3;" horiz-adv-x="890" 
d="M46 251q0 77 28.5 128.5t80.5 83t125.5 45t164.5 13.5t164.5 -13.5t125.5 -45t80.5 -83t28.5 -128.5q0 -76 -28.5 -128t-80.5 -83.5t-125.5 -45t-164.5 -13.5t-164.5 13.5t-125.5 45t-80.5 83.5t-28.5 128zM350 251q0 -29 5 -54.5t16 -45t29 -31t45 -11.5t45 11.5t29 31
t16 45t5 54.5t-5 54.5t-16 45t-29 31t-45 11.5t-45 -11.5t-29 -31t-16 -45t-5 -54.5zM328 576l82 146h298l-172 -146h-208z" />
    <glyph glyph-name="ocircumflex" unicode="&#xf4;" horiz-adv-x="890" 
d="M46 251q0 77 28.5 128.5t80.5 83t125.5 45t164.5 13.5t164.5 -13.5t125.5 -45t80.5 -83t28.5 -128.5q0 -76 -28.5 -128t-80.5 -83.5t-125.5 -45t-164.5 -13.5t-164.5 13.5t-125.5 45t-80.5 83.5t-28.5 128zM350 251q0 -29 5 -54.5t16 -45t29 -31t45 -11.5t45 11.5t29 31
t16 45t5 54.5t-5 54.5t-16 45t-29 31t-45 11.5t-45 -11.5t-29 -31t-16 -45t-5 -54.5zM318 722h252l145 -146h-209l-58 70l-53 -70h-220z" />
    <glyph glyph-name="otilde" unicode="&#xf5;" horiz-adv-x="890" 
d="M46 251q0 77 28.5 128.5t80.5 83t125.5 45t164.5 13.5t164.5 -13.5t125.5 -45t80.5 -83t28.5 -128.5q0 -76 -28.5 -128t-80.5 -83.5t-125.5 -45t-164.5 -13.5t-164.5 13.5t-125.5 45t-80.5 83.5t-28.5 128zM350 251q0 -29 5 -54.5t16 -45t29 -31t45 -11.5t45 11.5t29 31
t16 45t5 54.5t-5 54.5t-16 45t-29 31t-45 11.5t-45 -11.5t-29 -31t-16 -45t-5 -54.5zM686 734q0 -28 -8 -56.5t-24.5 -51t-43 -36.5t-63.5 -14q-22 0 -50.5 7t-57 16t-52.5 16t-36 7q-17 0 -28.5 -10.5t-13.5 -23.5h-105q5 75 40.5 110.5t110.5 35.5q24 0 48.5 -6
t47.5 -12.5t44.5 -12.5t40.5 -6q45 0 48 37h102z" />
    <glyph glyph-name="odieresis" unicode="&#xf6;" horiz-adv-x="890" 
d="M46 251q0 77 28.5 128.5t80.5 83t125.5 45t164.5 13.5t164.5 -13.5t125.5 -45t80.5 -83t28.5 -128.5q0 -76 -28.5 -128t-80.5 -83.5t-125.5 -45t-164.5 -13.5t-164.5 13.5t-125.5 45t-80.5 83.5t-28.5 128zM350 251q0 -29 5 -54.5t16 -45t29 -31t45 -11.5t45 11.5t29 31
t16 45t5 54.5t-5 54.5t-16 45t-29 31t-45 11.5t-45 -11.5t-29 -31t-16 -45t-5 -54.5zM487 722h240v-140h-240v140zM163 722h240v-140h-240v140z" />
    <glyph glyph-name="divide" unicode="&#xf7;" horiz-adv-x="600" 
d="M47 329h506v-152h-506v152zM204 478q0 40 28 68t68 28t68 -28t28 -68t-28 -68t-68 -28t-68 28t-28 68zM204 28q0 40 28 68t68 28t68 -28t28 -68t-28 -68t-68 -28t-68 28t-28 68z" />
    <glyph glyph-name="oslash" unicode="&#xf8;" horiz-adv-x="890" 
d="M510 364q-23 29 -65 29q-27 0 -45 -11.5t-29 -31t-16 -45t-5 -54.5q0 -23 4 -42zM380 138q24 -29 65 -29q27 0 45 11.5t29 31t16 45t5 54.5q0 25 -4 42zM108 -34l65 64q-61 31 -94 84.5t-33 136.5q0 77 28.5 128.5t80.5 83t125.5 45t164.5 13.5q57 0 107.5 -5.5
t92.5 -17.5l88 87l49 -49l-65 -64q61 -30 94 -83.5t33 -137.5q0 -76 -28.5 -128t-80.5 -83.5t-125.5 -45t-164.5 -13.5q-57 0 -107.5 5.5t-92.5 17.5l-88 -87z" />
    <glyph glyph-name="ugrave" unicode="&#xf9;" horiz-adv-x="914" 
d="M839 197q0 -51 1 -100t5 -97h-290l-4 88h-2q-36 -54 -94 -80.5t-135 -26.5q-34 0 -76.5 7.5t-80 31t-63 67t-25.5 115.5v300h294v-269q0 -56 21 -78t59 -22q51 0 73.5 30.5t22.5 88.5v250h294v-305zM194 722h298l82 -146h-208z" />
    <glyph glyph-name="uacute" unicode="&#xfa;" horiz-adv-x="914" 
d="M839 197q0 -51 1 -100t5 -97h-290l-4 88h-2q-36 -54 -94 -80.5t-135 -26.5q-34 0 -76.5 7.5t-80 31t-63 67t-25.5 115.5v300h294v-269q0 -56 21 -78t59 -22q51 0 73.5 30.5t22.5 88.5v250h294v-305zM340 576l82 146h298l-172 -146h-208z" />
    <glyph glyph-name="ucircumflex" unicode="&#xfb;" horiz-adv-x="914" 
d="M839 197q0 -51 1 -100t5 -97h-290l-4 88h-2q-36 -54 -94 -80.5t-135 -26.5q-34 0 -76.5 7.5t-80 31t-63 67t-25.5 115.5v300h294v-269q0 -56 21 -78t59 -22q51 0 73.5 30.5t22.5 88.5v250h294v-305zM330 722h252l145 -146h-209l-58 70l-53 -70h-220z" />
    <glyph glyph-name="udieresis" unicode="&#xfc;" horiz-adv-x="914" 
d="M839 197q0 -51 1 -100t5 -97h-290l-4 88h-2q-36 -54 -94 -80.5t-135 -26.5q-34 0 -76.5 7.5t-80 31t-63 67t-25.5 115.5v300h294v-269q0 -56 21 -78t59 -22q51 0 73.5 30.5t22.5 88.5v250h294v-305zM499 722h240v-140h-240v140zM175 722h240v-140h-240v140z" />
    <glyph glyph-name="yacute" unicode="&#xfd;" horiz-adv-x="864" 
d="M192 -192l107 192l-290 502h326l116 -270l113 270h291l-184 -326q-39 -70 -68.5 -124.5t-51.5 -98.5t-37.5 -79t-27.5 -66h-294zM315 576l82 146h298l-172 -146h-208z" />
    <glyph glyph-name="thorn" unicode="&#xfe;" horiz-adv-x="914" 
d="M75 722h294v-307h2q33 48 85 77t132 29q62 0 113.5 -15.5t88.5 -48.5t57.5 -85.5t20.5 -126.5q0 -66 -21.5 -115.5t-60.5 -82.5t-92 -49.5t-116 -16.5q-69 0 -121 21.5t-88 56.5v-251h-294v914zM369 251q0 -25 4 -49t14.5 -43.5t29.5 -31.5t49 -12q31 0 50 12t29.5 31.5
t14.5 43.5t4 49q0 60 -22 98t-75 38q-46 0 -72 -37.5t-26 -98.5z" />
    <glyph glyph-name="ydieresis" unicode="&#xff;" horiz-adv-x="864" 
d="M192 -192l107 192l-290 502h326l116 -270l113 270h291l-184 -326q-39 -70 -68.5 -124.5t-51.5 -98.5t-37.5 -79t-27.5 -66h-294zM474 722h240v-140h-240v140zM150 722h240v-140h-240v140z" />
    <glyph glyph-name="dotlessi" unicode="&#x131;" horiz-adv-x="444" 
d="M369 502v-502h-294v502h294z" />
    <glyph glyph-name="Lslash" unicode="&#x141;" horiz-adv-x="742" 
d="M89 197l-69 -39v158l69 39v367h304v-195l123 70v-158l-123 -70v-193h333v-176h-637v197z" />
    <glyph glyph-name="lslash" unicode="&#x142;" horiz-adv-x="444" 
d="M75 206l-71 -46v176l71 46v340h294v-162l71 46v-176l-71 -46v-384h-294v206z" />
    <glyph glyph-name="OE" unicode="&#x152;" horiz-adv-x="1359" 
d="M662 565q-17 2 -35.5 3.5t-39.5 1.5q-52 0 -90.5 -9t-67.5 -29q-30 -21 -53.5 -65t-23.5 -108q0 -41 12.5 -78.5t40 -66t72 -45.5t108.5 -17q23 0 42.5 1.5t34.5 3.5v408zM944 152h373v-152h-865q-193 0 -298.5 91t-105.5 270q0 83 27.5 149.5t80.5 113.5t131.5 72.5
t180.5 25.5h844v-152h-368v-133h344v-152h-344v-133z" />
    <glyph glyph-name="oe" unicode="&#x153;" horiz-adv-x="1309" 
d="M329 252q0 -72 26.5 -107.5t71.5 -35.5t71.5 35.5t26.5 107.5t-26.5 106.5t-71.5 34.5t-71.5 -34.5t-26.5 -106.5zM999 307q0 49 -23.5 78.5t-74.5 29.5q-48 0 -73 -29t-25 -79h196zM803 211q0 -64 25 -94t76 -30q80 0 100 62h264q-7 -29 -27 -59t-59 -54t-100.5 -39.5
t-151.5 -15.5q-54 0 -94.5 4t-73 13.5t-60.5 25t-57 37.5q-59 -44 -123 -62t-148 -18q-70 0 -132 13.5t-108 45t-72.5 82.5t-26.5 127q0 77 28 129.5t76.5 84t115 45t143.5 13.5q91 0 160.5 -22.5t123.5 -61.5q34 38 91 61t152 23q65 0 127.5 -13t111.5 -44.5t79.5 -85.5
t30.5 -135v-32h-471z" />
    <glyph glyph-name="Scaron" unicode="&#x160;" horiz-adv-x="988" 
d="M368 232q1 -30 7.5 -52t20.5 -36q15 -14 36 -21.5t51 -7.5q24 0 47 3.5t42 11.5t30.5 22t11.5 36q0 18 -13 33q-10 12 -43 22.5t-78.5 22t-99 23.5t-103.5 26.5t-92.5 32t-66.5 38.5q-29 26 -40 60.5t-11 65.5q0 119 108 174t326 55q115 0 192 -15.5t123.5 -45.5
t67 -73.5t21.5 -99.5h-298q-2 30 -11 49.5t-26 30.5q-16 11 -38 15.5t-51 4.5q-48 0 -73 -16.5t-25 -44.5q0 -8 3 -17.5t10 -15.5q12 -11 45 -21.5t78 -21.5t97 -23t101 -26.5t90.5 -31.5t65.5 -39q21 -19 39 -50t18 -84q0 -54 -25 -97t-79.5 -74t-141 -47.5t-209.5 -16.5
q-98 0 -166.5 9.5t-114.5 26t-72.5 39.5t-40 51t-17.5 60t-6 65h310zM224 919h209l58 -70l53 70h220l-143 -146h-252z" />
    <glyph glyph-name="scaron" unicode="&#x161;" horiz-adv-x="864" 
d="M520 357q-2 17 -10.5 28t-21.5 18t-29.5 9.5t-35.5 2.5q-36 0 -60 -12t-24 -32q0 -11 3.5 -18.5t17.5 -13.5t42 -11.5t77 -12.5l101 -15q59 -9 103 -20t73 -28.5t44 -43t15 -63.5q0 -83 -87.5 -123.5t-281.5 -40.5q-119 0 -195 10.5t-120.5 31t-62 51.5t-19.5 71h270
q4 -16 10.5 -27t19.5 -19t32 -10t46 -2q100 0 100 44q0 13 -5 21t-19.5 14.5t-41 11.5t-70.5 12l-197 31q-66 11 -98.5 43.5t-32.5 77.5q0 96 95 137.5t267 41.5q84 0 151.5 -7t115 -25t73 -50t25.5 -82h-270zM162 722h209l58 -70l53 70h220l-143 -146h-252z" />
    <glyph glyph-name="Ydieresis" unicode="&#x178;" horiz-adv-x="1012" 
d="M354 216l-354 506h379l150 -298l159 298h324l-354 -506v-216h-304v216zM548 919h240v-140h-240v140zM224 919h240v-140h-240v140z" />
    <glyph glyph-name="Zcaron" unicode="&#x17d;" horiz-adv-x="890" 
d="M51 195l377 351h-354v176h750v-176l-397 -370h412v-176h-788v195zM175 919h209l58 -70l53 70h220l-143 -146h-252z" />
    <glyph glyph-name="zcaron" unicode="&#x17e;" horiz-adv-x="766" 
d="M42 128l260 234h-235v140h639v-128l-284 -226v-2h302v-146h-682v128zM113 722h209l58 -70l53 70h220l-143 -146h-252z" />
    <glyph glyph-name="florin" unicode="&#x192;" 
d="M160 447h124l15 98q8 50 25 84t46 54.5t70 29.5t96 9q65 0 121.5 -5.5t101.5 -13.5l-25 -135q-15 3 -32 5.5t-32 2.5q-16 0 -30.5 -3.5t-27 -13.5t-21.5 -27.5t-13 -44.5l-6 -40h141l-27 -128h-134l-42 -290q-9 -65 -27 -110.5t-50 -74.5t-80 -42t-119 -13
q-44 0 -95.5 6.5t-93.5 17.5l23 126q12 -2 24 -3t23 -1q32 0 51.5 9.5t31 27t17.5 43t11 58.5l38 246h-128z" />
    <glyph glyph-name="circumflex" unicode="&#x2c6;" horiz-adv-x="370" 
d="M58 722h252l145 -146h-209l-58 70l-53 -70h-220z" />
    <glyph glyph-name="caron" unicode="&#x2c7;" horiz-adv-x="370" 
d="M-85 722h209l58 -70l53 70h220l-143 -146h-252z" />
    <glyph glyph-name="breve" unicode="&#x2d8;" horiz-adv-x="370" 
d="M83 722q9 -32 34 -47q26 -15 68 -15q85 0 102 62h131q-3 -39 -23.5 -67.5t-53 -47t-73.5 -28t-83 -9.5t-83 9.5t-73.5 28t-53 47t-23.5 67.5h131z" />
    <glyph glyph-name="dotaccent" unicode="&#x2d9;" horiz-adv-x="370" 
d="M65 722h240v-140h-240v140z" />
    <glyph glyph-name="ring" unicode="&#x2da;" horiz-adv-x="370" 
d="M136 656q0 -17 13 -32t36 -15t36 15t13 32t-13 32t-36 15t-36 -15t-13 -32zM-4 656q0 21 10 39t32 31.5t58.5 21t88.5 7.5q53 0 89 -7.5t58 -21t32 -31.5t10 -39t-10 -39t-32 -31.5t-58 -21t-89 -7.5q-52 0 -88.5 7.5t-58.5 21t-32 31.5t-10 39z" />
    <glyph glyph-name="ogonek" unicode="&#x2db;" horiz-adv-x="370" 
d="M375 0q-60 -35 -86.5 -61t-26.5 -52q0 -46 57 -46q29 0 56 11l17 -70q-23 -7 -57.5 -12t-75.5 -5q-31 0 -58.5 5.5t-47.5 17t-31.5 30.5t-11.5 46q0 21 11 41t29.5 37.5t43 32.5t50.5 25h131z" />
    <glyph glyph-name="tilde" unicode="&#x2dc;" horiz-adv-x="370" 
d="M426 734q0 -28 -8 -56.5t-24.5 -51t-43 -36.5t-63.5 -14q-22 0 -50.5 7t-57 16t-52.5 16t-36 7q-17 0 -28.5 -10.5t-13.5 -23.5h-105q5 75 40.5 110.5t110.5 35.5q24 0 48.5 -6t47.5 -12.5t44.5 -12.5t40.5 -6q45 0 48 37h102z" />
    <glyph glyph-name="hungarumlaut" unicode="&#x2dd;" horiz-adv-x="370" 
d="M-95 576l82 146h298l-172 -146h-208zM229 576l82 146h298l-172 -146h-208z" />
    <glyph glyph-name="endash" unicode="&#x2013;" horiz-adv-x="500" 
d="M0 343h500v-152h-500v152z" />
    <glyph glyph-name="emdash" unicode="&#x2014;" horiz-adv-x="1000" 
d="M0 343h1000v-152h-1000v152z" />
    <glyph glyph-name="quoteleft" unicode="&#x2018;" horiz-adv-x="420" 
d="M157 722h232l-88 -273h-294z" />
    <glyph glyph-name="quoteright" unicode="&#x2019;" horiz-adv-x="420" 
d="M119 722h294l-150 -273h-232z" />
    <glyph glyph-name="quotesinglbase" unicode="&#x201a;" horiz-adv-x="420" 
d="M83 148h294l-150 -273h-232z" />
    <glyph glyph-name="quotedblleft" unicode="&#x201c;" horiz-adv-x="742" 
d="M503 722h212l-87 -273h-268zM170 722h212l-87 -273h-268z" />
    <glyph glyph-name="quotedblright" unicode="&#x201d;" horiz-adv-x="742" 
d="M114 722h268l-143 -273h-212zM447 722h268l-143 -273h-212z" />
    <glyph glyph-name="quotedblbase" unicode="&#x201e;" horiz-adv-x="742" 
d="M88 148h268l-143 -273h-212zM421 148h268l-143 -273h-212z" />
    <glyph glyph-name="dagger" unicode="&#x2020;" 
d="M291 377h-175v176h175v169h258v-169h175v-176h-175v-377h-258v377z" />
    <glyph glyph-name="daggerdbl" unicode="&#x2021;" 
d="M297 113h-174v164h174v168h-174v164h174v113h246v-113h174v-164h-174v-168h174v-164h-174v-113h-246v113z" />
    <glyph glyph-name="bullet" unicode="&#x2022;" horiz-adv-x="500" 
d="M69 361q0 38 14 70.5t39 57.5t58 39t70 14q38 0 70.5 -14t57.5 -39t39 -57.5t14 -70.5q0 -37 -14 -70t-39 -58t-57.5 -39t-70.5 -14q-37 0 -70 14t-58 39t-39 58t-14 70z" />
    <glyph glyph-name="ellipsis" unicode="&#x2026;" horiz-adv-x="1000" 
d="M29 164h276v-164h-276v164zM362 164h276v-164h-276v164zM695 164h276v-164h-276v164z" />
    <glyph glyph-name="perthousand" unicode="&#x2030;" horiz-adv-x="1592" 
d="M1127 179q0 51 16.5 88t46.5 61.5t71 36.5t90 12q113 0 168.5 -50t55.5 -148q0 -51 -16.5 -88t-46.5 -61.5t-71 -36.5t-90 -12t-90 12t-71 36.5t-46.5 61.5t-16.5 88zM1291 178q0 -46 11.5 -76.5t48.5 -30.5q60 0 60 107q0 48 -11 78.5t-49 30.5q-37 0 -48.5 -30.5
t-11.5 -78.5zM181 523q0 -46 11.5 -76.5t48.5 -30.5q60 0 60 107q0 48 -11 78.5t-49 30.5q-37 0 -48.5 -30.5t-11.5 -78.5zM17 524q0 51 16.5 88t46.5 61.5t71 36.5t90 12q113 0 168.5 -50t55.5 -148q0 -51 -16.5 -88t-46.5 -61.5t-71 -36.5t-90 -12t-90 12t-71 36.5
t-46.5 61.5t-16.5 88zM614 179q0 51 16.5 88t46.5 61.5t71 36.5t90 12q113 0 168.5 -50t55.5 -148q0 -51 -16.5 -88t-46.5 -61.5t-71 -36.5t-90 -12t-90 12t-71 36.5t-46.5 61.5t-16.5 88zM778 178q0 -46 11.5 -76.5t48.5 -30.5q60 0 60 107q0 48 -11 78.5t-49 30.5
q-37 0 -48.5 -30.5t-11.5 -78.5zM726 741h147l-517 -779h-147z" />
    <glyph glyph-name="guilsinglleft" unicode="&#x2039;" horiz-adv-x="568" 
d="M527 492l-204 -224l211 -226h-304l-217 221l220 229h294z" />
    <glyph glyph-name="guilsinglright" unicode="&#x203a;" horiz-adv-x="568" 
d="M41 42l204 224l-211 226h304l217 -221l-220 -229h-294z" />
    <glyph glyph-name="fraction" unicode="&#x2044;" horiz-adv-x="222" 
d="M296 741h147l-517 -779h-147z" />
    <glyph glyph-name="trademark" unicode="&#x2122;" horiz-adv-x="1000" 
d="M147 626h-108v96h344v-96h-108v-316h-128v316zM821 576h-2l-86 -266h-94l-86 266h-2v-266h-122v412h174l82 -239h2l82 239h174v-412h-122v266z" />
    <glyph glyph-name="minus" unicode="&#x2212;" horiz-adv-x="600" 
d="M47 329h506v-152h-506v152z" />
    <glyph glyph-name="fi" unicode="&#xfb01;" horiz-adv-x="963" 
d="M893 502v-502h-294v502h294zM893 722v-146h-294v146h294zM103 362h-84v140h84v24q0 51 11.5 90.5t41.5 67.5t83 42.5t136 14.5q41 0 86.5 -3.5t87.5 -11.5v-131q-14 4 -27.5 5t-32.5 1q-44 0 -68 -18.5t-24 -56.5v-24h143v-140h-143v-362h-294v362z" />
    <glyph glyph-name="fl" unicode="&#xfb02;" horiz-adv-x="963" 
d="M893 722v-722h-294v722h294zM103 362h-84v140h84v24q0 51 11.5 90.5t41.5 67.5t83 42.5t136 14.5q41 0 86.5 -3.5t87.5 -11.5v-131q-14 4 -27.5 5t-32.5 1q-44 0 -68 -18.5t-24 -56.5v-24h143v-140h-143v-362h-294v362z" />
  </font>
</defs>
</svg>
